<svg xmlns="http://www.w3.org/2000/svg" viewBox="0 0 60 60"><defs><style>.cls-1,.cls-2,.cls-3{fill:none;}.cls-2,.cls-3{stroke:#353535;stroke-linejoin:round;}.cls-3{stroke-width:1.5px;}</style></defs><title>безткани</title><g id="Слой_2" data-name="Слой 2"><g id="Слой_1-2" data-name="Слой 1"><rect class="cls-1" width="60" height="60"/><path class="cls-2" d="M23.35,36.11V51.43a.77.77,0,0,1-.77.77h-.15a.77.77,0,0,1-.76-.77V35.81"/><path class="cls-2" d="M38.71,36.15V51.51a.76.76,0,0,1-.76.76H37.8a.76.76,0,0,1-.76-.76V36.15"/><path class="cls-2" d="M20.11,35.23V54a.76.76,0,0,1-.76.76H19.2a.77.77,0,0,1-.77-.76V35.23"/><path class="cls-3" d="M42.75,33.07v-.66c0-1.27-5.71-2.3-12.75-2.3s-12.74,1-12.74,2.3v1.1"/><path class="cls-2" d="M42,35.34V54a.78.78,0,0,1-.78.78h-.28a.77.77,0,0,1-.77-.78V35.34"/><rect class="cls-3" x="17.26" y="33.07" width="25.51" height="2.38"/><path class="cls-3" d="M19.83,30.93,18,15C17.45,8.64,22.88,3.84,28.81,3.84h2.1C36.84,3.84,42.36,9,41.7,15L39.9,30.93"/><path class="cls-2" d="M22.28,30.61,20.45,16.45c-.53-6,3.78-10,8.41-10h1.63c4.63,0,9,3.75,8.41,10L37.11,30.61"/></g></g></svg>