<svg xmlns="http://www.w3.org/2000/svg" width="60" height="60" viewBox="0 0 60 60"><title>Кресло кровать</title><g id="Слой_2" data-name="Слой 2"><g id="Слой_1-2" data-name="Слой 1"><rect width="60" height="60" fill="none"/><path d="M49.24,22.4V15c0-1.47-1.61-2.67-3.6-2.67H14.32c-2,0-3.6,1.2-3.6,2.67v7.24" fill="none" stroke="#353535" stroke-linejoin="round" stroke-width="1.5"/><path d="M14.34,27.77A56.28,56.28,0,0,1,30,25.9a59,59,0,0,1,15,1.67" fill="none" stroke="#353535" stroke-linejoin="round" stroke-width="1.5"/><line x1="45.68" y1="45.88" x2="14.25" y2="45.81" fill="none" stroke="#353535" stroke-linejoin="round" stroke-width="1.5"/><line x1="14.28" y1="33.32" x2="45.71" y2="33.38" fill="none" stroke="#353535" stroke-linejoin="round" stroke-width="1.5"/><path d="M9.37,27.24a1.19,1.19,0,1,1,1.19,1.19A1.19,1.19,0,0,1,9.37,27.24Z" fill="none" stroke="#353535" stroke-linejoin="round" stroke-width="0.75"/><rect x="6.25" y="22.31" width="8.63" height="25.38" rx="2" ry="2" fill="none" stroke="#353535" stroke-linejoin="round" stroke-width="1.5"/><path d="M48.25,27.24a1.19,1.19,0,1,1,1.19,1.19A1.19,1.19,0,0,1,48.25,27.24Z" fill="none" stroke="#353535" stroke-linejoin="round" stroke-width="0.75"/><rect x="45.13" y="22.31" width="8.63" height="25.38" rx="2" ry="2" fill="none" stroke="#353535" stroke-linejoin="round" stroke-width="1.5"/></g></g></svg>