<svg xmlns="http://www.w3.org/2000/svg" width="60" height="60" viewBox="0 0 60 60"><title>Кресло</title><g id="Слой_2" data-name="Слой 2"><g id="Слой_1-2" data-name="Слой 1"><path d="M48.76,26.91V16.09a3.75,3.75,0,0,0-3.6-3.89H13.84a3.75,3.75,0,0,0-3.6,3.89V26.66" fill="none" stroke="#353535" stroke-linejoin="round" stroke-width="1.5"/><path d="M13.86,32.28A56.33,56.33,0,0,1,29.5,30.41c6.83,0,12.86.84,16.43,2.14" fill="none" stroke="#353535" stroke-linejoin="round" stroke-width="1.5"/><line x1="45.2" y1="50.38" x2="13.78" y2="50.32" fill="none" stroke="#353535" stroke-linejoin="round" stroke-width="1.5"/><line x1="13.8" y1="37.83" x2="45.23" y2="37.89" fill="none" stroke="#353535" stroke-linejoin="round" stroke-width="1.5"/><path d="M14.05,31.83a5.16,5.16,0,1,0-7.33,4.66V50.1a2,2,0,0,0,2,2h3.35a2,2,0,0,0,2-2V31.83Z" fill="none" stroke="#353535" stroke-linejoin="round" stroke-width="1.5"/><path d="M45.73,31.82a5.27,5.27,0,0,1,10.53,0,5.15,5.15,0,0,1-3,4.66V50.07a2,2,0,0,1-2,2H47.76a2,2,0,0,1-2-2V31.82Z" fill="none" stroke="#353535" stroke-linejoin="round" stroke-width="1.5"/><path d="M7.55,31.75A1.35,1.35,0,1,1,8.9,33.1,1.34,1.34,0,0,1,7.55,31.75Z" fill="none" stroke="#353535" stroke-linejoin="round"/><path d="M49.65,31.75A1.35,1.35,0,1,1,51,33.1,1.34,1.34,0,0,1,49.65,31.75Z" fill="none" stroke="#353535" stroke-linejoin="round"/><rect width="60" height="60" fill="none"/></g></g></svg>