<svg xmlns="http://www.w3.org/2000/svg" width="60" height="60" viewBox="0 0 60 60"><title>Офисный стул</title><g id="Слой_2" data-name="Слой 2"><g id="Слой_1-2" data-name="Слой 1"><rect width="60" height="60" fill="none"/><path d="M24.75,32.7H37.24a4,4,0,0,1,4,4V38a0,0,0,0,1,0,0H20.75a0,0,0,0,1,0,0V36.7A4,4,0,0,1,24.75,32.7Z" fill="none" stroke="#353535" stroke-linejoin="round" stroke-width="1.5"/><polyline points="41.24 25.72 41.24 28.26 20.75 28.26 20.75 25.8" fill="none" stroke="#353535" stroke-linejoin="round" stroke-width="1.5"/><path d="M20.75,23.42V12.92a3.48,3.48,0,0,1,3.46-3.47H37.78a3.48,3.48,0,0,1,3.46,3.47V23.57" fill="none" stroke="#353535" stroke-linejoin="round" stroke-width="1.5"/><rect x="29.43" y="28.16" width="3.14" height="4.48" fill="none" stroke="#353535" stroke-linejoin="round"/><polyline points="32.56 45.88 32.56 37.92 29.43 37.92 29.43 45.88" fill="none" stroke="#353535" stroke-linejoin="round"/><path d="M20.72,38.16h0a1.34,1.34,0,0,1-1.33-1.34V25.64" fill="none" stroke="#353535" stroke-linejoin="round"/><path d="M41.26,38.16h0a1.34,1.34,0,0,0,1.33-1.34V25.64" fill="none" stroke="#353535" stroke-linejoin="round"/><rect x="16.88" y="23.44" width="5.3" height="2.27" rx="0.91" ry="0.91" fill="none" stroke="#353535" stroke-linejoin="round"/><rect x="40.01" y="23.44" width="5.3" height="2.27" rx="0.91" ry="0.91" fill="none" stroke="#353535" stroke-linejoin="round"/><path d="M29.25,44.17l-7.62,2A.9.9,0,0,0,21,47.23h0a.88.88,0,0,0,1.09.64l7.53-2" fill="none" stroke="#353535" stroke-linejoin="round"/><rect x="20.29" y="47.99" width="2.58" height="1.84" rx="0.91" ry="0.91" fill="none" stroke="#353535" stroke-linejoin="round"/><rect x="29.75" y="48.62" width="2.58" height="1.84" rx="0.91" ry="0.91" fill="none" stroke="#353535" stroke-linejoin="round"/><path d="M32.8,44.23,40,46.08a.9.9,0,0,1,.64,1.09h0a.88.88,0,0,1-1.09.64l-7.19-2" fill="none" stroke="#353535" stroke-linejoin="round"/><rect x="38.7" y="47.99" width="2.58" height="1.84" rx="0.91" ry="0.91" transform="translate(79.99 97.83) rotate(-180)" fill="none" stroke="#353535" stroke-linejoin="round"/><rect x="29.61" y="44.24" width="2.95" height="4.06" rx="1.21" ry="1.21" fill="none" stroke="#353535" stroke-linejoin="round"/></g></g></svg>