<svg xmlns="http://www.w3.org/2000/svg" viewBox="0 0 60 60"><defs><style>.cls-1,.cls-2,.cls-3{fill:none;}.cls-2,.cls-3{stroke:#353535;stroke-linejoin:round;}.cls-2{stroke-width:1.5px;}</style></defs><title>стул-с-тканью</title><g id="Слой_2" data-name="Слой 2"><g id="Слой_1-2" data-name="Слой 1"><rect class="cls-1" width="60" height="60"/><path class="cls-2" d="M19,31l-.63-22.5a3.2,3.2,0,0,1,3.11-3.26h17a3.2,3.2,0,0,1,3.11,3.26L41,31.24"/><path class="cls-3" d="M23.6,36.11V51.43a.77.77,0,0,1-.77.77h-.15a.77.77,0,0,1-.76-.77V35.81"/><path class="cls-3" d="M38.43,36.15V51.51a.76.76,0,0,1-.76.76h-.15a.77.77,0,0,1-.77-.76V36.15"/><path class="cls-3" d="M20.36,35.23V54a.76.76,0,0,1-.76.76h-.15a.77.77,0,0,1-.77-.76V35.23"/><path class="cls-2" d="M42.75,33.07v-.66c0-1.27-5.71-2.3-12.75-2.3s-12.74,1-12.74,2.3v1.1"/><path class="cls-3" d="M41.68,35.34V54a.77.77,0,0,1-.77.78h-.28a.77.77,0,0,1-.77-.78V35.34"/><rect class="cls-2" x="17.26" y="33.07" width="25.51" height="2.38"/><line class="cls-3" x1="19.28" y1="25.76" x2="40.95" y2="25.76"/></g></g></svg>