<svg xmlns="http://www.w3.org/2000/svg" viewBox="0 0 76.17 37.14"><defs><style>.cls-1{fill:#ff5722;}.cls-2{fill:#263239;}</style></defs><title>logo_1v</title><g id="Слой_2" data-name="Слой 2"><g id="Слой_1-2" data-name="Слой 1"><path id="Path-3-Copy-25" class="cls-1" d="M47.89,0c1.53.29,2.33.87,2.33,1.89v8.28c-1.53.08-2.33-.5-2.33-1.88Z"/><g id="DOMOBEHOK-Copy-2"><path class="cls-2" d="M5.67,15.26v18.9a2.83,2.83,0,0,1-2.84,2.91H.94c-.79,0-.94-.51-.94-1.24V13.3c0-.8.51-.94,1.24-.94H2.83A2.82,2.82,0,0,1,5.67,15.26ZM3.56,34.16V15.26c0-.58-.29-.87-.65-.87H2.47c-.14,0-.29.07-.29.22v20c0,.15.07.29.22.29h.51C3.2,35,3.56,34.67,3.56,34.16Zm7.63-21.8A2.59,2.59,0,0,1,14,15.26V34.09a2.69,2.69,0,0,1-2.84,3,2.64,2.64,0,0,1-2.9-2.91V15.33A2.79,2.79,0,0,1,11.19,12.36Zm.73,21.73V15.33c0-1.16-1.45-1.16-1.45,0V34.09C10.47,35.32,11.92,35.25,11.92,34.09ZM23.26,12.36a3.2,3.2,0,0,0-1.82.5,3.2,3.2,0,0,0-1.82-.5,2.63,2.63,0,0,0-2.83,3v20.5c0,.73.14,1.24.94,1.24H19V15.33c0-1.16,1.45-1.16,1.45-.07V35.83c0,.73.15,1.24.95,1.24H22.6V15.33c0-1.16,1.46-1.23,1.46,0V35.9c0,.73.21,1.24.94,1.24h1.09V15.26A2.62,2.62,0,0,0,23.26,12.36Zm8.65,0a2.58,2.58,0,0,1,2.83,2.9V34.09a2.69,2.69,0,0,1-2.83,3A2.65,2.65,0,0,1,29,34.16V15.33A2.79,2.79,0,0,1,31.91,12.36Zm.72,21.73V15.33c0-1.16-1.45-1.16-1.45,0V34.09C31.18,35.32,32.63,35.25,32.63,34.09Zm10.61-9.38v9.45a2.85,2.85,0,0,1-2.9,2.91H38.45c-.8,0-1-.51-1-1.24V13.3c0-.8.51-.94,1.24-.94h1.6a2.9,2.9,0,0,1,2.9,2.9v3.85c0,1.53,0,2.48-1.52,2.84C43.17,22.31,43.24,23.4,43.24,24.71ZM40.41,14.46H39.9c-.15,0-.29,0-.29.22v5.89c0,.22.07.29.22.29h.43a.78.78,0,0,0,.8-.87V15.26C41.06,14.75,40.77,14.46,40.41,14.46Zm.65,19.7V23.91a.78.78,0,0,0-.8-.87H39.9c-.15,0-.29.07-.29.22V34.67c0,.14.07.29.22.29h.51A.71.71,0,0,0,41.06,34.16Zm7.63.8c-.43,0-.65-.37-.65-.87V23l2.18-2.25H48V15.33c0-.5.29-.87.65-.87h1.53c1.31,0,1.31-1.16,1.31-2.1H48.62c-2.69,0-2.69,3-2.69,3V34.09a2.58,2.58,0,0,0,2.69,3h2.91c0-1.1,0-2.11-1.31-2.11Zm7.2-22.6H54.65c-.8,0-.94.5-.94,1.23V36.05a.9.9,0,0,0,.94,1h1.24V23l1.38-2.25H55.89Zm2.25,0c-.73,0-.94.58-.94,1.23V36a.89.89,0,0,0,.94,1h1.24V12.36Zm6.83,0a2.59,2.59,0,0,1,2.84,2.9V34.09a2.69,2.69,0,0,1-2.84,3,2.64,2.64,0,0,1-2.9-2.91V15.33A2.79,2.79,0,0,1,65,12.36Zm.8,21.73V15.33c0-1.16-1.45-1.16-1.45,0V34.09C64.32,35.32,65.77,35.25,65.77,34.09Zm8.36-14.18a.83.83,0,0,1-.8.88h-.44c-.14,0-.21-.15-.21-.37V12.36h-1c-.73,0-1.16.14-1.16.94V35.83c0,.73.14,1.24.94,1.24h1.24V23.26c0-.15.14-.22.29-.22h.29c.43,0,.8.22.8.87V35.83c0,.73.22,1.24.94,1.24h1.17V24.71c0-1.38,0-2.47-1.46-2.76,1.53-.36,1.46-1.38,1.46-3V12.43h-1c-.73,0-1.16.14-1.16.94v6.54Z"/></g></g></g></svg>