<svg data-name="Слой 1" xmlns="http://www.w3.org/2000/svg" width="111.71" height="15" viewBox="0 0 111.71 15"><title>Стрелки</title><path fill="none" stroke="#682f24" stroke-linecap="round" stroke-miterlimit="10" d="M54.5 4L51 7.5 47.5 11 44 7.5 40.5 4M60.5 11L64 7.5 67.5 4 71 7.5l3.5 3.5M14.5 4L11 7.5 7.5 11 4 7.5.5 4"/><path fill="none" stroke="#f0811a" stroke-linecap="round" stroke-miterlimit="10" d="M20.5 11L24 7.5 27.5 4 31 7.5l3.5 3.5"/><path fill="none" stroke="#682f24" stroke-linecap="round" stroke-miterlimit="10" d="M84 .5L87.5 4 91 7.5 87.5 11 84 14.5"/><path fill="none" stroke="#e0d3c5" stroke-linecap="round" stroke-miterlimit="10" d="M104 .5l3.5 3.5 3.5 3.5-3.5 3.5-3.5 3.5"/></svg>