<svg xmlns="http://www.w3.org/2000/svg" width="60" height="60" viewBox="0 0 60 60"><title>полукресло</title><g id="Слой_2" data-name="Слой 2"><g id="Слой_1-2" data-name="Слой 1"><rect width="60" height="60" fill="none"/><path d="M42.32,21.45a8,8,0,0,1-2-4.77,9.6,9.6,0,0,1,2.37-5.83c0-1.79-1.07-3.24-2.4-3.24H19.39c-1.33,0-2.4,1.45-2.4,3.24,0,0,2.36,1.8,2.18,6.24C19,20.51,17,21.63,17,21.63" fill="none" stroke="#353535" stroke-linejoin="round" stroke-width="1.5"/><path d="M45.92,35.5l-31.84,0a5.57,5.57,0,0,1,5.28-5.11l21,0A6,6,0,0,1,45.92,35.5Z" fill="none" stroke="#353535" stroke-linejoin="round" stroke-width="1.5"/><path d="M14.11,35.48V22.89a1.33,1.33,0,0,1,1.31-1.34h3a1.3,1.3,0,0,1,1.31,1.34,21.48,21.48,0,0,1-2.32,7.93" fill="none" stroke="#353535" stroke-linejoin="round" stroke-width="1.5"/><path d="M45.86,35.48V22.89a1.33,1.33,0,0,0-1.31-1.34h-3a1.3,1.3,0,0,0-1.31,1.34,23.84,23.84,0,0,0,2.29,8.16" fill="none" stroke="#353535" stroke-linejoin="round" stroke-width="1.5"/><path d="M16.67,35.52V53.24a.86.86,0,0,1-.83.87h0a.86.86,0,0,1-.84-.87V35.52" fill="none" stroke="#353535" stroke-linejoin="round"/><path d="M21.26,35.44V47.55c0,.33-.38.6-.84.6h0c-.46,0-.83-.27-.83-.6V35.44" fill="none" stroke="#353535" stroke-linejoin="round"/><path d="M39.93,35.44V47.55c0,.33-.37.6-.83.6h0c-.46,0-.83-.27-.83-.6V35.44" fill="none" stroke="#353535" stroke-linejoin="round"/><path d="M44.89,35.48V53.24a.85.85,0,0,1-.83.87h0a.85.85,0,0,1-.83-.87V35.52" fill="none" stroke="#353535" stroke-linejoin="round"/></g></g></svg>