<svg xmlns="http://www.w3.org/2000/svg" width="60" height="60" viewBox="0 0 60 60"><title>Без тканевой спинки</title><g id="Слой_2" data-name="Слой 2"><g id="Слой_1-2" data-name="Слой 1"><rect width="60" height="60" fill="none"/><path d="M19.44,31l-.12-2.8L18.41,8.49a3.2,3.2,0,0,1,3.11-3.26h17a3.2,3.2,0,0,1,3.11,3.26l-.88,19.78L40.63,31" fill="none" stroke="#353535" stroke-linejoin="round"/><line x1="21.67" y1="40.21" x2="21.67" y2="35.66" fill="none" stroke="#353535" stroke-linejoin="round"/><path d="M23.35,42.11v9.32a.77.77,0,0,1-.77.77h-.15a.77.77,0,0,1-.76-.77V41.81" fill="none" stroke="#353535" stroke-linejoin="round"/><line x1="23.35" y1="35.66" x2="23.35" y2="40.15" fill="none" stroke="#353535" stroke-linejoin="round"/><line x1="37.04" y1="40.17" x2="37.04" y2="35.73" fill="none" stroke="#353535" stroke-linejoin="round"/><path d="M38.71,42.15v9.36a.76.76,0,0,1-.76.76H37.8a.76.76,0,0,1-.76-.76V42.15" fill="none" stroke="#353535" stroke-linejoin="round"/><line x1="38.71" y1="35.73" x2="38.71" y2="40.21" fill="none" stroke="#353535" stroke-linejoin="round"/><line x1="20.18" y1="40.33" x2="39.96" y2="40.33" fill="none" stroke="#353535" stroke-linejoin="round"/><line x1="39.96" y1="42.01" x2="20.18" y2="42.01" fill="none" stroke="#353535" stroke-linejoin="round"/><path d="M20.11,35.23V54a.76.76,0,0,1-.76.76H19.2a.77.77,0,0,1-.77-.76V35.23" fill="none" stroke="#353535" stroke-linejoin="round"/><path d="M42.75,33.07v-.66c0-1.27-5.71-2.3-12.75-2.3s-12.74,1-12.74,2.3v1.1" fill="none" stroke="#353535" stroke-linejoin="round"/><path d="M42,35.34V54a.78.78,0,0,1-.78.78h-.28a.77.77,0,0,1-.77-.78V35.34" fill="none" stroke="#353535" stroke-linejoin="round"/><rect x="17.26" y="33.07" width="25.51" height="2.38" fill="none" stroke="#353535" stroke-linejoin="round"/><polyline points="20.96 30.79 20.71 24.48 39.23 24.46 38.89 30.61" fill="none" stroke="#353535" stroke-linejoin="round"/><path d="M38.66,7.39H21.33a1,1,0,0,0-1,1l.41,14.18,18.54,0,.38-14.2A1,1,0,0,0,38.66,7.39Z" fill="none" stroke="#353535" stroke-linejoin="round"/></g></g></svg>