<svg xmlns="http://www.w3.org/2000/svg" width="60" height="60" viewBox="0 0 60 60"><title>кухонный угол</title><g id="Слой_2" data-name="Слой 2"><g id="Слой_1-2" data-name="Слой 1"><rect width="60" height="60" fill="none"/><path d="M8.77,6H55.23a0,0,0,0,1,0,0V31.58a0,0,0,0,1,0,0H4.77a0,0,0,0,1,0,0V10A4,4,0,0,1,8.77,6Z" fill="none" stroke="#353535" stroke-linejoin="round" stroke-width="1.5"/><path d="M35.76,52v1.13a.85.85,0,0,1-.84.84H33.83a.84.84,0,0,1-.84-.84V52" fill="none" stroke="#353535" stroke-linejoin="round" stroke-width="1.5"/><path d="M9.62,52v1.13a.85.85,0,0,1-.85.84H7.69a.85.85,0,0,1-.85-.84V52" fill="none" stroke="#353535" stroke-linejoin="round" stroke-width="1.5"/><path d="M53.17,52v1.13a.85.85,0,0,1-.85.84H51.24a.85.85,0,0,1-.85-.84V52" fill="none" stroke="#353535" stroke-linejoin="round" stroke-width="1.5"/><polygon points="52.02 31.57 55.05 31.57 55.05 6.05 52.1 6.07 52.02 31.57" fill="none" stroke="#353535" stroke-linejoin="round" stroke-width="1.5"/><rect x="4.77" y="31.58" width="50.43" height="2.6" fill="none" stroke="#353535" stroke-linejoin="round" stroke-width="1.5"/><rect x="4.77" y="34.19" width="50.43" height="17.99" fill="none" stroke="#353535" stroke-linejoin="round" stroke-width="1.5"/><line x1="30.67" y1="31.58" x2="30.67" y2="52.6" fill="none" stroke="#353535" stroke-linejoin="round" stroke-width="1.5"/><path d="M52.1,28.93a1.46,1.46,0,0,1-1.53-1.36v-17A1.46,1.46,0,0,1,52.1,9.26h0" fill="none" stroke="#353535" stroke-linejoin="round"/><rect x="7.51" y="9.26" width="39.04" height="19.37" rx="2" ry="2" fill="none" stroke="#353535" stroke-linejoin="round"/></g></g></svg>