<svg xmlns="http://www.w3.org/2000/svg" width="396.46" height="210.79" viewBox="0 0 396.46 210.79"><title>лояльность</title><g id="Слой_2" data-name="Слой 2"><g id="Слой_1-2" data-name="Слой 1"><text transform="translate(154.65 150.82)" font-size="13.61" fill="#692f23" font-family="HelveticaNeueLTW1G-Roman, Helvetica Neue LT W1G">Первый заказ</text><text transform="translate(163.51 205.05)" font-size="13.61" fill="#692f23" font-family="HelveticaNeueLTW1G-Roman, Helvetica Neue LT W1G">500 <tspan x="26.49" y="0" letter-spacing="-0.01em">р</tspan><tspan x="34.4" y="0" letter-spacing="0em">у</tspan><tspan x="41.2" y="0" letter-spacing="-0.02em">б</tspan><tspan x="48.69" y="0">лей</tspan></text><path d="M212,20.48c-.2-.23-1.06-.83-1.16-.1a14.23,14.23,0,0,1-.77,2.53c-.16.4-.43,1.06-.46.4s-.5-2.36-.47-2.59-.43-1.77-.46-2.13-4-2.29-4.52-2.92-3-2.93-3-3.69a9,9,0,0,1-3.39,3.39c-2.06,1-5.58,2-6.84,1.92a25.74,25.74,0,0,0-3.39.1,5.83,5.83,0,0,1-2.13.93,5.88,5.88,0,0,0-1.89.67l-.67,3-.13,4.46s0,.37-.08.89a2.77,2.77,0,0,1-.52.83,12.54,12.54,0,0,1-1-2.36s-.63-3.52-1.23-3.22-1.4.27-1.17,1.16.7,3.13,1,3.92,1.09,2.89,1.63,2.93a13.29,13.29,0,0,0,1.59.2H183a36.68,36.68,0,0,0,2.58,5,27.47,27.47,0,0,0,3.27,3.83c0,.08.05.29.05.29s.24,3.95.24,4.58A11.77,11.77,0,0,1,188,47.12s.87,1.66,1.56,2.89,2,2.13,4.12,3.16a13.53,13.53,0,0,1,3.76,3,5.81,5.81,0,0,0,.76-1.16c.27-.6,1.79-1.5,2-1.66a18.36,18.36,0,0,0,2.22-2.83,11.5,11.5,0,0,0,.6-2.62c.07-.14-.8-2.73-.93-3.76a17.82,17.82,0,0,1,.3-3.48l-.14.09c.5-.53.81-1,1.17-1.39a52,52,0,0,0,3.59-5.15,50.92,50.92,0,0,1,2.72-5.78c.4-.33.23-.1.93-1.26s.83-3.49,1.13-4.15A4.44,4.44,0,0,0,212,20.48Z" fill="#f9e5cc"/><path d="M187.58,24.67a6.12,6.12,0,0,1,1.26-.63,7.21,7.21,0,0,1,1.36-.1,7,7,0,0,0,1.23,0c.17-.06.63-.29.76-.23a1.82,1.82,0,0,1,.57.53c.23.3.3.5.27.63s-.07.34-.17.34-.33.2-.47.2-.49.23-.66.26a5.9,5.9,0,0,1-.86.2,6,6,0,0,1-1,.1,4,4,0,0,1-1-.07,4.59,4.59,0,0,0-.63-.3Z" fill="#fff"/><path d="M199.83,25.2a7.71,7.71,0,0,1,1.5-1.06,5.28,5.28,0,0,1,1.36-.17c.27,0,1,.1,1.13.1a1.53,1.53,0,0,1,.67.23,3.78,3.78,0,0,1,.46.7c0,.1.17.27,0,.4a2.08,2.08,0,0,1-.66.4,2.86,2.86,0,0,1-1.23.26c-.6-.06-1.59-.2-1.59-.2s-1.47-.36-1.63-.46S199.67,25.33,199.83,25.2Z" fill="#fff"/><path d="M201.11,24.15s-.26.88,0,1.12a1.47,1.47,0,0,0,.84.57c.32,0,.73.06.88-.05s.52-.15.64-.41.32-.46.29-.62a1.43,1.43,0,0,0-.21-.49c-.09-.14-.11-.24-.31-.31a11.92,11.92,0,0,0-1.4,0S201.29,23.86,201.11,24.15Z" fill="#d3d2d3"/><path d="M191.56,24a1.22,1.22,0,0,1-.22,1c-.39.49-.67.85-1,.82s-1.22-.45-1.26-.67-.34-1.31-.22-1.37a5.13,5.13,0,0,1,1-.1c.21,0,1.32.09,1.32.09S191.55,23.87,191.56,24Z" fill="#d3d2d3"/><path d="M202.89,2.68c-.13-.14-1.69-1.63-6.31-2.06A21,21,0,0,0,187,2.11a26.64,26.64,0,0,0-4.78,3.59,28,28,0,0,0-2.89,6.15,27,27,0,0,0-.6,6.84c.23,1.33.83,3.72.83,3.72a.84.84,0,0,1,.8.5c.33.56.46.3.56,0a7,7,0,0,0,.14,2.82c.49,1.07,1,2.36,1,2.36s.3.24.3.14.6-6.75.6-6.88.63-2.36.73-2.53,2.39-.49,2.62-.59,1.37-.8,1.37-.8a43.31,43.31,0,0,0,6-.57c1-.36,4.38-1.12,5.15-2s2.62-3.12,2.62-3.12a5.94,5.94,0,0,0,.93,2.1c.73,1,4.68,3.18,5.31,3.91s1.17.84,1.17,1a7.63,7.63,0,0,0-.17,2.56,7.07,7.07,0,0,0,.9,2.22l.73-.5s.13-2.59,1.19-3.65C211.91,19,210.4,8,209.77,7S207,3.14,205.65,3a9,9,0,0,0-2.66.1Z" fill="#f7bc16"/><path d="M201.63,6.5s-.27.46-1.56.36a12.09,12.09,0,0,0-6.58.47,21,21,0,0,0-6.61,3.25c-.4.37-.23.67.9.24a54.15,54.15,0,0,1,9.6-2.5c3-.29,3.05,0,3.05,0a11.61,11.61,0,0,1-2.82,2.56,24.85,24.85,0,0,1-7.87,2.66,23,23,0,0,0,3.48.23,35.52,35.52,0,0,0,5.09-1.39A23.1,23.1,0,0,0,201,10.92a9.37,9.37,0,0,0,.8-1c.1-.13.63-1.23.63-1.23a20.17,20.17,0,0,1,3,1.66A11.34,11.34,0,0,1,208.5,14s-.19-3-1.82-4.25a11.61,11.61,0,0,0-3.79-1.86l.53,0s-.76-2.33.47-2.79,4.42.56,6.08,4.11c0,0-1.2-4.68-2.46-5.28a8.2,8.2,0,0,0-3.72-1c-.7.17-1.4-.83-1.5-1A13.09,13.09,0,0,0,197.58.39a34.65,34.65,0,0,0-9,1c-1.5.57-3.23,1-3.86,1.67A29.49,29.49,0,0,0,181,7.83C180.5,9,180.2,8.92,180,9.92s-1.23,3.59-1,4.78a10.12,10.12,0,0,1,.13,2.16,14.17,14.17,0,0,1,2.46-6.54c2.26-3.26,7-6.35,10.73-6.78s9.14-.46,10,.4S201.63,6.5,201.63,6.5Z" fill="#f6c966"/><path d="M188.71,40.41a45.28,45.28,0,0,0-3.79,4,16.9,16.9,0,0,1-4.55,3.25c-.93.3-4,.67-5.71,2.13s-5,8.8-5.52,10.59-2.52,11.27-2.59,11.4-2.06,7.47-1.93,8.3a6,6,0,0,0,.87,2.93c.73,1,3.32,4.32,5.58,5.64s4.12,2.53,5.48,2.73,3.85.33,3.85.33a.9.9,0,0,0,.47,1,52,52,0,0,0,9.63,1.79c3.65.34,11.13.67,11.43.54s6.24-.87,7.41-1.17a16.89,16.89,0,0,0,3.38-1.13c.77-.43,2.5,4,2.66,3.62,0,0,8.84-3.42,10.56-11.82,0,0-2.32-14.45-2.29-14.65s-2-13-2-13-2.19-5.61-2.89-6.67a10.68,10.68,0,0,0-3.92-3c-1.26-.53-7.41-2.69-7.47-2.79s-2.76-2.93-3.06-3.19-1.5-1.2-1.5-1.2a1.08,1.08,0,0,0-.69,1.1c.06.83-.5,2.42.23,4s1.2,2.23.93,2.86-.86,3.29-2.13,4.45a31.06,31.06,0,0,1-2.72,2.19l-1.13,1.89c-.1.17-1-1.52-2-2.12s-3-1.6-3.06-1.7-3.55-3.58-3.82-4.28a6.36,6.36,0,0,1-.26-1.79,2.29,2.29,0,0,0,.83-1.7A30.76,30.76,0,0,0,188.71,40.41Z" fill="#e8eaf7"/><path d="M192.09,82.44s.34-1.1.64-1.07,1,.6,1.36.6,2.87.2,3.8-.49a4.76,4.76,0,0,0,1.78-3.26c.13-1.33.43-2.79,1-3s.93.23,1.13,1.53a25,25,0,0,1,.06,3.79,3.46,3.46,0,0,0,1.83.36c1.4,0,2.06.33,1.86.86s-.06.77-.06.77.93.36.93,1.19a4.52,4.52,0,0,1-.17,1.33,1.16,1.16,0,0,1,.17,1.13,2.74,2.74,0,0,1-.77,1.13l-.5.2s1,0,.57.77-1,1.36-1.33,1.39a21.2,21.2,0,0,1-4.35.56,47.23,47.23,0,0,1-5.18-.79c-.14-.07-2-.2-2.3-.23S191.76,86,192.09,82.44Z" fill="#f9e5cc"/><path d="M180.47,97.42l.05-2.44a3.44,3.44,0,0,1-.35-1.2,6.79,6.79,0,0,1,.3-1.45,6.29,6.29,0,0,0,2.39,1.1,60.9,60.9,0,0,0,12.66,1.4c4.68-.2,9.16-.15,10.71-.4s5.61-1.1,6.49-1.7A23.2,23.2,0,0,0,214.85,91a8.16,8.16,0,0,1,0,2.69s-.15.3.1,1a14,14,0,0,1,.41,2.16s-3.95,5.09-17.87,5C181,101.73,180.47,97.42,180.47,97.42Z" fill="#fd8204"/><path d="M181.51,95.12a61.37,61.37,0,0,0,10.37,2.1c4.48.35,10.26.55,13.65-.15a47.13,47.13,0,0,0,8-2.19,4.33,4.33,0,0,0,1.55-2.2,7.49,7.49,0,0,0-.5-1.59s-1.34,2-5.48,2.74a51.82,51.82,0,0,1-15.1.9c-5.58-.65-9.37-.75-10.71-1.25s-2.79-1.15-2.79-1.15-.55.75-.35,1.25-.1,1,1.2,1.45S181.51,95.12,181.51,95.12Z" fill="#f2af72"/><path d="M203.14,20.31l-2.15,0a.66.66,0,0,0-.68.41c-.13.32.3.58.88.7a6.32,6.32,0,0,0,2.2-.13,18.2,18.2,0,0,1,2.12-.39,2.26,2.26,0,0,1,1,.16s.23.16.07-.16a1.59,1.59,0,0,0-.75-.64C205.7,20.14,203.14,20.31,203.14,20.31Z" fill="#692f23"/><path d="M186.21,21.75a4,4,0,0,1,1.45-.69c.67-.15,3.36-.45,3.81-.45s1.2-.08,1.37.3-.1.44-.27.51a5.65,5.65,0,0,1-1.52.33c-.6,0-2.15-.12-2.77-.12a10.67,10.67,0,0,0-1.84.32C186.24,22,186.06,22.08,186.21,21.75Z" fill="#692f23"/><path d="M205.7,25a10.72,10.72,0,0,0-1.22-1.44,9.3,9.3,0,0,0-2.21-.17,4.7,4.7,0,0,0-1.31.22,5.41,5.41,0,0,0-1.38,1.47c-.4.56,0,.62.2.64s1.07.23,1.07.23l.33.08a7.71,7.71,0,0,0,1.19.26,4.23,4.23,0,0,0,1.73-.26l1.22-.57S205.74,25.16,205.7,25Zm-4.72.55-.69-.22c-.29-.08-.49-.06-.39-.2a3.92,3.92,0,0,1,.68-.44h0a.92.92,0,0,0,.27.5C201.13,25.44,201.09,25.55,201,25.59Zm1.86-.08a1.15,1.15,0,0,1-1.48-.29,1.08,1.08,0,0,1-.2-.81.89.89,0,0,1,.11-.22c.18-.1.39,0,.36.19a.64.64,0,0,0,.68.78c.68,0,.64-.73.64-.73a.24.24,0,0,1,.1-.13.29.29,0,0,1,.35.21A.79.79,0,0,1,202.84,25.51Zm.64.23c-.41.1.14-.12.31-.59a1.32,1.32,0,0,0-.06-1,3,3,0,0,1,1.2,1c0,.09-.15.18-.15.18A12.61,12.61,0,0,1,203.48,25.74Z" fill="#692f23"/><path d="M192.79,23.7a1.54,1.54,0,0,0-1.14-.37c-.26,0-2,.15-2.38.17a2,2,0,0,0-1,.2,7.31,7.31,0,0,0-1.38,1.05c-.08.14.2.33.42.52a5.42,5.42,0,0,0,.81.54l.06,0a8.62,8.62,0,0,0,.92.36,10.45,10.45,0,0,0,1.68,0c.27-.09.69-.27.9-.37a5.53,5.53,0,0,1,1.47-.4.51.51,0,0,0,.55-.32A3.05,3.05,0,0,0,192.79,23.7Zm-4.36,1.67s-.41-.2-.47-.36.28-.65.61-.88a.64.64,0,0,1,.24-.11,1.21,1.21,0,0,0,.26,1.39A1,1,0,0,1,188.43,25.37Zm2.2.19a1.57,1.57,0,0,1-.93-.07,1.21,1.21,0,0,1-.6-.95.69.69,0,0,1,.11-.52.4.4,0,0,1,.23,0,.25.25,0,0,1,.19.25.71.71,0,0,0,.54.83.61.61,0,0,0,.74-.77.23.23,0,0,1,.42-.16,1.12,1.12,0,0,1-.12.95A1.58,1.58,0,0,1,190.63,25.56Zm1.84-.41c-.15.08-1.18.44-1.18.44a2.06,2.06,0,0,0,.43-.51,2.41,2.41,0,0,0,.07-1.25,1.61,1.61,0,0,1,1,1.1A1.66,1.66,0,0,1,192.47,25.15Z" fill="#692f23"/><path d="M195.81,31.19a5,5,0,0,0,1.71,0c.82-.1,1.13-.17,1.13-.17s.4,0,0,.33a3.45,3.45,0,0,1-2.06.72,2.71,2.71,0,0,1-1.86-.95s-.16-.2.29-.1Z" fill="#692f23"/><path d="M191,34.14a.5.5,0,0,1,.36-.64c.5-.12,1,.26,1.4.49s.58.47,2.54.72a9.1,9.1,0,0,0,4.24-.42,21.69,21.69,0,0,0,2-1.16c.14-.1.12-.2.29-.17a.74.74,0,0,1,.48.32c.11.2.11.47,0,.53a2.94,2.94,0,0,1-.6.1c-.25.05-2,1.06-3,1.35a8.34,8.34,0,0,1-5.61-.27,10.23,10.23,0,0,0-1.47-.93C191.36,34,191.36,34.43,191,34.14Z" fill="#692f23"/><path d="M194.93,36.83s1.44.1,2,.09a7,7,0,0,0,1.75-.28c.17-.07.71-.2.71-.2s.42.06,0,.29a8.59,8.59,0,0,1-1.64.87,8.9,8.9,0,0,1-1.85.1,7.13,7.13,0,0,1-2.09-.73c-.22-.12-.2-.33.4-.24A6.66,6.66,0,0,0,194.93,36.83Z" fill="#692f23"/><path d="M212.45,20.19a1.09,1.09,0,0,0-.78-.75c.28-.4.3-3.34.15-4.54s-.32-5.11-2.16-8.42S206.22,2.82,205,2.54s-1.52.18-1.52.18l-.23-.18A11.57,11.57,0,0,0,200.59,1c-1.67-.74-4.19-1.12-7.75-.92a17.41,17.41,0,0,0-9.42,4c-1.42,1.33-2.49,2.41-3.91,6.09s-1.49,6.48-1.07,8.35.9,4,.9,4l0,0c-.14.15-.29.28-.43.24s-.52.05-.75.87a7.85,7.85,0,0,0,.53,2.91c0,.16,1.24,3.1,1.24,3.1a4.26,4.26,0,0,0,.83,1.22,15.28,15.28,0,0,0,1.72.78,9.34,9.34,0,0,1,1.22,2.21c.54,1.09,2.29,3.83,2.29,3.83l1.22,1.4s2.24,1.62,3.64,2.49A11.06,11.06,0,0,0,197.52,43a9.94,9.94,0,0,0,4.21-1.49c.3,0,.2.89.23,1s.18.21.18.21l.31-.18a4.35,4.35,0,0,1,.53-1.85,42.29,42.29,0,0,0,3.54-5,31.11,31.11,0,0,0,2.54-5.45c.42-.82,1.52-1.29,2-2.49a16.06,16.06,0,0,0,.72-3.67c.1-.53.53-1.51.63-2A3.49,3.49,0,0,0,212.45,20.19ZM202.73,4c.1-.21.71-.46,1-.55a3.74,3.74,0,0,1,3,.75,9.14,9.14,0,0,1,3,4.71c.18,1.07,1.3,6.23,1.42,7.33a23.92,23.92,0,0,1,0,3.16v0a8.57,8.57,0,0,1-.64,1.22c-.49.84-.37,2.92-.62,2.42s-1-3.86-1-3.86l.57.18a1.31,1.31,0,0,0-.62-1.22c-.75-.58-2.47-1.3-4-2.25a7.64,7.64,0,0,1-2.51-3.43c-.23-.48-.63-1.82-.25-1.45a17.62,17.62,0,0,0,2.87,1.59,5.76,5.76,0,0,1,1.36,1c.2.17.8.84,1,.84s.05-.27-.12-.54A4.6,4.6,0,0,0,206,12.41c-.47-.27-2.29-.87-3.19-1.44a1.9,1.9,0,0,1-.74-2c.07-.4.65-.67,1.49-.47a11.88,11.88,0,0,1,2.69,1.29c.23.18.48.08.38-.07a5.28,5.28,0,0,0-2-1.62,11.55,11.55,0,0,1-2-.8c0-.1-.1-.67-.1-.84a3.48,3.48,0,0,1,.22-.7C202.85,5.36,202.61,4.24,202.73,4ZM179.36,19.51a24.16,24.16,0,0,1,0-6.3A18,18,0,0,1,182,6.93a15.48,15.48,0,0,1,8-5.08c4.19-1.07,7.27-1.25,9.19-.8s3.54,1.92,3.52,2.29-.3.33-.4.6.07,1.1,0,1.52-.43.32-1.37-.17a7.4,7.4,0,0,0-3.49-.88c-1.2,0-.65.3-.57.28a8.78,8.78,0,0,1,.89,0,9,9,0,0,1,4.11,2.11,3.45,3.45,0,0,1-.76,3.19c-1.07,1.25-3.92,2.69-7.11,3.24s-7.57-.35-8.1-.37a4.6,4.6,0,0,0-1.59.25c-.27.12-.82.62-1.94,1.37s-.58.75-.2.62,1.77-1.24,2.31-1.47a4.22,4.22,0,0,1,2.41.15,29.5,29.5,0,0,0,8,0,18,18,0,0,0,5.06-2.25c.91-.57.79-.2.79-.2a7.37,7.37,0,0,1-2.14,3.29,14.17,14.17,0,0,1-5.43,2,48.22,48.22,0,0,1-5.47.55,21,21,0,0,1-2.44.9,11.25,11.25,0,0,1-4.13,0c-.37-.13-.6,0-.45.15s.64.59.64.59a27.16,27.16,0,0,0-.43,4.31s-.13-.58-.1-.47c-.05-.17-.55-.72-.85-.65C179.86,22,179.71,21.08,179.36,19.51ZM182,30.17a2.51,2.51,0,0,1-1.15-1.24c-.11-.47-1.14-2.84-1.26-3.17a7.07,7.07,0,0,1-.45-2.11.44.44,0,0,1,.45-.33,1.13,1.13,0,0,1,.77.86c.12.44,1.37,4.6,1.52,4.82S182.2,30.22,182,30.17ZM181.7,27c-.27-1.15-.7-3.16-.7-3.16s.12.21.15.18a1.28,1.28,0,0,0,.25-1,30.94,30.94,0,0,1,.23-3.68c.1-.48.2-.5.82-.38s.52.45.52.45a8.18,8.18,0,0,0-.22,1.19c-.1.79-.27,4-.22,4.44s-.2,2.64-.2,2.64S182,28.13,181.7,27Zm26.74,2.74a31.39,31.39,0,0,1-2.42,5.4c-.15.3-1.47,1.87-2.69,3.74s-4.09,3-5.58,3.24a9.48,9.48,0,0,1-3.57-.18,36.81,36.81,0,0,1-3.61-1.69,14,14,0,0,1-3.88-3.34,46.41,46.41,0,0,1-3.27-5.6s-.75-2.6-.77-3a11.68,11.68,0,0,1,.12-1.47c.08-.67.28-3.84.35-4.48A30.05,30.05,0,0,1,184.27,19c.8.07,4.21-.85,6.43-1.1a20.71,20.71,0,0,0,7.15-2.37c2.84-1.42,3.51-2.91,3.51-2.91a9.52,9.52,0,0,0,4.16,4.51c.92.52,2.92,1.74,3,1.84a20.83,20.83,0,0,0,.12,2.41,5.83,5.83,0,0,0,.93,2.64c0,.1-.26,1.26-.26,1.26S208.76,28.13,208.44,29.73Zm3.13-7.08c-.24.45-.84,3.24-1,3.78a4.58,4.58,0,0,1-.84,1.7c-.18.08-.38-.15-.38-.62a19.57,19.57,0,0,1,.38-2.19s.27-1,.32-1.21.07-.16.25-.51a5.44,5.44,0,0,0,.2-1.47,11.57,11.57,0,0,1,.38-1.64c.49-.57.69-.08,1,.57A1.67,1.67,0,0,1,211.57,22.65Z" fill="#692f23"/><path d="M211,63s-.13-.08-.75,0a28.05,28.05,0,0,1-4.34.27c-1.17-.12-2.81-.32-3-.31s-.18.12-.15.36a2.69,2.69,0,0,1,0,.67V65.1a.65.65,0,0,0,.49.6,14.79,14.79,0,0,0,5.49.57c2.64-.27,2.19-1.54,2.19-1.54Zm-.63,1.91s-.47.83-2.09.8a14.58,14.58,0,0,1-4.89-.6v-1l0-.35v-.08a36.56,36.56,0,0,0,4.1.28,13.24,13.24,0,0,0,2.86-.5Z" fill="#692f23"/><path d="M226.36,83.73c-.2-.56-1.46-6-1.73-7.37s-.73-7.88-.9-10.13a92.18,92.18,0,0,0-2.59-11.66c-.6-1.86-2.12-5-4-6.35s-6.12-2-7.21-2.56a13.41,13.41,0,0,1-3.82-2.56,8.82,8.82,0,0,0-2-2.25,9.92,9.92,0,0,0-1.19-.6l-.17.33a11,11,0,0,1,2,1.43,13.57,13.57,0,0,1,2.13,3.69,27.17,27.17,0,0,1,.46,6.11c-.16,1.86-.53,4.88-.53,4.88a25,25,0,0,0-2.62-1.39,12.71,12.71,0,0,0-3.72-1.1s-.67.1.1-.5a10.42,10.42,0,0,0,2.32-3,10.63,10.63,0,0,0,.8-4.61s-.18-.53-.22.08a3,3,0,0,1-.15.91,9.2,9.2,0,0,1-.82-4.71s-.19-.85-.51.11a16.13,16.13,0,0,0,.14,3.08c.23,1,.73,2.35.8,2.55a8.14,8.14,0,0,1-1,2.79,7.16,7.16,0,0,1-2.35,2.6,1.77,1.77,0,0,0-1.11.79l-1.05,1.93-.1-.11a7,7,0,0,0-2-2c-1.25-.8-3.08-1.2-4.61-3.12a20.72,20.72,0,0,1-2.29-3.52,6.12,6.12,0,0,0,.8-2.76c0-1.43-.19-3.91-.2-4.38s-.7-.7-.7-.7.05.24.21.76a10.13,10.13,0,0,0-4,3.95s-2.56,1.93-3.43,2.46-4,1.26-5.08,1.73A9.14,9.14,0,0,0,172.18,52a27.87,27.87,0,0,0-2.92,7.45s-1.8,6.64-2,7.64-2.23,9.89-2.5,10.86a14,14,0,0,0-.56,3c0,.76.6,1.76,1.56,3.12a25.26,25.26,0,0,0,5,5c1.46.93,5.15,2.79,6.58,2.89.58,0,1.6.1,2.7.13l.15.52a5.83,5.83,0,0,0-.15,1.1,1.77,1.77,0,0,0,.25,1.21,7.71,7.71,0,0,0-.1,2.52c.09,1,.69,1.58.5.29a6.29,6.29,0,0,1,.17-2.1.81.81,0,0,1,.05-.21l.08,0c.57.28,6.08,1.55,6.42,1.6a69.82,69.82,0,0,0,13.53.94,46.3,46.3,0,0,0,11.91-2.21,4.45,4.45,0,0,0,1.46-1,.31.31,0,0,1,.34.12s.19,1.32.26,1.76-.12,1,0,.93c.47-.1.48-.44.48-.44s.18-.24.07-1.1a5.82,5.82,0,0,0-.6-2.05,3.24,3.24,0,0,0,.33-1,3.93,3.93,0,0,0-.12-1.8c.09-.09.16-.18.21-.24.4-.5.7-3.23.6-4.85A82,82,0,0,1,215.4,75c.26-4.12-.24-8.8-.17-9.43s.3-2,.46-2.73.2-2.09,0-2.12-.56,2.26-.69,2.29a6.78,6.78,0,0,1-.53-2.79c.06-.9-.54-.76-.47.3s.33,3.79.43,4.38.37,5.62.37,7.15-.27,6.54-.07,8.53,1.13,7.58.23,9.4-2.59,3-6.27,3.86a26.9,26.9,0,0,1-7.94.76,1.18,1.18,0,0,1-.57-1.2c0-.44-.11-2-.17-2.65h.53c2.69,0,4-.2,4.56-.9s.94-1.12,1-1.52a.74.74,0,0,0-.32-.62s.79-.15,1-1.45c0,0,.08-.72-.25-1a1.86,1.86,0,0,0,.15-1.47,1.75,1.75,0,0,0-.77-1.12,1.32,1.32,0,0,0-.35-1.52c-.75-.82-3.24-.45-3.24-.45s0-2.69,0-3.69-.38-2.14-1.55-2.16c0,0-.57,0-.87,1.29s-.45,2.82-.6,3.07c0,0-.37-15.34-.47-16.52s-1-5.37-1-5.74l.09.15a8.75,8.75,0,0,1,1.43-2.36c.63-.5,1.79.17,2.09.27a23.27,23.27,0,0,1,4.39,2.09,3.7,3.7,0,0,0,1.59.3c.53-.13.53-2,.6-2.46s.1-5,0-6.31-.23-3.16-.83-3.79a9.09,9.09,0,0,0,3.12,1.76,58.06,58.06,0,0,1,6.25,2c1.26.66,2.52,2.42,3.48,5.11a75.67,75.67,0,0,1,2.63,9c.23,1.53.83,5.94.86,7.34s.23,6.44.73,8.07,1.7,5.68,1.66,6.64S226.56,84.3,226.36,83.73ZM185.18,45.14l.08-.17.07-.14h0l.34-.7a11.56,11.56,0,0,1,3-3.28c0,.85.09,3.26,0,4.21-.13,1.17-.53,1.8-.69,1.7s0-1.06-.17-1.2-.4-.2-.43.27A7.53,7.53,0,0,0,188.52,49c.77,1.23,2.89,3.42,3.19,3.89a4.36,4.36,0,0,0,1.23,1.06c.1,0,0,.17-1,.6a8.88,8.88,0,0,0-2.42,2.13c-.27.29-.93,1.36-1.6.79s-3-5.38-3.18-7.07S184.49,46.63,185.18,45.14Zm15.27,50c3.22-.17,8.07-.47,10.66-1.4a9.94,9.94,0,0,0,3.52-2.09,2.63,2.63,0,0,1,0,1.5c-.23.88-1.65,1.8-3.27,2.3a43.08,43.08,0,0,1-14.7,1.86,82.22,82.22,0,0,1-13.15-1.71c-1.35-.28-2.79-.68-3-1.25a2.89,2.89,0,0,1,.12-1.22.41.41,0,0,1,.09-.2,14.83,14.83,0,0,0,3.35,1.25C186.3,94.73,197.23,95.32,200.45,95.16Zm-8.78-6.1s-.17.7-.52.78c0,0-1.56.4-2.1-.86s-1.33-2.56.07-6.94c0,0,.33-.8.53-.9a11.12,11.12,0,0,1,1.86,0s.57-.1.47.57a18.6,18.6,0,0,0-.34,1.89S191.36,88.15,191.67,89.06Zm-2.58,1.41a20,20,0,0,0,2.28-.06,7.42,7.42,0,0,0,1.84-.55,1.38,1.38,0,0,1,.8,0,34.12,34.12,0,0,0,5.51.88,27.09,27.09,0,0,1,.13,2.87,1.09,1.09,0,0,1-.93,1c-.4,0-10.9-.36-12.36-.69s-4-.6-5-1.1c-.59-.29-.75-.57-.78-.76a18.17,18.17,0,0,0,3.67-.17C185.6,91.54,188.79,90.54,189.09,90.47ZM199,80.81a6.5,6.5,0,0,0,1.15-2.92c.13-1.47.3-2.2.6-2.3s.63.93.66,2.1,0,3,0,3-.93.13-1,.33.33.17.5.2,3.45-.13,3.85.17.6.49.43.79a1.37,1.37,0,0,1-.86.63s-1.76.44-2.23.5-.53.15-.48.35,1.32.18,1.89.1a9.22,9.22,0,0,0,1.74-.77.9.9,0,0,1,.93.7c.17.54-.1,1.29-.47,1.4a7.34,7.34,0,0,1-2.62.47c-1.32,0-1.25,0-.75.29a6.85,6.85,0,0,0,2.67,0,2.66,2.66,0,0,0,1-.44,1.16,1.16,0,0,1,.07,1.07c-.27.5-.79.79-1.84,1s-2.24.35-2.32.35-.49.15.25.32a13.15,13.15,0,0,0,2.84-.17c.35,0,.53,0,.43.37s-.23,1.32-2.59,1.5a20.34,20.34,0,0,1-6.28-.23,23.63,23.63,0,0,0-3.74-.65,2.21,2.21,0,0,0-.39,0,32.14,32.14,0,0,1-.23-5l.37-2s.2-.17.7.07a8.28,8.28,0,0,0,2.88.24A3.87,3.87,0,0,0,199,80.81Zm-1-19.07c.35,2.19.43,12.79.47,13.45s.37,4.7.13,5.15a3.3,3.3,0,0,1-2.4,1.49,6,6,0,0,1-2.25-.19.76.76,0,0,0-.4-.77,40.5,40.5,0,0,0-4.22-.39,2.13,2.13,0,0,0-1.16-1.2c-1-.46-.17,0-.17,0a21.85,21.85,0,0,1-2.82-1.33c-.86-.57-5.65-1.1-5.65-1.1a1.23,1.23,0,0,0-.46-.36,5.8,5.8,0,0,0,.6-1.47,30,30,0,0,0,0-5.11,42.13,42.13,0,0,1-.3-4.55c.06-.9-.14-3.82-.2-4.45s-.33-.77-.37-.37,0,1.26,0,1.91a.12.12,0,0,1-.23.06c-.29-.59-.7-1.34-.82-1.24s.4,1.08.56,2c.2,1.08.93,9.07.9,10.77s-.8,2.12-.8,2.12a3.88,3.88,0,0,0-3,1.13c-1.13,1.3-.46,1-.46,1a4.72,4.72,0,0,1,1.29-1,3.39,3.39,0,0,1,1.83-.2s-.3.07-.76,1,.23.43.23.43a6.9,6.9,0,0,1,.8-.83c.36-.3.66-.26,2.22-.26a17.11,17.11,0,0,1,4.95,1.29c.57.27,2.36,1,2.36,1s.7.43.8.73-.2.66-.37,1c0,0,0,0,0,0a12.27,12.27,0,0,0-.65,4.84c.3,2.16.73,3.32.5,3.59a18,18,0,0,1-7.74,1.56c-4,0-5.42-1-8.44-2.56a16.68,16.68,0,0,1-6.64-6.61,4.9,4.9,0,0,1-.07-3.79c.8-2.16,2.36-10.2,2.36-10.2s2-8.17,2.19-9.06c0,.1,2.13-4.89,2.59-6a5.89,5.89,0,0,1,2.82-3.32c1.83-1.06,5.12-1.86,6.08-2.29A9.49,9.49,0,0,0,183.9,46a37.44,37.44,0,0,0,0,4,19.58,19.58,0,0,0,2.2,5.75,9.9,9.9,0,0,0,1.82,2.72c.37.13,1.17-.53,1.5-.86a12.84,12.84,0,0,1,2.52-2.23,5.51,5.51,0,0,1,2.63-.83,4.3,4.3,0,0,1,2.32,2h0A48.82,48.82,0,0,1,198,61.74Z" fill="#692f23"/><path d="M4.75,202.15a18.72,18.72,0,0,0,3.87,2.08c1.38.44,4.12-6.4,5.06-6.24a15.17,15.17,0,0,0,3.8.28c.67-.16,2.49-.83,2.82-1.54s.55-1.44.71-1.49a24.68,24.68,0,0,1,1,5.07c0,.88-.49,5.08-.27,6,.17.73.14,3.07.31,4.46H62.82c-.12-1.44-.31-4-.26-4.13s.55-6.24.55-6.62-.5-2.25-.33-2.3a2.94,2.94,0,0,0,1.14-.85c.22-.39,1.1-1.47,1.1-1.47l1.14-1.1a5.9,5.9,0,0,0,1.18-2.58c.27-1.21.73-3.16,1-4a22,22,0,0,0-.07-3.83,25.46,25.46,0,0,0-1-4.74c-.39-1-1-4.86-2.32-7.32-1.08-2-6.82-7.19-7.1-7.47s-3.24-1.86-5.11-3a7.27,7.27,0,0,0-3.64-1.1l-1.12-.95s.16-2.27.16-2.6a.81.81,0,0,1,.13-.49,35.91,35.91,0,0,1-7.95,2,35.11,35.11,0,0,1-6.67-.34c-.22-.06-2-.71-2.22-1.24-.1-.27-.83-.11-.83-.11s.88,2.48.61,2.48a55.16,55.16,0,0,0-6.29,1.88A43.53,43.53,0,0,0,18.53,165c-.38.44-5,4.58-5.52,5a55.12,55.12,0,0,0-4.56,4.21c-.94,1.27-5.08,6.84-5.13,9-.17,7.89-3.25,8.55-3,11.91A10.8,10.8,0,0,0,4.75,202.15Z" fill="#fff"/><path d="M9.08,134.7s-.44-4.53,1.21-7.18a49,49,0,0,1,4.64-5.84l4-2.54,3.42-2.32a46.18,46.18,0,0,1,5.3-2.65c1.65-.55,5.24-2.33,8.11-1.78s5.79-.26,6.12,0a20.49,20.49,0,0,0,3,.5c1.77.33,5.74.88,7.28,1.32S59.39,118,60,118.48a83.49,83.49,0,0,1,7.5,8.6c1.21,2,5.68,9.1,3.86,17.11-2.6,11.45-15,13.92-21.29,15.44a5.92,5.92,0,0,1-2.44.11l.24-3.3s6.15-3.77,7.38-5.52c.5-.71,4.19-4.86,4.64-6.62,0,0,2.46-1.77,2.68-2.8s.3-2.94-.51-3.31a7.67,7.67,0,0,0-1.84-.51,18.5,18.5,0,0,0-5.3-5.3c-3.24-2-2.28-1.84-2.28-1.84a23.52,23.52,0,0,1-4.12.74,35.84,35.84,0,0,1-5-.89l-4.56,1.25-3.83.89-1.62-8a7.17,7.17,0,0,0-1.25,1.62,38.15,38.15,0,0,0-.88,4.26c-.07.74-.66,1.4-1.25,1.18s-3.42-.68-3.42-.68-5.19.46-6.8,1.93-2.62,5.35-2.62,5.35a2.53,2.53,0,0,0-1.8.76,3.61,3.61,0,0,0-.07,3c.37.52,1.1,2.14,1.69,2.14a4.35,4.35,0,0,1,1.32.29s4.71,7.36,5.52,7.8,5.22,4,6,4.41,1.1.88,1.1,1.18.58,2.21-1.19,2.28a26.63,26.63,0,0,1-4.54-.44s-5.23-1.84-6.92-3.17-6.18-5.44-7.65-7.79-3.09-5.67-2.5-8,.15-4.71.51-4.86S9.08,134.7,9.08,134.7Z" fill="#e09c51"/><path d="M33,125a4.63,4.63,0,0,0-1.27,2.54c-.16,1.48-.66,3.64-.66,3.64a13.55,13.55,0,0,1-2.87.55c-.27-.17-.64-1.16-1.06-1a37.26,37.26,0,0,0-4,.94c-.5.27-3.75,1.6-4.2,2.7S17.1,138,17.1,138s-1.55.44-1.55.61-1,1.43-.33,2.76,1,2.37,2.38,2.87,2.75,2.87,2.92,3.53,5.35,6.18,5.63,6.34,4.53,2.77,7.44,3.42a31.42,31.42,0,0,0,9.22.22,31.68,31.68,0,0,0,6-1.76,52.6,52.6,0,0,0,5.84-4.47c.23-.22,3.46-3.2,3.84-4.36a22.58,22.58,0,0,1,1.35-2.87s2.15-1.6,2.21-2,1-2.49.71-3.09a2.52,2.52,0,0,0-1.48-1.44c-.61-.11-.83.11-1.11-.11s-2-2.37-2.81-3.31A49,49,0,0,0,53.24,131l-.68-.4a5.62,5.62,0,0,1-3,.79,14.91,14.91,0,0,1-4.69-.72,3.83,3.83,0,0,0-2.42.22c-.33.17-4,.83-4,.83l-3.4.86s-.19-1.25-.19-1.41-1.21-5.47-1.21-5.47Z" fill="#f3dac0"/><path d="M28.44,113.33c-2.42,1.48-4.25,2.56-5.77,3.39a7.93,7.93,0,0,0-2.56,2c-.43.53-.29.54-1.32,2.09-.56.85-.91,1.32-1.49,2.27-.21.34-.94,1.57-.83,1.65s1-1.55,2.71-2.21a4.49,4.49,0,0,1,1.76-.27,12.56,12.56,0,0,1,1-1.93,14.12,14.12,0,0,1,1.65-2,28.9,28.9,0,0,1,2.85-2.57l2.11-1Z" fill="#e9b87f"/><path d="M32.1,112.7a14.86,14.86,0,0,0-4.12,2,21.67,21.67,0,0,0-7.09,7.39c-.44.92-.83,1.64-1.11,2.13a7.32,7.32,0,0,0-.77,1.66c-.1.33-.34,1.22-.18,1.29s1-1.85,2.35-3.61c2-2.65,5.73-5.65,8.2-4.63a3.09,3.09,0,0,1,1.44,1.28A3.77,3.77,0,0,1,32.4,118c.17-.1.91-.56,1.18-.33s0,1.21-.45,3v0a13.21,13.21,0,0,1,2.32-5.28,13.5,13.5,0,0,1,1.92-1.85,12.46,12.46,0,0,1,1.44-1,16.81,16.81,0,0,0-3.76-.12C34.6,112.55,32.5,112.64,32.1,112.7Z" fill="#e9b87f"/><path d="M34.68,129.36a14.63,14.63,0,0,1-1.22-6.54,13.06,13.06,0,0,1,2.4-7.32s.12-.16,2.84-3.16c0,0,.79-.15,1.66-.23a4.64,4.64,0,0,1,2.11.18,4.47,4.47,0,0,1,2.18,2.21,8.53,8.53,0,0,1,1.06,3.09,8.72,8.72,0,0,1,0,2.47,5.51,5.51,0,0,0-1.22-2,4.54,4.54,0,0,0-1.87-1.24,4.42,4.42,0,0,0-2.41-.05,5,5,0,0,0-2.52,1.51,24.52,24.52,0,0,0-2.2,3.68,11,11,0,0,0-1.14,3A8.53,8.53,0,0,0,34.68,129.36Z" fill="#e9b87f"/><path d="M45.37,116.87a8.49,8.49,0,0,1,3.06.65,9.4,9.4,0,0,1,4.75,4.78,10,10,0,0,0-.66-1.84,10.47,10.47,0,0,0-1.22-1.95c-.63-.79-.91-.88-1.8-1.91-.39-.45-.69-.84-.88-1.1a12.25,12.25,0,0,0-3.85-2.41c-.19,0-.64-.16-.75,0s.3.7.44.88a6.41,6.41,0,0,1,1.18,3.57Z" fill="#e9b87f"/><path d="M9,132.64A8.28,8.28,0,0,1,16,126.3l1.16-3.37c.63-1.25,1.57-2.54,2.2-3.8a17.29,17.29,0,0,0-3.69,2.14,52.41,52.41,0,0,0-4.28,5A19.91,19.91,0,0,0,9,132.64Z" fill="#e9b87f"/><path d="M10.12,133.11a10.75,10.75,0,0,0-1.59,3.06c-.81,2.48-.44,4.64-.06,6.89a25.06,25.06,0,0,0,1.33,4.8A15.14,15.14,0,0,1,15,131.92v-3a16.66,16.66,0,0,0-2.1,1.38A16.25,16.25,0,0,0,10.12,133.11Z" fill="#e9b87f"/><path d="M46.23,113.29c.36-.63,3,.17,4.15.62a15.51,15.51,0,0,1,6.22,4.57,13.47,13.47,0,0,0-6.74-1.87A43.26,43.26,0,0,0,46.33,114C46.13,114,46.12,113.48,46.23,113.29Z" fill="#e9b87f"/><ellipse cx="26.11" cy="202" rx="2.8" ry="3.02" fill="#e95d16"/><path d="M58.49,203.81c.5,1.5-1,3.27-2.74,3.27s-3.34-1.29-3.23-2.87c0-.24.6.68,2.77.59C57.08,204.72,58.27,203.12,58.49,203.81Z" fill="#e95d16"/><ellipse cx="62.87" cy="176.57" rx="3.31" ry="3.46" fill="#fd8204"/><ellipse cx="7.53" cy="181.48" rx="3.31" ry="3.46" fill="#fd8204"/><ellipse cx="64.43" cy="190.09" rx="3.31" ry="3.9" fill="#fd8204"/><ellipse cx="34.86" cy="206.42" rx="2.65" ry="2.72" fill="#e95d16"/><ellipse cx="51.41" cy="163.33" rx="3.02" ry="2.52" fill="#fd8204"/><ellipse cx="50.73" cy="178.49" rx="3.02" ry="2.99" fill="#fd8204"/><circle cx="19.05" cy="176.99" r="2.72" fill="#e95d16"/><ellipse cx="43.32" cy="202.22" rx="2.72" ry="2.8" fill="#e95d16"/><path d="M24.53,195.17s1.85,1.78,2.25,2.22a7.53,7.53,0,0,0,2.54,1.53,21.73,21.73,0,0,0,2.94.32,27.8,27.8,0,0,0,4.12-2.45c.42-.43,1.57-1.84,1.28-2.44a1.79,1.79,0,0,0-1.3-1.17,5,5,0,0,0-2.24.18c-.34.22-1.33.93-1.65,1.17a5.83,5.83,0,0,1-1,.62,4.64,4.64,0,0,1-.91.33c-.28,0-.62.52-.5.56s.93.2,1.29-.12a13.48,13.48,0,0,1,2.07-1.43,7.21,7.21,0,0,1,1.82-.83c.44,0,.86-.12,1,.33s.49.34.27,1.14A3.87,3.87,0,0,1,35,197c-.45.26-1.62,1-2.24,1.31a4.29,4.29,0,0,1-4.17-.45,14.88,14.88,0,0,1-2.22-2.19,6,6,0,0,0-2.15-1.24l-.35.25Z" fill="#5b2019"/><path d="M33.86,199.18A7.38,7.38,0,0,0,38,198.9a8.39,8.39,0,0,0,2.07-1.21c.34-.26.14-.15,1.19-1.12.71-.66.91-.82,1-1.19a1.81,1.81,0,0,0-.1-1.23,2.28,2.28,0,0,0-.61-.67,1.6,1.6,0,0,0-.35-.24.83.83,0,0,0-.29-.13.75.75,0,0,1-.31,0l0,0a1.48,1.48,0,0,0-.77,0c-.87.16-.91.06-1.29.28a5.17,5.17,0,0,0-1,.73c0,.1-.16.22,0,.4s.9-.65,1.92-.95a2.43,2.43,0,0,1,1.89.16,1.39,1.39,0,0,1,.5.55h0a1.48,1.48,0,0,1,.11.66,1.51,1.51,0,0,1-.08.38,2.52,2.52,0,0,1-.2.34l-.18.28a4.5,4.5,0,0,1-.59.66c-.83.77-.7.7-.93.88a9,9,0,0,1-2.2,1,5.49,5.49,0,0,1-.74.23,5.71,5.71,0,0,1-1.09.07,11.72,11.72,0,0,1-2.13,0c-.31-.08-.45-.26-.65-.16l-.06,0c-.16.14-.15.18-.23.24s-.17,0-.3.13-.1.08-.1.11S32.7,199.23,33.86,199.18Z" fill="#5b2019"/><ellipse cx="23.22" cy="208.88" rx="0.62" ry="0.55" fill="#5b2019"/><path d="M29.48,191.1s1.84,1.32,2.17,1.49a14,14,0,0,0,2,1.14c.32,0,.66-.41.66-.41A20.47,20.47,0,0,1,32,191.81c-.44-.42-1.64-1.36-1.67-1.41S29.48,191.1,29.48,191.1Z" fill="#5b2019"/><path d="M10.56,178.48s-.69-3.72-.21-3.9a4.79,4.79,0,0,1,2,.16,30,30,0,0,1,3.41.94,4.27,4.27,0,0,1,1,1s-.57-.48.48-.61,2.56-.18,3.23-.23,2.89.17,3.55.13a15.52,15.52,0,0,1,2.21-.1,1.55,1.55,0,0,0,.95.08c.44-.1,1.37-.43,1.68-.52l2-.56a1.07,1.07,0,0,0,.38.34,23,23,0,0,1,1.24,5.34c0,1.16,1,12.81,1.77,13.26s1.52,1.15,4.35,0,4.5-1.93,4.5-1.93-.44,10.79-.57,11.13a4.14,4.14,0,0,1-1.36,1.65,3.88,3.88,0,0,1-1.6.76h-.28a6.83,6.83,0,0,1-4.8,2.84c-3.34.43-4.47-.33-4.47-.33a7.51,7.51,0,0,1-3.71,1.2,11.82,11.82,0,0,1-4.65-1A6.82,6.82,0,0,1,20.29,207c-7.31.75-6.76-10.8-7.83-16.13,0-.2-.74-5.45-.74-5.45Z" fill="#9d663f"/><path d="M10.58,174.53s.66-1.13,1.28-1.23a6.25,6.25,0,0,1,2.37.23,19.52,19.52,0,0,0,2.4.67l.4.46.24.63.53-.32,2-.13h6.1l.85-.18,3.49-.75,1.2,1s-1.47.43-2.12.6a24.87,24.87,0,0,1-3.23.43c-.45,0-3.64,0-3.64,0a12.83,12.83,0,0,1-1.53.15c-.59,0-3.72-.24-3.87.18a.38.38,0,0,1-.54.23s-.7-1.09-3.37-1.68-2.7.16-2.7.16A1.87,1.87,0,0,1,10.58,174.53Z" fill="#ce8a58"/><path d="M10.34,179.54a15.63,15.63,0,0,0,.74,3.88c.48.83,2,.83,3.14,1.32A64.18,64.18,0,0,0,22,186.11c.83.1,9.9-.1,10.27-.22s.91-.32.91-.32l-1-5a53.69,53.69,0,0,1-7.12.5c-8.4-.19-10.8-.9-11.12-1.08a24.94,24.94,0,0,0-2.62-.93C11.21,179.06,10.37,178.79,10.34,179.54Z" fill="#ce8a58"/><path d="M14.56,196.28a54,54,0,0,0,13.07,2.14c6.18.05,15.06-3.26,15.06-3.26l-.36,5.11a26.75,26.75,0,0,1-10.22,2.81,71.43,71.43,0,0,1-16.78-1.89C12.9,200.49,14.56,196.28,14.56,196.28Z" fill="#ce8a58"/><path d="M25.64,174.49a8.55,8.55,0,0,1,4.6-2.85,10.45,10.45,0,0,1,4.24.13A3,3,0,0,1,36.53,170c1.48-.27,2.87-.29,3.67.39a26.4,26.4,0,0,1,6.09,7.89c2.49,4.71,2.78,6.55,2.82,7.27s.21,2.25-.48,2.85-4.14,2.72-4.78,3.26a36.46,36.46,0,0,1-5.74,2.64,9.19,9.19,0,0,1-2.88,0A4.25,4.25,0,0,1,34,192.44c-.12-.4-1.45-12-1.52-12.42s-.89-4.74-1-5a3.92,3.92,0,0,0-2.72-1,15.47,15.47,0,0,0-2.55.94Z" fill="#d8d5cc"/><path d="M16,164.52s-.55-.74-.12-.87,1.39.16,2,.09,2.28-.41,2.28-.41a.39.39,0,0,1,.18.52c-.16.33.67.47,1.05.75s1.09.55,1.12.82.48.81-.59,1a23.31,23.31,0,0,1-4.85.56,21.5,21.5,0,0,1-3.36-.55c0-.16-.6-.6-.11-1A13.73,13.73,0,0,1,16,164.52Z" fill="#eeedec"/><path d="M28.06,168.77a11.89,11.89,0,0,0,3.17.06,7.83,7.83,0,0,1,1.87-.25s.46,1.9.49,2.45-.28.38-.28.38l-3.34.28s-1,.81-1.32.64-.34-.65-.35-.9S28.06,168.77,28.06,168.77Z" fill="#eeedec"/><path d="M28.14,162.33c0,.34-.12,1.42.06,1.58a2.13,2.13,0,0,0,1.75.47c1-.12,2.39-.17,2.49-.47s.34-1.26-.07-1.48a3.16,3.16,0,0,0-1.51-.35C30.39,162.1,28.14,162.33,28.14,162.33Z" fill="#f1d6ba"/><path d="M16.1,160.4a20.79,20.79,0,0,0,.06,2.68c.11.24.58.69,2,.46A8.63,8.63,0,0,0,20,163.1l-.48-2.79-.37-1.26-1.84-.16-1.23.33Z" fill="#d8d5cc"/><path d="M28.2,164.19a16.62,16.62,0,0,0,3.49.16c.79-.15,1-.42,1.35-.17s.72.24.9.68a8,8,0,0,1,.69,1.81c.06.62.5,2.87.54,3.37s-.7,1.66-.69,1.73-.73-.4-.85-.41a26.59,26.59,0,0,1-.59-3s-4.51.82-4.8.58a15.59,15.59,0,0,1-1.61-2.56c-.08-.31-.11-1.2.48-1.49A5.9,5.9,0,0,0,28.2,164.19Z" fill="#aeaeae"/><path d="M23.13,165.37s-.21-1.59-.2-2.06c0-.7,1.91-.18,2-.13a12.89,12.89,0,0,1,.9,1.58c.36.7,1.32,2.1,1.63,2.78a13.13,13.13,0,0,1,.82,2.26,9,9,0,0,1,.22,1.69,2.5,2.5,0,0,1-.59,1.11c-1.65,1.16-2.95,2.29-2.95,2.29a29,29,0,0,1,0-4.22,5.92,5.92,0,0,0,.08-2.79c-.23-.57-.14-1.4-.59-1.63s-1.43-.71-1.69-.81a10.32,10.32,0,0,1-1.22-.89Z" fill="#fd8204"/><path d="M12.41,166.23a3.36,3.36,0,0,0-.81,2.42c0,.81.35,1,.84,2.4.58,1.72.06,2.26.63,2.34.85.13,4.26.44,4.33,1.89,1-.5,6.72-.63,7.26-.57a33.31,33.31,0,0,1,.22-5.23,2.73,2.73,0,0,0,.18-.5,1.38,1.38,0,0,0,.08-.47c0-.18-.33-2.3-1.68-2.71-.59-.18-.9.12-2.09.52a15.84,15.84,0,0,1-5.23.57c-1,0-2,0-2.43-.64-.1-.17-.19-.43-.42-.49S12.58,166.06,12.41,166.23Z" fill="#f09102"/><path d="M12.71,172.15s0,1-.56,1.27-1.15.9-1.31.43-.86-.89-.38-1.27,1.4-1.2,1.4-1.2l.65-.09Z" fill="#ce8a58"/><path d="M35.05,169.18a6,6,0,0,1,1.57.09c.25.14.69.18.36.42s-1.74.84-1.74.84Z" fill="#ce8a58"/><path d="M12.17,166.9a2.18,2.18,0,0,0-.32,1.57c.14.5.2.83.5,1s-.55.41-.55.41a3.84,3.84,0,0,1-.49-1.44,2.57,2.57,0,0,1,.44-1.75,4.5,4.5,0,0,1,.5-.49Z" fill="#5b2019"/><path d="M23.32,165.27c-.32-.84-.69-2.1-.47-2.42a2.79,2.79,0,0,0,.54-1.16,1.41,1.41,0,0,0-.54-1.05c-.35-.19-1.33-.52-1.26-1.25s.12-1.4.78-1.59c1.57-.45,7.37-3.11,7.85-3.13a1.16,1.16,0,0,1,1.2.49c.23.44.73,1.16.4,1.62s-2.44,1.14-2.68,1.25-.64-.08-.64.8.06,2.19.63,2.51A7.18,7.18,0,0,1,30,162c-1.66.22-1.84.74-2,.62a11.26,11.26,0,0,1-1.2-1.13c-.19-.31-.51-.37-.53-.06s.21.6.31,1.19.33,1.33.35,1.75.25.81-.47.91a10.62,10.62,0,0,1-1.89.2A3.59,3.59,0,0,1,23.32,165.27Z" fill="#f09102"/><path d="M23.52,162.42a5.68,5.68,0,0,0,1.85.18,3,3,0,0,1,1.09-.26c.13.08.22.52.23.79s.4.5.09,1.13.1.38-.66.63a4.72,4.72,0,0,1-1.86.22c-.69,0-1,.56-1.16-.52a9.09,9.09,0,0,1-.19-1.64c0-.17.65-.56.65-.56Z" fill="#e75c16"/><path d="M22.14,183a1.06,1.06,0,0,0-.77.54,1,1,0,0,0,.16,1.14,1.3,1.3,0,0,0,1.17.2,1,1,0,0,0,.54-1c-.06-.5-.32-.89-1.1-.88l.11.43s.52.07.65.44-.31.66-.54.67-.61-.06-.63-.49a.56.56,0,0,1,.52-.62Z" fill="#5b2019"/><path d="M14,181.81a1,1,0,0,0-.77.54,1,1,0,0,0,.15,1.14,1.3,1.3,0,0,0,1.17.2,1,1,0,0,0,.55-1,.94.94,0,0,0-1.1-.88l.1.43s.53.07.65.44-.3.66-.54.67-.6-.06-.62-.49a.61.61,0,0,1,.56-.64Z" fill="#5b2019"/><path d="M34,199a1.07,1.07,0,0,0-.77.54,1,1,0,0,0,.16,1.15,1.36,1.36,0,0,0,1.17.2,1,1,0,0,0,.54-1c-.06-.49-.32-.89-1.1-.88l.1.43s.53.07.65.44-.3.66-.53.67-.61-.06-.63-.48a.58.58,0,0,1,.54-.63Z" fill="#5b2019"/><path d="M23.68,199.59a1,1,0,0,0-.77.54,1,1,0,0,0,.15,1.14,1.3,1.3,0,0,0,1.17.2,1,1,0,0,0,.55-1c-.07-.49-.32-.88-1.1-.87l.1.43s.53.07.65.44-.3.66-.54.67-.6-.06-.62-.49a.56.56,0,0,1,.55-.61Z" fill="#5b2019"/><path d="M32,182.81a1.06,1.06,0,0,0-.78.54,1,1,0,0,0,.16,1.14,1.3,1.3,0,0,0,1.17.2,1,1,0,0,0,.55-1,.93.93,0,0,0-1.1-.87l.1.42s.53.08.65.44-.31.66-.54.67-.61-.06-.63-.48a.54.54,0,0,1,.51-.6Z" fill="#5b2019"/><path d="M13.83,170.16a7.15,7.15,0,0,1-1.48-.73c-.29-.15-.56.28-.55.41" fill="#5b2019"/><path d="M44.85,193.81h0s-1.66.19-1.75.84c-.32,2.24-1.4,1-1.66.8s-2-.81-2.48-.44a1.48,1.48,0,0,0-.3,1.82c.31.53.17.93.75,1.22s2.44,1,2.59,1.07l.73.33h0a12.62,12.62,0,0,1-.1,2.31,3.08,3.08,0,0,1-1.93,1.9c-.28.08-1.27-.79-2.43-1.33s-2.51-1.06-2.76-.21a2.18,2.18,0,0,0,.75,2.64,18.12,18.12,0,0,0,2.88,1.7,4,4,0,0,0,2.93.31,7.42,7.42,0,0,0,2.81-1.58,10.31,10.31,0,0,1,1.29-1.44c.38-.27.83-.62.83-.62l2-1.54s-.18-.2.33-1.84l-2.06-4.86Z" fill="#f3dac0"/><path d="M34.73,202.91s-1.52-.68-2,.23a1.82,1.82,0,0,0,.54,2.7,7.16,7.16,0,0,0,3,1.59,13.69,13.69,0,0,0,3.07,0,9.24,9.24,0,0,0,1.3-.32,24.34,24.34,0,0,1-3.25-1.53C37,205.27,34.73,202.91,34.73,202.91Z" fill="#f3dac0"/><path d="M14.58,200.06a16.5,16.5,0,0,0,4.85,1.63c3.26.6,4.7.79,4.7.79l.3.87a39.09,39.09,0,0,1-5.38-.61c-2.67-.53-4.8-1.63-4.8-1.88A2.53,2.53,0,0,1,14.58,200.06Z" fill="#5b2019"/><path d="M12.86,196.45h0s1.66.18,1.75.84c.31,2.24,1.87.64,2.14.45s1.28-.57,1.8-.21.48.85.38,1.6,0,1-.59,1.31-2.55,1.06-2.71,1.12a5.75,5.75,0,0,0-.66.53h0a12.81,12.81,0,0,0,.11,2.31,3.06,3.06,0,0,0,1.92,1.9c.28.09,1.27-.79,2.43-1.33s2.52-1.05,2.76-.2a2.16,2.16,0,0,1-.75,2.63,16.67,16.67,0,0,1-2.87,1.7,4,4,0,0,1-2.94.32,7.66,7.66,0,0,1-2.81-1.58,9.68,9.68,0,0,0-1.28-1.44l-.83-.63-2.05-1.54s.18-.2-.32-1.83l2.05-4.87Z" fill="#f3dac0"/><path d="M22.94,205.56s1.52-.69,2,.23a1.81,1.81,0,0,1-.55,2.7,7.28,7.28,0,0,1-3,1.59,13.69,13.69,0,0,1-3.07,0,10.27,10.27,0,0,1-1.3-.31,25,25,0,0,0,3.26-1.53C20.66,207.92,22.94,205.56,22.94,205.56Z" fill="#f3dac0"/><path d="M10.71,186.21a11.91,11.91,0,0,1,3.15.55,4.65,4.65,0,0,1,2,2c.34.66,1.6,1.16,1.88,1.71a19.75,19.75,0,0,1,.72,4c0,.55-1.6,2-2,2.26a3.82,3.82,0,0,1-1,.45s-1.85-.16-2.44-.31c-1.24-.32-3.24,1.35-3.24,1.35l-5.13-12Z" fill="#fff"/><path d="M43.86,140.15c0-.88,1.43-1.74,1.84-2.12a3.42,3.42,0,0,1,2.32-.45c.67.14,1.93-.14,2.63.25a2.59,2.59,0,0,1,1.2,1.54,1.32,1.32,0,0,1-.24.91,4.15,4.15,0,0,1-1.37.66,12,12,0,0,1-2.42.08c-.6-.06-1.58-.23-2-.31S43.88,140.58,43.86,140.15Z" fill="#fff"/><path d="M25.57,139.5c.1-.57.5-1,1.46-1.44a6.9,6.9,0,0,1,4.19-.43,5.29,5.29,0,0,1,2.42,2.11c.16.46.35.72,0,.85a19.25,19.25,0,0,0-2,.33,9.59,9.59,0,0,1-2.89.42C27.71,141.32,25.37,140.71,25.57,139.5Z" fill="#fff"/><path d="M27.12,139.08s0,1.21.57,1.69a3.15,3.15,0,0,0,2.11.52,1.86,1.86,0,0,0,1.52-.68c.23-.45.68-1.81-.27-2.47a3.11,3.11,0,0,0-2.49-.47A1.81,1.81,0,0,0,27.12,139.08Z" fill="#88cceb"/><path d="M45.94,138.89s-.24,1.22.36,1.7a3.14,3.14,0,0,0,2.1.52,1.66,1.66,0,0,0,1.38-.76c.23-.45.82-1.73-.13-2.39a3.09,3.09,0,0,0-2.48-.47A1.57,1.57,0,0,0,45.94,138.89Z" fill="#88cceb"/><path d="M56.74,158.36c.27-.09.64-.27,1.36-.56a23.63,23.63,0,0,0,3.06-1.5c4.13-2.31,5.54-3.48,6-4.06a20.86,20.86,0,0,0,4.08-6.9,18.65,18.65,0,0,0,.64-6.72c-.21-4.13-.81-6-1.7-7.82a76.81,76.81,0,0,0-5.8-8.55,32.51,32.51,0,0,0-6.33-5.62s-3.4-2.21-5.58-2.57c-.09,0-.61-.1-1.32-.25-1-.21-1.09-.28-1.82-.44A20.82,20.82,0,0,0,46.5,113l-1.77-.31a7.69,7.69,0,0,0-.72-.28,2.21,2.21,0,0,0-1.16-.25l-.1,0-1.15-.07c-.75,0-1.12,0-1.55,0-.82.05-.83.17-1.49.17s-.69-.1-1.43-.14-.89,0-1.65,0a5.91,5.91,0,0,0-2.07.06,18.39,18.39,0,0,0-3.17.82,17.64,17.64,0,0,0-7.08,2.7,16.94,16.94,0,0,0-2.43,1.94c-.92.54-1.86,1.11-2.8,1.72s-1.73,1.13-2.54,1.69a15.85,15.85,0,0,0-4.47,4.73,19.34,19.34,0,0,0-2.42,8.38s0,.22-.07,2.07l-.18.54a13.41,13.41,0,0,0-.12,6.37A23.34,23.34,0,0,0,10,148.6a22.1,22.1,0,0,0,4.4,5.36,30.62,30.62,0,0,0,6,4.14,2.71,2.71,0,0,0,.91.43,1,1,0,0,0-.1.69c0,1,.32,1.44.83,1.58s.85.12.93.3a1.76,1.76,0,0,1,.18.63l-.16.09c-.43.25-2.05,1.4-2.35,1.62a4.85,4.85,0,0,0-.35-.45s-.24-2.13-.36-2.7-.28-1.39-.83-1.38-2.24.13-2.31.13-.86.25-.85.62-.2,2.92-.17,3.08a1,1,0,0,1-.21.8,1.5,1.5,0,0,0-.35.91c.05.11-1.1.51-1.48.74a11.72,11.72,0,0,0-1.49,1.12c-.15.17-.08.75-.08.75a2.77,2.77,0,0,1,.89-.88v0c0,.4.83.77,1.19.87a17.52,17.52,0,0,0,4.93.23,7.13,7.13,0,0,0,3.4-1.06c.18-.06.47-.19.75-.28h.05c.38.1.56.18,1,.88s.68,1.71.4,2a7.47,7.47,0,0,1-3.57,1.33,37.18,37.18,0,0,1-7.28.07,4.43,4.43,0,0,1-1.48-.73c-.25-.22-.57.28-.56.41a1.25,1.25,0,0,0,0,.18l-.29.19a22,22,0,0,0-6,6.95,31.89,31.89,0,0,0-3.42,9.49,9.32,9.32,0,0,0,.08,2.43c-1.62,2-2.49,3.71-2.18,6.22.36,2.85,1.48,5.32,2.66,5.86a5.8,5.8,0,0,1,1.94,1.55s1,.68,1.73.22a3.13,3.13,0,0,0,.78.8c.12.08.92.75,1.48,1.13.07.13.14.24.18.3h0l0,0h0L11,206.48c.43.53,1.52,1.54,1.8,1.84a7.12,7.12,0,0,0,2.4,1.44c.47.09,1.72.25,2.38.3a6.48,6.48,0,0,0,2.32.61,8.09,8.09,0,0,0,4-1.06,5.46,5.46,0,0,0,.48-.36c.17,0,.34.08.49.1a11.42,11.42,0,0,0,4.29-.26,7.63,7.63,0,0,0,.73-.28l1.3.06a7,7,0,0,0,1.56.11h.1c5.35.42,4.38,1.17,10.71,1a130.5,130.5,0,0,0,19.06-2,4.84,4.84,0,0,0,.22-1.43h0a51.74,51.74,0,0,0,.29-8.33l2.79-3c1.82-2,2-5.11,2.43-6,1.1-2.54-1.25-15.39-3.68-18.65a59.7,59.7,0,0,0-4.78-5,15.8,15.8,0,0,0-6.09-4.26,37.33,37.33,0,0,0-3.64-1.47,14.38,14.38,0,0,0,2-.32C54.85,158.68,55.64,158.71,56.74,158.36Zm-40.38,1.5s.05-.37,1.07-.39,1.53,0,1.53,0,.39,0,.48.8.19,1.28.26,1.67.11.78.11.78a.76.76,0,0,1,0,.28,3.82,3.82,0,0,1-1.67.51,4.66,4.66,0,0,1-1.54-.16s-.28-.1-.28-1S16.36,159.86,16.36,159.86Zm5.41,6.23c-.2.14-1.17.56-4.06.63s-3.42-.16-3.81-.41a.51.51,0,0,1-.3-.49,5.26,5.26,0,0,1,2.62-.89c.77,0,1.18,0,1.22-.17-.11-.17-1.39-.32-1.44-.37s-.43-.49.3-.52,1.46.09,1.89.07a12,12,0,0,1,1.92-.19.14.14,0,0,1,.05.09c0,.22.08.54-.51.66s-1.2.09-1.19.16.47.37,1.27.17a3,3,0,0,1,1.73.09c.1.09.73.34.75.43a.93.93,0,0,1,.05.14A1.21,1.21,0,0,1,21.77,166.09Zm.23-1.33-1.17-.48c.35-.33,1.35-1.14,1.79-1.49a.59.59,0,0,0,0,.14,14.5,14.5,0,0,0,.17,2.23ZM68.25,149a8.48,8.48,0,0,1-.7,1.72c-.28.33-.53.76-.86,1.08-1.25,1.21-5.3,3.29-6.19,3.81a23.25,23.25,0,0,1-4,2.08c-1.45.48-2.93.78-1.49-.6a11.56,11.56,0,0,0,2.7-4.53,34.09,34.09,0,0,0,.88-3.55c.16-.71.15-.88.24-1.23a2.44,2.44,0,0,0,.17-.67,11.56,11.56,0,0,0,.85-2.08,3.3,3.3,0,0,0,2-1.29,5.66,5.66,0,0,0,1.71-3.12,3.51,3.51,0,0,0-.74-2.63c-.09-.1.08-.67.21-1a10.29,10.29,0,0,0,.69-3,13.07,13.07,0,0,0-.42-3.45s0,0,0-.06a8.08,8.08,0,0,1,2.63,4.09,18.58,18.58,0,0,1,.56,3,20.47,20.47,0,0,1-.12,4.62,17,17,0,0,1-.4,2.28,7.15,7.15,0,0,1-.6,1.74,8,8,0,0,1-.75,1.21c-.49.63-1.58,1.78-1.83,2.23,0,0,0,0,0,0a7.89,7.89,0,0,0,3.08-2.91A12.83,12.83,0,0,0,67.26,142a28.94,28.94,0,0,0,.19-3.47v0a14.5,14.5,0,0,1,1,4.4C68.54,145,68.69,147.52,68.25,149Zm-19.4,37.71a2.34,2.34,0,0,1-.49,1.35c-.33.36-.73.75-.73.75s-2.91,2-4.07,2.57c-.92.46-4,1.72-5.22,2.25v0s-2,1-3,.35-1.1-2-1.23-3.12-.23-3-.41-4.3S33,180,32.63,178.92s-.65-3.18-.82-3.52l-.06-.14a2.18,2.18,0,0,1,.27.15,5,5,0,0,0,1.21.59c.24,0,.78,0,0-.62s-1.94-1.69-3.19-1.63l-.69.05-.37,0a4.23,4.23,0,0,0-.67.1,3.39,3.39,0,0,0-.59.16c-.05,0-1.14.34-1.72.59l-.1,0a9.1,9.1,0,0,1,4.92-2.77,7.55,7.55,0,0,1,5.9,1.3c.73.63,2.21,2.33,2.49,2.55s.05-.58-.24-.84a9.61,9.61,0,0,0-4-3.29,4.51,4.51,0,0,1,1.44-1.25,5.17,5.17,0,0,1,1.82-.3,7.62,7.62,0,0,1,4.06,2.79,56.79,56.79,0,0,1,4.11,6.26c.28.62,1.88,4.36,2.21,5.55A6.77,6.77,0,0,1,48.85,186.74Zm6.73,3.74a4.15,4.15,0,0,0-2.89-2.21c-1.39-.36-.68-.49.1-.57a7.23,7.23,0,0,1,3,.07c1.06.35,4.43,2.47,5.18,4.14s1,2.29.77,3a10.47,10.47,0,0,0-.34,3.28,6.54,6.54,0,0,1-1.14,3.26,4.62,4.62,0,0,1-1.13.81,11.57,11.57,0,0,0,.31-1.46c0-.43,0-1.29-.29-1.23a11.25,11.25,0,0,1-.75,2.72c-.51,1-.13,2.08-2.43,2.2-.9.05-1.34.09-1.59.11a15.25,15.25,0,0,0,1-2.06,9.46,9.46,0,0,0,.4-3.38,18.23,18.23,0,0,0-1.12-5,6.63,6.63,0,0,0-1.42-2.26,4.86,4.86,0,0,0-1.72-1.1c-.55-.2-.81-.16-1.54-.39a7.3,7.3,0,0,1-1.43-.62.59.59,0,0,0-.38.25c-.16.31.22.66,0,1,0,.05-.06.1-.29.25a3.94,3.94,0,0,1-.84.49l-.84.37a4.55,4.55,0,0,1,1.6-2.56c1.48-1.26,2.92-1.5,5-.37a8.49,8.49,0,0,1,3.22,3.15A2.6,2.6,0,0,0,55.58,190.48Zm-1.24,14.11a4,4,0,0,1-.66,0,1.5,1.5,0,0,1-1.33-1.13,4,4,0,0,0-1-1.44c.89-.26,1.76-.52,2.57-.72a2.58,2.58,0,0,1,.37,1.51C54.29,203.66,54.33,204.36,54.34,204.59Zm-.14-4a11.45,11.45,0,0,1-2.23.64c-.37.07-.85.17-1.08.19a10.8,10.8,0,0,0-1.7.27s0-.06,0-.08a9.13,9.13,0,0,0,.22-2.08c-.08-.49-.46-1.62-.78-2.84a4,4,0,0,0-1.5-2.25,4.29,4.29,0,0,0-1.54-.53l-.07,0L48.08,192a23.07,23.07,0,0,1,2.29-.38,3.14,3.14,0,0,1,2.57,1.3,16.61,16.61,0,0,1,1.55,4.17,24.41,24.41,0,0,1,.1,2.84c0,.23,0,.33,0,.4A.65.65,0,0,1,54.2,200.61Zm-8.58,3.06a3,3,0,0,1-.34.36,13.71,13.71,0,0,1-2.09,2.08,3.91,3.91,0,0,1-1.65.68,3.77,3.77,0,0,1-2.28-.27c-.59-.32-1.69-1-2.11-1.23a3.56,3.56,0,0,1-1.46-1.75c-.06-.19-.14-.28-.11-.45,0-.61.45-.84,1-1a2.13,2.13,0,0,1,1.32.47l.71.34a12.74,12.74,0,0,1,2,1.35c.34.31,1.1.15,1.22.12s-.21-.49-.47-.53l.1-.05a3.17,3.17,0,0,0,1.35-1.49,4.88,4.88,0,0,0,.25-2.05,6.24,6.24,0,0,1,.4.6,4,4,0,0,0,.83,1.12s1.54-.47.55-1.07a12.73,12.73,0,0,1-1.63-1.26s-.13-.11-.46-.34l-.18-.12c-.67-.39-2.39-.78-2.81-1.22a3.17,3.17,0,0,1-.91-1.46,1.57,1.57,0,0,1,.07-1.19.88.88,0,0,1,.17-.19.76.76,0,0,1,.38-.14,1.45,1.45,0,0,1,.59.05,3.86,3.86,0,0,1,1.06.67,8.67,8.67,0,0,0,2.18,1.51,9.74,9.74,0,0,0,3,.86c.32,0,.32-.23.36-.29a16.79,16.79,0,0,1-3.35-1.28l-.36-.22c0-.25.06-.7.1-1.21a5.87,5.87,0,0,1,1.95-.75,6.15,6.15,0,0,1,1.25.34c1.07.4,1.46,1.3,2.4,3.45a4.25,4.25,0,0,1-.41,3.85,5.2,5.2,0,0,0-2.59,1.68Zm-6.42,3.5c-.53.12-1.2.27-1.39.28a7.32,7.32,0,0,1-3.18-.91c-1.75-.79-2.39-2.22-1.87-3s.91-.86,1.58-.71c.24,0,.36.38.38.6a3,3,0,0,0,1.14,1.68A28.67,28.67,0,0,0,39.2,207.17Zm-.48-4.8a11.39,11.39,0,0,0,3.72-1.74,13,13,0,0,1-.53,1.73,2.36,2.36,0,0,1-1.68,1.07,5.91,5.91,0,0,1-.69-.46ZM11.56,183.53a18.3,18.3,0,0,1-.57-2.87c-.14-.83.16-1.16.33-1.28.69.38,4.87,2.45,13.52,2.42,0,0,4.71-.15,7.29-.54l0-.19c.32,2,.62,3.83.63,4.11a3.23,3.23,0,0,0,0,.35,48.71,48.71,0,0,1-8.73.49A32,32,0,0,1,11.56,183.53Zm6.49,7.08a2.31,2.31,0,0,0-.26-.4,9.42,9.42,0,0,0-1.35-1c0-.11-1-2.4-2-2.67a7.47,7.47,0,0,0-2.05-.32c-.1-.43-.24-1-.39-1.54a23.82,23.82,0,0,0,5.63,1.53C17.73,187,17.87,188.59,18.05,190.61Zm-1.21-14.2a4.92,4.92,0,0,0-.5-.59l.74-.5.06-.07,0,.15a1.66,1.66,0,0,0-.32.73,1.1,1.1,0,0,0,0,.18v.1Zm-.6-1a.56.56,0,0,1-.51,0,21.67,21.67,0,0,0-4.06-1.16s-.41-.09-.3-.3.61-.38.61-.38.13-.13.54-.06,4.11.92,4.24,1a.29.29,0,0,1,.06.46A3.23,3.23,0,0,1,16.24,175.39Zm1.16,1.43s.18-.59,1.19-.55,7.1-.06,7.1-.06.82,0,.94.21a34.85,34.85,0,0,1,.49,4.63,35.28,35.28,0,0,1-3.71,0,35.75,35.75,0,0,1-5.69-.42v0h0l-.12-1.27h0C17.51,178.21,17.41,176.93,17.4,176.82Zm12-1.5a16.63,16.63,0,0,1-2.29.37l-.46-.69c.42-.07,1-.17,1.37-.24.56-.11,1.4-.2,2.06-.26a1.5,1.5,0,0,1,.22,0,1.52,1.52,0,0,1,.43.24,1,1,0,0,1,.16.23A14.49,14.49,0,0,0,29.39,175.32Zm1.7,0a2.1,2.1,0,0,1,.2.54c.05.3.42,2.5.78,4.69-.47.07-2.12.3-4.16.43l-.61-4.78,0,0,2.13-.4A14.32,14.32,0,0,0,31.09,175.35Zm-13.57,5.24v0l-.16,0Zm.75,5.69a48.13,48.13,0,0,0,7.23.48s1,0,2.26-.1l1,11.3a33,33,0,0,1-7.29-.31c-.45-.07-1.3-.28-2.12-.48ZM18.62,197l-1.27-.34c.21-.23.39-.42.5-.52a3,3,0,0,0,.63-.71C18.53,195.92,18.58,196.45,18.62,197Zm10-10.35c1.42-.09,3.05-.22,4.22-.4l.05-.38c.14,1.44.51,4.58.58,5.31a7.08,7.08,0,0,0,.7,2.85,2.23,2.23,0,0,0,1.83.94,4.53,4.53,0,0,0,1.87-.34,36.8,36.8,0,0,0,4.76-1.95l-.1,2s-1,.42-1.24.52l-.46-.29a2.09,2.09,0,0,0-1.27-.31,1.37,1.37,0,0,0-.8.3,1.54,1.54,0,0,0-.48,1,2.23,2.23,0,0,0,0,.37,32.84,32.84,0,0,1-7.59,1.6l-1.2.09Zm13.88,8.77,0,.59-.47-.31Zm2.93-2.76a3.19,3.19,0,0,0-.84.75,1.14,1.14,0,0,0-.25.49,3,3,0,0,0-1.22.45c0-.74.1-1.49.11-2,.35-.18.71-.38,1.06-.59s.87-.52,1.26-.76A1.93,1.93,0,0,0,45.38,192.63ZM26.52,161.68A5.29,5.29,0,0,0,27.8,163c0,.51.06,1.15.06,1.15a1.14,1.14,0,0,1-.56.52l-.13,0a.53.53,0,0,0,0-.13,8.53,8.53,0,0,0-.21-1.92.58.58,0,0,0-.34-.33A2.72,2.72,0,0,0,26.52,161.68Zm2.8-5a1.58,1.58,0,0,0,.73.73l.25.08c-.54.22-1.09.49-1.09.49a.56.56,0,0,1-.33.06,1.34,1.34,0,0,1-.72-.85,1.2,1.2,0,0,1,.17-1.22,2.76,2.76,0,0,1,1.06-.54A1.3,1.3,0,0,0,29.32,156.71Zm12.26,11.22c-1.28,1-1.87,1.42-2,1.36-.7,0-1-.45-2.28-1.34l-.41-.26c.12-.1.35-.26.45-.35l1.7-1.41c1,.43,2.63,1.08,3.41,1.39C42.27,167.45,42,167.63,41.58,167.93Zm1.88-.62L43.41,173a14.59,14.59,0,0,0-1-1.21A9.61,9.61,0,0,0,40.26,170a2.49,2.49,0,0,0-.52-.25c.32-.21,1-.71,1.9-1.28A16.55,16.55,0,0,0,43.46,167.31ZM35.23,169c0-.21,0-.37,0-.45,0-.33-.08-.71-.15-1.51a.27.27,0,0,1,.08.07c.59.49,1.14.78,1.74,1.24a12.12,12.12,0,0,0,1.79,1.15l-.27,0h0a4.21,4.21,0,0,0-.89,0h0A4.63,4.63,0,0,0,35.23,169Zm1.32.68a4.49,4.49,0,0,0-.76.33l-.44.29c0-.24-.05-.55-.07-.85A7.54,7.54,0,0,1,36.55,169.69Zm-1.62-5.19a10.76,10.76,0,0,1,0-1.89l.42.54a13.74,13.74,0,0,0,2.93,2.39c-.7.62-1.11,1-1.39,1.19-.1.08-.43.32-.49.39a.9.9,0,0,1-.17.14c-.62-.39-.93-.61-1.14-1.15A3.41,3.41,0,0,1,34.93,164.5Zm4.06.44a11.78,11.78,0,0,1-3.12-2.52,3.91,3.91,0,0,1-.4-.54l.05,0a15.18,15.18,0,0,0,3.63.22,24.88,24.88,0,0,0,4-.48c-.53.41-2,1.44-2.41,1.83Zm2.42-4.11a17.42,17.42,0,0,1-1.94-2.13,12.08,12.08,0,0,0,1.91,0,9.36,9.36,0,0,0,1.64-.39C42.63,158.82,41.72,160.79,41.41,160.83Zm-.65.33a17.39,17.39,0,0,1-2.82.09c-.47,0-.75-.08-1.15-.11.55-.6,1.71-2.41,1.84-2.41A29,29,0,0,1,40.76,161.16Zm-4.66-.35a23.28,23.28,0,0,1-1.69-2.52,11,11,0,0,0,3.49.33C37.55,159.23,36.44,160.76,36.1,160.81Zm-.81.22a6,6,0,0,1-2.06-.61,4.77,4.77,0,0,1-1.47-1s1.52-1.2,1.93-1A16.81,16.81,0,0,1,35.29,161Zm-3.22.93a12.51,12.51,0,0,0-1.43,0h-.13a6.55,6.55,0,0,1-1.16-1,1.36,1.36,0,0,1-.28-.4l0,0,1.37-.51a2.73,2.73,0,0,1,.93.38,8.46,8.46,0,0,0,1.39.64A3,3,0,0,1,34,162.4a5,5,0,0,1,.12,2.62,1.47,1.47,0,0,0-.23-.26c-.28-.23-.73-.57-1-.81,0-.47-.14-1.44-.18-1.57C32.61,162,32.07,162,32.07,162Zm.08,1.73a.23.23,0,0,1-.2.25l-1.32.15a15.34,15.34,0,0,1-2.08,0,1.08,1.08,0,0,1-.26-.86c.09-.78.3-.67,1.47-.77a8.28,8.28,0,0,1,2.11,0A5.64,5.64,0,0,1,32.15,163.69Zm-3.43-4c0-.19-.17-.48-.18-.51-.07-.2,0-.31.23-.4.49-.18,1-.43,1.52-.65a1.64,1.64,0,0,1,.32.89.65.65,0,0,1-.31.64C30.09,159.78,29.12,160.25,28.72,159.69Zm2.76-.73a2,2,0,0,0-.43-1.16,2.43,2.43,0,0,0,.26-.15l.17-.09c.37.11,1,.32,1.36.41Zm0-2.06h0a.73.73,0,0,1-1,.32,1.17,1.17,0,0,1-.68-.87,1,1,0,0,1,.56-1.24c.27-.09.65-.09,1,.53S31.69,156.61,31.48,156.9Zm-2,5.1c-1.08,0-1.52.5-1.76.21s-.6-.47-.82-.75a3.06,3.06,0,0,1-.4-.84c-.12-.27.18-.63.53-.93a3.93,3.93,0,0,1,.77-.51,1.57,1.57,0,0,0,.2.72C28.23,160.27,29.18,161.48,29.48,162Zm-2.92.87a3.41,3.41,0,0,1,.1,1.55.41.41,0,0,1-.35.32l-.14-2C26.31,162.69,26.43,162.65,26.56,162.87Zm.56,2.4a3.15,3.15,0,0,1,1.79-.65,6.08,6.08,0,0,0,1,0h0s1.31,0,1.88-.07a3.41,3.41,0,0,1,1-.1c.41.24.94.58.75.91s-.84.83-2.33,1a10,10,0,0,1-3.73,0,1.31,1.31,0,0,1-.52-.31.56.56,0,0,1-.13-.57A.79.79,0,0,1,27.12,165.27Zm.75,1.7a24.84,24.84,0,0,0,3.32,0,8.25,8.25,0,0,0,2.53-.73.27.27,0,0,1,.08-.07c.13,0,.37.09.5.48a8.33,8.33,0,0,1,.32,1.65c0,.15.11,1.81.14,2.49-.21.21-.39.41-.53.58l-.52-.1c-.09-.61-.17-1.83-.19-1.93a5.13,5.13,0,0,0-.11-1,.41.41,0,0,0-.42-.17c-.13,0-.85.23-2,.43a10.51,10.51,0,0,1-2.5.05,2.1,2.1,0,0,1-.38-.06c-.22-.42-.47-.91-.71-1.31-.06-.14-.13-.33-.2-.54A3.39,3.39,0,0,0,27.87,167Zm5.43,4.25a7.29,7.29,0,0,0-4.13.34l-.38.16a11.66,11.66,0,0,0-.36-2.49l1.4,0a18.38,18.38,0,0,0,2.83-.38c.52-.11.45.08.45.08Zm10.24-7a6.81,6.81,0,0,1-.26,2.36,17.83,17.83,0,0,1-3.52-1.24c.08-.07.16-.13.24-.21.77-.67,1.94-1.65,2.28-1.9s1.22-1,1.61-1.36C43.76,162.68,43.6,163.51,43.54,164.22ZM42,161c.43-.41,1.77-2.71,2-2.76s1.32,1.48,1.6,1.8a6.35,6.35,0,0,1-1,.34A24.21,24.21,0,0,1,42,161Zm3.45-2.18a4.83,4.83,0,0,0-.53-.8,14,14,0,0,0,2.28-1v1.86s0,.39-.77.69C46.06,159.59,45.68,159.27,45.41,158.81Zm.27-1.84a22.18,22.18,0,0,1-7.39,1,20,20,0,0,1-4-.29,17.15,17.15,0,0,1-2.29-.59,1.06,1.06,0,0,0,0-1.2c-.6-1-1-1.54-1.9-1.26-.23.07-.92.33-1.79.67-.34-.22-.64-.44-.91-.64a26.52,26.52,0,0,1-4.34-4,25.61,25.61,0,0,1-4.4-7.22s-.51.6-.74.62c-.85.08-1.59-.94-2-1.48a4.25,4.25,0,0,1-.53-1,2.76,2.76,0,0,1-.19-1.65,1.47,1.47,0,0,1,.45-.87,1.57,1.57,0,0,1,1.32-.21.26.26,0,0,0,.18.05c.22,0,.48-.44.48-.45a13.18,13.18,0,0,1,.73-2.29A5.45,5.45,0,0,1,21,133.05c1.57-1,3.63-1.25,4.83-1.65l.52-.16a7.46,7.46,0,0,0,2.23.65c.68,0,2.76.33,3-.49.09-.36.19-2.32.38-3.51a8.59,8.59,0,0,1,1-2.56c.19.68.46,1.5.84,2.57a46.83,46.83,0,0,1,.91,5.19s1-.24,2.12-.63,3.11-.6,4.14-.88a23.75,23.75,0,0,1,2.78-.57c.24,0,2.84.69,3.93.81a11.71,11.71,0,0,0,3.62-.18,2.87,2.87,0,0,0,1.17-.48l.09-.06a3.18,3.18,0,0,0,1,1c.69.44,2.46,1.61,3.35,2.29a26.14,26.14,0,0,1,2.9,3.87,2,2,0,0,1,2.58,1.45c.44,1.52-.94,3-1.21,3.35a5.5,5.5,0,0,1-1.66,1.25,20.82,20.82,0,0,1-3.17,5.21,23.74,23.74,0,0,1-5,4.38A21.45,21.45,0,0,1,45.68,157Zm-18-1.43-4,1.61a8.93,8.93,0,0,0-.79-.67c-3.19-2.68-4.68-4.28-6-8a10,10,0,0,1-.26-4.13,1.46,1.46,0,0,0,1.8.34s.75,1.76,1.11,2.35a42.36,42.36,0,0,0,3.75,4.71A42.41,42.41,0,0,0,27.67,155.54ZM54.18,115.6a25.46,25.46,0,0,1,7.59,5.24c1.94,1.79,3.09,3.47,5.56,6.75a17,17,0,0,1,2.72,4.83,13,13,0,0,1,.89,3.77,24.93,24.93,0,0,1-.89,10.08,13.74,13.74,0,0,1-.84,2.15,28.85,28.85,0,0,0,0-5.38,37.47,37.47,0,0,0-1.55-6.43A17,17,0,0,0,65,131.32a26,26,0,0,1-2.17-3.12c-.24-.5-1.46-2.91-1.92-3.88a21.85,21.85,0,0,0-1.79-3.16,11.38,11.38,0,0,0-1.47-1.86c-1.14-1.17-2.79-2.62-3.22-3A12.48,12.48,0,0,0,52.5,115C53.06,115.15,53.63,115.37,54.18,115.6Zm-7.08-1.86c.24-.24,1.39.3,2.48.7A19.47,19.47,0,0,1,58,121.15c3.58,4.83,4.7,9.61,4.66,10.68,0,.1.05.79,0,1.53a9.86,9.86,0,0,1-.29,2.35,6.36,6.36,0,0,1-.67,1.72,2,2,0,0,0-1.42,0c-.11.06-.24-.25-.89-1.29a7.9,7.9,0,0,0-2.25-2.54l-.06,0h.31a5.26,5.26,0,0,1,2.2.52c.34.17,1.4,1,1.53,1s-.13-.63-.45-1A4.74,4.74,0,0,0,58.79,133a14.75,14.75,0,0,0-3.07-.66,24.67,24.67,0,0,0-2.53-1.74s.29-.27.27-.27a2.24,2.24,0,0,0,.51-.83,8.54,8.54,0,0,0,.58-4,15,15,0,0,0-.58-2.88,9.71,9.71,0,0,0-1.79-3.6,24.74,24.74,0,0,0-4-4.28S47,113.82,47.1,113.74ZM39.36,113a2.75,2.75,0,0,1,1.09-.34,4.12,4.12,0,0,1,2.21.28c.18.14.67.52.86.7a6.12,6.12,0,0,1,1.65,2.68,12.55,12.55,0,0,1,.24,5.09s0-.07,0-.07c.49,0,.66-2.9.66-2.9,0-.82-.09-1.5-.11-1.64a24.7,24.7,0,0,0-.62-2.54c0-.1-.23-.51-.17-.48a11.86,11.86,0,0,1,1.87,1.12,19.52,19.52,0,0,1,3.18,3,14.27,14.27,0,0,1,2.53,3.93,11.41,11.41,0,0,1,.67,5.59c-.14,1.57-.49,2.32-1.06,2.78a3.16,3.16,0,0,1-1.18.55,11.31,11.31,0,0,1-3.35.36,14.46,14.46,0,0,1-3.39-.82,2.25,2.25,0,0,0,1.22-1.32,4.63,4.63,0,0,0,0-2.38,7.23,7.23,0,0,0-.45-1.81s0,1.2,0,1.22a10.34,10.34,0,0,1-.36,2.45c-.23.79-1.14,1.32-1.52,1.61-1.13.87-1.45.38-3.52.9a24.33,24.33,0,0,1-3.77.85c-.09,0-.69.18-.81-.13a6,6,0,0,1-.18-1.81c-.07-1.38-1.2-4.32-1.48-6.26a11.16,11.16,0,0,1,2.12-7.64A9.92,9.92,0,0,1,39.36,113ZM21,118.5A19.38,19.38,0,0,1,25.77,115a16.32,16.32,0,0,1,2.42-1,19.89,19.89,0,0,0-3.09,2.39,24.55,24.55,0,0,0-3.76,4.29,20,20,0,0,0-2.41,5.21,13.43,13.43,0,0,0-.4,2.58h0c.09,0,.7-2.34,1.8-4.44A17.59,17.59,0,0,1,22,121.49a29,29,0,0,1,4.14-4.79,18.86,18.86,0,0,1,5.33-3.38c1.21-.33,4-.53,4-.33a10.07,10.07,0,0,0-3.1,2.6,10.89,10.89,0,0,0-2.2,5c-.2,1.62.14,2.11.14,2.11a14.61,14.61,0,0,1,2.9-6.65,8.52,8.52,0,0,1,3.42-2.78c.71-.3,1.4-.3,1.11-.13a8.78,8.78,0,0,0-3.52,3.8,12,12,0,0,0-1.6,5.27,4.58,4.58,0,0,0,0,2c-.09.1-.5.88-.66,1.2a7.32,7.32,0,0,0-.77,2.39c-.15.74,0,2.69-.24,3.06s-1.16.4-2,.28a9.7,9.7,0,0,1-1.11-.21,3.24,3.24,0,0,0,.66-1.08,5.77,5.77,0,0,0,.33-1.73s-.41.84-.77,1.41a2.91,2.91,0,0,1-1.69,1c-.45.11-1.3.18-2.37.48a8.71,8.71,0,0,0-4.14,1.79A12.66,12.66,0,0,0,17.78,136c-.26.14-.5,0-.82-.05-.87-.49-1.1-.9-1.4-2.22a9.77,9.77,0,0,1-.22-4.53,15.93,15.93,0,0,1,1.71-4.93A26.4,26.4,0,0,1,21,118.5ZM9.48,132.07a12.59,12.59,0,0,1,1.08-3.86,15.26,15.26,0,0,1,4.86-6.32s1.19-.9,3.78-2.6a25.39,25.39,0,0,0-2.48,3.93,16.49,16.49,0,0,0-2,4.87,19,19,0,0,0-5.36,6C9.47,133.41,9.45,132.69,9.48,132.07ZM19,156.59a24.6,24.6,0,0,1-6.69-5.89,15.89,15.89,0,0,1-2.81-5,18,18,0,0,1-1-5.28,14.85,14.85,0,0,1,.51-3.79,12.79,12.79,0,0,1,2.7-4.51,14.41,14.41,0,0,1,2.84-2.55,10.5,10.5,0,0,0-.08,2.2,18.41,18.41,0,0,0,.54,3.05,1.42,1.42,0,0,1,0,.16,9.63,9.63,0,0,0-1.84,2.56A15.28,15.28,0,0,0,12,143.22a28.27,28.27,0,0,0,.39,3.92,17.86,17.86,0,0,0,.68,2.7c.12.29-.71-4.47-.15-7.65a13.77,13.77,0,0,1,1.92-5.63,2.48,2.48,0,0,1,.57-.68,1.51,1.51,0,0,0,.45.6,1.76,1.76,0,0,0,1.49.36,12.35,12.35,0,0,0-.55,1.27h-.09a7,7,0,0,0-.77,0c-.54.1-.87.4-1.19,1.09a3.25,3.25,0,0,0,.28,3.15,9.63,9.63,0,0,0,1,1.27c0,.4-.14,1.21-.17,1.82a9.65,9.65,0,0,0,.27,2.93,9.11,9.11,0,0,0,1.14,2.72,19.25,19.25,0,0,0,2.07,3.11c1.71,2.08,2.81,2.41,3.62,3.2a6.89,6.89,0,0,1-.71.25,1.56,1.56,0,0,0-.55.37A21.2,21.2,0,0,1,19,156.59Zm4.37,6.19.11,0h0l.23,2.22s-.22.08-.33-.07C23.12,164.45,23.05,163,23.4,162.78Zm.36-.62a4.4,4.4,0,0,0-.11-1.28,2.35,2.35,0,0,0-1.11-.47.94.94,0,0,1-.8-1,.9.9,0,0,1,.25-.56l.32-.31a2.06,2.06,0,0,1,.34-.2l.72-.3.12,0c.4-.05,4.29-1.78,4.29-1.78a1.5,1.5,0,0,0-.17,1.17,1.42,1.42,0,0,0,.82,1c-.56.3-1.42.78-1.69,1a1.76,1.76,0,0,0-.34.33,2.23,2.23,0,0,0-.58,1.44c-.08.74.18,1,.18,1v0a.46.46,0,0,1-.21.15c-.16,0-1.26.09-1.26.09H24C23.75,162.3,23.76,162.16,23.76,162.16ZM26,164.82a.51.51,0,0,1-.37.08,9.11,9.11,0,0,1-.18-2.13.47.47,0,0,1,.4,0A10.51,10.51,0,0,1,26,164.82Zm-.76.17c0,.07-.19.09-.31.09s-.1,0-.12,0-.25-2.18-.2-2.25a.63.63,0,0,1,.34-.08.17.17,0,0,1,.14.1A17.42,17.42,0,0,1,25.28,165Zm-.8,0c-.05.08-.35,0-.42,0a14.52,14.52,0,0,1-.15-2.2c0-.15.32-.11.38-.06A10.82,10.82,0,0,1,24.48,165Zm-.48.76,0,0a14.4,14.4,0,0,1,1.73-.05c.17.24.68,1,.9,1.41v0l.07.13a.08.08,0,0,1,0,0l0,.05a14.27,14.27,0,0,1,.94,2,24.68,24.68,0,0,1,.5,2.59,5.61,5.61,0,0,0-2,1.49c-.41.48-.69.83-.87,1.08h-.09a15.29,15.29,0,0,1,0-3.91,6.08,6.08,0,0,0,.32-2.52A3.38,3.38,0,0,0,24,165.79Zm1.84,9.41a1.23,1.23,0,0,1,.61.55H24.31c-2.94,0-6.49-.08-6.49-.08h-.21l.14-.22c.21-.31.67-.29.85-.32C19.1,175.06,25.84,175.2,25.84,175.2Zm-7.58-4.3a13.68,13.68,0,0,0,5.6-1l.8-.46s-.29,1.44-.32,1.95.08,2.49.13,3.15c-2.1,0-6,.07-6,.07a1.83,1.83,0,0,0-1.06.51l-.18-.56a.75.75,0,0,0-.33-.35c-.15-.08-2.34-.6-3.58-.89-.18-.14-.45-.39-.46-.64a6.45,6.45,0,0,0-.16-1.33c-.11-.36-.28-1.14-.28-1.14S13.3,171.15,18.26,170.9Zm-6,.81a5.82,5.82,0,0,1,.08.9c0,.31,0,.46-.21.52a1.74,1.74,0,0,0-1,.3s-.24,0-.24-.56S11.94,171.88,12.3,171.71Zm-1.52,3.35a.55.55,0,0,1,.4-.18.65.65,0,0,1,.19,0c.93.2,3.82.86,4,.93s1.27.49,1.3,1.1.3,2.28.39,2.9l.06.69a26.73,26.73,0,0,1-6-1.83l-.59-2.54A1.25,1.25,0,0,1,10.78,175.06Zm-6.53,7.77c1.66-3.86,3-7.34,5-9.05l.46-.4a16.28,16.28,0,0,0,.32,3.11h0c.09.72.25,1.53.37,2.06a.74.74,0,0,0-.33.39c-.14.29.3,1.66.38,3.29s.92,2,.92,2l.28,2c-1,.09-2.65-.53-3.58-.54a6.18,6.18,0,0,0-4.91,2.37A10.06,10.06,0,0,1,4.25,182.83Zm-1,17.84c-1.32-1.41-1.63-2.84-.6-5a8.59,8.59,0,0,1,3-3.37,3.94,3.94,0,0,0-1.8.82,4.9,4.9,0,0,0-2,3.54c-.28,1.92-.54-.05-.66-.82a7.33,7.33,0,0,1-.07-3c.3-1.08,2.26-4.54,3.89-5.37s2.24-1.08,2.95-.91a10.17,10.17,0,0,0,3.29.19,2.87,2.87,0,0,1,.57,0l.54.09a5.94,5.94,0,0,1,2.19.87,4.63,4.63,0,0,1,.87,1.09s-1.18-.07-1.55,0-1.14.14-1.14.14a11.44,11.44,0,0,1,2.75.63c1.06.46,1.86.52,2.31,2.32s.35,2.12.28,2.3c-.29.71-.57,1.23-1.07,1.39a3.76,3.76,0,0,0-1.24.87,16.77,16.77,0,0,0-1-2.37,2.63,2.63,0,0,1,1.5-.44,17,17,0,0,0,1.8-.12,17,17,0,0,0-2.2-1,9.56,9.56,0,0,0-3.39-.24,18.17,18.17,0,0,0-4.92,1.35,6.23,6.23,0,0,0-2.19,1.53,4.63,4.63,0,0,0-1,1.76c-.17.56-.12.82-.32,1.56A7.55,7.55,0,0,1,3.4,200a.55.55,0,0,0,.27.37c.31.15.65-.25,1-.1,0,0,.1.06.26.28a4.69,4.69,0,0,1,.53.82c.14.3.27.57.4.82A4.53,4.53,0,0,1,3.23,200.67Zm14.07-3.23a4.35,4.35,0,0,0-.51.23l-.85.55h0l.86-1Zm-9,5.74a1,1,0,0,0-.51-.23c-1.12-.08-1.43-1.73-2.14-2.59a22.91,22.91,0,0,1-.5-2.27,3.21,3.21,0,0,1,1.18-2.63,17.16,17.16,0,0,1,4.1-1.74,25,25,0,0,1,2.83-.23,1.75,1.75,0,0,1,.4,0,.66.66,0,0,1,.3.34,12.17,12.17,0,0,1,.75,2.2c.08.37.17.85.23,1.07,0,0,0,0,0,.06a4.55,4.55,0,0,0-1.72-.67h0a2.9,2.9,0,0,0-.51,0l-.25,0h0a4.35,4.35,0,0,0-1.9.59A3.82,3.82,0,0,0,9,199.36c-.32,1.22-.71,2.35-.79,2.84A4.08,4.08,0,0,0,8.29,203.18Zm7.83,6.26a3.84,3.84,0,0,1-1.66-.69,14.13,14.13,0,0,1-2.09-2.07,11.56,11.56,0,0,0-2.76-1.78A4.38,4.38,0,0,1,9,200.79c.94-2.15,1.32-3,2.39-3.45a6.59,6.59,0,0,1,1.15-.32,6.74,6.74,0,0,1,2.56,1.48.69.69,0,0,0,.14.15l-1,.62A16.53,16.53,0,0,1,11,200.52c0,.06,0,.29.35.29a9.59,9.59,0,0,0,2.94-.85,8.24,8.24,0,0,0,2.16-1.49,3.48,3.48,0,0,1,1-.65,1.22,1.22,0,0,1,.58-.06,1,1,0,0,1,.38.14,1,1,0,0,1,.16.19,1.53,1.53,0,0,1,.07,1.18,3.15,3.15,0,0,1-.9,1.43c-.41.44-2.1.82-2.77,1.21s-1.25,1.1-2.23,1.69c-.62.46.22,1.25.54,1.05.26,0,.68-.89.82-1.1s.3-.43.44-.61a4.85,4.85,0,0,0,.26,2,3.22,3.22,0,0,0,1.35,1.49l.1,0c-.27.05-.58.5-.47.53a1.6,1.6,0,0,0,1.22-.11A13.14,13.14,0,0,1,19,205.58c.5-.23,1.32-.65,1.72-.78a1,1,0,0,1,1.14.18c.27.37.3.45.09,1.21a3.62,3.62,0,0,1-1.46,1.75c-.42.24-1.52.91-2.11,1.23A3.77,3.77,0,0,1,16.12,209.44Zm6.9-.25a7.3,7.3,0,0,1-3.17.91c-.2,0-.87-.16-1.39-.28a28.67,28.67,0,0,0,3.34-2.07,3.09,3.09,0,0,0,1.14-1.68c.4-.24,1.22-.62,1.8-.08C25.52,206.72,24.92,208.33,23,209.19Zm1.2-5.76c.21.07,3.53.37,4.54.37h.53c.08,1,.28,3.59.2,3.86a2.1,2.1,0,0,1-1.37.92,10.8,10.8,0,0,1-3.11,0,2.86,2.86,0,0,0,.76-2A1.65,1.65,0,0,0,24.3,205a2.69,2.69,0,0,0-1.57.09,1.59,1.59,0,0,0-1.2-.88,4.42,4.42,0,0,0-1.48.18l-.26-1.61-.71-.1.27,2.06h0c-.42.28-1,.73-1.28.91a6.78,6.78,0,0,1-.68.46A2.35,2.35,0,0,1,15.75,205a17.1,17.1,0,0,1-.72-2.48,6,6,0,0,1,1.24-.75,12.23,12.23,0,0,0,2.29-1.1,2.47,2.47,0,0,0,.74-2.08,1.75,1.75,0,0,0-.18-.56,28.84,28.84,0,0,0,10.29.79,51.35,51.35,0,0,0,7.11-1,20.13,20.13,0,0,0,1.92-.62A2.51,2.51,0,0,0,39,198a12.12,12.12,0,0,0,2.31,1.11,9.12,9.12,0,0,1,1.05.58l-.19.15a26.57,26.57,0,0,1-2.62,1.45,15.14,15.14,0,0,1-1.66.55,4.06,4.06,0,0,0-1.75-.27,1.58,1.58,0,0,0-1.2.87,2,2,0,0,0-1.42-.22,2.32,2.32,0,0,0-1.17.64,38.94,38.94,0,0,1-8.47-.29S24,203.36,24.22,203.43Zm7,4.77a1.75,1.75,0,0,1-.89-.57c-.05-1.12-.21-3.07-.27-3.86.53,0,1.18-.07,1.93-.15l-.06.31a3.72,3.72,0,0,0,1.9,3,6.53,6.53,0,0,0,1.83.76c-.24.09-.46.15-.61.2A14.84,14.84,0,0,1,31.17,208.2Zm31.29-2.95a2.6,2.6,0,0,0-.08.55,3,3,0,0,0-.11.55,2.05,2.05,0,0,1-.39.8c-.35.42-.82.53-1.64.73a23.75,23.75,0,0,1-3.17.29l-1.07.14c-3.71.49-9.88.81-12.52.95-1.46-.13-5.19-.43-8.08-.64a15.14,15.14,0,0,0,2.2-.6h.21a6.37,6.37,0,0,0,2.31-.61c.66,0,1.91-.21,2.39-.3a6.83,6.83,0,0,0,2.39-1.44c.38-.42,2.13-2.09,2.13-2.09l.56-.44c.72-.18,1.49-.4,2.27-.63.57.55,1.61,1.56,1.9,1.89a2.66,2.66,0,0,0,2.46,1.11,6.33,6.33,0,0,0,3.44-.89c.56-.42,1-1.29,1.09-1.3s2.44-.89,2.75-1.84a7.15,7.15,0,0,0,.42-2l.59-.62C62.45,202.4,62.53,204.3,62.46,205.25ZM52.38,161.67a17.53,17.53,0,0,1,4.42,2.39,29.94,29.94,0,0,1,3.43,3.14A16.21,16.21,0,0,1,63.91,171c2,2.55,4.13,13.68,3.9,15.6-.33,2.72-.66,5-1.84,7.06-.83,1.46-3.56,4-4,4.64.1-1,.65-2.36.69-3.19a6.27,6.27,0,0,0-2.37-5.24c-2.37-2.18-4.08-3.44-7-3.22l-.45,0a5.41,5.41,0,0,0,.88-.7c.73-.68,1.93-2.81,2.87-3.64a34.55,34.55,0,0,0,2.75-2.22c.8-.89-.15-.48-.15-.48a5.1,5.1,0,0,1-1.32.33c-.47,0-.07-.85-.22-1.95-.12-.9.8-2.81.55-3.39-.23,0-.75,1.23-1.09,1.31s-.37-1-.58-2.87-.46-.52-.46-.52l.24,8.59a25.86,25.86,0,0,0-2.38,3.44c-.33.79-3.2,2.34-4.34,2.93a6.56,6.56,0,0,0-.31-2.69,44.77,44.77,0,0,0-2.65-6.76A24.4,24.4,0,0,0,44.18,174l-.07-7.78c0-.39,0-.67,0-1.13a4.77,4.77,0,0,1,.42-2,12.63,12.63,0,0,1,1.21-2c.23-.14.78-.46,1.63-.87C48.53,160.58,51.58,161.39,52.38,161.67Zm-3.13-2a2.83,2.83,0,0,1-1.48,0,2.55,2.55,0,0,0,.12-1,16.55,16.55,0,0,0,.19-1.9,6,6,0,0,0,2-1.06,29,29,0,0,0,4.4-3.18,19,19,0,0,0,2.78-2.87c.22-.28.42-.55.62-.82a23.43,23.43,0,0,1-.84,3.25A10.69,10.69,0,0,1,55.78,155a9.54,9.54,0,0,1-1.4,1.8,9.33,9.33,0,0,1-2.6,1.87A14.51,14.51,0,0,1,49.25,159.65Z" fill="#692f23"/><path d="M30.34,133.93c.85.15,1.15.07,1.26-.12a.49.49,0,0,0-.23-.61c-.12-.09-.73-.57-3.67,0a5.94,5.94,0,0,0-2.6,1.66c-.3.42-.12.45-.12.45a13,13,0,0,1,2.63-1.3A9.31,9.31,0,0,1,30.34,133.93Z" fill="#692f23"/><path d="M45.59,134.25a9.37,9.37,0,0,1,2.74.09,12.78,12.78,0,0,1,2.62,1.3s.19,0-.12-.45a5.75,5.75,0,0,0-2.59-1.66c-2.94-.59-3.55-.1-3.67,0s-.36.4-.23.62S44.75,134.4,45.59,134.25Z" fill="#692f23"/><circle cx="29.83" cy="138.48" r="0.54" fill="#fff"/><circle cx="33.38" cy="159.43" r="0.36" fill="#692f23"/><circle cx="36.26" cy="159.3" r="0.36" fill="#692f23"/><circle cx="38.69" cy="160.34" r="0.36" fill="#692f23"/><circle cx="39" cy="163.04" r="0.41" fill="#692f23"/><circle cx="36.08" cy="165.27" r="0.41" fill="#692f23"/><circle cx="39.37" cy="167.68" r="0.41" fill="#692f23"/><circle cx="42.4" cy="164.73" r="0.41" fill="#692f23"/><circle cx="42.36" cy="169.85" r="0.41" fill="#692f23"/><circle cx="41.34" cy="159.37" r="0.36" fill="#692f23"/><circle cx="43.9" cy="159.66" r="0.36" fill="#692f23"/><path d="M46.77,158.31a.36.36,0,1,1-.36-.36A.36.36,0,0,1,46.77,158.31Z" fill="#692f23"/><path d="M35.73,145.19a5.59,5.59,0,0,0,2.41.39,4.89,4.89,0,0,0,2.36-.4c.08,0,.54-.12,0,.32a3.29,3.29,0,0,1-1.38.62,5,5,0,0,1-2.91-.28C35.67,145.61,35.25,145,35.73,145.19Z" fill="#692f23"/><path d="M28,149.91a.27.27,0,0,1,0-.37,2.65,2.65,0,0,1,1.18-.69,4.18,4.18,0,0,1,1.66.55,20.17,20.17,0,0,0,7.31,1.46,13,13,0,0,0,6.5-1,31.63,31.63,0,0,1,3.74-1.54c.39.05.77.36.63.73s-.3.36-.56.18a1,1,0,0,0-.7-.19,43.54,43.54,0,0,1-3.94,2.13,13.59,13.59,0,0,1-5.68.81,18.3,18.3,0,0,1-5.54-1.17,16.49,16.49,0,0,0-3.27-1.25C28.81,149.48,28.9,150.48,28,149.91Z" fill="#692f23"/><path d="M35.57,153.49s-.24-.16-.1-.17,1.12.16,3.16.23a14.64,14.64,0,0,0,3.46-.33c.08.05-.65,1-3.39,1C36.36,154.26,35.57,153.49,35.57,153.49Z" fill="#692f23"/><path d="M34.06,139.89A5.35,5.35,0,0,0,32,137.67a7.94,7.94,0,0,0-2.79-.28,4.92,4.92,0,0,0-2.93.65,3.21,3.21,0,0,0-1.16,1.59c0,.29.82,1.21,1.76,1.58a9.25,9.25,0,0,0,2.45.41s.76,0,.84,0a12.85,12.85,0,0,0,2.61-.82c.32-.09,1-.17,1.07-.22S34.19,140.37,34.06,139.89Zm-7,.91a2.54,2.54,0,0,1-1.16-.72.82.82,0,0,1-.24-.48c0-.38.77-1,.93-1.12a1.75,1.75,0,0,1,.76-.24,2.2,2.2,0,0,0-.25,1.31,1.87,1.87,0,0,0,1,1.49A3.06,3.06,0,0,1,27.06,140.8Zm4-.62a1.75,1.75,0,0,1-1.57.76,1.93,1.93,0,0,1-1.7-.91,1.91,1.91,0,0,1-.1-1.21,2.15,2.15,0,0,1,.11-.24.64.64,0,0,1,.31-.26.8.8,0,0,1,.34,0c.06,0,.18.1.16.19a1.18,1.18,0,0,0-.21,1,1,1,0,0,0,.84.78,1.06,1.06,0,0,0,1.08-.38,1.32,1.32,0,0,0,.16-.63s-.66-.29-.54-.58a.56.56,0,0,1,.34-.39c.13,0,.19-.05.26,0l.15,0,.1,0C31.28,138.46,31.43,139.46,31,140.18Zm2.45.09a3.31,3.31,0,0,1-.83.12c-.38.07-1.2.34-1.35.37a1.8,1.8,0,0,0,.48-1.22,4.41,4.41,0,0,0-.18-1c0-.1,0-.13,0-.17s.34.15.45.19a5,5,0,0,1,1.2,1C33.44,139.78,33.7,140.16,33.48,140.27Z" fill="#692f23"/><circle cx="30.46" cy="138.72" r="0.59" fill="#fff"/><path d="M43.55,140.47a2.8,2.8,0,0,0,.8.18c.85.11,1.77.57,2.82.75a8.33,8.33,0,0,0,1.34,0,7.86,7.86,0,0,0,2.25-.41c.93-.37,1.69-1.18,1.67-1.47A3.08,3.08,0,0,0,51.27,138a5.78,5.78,0,0,0-3-.65,9.76,9.76,0,0,0-2.85.4,4.73,4.73,0,0,0-2,2.1C43.33,140.25,43.45,140.4,43.55,140.47Zm6.09.33a1.53,1.53,0,0,0,.76-1.32,2.14,2.14,0,0,0-.25-1.3,1.54,1.54,0,0,1,.76.23c.16.1.94.74.93,1.12a1.48,1.48,0,0,1-.24.37,1.88,1.88,0,0,1-1,.69A2,2,0,0,1,49.64,140.8Zm-2.9-2.59.1,0,.15,0a.55.55,0,0,1,.26,0c.14.06.19.23,0,.39a1,1,0,0,0-.24.58,1.26,1.26,0,0,0,.17.63,1,1,0,0,0,1.07.38,1,1,0,0,0,.84-.78,1.18,1.18,0,0,0-.21-1c0-.09.1-.16.16-.19a.8.8,0,0,1,.34.05.65.65,0,0,1,.31.26,2.15,2.15,0,0,1,.11.24,1.64,1.64,0,0,1-1.8,2.12,1.75,1.75,0,0,1-1.57-.76C46.07,139.39,46.23,138.39,46.74,138.21Zm-2.53,1.3a10.48,10.48,0,0,1,1.13-1,1.72,1.72,0,0,1,.6-.23c.06,0,0,.11,0,.21a3.13,3.13,0,0,0-.18,1,1.8,1.8,0,0,0,.48,1.22c-.15,0-.76-.24-1.14-.29a2.15,2.15,0,0,1-.94-.24C43.93,140,44.06,139.71,44.21,139.51Z" fill="#692f23"/><circle cx="49.02" cy="138.59" r="0.59" fill="#fff"/><circle cx="349.28" cy="53.48" r="10.11" transform="translate(-2.94 81.68) rotate(-13.28)" fill="#fd8204"/><text transform="translate(345.32 58.05)" font-size="12.67" fill="#fff" font-family="OpenSans-Bold, Open Sans" font-weight="700">1</text><circle cx="199.01" cy="123.46" r="10.11" transform="translate(-23.04 49.03) rotate(-13.28)" fill="#fd8204"/><text transform="translate(195.05 128.03)" font-size="12.67" fill="#fff" font-family="OpenSans-Bold, Open Sans" font-weight="700">2</text><circle cx="46.79" cy="49.59" r="10.11" transform="translate(-10.14 12.08) rotate(-13.28)" fill="#fd8204"/><text transform="translate(42.83 54.16)" font-size="12.67" fill="#fff" font-family="OpenSans-Bold, Open Sans" font-weight="700">3</text><text transform="translate(303.57 80.41)" font-size="13.61" fill="#692f23" font-family="HelveticaNeueLTW1G-Roman, Helvetica Neue LT W1G">Рекомендация</text><text transform="translate(12.74 76.52)" font-size="13.61" fill="#692f23" font-family="HelveticaNeueLTW1G-Roman, Helvetica Neue LT W1G">500 <tspan x="26.49" y="0" letter-spacing="-0.01em">р</tspan><tspan x="34.4" y="0" letter-spacing="0em">у</tspan><tspan x="41.2" y="0" letter-spacing="-0.02em">б</tspan><tspan x="48.69" y="0">лей</tspan></text><line x1="100.49" y1="166.99" x2="297.54" y2="166.99" fill="none" stroke="#fd8204" stroke-miterlimit="10" stroke-width="3"/><line x1="297.54" y1="183.7" x2="100.49" y2="183.7" fill="none" stroke="#fd8204" stroke-miterlimit="10" stroke-width="3"/><path d="M349.45,181s10.89,1.68,16.49,1,5-1.2,5-1.2l2.48,2.24.08,26.67s-11.85-6.24-33.47-4.32c0,0,1.36-10.33,3.44-13.94S349.45,181,349.45,181Z" fill="#d2a274"/><path d="M386.84,184.84s-12.89-1.2-19.7-.72-7,1.28-7,1.28a46.63,46.63,0,0,0,3,4.88,2.62,2.62,0,0,1,.8,1.58l7.37,14.68,2.16,3.2S389.49,203.58,386.84,184.84Z" fill="#e2ddd3"/><path d="M359.23,185.56c-.18-.16-1.12,1.92-1.12,1.92l.4,2,2.16,2.88,8.07,15.55,4.71,1.84S362.51,188.44,359.23,185.56Z" fill="#c7c0b1"/><path d="M363.38,192.44a12.59,12.59,0,0,1,2.4-1.84c.8-.32,3-.88,3.69-.32s1.6,2.24,2.24,2.56,3.76.89,4.32,1a24,24,0,0,1,3.13,2.4l3.28,1.36s2.32,1.52,2.32,2.4.64,2.32-.24,2.64-2.88-.32-3.52.16-1.2,1.69-3.2,2.25a55,55,0,0,1-5.85,1,8.55,8.55,0,0,1-2.72-.16,21.83,21.83,0,0,0-5.53-1.68c-1.84-.16-6.33-.56-6.57-1.21s.49-2,.49-2Z" fill="#fd8204"/><path d="M358.58,192a4.93,4.93,0,0,0-2.33,2.25c-.56,1.44-.88,3,0,3.68s2.33,2.24,3.37,2.64,4,1.6,4.8,1.52a4.06,4.06,0,0,0,2-.48c.56-.56,2.09-.32,2.81-.88a4.11,4.11,0,0,0,1-1c1.52-.89,0-1.44,0-1.44l.48-.8-6.25-1.76a13.56,13.56,0,0,0,3.37-.72c.48-.4.43-1,.19-1.09S359.22,191.8,358.58,192Z" fill="#f9e5cc"/><path d="M351,145.36s-1.12,1.76.72,4a76.82,76.82,0,0,0,6.89,6.49l2.64,2.64s.8.24,1.28-1,2.88-5,2.88-5.29a26.22,26.22,0,0,1,1.52-3.76c.48-1,1.05-2.24.48-3l-.56-.72a2.62,2.62,0,0,1,1.77,0c1.12.32,1.6,1,1.36,2.8s-3.53,8.49-3.53,8.49-3,5.86-3.44,6.16c-.64.48-1.68,1.2-2.88-1.28s-7.61-7.12-7.61-7.12S348.33,150.4,348,149A2.85,2.85,0,0,1,351,145.36Z" fill="#e2ddd3"/><path d="M393.41,134.07c-.8-3-9.77-11.14-10.81-12.1s-3.76-1.28-3.76-1.28-.56,3-1.53,3.93a3,3,0,0,1-2.4.72,3.59,3.59,0,0,0,.8,3,39.54,39.54,0,0,0,5.53,6.33,8.37,8.37,0,0,1,2.32,2.48,32.59,32.59,0,0,0-3.28,1.68c-.64.48-4.33,4.4-5.21,4.88S373,145,373,145l-.8.72-2,.08a7.65,7.65,0,0,1-.4,3.36c-.64,1.92-5.29,10.41-5.29,10.41s-1.6,3.36-2.16,3.44-4.16-3.84-4.16-3.84-6.65-6.33-7.05-6.57-3.93-4-3.77-4.8c0,0-3.44,2.16-4.8,3.2s-4,6.41-4.08,6.65-3.29,8.49-3.85,10.09a66.64,66.64,0,0,0-2.08,10.81,7.45,7.45,0,0,0,2.16,6.33c1.52,1.76,8.17,6,8.17,6l3.92,2.08s2.81,2.33,3.61,2.25a3.11,3.11,0,0,0,1.2-.32,16.63,16.63,0,0,0,3,1.84c1.2.48,1.44-1.68,1.44-1.68s.8-2.89,1.69-3-1.13-1.36-1.13-1.36l-1.92-1.28a1.91,1.91,0,0,0-.72-2.16,70.14,70.14,0,0,1-5.36-4.89.77.77,0,0,1-.13-.77l-.51.29-.24-.48-4.09-3s.16-1.44.16-1.68,1.52-4.41,1.52-4.41l1.2,3.53,2.09,4.32.88.8c.8.08,7.12,1.6,12,1.2s7.37-.8,8.57-1.2l.88-.16a12.84,12.84,0,0,0,.88-2.8,18.52,18.52,0,0,1,1.52-4.48c.48-.89,2.56-3.77,2.64-5.69s.32-4.81.24-5.05a31.18,31.18,0,0,1,2.49-5.6c.64-.88,7.76-9.21,7.76-9.21s5.13-5.77,6.09-8.09S394.21,137.11,393.41,134.07Z" fill="#fff"/><path d="M356.06,190.4a2.18,2.18,0,0,0-2.88.21c-1.28,1.39-1.92,3.1-1.18,4.06a6.47,6.47,0,0,0,2.57,2c.85.33,1.17-.21,1.17-.21s.81-3.43,2-4.44A2.74,2.74,0,0,0,356.06,190.4Z" fill="#e2ddd3"/><path d="M375.38,119.54a4.55,4.55,0,0,1-.36,2.14,4.19,4.19,0,0,1-1.58,1.35c-.24,0-.71.26-.6.49a16.17,16.17,0,0,0,1.28,1.31c.05.06.69.61.94.61a2,2,0,0,0,1.11-.21c.62-.27,1-.27,1.38-.71a4.13,4.13,0,0,0,.69-1c.13-.34.34-1.28.34-1.28a5.06,5.06,0,0,0-.27-1.34,17.92,17.92,0,0,0-1.77-1.21C376.35,119.59,375.54,119.12,375.38,119.54Z" fill="#e2ddd3"/><path d="M374.89,119.27c-.14-.19-2-1.31-2.36-1.94a20.93,20.93,0,0,0-1.61-2.12c-.05-.08-3.09-2.17-3.64-2.42a2.51,2.51,0,0,0-1.41-.3,1.81,1.81,0,0,0-.43.44s-1.44-.66-1.8-.4a.73.73,0,0,0-.19.76s-1.12-.83-1.5-.34a.94.94,0,0,0-.05,1.16c.13.13,0,.41-.29.71s-.36.73,0,1,4.56,2.86,4.56,3.18-.09.63-.23.7-.91.24-1.15.37-.77.31-.79.63.32.91.68.89a4.3,4.3,0,0,0,1.37-.28,8.82,8.82,0,0,1,1.34-.27,20.82,20.82,0,0,1,2.93.1,5.17,5.17,0,0,1,1.84.82l1.12,1c.06.07.47.24.66,0S376,120.64,374.89,119.27Z" fill="#f9e5cc"/><path d="M358.6,118.48c-.05,0-1.7,2.63-2.75,3.13a30.31,30.31,0,0,1-3,1.13,15,15,0,0,1-1.74,1.23c-.42.16-1.69.68-2.33.89a9.13,9.13,0,0,0-1.25.44c-.08.06-1.76,2.92-1.76,2.92s0,1.62,0,1.81.26.94.26.94-1.07-.1-1.1.1a4.75,4.75,0,0,0,.27,1.92,4.87,4.87,0,0,0,1.31,1.68,2.43,2.43,0,0,0,1.12.28,14.11,14.11,0,0,1,1.4,1.87c.31.42,3.74,4,3.77,4.09s.32,1.46.32,1.51.26,2.26.21,2.28a17.34,17.34,0,0,1-2.16,1.3,1.09,1.09,0,0,0-.59,1.44,5.42,5.42,0,0,0,1.36,2.48c.84.72,4.32,4.09,4.32,4.09l3.94,3.49s1.23,1.39,1.41,1.29a16.22,16.22,0,0,0,1.42-2.21c.15-.31,2.05-3.79,2.1-3.9s1.59-3.2,1.75-3.67,1.26-3.23.84-3.91-1.57-.32-1.67-.39-1.24-.61-1.32-.66.55-3.23.55-3.32,1.15-1.37,1.73-2.21a36.46,36.46,0,0,0,2.23-4.11c.18-.51.4-1.11.4-1.11a1,1,0,0,0,1-.34,5.11,5.11,0,0,0,1.11-2.62,2.23,2.23,0,0,0-.68-1.45,2,2,0,0,1-.5-.07c-.05,0,.16-2.52-.19-3a27.59,27.59,0,0,0-3.38-2.37c-.06-.07-2.52-.8-3.72-1.39a38.5,38.5,0,0,1-3.78-2.59A4.42,4.42,0,0,1,358.6,118.48Z" fill="#f9e5cc"/><path d="M369.29,134.93a1.14,1.14,0,0,0,.77.52c.36,0,.76-.11.78-.45s.19-.83,0-1.1a1.22,1.22,0,0,0-.56-.57c-.2-.05-.86.41-.86.41s-.47.95-.23,1.19S369.29,134.93,369.29,134.93Z" fill="#fd8309"/><path d="M346.23,134.62a1.2,1.2,0,0,0-.21,1.22,1.58,1.58,0,0,0,1.1.92c.28,0,1-.52,1-.84s-.33-.58-.52-.78S346.69,134.32,346.23,134.62Z" fill="#fd8309"/><path d="M345.89,134c-.08-.07-1.34-1.93-1-2.6a1.16,1.16,0,0,1,1.08-.65,11.8,11.8,0,0,1,.06-2.67,11,11,0,0,1,2.32-3.15c.48-.19,1-.23,1.35-.37a21,21,0,0,0,2.83-1.62,2.45,2.45,0,0,1,1.09-.47,4.87,4.87,0,0,0,1.08-.42,5.61,5.61,0,0,0,3.72-3.31c0-.07.29-.18.29-.23a14.86,14.86,0,0,0,2.65,2.54,24.19,24.19,0,0,0,3.85,1.89c1.26.37,4.36,1.75,4.73,2.36a12,12,0,0,1,.55,3.17c0,.14.26.78.62.86s.59.29.53,1a7.57,7.57,0,0,1-.84,2.49c-.23.21-.45.55-.24.81a1.39,1.39,0,0,1,.35,1.1c-.1.37,0,.51-.34.63a1,1,0,0,1-.89-.1c-.14-.16-.38-.5-.38-.5s-1.2,2.36-1.51,2.83-1.37,1.68-1.52,1.89-.85,1.16-.85,1.16a3.65,3.65,0,0,0-.41,1c0,.32-.27,1.33-.32,1.52a1.45,1.45,0,0,0,.45,1.2,4.45,4.45,0,0,0,1,.6,3,3,0,0,1,1.36-.26c.91,0,1.42.06,1.67.34a9.19,9.19,0,0,0,1.14.89,1.61,1.61,0,0,0,.89.12c.73,0,1.22,0,1.6-.84a24.88,24.88,0,0,0,1.2-5,44.47,44.47,0,0,0,.31-6.76c-.23-1.14-.34-5.74-.55-6.3s-.81-3.4-.83-3.49-.18-1.15-.39-1.26a15.29,15.29,0,0,0-3.1-1.23c-.48,0-3.56.1-3.91.16s-1.62.06-1.5-.26a1.1,1.1,0,0,1,.77-.84c.55-.18,1.84-.78,1.29-1.33a25.62,25.62,0,0,0-2.87-1.72c0-.09-2-1.18-1.86-1.83a.85.85,0,0,1,.82-.68c.07,0-.87-1-.32-1.49s1.31.08,1.31.08a.47.47,0,0,1,.48-.53,6.71,6.71,0,0,1,1.75.29s.18-.32,0-.52a15.67,15.67,0,0,0-4.35-2.29,4.78,4.78,0,0,0-2.65.29,7.21,7.21,0,0,0-2.82-.74,14.71,14.71,0,0,0-5.43,1.56,15,15,0,0,0-3.36,2.51,20.66,20.66,0,0,0-3,3.68,45,45,0,0,0-2.19,5.87c-.29,1.62-.79,5.42-.54,6.31a9.73,9.73,0,0,1,.14,2.78c0,.82-.05,4.14.05,5.28a27.83,27.83,0,0,0,1.49,6c.61,1.32,1.31,3.23,1.82,3.68s1.1,1.49,1.38,1.42a2,2,0,0,0,1-.51c.21-.26,1-.88,1.28-1.15s.86-1.41,1.91-1.63,1.71-.28,2-.33a1.36,1.36,0,0,0,.82-.38,1.5,1.5,0,0,0,.42-1.05c0-.25-1.09-3.3-1.11-3.35s-3-3-3.06-3.09-1.05-1.24-1.05-1.24a.86.86,0,0,1-.95.56c-.68-.14-1.46-.5-1.39-1a3,3,0,0,1,.4-1.13C346.2,134.48,345.89,134,345.89,134Z" fill="#efb000"/><path d="M341.79,131.05a57.54,57.54,0,0,0,.82,7.21c.59,2.6,2.91,7.56,3.89,8.57s-.58,1.74-.58,1.74a5.48,5.48,0,0,1-1.07-.75,69.54,69.54,0,0,1-3.18-7.31c-.05-.64-.72-6.09-.53-7.29A8.9,8.9,0,0,1,341.79,131.05Z" fill="#f6c966"/><path d="M341.14,128.15a17.46,17.46,0,0,1,2.24-6.3,20.47,20.47,0,0,1,5.23-5.56,16.79,16.79,0,0,0-1.89,3.26c-.38,1.17-.16,1.47.08,1.39s2-2.62,2.61-3.29a11.85,11.85,0,0,1,4.12-3.47c2.32-1.06,3.07-1,3.09-.74s.16.4-.48.88a24,24,0,0,0-4.27,3.28c-2.3,2.22-4.35,6.11-5,7.1a26.5,26.5,0,0,0-2.62,4.11,12.31,12.31,0,0,0-.59,5.58s.7-3,.72-3.15a11.64,11.64,0,0,1,.88-1.81,12.76,12.76,0,0,0,.8-1.37l2.17-3.2a3.73,3.73,0,0,1,.53-1.28c.35-.43,1.47-1.87,1.55-2s1.63-2.72,2.16-3.25a20.64,20.64,0,0,1,1.74-1.53c.1,0,.88-.26.88-.26s-.62,1.31-.75,1.73a9.49,9.49,0,0,1-1.15,2.16,19.82,19.82,0,0,0-1.33,2.35,2.63,2.63,0,0,1-.64.94c-.14.08,2.13-1.47,2.4-1.79s.64-.93.83-1.12,1.06-1.74,1.06-1.74.81-1.87,1.13-2.48.64-1,.9-1.52a11.37,11.37,0,0,0,.16-3.68.67.67,0,0,0-.8-.41,24,24,0,0,0-5.92,1.37c-3,1.14-4.68,1.94-5.26,2.64a13.37,13.37,0,0,0-2.27,3,42.84,42.84,0,0,0-1.87,5.69,14,14,0,0,0-.53,3.17C341.06,127.64,341.14,128.15,341.14,128.15Z" fill="#f6c966"/><path d="M358.41,110.5a2.46,2.46,0,0,0-.08,1.39c.16.88.91,2.35.69,3.34a8.12,8.12,0,0,0-.16,3.55c.32.85,1.69,1.65,2.41,2.21a28.48,28.48,0,0,0,5.07,2.24,10.24,10.24,0,0,1,4,2.55c.61.92,1.72,3.18,1.6,2.47a4.41,4.41,0,0,0-.19-2.4,6.6,6.6,0,0,0-3.95-3.23c-1.94-.69-3.07-2.27-4.64-2.56s-2.24-.51-2.67-1.47,0-3.26-.21-4.19-1.23-2.78-1.13-3.42.25-.88.67-.91S359.16,109.57,358.41,110.5Z" fill="#f6c966"/><path d="M373.15,125.85s.21,3.6.1,4.83-.18,6.62-.82,8.7-.89,2.91-.89,2.91a24.35,24.35,0,0,1-1.06,2.83c-.35.56-.54.68-.18.76s1.11.21,1.3.21.61-.06.75-.3a6.15,6.15,0,0,0,.56-1.09,19.66,19.66,0,0,0,1.08-4.58c.12-1.86.33-5.54.36-6.42a43.27,43.27,0,0,0-.43-6.19C373.63,126.44,373.52,125.18,373.15,125.85Z" fill="#f6c966"/><path d="M341.4,124.23a17,17,0,0,0-8.55-1.89c-4.73.29-8.43,2.53-11,4s-3.85,3.84-5.31,6a23.68,23.68,0,0,0-3.13,9.43,29.73,29.73,0,0,0,1.46,8.43,19.65,19.65,0,0,0,4,6.55,35,35,0,0,0,7.83,5.24,55.74,55.74,0,0,0,7,1.28,15.61,15.61,0,0,0,2.24-.15c0-.1,1.6-2.95,1.5-2.95s2.74-6.09,3.13-6.69,2.38-3.13,3.27-3.56,2.39-1,2.39-1a10.76,10.76,0,0,1-1.76-1.54,35,35,0,0,1-2.8-7.36,34.59,34.59,0,0,1-.71-4.88c.11-.67.43-4.87.46-5a10.78,10.78,0,0,1-.57-1.67A31.37,31.37,0,0,1,341.4,124.23Z" fill="#e7c3a0"/><path d="M340.93,126.77a17,17,0,0,0-14.88.39,21.15,21.15,0,0,0-6.87,5.81,20.07,20.07,0,0,0-2.88,8.72,18,18,0,0,0,1.28,7.44,16.2,16.2,0,0,0,4.62,6.65,19.93,19.93,0,0,0,7.12,4.2c1.21.29,6.3.46,6.3.46l1.89-.25s2.1-4.69,2.81-6.05a12.89,12.89,0,0,1,3.49-4.09c1.07-.6,2.35-1.21,2.35-1.21a5.35,5.35,0,0,1-1.82-1.6,72.42,72.42,0,0,1-3-9,42.39,42.39,0,0,1,0-7.36,2.08,2.08,0,0,0-.1-1.11A7.9,7.9,0,0,1,340.93,126.77Z" fill="#f4e8db"/><path d="M332.68,142l-5.7-8.9-.78,1.53-.78.28-.15-1.74.39-3,1,0,3,1.25-.11.81s-.85.15-1,.15-.85-.25-.82-.15,6.2,9.33,6.2,9.33,1.14.14,1.28.89a2.12,2.12,0,0,1-.46,1.74c-.25.18-1.39,0-1.39,0l-5.8,3.92a11.66,11.66,0,0,1,1.21.36c.1.07.67.35.67.6s-.46.75-.46.75l-1-.14-3-.47s-.5-.39-.07-1.17.89-2.28,1.06-2.56.72-.43.86-.32a5,5,0,0,1,.07,1.42l1.07-.21,4.77-3.31Z" fill="#fd8204"/><path d="M330.29,130.25c0-.11-.1-1.11-.1-1.11l1.31-.82.89.11.11,5.62-.21.43-1.07-.11-.18-4.3s-.36.18-.46.21A.52.52,0,0,1,330.29,130.25Z" fill="#d2a274"/><path d="M334.14,129.85l.64.18a2,2,0,0,1,.6-.42c.25-.08.71.07.71.21a2.48,2.48,0,0,1-.21.57l-2,2.85-.07.85.57.32h3.1l0-1.17-1.88-.08a8.22,8.22,0,0,1,.64-.81,9.92,9.92,0,0,0,1.35-2.32c0-.39-.39-1.49-1.21-1.6a2.61,2.61,0,0,0-2,.29,1.64,1.64,0,0,0-.5.71Z" fill="#d2a274"/><path d="M323.92,136.65s.36-1.49-.39-1.81-1.64,0-1.74.39a3.34,3.34,0,0,0,0,1.32c.07.1.32.74.78.71S323.92,136.9,323.92,136.65Z" fill="#e7c3a0"/><path d="M323.92,150.68s.36-1.5-.39-1.82-1.64,0-1.74.39a3.34,3.34,0,0,0,0,1.32c.07.11.32.75.78.71S323.92,150.93,323.92,150.68Z" fill="#e7c3a0"/><path d="M327.87,154.41s.36-1.49-.39-1.81-1.64,0-1.74.39a3.34,3.34,0,0,0,0,1.32c.07.1.32.74.78.71S327.87,154.66,327.87,154.41Z" fill="#e7c3a0"/><path d="M323.18,143.58c0-.39.21-3.08-.18-3.55a2.6,2.6,0,0,0-2.75-.39,2.15,2.15,0,0,0-1.1,2c0,.46.25,1.63,1.1,1.6s1.57,0,1.64.21a1.41,1.41,0,0,1-.1.64,1.19,1.19,0,0,1-1.25-.07,1.07,1.07,0,0,0-.89-.14,2.48,2.48,0,0,0-.46.39s.42.89,1.06,1.07a3.39,3.39,0,0,0,1.68.07c.21-.11.71-.21.82-.43a3.5,3.5,0,0,0,.46-1.21A.75.75,0,0,0,323.18,143.58ZM321.64,142a1.64,1.64,0,0,1-.57.22c-.28,0-.42-.4-.49-.57a3.4,3.4,0,0,1,.17-1s1-.14,1.14.11S321.64,142,321.64,142Z" fill="#d2a274"/><path d="M332,153.66c0,.39-.21,3.09.19,3.55a2.56,2.56,0,0,0,2.74.39,2.14,2.14,0,0,0,1.1-2c0-.46-.25-1.64-1.1-1.6s-1.5.14-1.57,0a2.8,2.8,0,0,1,0-.82,1.19,1.19,0,0,1,1.24.07,1.12,1.12,0,0,0,.89.15,2.9,2.9,0,0,0,.46-.4s-.42-.89-1.06-1.06a3.39,3.39,0,0,0-1.68-.07c-.21.1-.71.21-.82.42a3.58,3.58,0,0,0-.46,1.21A.75.75,0,0,0,332,153.66Zm1.54,1.59a1.52,1.52,0,0,1,.57-.21c.28,0,.42.39.5.57a3.61,3.61,0,0,1-.18,1s-.87.11-1-.14S333.57,155.25,333.57,155.25Z" fill="#d2a274"/><path d="M339.7,154s-.14-.69.24-1a3,3,0,0,1,1.07-.48l-.4.77-.65,1.1Z" fill="#e7c3a0"/><path d="M351.1,126.21a11.73,11.73,0,0,1,2.91-1.12,5.19,5.19,0,0,1,1.94.12c.38.12.52-.45-.14-.64a5,5,0,0,0-2.38,0,6.19,6.19,0,0,0-2.33,1.4C350.54,126.54,351.1,126.21,351.1,126.21Z" fill="#692f23"/><path d="M364.48,124.34a5.46,5.46,0,0,0-1.94-.07c-.64.17-.39.64.12.59a8.87,8.87,0,0,1,3.15.6,7.1,7.1,0,0,1,.95.37s.5,0-.15-.46A9.33,9.33,0,0,0,364.48,124.34Z" fill="#692f23"/><path d="M350.28,146.89a5.34,5.34,0,0,0-1.57,2l-.31-.24a3.85,3.85,0,0,1,2-2.06Z" fill="#692f23"/><path d="M350.94,148.65a4.84,4.84,0,0,0-1,1c-.43.56-.3.91-.3.91h.33a2.7,2.7,0,0,1,1.14-1.55C351.9,148.57,350.94,148.65,350.94,148.65Z" fill="#692f23"/><path d="M352.24,150.28a6.7,6.7,0,0,0-1,2.08c-.06.69.29.4.29.4a11.84,11.84,0,0,1,1-2.24C352.81,150.24,352.24,150.28,352.24,150.28Z" fill="#692f23"/><path d="M353.63,151.91a6.06,6.06,0,0,1-.29,1.2,7.1,7.1,0,0,1-.46.88l.38.26a8.74,8.74,0,0,0,.74-2C354,151.66,353.63,151.91,353.63,151.91Z" fill="#692f23"/><polygon points="355.39 153.21 354.62 155.53 355.01 155.75 355.69 153.21 355.39 153.21" fill="#692f23"/><polygon points="356.92 154.65 356.12 156.9 356.33 156.9 357.21 154.87 356.92 154.65" fill="#692f23"/><path d="M358.44,156.1a8.09,8.09,0,0,1-.94,2.13l.32.15a7.52,7.52,0,0,0,1-2C358.77,155.94,358.44,156.1,358.44,156.1Z" fill="#692f23"/><path d="M359.81,157.56s-.87,1.89-.71,2.14a1.87,1.87,0,0,0,.34.37l.71-2.51Z" fill="#692f23"/><polygon points="361.37 158.95 360.97 161.7 361.17 161.91 361.51 159.09 361.37 158.95" fill="#692f23"/><polygon points="361.99 158.76 363.72 160.87 363.96 160.39 362.12 158.34 361.99 158.76" fill="#692f23"/><polygon points="363.19 156.79 364.98 158.84 365.08 158.5 363.24 156.36 363.19 156.79" fill="#692f23"/><path d="M366.13,156.6c-.14-.08-2.06-1.47-2.06-1.47l.19-.34,2,1.49Z" fill="#692f23"/><polygon points="365.08 153.08 367.17 154.41 366.98 154.68 364.9 153.4 365.08 153.08" fill="#692f23"/><path d="M365.89,151.66l2.08,1.1.08-.27a15.63,15.63,0,0,0-2.14-1.15C365.59,151.32,365.89,151.66,365.89,151.66Z" fill="#692f23"/><path d="M366.79,149.72l2.17,1.06v-.42a14.31,14.31,0,0,0-2.09-.91C366.39,149.37,366.79,149.72,366.79,149.72Z" fill="#692f23"/><path d="M367.49,148.33a2.29,2.29,0,0,1,.85-.14,3.92,3.92,0,0,1,1.36.7c.3.26-.13,0-.13,0l.32-.4a11.72,11.72,0,0,0-1.68-.62,2.7,2.7,0,0,0-.78.11Z" fill="#692f23"/><path d="M368.1,146.35c0-.08.45,0,.83,0a6.13,6.13,0,0,1,1.28.56l-.16-.56a6.42,6.42,0,0,0-2-.54C367.73,146,368.1,146.35,368.1,146.35Z" fill="#692f23"/><path d="M343.68,149.8a1.26,1.26,0,0,1,.66-1.05,1.77,1.77,0,0,1,1.26-.05Z" fill="#692f23"/><path d="M341.06,152.73a2.26,2.26,0,0,0-1,.48c-.4.38.08,1,.08,1l-.37.46s-.59-.56,0-1.66a1.3,1.3,0,0,1,1.74-.53Z" fill="#692f23"/><path d="M340.93,127.24a16.41,16.41,0,0,0-6.36-1.68c-3.76-.24-6.32.93-9.61,2.56s-5.12,4.67-6.22,6.59a16.77,16.77,0,0,0-2.11,7.58,19.24,19.24,0,0,0,2.11,8.68,17.64,17.64,0,0,0,6.25,6.67,16.36,16.36,0,0,0,7.18,2.46,15.86,15.86,0,0,0,5.29-.29l-.33.93a26.37,26.37,0,0,1-6.4-.11c-2.88-.5-7.88-3.12-9.85-5.44a20,20,0,0,1-4.54-8.65,17.57,17.57,0,0,1,.83-10.6,17.88,17.88,0,0,1,7-8.09,19.11,19.11,0,0,1,9-2.93c3.23-.06,6.54.72,7.82,1.52Z" fill="#692f23"/><path d="M341.22,124.49a22.6,22.6,0,0,0-6.25-1.63c-2.91-.19-4.67,0-9.5,1.92a17.56,17.56,0,0,0-7.4,5.74,38.52,38.52,0,0,0-3.71,7.72c-1,3.25-.32,7.79.38,10.06a21.79,21.79,0,0,0,5.23,8.92,22.21,22.21,0,0,0,7.29,4.56,23.46,23.46,0,0,0,6.86,1.2,15.44,15.44,0,0,0,2.11-.16l-.27.83a22.07,22.07,0,0,1-5.53-.32,22.83,22.83,0,0,1-9.74-4.56,20,20,0,0,1-6.83-10.36,19.55,19.55,0,0,1-.35-9.37,20.26,20.26,0,0,1,4.3-9.35,20,20,0,0,1,7.85-5.84,19.35,19.35,0,0,1,9.07-1.76,15,15,0,0,1,6.68,1.68Z" fill="#692f23"/><circle cx="334.04" cy="142.99" r="1.31" fill="none" stroke="#692f23" stroke-miterlimit="10"/><path d="M333.13,140.11l-4.46-7s-.5-.56.27-.48,1.07-.18,1.15-.48.1-.69-.86-1.06a25.19,25.19,0,0,0-3.41-1.21c-.35,0-.46.24-.54.83s-.34,3.63-.34,3.63,0,.8.53.91a1,1,0,0,0,1.09-.53c.11-.3.16-.83.32-.88s.32,0,.51.4,5.31,8.14,5.31,8.14l.3-.38L326.43,132l-.35,2.29s-.29.83-.58,0l.24-3.47a.47.47,0,0,1,.13-.32c.13-.1.45,0,.45,0l3,1s.29.24.18.45-.48.19-.48.19l-2-.61,6.65,10,.56-.08Z" fill="#692f23"/><path d="M332.54,143.07l-5,3.23s-.58.27-.48-.46-.13-.9-.48-1-.61.16-.85.54a26.27,26.27,0,0,0-1.34,3.28c-.08.4-.16.88.57.94s3.63.42,3.89.45a.77.77,0,0,0,.72-.67c.08-.43-.24-.85-.82-1.07s-.81-.32-.14-.74,5-3.1,5-3.1l-.53-.27-6.62,4.27s2,.35,2.35.38.32.24.29.37-.21.4-.72.35-3.12-.4-3.12-.4-.51,0-.27-.67,1-2.83,1-2.83.59-.67.64,0a7.17,7.17,0,0,1-.56,2.16l6.65-4.24Z" fill="#692f23"/><text></text><path d="M332.73,128.6c0-.28-.35-.37-.35-.37h-.77a1.31,1.31,0,0,0-.61.22l-.86.54h0a.88.88,0,0,0-.22.28s0,.59,0,1a.41.41,0,0,0,.49.37l.48-.26s-.07,3.35,0,3.77.37.44.37.44h1.11c.29,0,.33-.32.33-.32S332.76,128.88,332.73,128.6Zm-1.33,5.57v-4a.31.31,0,0,0-.4-.3,3.62,3.62,0,0,0-.57.33v-.8l.42-.27h0l.24-.13.43-.28h.74l0,5.49Z" fill="#692f23"/><path d="M337.72,133.23a.42.42,0,0,0-.34-.27c-.26,0-1.49,0-1.49,0a9.14,9.14,0,0,0,1.7-2.4,1.77,1.77,0,0,0-.68-2.17,2.84,2.84,0,0,0-2.44,0,5.47,5.47,0,0,0-.78.72.43.43,0,0,0,0,.55c.24.25.62.56.62.56l.16.12a.59.59,0,0,0,.6-.32.81.81,0,0,1,.51-.27.35.35,0,0,1,.29.52c-.13.27-2.11,2.69-2.2,2.83a.83.83,0,0,0-.18.53c0,.22.06.73.06.73s.05.2.42.27,3.42,0,3.42,0,.26,0,.32-.4A4.41,4.41,0,0,0,337.72,133.23Zm-3.72,1,0-.79s2.23-2.72,2.34-3a.83.83,0,0,0-.31-1c-.45-.32-1,.07-1.08.13a.08.08,0,0,0,0,.05l-.3.23a4.79,4.79,0,0,1-.52-.44,1.83,1.83,0,0,1,1.2-.77,1.74,1.74,0,0,1,1.8.68,1.4,1.4,0,0,1-.06,1.46c-.14.2-1.62,2.08-1.62,2.08s-.38.46.12.62l1.74.06v.67Z" fill="#692f23"/><path d="M323.43,140.67a1.8,1.8,0,0,0-1.09-1.3,2,2,0,0,0-.7-.19h-.52a2.2,2.2,0,0,0-1.51.63,2.33,2.33,0,0,0-.6,1.56,2.28,2.28,0,0,0,.57,1.66,2,2,0,0,0,1.54.54,4.78,4.78,0,0,0,.51,0s.09.43-.26.52a.64.64,0,0,1-.81-.37.46.46,0,0,0-.52-.12,7.29,7.29,0,0,0-.82.38.43.43,0,0,0-.12.51,2.06,2.06,0,0,0,1.3,1.19,3.24,3.24,0,0,0,1.76-.07,1.75,1.75,0,0,0,1.12-1A34.19,34.19,0,0,0,323.43,140.67Zm-1.32,4.43a2.39,2.39,0,0,1-2.05-.1,1.86,1.86,0,0,1-.52-.64l.68-.33a1.33,1.33,0,0,0,1,.56.9.9,0,0,0,.86-.68c0-.12,0-.66,0-.66s0-.06-.44-.06a2.68,2.68,0,0,1-1.29-.17,1.45,1.45,0,0,1-.85-1.3,1.88,1.88,0,0,1,.35-1.47,2.32,2.32,0,0,1,.89-.54,2.78,2.78,0,0,1,.59-.06s1,0,1.35.56a1.83,1.83,0,0,1,.28.91v2.75A1.39,1.39,0,0,1,322.11,145.1Z" fill="#692f23"/><path d="M333.73,156.88a1.12,1.12,0,0,0,.52,0s.54-.11.62-.48a3.62,3.62,0,0,0,0-1,.61.61,0,0,0-.55-.53.94.94,0,0,0-1,.38,3.54,3.54,0,0,0,0,1.17A.63.63,0,0,0,333.73,156.88Zm-.05-1.29c0-.33.42-.31.42-.31a.39.39,0,0,1,.31.26v.67s0,.26-.35.27a.31.31,0,0,1-.35-.21Z" fill="#692f23"/><path d="M331.84,156.62a1.63,1.63,0,0,0,1.09,1.33,2,2,0,0,0,.7.15h.56l.24,0h0a1.93,1.93,0,0,0,1.23-.62,2.1,2.1,0,0,0,.6-1.56,2.24,2.24,0,0,0-.57-1.65,2,2,0,0,0-1.76-.62c-.27,0-.28.08-.28.08a.46.46,0,0,1,.25-.52.7.7,0,0,1,.91.37s.14.19.48.07.76-.33.76-.33a.43.43,0,0,0,.12-.51,2,2,0,0,0-1.3-1.19,3.12,3.12,0,0,0-1.74,0c-.39.15-1.11.49-1.23,1.15C331.82,153.17,331.85,156.61,331.84,156.62Zm1.33-4.44a2.38,2.38,0,0,1,2,.1,1.86,1.86,0,0,1,.52.64l-.68.33a1.33,1.33,0,0,0-1-.56.79.79,0,0,0-.83.57c0,.12,0,.76,0,.76s0,.3.38.23a1.6,1.6,0,0,1,1.3,0,1.42,1.42,0,0,1,.85,1.29,2,2,0,0,1-.34,1.47,2,2,0,0,1-.93.56,2.19,2.19,0,0,1-.55,0,1.59,1.59,0,0,1-1.35-.57,1.28,1.28,0,0,1-.28-.91l0-2.75A1.39,1.39,0,0,1,333.17,152.18Z" fill="#692f23"/><path d="M351.3,130.48c.13.07.1.29.17.33s.22-.11.33-.06.11.3.18.31.26-.12.41-.12.26.27.33.23.19-.19.38-.2a.92.92,0,0,1,.46.16s.14-.26.32-.28a.38.38,0,0,1,.31.17.63.63,0,0,1,.34-.32.93.93,0,0,1,.55.13,1.13,1.13,0,0,1,.41-.46.64.64,0,0,1,.54,0c.1-.18.21-.2.51-.24s.29-.17.18-.26a1.09,1.09,0,0,0-.89-.21,11.18,11.18,0,0,1-2.81.46c-.78-.07-1.32-.32-1.41-.53a1.93,1.93,0,0,1,1.05-1.76,4.11,4.11,0,0,1,2.57-.16c.11,0,.35.08,0-.11a2.76,2.76,0,0,0-1.12-.27,3.16,3.16,0,0,0-2.38.76,2.06,2.06,0,0,0-.58,1.69c.1.07.33.15.19.2s-.44.36-.37.4A2.37,2.37,0,0,0,351.3,130.48Z" fill="#692f23"/><path d="M362.57,129.8a.4.4,0,0,0,.7.24c.22.06.26.34.32.35s.16-.12.33-.08.36.38.44.38.24-.26.4-.25.48.19.56.19.2-.27.34-.25.38.21.44.2.08-.28.19-.35.37,0,.4,0-.07-.4.06-.44a2.46,2.46,0,0,1,.34-.06s.22-.2.22-.31-.14-.08-.37-.41-.07-.6-.3-.89a3.82,3.82,0,0,0-2.57-1.25,3.53,3.53,0,0,0-1.33.2c-.55.23-.49.43-.49.43a1.82,1.82,0,0,0,.34-.17,3.84,3.84,0,0,1,2.57.11c1.34.56,1.4,1.53,1.29,1.68s-.41.5-1.53.54a9.57,9.57,0,0,1-2.21-.38,1,1,0,0,0-.79.51C361.64,130.15,362.25,129.74,362.57,129.8Z" fill="#692f23"/><path d="M358.08,134.77a2.7,2.7,0,0,0,1.39.51,2.34,2.34,0,0,0,1.43-.57c.28-.25.14-.34,0-.25a3.85,3.85,0,0,1-2.5.08C357.63,134.36,358,134.72,358.08,134.77Z" fill="#692f23"/><path d="M359.91,137.54c-.17,0-.63-.15-1-.15a13.18,13.18,0,0,0-2.38,1.27s-.11.11.06.08a9.75,9.75,0,0,0,1.12-.33,5.65,5.65,0,0,1,1.43-.32c.28,0,.73.07.87.07a11,11,0,0,1,1.12-.07c.28,0,1.27.47,1.56.48s.45,0,.26-.21a9.7,9.7,0,0,0-1.9-1A9.86,9.86,0,0,0,359.91,137.54Z" fill="#692f23"/><path d="M360.89,139.37l-1.47-.06a5.38,5.38,0,0,1-.71,0,.29.29,0,0,0-.17.54,2.05,2.05,0,0,0,1.07.06,8.5,8.5,0,0,0,1.13,0c.38-.08.4-.28.42-.43S361.1,139.37,360.89,139.37Z" fill="#692f23"/><path d="M360.68,149.3a.82.82,0,0,0,.79-.46c.1-.21,0-.19,0-.19a2.48,2.48,0,0,1-1.62.09c-.12,0-.24,0-.13.12S359.87,149.3,360.68,149.3Z" fill="#692f23"/><path d="M370.56,205c1-.47,1.41,0,2.08-.18s1.17-1,1.71-1.76a15.5,15.5,0,0,1,2.51-2.54c.61-.43.5-.53.37-.61s-.43-.19-1.33.5a16.83,16.83,0,0,0-2.54,2.65,2.94,2.94,0,0,1-1.74,1.2,6.19,6.19,0,0,0-1.44.56C369.81,205.29,370.56,205,370.56,205Z" fill="#692f23"/><path d="M379.31,201.37a14,14,0,0,1,1.71,0c.43,0,1.1,0,1.18-.25s-.22-.43-.64-.48-1.63-.11-1.63-.11a1.2,1.2,0,0,0-.91.27C378.78,201.1,379,201.45,379.31,201.37Z" fill="#692f23"/><path d="M391.76,130.27c-1.65-1.55-7.23-7.87-10-9.15s-3.49-.48-3.89-.7a18.76,18.76,0,0,1-1.79-1.49,1.35,1.35,0,0,0-1,0,1.56,1.56,0,0,1-1.45-.64,4.74,4.74,0,0,1-1-1.3,5.59,5.59,0,0,0-1.09-1.43,14.12,14.12,0,0,0-5.3-3.31,1,1,0,0,0-.44.06,10.2,10.2,0,0,0-3-1.8,6.65,6.65,0,0,0-3.67-.7c-.46.06-.94.24-1,.47,0,0-.84-.86-3.61-.67a14.12,14.12,0,0,0-7.11,3.28c-.84.82-1.54,1.7-2,2.16l-.26.22h0l-.06,0a6,6,0,0,0-.88,1,17.14,17.14,0,0,0-2.13,4.44,33.91,33.91,0,0,0-1.19,6.75,15.81,15.81,0,0,0,.14,2.94c.09.65-.39,4.71-.36,5.39a6.87,6.87,0,0,0,.36,1.71c.16.51,1.12,5.76,1.88,7.52a17.17,17.17,0,0,0,2.37,3.62,13.06,13.06,0,0,0-2.26,1.58,16.35,16.35,0,0,0-3.38,4.57,6.11,6.11,0,0,0-.37,1c-.09.27-2.39,4.92-3.3,7.37s-2.22,7.07-2.51,8.33-.92,3.77-1.17,5.57a17.14,17.14,0,0,0,0,4.77,14.88,14.88,0,0,0,3.45,4.66c1.55,1.29,5.93,3.65,7.53,4.86-1.28,2.23-3.73,10.4-3.75,14.57,0,2.11.53.24.53.24s.3-1.82.67-3.7A65.94,65.94,0,0,1,343.94,192a23.93,23.93,0,0,0,4.51,2.4c.52.12,1,.91,1.75,1.05a4.76,4.76,0,0,0,1.38,0,4.75,4.75,0,0,0,1.43.89,18.1,18.1,0,0,1,2,.89,1.32,1.32,0,0,1,.72.57,2.05,2.05,0,0,0,.65.68,8.48,8.48,0,0,0,1.67,1.67,4.21,4.21,0,0,0-.7,1,2.51,2.51,0,0,0-.37,2c.21.32,1,.48,1.34.56s5.41,1.31,6.08,1.36l2.64.22a13.91,13.91,0,0,0,1.43,2.57l1.13.39-1.46-2.48s-.16-.38.67.13,1.65.75,2.1,1.12a20.67,20.67,0,0,1,2.05,2.56l.53.2.42-.18a19.3,19.3,0,0,0-1.95-2.95c-.51-.37.74-.19,1.41-.27s1.58-.5,2.19-.53a17.36,17.36,0,0,0,3.39-.78c1.2-.4,1.79-1.62,2.62-1.84s2.8,0,3.37-.48.68-.8.5-1.79a5.28,5.28,0,0,0-2.51-3.33c-1.47-.8-2.32-.83-3-1.23s-2.91-2.26-3.82-2.79-2.46-.25-3.52-.82-2.25-2.61-3.26-3-4.5.92-5.26,1.46c0,0-.05,0-.05,0s-3.26-5-3.29-5-.37-.67.54-.75a65.76,65.76,0,0,1,11.85-1,136.57,136.57,0,0,1,14.36.88c.27.05,1.39.13,0-.54s-9.82-1.14-12.81-1a12.67,12.67,0,0,0-1.79-1.77c-.67-.42-1.44-1.17-1.39-1.73s.69-1,.93-2.94a7.88,7.88,0,0,1,1.23-3.36,18.36,18.36,0,0,0,2.43-4.86,30.21,30.21,0,0,0,.32-5.34,13.6,13.6,0,0,1,2.56-6c2-3,7.21-8.75,7.69-9.29s3.69-4.59,4.7-6.06,2.71-4.32,2.82-5.79A9.74,9.74,0,0,0,391.76,130.27ZM376.09,120c.24-.27.53,0,.83.21a4.28,4.28,0,0,1,1.17,1.38,3,3,0,0,1,.11.41,12.07,12.07,0,0,0-2.3-1.52A1.16,1.16,0,0,1,376.09,120Zm-.69,1.92a3.82,3.82,0,0,0,.41-1.08,1.55,1.55,0,0,1,.76.31c.26.23,1.32.9,1.67,1.27a2.15,2.15,0,0,1-.28,1,2.26,2.26,0,0,1-.16.26s-1.12-.87-1.4-1.18a3.16,3.16,0,0,0-1.09-.51Zm2.4,1.81c-.08.12-.16.23-.25.34Zm-2.64-1.5a2.32,2.32,0,0,1,1.06.57c.43.45,1.32,1.27,1.33,1.27a3.85,3.85,0,0,1-1,.84,4.17,4.17,0,0,1-1.25-.72,9.74,9.74,0,0,1-1.06-1.17A6.36,6.36,0,0,0,375.16,122.2ZM374.6,132c-.13-2.11-.57-5.6-.68-6s-.48-1.41-.43-1.37a6.61,6.61,0,0,1,.79.69,1.93,1.93,0,0,1,.33,1,3.2,3.2,0,0,0,.49,1.86,46.76,46.76,0,0,0,4.17,5.26,45.09,45.09,0,0,1,3.49,3.23c.11.32.08.38-.24.64s-1.73.94-2.21,1.31a26.9,26.9,0,0,0-2.54,2.46,4.37,4.37,0,0,1-1.09.9c-.35.27-3.33,2.74-3.33,2.74a50,50,0,0,0,1.09-5.48A64.61,64.61,0,0,0,374.6,132Zm.23-6.85c-.22-.12-1.46-1.14-1.43-1.42s.38-.39.47-.41h0l.22-.14a6.44,6.44,0,0,0,1.09,1.33,3.81,3.81,0,0,0,.89.62,3.22,3.22,0,0,1-.5.07A1.16,1.16,0,0,1,374.83,125.1Zm-8.06-12.28c.72.07,2.77,1.68,3,1.78a7,7,0,0,1,.91.79c-.27-.08-.27,0-.27,0a1.45,1.45,0,0,1,.54.19,9.35,9.35,0,0,1,1.63,2.33,3.55,3.55,0,0,0,1,1s1.21.53,1.31,1.17a2.66,2.66,0,0,1-.53,2,2.15,2.15,0,0,1-.82.62l0,0a17.19,17.19,0,0,1-1.54-1.12,3.47,3.47,0,0,0-1.77-.69c-.21,0-.73,0-2.13,0a8.27,8.27,0,0,0-2.42.27c-1.52.24-1.43-.2-1.21-.54s1-.3,1.39-.53a13.55,13.55,0,0,1,2.32-1.15,11.91,11.91,0,0,1,2.09,0c.2,0,.37-.6-.28-.61a11.78,11.78,0,0,0-2.28.32,2.55,2.55,0,0,1-1.27.17,46.6,46.6,0,0,1-4.62-3c-.23-.28-.27-.48,0-.69s1.88.39,2.61.79a10.71,10.71,0,0,0,1.6.92c0-.11.06-.34-.39-.65s-3.06-1.58-3.43-1.92-.41-.94.25-1,4.5,2.49,4.5,2.49.34-.09.18-.3-3.08-1.8-3.33-2.16,0-.46.55-.41,3.74,2.3,3.82,2.19,0-.28,0-.28c-.25-.2-2.41-1.67-2.41-1.67C365.8,112.86,366,112.75,366.77,112.82Zm-7.48-2.58c1.14-.25,2.87.52,3.95,1.09a8.32,8.32,0,0,1,2,1.47,3.05,3.05,0,0,0-1.53-.42c-.64.09-.53.51-.53.51-.2,0-1.09-.51-1.57,0s.27,1.58.27,1.58c-1.57.36-.35,1.43-.35,1.43a30.94,30.94,0,0,0,4.07,2.88c.37.27.35.44.1.64s-1.6.53-1.83,1.21,0,1.07.61,1.09a4.64,4.64,0,0,0,1.31-.23,4.9,4.9,0,0,1,1.76-.24,13.13,13.13,0,0,1,3.17,1.87c.43.34,1.05,1.57,1.14,1.5s0-.73-.53-1.62a5.86,5.86,0,0,0-2.09-1.62,3.09,3.09,0,0,1,1.52.16,19.76,19.76,0,0,1,1.79,1.33,1.73,1.73,0,0,0,0,.75c.11.3.36.78.36.78a50.89,50.89,0,0,1,1,9.26,42.38,42.38,0,0,1-.44,8,15.37,15.37,0,0,1-1.27,3.83c-.37.41-.6.14-.9.09s-1.2.1-1-.11a8.24,8.24,0,0,0,1.05-1.76,11.66,11.66,0,0,0,.51-3.45c0-.88,0-4.13,0-4.13-.28-.13-.71,3.27-.67,4.77a8.85,8.85,0,0,1-.93,3.47c-.18.44-.6.73-.84.64l-.87-.38a2,2,0,0,0-.91-.33,4.69,4.69,0,0,0-1.85.17s-.89-.35-.92-.55.57-2.7.64-3a1.1,1.1,0,0,1,.41-.51,18,18,0,0,0,2.7-4.06,4.75,4.75,0,0,0,.57-1.07c.14.5.77.68,1.41.35S371,134,371,134s-.41-.61-.22-.89a3.31,3.31,0,0,0,1.05-1.89c.34-1.41.11-1.89-.27-2.21s-.74,0-.76-.53.05-1.41,0-1.63a5.29,5.29,0,0,0,.91,1.52c.32.2.43.11.43.11a7.91,7.91,0,0,0-1.3-2.83,11.64,11.64,0,0,0-4.72-2.88c-2.06-.79-4.83-2-5.62-2.74-1.44-1.25-1.39-1.75-1.46-2.32a22.23,22.23,0,0,1,.13-2.54,8.08,8.08,0,0,0-.52-3C358.42,111.51,358.15,110.49,359.29,110.24Zm-8.83,37.86c.23.85,2.42,3.27,3.55,4.12s6.7,6.14,6.94,6.52.73.66.94.5,4-7,4.95-9.17a33.14,33.14,0,0,0,1.33-3.45.11.11,0,0,0,0-.06,2.22,2.22,0,0,0-.08-1c-.15-.5.22-.48.22-.48.28,0,.44.25,1.1.62a1.08,1.08,0,0,1,.6,1s0,.07,0,.11a12.38,12.38,0,0,1-.64,2.81,36.26,36.26,0,0,1-1.85,3.7c-.28.53-2.31,4.95-2.79,5.84s-2.21,3.5-2.66,3.31-3.22-3.28-3.48-3.53-2.83-2.67-4.83-4.37-5.18-5.43-5.34-6.23a2,2,0,0,1,.66-1.8,5.93,5.93,0,0,1,.89-.66c.27-.16.45-.18.36.11A5.07,5.07,0,0,0,350.46,148.1Zm-3-13c.23,0,.21.16.32.41a.61.61,0,0,1-.64.78c-.55-.07-.94-.32-.94-.94s.54-.45.53-.39S347.19,135.12,347.42,135.14Zm0-.45a2.57,2.57,0,0,1-1.62-1.26c-.5-.64-.83-1.57-.56-2s.56-.19.56-.19l.18.49s-.37-.05-.23.64c0,0,.59-.26,1.25.59a.94.94,0,0,0-.09-.66,7,7,0,0,1-.46-1.3,5.39,5.39,0,0,1-.18-2.58,7.61,7.61,0,0,1,2-3c.71-.39,1.78-.64,2.36-1,.8-.42,1.29-1,1.78-1.21a19.44,19.44,0,0,0,4-1.74,12.84,12.84,0,0,0,2.43-2.24,12,12,0,0,0,1.59,1.42,17,17,0,0,0,1.85,1.21c.59.27,2.62,1,3.58,1.48s3,1.26,3.6,2a6.89,6.89,0,0,1,.62,3.7c-.14.7-.36,2.21-.37,2.53s-.09.69.19.45.45-1.29.59-1.39.41,0,.55,0,.27-.49-.44-.48l0-.69a.63.63,0,0,1,.57,0c.37.14.41,1.12.1,1.83s-.49,1.44-1,1.69a1.16,1.16,0,0,1-.75.18s-1.05,2.74-1.16,3a18.25,18.25,0,0,1-3.31,4.41,10.26,10.26,0,0,1-5,2.56,7.18,7.18,0,0,1-3.43-.82,12.84,12.84,0,0,1-4.18-2.24,16.06,16.06,0,0,1-3.8-4.18C348.4,135.55,348.29,134.93,347.38,134.69Zm-1.86-4.11a.77.77,0,0,0-.47,0,6.33,6.33,0,0,1,.39-.72c.08,0,.06.62.06.62Zm24.7,4.58c-.54.13-.68-.22-.68-.22s-.21-.71.13-1.05a.45.45,0,0,1,.77.14.06.06,0,0,0,0,.05C370.61,134.32,370.75,135,370.22,135.16ZM353.1,145.29c.08-.13.17-.21.44-.06a10.73,10.73,0,0,1,1.32,1.71l0-.61a11,11,0,0,1-1.34-3.86c-.12-.46-.07-.82.22-.78s1.49.78,3.48,1.49a6.77,6.77,0,0,0,4.52.15c1-.32,2.62-1.75,2.87-1.73s.11.87-.09,1.41-.57,3.18-.57,3.18c.16-.21.73-1.46.73-1.46a20.47,20.47,0,0,1,2.63.78c.29.22.08,1.29.08,1.29-.29,1-1.21,3-1.46,3.7a30.14,30.14,0,0,1-2,4.06c-.68,1-2.31,3.84-2.31,3.84s-.48-.43-1.21-1-3.46-2.94-6.5-6-3.24-4-3.22-4.46.16-.48.62-.7a5.76,5.76,0,0,0,1.71-.91Zm-5.72-32a20.22,20.22,0,0,1,4.51-2.46,11.77,11.77,0,0,1,5.25-.62c.74.27.59.35.21.53l-.27,0a20.31,20.31,0,0,0-4.14.69,51.76,51.76,0,0,0-5.29,2.1l-.18.09h0S346.87,114,347.38,113.27Zm-3.15,33c-.33-.8-1.19-2.77-1.58-4.05a37.63,37.63,0,0,1-1.23-5.7,26.36,26.36,0,0,1,.5-6c.52-2.56,3.47-9.59,3.74-10.16s-.14,0-.14,0a40.88,40.88,0,0,0-3.26,7.56c-.2,1-.61,1.73-.84,1.66s-.23-.43-.26-1a19.08,19.08,0,0,1,.28-3.54c.21-1,1.16-3.88,1.55-5a9.18,9.18,0,0,1,2.67-4.52,26.44,26.44,0,0,1,5.55-3,43.64,43.64,0,0,1,6.16-1.37c.62.11.77.42.77.42a27,27,0,0,1,.51,4.94,9.48,9.48,0,0,1-.55,1.8,5.72,5.72,0,0,1-1.55,2.4,5.18,5.18,0,0,1-2.24,1.35s-.8.11.09-.66a3.86,3.86,0,0,0,1.14-2.24c0-.25-.27.2-.7.82a20.9,20.9,0,0,1-2.6,3,10.15,10.15,0,0,1-2.76,1.53c-.67.18-1.29.52-.87-.16s1.18-1.46,1.62-2.13a44.84,44.84,0,0,1,2.51-3.77,9,9,0,0,1,2.24-1.75s-.67-.23-2.17,1-2.35,3.17-4.2,5.57a28.83,28.83,0,0,0-3,5.09,23.74,23.74,0,0,0-1.25,2.26,14.49,14.49,0,0,0-.71,4.77c.18,1,.34.41.39,0a23.1,23.1,0,0,1,.6-3.82,2,2,0,0,0,0,.25,3,3,0,0,0,1.25,2.38,2.1,2.1,0,0,0-.29,1.39,1.42,1.42,0,0,0,1.55,1.33c.77,0,.94-.57,1.17-.32s-.08.52.52,2.14a11.51,11.51,0,0,0,2,3.88c.66.53.35,0,.35,0a8,8,0,0,1-1.53-3.06,7.19,7.19,0,0,1-.25-1.58c.31.5,2.33,2.44,2.83,3s.8,3.47.8,3.47l-.37.23a3,3,0,0,1-.64.38,8.58,8.58,0,0,1-1.44.21,3.17,3.17,0,0,0-1.82.73,11.62,11.62,0,0,0-1.24,1.46,7.66,7.66,0,0,0-.23-1.79,8.28,8.28,0,0,0-.95-2.32,19.86,19.86,0,0,1-1.12-3.29c-.18-.86-.32-.43-.32-.43a8.76,8.76,0,0,0,.84,3.63,30,30,0,0,1,1.3,3.72,1,1,0,0,1-1,1.37C345.37,148.4,344.57,147.05,344.23,146.24Zm11.31,49.53c-.09.77-.24.75-.43.8s-.68,0-1.73-.76a2.19,2.19,0,0,1-1.15-2,8.61,8.61,0,0,0,3.35,1.71C355.56,195.59,355.55,195.68,355.54,195.77Zm.09-.48a11.13,11.13,0,0,1-3.39-1.83v0a2.22,2.22,0,0,1,.34-1.06l3.49,1.79A7.47,7.47,0,0,0,355.63,195.29Zm1.43-2.7h0a6.35,6.35,0,0,0-.62.83c-.08.14-.17.32-.27.52-.63-.32-2.77-1.51-3.4-1.85a4.54,4.54,0,0,0,.52-.69l.35-.21A15,15,0,0,1,357.06,192.59Zm-2.91-1.68a3.93,3.93,0,0,1,.64-.31,1.74,1.74,0,0,1,.93.16,13.94,13.94,0,0,1,2.16,1.07,4,4,0,0,0-.61.54C356.64,192.06,354.79,191.16,354.15,190.91Zm3,7.18s-.89-.63-1-1.14a6.89,6.89,0,0,1,.51-2.28c.82-2,1.73-2.14,2.41-2.23a20,20,0,0,1,3.59.79h0l.29.05s3.58.51,4.17.56.88.16.91.48,0,.59-1.47.78a28.51,28.51,0,0,0-3.37.53c-.37.13.3.32.72.29a3.27,3.27,0,0,1,1.34.16,17.15,17.15,0,0,0,2.56.83c.8.14,2.38.32,2.54.67s.21.67-.46.77a14.3,14.3,0,0,1-3.79-.29c-1.25-.27-2.41-.69-2.67-.72s-.3.19,0,.35a21.69,21.69,0,0,0,3.74,1.06,9.87,9.87,0,0,0,3.28.11s.54.05.16.37-2.1.73-4.85.38c0,0-1.74-.38-2-.38s-.24.19,0,.41a5.61,5.61,0,0,0,2.14.66,19.73,19.73,0,0,0,3.81-.18s.14.26-1.7.53a11,11,0,0,1-3.72,0c-.69-.13-.9.08-.61.27a10.4,10.4,0,0,0,2.54.4s.24.24-.19.32a9.43,9.43,0,0,1-4-.48A12.94,12.94,0,0,1,357.12,198.09Zm6.88-5.54c.13-.21.26-.56.51-.67h0a10.8,10.8,0,0,1,2.68-1.29,2.55,2.55,0,0,1,2,.21c.33.33.43,1.3,1.49,2.06s4.18,1,4.9,1.35,2.84,1.59,2.69,2-2.3.68-2.93.82-.38.48.19.43a9.93,9.93,0,0,1,2.75-.29c.76.2,3.79.44,5.09,2s1.83,2.41,1.39,3-2.4.34-3.31.53-2.07,1.49-3.08,1.88-3.51.19-4.47.53a7.14,7.14,0,0,1-3.46.62c-1.11-.24-3.23-1.39-5.39-1.49a37.88,37.88,0,0,1-7.17-1.35c-.43-.24-.5-.63-.29-1.19a3.34,3.34,0,0,1,.93-1.24l.11.06a19.13,19.13,0,0,0,5.9,1.66c2,.05,2.59-.62,2.78-.83s1.33-.08,2.08-.4a1.76,1.76,0,0,0,1.12-1.12,2.08,2.08,0,0,0,.8-.59c.19-.32-.26-.67-.34-.67s.67-.21.39-.85-4.19-1.74-4.61-1.82-1.2-.13-1.2-.13a11.34,11.34,0,0,0,2.64-.69c.45-.35,1-.8.48-1.34a3.8,3.8,0,0,0-2.32-.8,17,17,0,0,1-2.63-.13h0A1,1,0,0,0,364,192.55Zm-.67-1c.13.59,0,.75-.21.88s-2.09-.21-2.09-.21-2.16-3.07-2.34-3.55a3.33,3.33,0,0,1,.48-2.35c.34-.16.69-.11,1.14.77S363.2,191,363.33,191.59Zm9.56-7.79s-11.08,0-13.8,1.33a.92.92,0,0,0-.67.77,13.73,13.73,0,0,0-.43,2.59c.08.27,2,3.34,2,3.34a6.29,6.29,0,0,0-1-.07h0a11.37,11.37,0,0,0-3-1.82s-.74,0-.9-1-.41-1.41-2-2.91-3.69-2.91-3.95-3.55-.06-.93.82-.8a70.57,70.57,0,0,0,9.19,1A63,63,0,0,0,369,182a5.56,5.56,0,0,0,1.71-.72A18.8,18.8,0,0,0,372.89,183.8Zm20.53-46.45a15.91,15.91,0,0,1-3.21,5.76c-1.84,2.35-4.72,6.06-5.63,7a71.77,71.77,0,0,0-5.77,6.56c-.85,1.42-1.38,2.57-1.38,2.57s-.4.64-.32-.51a31.29,31.29,0,0,0,0-3.87,26.46,26.46,0,0,0-.53,3.82c-.08.8.13,1.38,0,1.92a5.61,5.61,0,0,1-.51,1.47c-.19.24-.64-.11-.88-2.06a6,6,0,0,1,0-2.38s-.56,0-.54,1.9a20,20,0,0,0,.83,5.42,5.48,5.48,0,0,1,.08,3.34,19.08,19.08,0,0,1-1.66,3.6,8.62,8.62,0,0,0-1.46,2.88c-.16.91-.43,3.39-1.5,4.78s-2,1.66-4.38,2a62.94,62.94,0,0,1-9.37.21,46.52,46.52,0,0,1-7.6-1.25c-1.05-.43-2.06-3-2.22-3.5s-1.57-4-1.52-5.68v-.18c.05-.12.25-.69.37-1a37,37,0,0,0,.8-4.3c0-.53.06-3-.34-3.09s-.22,2.19-.35,2.29-1.12-3.47-1.34-3.49-.42,1.28-.16,1.78a11.58,11.58,0,0,1,.86,3.53,40.16,40.16,0,0,1-1,5.92,26.2,26.2,0,0,1-1.29,3.87c-.2.32-.3.55-.51.67l-.2.08a2.3,2.3,0,0,1-.65,0h0a10.86,10.86,0,0,0-2.43-.1,6.59,6.59,0,0,0-2.43,1.21c-.33.24-.64.79-.53.91s.5-.24.85-.43a13.62,13.62,0,0,1,3-1.08,3.74,3.74,0,0,1,2,.05c.18.16.43.28,0,.4a5.44,5.44,0,0,0-2,.36,6,6,0,0,0-2.25,1.5c-.06.19-.06.49.71.14a14.6,14.6,0,0,1,3.32-1.12,4.56,4.56,0,0,1,3.09.78c.18.17,3,2.29,3,2.29l-.09-.74a19.72,19.72,0,0,0-3-2.7,3.57,3.57,0,0,0-1-.37s-.05-.5-.22-.64c0,0,.17-.65.39-1.44.35-1,.78-2.28.91-2.75l.23-.08a.71.71,0,0,1,.16.31,48.09,48.09,0,0,0,2.08,5.64c.62,1,.64,1.33.64,1.6a.61.61,0,0,1-.18.43l.26,1L350.7,185c.54.53,3.31,2.64,3.66,3.71a1,1,0,0,1-.16,1.17s-.21.38-.56,0-.29-.8-.43-.61.16.86-.24,1.47c-.87.84-.82,1.22-1.42,1.79s-.69.37-1.44.4-1.34-.31-1.39-.15.44.46,1.09.58,1.58,0,1.7.81-.55.74-1.42.64-2.15-1.32-2.69-1.73-3.18-2-5.21-3.17a44.89,44.89,0,0,1-6.25-4.45,11.55,11.55,0,0,1-2.95-3.86c-.47-1.25,0-4.54.57-7.35a91.72,91.72,0,0,1,2.77-9.95c.86-2.36,3.46-8.18,3.65-8.63s.73-1.67,1.75-1.58,1.94,1.62,2.24,2.22.5.45.5.45a4.76,4.76,0,0,0-1.3-2.78,2.92,2.92,0,0,0-1.91-.6,10.74,10.74,0,0,1,3.88-3.74c.86-.45,2.55-1.46,2.55-1.46.05,1.32,1.74,3.13,2.22,3.52s6.25,5.73,6.8,6.28,4.56,5.56,5.48,5.4,2.17-2.49,3-3.9,3.24-6.07,4.33-8.44a10.47,10.47,0,0,0,1-4.21h.07c0-.27,0-.54.25-.68a10.44,10.44,0,0,1,2.55.43c.49.1.71.09.48-.18s-.89-.2-.8-.67a.87.87,0,0,1,.62-.59l.07,0a5,5,0,0,0,.78-.47c.32-.24,4.75-4.44,5.37-5a6,6,0,0,1,2.67-1.47c1.47-.4,3.36.64,3.63.8s1.52.78,1.81.56.35-.51-.29-.69a14.15,14.15,0,0,1-2.62-1.1c-.26-.24.11-.24.11-.24s2.14.14,2.48.14a.53.53,0,0,0,.56-.51c0-.27-.05-.29-1.28-.16a5.54,5.54,0,0,1-2.77-.32,31,31,0,0,1-3.26-2.56c-.53-.54-2.62-2.67-3.34-3.55a19.36,19.36,0,0,1-2.19-3.31,2.41,2.41,0,0,1,.15-1.3,1.34,1.34,0,0,0,.71-.28,1.67,1.67,0,0,0,.26,1.26,7.39,7.39,0,0,0,1.37,1.2,1.23,1.23,0,0,0-.43-1.07,1.53,1.53,0,0,1-.67-1.5c.16-.42.7-.29,1.31-1.14s.53-1.55.8-1.77a2.06,2.06,0,0,1,2-.1s.94.26-.23-.43-1.72-.19-1.72-.19-.43-.61.24-.82a3,3,0,0,1,1.95.34,72.35,72.35,0,0,1,7,6c2.16,2.27,3.57,3.66,4.43,5.2A7.27,7.27,0,0,1,393.42,137.35ZM345.3,173.58l-.12,0A.21.21,0,0,1,345.3,173.58Z" fill="#692f23"/><path d="M370.46,134.09v0h-.08S370.58,134.43,370.46,134.09Z" fill="#692f23"/><path d="M349.65,117.82c.31-.17,1.41-1.79,2.16-2.43a13.22,13.22,0,0,1,4.16-1.84c1.21-.26,1.16-.25.89-.35a6.22,6.22,0,0,0-4,.82,7.52,7.52,0,0,0-3.52,3.41C349.19,117.86,349.35,118,349.65,117.82Z" fill="#692f23"/><path d="M369.09,170.62c-.56,0-2.86.85-3.93.85s-4.8-.61-6.7,0a4,4,0,0,0-2.4,1.66c-.21.58.24.21.24.21a13.87,13.87,0,0,1,3.05-1.33,11,11,0,0,1,2.88.05,34.34,34.34,0,0,0,4-.05,8,8,0,0,0,2.3-.64,7.85,7.85,0,0,0,1.31-.59C370,170.59,369.65,170.59,369.09,170.62Z" fill="#692f23"/><path d="M369.12,139.2a4.33,4.33,0,0,1,0,2.27c-.38.88-.81,1.76-.81,1.76s.19.51.59-.12a3.9,3.9,0,0,0,.72-2.26,5.36,5.36,0,0,0-.24-1.65S369.17,138.5,369.12,139.2Z" fill="#692f23"/><path d="M323.16,134.19a1.44,1.44,0,0,0-1.14.28,1.47,1.47,0,0,0-.66,1.47,1.52,1.52,0,0,0,1.52,1.4,1.61,1.61,0,0,0,1.63-1.45A1.53,1.53,0,0,0,323.16,134.19Zm.82,1.65a1.07,1.07,0,0,1-1.08,1,1,1,0,0,1-1-.92,1,1,0,0,1,.43-1,.92.92,0,0,1,.75-.19A1,1,0,0,1,324,135.84Z" fill="#692f23"/><path d="M323.14,148.38a1.59,1.59,0,0,0-1.8,1.75,1.52,1.52,0,0,0,1.52,1.4,1.61,1.61,0,0,0,1.63-1.45A1.53,1.53,0,0,0,323.14,148.38ZM324,150a1.06,1.06,0,0,1-1.07,1,1,1,0,0,1-1-.92,1,1,0,0,1,.44-1,.92.92,0,0,1,.75-.19A1,1,0,0,1,324,150Z" fill="#692f23"/><path d="M327.06,152.12a1.44,1.44,0,0,0-1.14.28,1.47,1.47,0,0,0-.66,1.47,1.51,1.51,0,0,0,1.52,1.4,1.61,1.61,0,0,0,1.63-1.45A1.53,1.53,0,0,0,327.06,152.12Zm.82,1.66a1.08,1.08,0,0,1-1.08,1,1,1,0,0,1-1-.93,1,1,0,0,1,.43-1,.94.94,0,0,1,.75-.18A1,1,0,0,1,327.88,153.78Z" fill="#692f23"/><path d="M321,142.33a1.12,1.12,0,0,0,.52,0s.54-.11.63-.48a4,4,0,0,0,0-1,.61.61,0,0,0-.56-.53.93.93,0,0,0-1,.38,3.28,3.28,0,0,0,0,1.17A.6.6,0,0,0,321,142.33Zm0-1.28c0-.34.42-.32.42-.32a.37.37,0,0,1,.3.26v.68s0,.25-.35.26a.32.32,0,0,1-.35-.21Z" fill="#692f23"/><polygon points="92.92 167.01 99.44 169.53 105.96 172.04 105.94 166.97 105.92 161.89 99.42 164.45 92.92 167.01" fill="#fd8204"/><polygon points="304.12 183.83 297.62 186.38 291.12 188.93 291.11 183.86 291.1 178.78 297.61 181.31 304.12 183.83" fill="#fd8204"/><path d="M73.21,104.28c9.37-14,38.18-39.11,73.16-45.7" fill="none" stroke="#fd8204" stroke-miterlimit="10" stroke-width="3"/><polygon points="157.7 56.18 152.06 59.84 146.41 63.51 145.42 58.72 144.43 53.93 151.06 55.06 157.7 56.18" fill="#fd8204"/><path d="M237.08,57.51c16.69,2.56,51.57,18.12,72.29,47.06" fill="none" stroke="#fd8204" stroke-miterlimit="10" stroke-width="3"/><polygon points="316.33 113.82 310.63 110.25 304.92 106.68 308.85 103.76 312.77 100.84 314.55 107.33 316.33 113.82" fill="#fd8204"/></g></g></svg>
