
<svg xmlns="http://www.w3.org/2000/svg" width="200" height="200" viewBox="0 0 200 200">
  <rect width="200" height="200" fill="none"/>
  <circle cx="113.07" cy="105.92" r="83.68" fill="#f2f2f2"/>
  <path d="M35,133.65a4.36,4.36,0,0,1,3.88-.74,10.17,10.17,0,0,1,3.72,2.91s2.4-.81,3.93-.2,5.89,2.71,5.89,2.71a8.42,8.42,0,0,1,2.1-.88,18.45,18.45,0,0,1,2.64.07l.47-3.79s4.2-4.47,4.4-4.6a41.56,41.56,0,0,0,5.48-4.94C69,122.34,74.87,113.4,76.67,112s5-3.59,6.91-4.13a52.11,52.11,0,0,1,6.84-1.35c.37.07,2.67-1.35,3.32,0s2.1,5.65,4.74,5.89,11.21-.24,13.54-1.15,11.34-4.37,12.05-4.67a21.84,21.84,0,0,1,4-.95,6.73,6.73,0,0,1,4.4,2c2,1.86,7.62,4.91,8.12,5.21s8.67,2.2,10.16,3.72,8.12,9.07,10.16,11.51,12.73,17.33,14.62,20.92,5.55,9.75,4.4,13.95.27,7.35-8.6,11.65S154.12,181.92,153,182s-11.24,5.45-25.32,6-23.87.61-28.84.41-16.72-1.15-20.79-2.64-8.23-3.69-8.19-4.67-.2-11-.2-11-2.51,1.83-4.27,2-6.43.85-10.36.34-7.92-3.25-10.56-3.52-5-.44-6.91-1.49a57,57,0,0,0-7-3.25c-.47,0-5.08-1.31-5.08-1.31l.7-8.15s7,1.7,8.71-.77,2.81-6.91,2.91-9.34A25.69,25.69,0,0,0,36.45,136C35.7,134.43,34.37,134.7,35,133.65Z" fill="#777"/>
  <path d="M93.59,105.48s1.22,5.42,4.06,6.64,10.9.14,14.35-.81,14.76-6.23,14.76-6.23l-6.62,8.46s-5.29,10.22-5.56,10.63-8.19,11.85-8.8,13.14-8.12,13.27-8.12,13.27L94,143.94s-4.6-11.44-4.47-14.62-1.15-15.64.54-19.5S93.32,103.79,93.59,105.48Z" fill="#fff"/>
  <path d="M121,137.8l2.53,2.26a12.94,12.94,0,0,1,2.17-.81c.27,0,4.06,5.15,4.06,5.15.09.27-7.31.54-7.31.54l-6,.18Z" fill="#fff"/>
  <path d="M30.13,133s1,4.92-.27,8.31S27,148,25.71,148.81s-4.11,2.53-3.66,2.44,1.44,1.72,4,2.44,4.47,2,4.87,2.71,1.85,1,2.62-.54a81,81,0,0,0,3.61-8c.72-2.21.45-8.26.18-9.93s-4-3.88-4.24-4S30.81,132.61,30.13,133Z" fill="#fff"/>
  <path d="M89.89,130.58c.3.12,2.35,10.2,2.35,10.2s3.43,8.67,5,8.76,3.48-3.39,3.79-3.88,5-9.89,5.87-10.65,3.7-3.43,3.7-3.43S107,141.86,107,142.13s-3.79,9.66-4.06,13.18-1.35,17.78-1.35,17.78l-1,14.71-5.87.27-2.08-.72-2.35-29.88S87.09,129.45,89.89,130.58Z" fill="#bab7b6"/>
  <path d="M147.49,161.81l1.08,13.27,1.08,5.55,2.57-5.55,1.08-3.52-1.49-1.9,0-2.34-1.26-2.54S147.76,160.12,147.49,161.81Z" fill="#f2f2f2"/>
  <path d="M7.81,122.78s.24-2,1.29-2.67A11.06,11.06,0,0,1,11.47,119s0-.47-1.22-.64-2.81,0-3.11.68-.42,2.93.1,3.49S7.81,122.78,7.81,122.78Z" fill="#f5dcc2"/>
  <path d="M6,127.79s-1.08.47-1.08,1.42a11.91,11.91,0,0,0,.54,2.64,14.65,14.65,0,0,0-.78,1.32c-.44.83-.64,1.44-.2,2.13s1.54,1.51,1.59,2.44-1.12,1.18-.91,2.13,2.69,2.3,3.18,2.91.24,1.15.2,1.59-.07.73.81,1.18a17.9,17.9,0,0,0,5.42,1.32,5.59,5.59,0,0,1,2.64.81,52,52,0,0,0,6.53,1c1,0,3.67-1.85,4.43-2.91s2.27-7.48,2.27-7.48c0-1.39.19-4.37-.44-5.08s-5.47-5.38-5.55-5.42-1.71-1.39-1.79-1.39-2.06,3.27-2.42,3.18a23.57,23.57,0,0,1-3.81-.5C15.9,128.75,7.13,127.38,6,127.79Z" fill="#f5dcc2"/>
  <path d="M83,38.32,87.91,50.5l14.62-2s7,.61,9.61,2a14.16,14.16,0,0,0,8,1.22,23.71,23.71,0,0,0,3.93-1.9,34.08,34.08,0,0,0,3.34,7,50,50,0,0,0,5.6,6c.45.5,4.69,3.11,4.69,3.11s3.81-2.32,6.45-.95,3.3,2.57,2.71,5.64-3.18,5.48-4.83,7-2.32,5.15-5.24,8.71-10,9.43-10,9.43,1.62,5.33.36,7.31a10.83,10.83,0,0,1-5.73,4.33c-2.39.79-8.35,3.72-15.3,4.69s-10.07-1-10.16-1.58-3.16-6-3.16-6l.68-4.78a23.35,23.35,0,0,1-7-2.39c-4.18-2.08-7.24-5-10.25-7.63S68,79.14,67.1,77.36s-2.44-12.05-2.66-14.08.23-10.07.23-10.07l2-.68,12.1-1.76a10.45,10.45,0,0,0,1.67-5.15C80.32,43.15,82.35,37.37,83,38.32Z" fill="#f5dcc2"/>
  <path d="M94.74,120.11a27.25,27.25,0,0,0-1.35,2.84c0,.17,1,6.5,1.08,6.7s-2.74,6.13-2.91,6.43a28.37,28.37,0,0,0,1.56,7.45c.74,1.39,4.27,7.65,4.54,7s2.44-3.66,2.44-3.66,4.43-7.92,4.6-8-1.69-5.42-1.69-5.42L101.92,129l4-4.67-.88-2.57-3.11-4.6-4.74.27S95.49,119.12,94.74,120.11Z" fill="#fd8204"/>
  <path d="M30.08,152.2l.32-1.53-1.76-.77-1.58,1.22s0,.86.14.86S29,153.1,29,153.1Z" fill="#f7a834"/>
  <path d="M71.72,64.95s.52-2.58,1.49-3.25,3.52-.85,5.3-.11,3.88,2.12,4.11,3.11-.1,1.83-.56,2A19.31,19.31,0,0,1,78.2,67c-1.06-.06-4.6-.7-4.6-.7C73.32,66.2,71.52,65.61,71.72,64.95Z" fill="#fff"/>
  <path d="M73.94,62.6a2.9,2.9,0,0,0,0,2.05,2.62,2.62,0,0,0,1.85,2c.72.12,2.62.08,3.25-1s1.08-1.9.54-2.93-2.56-1.3-3.2-1.31A2.94,2.94,0,0,0,73.94,62.6Z" fill="#c1e3ea"/>
  <path d="M98.27,68.92s2.37,3.18,5.08,3.52a18.24,18.24,0,0,0,8.46-1.56c1.12-.74,3.39-3.72,3.18-5.69s-.81-5.45-2.84-7.11-7-2.44-10.36-.54-4.71,5.08-4.6,6.3S97.55,68,98.27,68.92Z" fill="#e1f6ff"/>
  <path d="M64.75,33c.53-.13,3-3.18,3.93-4.6s4.54-7.58,8.4-10.29,8.06-4.6,10.7-4.87S95.9,12.11,96.84,12s5.28-1.56,7.58-.68,3.59,1.24,4.33,1a11.39,11.39,0,0,1,5.37-1c2.46.29,4.31,1.76,5.33,2.12a38,38,0,0,0,7.58,2.3c2.93.38,7.29,2.78,9.39,4.15s7.06,5.28,9.12,6.36,12.66,9.23,14.13,11.83,4.4,6,4.92,9.16,2.26,9.57,2.08,11.19a13.13,13.13,0,0,0,.27,4.38c.29,1.33,2.23,6.75,0,12.1s-1.6,7-4.92,9.89-7.31,7.92-8.35,8.44-11.49,7-14.4,7.76-7.45,3.09-9.07,3.3-2.23-4.56-2.35-5,0-4.24,0-4.38,7.76-6.68,7.76-6.68c2.1-2.14,5-6.86,5.24-8.35s2.41-2.57,3.16-3.52,3.3-4.4,3-6.82-.63-4.33-2.26-4.6a39.7,39.7,0,0,0-6.54.32c-1.67.81-7.13-3.75-7.58-4.11a77.61,77.61,0,0,1-5-7.18c-.11-.45-1.58-4.2-1.58-4.2a9.52,9.52,0,0,1-4.74,2.08c-2.39.11-10.52-2.64-11.51-3s-5.57-.41-7.63-.09-11.58,1.85-11.74,1.85a29.7,29.7,0,0,1-1.9-3.7c-.09-.29-3.52-8.62-3.52-8.62s-1.94,2.93-2.17,3.52-1.2,4.42-.95,5.6.34,2.35-1.44,2.75-5.82,2-8,2-5.42.23-5.42.23a19.08,19.08,0,0,0-.68,6.23c.09,3.32,1.49,12.39,1.72,13.95a37.5,37.5,0,0,0,4.78,10.11C72.65,85,79,92.57,81.14,94.06s11.53,5.37,11.65,5.37,1.06.84.77,1.58.23,4.36-1.26,4.15S80.14,102,80.14,102C79,101.24,65.29,91.49,65.29,91.49c-.86-1.33-7.2-10.07-7.27-10.2s-4.33-7.45-4.33-7.45S51.55,66,52.47,61.7s1.67-9.77,1.85-10.92S58.25,38.9,58.25,38.9C59.47,37.14,62.27,33.67,64.75,33Z" fill="#df9b50"/>
  <path d="M8.73,120.65a2.45,2.45,0,0,0,2.12,1.62c1.74.23,5.35,0,5.87-.9s.65-1.38-.32-1.85a11.8,11.8,0,0,0-5.19-.14C10.11,119.68,9.05,119.77,8.73,120.65Z" fill="#937655"/>
  <path d="M8.28,121.78a18.26,18.26,0,0,0-.5,2.62A15.94,15.94,0,0,0,7,126.47c0,.29.72,1.15,3.25,1.9a40,40,0,0,0,7.54.9c.11,0,2.65.34,2.65.34s3.15-5,3.76-5.8,2.57-3.3,4.11-5,5.71-3.68,6.59-4.06,1.6-.72.77-1.26a3.94,3.94,0,0,0-2.84-.63c-.56.27-5,1.2-6.59,3.16S22,121,22,121s-1.58.65-1.81.77-1.72,1.67-1.72,1.67-1-2.37-1-2.48a10,10,0,0,1-1.62,1C14.94,122.34,8.94,122.77,8.28,121.78Z" fill="#a3a2a2"/>
  <path d="M85,17.37a24.22,24.22,0,0,0-7.9,13.23C75.32,38.9,72.94,41,72.94,41a28.63,28.63,0,0,0-3.08-2,5.86,5.86,0,0,0-4-.72s.33-2.23.93-5.6,4.3-8.05,5.61-9.72,4.73-6.51,10.43-8.22a26.08,26.08,0,0,1,10.43-1.31S86.51,16.12,85,17.37Z" fill="#e9b87f"/>
  <path d="M62.34,33.82c-.55.21-3.42,3.36-5.15,6.49a23,23,0,0,0-3,9.25,44,44,0,0,0,.06,7l1.49.24,4.18-6S58.48,41.62,63.7,35C63.7,35,64.45,33,62.34,33.82Z" fill="#e9b87f"/>
  <path d="M98.91,12.15a10.81,10.81,0,0,0-3.37,3.74A19.76,19.76,0,0,0,86.6,27.17c-1.31,4.27-1,16.63-1,16.63S83,37.66,82.66,35a46,46,0,0,1,.3-7.68c-.45-2.54,2.86-7.32,3.76-8.67s2.94-2.52,4.4-3.56S98.22,12.06,98.91,12.15Z" fill="#e9b87f"/>
  <path d="M100.87,11.44c-1.05.31-5.41,5-6.7,7.62a9,9,0,0,0-1.25,4.37s1-3.83,8.94-5.62c2.09-.47,7.75.1,9.31,4.23,5.82-1.79,8.73,0,11,3,2.56,3.41,4.65,11.51,5.1,14.73,0,0,1.14-1,1.1-3.66a51.55,51.55,0,0,0-1.12-9c-.15-.27-2.1-4.16-2.1-4.16s11.68.91,18,16.38l-1.62-11.85c-3.18-8.26-11.1-10.57-12.66-11.17a13.09,13.09,0,0,0-7.38-.74l-6.16-3.93c-2.24-.33-5.82.76-7.58.41S102.81,10.87,100.87,11.44Z" fill="#e9b87f"/>
  <path d="M59.88,50.74l1.22,2.74s-1.56.41-3.11,3.79S55.2,68.72,56.63,73.52a42.59,42.59,0,0,0,3.11,7.85s-2.23-.34-3-1.22S53,70,53,70c.07-5.48,0-11.17,3.11-14.9S59.88,50.74,59.88,50.74Z" fill="#e9b87f"/>
  <path d="M72.42,55.65c-1,.93-1.29,1.85-1,1.9s.45-.41,2.21-1.22a28.66,28.66,0,0,1,6.5-1.49c.9-.09,1.83-.38,1.13-1s-1.83-.72-4-.23A20.4,20.4,0,0,0,72.42,55.65Z" fill="#692f17"/>
  <path d="M80.66,61.73a6.23,6.23,0,0,0-5-1.65,4.51,4.51,0,0,0-3.08,1.28,5.18,5.18,0,0,0-1.44,3.26c-.07.89,0,1.09.35,1.32a8.66,8.66,0,0,0,1.51.52l.62.28a9.85,9.85,0,0,0,3,1,8.32,8.32,0,0,0,3.87-.35c.38-.06,1.31-.24,1.59-.3.3.11.79.28,1,.12s.51-.84.16-1.72A9.37,9.37,0,0,0,80.66,61.73ZM73.89,66s-.11,0-.76-.2a2.22,2.22,0,0,1-.75-.45c-.2-.21-.19-.79.08-1.77s.65-.87.75-.73-.09.63,0,1.34a2.46,2.46,0,0,0,.54,1.29C74.28,66.15,73.89,66,73.89,66Zm2.88.17h-.52a3.45,3.45,0,0,1-.68-.3c-.88-.37-1.09-.83-1.36-1.84s.3-1.78.82-1.77.49.42.24,1.08a1,1,0,0,0,.45,1.29,1.71,1.71,0,0,0,1.91-.25c.74-.65.38-2.17,1-1.93s.83,1.58.23,2.66A2.34,2.34,0,0,1,76.77,66.19Zm5.54-.31c-.2.37-2,.58-2,.58a4.6,4.6,0,0,0-.83.16c-.34,0-.51-.14-.54-.38S79.58,66,80.18,65a2.82,2.82,0,0,0-.09-2.39s.77.66,1.46,1.36S82.51,65.51,82.31,65.88Z" fill="#692f17"/>
  <path d="M91.43,78.22c2.12-.14,3.2-1.92,2.84-2.17s-.93.23-2.71.45a7.49,7.49,0,0,1-3.3-.36,7.79,7.79,0,0,1-1.58-.77c-.23-.16-.43.54.45,1.44A5.11,5.11,0,0,0,91.43,78.22Z" fill="#692f17"/>
  <path d="M30.9,150.48l-1.72-1.17s-.68-.43-1.49.45a13,13,0,0,0-1.26,1.58c-.21.24.14.5.14.5l1.85,1.31s.93.43,1.44.14a5.93,5.93,0,0,0,1.26-1.58S31.53,150.91,30.9,150.48Zm-1.81,2.17-1.67-1.26s.06-.14.06-.14l.25-.31.09-.1a2.38,2.38,0,0,1,.63-.54c.25-.09,1.62,1,1.62,1Z" fill="#692f17"/>
  <path d="M12.56,121.43c1.42.07,2.29-.1,2.74-.61s-1-.88-2.13-.88-3,.15-2.54.85A2.78,2.78,0,0,0,12.56,121.43Z" fill="#692f17"/>
  <path d="M95.85,92a17.72,17.72,0,0,1-5-.41c-1.92-.59-2.08-.68-2.48-.09s2.55,1.9,4.33,2.08a28.94,28.94,0,0,0,5.55-.5c1.31-.36,1.83-.93,1.9-1.35S99.46,91.83,95.85,92Z" fill="#692f17"/>
  <path d="M181,159.51a64.37,64.37,0,0,0-7.31-15c-3.18-4.87-9.68-12.66-11.37-15.57s-4.87-7.92-7.45-10.29a22.61,22.61,0,0,0-8.4-4.47c-1.12-.13-12.4-6.21-14.27-7.15l-.12-.06s-1.93-1.52-1.46-2.13,3.32-1,6.77-1.9,12.66-6.64,13.54-7.18S154,93,156.2,91.67c.45-.27.57-.41.48-.47,1.2-1.19,4.31-4.26,5.07-5.08a37.11,37.11,0,0,0,3.66-5A24.6,24.6,0,0,0,168,65a30.09,30.09,0,0,0-1-4,54.42,54.42,0,0,0-1.22-12.15c-1.35-6.36-4.54-9.75-9.89-15.17s-20.22-16.27-29.07-18.87c0,0-5.85-2.08-8.76-2.93s-5.73-1.65-8.12-1l-2.39.65s-.56-.77-2.71-1.29-6.14.54-6.14.54-4.45.81-7.4,1.13a23.21,23.21,0,0,0-8,1.81,25,25,0,0,0-10.79,7.81s-1.08,1.2-1.44,1.72-2,3-2.55,3.72a16,16,0,0,1-2.73,3.14A53.12,53.12,0,0,0,61.27,34c-2.44,1.62-5.76,8.8-6,9.79a66.05,66.05,0,0,0-2.71,11.92c-.65,5.71-.77,12-.77,12a19.78,19.78,0,0,0,1.53,7.09,26.06,26.06,0,0,0,5,7.94s.57.93,1,1.73l.19.39c2.19,4.29,9.14,10.77,12.91,13.32s10.45,6.25,12.05,6.5,4.33.54,4.06.9-.2.29-3,.86a22.78,22.78,0,0,0-7.4,3.34,29.33,29.33,0,0,0-5.33,5.55c-1.58,2-5.64,7.92-6.64,9.43s-3.93,3.72-5.46,4.78-2.64,1.51-3.48,3.2,0,2.51-.32,3.52a.91.91,0,0,1-1,.63l-.7-.13a1.16,1.16,0,0,0-1.08.32c-.61.5-.56.59-.86.68a10.16,10.16,0,0,1-2.89-1.22c-.32-.27.18-.84-1.85-1.44s-3.25-.23-5.1-.59-2.75-2.1-4.92-2.3a7,7,0,0,0-4.11,1.13l-3.25-1.26a1.84,1.84,0,0,0-1.17,0,8.71,8.71,0,0,1-3-2.3c-1.4-1.65-2.46-3.14-3.3-3.52a3.65,3.65,0,0,1,.72-1.81c.61-.68,2.53-4,4.51-5.55s3.43-2.62,4.51-2.93,2.51-.61,2.93-.68,1.26-.43.63-1.35-.88-1.62-2-1.76a10.54,10.54,0,0,0-6.18,1.4c-3,1.53-7.43,5.94-8.17,6.82s-1.85,2.14-1.85,2.26a8.25,8.25,0,0,0-1.29-3,1.33,1.33,0,0,0-.49-.33,9.07,9.07,0,0,0-5.37-.69,3.64,3.64,0,0,0-3.92-.4c-2,1.2-1.18,4.94-.47,5.69A9.16,9.16,0,0,0,6.33,127a2.21,2.21,0,0,0-1.43.63,2.24,2.24,0,0,0-.81,2.27c.14.61.86,1.24.71,1.73s-.86.34-1.39,1.73a2.61,2.61,0,0,0,1,3.11c.83.58.91.88.95,1.08s-.24.56-.47,1.16c-.61.84-.56,2.69.5,3.2s1.56.54,2.08.86.28.93.14,1.17a.83.83,0,0,0,.08.79,6.88,6.88,0,0,0,3.67,2.32c2.37.56,6.77,2,7.9,2.21a8.83,8.83,0,0,0,3,0,1.89,1.89,0,0,0-.23,1.94,3.88,3.88,0,0,0,2.57,2.53c1.06.25,1.06.54,1,1.08A10.88,10.88,0,0,0,24.49,159c-.11,2.57.29,4.24,2.39,5.78a11.13,11.13,0,0,0,4.24.86,6.23,6.23,0,0,1,3.25.45c1,.47,5.91,3.41,7,3.61s1.62-.07,3.43.18,3.93,1.76,7.18,2.71,10.81,1.24,12.55.63,3.14-1.74,3.88-1.17.47,3.9.41,5.33-.29,4.6.86,6.09,4,2.3,9.75,3.7,14.87,1.74,15,1.76l11,.61s5.86.44,8.43.34a121.83,121.83,0,0,0,13.14-.95c4.5-.71,18.52-3.28,21.73-4.2a37.6,37.6,0,0,0,5.42-2c1.29-.51,3.62-1.12,3.93-1.29,0,0,7.65-2.3,10.49-3.79s9.34-6.3,11.24-8.8S182.06,163.37,181,159.51Zm-47.73-50.1,3.32,2s1.15.88-.41,1.49c-1.23.48-2.91.58-3.28.9A42.94,42.94,0,0,0,133.25,109.41Zm-1.42-.51c0,.08-.66,3.71-.78,6.43a13.8,13.8,0,0,1-1.08,5.31,1.5,1.5,0,0,1-.95.51c-.22.05-8.41,4.76-8.8,5.11a1.85,1.85,0,0,0-.37,1.32c0,.32,1.37,6.84,1.22,7.35s-2.12,3.49-2.84,4.84-5.26,9.7-6.06,11.21-4,7.74-4.67,9.41-3.61,9.67-4.06,10.53-1.18,1.95-1.08.24a175.18,175.18,0,0,1,2.51-18.82,101,101,0,0,1,4.67-15c1.51-3.59,4.72-10,6.74-13.71s7.24-11.8,7.68-12.39,3.2-3.88,3.18-4,1.67-.91,2.8-.21c0,0,0,0,.12.07a1.83,1.83,0,0,0,.36.21A7,7,0,0,1,131.83,108.9Zm-15.51,38.49.84-1.59c1,.09,12,.07,12,.07s1.72-.18,2.26.27.41,2.39.41,2.39-.14,1.06-.9,1.13-13.86-.09-13.86-.09-.81-.11-.77-.77C116.32,148.44,116.32,147.84,116.31,147.39Zm6.89-3.18s-1.13-.23-.36-1,2.26-3,2.71-2.93c.05.16,2.73,3.11,3.57,4C126.48,144.26,123.2,144.21,123.2,144.21Zm-2.08-.95a2.58,2.58,0,0,0-.39.59,2.54,2.54,0,0,0-.07.36l-2.73.08c1.4-2.65,2.52-4.81,2.7-5.16l2.51,1.69Zm-28.3-21.85a2.57,2.57,0,0,1-2.3-1.26c-.86-1.4,0-8.06.45-10a5.48,5.48,0,0,1,1.85-3.07c0,.06.2.45,1.36,2.66,1.53,2.93,4.45,3.07,4.47,3.52s-.59,1-.59,1L96.17,117ZM93.91,130c0,.11-2.19,4-2.3,4.33a81.28,81.28,0,0,1-1.08-11.19s.18-.61.72.09a2.81,2.81,0,0,0,1.44.9l.54,2.46Zm-13-82c0-1.38-.2-3,.5-4.11a28.26,28.26,0,0,0,2-3.3c.2-.61,1.38,3.34,1.85,4.78s1.65,3.7,1.72,4.78.11,1.51,1.67,1.31,2.46-.95,7.72-1.53,7.74-1,11.06-.09,6.45,2,8.53,2.48,5.15.34,7.18-1.31a18.78,18.78,0,0,1,1.44,3c2,4.72,11.22,12.3,11.92,12.59s1.65,1.42,1.72.86.45-1.33,2.8-1.9,4.08-.23,5,1.44.23,3.52-.41,5.33-2.78,4.45-3.84,4.87-1.2,0-1.44.32a4.91,4.91,0,0,0-.27,1.72c-.9,4.45-6.73,9.93-8.44,11.42A31.77,31.77,0,0,1,121,96.9c-1.43.46-2.9.88-4.34,1.25l-.34-24.7a1.67,1.67,0,0,1-.14-1.22c.24-.47,0-.91-.41-1.35s-1.32-1.52-1.29-2.17,1.73-2.2,1-5.89a10.16,10.16,0,0,0-4.13-6.3,15.87,15.87,0,0,0-6.16-2.17c-1.08,0-2.84-1-3.66-.14s-.1,1.18.95,1.29,2.57.34,2.57.34a18.1,18.1,0,0,0-2.51.68,11.79,11.79,0,0,0-4.1,2.57c-2.43,2.38-2.1,5.35-1.93,7a7.28,7.28,0,0,0,4.47,6.3,13.14,13.14,0,0,0,7.18.47s2.44-.54,3.25-.81,1.22-.44,1.62-.07.2.61.74.88,1.12.37,1.15,1,.22,22.47.38,24.55a53.21,53.21,0,0,1-7.18,1.31c-2.35.18-12.86,1-20.72-3.07S76.85,89,76.85,89s-6.66-6.84-9.3-14.44-2.44-18.28-2.3-20l.09-1a.75.75,0,0,1,.95-.59,29.56,29.56,0,0,0,5.33,0c2.8-.27,4.2-1.62,6-1.94a15.11,15.11,0,0,0,3.79-.81A3.85,3.85,0,0,1,80.86,48Zm68.29,19c1.35,5.35,1.9,10.83-.81,16.25a17.44,17.44,0,0,1-6.41,7.4s0-4.47-.23-6.27a12.47,12.47,0,0,1,.54-5.06c.43-1.38,2.14-2.57,4-5.33s1.92-4.6.95-7.22-3.75-2.71-5.69-2.57-4.31.74-5.28.36-4.63-3.68-5.78-4.78-.9-1.94-.32-2.39,2.05,0,5.51-.09a25.15,25.15,0,0,1,7,.9S147.8,61.67,149.16,67Zm-5.55-31.69s6,7.18,8.67,12.73,5.21,12.86,5.28,18.15c0,0-5.55-4.4-7.18-5.82a19.17,19.17,0,0,1-4.87-9.21s-.27-4.81-.81-8.26Zm-36.25,76.06c-3.32.68-6.52,1-8.62,0a8.73,8.73,0,0,1-4.2-5.69,11.19,11.19,0,0,1,.3-4.5c2.54.31,10.83,1.18,16.76.22,1.28-.21,2.55-.48,3.77-.79v0c0,.26.27,5.28.14,6.77,0,.3-.11,1-.23,2C114.17,109.68,110.19,110.82,107.36,111.39Zm7.69-.32c-.37,2.88-.87,6.65-1.13,8.6a2.49,2.49,0,0,1-.78,1s-4.43,2.4-5.35,2.17a3.4,3.4,0,0,1-2.17-2l-2.51-5c0-.14-1.33-1.47-.9-1.94a4.54,4.54,0,0,1,2.12-.72A80.89,80.89,0,0,0,115.05,111.07Zm-14,5.24a4.07,4.07,0,0,1-1.15,0,7.07,7.07,0,0,0-1.63,0c.09-.18.69-1.33,1.52-1.33S101.09,116.31,101.09,116.31Zm14.56.74c.23-1.17.65-3.63,1-6.48a54.38,54.38,0,0,0,8.72-4.1h0c.41.21-4,5.16-5.18,7.06s-4.41,6.46-4.41,6.46S115.22,119.25,115.64,117.06Zm5.89-10.22c-.5.31-3.17,1.36-4.76,2a38.59,38.59,0,0,0,0-8.6c4.85-1.36,8.64-3.1,9-3s.54,1.67.54,1.67.29,3.36-.5,4.78S122.26,106.38,121.53,106.83ZM107.32,71.69c-2.57.34-5.62-.17-6.64-1.08a8,8,0,0,1-2.78-7.18,7.74,7.74,0,0,1,4.67-5.76,14.41,14.41,0,0,1,5.55-.74c2.44.34,5.18,2.57,5.55,5s.51,5.18-1,7A9.13,9.13,0,0,1,107.32,71.69ZM94,122.88a23.19,23.19,0,0,1,2.64-4c.71-.88,1.83-.95,3.32-.88a2.82,2.82,0,0,1,2.17,1.08s2.34,3.25,2.64,4a1.59,1.59,0,0,1-.07,1.35s-1.76,2.27-2.64,3.18-1.29.74-1.29.74-3,.07-4,0a2.68,2.68,0,0,1-1.56-.61s-.66-1.64-.86-2.25A5.92,5.92,0,0,1,94,122.88Zm9.14,5.89,3.18-3.86,1,.68a31.32,31.32,0,0,0,4.33-1.9c.81-.61,1.32-.61,1.42,0s-1.22,2-1.22,2l-6.75,10.65c-.74-1.75-2.17-5.12-2.39-5.84A1.94,1.94,0,0,1,103.19,128.77Zm26.18-26.19a.87.87,0,0,1-.66-.9c0-.2-.29-5.76-.36-5.78.2-1.33,1.35-1.31,5.19-4.51a34.07,34.07,0,0,0,6.64-8.17,23.08,23.08,0,0,1-3,13.63C136.09,98.85,131.21,101.6,129.37,102.58Zm23.58-10.64s-5.35,4.2-9.07,5.82a31.6,31.6,0,0,1-7.63,2.12,33,33,0,0,0,4.15-4.83,19.65,19.65,0,0,1,2.26-2.3,60.6,60.6,0,0,0,6.64-7.31,20,20,0,0,0,3-13.54c-.81-5.35-2.1-7.31-3.25-8.8s-3.72-5.42-3.93-8.4c0,0,2.1,4.6,3.66,6s4.81,3.86,5.69,7.58,1.15,9,.41,11.78c0,0,1.56-.41,1.49-6.36-.06-5.58-1.2-6.65-1.34-6.76a12.31,12.31,0,0,1,4.45,9.6C159.58,83.07,158.64,87,152.95,91.94Zm14.22-21.67a18.83,18.83,0,0,1-3,9.89l-2.71,3.52s.07-2.37-.14-5.69-1.76-8.06-2.3-10.16-.34-8.4-1.35-12.05-2.37-5.42-1.62-5.82,4.67,3.66,7.58,7.85a21.12,21.12,0,0,1,3.25,9.48A16,16,0,0,1,167.17,70.27Zm-18.55-41c2,1.9,10.56,8,13,13a56.83,56.83,0,0,1,4.58,16.47,13.87,13.87,0,0,0-3.09-4.83,55.82,55.82,0,0,0-7.18-6c-.95-.54-3.18-3.39-4.6-5.28s-7.72-11.1-7.72-11.1-1.76-7-3.39-8C140.22,23.56,146.65,27.35,148.62,29.24ZM122.3,15.79c.11-.45,2.44,0,3.43.36a.74.74,0,0,0,.29.06,27.85,27.85,0,0,1,8,2.88c3.11,2,5,5.28,6.23,8.26a3.1,3.1,0,0,0,.35.69,42.86,42.86,0,0,1,2.09,8.66,8.5,8.5,0,0,0,.21,1.4,52.82,52.82,0,0,1,.47,11.19l0,5.51c-.52.56-1,1.24-1.72,1.13a21.94,21.94,0,0,0-3.25-.45c-1.65-.09-6.07.54-7.9.14s-2.26-.95-2.26-.95a4.11,4.11,0,0,1-2.44-3.07c-.68-2.55.95-4.33,1.62-6.14A27.93,27.93,0,0,0,129,35.88a29.7,29.7,0,0,0-2.17-11.37,70.83,70.83,0,0,0-3.7-7.27C122.71,16.69,122.19,16.24,122.3,15.79ZM97.7,12.72c.52.27-.34.41-1.9,2.57s-3.27,6.18-2.93,8.35a23.13,23.13,0,0,1,2.39-5.15s2.69-5.17,5.91-6.14,5.87-.11,7.72,3.11A15.57,15.57,0,0,1,111,21.89c0,.36.32,1,.5-1.13a13.3,13.3,0,0,0-1.4-6.27c-.68-1.17-.84-2.05.14-2.21s4.08-.81,6.18.45a21.78,21.78,0,0,1,7,8.08c1.65,3.43,3.7,8.1,3.79,12.23s-.41,13.32-3.07,15.66A9.38,9.38,0,0,1,117,50.86a7.2,7.2,0,0,1-2.89-.95,10,10,0,0,0,5.46-3.11c2.48-2.71,3.18-8.1,3.2-9.66s-.41-2.75-.9-.59-.86,6.5-4.15,10-7.7,2.28-10,1.26c0,0,.88,0,2-1.22s1.74-2.39,1.94-5.15a10.32,10.32,0,0,1-3.2,3.88c-2,1.24-4.27,1.74-7.22,2.26s-6.82,1-8.44,1.4-3.68.79-3.84.81-.54,0-.9-1.13-2.6-6.54-3-7.72a37.59,37.59,0,0,1-2-7.63,21.73,21.73,0,0,1,.27-6.23L83.66,26s3-9.61,10.11-11.83C93.77,14.17,97.18,12.45,97.7,12.72ZM66.83,36.56c1.15-4.4,4.65-13,8.22-15.84.14-.11,3.16-2.84,4.2-3.57a16.8,16.8,0,0,1,5-2.3s-1.76,1.35-3.61,3a8.4,8.4,0,0,0-2.89,5.37c0,1.4,1-2,3.34-3.93s8.15-6.48,11.19-5.64c0,0-3.25.68-6.32,4.87a19.25,19.25,0,0,0-3.88,9,29.7,29.7,0,0,0-.36,6.36c.2,3.3.23,3.34-.23,4.51s-1.58,2.3-2,4.29A14.36,14.36,0,0,0,79.42,48c.25.77-.45,2.37-2.39.72s-3.39-2.64-3.66-5.19.09-3.75.59-4.65-.5-.79-1.26,1.13a9.31,9.31,0,0,0-.18,5.46c.34,1.2,1.26,1.6,1.35,2.62s.52,2.39-1.81,3.07a17.31,17.31,0,0,1-5.28.5c-.95,0-1.56-.77-1.53-1.94s.25-3.88.23-4A49.89,49.89,0,0,1,66.83,36.56ZM65.61,34c.88.2-2,6-2.14,13.14a8.32,8.32,0,0,0,.47,2.66c.32.84.7,2.26-.36,2.93-.87.56-1.61,0-2.11-.68-.08-.14-.17-.29-.28-.45a7.69,7.69,0,0,1-.72-4.83,40,40,0,0,1,1.35-5.82S64.73,33.78,65.61,34Zm-8.67,9.89a30.24,30.24,0,0,1,3.39-6.36s2.35-3.11,2.75-2.89-1.51,3.16-2,4.6c-1.26,2.71-1.87,8.15-2,9.12S58.3,49.94,57.3,51l-2.48,3.7S55.34,47.86,56.94,43.87ZM59,76.59s.09,2.84-.27,3.34-5.17-2.69-5.33-15.26a16.89,16.89,0,0,1,1.9-6.86,19.73,19.73,0,0,1,3.43-4.87c.74-.7,1.13-.27,1.35.27s1.53,1.13,1.53,1.13.18.34-.5,1.58a26.56,26.56,0,0,0-2.48,5.42c-.52,2-.11,1.94.27,1.4s4.31-6.16,4.51-6.68.11,3.63-.59,6.45-2.14,5.82-2.75,8A24.51,24.51,0,0,0,59,76.59Zm3.52,10S60,82,60.28,77.36s1.33-7.9,3.3-10.38c0,0,.95-1.26,1,1.9a70.11,70.11,0,0,0,.54,9.57c.52,3,2.53,9.55,4.56,12.59a18.21,18.21,0,0,1,2.44,4.56C65,91.06,62.54,86.61,62.54,86.61Zm19.77,14.81A40.66,40.66,0,0,1,75,96a28.34,28.34,0,0,1-4-5.6c-1.15-2.48-3.41-7.2-3.3-10.34,0,0,.32-1.17,1.31,1.62s5.1,7.42,6.64,8.94a40.37,40.37,0,0,0,17.18,10.08c0,.37.11,1.12.11,1.7,0,.81-.25,1.67-1.49,1.72A21,21,0,0,1,82.31,101.42ZM85,108.23a11,11,0,0,1,5.19-.9,18.7,18.7,0,0,0-1.76,7.94c-.2,5.21-.38,15-.36,16.43s-.25,11.28.45,19,2.12,19.09,2.12,19.09,0,2.32-.59,0S84.39,149,83.75,146.38s-2.35-8.53-2.35-8.53a6.87,6.87,0,0,1-.09-2.8c.32-1.11,2.55-5.64,3-7.09s.56-1.67,0-2.08-4.47-3.11-4.65-3.43a52.49,52.49,0,0,1,.86-7C81.23,112.66,83,109.36,85,108.23ZM25.8,117.4a15,15,0,0,1,6.41-3.52,8.43,8.43,0,0,1,2.66-.41,1.18,1.18,0,0,1,.5.77s-.27,0-1.62.41a20.64,20.64,0,0,0-8,6l-1.07,1.38c0-.35-.16-2.17-1.16-2.26C24.33,118.9,25.14,118,25.8,117.4Zm-2.76,3c.2.08.49.3.7.94A5.26,5.26,0,0,1,24,123l-.44.59a3.58,3.58,0,0,0-.3-1.82c-.28-.65-.52-.81-.73-.81Zm-1,1.19a1.69,1.69,0,0,1,.93,1.51,10.69,10.69,0,0,1,0,1.34c-1.19,1.61-2.18,3-2.6,3.61a15.83,15.83,0,0,0-.76-3.61S20.65,123.09,22,121.54Zm-3.34,4.39c.15.49.93,2.72-.23,2.79h-.16a16.61,16.61,0,0,0-4.48-1c-1.9,0-4.18-.58-5.25-.64l-.37,0H8.1a.82.82,0,0,1-.55-.91c0-.64.42-.49.81-.3.95.46,1.86.66,4.33.78a9.47,9.47,0,0,0,4.94-.78C18.25,125.52,18.5,125.42,18.65,125.93Zm-1.18-3.39a1.71,1.71,0,0,1,.09,1.36,4.63,4.63,0,0,1-.66.37c-1.4.63-5.5.37-6.33.2a10.1,10.1,0,0,1-1.73-.61,1.57,1.57,0,0,1-.24-1.11s.07-.64.34-.61a7.57,7.57,0,0,0,4.33.88,7.16,7.16,0,0,0,3.59-1C17.18,122,17.3,122.15,17.47,122.54Zm-4.27-3a7,7,0,0,1,3.18.37h0a.55.55,0,0,1,.22.46c0,.51-1.15,1.4-3.47,1.54a7,7,0,0,1-3.77-.69c-.25-.17-.22-1,.95-1.32A10.41,10.41,0,0,1,13.2,119.53Zm-5.42-.1a2.16,2.16,0,0,1,2.5-.53A5.82,5.82,0,0,0,8.46,120a4.25,4.25,0,0,0-.91,1.79A1.84,1.84,0,0,1,7.79,119.43Zm-2.17,9.72c.24-.54.68-1.08,2.07-.61a30,30,0,0,0,5.18.95c2.65.37,4.09-.25,6.08.54.81.63,1.43,1.83.3,2.45a10.8,10.8,0,0,1-4.24.77,17.8,17.8,0,0,1-5.94-.58C5.48,131.78,5.38,129.69,5.62,129.14Zm-.1,4c.73-.46,1.52.05,2,.3s3.24,1.23,8.27,1c1.81,0,2.78-.93,4.56-.63a1.79,1.79,0,0,1,1.53,2.44s-.27,1.35-3.39,2.17a14.83,14.83,0,0,1-5.17.54s-.86-.07-2.19-.23a10.12,10.12,0,0,1-3.3-1.26,9.12,9.12,0,0,1-2.39-1.59C4.42,134.7,4.79,133.6,5.52,133.14Zm1,7.32c-.47-1-.29-1.76.95-1.22a16.22,16.22,0,0,0,3,.86,12.58,12.58,0,0,0,4.35.37,16.78,16.78,0,0,0,5.36-1.77c.52-.2.74.27.59,1a3.5,3.5,0,0,1-1.72,2c-.86.47-5.87,1.87-7.9,1.44S7,141.46,6.57,140.46Zm10.92,4.78a8.35,8.35,0,0,1-3.2.81c-1.72,0-4.65-.36-4.87-1.26-.36-.72.14-1.17,1.67-.86a14.12,14.12,0,0,0,5-.41c1.47-.27,2,0,1.94.81S17.49,145.25,17.49,145.25Zm.45,1.44c-.46-.23,0-.58.38-.81a1.41,1.41,0,0,0,.55-.43c.32-.64-.11-1.6,0-2.15s.56,0,2.26-1.72.86-2.48.81-3,1.31-1.53,1-3.43-1.62-2.37-1.94-2.84.43-.52-.23-2.12a2.24,2.24,0,0,0-.33-.56l.19,0,1.9-2.21a7.49,7.49,0,0,1,2.57,2.12c1.22,1.53,3.79,3.2,4.06,3.57,0,0,.38,1.62.5,2.53a16.53,16.53,0,0,1-.86,7c-1.29,3-3,4.56-4.47,4.92S18.57,147,17.94,146.69Zm12.1,14c-.25,1.92-1.2,2.46-2.39,2.39a4.45,4.45,0,0,1-1.4-2.39c-.52-1.78.45-5.73,1.17-5.42.14.06.2,0,.22-.07a.73.73,0,0,1,1,.43c.25.81-.09,1.44.36,2.17S30.29,158.77,30,160.68Zm.09-6.18a11.25,11.25,0,0,0-3.25-1.31,2.33,2.33,0,0,0-1.22-.41,2.27,2.27,0,0,1-1.94-.68c-.5-.63,1.17-1.62,1.94-1.72s2.41-2.89,3.11-3.88a17.15,17.15,0,0,0,2.57-7,26.2,26.2,0,0,0-.36-5.28s-.26-.51.09-.46h0c.11,0,3.25,1.56,3.48,1.58a3.29,3.29,0,0,1,1.72,2.08,19.83,19.83,0,0,1,.68,8.85,20.09,20.09,0,0,1-3.3,7.81C32.86,155.29,31.21,155,30.13,154.5ZM91.47,187c-6.52-.25-14.71-1.9-17.11-3s-3.25-1.83-3.52-2.75-.11-5.82-.18-7.72.81-10.2.54-12.73c0,0,0-9.91,0-11.37a34,34,0,0,1,.63-7.67,45,45,0,0,0,.68-7.54s.2-6.23-.14-6.27-.72,1.53-.72,3.2-.56,3.81-.63,5.55-.72,1.85-.72,1.85a1.27,1.27,0,0,1-1.4-.72c-.11-.34-.14-2.55-.59-1.81a10.83,10.83,0,0,0-.41,5.37c.36,1.81,1.29,8.1,1.62,10.29s.07,9.25,0,10.38.47,5.69-1.85,7.22a16.18,16.18,0,0,1-8.89,2,53.51,53.51,0,0,1-9.84-2c-3-1.06-6.93-1.15-8.49-1.4s-2.51-1-2.62-1.85.65-1.08,1.44-2.35.54-1.78.18-1.22A5.43,5.43,0,0,1,37,164.07a7.05,7.05,0,0,1-4-.27,4.42,4.42,0,0,0-1.62-.23s-.9-.36-.36-1.53,3.59-6,4.56-7.81a30.42,30.42,0,0,0,2.62-7.94c.32-2.23.14-8.08-.68-9.84s-1.44-2.3-1.85-2.53a4.43,4.43,0,0,1,2.66-.5c1.51.2,3.75,3,4.51,5.73s.9,4.33,1.67,4.42.18-4.06.18-4.06c-.32-1.22-1.17-2.71-.54-3.07s3.3-.23,5.33.95,3,1.69,3.66,3,2.66,5.64,3.43,6.82,1.2.56.72-.63-3.43-6-3.2-7c0,0-.38-1.24.72-1.4s2.57,2,3.16,2.8,3.32,5.3,3.7,6,.61,1.24.72.09-3.09-8.82-4.29-9.7c-.68-1.72.34-3,1.22-4.65s4.36-3.23,6.23-4.74a19.84,19.84,0,0,0,4-4.69,87.07,87.07,0,0,1,5.6-8.26c3.07-3.93,5.42-4.38,5.42-4.38C78,114.6,77.3,123.13,77.3,123.13a2.78,2.78,0,0,0,1.4,1.4c1,.43,3.68,1.33,3.79,2.17s-3,7.47-3,7.72a5.06,5.06,0,0,0,.14,2.48c.41,1.29,3.23,12,3.48,13.59s3.3,13.83,3.84,16.2,3.18,8.51,3.61,9.79A84.06,84.06,0,0,1,91.47,187Zm4.94-34.82s-.91,33.31-.91,34.29-.58.81-.58.81l-1.47-.06s-.7-10.52-1-15-1.29-12.55-1.58-14.26-.88-12.05-.95-13.81-.74-10.95-.27-11.33.91,4,1.25,6c0,.12,0,.25.07.37l0,.18a1.34,1.34,0,0,0,0,.14c.71,2.45,4.9,9.69,5.2,10.46A6.55,6.55,0,0,1,96.41,152.13Zm0-4.18c-.09-.23-1.13-2.35-2.62-5.78a21.23,21.23,0,0,1-1.72-5.55s3.18-5.85,3.57-6.41l4.38,0c1.35,0,1.29.74,1.29.74s2.51,6.06,2.71,6.84-.64,2.15-.64,2.15-4.21,8.57-5.43,8.75S96.48,148.18,96.39,148Zm4.22,24.52c-.21.15-.49.07-.81-.06s-.52-.71,0-1a.6.6,0,0,1,.82.18Zm.48-10.42c0,.63-.17,4.27-.38,8.56a1.18,1.18,0,0,0-.5-.29,1.37,1.37,0,0,0-1.9,1.24,1.64,1.64,0,0,0,1,1.95,2.37,2.37,0,0,0,1.23,0c-.31,6.15-.65,12.56-.69,13.07-.07.95-.74.81-.74.81a8.71,8.71,0,0,1-1.49-.14,1,1,0,0,1-.78-.58v-.88S98,155.49,98,153.37a6.1,6.1,0,0,1,1.08-3.43l5.15-8.4s3.7-7.24,5.41-8.85l.06-.06c-1.17,2.51-2.59,5.91-3.28,7.5a118.06,118.06,0,0,0-3.93,12.15c-.22.95-.48,2.36-.71,3.82a1.59,1.59,0,0,0-2.54.31,2.24,2.24,0,0,0,.27,2.57,2.17,2.17,0,0,0,1.8.33A26.39,26.39,0,0,0,101.09,162Zm.27-3.76c-1.4,0-1.44-1.15-.78-1.39a.84.84,0,0,1,1,.43c0,.32-.09.64-.14,1Zm51.08,13.91L150,177.59c-.81-2.91-1.83-14.15-1.83-14.15l3.72,3.89a2.37,2.37,0,0,0-.91,2.37A3.14,3.14,0,0,0,152.44,172.21Zm25-3.89c-3,3-9.68,7.65-18.75,11.24,0,0-5.15,1.86-6.3,2.1s-1.56.37-1.49-.68.81-2,1.62-4.74a15.45,15.45,0,0,1,1.83-4.06c.07-.24,2.07-1.83,2.37-2.3s.37-.95-.47-.74-1.75,1.49-2.44,1.35c-1.59-.3-.54-2.37-.54-2.37a28.67,28.67,0,0,0,2.17-2.37c.81-1,.47-1.35.47-1.35-1-.64-2.84,2.1-2.84,2.1s-3.22-4.5-4.2-6.09-6.23-10.8-8-14.62-.64-6.26-1-6.64-.71,1.69-1.69,1.08-1.35-2.27-1.69-2.57-.24,1.49.68,3.52,2.2,5.31,3.18,6.23,1.32,3.28,1.9,4.6,2.78,4.67,3.72,6.5.71,3.83.68,5.48.34,9.82.74,11,2,6,1.62,7-1.12,1.49-4.4,2.3-17.67,3.22-22.28,3.52-17.81-.2-17.81-.2c-3.22-.27-3.06-1-3-1.22s.46-7.53.64-8.77,1.07-2,1.52-3.49,4.21-9.77,5.18-11.85,2-5.3,2.95-6.64c.32-.45,1.39-2.4,2.69-4.81h17.44s1.33-.18,1.72-.9,0-4.24,0-4.24,0-1.15-1.53-1.26l-.79,0-3.54-4.61-1.4-1.58a2.21,2.21,0,0,0-1.17-.23c-.56.09-1,.81-1,.81l-2.48-1.93c.3-.72.55-1.36.64-1.62a7.72,7.72,0,0,0,.1-1.73c.05-.46-.42-4.42-.41-5.45s1.25-1.76,1.25-1.76,6-3.08,7-3.49a2.76,2.76,0,0,0,1.25-.95s.41-2.49.68-3.32a44.7,44.7,0,0,0,.69-4.47l.05.07c.61.61,3.39.07,5.42,0a29,29,0,0,1,10,1.9c3.11,1.35,9.41,8.94,10.43,11s9.75,13.41,11.78,16.11,7.31,11,8.12,15.3S180.44,165.27,177.46,168.31Z" fill="#692f17"/>
  <path d="M79.6,86.25a3.13,3.13,0,0,0,1.31.32,4,4,0,0,1,1.67-.18c.95.11,4,1.62,8.22,2.39a26.53,26.53,0,0,0,9.32,0c3.34-.79,4.72-2.41,6.43-2.21s2.51.63,3.07.36,1.22-.63.72-1.4-2.1-.79-3.39-.36-5.89,2.1-8.8,2.35a33,33,0,0,1-10.16-1c-3.86-.9-5.19-2.08-6.64-2.08s-2,.36-2.12.9A.79.79,0,0,0,79.6,86.25Z" fill="#692f17"/>
  <path d="M82.47,83.81A9.25,9.25,0,0,0,88.19,85c1.29-.24,2.1-.85,2.81-.61a14.92,14.92,0,0,0,10.83.95c6.26-1.66,6.33-4.91,4.81-5.89s-2.3-.41-1.56-.14c0,0,.91,1,.47,1.83s-2.74,1.9-7.92,1.42-6.06-2-6.5-2.51-1-.14-1.35.2-.88,1.25-3.52,1.62-4.23-.24-4.6-1.08.81-1.35.81-1.35c.54-.14.81-.07.81-.61s-1.9-.07-2.57.27S79,81.77,82.47,83.81Z" fill="#692f17"/>
  <path d="M103.7,59.39s3.39,8.31,4.15,9.66,1,2.17,1.53,2.17.59-.81-.18-2.26-4.6-9.57-4.6-9.57-.81-1.81-1.17-1.44S103.66,59,103.7,59.39Z" fill="#692f17"/>
  <path d="M107.68,59.58s1.76,3.84,2.53,5.15,1.4,1.76,1.35,1-3.25-6.41-3.25-6.41S107.32,58,107.68,59.58Z" fill="#692f17"/>

  <path d="M101.29,61.45s2.21,5.34,3.15,7.15S106.08,71,106,69.92s-4-8.89-4-8.89S100.76,59.23,101.29,61.45Z" fill="#692f17"/>

  <path d="M98.86,63.38s1.83,4.41,2.6,5.9,1.36,2,1.26,1.09S99.4,63,99.4,63,98.43,61.54,98.86,63.38Z" fill="#692f17"/>

  <path d="M107.39,179.2a2.67,2.67,0,0,0-1.06-1.15,2.42,2.42,0,0,0-3.55,1.79,2.23,2.23,0,0,0,2.14,2.52,2.37,2.37,0,0,0,2.57-1.47A1.82,1.82,0,0,0,107.39,179.2ZM105,180.88a.81.81,0,0,1-.38-1.46,1.07,1.07,0,0,1,.86-.08c.59.23.58.54.56.86A.9.9,0,0,1,105,180.88Z" fill="#692f17"/>
</svg>
