
<svg xmlns="http://www.w3.org/2000/svg" width="200" height="200" viewBox="0 0 200 200">
  <rect width="200" height="200" fill="none"/>
  <circle cx="102.46" cy="109.7" r="85.85" fill="#f2f2f2"/>
  <path d="M67.36,59.12a40.14,40.14,0,0,1-2-15.34c.59-8.37,6.12-15.81,9-18.8s10.35-4.42,13.1-6.63,15.24-3.57,19.66-2.8,10.68,5.12,10.68,5.12l3.31-.61,0,2,4.84.2L124,23.91l3.47,1.47L126,26.65s5.64,7.27,7.78,13.56.81,17.35.76,18.26-2.13,1.75-2.09,1.09-.93-11.6-5.92-16.47a69.15,69.15,0,0,1-8.16-9.57L117.8,30s-4.92,3.54-5.44,3.51S105,35.86,99.3,37a50.6,50.6,0,0,1-11.61,1.07,18.29,18.29,0,0,0-8.14,2.44c-2.6,1.83-8.14,5.07-8.71,8.05-1,5.06-1.89,10.4-1.89,10.4Z" fill="#efb000"/>
  <path d="M68.68,63.93s-3.47-1.43-4.62.34-1.28,6.49.43,8.82,4.25,8.64,5.67,9a15.42,15.42,0,0,0,2.47.4s5.51,12,6.11,12.94A66.65,66.65,0,0,1,81.14,102s1.54,5.34,4,6.78A35.55,35.55,0,0,0,93.77,113c3.74,1.13,6.6,2,7.68,1.51s2.61.28,7.86-2.06,7.16-3.67,8.11-6.64,2-6.19,2-6.19,5.49-9.15,7.7-13.36,3-6.46,3.65-7.08a18.4,18.4,0,0,0,3.09-4.06c1.3-2.16,2.65-8.36,1.8-9.59s-3.28-3.27-3.21-4.44-.29-9.07-3.68-14.25-10.34-12.52-10.55-13.32-.53-2.59-.53-2.59a28.17,28.17,0,0,1-8.18,3.92c-4.67,1.32-17.61,4-20.09,3.62s-6.11-.45-7.47.4-7.4,4-9.81,7.29a12.85,12.85,0,0,0-2.69,7.51C69.58,54.6,68.68,63.93,68.68,63.93Z" fill="#ffebde"/>
  <path d="M50.18,121.49c-.27.39-5.85,13.2-6.16,16.46s-2,18.1-.15,24.51,4.49,15.77,11.73,20.24,5.55,5.25,12.24,5.35c3.37-.4,1.38-34.28,1.4-36.07.15-12.82-5.16-20.29-6.93-23.65C57.12,118.49,55,117.76,55,117.76S53,117.44,50.18,121.49Z" fill="#fff"/>
  <path d="M160.62,129.34c.23.41,6.46,13.61,6.41,16.88s2.94,16.89.37,23-1.57,9.36-9.25,13-7.83,4-14.49,3.4c-3.3-.77-1-29-.86-30.81.54-7.38,1.17-16.47,3.12-22,4.78-13.6,7.82-12.1,7.82-12.1A42.52,42.52,0,0,1,160.62,129.34Z" fill="#fff"/>
  <path d="M80.62,101.93s2.2,10.45,20,11.39c2.29.12,9.31-1.53,10.81-2.5s5.12-2.47,6-6.49,2.75-4.71,3.67-4.65,16.91,7.5,17.44,7.53,15.67,13.27,15.67,13.27-3.66,1.42-6.77,8.59c-2.31,5.35-3.36,8.25-3.71,16.11-.41,9.3-.8,16.07-.8,16.07l-.15,26.49s-7.76,2.46-9.3,2.8a81.31,81.31,0,0,1-12.25,1.93c-1.05.08-6.43.54-10.91.75l-9.79.49S89.84,193.46,87,193c-10.22-1.48-15.42-3.72-16.65-3.74-1.14-17.45.67-41.11.09-42.57-8.48-21.22-14.69-27.27-15.51-28.89s4.53-6.21,7-8.11S80.62,101.93,80.62,101.93Z" fill="#f4cd71"/>
  <path d="M93.74,89.4a14.64,14.64,0,0,0,8.71,3.82c5,.18,6.69-1.66,6.69-1.66a2.09,2.09,0,0,0-.55-2.46L100.26,89Z" fill="#fff"/>
  <path d="M108.75,68.11c.13-.14,1.13-2.47,3.15-3.35s3.71-1.09,4.79-.6,4.35,1.91,4.7,3.41-1,2.48-2.2,2.85a20.79,20.79,0,0,1-3.75.66,20,20,0,0,1-4.21-.64C110.2,70,108.42,68.46,108.75,68.11Z" fill="#fff"/>
  <path d="M111.85,65.87s-.75,2.37.55,3.55a4.37,4.37,0,0,0,3.85.89c.69-.21,2.2-.62,2.28-2.16s.5-3.37-1.88-4.06S112.28,64.72,111.85,65.87Z" fill="#a9d1f0"/>
  <path d="M83,66.87c.13-.14,1.13-2.47,3.15-3.35s3.71-1.09,4.79-.6,4.35,1.91,4.7,3.41-1,2.48-2.2,2.85a20.79,20.79,0,0,1-3.75.66c-.31,0-3.35.25-4.38-.18S82.72,67.22,83,66.87Z" fill="#fff"/>
  <path d="M86.09,65s-.75,2.37.55,3.55a4.37,4.37,0,0,0,3.85.89c.69-.21,2.2-.62,2.28-2.16s.5-3.37-1.88-4.06S86.52,63.83,86.09,65Z" fill="#a9d1f0"/>
  <path d="M86.11,57.52A13.32,13.32,0,0,1,91,56.94c2.68.21,4.26.48,3.53-.78S92,54.3,89.87,54.73s-3.74,1.2-4.46,2.14S85.55,57.61,86.11,57.52Z" fill="#692f23"/>
  <path d="M114.45,58.47c2.59-.29,4.86.7,5.53.73s2.21-.18-1-2.14c-.41-.25-3.34-1.53-5.47-.61S112.75,58.66,114.45,58.47Z" fill="#692f23"/>
  <path d="M103.74,82.11c2.21-.12,3.44-1.71,3.08-1.85s-1.08.32-2.58.61a7.05,7.05,0,0,1-3.06-.44c-.54-.21-1.41-1.06-1.33-.26S101.53,82.24,103.74,82.11Z" fill="#692f23"/>
  <path d="M109.15,69.75A7.79,7.79,0,0,0,113,71a19.4,19.4,0,0,0,5.68-.17,10.53,10.53,0,0,0,3.21-2.09c.24-.17.05-1.79-2.11-3.33s-3-1.82-4.9-1.92a6.52,6.52,0,0,0-4,1.57,14,14,0,0,0-1.17,1,9.65,9.65,0,0,0-1.22,2.34C108.23,69,108.69,69.33,109.15,69.75Zm9.95-3.38a3.74,3.74,0,0,1,1.58,1.6,1.29,1.29,0,0,1-.53,1.24,6.85,6.85,0,0,1-2.29,1.07c-.49,0-.3-.18-.3-.18a2.74,2.74,0,0,0,1.16-1.3,2.57,2.57,0,0,0,0-2.28C118.61,66.29,118.6,66.17,119.09,66.36Zm-6.92-.26a1.8,1.8,0,0,1,.89-.85c.85-.37.93.26.75.52,0,0-.08.12-.07.14a1.24,1.24,0,0,0-.33.86,1.55,1.55,0,1,0,3.09.17,1.53,1.53,0,0,0-.15-.73c0-.26,0-.55.11-.63s1.16-.19,1.51,1a2.52,2.52,0,0,1-1.49,3.24,4,4,0,0,1-2.84,0,2.68,2.68,0,0,1-1.18-1,1.73,1.73,0,0,1-.2-.44,4.7,4.7,0,0,1-.18-1.82C112.09,66.47,112.17,66.15,112.17,66.1Zm-2.66,2a4.56,4.56,0,0,1,1.2-1.65,5.86,5.86,0,0,1,.88-.69,5,5,0,0,0-.21,1.24,3.69,3.69,0,0,0,.46,1.89c.36.62.63.8.56,1s-.45.23-1.73-.29S109.37,68.53,109.51,68.08Z" fill="#692f23"/>
  <path d="M85.72,69.91a20.25,20.25,0,0,0,5.92.21,8.13,8.13,0,0,0,4.05-1.3c.48-.43,1-.82.72-1.35A10.08,10.08,0,0,0,95.15,65a14.6,14.6,0,0,0-1.22-1.09,6.81,6.81,0,0,0-4.21-1.66c-2,.1-2.85.38-5.12,2s-2.47,3.28-2.22,3.46A11,11,0,0,0,85.72,69.91Zm7.66-4a5.24,5.24,0,0,0-.21-1.3,6.11,6.11,0,0,1,.91.73,4.76,4.76,0,0,1,1.24,1.73c.14.47.13,1-1.22,1.56s-1.72.53-1.8.3.21-.41.59-1A3.85,3.85,0,0,0,93.38,65.92Zm-6.87-.45c.37-1.24,1.28-1.21,1.58-1s.15.39.11.66a1.6,1.6,0,0,0-.16.77,1.61,1.61,0,0,0,3.22-.16,1.29,1.29,0,0,0-.34-.9s-.06-.13-.07-.15c-.18-.28-.09-.93.79-.54a1.88,1.88,0,0,1,.93.89s.08.39.09.46a4.91,4.91,0,0,1-.2,1.89,1.81,1.81,0,0,1-.21.46,2.79,2.79,0,0,1-1.23,1,4.17,4.17,0,0,1-3,0A2.63,2.63,0,0,1,86.51,65.47Zm-2.83,1.42a3.9,3.9,0,0,1,1.66-1.66c.52-.2.51-.07.42.15a2.68,2.68,0,0,0,0,2.38,2.86,2.86,0,0,0,1.2,1.36s.2.25-.31.19a7.15,7.15,0,0,1-2.38-1.13A1.35,1.35,0,0,1,83.68,66.89Z" fill="#692f23"/>
  <path d="M93.25,88.42c.06-.66-.44-1.25-.61-.39a4.24,4.24,0,0,1-.43,1,4.09,4.09,0,0,1-.83,1.13s-.25.24.12.21a1.23,1.23,0,0,0,.73-.41s.23-.3.43-.32,1.25.68,2.28,1.44a15.8,15.8,0,0,0,6.5,2.53,10.7,10.7,0,0,0,6.66-.92c1.2-.73,3.35-2.54,3.83-2.79s.39.08,1.09.36c.38.15.45-.15.41-.23a1,1,0,0,0-.44-.43,1.53,1.53,0,0,1-.76-1c-.19-.55-.1-1.13-.46-1.06-.14,0-.33.35-.33,1s-3.31.21-6.94,0-7.86-.06-9.15,0C94.32,88.77,93.18,89.13,93.25,88.42Zm2.56,1.36c.68.11,4.59-.05,7.25.06s6,0,6.29.22-1.32,2.37-5.67,2.32-6.48-1.18-7.48-1.88S95.38,89.72,95.8,89.78Z" fill="#692f23"/>
  <path d="M71.27,106s-.19,4.41,1.94,7,2.5,3.13,2.5,3.13S73,121.36,72.77,122a112,112,0,0,0-4.44,13.38c-1.59,6.25-2.59,19.78-2.69,21.63s-.62,5.38.63,7.25a24.23,24.23,0,0,0,9,9.06c5.84,3.47,20.5,6.91,31.88,6.75a51.24,51.24,0,0,0,23.44-6.5c2.34-1.44,7.5-5.84,7.94-7.06s2.41-2.81,2.19-7.44-.44-15.78-2.44-20.87-9.31-19.5-10.81-21.87-2-4.59-1.44-5.62a16.52,16.52,0,0,0,1.75-4.87c.22-1.59.28-2.47-.5-2.94s-3.12-.72-3.12-.25-.31,6.19-4.06,9.81a28.86,28.86,0,0,1-13.31,6.88c-4.72,1.16-14.44.78-20.69-1.44s-9.72-5.28-10.69-9S73.11,103.33,71.27,106Z" fill="#fd8204"/>
  <path d="M78.58,118.7s-4.78,11.44-5.94,18.06-3.22,18.16-2.09,23.78,3.91,7.53,6.78,9.28,9.44,5.41,20.44,6.69,22.22-2.19,24-3.19,7.5-3.5,10.44-6.5,4.09-5.75,4.19-10.47-1.41-11.56-2.56-15.59c-1.32-4.64-8.81-20.12-10.62-22.69,0,0-.72-2-1.56-1.69a35.52,35.52,0,0,1-18,6.75C91.73,124.23,79.77,119.55,78.58,118.7Z" fill="#fff"/>
  <path d="M76.08,117.33a47,47,0,0,0-4.56,9.46A73.15,73.15,0,0,0,68.35,141c-.7,5.46-2.14,16.66-2,19.33a13.12,13.12,0,0,0,2.94,7c1.19,1.55,5.6,5.37,12.13,7.88S96,179.43,107,179.2a54.06,54.06,0,0,0,23.31-6.5c4.59-2.83,8.18-7.17,9.25-10.69s-.27-15.32-1.1-18.92a95.17,95.17,0,0,0-5.27-15.4c-1.76-3.45-3.62-6.81-5.37-9.56-1.62-2.54-3.19-4.5-3.19-4.5l1.44-2.33s2.16,3.87,6.27,11.17a78.48,78.48,0,0,1,7.23,17.65,64.56,64.56,0,0,1,2,13.29,69.9,69.9,0,0,1-.13,8.94c-.24,1.29-3,7.55-10.14,11.74s-17.7,6.35-24.62,6.48-19.92-1.85-24.49-3.34-11.42-5.32-13.69-8.1-3.75-4.91-3.71-8.81A103.41,103.41,0,0,1,65.81,147c.75-5,1.75-11.71,2.71-15.5a62.79,62.79,0,0,1,3.29-9.83c1.57-3,2.93-5.34,2.93-5.34S75.7,115.2,76.08,117.33Z" fill="#692f23"/>
  <path d="M168.58,149.66s-.71-6.79-6-17.91c-2-4.12-6.51-11.75-10.18-15.53-3.26-3.35-10.77-8.43-12.87-9.51-3.48-1.78-11.09-5.22-13.35-6.06,0,0-3.78-1.61-5.75-1.57a13.62,13.62,0,0,1,2.32-3.16,19.85,19.85,0,0,0,4-5.74c.85-2,2.62-7.41,3.64-9.2a27.82,27.82,0,0,1,3-3.89c1.32-1.71,1.86-3.64,2.62-7.41.69-3.39.26-5.8-1.61-6.56h0s1-8,1.19-9.24c.55-3.29-.27-9.6-1.11-13.33s-6.57-12.34-7.57-13.13c0,0-.73-1.27.58-1.56s-1.31-1.85-2-2,1-1.48.05-2.09-3.33.25-4-.22.4-1.53-.74-2.13a2.27,2.27,0,0,0-2,.14c-.25.09-1.08.42-2.41-.57-3.46-2.59-5.36-3.87-10.88-4.29a48,48,0,0,0-10.66.64,65.53,65.53,0,0,0-15.15,5.18,31.38,31.38,0,0,0-5.78,4c-.28.08-6.55,6.82-8.18,13.09s-1,15.24-1,17.63,1.73,7,1.73,7A4.16,4.16,0,0,0,63,65a10,10,0,0,0-.16,5.08s.69,2.64.82,3c.65,1.6,3,6.77,5.58,9.67s3.46,1.79,3.46,1.79.63,3.74,4.69,10.74a10.22,10.22,0,0,0,1.3,1.63,19.14,19.14,0,0,0,.57,3,4.76,4.76,0,0,1-2.68,1.92c-1.41.51-4.9,2.18-11.55,5.57s-11.58,9.06-14.42,12.83a48.82,48.82,0,0,0-3.67,6,48.41,48.41,0,0,0-3.77,12.92,81,81,0,0,0,1.41,29.47c1.78,7.53,2,11.18,9.42,16.41,2.12,1.47,9.47,4.16,13.9,5.35,7.4,2,12,5.82,44.31,3.95,29.07-1.68,49-9.49,52.59-16.34,2.09-3.59,3-8.19,3.66-11.83C169.19,162.21,169.32,152.15,168.58,149.66ZM134.75,68.87c-.69,4.75-1.7,6.29-2.34,6.75l-.64.46s.69-10.34.71-10.59.36-1,.86-.92l.22.07h0l.1,0C134.38,65,135.22,65.68,134.75,68.87ZM68.49,36.66c1.53-4.34,5-7.65,7.37-10.09s7.64-4.86,10.23-6.25a32.39,32.39,0,0,1,12.18-3.63c5.68-.61,9.05-.48,11.63.64s6.83,4.25,7.56,4.35a1.53,1.53,0,0,0,1.09-.55c.41-.54,1.28-.61,1.33.16,0,0,.17,1.21.9,1.25.53,0,2-.13,2.7-.13,1.55,0,.63.59.63.59s-1.13,1-1.23,1.56,2.19.37,2.35.74-1,.87-.9,1.79,2.22,1,5.34,7.91a44.53,44.53,0,0,1,3.75,11.14c.61,2.37.64,8.51-.68,11.14A19.9,19.9,0,0,0,130.82,50c-1.72-3.29-5.54-9.76-8.58-12.63s-4.31-5.27-3.54-7c0,0,0-.86-2.4.11s-3,3-11.23,4.23-12.95,3.09-14.54,3.07,1.77-.95,4.17-2.16,2.57-2.07,4.19-2.53.6-.95-1.32-.5S93.94,35,89.95,36.19s-5.61,1.47-8.18,2.5S75.07,43.1,73.3,44a6.87,6.87,0,0,0-3.1,3.82,32.58,32.58,0,0,0-1.88,7.27c-.1,1.9-.07,2.45-.07,2.45s-.77,1.74-1-6.2S67,41,68.49,36.66Zm3.22,45.14c-.14.21-.42.24-1-.42C69.65,80,65.77,74.71,65,70s.69-4.75,1.67-4.76,1.74.65,2.22,3.18a1,1,0,0,0,0,.38s2.91,11.77,2.78,13Zm3.33,3a14.17,14.17,0,0,0-1.42-2.59h0s-2.21-12.34-2.55-13.9A43.23,43.23,0,0,1,70,58.36a47.18,47.18,0,0,1,.86-7.72,9.17,9.17,0,0,1,2.26-4A13.26,13.26,0,0,1,77.94,43c1.9-.65,4.62-3,5.62-3.42S88,39.7,92,39.43,107.22,37,109.79,36s6.66-3.75,7.35-4.08a8.82,8.82,0,0,0,1.72,4.46c1.7,2.49,4.59,5.9,6.76,8.85a19.69,19.69,0,0,1,4.06,11,43.67,43.67,0,0,0,.76,7.35s-.46,7.28-.5,10.17a37.4,37.4,0,0,1-1.83,7.64c-1.45,4.1-2.65,8-4.78,11s-5.26,5.11-8,7.24-4.72,4.22-10.39,4.71a29.23,29.23,0,0,1-13.72-1.86c-4.64-1.61-10.07-6.31-11.29-7.67C78.2,92.76,77,89.92,75,84.81Zm41.07,19.77a12.08,12.08,0,0,1-5.68,6,17.38,17.38,0,0,1-6.7,2s-7.89.55-13.48-2-8.09-8.08-9-11.33a26,26,0,0,0,7.15,4.11,36.64,36.64,0,0,0,13.83,3.16,49.11,49.11,0,0,0,6.72-.77,42.54,42.54,0,0,0,6.7-3.21C116.52,102.14,116.73,102.82,116.11,104.57Zm-38.57,0h0a4.44,4.44,0,0,1,.68-.06,4.59,4.59,0,0,1,3.13.88c2.47,5,8.51,7.56,11.28,8.39a33.21,33.21,0,0,0,15.52.49c4-.74,8.13-4,9.46-6.19a23.4,23.4,0,0,0,2.23-4.53h0c0-.18,0-.29,0-.29h0a1.53,1.53,0,0,1,1.45-1.12,6.42,6.42,0,0,1,1.91.16c.49.23.37.83-.05,2.94a19.67,19.67,0,0,1-2.85,6,25.2,25.2,0,0,1-10.09,6.47,34.19,34.19,0,0,1-15.51,1.05c-4.42-.79-12.19-2.92-14.92-5.22A9.8,9.8,0,0,1,76,107,2.12,2.12,0,0,1,77.54,104.52Zm-5.1,1.76c.45-.21.42-.21.84-.39.61-.16.41.54.41.54a12.09,12.09,0,0,0,.89,3.68c.66,1.13,2.17,5,9.42,7.83s17,3.35,21.41,2.55a29.66,29.66,0,0,0,14.32-6.75c4.31-3.95,4.58-8.13,5.21-9.75.3-.77.72-.88,1.44-.69l.57.23c.44.28.32.7.21,1.21a28.85,28.85,0,0,1-1.24,3.76,17.57,17.57,0,0,1-4.06,6.06,23.36,23.36,0,0,1-7.5,5c-1.92.79-4.6,2.9-16.92,2.9a36.9,36.9,0,0,1-7-.62A35.38,35.38,0,0,1,84.33,120c-1.79-.75-6.35-2.51-8.91-5.63s-3.13-5.25-3.2-6.6C72.17,106.83,72.26,106.42,72.44,106.28Zm91.42,69.09c-2.89,4.76-5.42,5.45-12.44,8.35a13.87,13.87,0,0,1-4.12,1.18c-4.21.59-3.81-2.64-3.92-3.85,0-.23,0-1.15,0-2.5.4-5-2.06-16.51-2.06-16.51l-2,3.47s.34,1.41,1,6.53a74.29,74.29,0,0,1,.69,8.78,26.09,26.09,0,0,1-.47,4.16c-.56,1.86-1.58,2.86-2.45,3.1-14.49,3.46-21.73,3.92-31,4.18-1.6,0-8.65-.1-11.29-.13a86.76,86.76,0,0,1-21.93-2.9,11.58,11.58,0,0,1-2.48-.93h0c-.84-.66-.77-2.46-.75-2.88s.29-8.71.48-15.4c-.32,0-.76-1.19-2-1.19-.09,4.91-.2,9.23-.2,9.6,0,1.7-.39,7.32-.46,8.09-.05.59-.4,2-1.71,1.82-6.39-2-13-4.89-15.22-8.23-4-5.84-4.17-9-4.84-12-.87-3.87-1.87-12.44-1.87-12.44s-.59-4.11.19-13.28a38.66,38.66,0,0,1,4.56-16.06,38.62,38.62,0,0,1,7.71-10.85A51.45,51.45,0,0,1,62,111.4a25.07,25.07,0,0,1,8.51-4.52c0,1.19,0,8.23,8.8,12.67,6.86,3.44,11.76,4.23,14.36,4.34,0,0,10,.56,14.29-.46a47.23,47.23,0,0,0,10.35-4.15c5.21-2.83,7.16-6.26,8.92-9.6a11.19,11.19,0,0,0,1.44-5.39,45.14,45.14,0,0,1,4.59,2.46c4.4,2.7,8,2.16,16.9,10.88,8.24,8.06,14.06,23.79,15.35,29.64a55.2,55.2,0,0,1,1,8.12C166.8,159.91,165.55,171.58,163.86,175.37Z" fill="#692f23"/>
  <path d="M102.65,136.11s2.27-3.88,5.13-3a4.67,4.67,0,0,1,3.5,5s2.62,1,3.43,2.57,1.2,3.41.34,4.72L113.83,147s2.53,3.35.75,5.6a6.19,6.19,0,0,1-4.75,2.12s-.46,4.21-3.7,4.69-5.61-2.66-5.6-2.82-3.93.48-5.65-.78-1.13-6-1.13-6-2.77-1.41-2.81-4.19,3.37-4.71,3.37-4.71-.63-3.75,2.1-5.13A6,6,0,0,1,102.65,136.11Z" fill="#ed3737"/>
  <path d="M102.21,144.16s-1.27,1.95-.31,3.16a2.19,2.19,0,0,0,3.07.77,2.11,2.11,0,0,0,1.06-2.46A2.62,2.62,0,0,0,102.21,144.16Z" fill="#efb000"/>
  <path d="M106.66,146.88a2.89,2.89,0,0,0-.06-1.08,22.39,22.39,0,0,0,2.33-1.74c-.22,0-2.89.59-2.89.59a1.77,1.77,0,0,0-1-.9,25.06,25.06,0,0,0,.07-3,22.26,22.26,0,0,0-1.31,2.47.53.53,0,0,1-.19.21,1.73,1.73,0,0,1-.67.08A1.44,1.44,0,0,1,102,143c-.49-.51-1.38-1.07-1.55-1s1.15,2,1.1,2.12-.42.8-.63.85a30,30,0,0,0-3.25.15c0,.15,2.85.63,3.17.9a2.71,2.71,0,0,0,.28,1.5v0a19.48,19.48,0,0,0-1.67,2.3c.09.11,2.54-1.09,2.83-1.06a1.23,1.23,0,0,0,.56.25c.41.07.43,0,.6.09s.91,2.67,1.13,2.57a11.29,11.29,0,0,0,.1-2.74,3,3,0,0,0,.9-.29c.41-.26.6-.65.74-.66s2.27.45,2.3.36A22.09,22.09,0,0,0,106.66,146.88Zm-1.42.64a2.17,2.17,0,0,1-2.29.37h0a1.89,1.89,0,0,1-.15-3.3h0l.13-.07h0a2.06,2.06,0,0,1,1.66.13A1.82,1.82,0,0,1,105.25,147.52Z" fill="#692f23"/>
  <path d="M93,150.07a16.45,16.45,0,0,0-.45,2.68,4.26,4.26,0,0,0,2.91,4.17c2.67.87,4,.06,4.29.24s.62,1.14.62,1.14a5.08,5.08,0,0,0,4.21,2.11l0,0c.73,0,1.7-.32,1.85-.26a8.24,8.24,0,0,0,2.3-1,2.44,2.44,0,0,0,.88-1.27,8.08,8.08,0,0,0,.3-2.46s3.15.14,4.54-1.1a4.39,4.39,0,0,0,1.29-4.27c-.32-.83-1-2.19-1.2-2.51A27,27,0,0,0,116.2,145a4.7,4.7,0,0,0-.69-4.56,5.45,5.45,0,0,0-3.26-1.8A6.71,6.71,0,0,0,112,136a4.77,4.77,0,0,0-4.79-3.13,6,6,0,0,0-4.95,2.61,4.64,4.64,0,0,0-2.8-1.2,5.56,5.56,0,0,0-4.86,1.67c-1.62,1.71-.84,4.68-.95,4.83s-.86.31-.86.31a4.47,4.47,0,0,0-2.42,5.45A5.38,5.38,0,0,0,93,150.07Zm1.86-8.61a6.65,6.65,0,0,1-.34-1.9,3.58,3.58,0,0,1,1.86-3.62,4.29,4.29,0,0,1,6,2c.72-1.82,2.72-4.94,6.17-3.66s1.83,5.61,1.83,5.61c2.47,0,4.42.42,4.55,3.47a3.35,3.35,0,0,1-2.71,3.54.43.43,0,0,0,.23.21c.67.64,2.51,2.65,1.85,4.71-.81,2.5-3.75,2.57-5,2.23,0,0,0,3.41-2.17,4.4l-.15.05a4.94,4.94,0,0,1-2.17.44h0a4.23,4.23,0,0,1-2.52-1.06,3.78,3.78,0,0,1-1.33-3.06c-.67.9-2.26,1.12-3,1.26a3.6,3.6,0,0,1-3.66-2.22c-.85-2,.48-4.38.48-4.38-.31-.18-3.45-1.31-3.49-4.18S94.87,141.46,94.87,141.46Z" fill="#692f23"/>
  <path d="M77.79,118.27c-.2,0-4.54,9-6.25,19.34S69,159.1,69.77,162.27s6.07,9.32,16.14,12.49,22.47,2.34,24.41,2.18a42.41,42.41,0,0,0,16.73-5.32c7.35-4.26,10-8.65,10.1-12a55.45,55.45,0,0,0-2.68-20c-2.73-8.27-8.33-19.42-11.61-23.8l-1.36,1.06a97.7,97.7,0,0,1,8.14,15.28c3.56,8.58,4.25,11.5,5.29,17.13s.55,10.82-.37,12.89c-1.56,3.52-6.35,8.09-13.17,10.66s-14.37,2.92-24,2.61a37.66,37.66,0,0,1-20.58-7.16c-4.8-3.5-5.64-7.24-5.61-10.41a119.21,119.21,0,0,1,2.16-21.28c1.54-7.44,3.69-14,5.34-17.06C79.46,118.1,77.79,118.27,77.79,118.27Z" fill="#692f23"/>
</svg>
