<svg xmlns="http://www.w3.org/2000/svg" viewBox="0 0 17.91 17.91">
  <defs>
  <style>.cls-1{fill:none;}.cls-2{fill:#ff8200;}.cls-3{fill:#fff;}
  </style>
  </defs>
  <rect class="cls-1" width="17.91" height="17.91"/>
  <path class="cls-2" d="M9.14,11.35,5.79,13.11a.42.42,0,0,1-.61-.44l.64-3.73L3.11,6.29a.42.42,0,0,1,.23-.71L7.09,5l1.68-3.4a.42.42,0,0,1,.75,0L11.19,5l3.75.54a.42.42,0,0,1,.23.71L12.62,8.78a.42.42,0,0,0-.12.37l.6,3.52a.42.42,0,0,1-.61.44Z"/>
  <path class="cls-3" d="M9.54,10.53H9V6.78q0-.47,0-.89L8.82,6,8,6.75l-.32-.41L9,5.26h.5Z"/>
  <path class="cls-2" d="M12.9,16.77a.21.21,0,0,1-.18-.1l-1.14-2a.21.21,0,1,1,.36-.21l1.14,2a.21.21,0,0,1-.18.31Z"/>
  <path class="cls-2" d="M5.29,16.71l-.1,0a.21.21,0,0,1-.09-.28l1-2a.21.21,0,0,1,.37.19l-1,2A.21.21,0,0,1,5.29,16.71Z"/>
  <path class="cls-2" d="M.65,10.9a.21.21,0,0,1-.06-.41l2-.56a.21.21,0,1,1,.11.4l-2,.56Z"/>
  <path class="cls-2" d="M17.26,10h0L14.9,9.59A.21.21,0,1,1,15,9.18l2.33.42a.21.21,0,0,1,0,.42Z"/>
  <path class="cls-2" d="M12.92,3.25a.21.21,0,0,1-.15-.36l1.68-1.7a.21.21,0,0,1,.3.3l-1.68,1.7A.21.21,0,0,1,12.92,3.25Z"/>
  <path class="cls-2" d="M5,3.52a.21.21,0,0,1-.16-.07L3.19,1.53a.21.21,0,0,1,.32-.27L5.16,3.17A.21.21,0,0,1,5,3.52Z"/>
</svg>
