
<svg xmlns="http://www.w3.org/2000/svg" width="200" height="200" viewBox="0 0 200 200">
  <rect width="200" height="200" fill="none"/>
  <circle cx="100" cy="104.84" r="89" fill="#f2f2f2"/>
  <path d="M102.67,167.63" fill="#692f23"/>
  <path d="M56.56,62.9s-.76,7.82-3.15,9.78-4.24,3.26-4.24,6.74.65,6.63,3.59,7.82a6,6,0,0,1,2.83,1.63c.76,1.09,5.76,10.22,11.3,15.32S88.61,114.3,88.61,114.3c.76.11.11,5.11,1,7.06s4,4.78,10.43,4.46,7.93-.87,9.24-3.59.76-6.74.76-6.74l12.28-4.67c4.13-1.85,17.17-12.39,17.17-12.39,2.93-3.8,5.43-10,6-10.65s5.22-1.3,5.87-1.85,1.52-3.69,1.09-6a5.25,5.25,0,0,0-2.72-3.37s-3.15-1.41-4.46-8.15-5.32-9.24-7.17-9.78-14.45-1.41-14.45-1.41c-.54,0-2.06-1.2-3.15-4.13s-7.39-15.32-7.39-15.32c-2.5-2.93-.76,8.37-1.09,11.85s.76,6.09-4.89,7.5S89.81,58.77,87.85,58s-4.35-6.09-4.35-6.09-.22,5.22-2.83,6.41S72,57.58,72,57.58a7.41,7.41,0,0,1-5.65,3.8C62,62.14,57.32,60.62,56.56,62.9Z" fill="#f7dfcb"/>
  <path d="M44.38,61.27c1-.58,2.61-5.76,2.83-9.45a28.6,28.6,0,0,1,4.24-12.39A86,86,0,0,1,59.82,29.1c2.28-2.39,7.39-4.89,11.41-5.65s9.45-3.8,13.91-5.11,11.3-2.06,16.19.11a14.67,14.67,0,0,1,7.93-1.3,87.19,87.19,0,0,1,23.8,7.61c7.93,4.13,15.65,15.54,16.52,17.82s3.48,13.26,4.13,15.65a10.57,10.57,0,0,0,7,6.41c3.26.76,6.41,1.2,8-.43s2.93-3.37,2.83-4.35-9.67-7.82-11-8.8,5-.22,7.28-2.39,3.8-7.72,3.48-10.54-1.2-2.5-1.2-2.5S152.4,42.25,152,41.27,149.14,30.41,146.32,27s-13.8-17-31.19-18.91S80.35,9,74.81,11.28a34.83,34.83,0,0,0-9.56,6.09s-7.39,1.41-10.43,4-9.56,10.76-11.3,17.06-3,13.26-1.41,18.15S43.08,62,44.38,61.27Z" fill="#fd8204"/>
  <path d="M112.74,72.84s3.15-4.35,7.61-4.89,6.74.11,8.37,1.85,3.37,2.83,3,3.8-1.52,1.52-4.78,2.06-4.35,1.63-7.61,1S113.39,73.93,112.74,72.84Z" fill="#fff"/>
  <path d="M117.63,70.62c-.22.51-.76,2.06.87,4.13s4.78,1.3,5.54,1a3.45,3.45,0,0,0,2.28-3.26c-.11-2-.22-3.69-1-3.91S119.26,66.92,117.63,70.62Z" fill="#a9d2f1"/>
  <path d="M69.92,73.71s3.15-4.35,7.61-4.89,6.74.11,8.37,1.85,3.37,2.83,3,3.8S87.42,76,84.16,76.54s-4.35,1.63-7.61,1S70.57,74.8,69.92,73.71Z" fill="#fff"/>
  <path d="M74.81,71.49c-.22.51-.76,2.06.87,4.13s4.78,1.3,5.54,1a3.45,3.45,0,0,0,2.28-3.26c-.11-2-.22-3.69-1-3.91S76.44,67.79,74.81,71.49Z" fill="#a9d2f1"/>
  <path d="M71.44,126.15s-1,1.74.33,5.32,6.52,12.28,10,15.65a43.79,43.79,0,0,0,6.85,5.22c.43.43,1.52,9,2,12.61s-.11,12.39.54,13.37,3,1.85,6.74,2.28,11.08,0,12-1.41.11-3,.65-7,.65-16.63,3-18.8,10.43-8,12.06-11.41,4.46-12.39,4.67-14.89-1.2-3.48-3.48-2.83-7.72-2.39-9.89-2.72a46.81,46.81,0,0,0-7,0s-2.5,4.13-6.63,4.46-11.19-.87-13.15-3.48-5.11-1.41-5.65-1.2S75.79,124,75,124.19,71.44,124.52,71.44,126.15Z" fill="#fff"/>
  <path d="M61.55,159.18c.65,3,2,19.45,2.61,22.17.27,1.13.75,3.05,1.25,5l.06.06c1.27.56,2.49,1.3,3.75,1.83-.41-.21,1.21.16,1.36.19.5.1,1,.18,1.5.26a45.12,45.12,0,0,1,7.24,1.75,48.09,48.09,0,0,0,6.05,1.81,69,69,0,0,0,8,.41c4.37.23,9.31.75,13.21.22,5-.67,10.35-1.3,15.27-2.21A82.87,82.87,0,0,0,134.33,187c1.51-.53,3-1.1,4.45-1.59a4.48,4.48,0,0,0,0-1.7c-.33-2-1.2-15.76-1.74-19.67s-.65-18.69-.22-23.47,1.85-9.67,1.2-11.74-5.65-8.26-7.28-3.15c-.1.31-1.41,12.28-5.65,17.39s-11.41,9.35-12.28,11.52-1.85,17.28-2.28,20.1.11,4.24-4.24,5.43-11.85.11-13.58-.43-2.06-2.06-2.28-4.35.22-17.6-.65-19.34-.76-3.15-1.74-3.59-8.15-5-10-8.26-6.52-13.69-7.17-16.41-4.89.76-5.54,1.52a17.19,17.19,0,0,0-2.17,8.48C63.29,141.36,60.9,156.14,61.55,159.18Z" fill="#fd8204"/>
  <ellipse cx="84" cy="175.7" rx="5.92" ry="7.17" transform="translate(-64.26 49.42) rotate(-24.02)" fill="#fff"/>
  <ellipse cx="116.16" cy="177.98" rx="7.17" ry="5.92" transform="translate(-85.68 244.55) rotate(-75.12)" fill="#fff"/>
  <ellipse cx="129.75" cy="149.62" rx="7.17" ry="5.92" transform="translate(-48.17 236.6) rotate(-75.12)" fill="#fff"/>
  <ellipse cx="65.19" cy="147.23" rx="7.17" ry="5.92" transform="translate(-93.84 172.44) rotate(-75.12)" fill="#fff"/>
  <path d="M41.67,45.62l-3.8,9.67c-.87,4.56-2.06,18-2.06,18-.54,4.13-1.3,10-.87,14.13,0,0,.22,10.32,1.2,17.28s3,14.67,6.3,18.15,5.87,3.91,7,3.8,2.28,1,3.26,2.17,4.78,4.46,7,4,4.13-2,4.46-3.26,3.69-2.93,5-3.48,13.26-3.91,14.34-4.35,4.89-1.85,5.32-2.5,2.17-3,0-4.46S71,110,64.71,101.7s-9.13-12.82-9.13-12.82-3.8-.22-4.89-3.26-2-8.15-1.09-9.56,4.35-3.37,4.78-4.35,2.28-8.8,2.93-9.56-.87-1.3,1.85-1.3,6.52.76,8.91-.33,4.56-3.59,5.65-3.26,5.11.76,5.11.76c1.85-1.09,5.11-7.5,5.43-7.5s2.61,7.39,3.59,7.5,11.41,1.41,17.5-.22,7.39-4.35,7.39-4.35c.76-2.17.22-13.91-.54-15.32s3,1.41,3.69,3.59,4,13.37,5.76,14.56,12.93.22,16.19,1.85,4.13,2.39,6,5.54,1.85,8.69,2.72,10.22,4.46.76,5.22,3.15,1.09,4.46.11,6-2.28,3.37-3.69,4.13S143.6,95,139,99s-16.19,12.5-21.84,14.13-7.28,2-7.17,2.93-.33,3.48,3.69,4.89,12.93,2.39,14.56,2.72,5.76.87,9.35,2.83,5,2.72,5.87,2.39,6.09-2.93,9.35-4.78,6.85-7.17,7.93-10.65,1.63-17.06,1.09-23.36-1-20.65-2.72-24.45A26.66,26.66,0,0,0,155,59.42c-.22-.43-2.72-13.58-3-14.13S142.73,32,138.39,28.67s-17.71-10.32-29.45-10.76-19.24-.43-20-.22S73.4,24.1,71.44,24.32s-9.13,3.48-9.13,3.48c-3.26,3.37-9.45,10.32-10.22,11.3s-2.93,2.83-3.26,6.19-1,12-3,14.45-3.37,3.37-3.37,2.61S38.52,50.4,41.67,45.62Z" fill="#efb000"/>
  <path d="M106.87,22s-6.41-.11-11.08,3.26S86.66,35,85.57,37.69c0,0-3.15-5.43,1.85-11.85A26.8,26.8,0,0,0,74.49,40.08c-3.69,10.11-2.28,16.3-2.28,16.3s-3.48-6-3.91-10S70.47,29,71.12,27.69,62,30.41,58.73,39.54s-4.46,15.87-3.8,18.8c0,0-2.06-.76-2.28-4.78s-.87-2.06-.87-2.39-1.2,7.5-2.5,11.19A35.22,35.22,0,0,1,42.65,73c-2.93,3.48-6.09,5.43-6.63,10.11s-1.09-5.76,1.09-10,6.52-8.15,7.06-9.56,2.06-4.78,2.83-7.39,1.2-10.87,3.8-15.65,8-11.85,12.82-14.56A36,36,0,0,1,74.7,22.37S86.11,16,91.22,16.71,104.59,18.89,106.87,22Z" fill="#f6c966"/>
  <path d="M106.11,18s5.76-1.3,14.67,1.52A66.84,66.84,0,0,1,141.32,31C144.47,33.67,149,41.6,149,41.6l1.2,2.83s-8.26-9.35-13.8-13S122,25.19,121,25.08s8,4.35,9.67,14.56c0,0-8.37-12.61-23.8-17.6Z" fill="#f6c966"/>
  <path d="M147.19,91.26s2.93.11,5.54,8.26,1.41,14.67,1.2,17.93-.22,3.8,1.3,3.69-2.93,2.93-4.46,3.59-2.72-.22-2.28-1.63,3-8.69,3.59-11.08-.76-11-1.85-13.69S147.19,91.26,147.19,91.26Z" fill="#f6c966"/>
  <path d="M47.6,177.91c-1-1.41.72.22,0-.26.58.4,1.18.78,1.78,1.15A37.54,37.54,0,0,0,54,181.41c.13,0,.45.16.63.21l1.84.47a33.74,33.74,0,0,1,3.7,1.12A18.32,18.32,0,0,1,63.64,185c-.61-5.59-1.32-12.34-1.32-13.27,0-1.63-.65-17.82-.43-22.28S63,133.86,63,133.86s1-4-3,0c-.55.55-5.32,5.65-6.41,11A107.06,107.06,0,0,1,48.84,161c-1.07,2.63-3,9-4.28,14A9.7,9.7,0,0,1,47.6,177.91Z" fill="#fff"/>
  <path d="M137.19,161.17c.29,2.24,2.45,15.4,2.53,16.79.06,1.05,2.09,4.59,3.21,6.48l.81-.09c3.34-2,6.83-3.73,10.42-5.49,2.86-1.4,4.08-3.12,6.13-5.57,1.32-1.58,5.59-6.92,5.11-7.07a13.76,13.76,0,0,1-2.93-3.59c-.86-1.79-6.64-13.57-7.25-14.92s-8-12.18-9.62-14.67-4.93-4.65-6.44-4.48-1.22,7.58-1.22,7.58C135.89,139.89,136.91,158.93,137.19,161.17Z" fill="#fff"/>
  <path d="M68.32,65.64a22.21,22.21,0,0,1,6.19-2.53c3.5-.82,6.11-.73,6.44-1.39s-1.06-1.63-3.59-1.47S69.7,62.71,68.32,65.64Z" fill="#692f23"/>
  <path d="M122.19,61.57S129,63.36,130.43,64a10,10,0,0,0,2.45.9c.24,0-.49-2-3.34-3.26S124.39,59.61,122.19,61.57Z" fill="#692f23"/>
  <path d="M100.13,88.71a20.71,20.71,0,0,0,4.73-.27c1.58-.43,1.47-.49,1.74-.22s-1.3,1.41-3,1.74-3.91.43-4.78-.11-1.36-1.09-1.09-1.25A23.18,23.18,0,0,1,100.13,88.71Z" fill="#692f23"/>
  <path d="M94.26,103.49s2.5.33,5.27.49a29.36,29.36,0,0,0,7.55-.87c1.36-.33,2.83-.43,3-.11s-1.58,1.79-6,2.39a18.76,18.76,0,0,1-8.8-.82C94.32,104.2,92.58,103.22,94.26,103.49Z" fill="#692f23"/>
  <path d="M84.7,96.48a2.49,2.49,0,0,0-1.63.54c-.54.49-1.14-.54-.49-1.3s1.85-.43,3.31.16,3.86,2.77,13.1,2.77a45,45,0,0,0,15.81-2.5c1.09-.38,3.37-1.9,4.56-2A3.15,3.15,0,0,1,122,95.66c.16.54-.76.22-1,.05a2.45,2.45,0,0,0-1.74-.43c-.54.22-6.79,4.18-13.53,5.16a35.7,35.7,0,0,1-13-.38C90.62,99.69,85.41,96.59,84.7,96.48Z" fill="#692f23"/>
  <path d="M130.67,69.09a8.74,8.74,0,0,0-3.09-1.45,14.11,14.11,0,0,0-3.07-.44,15,15,0,0,0-7.79,1.71l-.23.12a7.58,7.58,0,0,0-4,4.78c-.54,1.63.22,2.12.82,1.9a5.49,5.49,0,0,1,3.21.33c1.47.49,3.15,1,3.15,1a20.26,20.26,0,0,0,9.56-1.09,4.82,4.82,0,0,0,3.15-3.26C132.35,72,132.84,70.83,130.67,69.09Zm-13.1,5.76a4.44,4.44,0,0,0-2.5-.22c-.71.27-1.41.16-1-.92s2.83-3.1,2.83-3.1h0c-.56,2.6.35,3.84.84,4.3Zm4.84.69a5.86,5.86,0,0,1-1.37-.13l-.26-.07c-2.12-.65-2.34-1.6-2.61-2.88a1.89,1.89,0,0,1,.66-1.95.88.88,0,0,1,1,0c.52.37.14.71,0,1a1.64,1.64,0,0,0,.24,1.53A2,2,0,0,0,122,74a2.1,2.1,0,0,0,1.74-1.46c.13-.56-.52-1.34-.07-1.92a.78.78,0,0,1,1.12-.08h0c.82.71.54,2.12-.11,3.37A2.68,2.68,0,0,1,122.42,75.55Zm6.62-1a5.9,5.9,0,0,1-3.91,1.2H125a6,6,0,0,0,1.62-2.66,4.1,4.1,0,0,0-.55-3.46c1.21.11,2.8,1.91,3.38,2.54S130.07,73.66,129,74.58Z" fill="#692f23"/>
  <circle cx="123.33" cy="71.62" r="0.84" fill="#fff"/>
  <path d="M89.55,72.65A8.49,8.49,0,0,0,85,67.44c-2.2-.86-6.93-.65-10.84,1.26a10.23,10.23,0,0,0-5.22,5c-.37.65.24,1.3.73,1.55a10,10,0,0,0,4.85,2.28,25.89,25.89,0,0,0,4.12.69,24.61,24.61,0,0,0,6.48-1.18,6.38,6.38,0,0,1,2.53-.57,3.44,3.44,0,0,0,1.92-.33C89.92,75.87,90,74.45,89.55,72.65Zm-18.46,2L71,74.58h0s-.84-.37,0-1.22a8.54,8.54,0,0,1,2.69-2l.06,0a4.54,4.54,0,0,0-.26,2.43,5,5,0,0,0,1,2.54A19.47,19.47,0,0,1,71.09,74.67Zm11.53-1.08a3.14,3.14,0,0,1-1.79,2.32,4.62,4.62,0,0,1-4.36-.37A4,4,0,0,1,75,72.25c.12-.29.29-.65,1.1-.61.39,0,.58.36.68.72a1.93,1.93,0,0,0,.2,1.14,2,2,0,0,0,2,1.08,1.92,1.92,0,0,0,2.16-1.32,3.13,3.13,0,0,0-.18-2.08c0-.06.08-1,1.41-.08l.06,0A4,4,0,0,1,82.62,73.59Zm5.54,1.87c-.33.08-.69-.33-1.3-.16s-2.59.79-4.09,1.18a5.35,5.35,0,0,0,1.6-3.1,5,5,0,0,0-.94-3.6l.2.05a7.1,7.1,0,0,1,4.73,5.09C88.41,75.34,88.49,75.38,88.17,75.47Z" fill="#692f23"/>
  <circle cx="81.15" cy="72.03" r="0.84" fill="#fff"/>
  <circle cx="92.58" cy="152.55" r="0.84" fill="#692f23"/>
  <circle cx="101.36" cy="149.05" r="0.84" fill="#692f23"/>
  <circle cx="109.04" cy="152.2" r="0.84" fill="#692f23"/>
  <circle cx="100.73" cy="159.29" r="0.84" fill="#692f23"/>
  <circle cx="93.26" cy="165.6" r="0.84" fill="#692f23"/>
  <circle cx="107.74" cy="164.97" r="0.84" fill="#692f23"/>
  <circle cx="100.21" cy="171.22" r="0.84" fill="#692f23"/>
  <circle cx="93.21" cy="175.54" r="0.84" fill="#692f23"/>
  <circle cx="107.33" cy="175.38" r="0.84" fill="#692f23"/>
  <path d="M165.05,165.66a29.1,29.1,0,0,0-1.42-3.1c-.09-.19-4.31-8.08-5.82-11.18a165.93,165.93,0,0,0-9.15-15,14.32,14.32,0,0,0-2.18-3s-3.75-3.1-1.71-4.56,5.22-2.69,8.39-4.4,4.08-2.45,7.09-8,2.93-17.12,3.18-24.21c.24-6.83-1.95-23.54-3.2-26.75h0a21.46,21.46,0,0,0,5.22,1.55c2.53.33,3.42,0,4.81-1.39s3.26-4.73,3.26-6.11-7-4.51-10.19-8.22h.25l2.79-.82a6.26,6.26,0,0,0,2.19-.65c4-2,4-7.91,4.08-10.35s-.24-7-.73-5.87-2,1.14-3.75,1.87c-1.31.54-4.37,1.38-5.91,1.79a3.22,3.22,0,0,0-.93.25c-3.1,1.22-7,3.18-8.07,2.69s-1.14-3.67-1.22-4.16a.24.24,0,0,0,0-.07,58.46,58.46,0,0,0-7.55-12.64C140,18,124.39,9.73,116.81,7.37S89,5.82,80.38,8.92s-14.18,5.22-17.2,8.8c0,0-3.91-.41-9.13,3.1S43.13,36.55,41.75,42.25s-3.83,7.25-4.48,11.66-1.47,16.3-1.63,18.75a1.23,1.23,0,0,0,0,.43l0,.06c-1.14,2.69-1.71,9.7-1.79,15.73s-.24,12.39,1.39,19.32A40.31,40.31,0,0,0,41.5,122.7c2,2.77,3.67,5.3,9.21,6a16,16,0,0,0,6.36,4.65s-2.85,7-4,10a6.47,6.47,0,0,0-.23.72,58.5,58.5,0,0,0-2.39,11.59c-.08,1.39-2.2,4.48-2.93,6.36C47,163.4,44,173.46,44,173.48a3.08,3.08,0,0,0,.57,2.13c2.23,4.12,10,6.6,19.15,10.59,10.51,4.61,17.42,6.54,25.61,7.29a115.52,115.52,0,0,0,23.09-.14c5.38-.77,19.32-3.32,26-6.1a114.75,114.75,0,0,0,15.75-7.61C163.08,174.22,165.35,166.6,165.05,165.66ZM144.2,125.55c-2.45,2-2.36,2.28-3.26,2s-2.93-2.28-2.93-2.28a10.63,10.63,0,0,0,3.42-4.73c.9-2.85-.24-9.54-1.47-10.92s-.08,5.54-1.71,9.62-3.34,5.05-3.34,5.05a37.72,37.72,0,0,0-7.91-2c-2.93-.16-3,.08-3.75-.08s-5.62-2.53-9-3.18c-2.59-.5-3-.37-3.09-.29l.52-3.33c1.55-.53,3.59-1.32,6.4-2.33,4.56-1.63,12.63-4.89,16.87-8.8,4.08-3.77,9.3-9.73,10.55-12.06.32-.1.75-.06,1.27.57,1.14,1.39,5.38,10.68,3.26,18.91S146.65,123.51,144.2,125.55ZM96.82,151.47a28.68,28.68,0,0,0,2.78,1.84,67.69,67.69,0,0,1-8.9,4.4,39,39,0,0,0-1-4.49,3.79,3.79,0,0,0-.18-.43v-.07q0-.1,0-.22a57.42,57.42,0,0,1,1.18-6.19A50.78,50.78,0,0,0,96.82,151.47Zm-4.31-5.38a34.79,34.79,0,0,0,6,1.3,31,31,0,0,0,9.82-.21,63.19,63.19,0,0,1-7.1,5.11l-.12-.07A49.57,49.57,0,0,1,92.51,146.09Zm8.17,9c.27-.16.59-.37,1-.61,3.5,1.86,7.22,3.42,8.6,4,0,.18-.42.65-2.33,1.91s-5,3-7.75,4.54A64.17,64.17,0,0,1,91,159.54l0-.12A81.17,81.17,0,0,0,100.68,155.05Zm-.43,12a46.84,46.84,0,0,0,8.48,2.88c-.38.38-2.83,2.23-2.83,2.23a49.33,49.33,0,0,1-5,2.92,74.36,74.36,0,0,1-8.28-4.5s3.49-1.52,7.48-3.6Zm-2-1.13c-.95.5-1.79.93-2.43,1.24-1.84.88-3.4,1.56-4.22,1.91.07-1.4.11-2.76,0-3.91s-.2-2.37-.39-3.74C92.23,162.11,95.6,164.29,98.27,165.88Zm-6.78,5.82c.83.52,4,2.52,7.24,4.4a50.21,50.21,0,0,1-5.49,2.16,3.66,3.66,0,0,1-1.52-1.65A15.28,15.28,0,0,1,91.48,171.7ZM98.94,178c.47-.23,1-.51,1.62-.83a45.43,45.43,0,0,0,4.61,2.36c-.38,0-.77.08-1.17.1a79.84,79.84,0,0,1-8.45-.35h0A18.48,18.48,0,0,0,98.94,178Zm3.79-2.06a63.27,63.27,0,0,0,7.1-4.64c0,2.39-.07,4.53-.62,5.66a4.26,4.26,0,0,1-1.19,1.51C107.12,178,105.07,177.07,102.73,175.93Zm7.07-10.88c0,1,0,2.15,0,3.29a44.24,44.24,0,0,1-7.57-2.53,58.37,58.37,0,0,0,5.31-3.26,28.93,28.93,0,0,0,2.81-2.2A30.68,30.68,0,0,0,109.81,165.05Zm-6.59-11.71a72.26,72.26,0,0,0,8.28-6.76l.91,6.29a11.56,11.56,0,0,0-1.18,3.55c0,.2-.08.41-.13.61C109.93,156.56,106.91,155.29,103.21,153.34Zm-.25-8.52a24.83,24.83,0,0,1-16.67-5.91,20.91,20.91,0,0,1-6.11-9.09c-.29-1-.37-1-.37-1s-1.63-3.42-1.3-4.24,7.82-3.5,9.29-3.42,1.87,2.61,4.56,4a4.67,4.67,0,0,0,1,.39,22.17,22.17,0,0,0,7.52,1.32,14,14,0,0,0,8.39-2.61c1.22-1.06,1.14-2.2,2.61-2.61s7,1.22,8.56,1.63,2.53,1.14,2.28,2.77c-.53,2.49-5.75,13-7.95,15S109.76,144.78,103,144.83ZM77.31,129.57c0,.56-2,3.34-2.82,4.52a49.5,49.5,0,0,1-2.18-5.33,4.75,4.75,0,0,1,0-.64C73.63,128.34,77.36,129,77.31,129.57Zm-4.8-2.93a2,2,0,0,1,.53-.76,3.1,3.1,0,0,1,2.45-.73c.49,0,.9,1.47,1.22,2.36v0Zm5.59,4.7c.6,1.43,1.31,3,2,4.26l-4,0Zm3.2,6.46a4.1,4.1,0,0,0,.42.55c.06.87-1.54,4.25-2,5.13A44.76,44.76,0,0,1,75.86,137,9.43,9.43,0,0,1,81.3,137.79Zm1.54,1.67c1.18,1.14,2.86,2.7,4.3,3.85-1.57.24-5.6,1.15-5.6,1.15Zm-1.08,6.46c1.85,0,7.17-1.47,7.28-1s-.74,4.2-1.14,6.07c-.75-.6-1.75-1.27-3.08-2.18a17.59,17.59,0,0,1-3.11-2.85ZM56,75.59c-.16-1.55-2.77-1.79-2.77-1.79,1.47-1.06,3.42-5.3,4.08-6.85s.49-3.5,1.3-4.16,3.67.49,7.74-.33,5.54-3.26,5.54-3.26a1.71,1.71,0,0,0,1.14.57c.65,0,7.82.65,8.64.08s1-4.89,2-5.3,1.71,3.26,1.71,3.26.41,1,6.28,1.63,20.47-.54,21.6-3.59c.82-2.2.41-10.51.16-12.39a35.1,35.1,0,0,0-.93-4c.19-.08.4-.19.77.26a50.9,50.9,0,0,1,4.81,10.35c2.36,6.68,2.45,7.58,3.5,8.15s6.85-.9,14.59,1.55,7.34,5.79,8,8.56.65,5.87,2.45,7.66,4.16,1.71,4.24,2a9.17,9.17,0,0,1,1.22,3.59,4.66,4.66,0,0,1-2.61,4.32,6.37,6.37,0,0,1-4.08.41s-4.56,10-9,14.26S115.59,113,108.58,114.38s-17.93-1-23.15-2A42.26,42.26,0,0,1,59.6,93.84a35.49,35.49,0,0,1-3-5.95,6.61,6.61,0,0,1-4.08-1.63c-1.47-1.55-2.53-2.93-2.36-7,.16-3.5,2.2-3.59,3.42-3.5S56.18,77.14,56,75.59ZM67.13,35.72a25.12,25.12,0,0,0-.2,10.85c1.3,7.09,3.34,7.25,3.67,9.78s-1.3,2.53-4.32,3.26-8.48.16-8.48.16c-3-1.55-3.42-2.45-4.08-9S54.3,41,56.5,35s10.27-9.21,12.23-9.86S72.8,23.75,70.44,27,67,35.65,67,35.65ZM91.3,121.8c-1.71-3-.73-5.95,0-6.19s2.85.82,6.44,1.06a70.46,70.46,0,0,0,11.25-.43c.31.13.65.48.65,1.41,0,1.71.49,4.56-3.59,5.71s-5.87,1.53-9.08,1.4l.11-.09S93,124.82,91.3,121.8Zm33.22,7.51a26.73,26.73,0,0,0,2,5,21.61,21.61,0,0,0-4.66.49l0,0A36.54,36.54,0,0,0,124.52,129.31Zm-5,9.6c.24,1.19,1,4.88,1.18,5.34s-3.46-.55-5.32-.59A19.86,19.86,0,0,0,119.5,138.9Zm-6.22,6.31,7.41.77c-.28.29-.57.58-.88.86a54.15,54.15,0,0,1-6.23,4.87l-.74-6.23Zm7.37-8.2.27-.47a50.34,50.34,0,0,1,6-.49c-.1.24-.2.47-.3.69a34.37,34.37,0,0,1-4.16,7.18C122,142.23,120.86,138.21,120.65,137Zm4.91-8.31c0-.69,2.7-.76,3.81-.85-.19.83-.7,3-1.39,5.24C127.19,131.88,125.52,129.37,125.56,128.7Zm-.53-1.37c.17-.93.71-2.8,2.38-2.68,1.45.11,1.84.85,2,1.65A27.1,27.1,0,0,0,125,127.33Zm45.49-67.8c.33,2.2-.73,3.67-3.26,4.24a7.72,7.72,0,0,1-3.48.11,1,1,0,0,0-.36-.11c-2-.33-4.32-2.36-6.36-3.91s-2.36-4.08-1.55-4.89,1.3,0,2.61.33,4.24,2.85,4.16,2.36a6.72,6.72,0,0,0-2.69-3.26c-1.71-1.14-3.91-2.28-3.18-2.85a6.19,6.19,0,0,1,5.05,1.14C164.25,54.56,170.2,57.33,170.53,59.53ZM153.25,43.88c.33-1.55,8.88-3.83,8.88-3.83,2.61-.73,8.4-3.59,8.4-2.61s-.16,6.36-1.63,8.64c-.93,1.44-3.18,2.2-4.72,2.56l-.33,0a25.26,25.26,0,0,1-8.56-.16c-2.36-.57-1.47-1.55-.08-2.45s6.11-1.14,5.13-1.39-3.42.16-4.81.24S152.92,45.43,153.25,43.88Zm-2,16.46c-.08,2,1.55,7.5,1.55,7.5a13.9,13.9,0,0,1,1.79-7.42,8.05,8.05,0,0,0,1.63,2.77,7.78,7.78,0,0,0,.82,3.42c.9,1.87,2.61,5.38,3.34,12.55s-.16,20.21.08,23.8.24,11.41-3.75,15.73-5.13,5.05-6.68,4.81.82-3.26,1.3-5.62a31.23,31.23,0,0,0,1-12.39,42.07,42.07,0,0,0-4-14,5.19,5.19,0,0,1-.9-3,3.93,3.93,0,0,1,.82-.9c1.06-.82,1.47-.24,2.93-1a3.82,3.82,0,0,0,1.87-1.79s.82,6.28,1.55,8.07.65-2.53.82-3.34-1.63-11-2.61-12.88-3.18-.57-5.22-2.77c0,0-1-7.34-2.12-9.62s-3.5-4.48-3.83-5.62.33-6.52-.9-11.33-5.54-10.76-7-11.66-2.45-.73-1.22.9,5.54,7.74,6.52,13.69-.49,6.19-2.61,6.76-10.35-.49-12.39-1.06-2.12-1.39-3.5-4.89-6.44-15.65-9.37-18.58a5.87,5.87,0,0,0-2.36-2c1.39,2.36,3.59,21.19,2.28,23.23A5.43,5.43,0,0,1,107,55.78c-7.91,1.79-19,2-20.46-.33s-1.22-13-1.71-12.88-3.5,13.2-4.16,13.69-7.34,1.39-8.56-.9a38.73,38.73,0,0,1-3.34-10c-.65-3.25.47-8.9.94-11a6.92,6.92,0,0,0,.2-.86c.65-3.83,2.45-7.82,11.08-12.14s16.06-2.12,19.48-1.55,6.11,3,6.52,2.2-.73-1.47-.57-2.69,3.5-.9,3.5-.9c6.36-.41,20.38,5.22,27.3,10.6s12.39,14.18,13.45,19.32A47.26,47.26,0,0,1,151.29,60.35ZM47.45,32.63c3.26-5.62,5.62-9.21,11.82-11.41s7.58-1.47,10.11-2.2,4-1.39,4-1.63S69.13,18,69.05,17s-.08-2,4.24-3.34,6.52-2.53,9.7-3.34S95.13,8.51,103.2,8.92s10.35.16,13.61,1.3,9.37,4.4,12.39,5.62,9.94,3.59,13.53,8.64,6.11,10.84,6.44,11.08l.08,0c1.11,2.69,2.32,8.72-.16,4.68-2.61-4.24-9.78-11.74-9.78-11.74C126.68,18.94,114.94,17,110.21,16.5a22.49,22.49,0,0,0-8.31.65c-1.47-.08-5.95-2.12-11.33-1.55s-11,3.91-11,3.91c-8.8,2.2-15.65,4.89-19.07,7.91s-8.4,8.07-11.08,14.26A67.91,67.91,0,0,0,45.5,56v0a41.73,41.73,0,0,1-1.25,4.3,30.17,30.17,0,0,1-1.94-9.13C42.07,46,44.19,38.26,47.45,32.63Zm-6.85,16.3a28.25,28.25,0,0,0,.24,7.17c.6,2.77,1.27,5.61,2.07,7a24.52,24.52,0,0,1-3,4.41l-1,1.07C38.58,67,37.66,59.78,40.61,48.94Zm12.47,77.51A88.11,88.11,0,0,1,47,112c-.41-1.55-1.39.08-1,2a50,50,0,0,0,3,8.07c.82,1.55.57,2.85-.49,3.42s-3.59.24-5.87-3.59-5.38-9.13-5.95-16.22-1.14-19.56-.65-23.88.82-6,2.61-8.88,4.16-6.36,5.87-9.37c1.62-2.86,2.66-3.16,2.69-5.62a2.85,2.85,0,0,0,0-.41s0-.09,0-.13C47.21,54.7,49.53,43,51.53,41s1,1,.16,5.46a26.66,26.66,0,0,0,1.06,12.23c1,3.18,3.1,3.5,3.1,3.5-.41,1-.16,2.61-1.87,6.44s-2.45,3.59-4,5.05-3.91,2-5.79,4.56.33,1.47.33,1.47c1.06-1.39,1.55-1.3,3-2s.9,1.3.9,1.3-.49,3.42.24,5.38a11,11,0,0,0,1.39,2.77s-2.53,5.05-3,8.07,0,8.64.65,9.37.08-2.77.33-4.32S50.55,91,51.94,88.71a6.61,6.61,0,0,1,3.59,2c1.3,1.63,6.28,9.86,9,13s10.68,7.66,21.19,11.41c0,0,2.28-.08,2.53,1.39s.49,2.85-1,3.34-11.57,3.26-12.39,3.67-7,1.39-8,2-2.2.41-3.59-2.28-3.42-4.73-5.22-14c0,0-.41-4.4-1.14-4.65s-.65,6.93-.16,9.7,1.87,9.7,6.85,12.88a3.93,3.93,0,0,1-2.77,3.5C58.29,131.26,56,131.74,53.08,126.45ZM46,171.82h0c1.55-4.37,3.81-9.72,4.22-10.9A28.72,28.72,0,0,0,52,154.16a41.3,41.3,0,0,1,2-7.34l0-.24c.28-.64,1.06-2.42,1.52-3.67.57-1.55,1.79-5.62,4.48-7.5s2.45.16,2.28,1.06-1.87,9-1.47,13.29-.08,8.39.33,10.92-1.22,2.45-1.71-1.87-1.3-5.38-2-3.34.33,6.28,1.06,7.58c0,0,2.77,9.62,3.34,13,.24,1.42.65,4.8,1,7.83a89.25,89.25,0,0,1-16.18-8.15C45.08,174.45,46,171.82,46,171.82Zm51.85,20.32A82.36,82.36,0,0,1,70.12,187c-1.21-.42-4.44-1.38-4.58-2.2-1.29-7.67-2.11-19.14-2.11-19.14a2.52,2.52,0,0,0-.24-1.63s-.9-10.84-.08-18l.82-7.17s.16-6.52,1.79-8.64A7.11,7.11,0,0,1,70,127.83a40.51,40.51,0,0,0,4.24,11c3.26,5.83,6.4,9.9,8.52,11.29s3.55,2.32,5.34,3.38c0,0,.61.86,1,5.87s.53,16.1.45,17.32.57,2.24,2,3.26a8.08,8.08,0,0,0,3.79,1.1,67.16,67.16,0,0,0,8.27.52c1.85-.22,5.33-.76,7-2.45s1.2-6.9,1.2-8.42.16-8.59,1.14-12.55,1.63-4.13,4.35-6a46.61,46.61,0,0,0,7.88-7.82c2.28-2.72,5.6-12.06,5.87-15.32l.65-3.18s3.67,0,5.05,1.87.08,6.93.08,6.93c-1.28,3.83-1.77,24.8-1.33,27s1.63,5.71,1.9,8.31.7,14.67.69,14.86-.21,1-1.47,1.32c-4.5,1.51-7.07,2.14-8.4,2.52C126.51,189.12,111.51,192.48,97.85,192.14Zm42.68-7.49c.11-.76.53-.72.78-.62l.15.24Zm6.94-3.35c-1.47.83-2.94,1.57-4.36,2.23a28.78,28.78,0,0,1-2.21-4.48c-.37-1.14-.39-2.34-.39-5.09,0-4.56,1.47-8.15,1.74-11.25s0-7.82-.38-7.5-1.58,6-1.79,9.4-.92,1.41-.92,1.41c-.92-1.85-.92-5-1.3-12a73.7,73.7,0,0,1,.43-13.75l.54-6s-.16-4.24,1.06-4.32,4.4,3.83,4.73,4.48a.28.28,0,0,0,.06.08c.21.28.79,1.24,1.57,2.5a94.69,94.69,0,0,1,10.27,15.11c3.87,7.54,5,10,5,10a7.69,7.69,0,0,1,.15,6.49C161,170.44,157,175.89,147.47,181.31Z" fill="#692f23"/>

</svg>
