<svg xmlns="http://www.w3.org/2000/svg" width="200" height="200" viewBox="0 0 200 200">
  <rect width="200" height="200" fill="none"/>
  <circle cx="100" cy="114.39" r="82.55" fill="#f2f2f2"/>
  <path d="M70.17,54.12s-7.1,1.29-9,2.51-5.14-.07-6.29-.3-3.77-.41-7.54,1.48S39.47,66.14,37.11,68.1,33,73,31.71,77.19s-3.33,18.64-1,24.48,3.59,15.12,9.24,21.08a124.3,124.3,0,0,0,11.32,10.35c.74.7,6.77,3.62,9.1,4.73s12.31,3.07,15.16,3.33a10.17,10.17,0,0,0,4.51-.44s7.91,5.14,15.9,5.32,22.67-5.92,25.81-7,8.87-.78,13.16-2.22,7.77-3.66,13.61-7.62,11.06-6.8,15.09-11.83,8.69-13.53,9.47-20.71.63-14.9-1.63-18.19-8.73-12.5-14-15.38-6.06-1.63-6.06-1.63c-.81.15-.85,1.66-9.84,3.25s-21.23-.22-21.23-.22c-6.4-1.37-13.42-5.1-16.49-6.21s-7.24.45-8.73-.15c-4.07-1.63-11.5-2-12.5-2.44S73.94,54.27,70.17,54.12Z" fill="#df9b50"/>
  <path d="M82.74,66.37s1.87-7.3,3.25-7,1,3.8,2.56,6.8,1.92,9.17,2.07,10.16,1.28.49,3.35,0,11.64-1.82,14.3-2.37,7.05,2,8.58,2.07,8.48.94,9.76.49,4-.69,4.63.2,4.93,5.08,5.82,6.9,1.82,5.08,2.66,6.21,2,2,5.32,1.38,6.41,1.53,6.61,3.06-1.68,9-1.68,9a31.67,31.67,0,0,1-5,3.65c-.89.84-5.92,10.35-5.92,10.35a54.84,54.84,0,0,1-7.69,6.9c-4.19,3-11.64,7.94-14.89,9.27s-1.18,3.06-1.18,3.06a2.63,2.63,0,0,1-.2,3.55A21.51,21.51,0,0,1,105,145.16c-5.13,1.18-9,1.53-13.81.3A60.54,60.54,0,0,1,80,140.72c0-.49-1.11-6-1.11-6s-11.82-5.32-12.23-5.62C60.31,124.5,53.9,114,51.28,110.15s-3.9-5.47-5.82-6.8-3.94-5.72-3.25-8A6.26,6.26,0,0,1,44.77,92s-.94-6.46-.39-8.58,7.69-4.14,10.45-4.83,13-3.16,14.1-3.55a41.78,41.78,0,0,1,5.42-.79s2.12,2.27,6.51,1.48A16.47,16.47,0,0,0,82.35,70,12,12,0,0,1,82.74,66.37Z" fill="#f5dcc2"/>
  <path d="M60.7,91.84s2-3.55,5.35-4.17,8-.44,10,1.38,3.85,4.09,3.35,4.73-2.24.71-4.61,1.41a28.36,28.36,0,0,1-9.64.3S60.26,93.51,60.7,91.84Z" fill="#fff"/>
  <path d="M103.28,93.24a7,7,0,0,1,2.32-4c2-1.68,8.85-1.26,8.85-1.26s4.91,2,5.74,3.18,1.58,1.48.32,2.29S117.35,96,114.69,96a46.88,46.88,0,0,1-7.37-1.13C106.21,94.55,102.4,95.07,103.28,93.24Z" fill="#fff"/>
  <ellipse cx="112.59" cy="91.71" rx="3.99" ry="3.53" fill="#c1e3ea"/>
  <ellipse cx="70.34" cy="90.97" rx="4.17" ry="3.9" fill="#c1e3ea"/>
  <path d="M45.17,127.71c-.25-.1-3.7,3.25-4.54,4.44s-2.71,3-2,3.85,20.06,2.27,20.06,2.27l1.61-.42s-9.34-4-10.92-5.79S45.17,127.71,45.17,127.71Z" fill="#cc351d"/>
  <path d="M151.18,127.1a24.8,24.8,0,0,1,4.7,3.63c.6.85,1.6,1.48,1.07,2.08s-15.36,2.64-15.36,2.64l-1.59-.06s6.3-4.12,7.43-5.4A21.87,21.87,0,0,1,151.18,127.1Z" fill="#cc351d"/>
  <path d="M71.13,144.05a11.71,11.71,0,0,0-5.69.89c-2.66,1.26-10.83,8-12.42,9.61s-5.62,5.47-8.58,7.1-5.1,3.85-4.73,5.55a11.23,11.23,0,0,0,5.25,7.32c3.81,2.37,12,10.21,14.63,10.73s15.77,7.48,19.61,7.7S89.45,196,89.45,196s-.32-20.62-.5-24.17-1.11-23.74-1.11-23.74S73.42,143.94,71.13,144.05Z" fill="#cc351d"/>
  <path d="M107.07,147.45s-.11,22-.15,22.26,1,26.16,1,26.16,13-2.76,15.76-3.21,18.24-8,18.79-8.28,11.2-8.42,13.2-9.71a5.08,5.08,0,0,0,2.07-4.44c-.07-.63-6.92-14-12.5-18.71s-15.68-8.87-16-8.87S107.07,147.45,107.07,147.45Z" fill="#cc351d"/>
  <path d="M88.36,156s-1.82-7.15-.52-7.89,7.32,1.18,8.51,1,10.72-1.65,10.72-1.65l-.17,27.68s5.68.48,5.76.47a1.91,1.91,0,0,0,1.37-.2,10,10,0,0,1,2.9-1.6,2.4,2.4,0,0,1,2.17,2c0,1.18.83,2.18-.88,2.43s-2.37.6-3.3.12-5.84.44-5.84.44-1.92-.33-1.77,1.59.39,14.94.39,14.94l-18.12.2L89,179l-7.84-1.55-3.48.59c-.18,0-2.59-3.11-.37-4.59s5,1.12,5,1.12l7.13,1.25Z" fill="#fd8204"/>
  <path d="M58.63,27.79c0-.18,17.71-12.46,43.86-12.57S149.3,32.08,149.3,32.08s-2.92,3.4-18.34,3.85-61.27.63-64.64-.52S58.63,27.79,58.63,27.79Z" fill="#fd8204"/>
  <path d="M55,54.64,50.3,39.25S44.73,22,45.76,21.41s5.18.84,6.8,2.27S66.81,35.8,68.24,34.82s4.39-8.28,4.83-9.76S80.72,11.54,81,11.25,93.88,21.41,93.88,21.41s9.66,10.6,11.34,10.16,15.63-13.51,15.88-13.9,6.41-4.44,6.41-4.44,7.54,12.28,8.58,14.1,4.34,8.38,4.34,8.38,17.31-8.48,22-8.38-1.63,10.6-1.58,11.24-7.15,20.56-7.4,21.3-.79,2.76-5.13,3.75-17,6.2-31.65,0c-15.83-6.71-15.89-4.17-22.19-5.92C90,56.45,85,56.86,81.06,55.23s-9.57-1.58-10.9-1.11-11,3.77-11,3.77S55.52,56.66,55,54.64Z" fill="#efb000"/>
  <path d="M49.11,33s5,19.13,5,19.43,100.78,0,100.78,0l6.21-17a9,9,0,0,0-7.1,1.28c-3.55,2.37-12.57,10.16-14.3,10.16S126.28,26,123.86,26,108,42.16,105.52,42.41,85.85,25.79,84.22,26,71,45.17,68.54,44.87,53,29.39,49.11,33Z" fill="#f6c966"/>
  <path d="M100.49,15s-2.51-1.92.07-4.36,8.51-1.11,9.54-.07,2.74,3.73,1.48,4.59S100.49,15,100.49,15Z" fill="#f6c966"/>
  <path d="M103.37,8A2.57,2.57,0,0,1,105.74,4c3.81-.26,3.59,3.14,2.59,4.22S104,8.08,103.37,8Z" fill="#efb000"/>
  <path d="M53.48,55.41c-.34-.14-5.08,1.87-7.81,3.54a15.07,15.07,0,0,0-6,9c-.73,3.51.33,9.45,1.74,11.35a21.68,21.68,0,0,0,3.47,3.54A8.87,8.87,0,0,1,50,79.46c3.31-.67,5.84-1,5.88-1.34s-1.44-4.68-1.54-6.34S54,65,55.88,62.49s3.29-4.6,3.29-4.6S55.51,56.25,53.48,55.41Z" fill="#e9b87f"/>
  <path d="M30.46,90s2.63-5.57,6.14-8.64,6.19-1,6.68.27,1,9.53,1,9.53L41.5,94.08a16.8,16.8,0,0,0-3,7.75c-.53,4.59,0,11.49,1.25,14.78s2.58,7.3,2.58,7.3a49.29,49.29,0,0,1-5.88-5.43c-1.51-2-4.64-11.8-5.75-16.81S30.5,90.34,30.46,90Z" fill="#e9b87f"/>
  <path d="M60.47,57.48c.1-.22-4.45,3.25-5.79,7.3s-.31,10.64.8,12,7.66-.18,7.66-.18c4.59-1.6,9.22-2.63,9.35-2.85s1.74-2.18,2-2.49a71.44,71.44,0,0,0,3.56-7.57c.71-1.91-2.18,5.08-5.79,5.79s-7.39-6.59-4.45-11.22a13.61,13.61,0,0,0-3.38,5.79C63.45,67.68,57.17,65,60.47,57.48Z" fill="#e9b87f"/>
  <path d="M88.89,56.8s-2.69,4.47-1.35,7.36,2.4,5.17,2.58,7.66-.13,5.52,1.34,5.52,9.26-2.4,10.42-2.76,6.14-.38,6.4-.62c1.57-1.39,2.77-5.39,2-6.6s-3.47-2.49-7.84-1.42-3.83,3.43-7,3.74c-2.59.25-6.58-7.64-3.46-12.55A2.29,2.29,0,0,0,88.89,56.8Z" fill="#e9b87f"/>
  <path d="M111.72,62.11a2.79,2.79,0,0,1,2.69,1.65c-.7,3-.61,7.24.91,8.46,4,2.82,10,4,10,4l-8.54,0-7.86-2.35Z" fill="#e9b87f"/>
  <path d="M135.72,73.33c2.27,3.38,7.66,7.75,14.6,9.35l1.87,1.69-2.32.09L134,79.21s-3.21-3.61-3.38-3.92,1.87-8.37,1.87-8.37C135.8,65.85,133.44,70,135.72,73.33Z" fill="#e9b87f"/>
  <path d="M100.1,124.65c-1.41.37-6.66.49-13.12-.39-2.7-.37-3.25-.47-3.16.3s3,1.73,5.82,2.17a25.9,25.9,0,0,0,9.47-.3c2.59-.71,3.72-2,3.6-2.42S101.5,124.28,100.1,124.65Z" fill="#692f23"/>
  <path d="M113.9,81.51a22.72,22.72,0,0,1,6.8,2.32c1.73,1.06,1.23.37,1.13.15a16.18,16.18,0,0,0-7.35-4.59c-3.46-1-5.47.15-5.13.94S112.27,81.29,113.9,81.51Z" fill="#692f23"/>
  <path d="M115.54,87.44a11.8,11.8,0,0,0-8-.63c-1.89.7-3.81,3.18-3.81,3.18a15.75,15.75,0,0,0-1.41,3.22,4.93,4.93,0,0,0-.07.89s.07.81.52.85a1.84,1.84,0,0,0,1.07,0,6,6,0,0,1,2.51.26,18.27,18.27,0,0,0,4.25,1.22,22.78,22.78,0,0,0,3.29.15,13.22,13.22,0,0,0,4.77-1.07c1.15-.57,4-2.81,3.14-3.55A28.92,28.92,0,0,0,115.54,87.44Zm-9.17,6.4-2.55-.22s-.3-.22.15-1.18a7.24,7.24,0,0,1,3.14-3.29c2-1.2,1.22.15,1.22.15a3.34,3.34,0,0,0-.92,2.66,2.85,2.85,0,0,0,1.52,2.55A12.59,12.59,0,0,0,106.37,93.83Zm10.06-1.89a3.84,3.84,0,0,1-1.15,1.92,2.13,2.13,0,0,1-1.63.85,5.09,5.09,0,0,1-2.5-.33h0a2.93,2.93,0,0,1-2.16-3c.08-1.52.88-2.26,1.7-2.12s1.16.8.67,1.07a1.46,1.46,0,0,0-.11,2.14,2,2,0,0,0,2.51.48,2.27,2.27,0,0,0,1.18-2.14c0-.33-.31-.83.48-.89S116.7,90.75,116.43,91.95Zm4,1a8.62,8.62,0,0,1-3.62,2s-.48.07.26-1.22a5.52,5.52,0,0,0,.55-2.74c0-.81.28-.65.81-.3S121.11,92.23,120.46,92.91Z" fill="#692f23"/>
  <path d="M91.1,109.48a5.7,5.7,0,0,0,5.07-1.66c.48-.46.11-.68-.7-.37a12,12,0,0,1-6.25-.26,13.32,13.32,0,0,1-2.85-1.11s-.81-.41-.26.63S88,109.13,91.1,109.48Z" fill="#692f23"/>
  <path d="M60.4,84.4a31.21,31.21,0,0,1,6.21-2.18,32.53,32.53,0,0,1,3.88-.7c.35,0,.87-.72-.89-1.15a7.8,7.8,0,0,0-4.59.15A12.2,12.2,0,0,0,59.78,84C59.6,84.23,59.54,84.83,60.4,84.4Z" fill="#692f23"/>
  <path d="M113.11,113.75a67.62,67.62,0,0,1-10.21,3.9,36.49,36.49,0,0,1-21.85-.06c-6.27-2.11-7.56-3.77-10.05-2-.12.08-1.21.62-.89,1.43s1.36-.47,1.92-.74,2.12-.1,3.7,1.08,6.14,2.91,10.35,3.75a26.79,26.79,0,0,0,10.5.35c3.6-.57,9.44-1.85,12.72-3.7s3.7-2.51,4.24-2.47.84,1.28,1.53,1a1.3,1.3,0,0,0,.2-2.17A1.57,1.57,0,0,0,113.11,113.75Z" fill="#692f23"/>
  <path d="M176.3,134.73c-.11-.81-2.92-3.18-8.51-6.73s-9.76-3.92-9.76-3.92a58,58,0,0,0,5.84-5.84s3.4-4.33,5.4-7.54,4.18-11.28,4.59-15.24a56.84,56.84,0,0,0-.39-11.69,22.28,22.28,0,0,0-3.8-9.61s-3.77-6.48-8.48-9.52-5.67-3.8-5.67-3.8-1-.47-.39-2S160.3,44,160.3,44l2.48-8c1-2.52,3-7,3.19-9.1.15-1.77-1.73-1.43-3.25-1.08s-8.38,1.87-12.82,4l-.93.45c-3-2.89-13.77-8.77-15.33-9.62-2.48-4.48-4.89-8.52-6-9-.93-.38-3.72,1.72-7,4.62a45.66,45.66,0,0,0-7.89-1.55A4.46,4.46,0,0,0,111,10.15,21.89,21.89,0,0,0,109.14,9a2.94,2.94,0,0,0,.78-2.58c-.18-2-2.14-3.62-4.73-3.55a4.11,4.11,0,0,0-3.85,3.81,2.14,2.14,0,0,0,1.15,1.93,5.78,5.78,0,0,0-3.59,2.65c-1,1.78-.86,2.77-.69,3.19-4.13.34-7.77.91-9,1.12-3.65-3.35-7.1-5.83-8.23-5.85-1.32,0-3.33,3.75-5.67,8.38a43.77,43.77,0,0,0-11.09,4.69,63.82,63.82,0,0,0-5.71,3.74c-5.14-3.94-10.81-8-12.71-7.27C42.11,20.67,47.24,32,47.24,32c0,.35,3.11,10.06,3.11,10.06l2.22,9.91a4,4,0,0,1-.26,2.45s-1.79,1.05-5.14,2.81a26.09,26.09,0,0,0-6.51,4.92,15,15,0,0,1-2.55,2.74c-1.53,1.2-4.51,5.51-4.51,5.51a33.4,33.4,0,0,0-4.5,11.4C28.26,87.45,29,97.68,29,97.68a81.72,81.72,0,0,0,2.93,12.87,29.31,29.31,0,0,0,5.32,10c.88,1.07,2,2.36,3.12,3.55-6.1,3.59-13.43,14-13.53,16.12s1.68,2.27,3.75,2.07,14,.54,29.88,1.68c1.53.11,3.05.25,4.57.4A29.92,29.92,0,0,0,60.36,147c-1.53.89-5.62,3.55-7.2,5.52S48.22,157,45,159.66c-3,2.44-7.75,6.11-8.19,6.8s.79,2.13,4.1,5.63a65.43,65.43,0,0,0,10.29,8.79,69.14,69.14,0,0,0,12.56,7.64c7.68,3.47,18,7.41,27.87,8.17,10.81.83,13.91,1,32.82-3.32,15.76-3.64,26.91-14.14,31-17.23,3.53-2.65,3.63-4,3.63-4s-2.67-10.31-12.73-20.37c-8.21-8.21-13.67-9.33-15.39-9.46l3.33-.77c17.79-4.1,36.61-5.66,38.68-5.92S176.41,135.55,176.3,134.73ZM164.78,70.81c5.6,6,6.46,9.12,6.85,11.06a1.91,1.91,0,0,0,.05.28c.08.29,1,9.5.32,15.09s-4.55,14.2-9.54,19.75c0,0-7.51,7.28-8.51,7.77s-.37-2.74.74-4.73,1.59-3.85,4.51-7.47,5.29-5.88,7-8.73a5.78,5.78,0,0,0,.63-1.52,28.57,28.57,0,0,0,1.52-7.14c.48-5.44.11-12-3.48-15.09,0,0-5.88-6.79-8.73-8.78,0,0-5.94-4.26-7-4.78s-1.21-1.11-1-1.43,2.84.89,5.08,2.12,9.12,5.45,12.38,9.42,3.11,3.75,3.11,3.75,1.43,1,0-1.38-7.84-9.59-13.76-12.87a25.9,25.9,0,0,0-3-1.77c-1.06-.47-.42-1.73,1.08-2S158.92,64.5,164.78,70.81Zm-59,104c-2.07,0-4.47.09-7.12.12,0-1.36-.2-20.46-.2-22.6,0-1.77.56-2.28.79-2.42,1.43-.33,3.72-.88,6.62-1.59.29.21.33.87.25,1.73S105.57,172,105.83,174.84Zm-9.49.13c-2.13,0-4.09,0-5.85-.07-.12-1.91-1.43-23.59-1.32-24.94s.41-1.5,1-1.44c0,0,0,0,0,0,2.2.47,3.69.8,4.18.88,1.87.3,1.68,1.77,1.68,1.77Zm17.46-35c-1.23,1.23-7.08,5.12-17,5-7.43-.11-14.38-3.34-15.4-4.23s-1.48-3.8-1.48-3.8-.1-1.11,1.13-.35,6.53,1.87,14.1,2.42,18-3,19-3.5C114.07,135.62,115,138.7,113.8,139.93Zm-.64-6.31a77.15,77.15,0,0,1-17.9,2.91c-8.68.15-17.73-2.56-25.69-7.05a38,38,0,0,1-12.33-11.39s-.27-.42-3.2-4.54-4-7.86-4.54-8.63-1.31-.69-2.32-1.18a8.08,8.08,0,0,1-4-5.28c-.42-2.76.49-3.82,1.53-4.54s2.12-.91,2-1.28a9,9,0,0,1-1.53-4.09,8.8,8.8,0,0,1,.59-4.78,8.16,8.16,0,0,1,1.25-1.85,5.66,5.66,0,0,1,2.77-1.42h0s1.11-.22,3.37-.83S68,76.57,69.87,76.23c0,0,3.27-1.22,4.22-.92s4.46,1.26,5,1.07a20.27,20.27,0,0,1,2.64,0c.72.12.57-2.19.59-3a40.53,40.53,0,0,1,1.87-8.28c1.18-3.4,1.65-3.77,2.07-4.14s0,2.32,1,4.19A13,13,0,0,1,89,70.41a36.53,36.53,0,0,1,.59,7.1c-.1,1.53.67,1.33,1.33,1s9.29-2.12,12.62-3.2a14.84,14.84,0,0,1,7.4-.39c1.23.22,3.65,1.55,6.31,2a29.27,29.27,0,0,0,7.1,0c3.14-.15,4.1-.78,4.66,0a23.51,23.51,0,0,0,4.59,3.62,8.79,8.79,0,0,1,3.77,6.06c.07,2.11,2.07,5.44,3.11,5.69s1,.89,3.48-.22a4.46,4.46,0,0,1,5.92,1.48c1.52,2,1.59,6.69-.74,9.39s-4.92,2.63-5.4,3.48a49.37,49.37,0,0,1-3,6.58c-2.44,4.51-10.13,10.5-14.57,14S113.16,133.62,113.16,133.62Zm-56.53,1.63c-1.74-1.59-5.1-7.8-6.06-9.39s-2.14-1.15-1,1,4.18,6.88,5.1,7.47A28,28,0,0,1,45,125.78l-.5-.7c-1.77-2.55-2.89-5.36-4.62-11.77-1.9-7-.59-6.36-.59-6.36a30.88,30.88,0,0,0,4.78,10.8c1.43,2.07,2.32,2.14,1.33.54s-4.24-8-5.18-13.07A18.37,18.37,0,0,1,40.83,96c.17-.67.74-1.53.44.94s1.33,5.35,2.17,6.56a13.66,13.66,0,0,1,2.12,5.42c.62,2.86,4.41,12.7,8.09,17.31s8.36,8.92,9.57,10.4-2.47.74-2.47.74A10.15,10.15,0,0,1,56.63,135.25Zm2.09,3c-3.52-.5-16.35-2.1-18.14-2.27s-.89-.89-.89-.89S42,132,43.47,130.44c1.24-1.37,2.15-1,2.37-.87a63,63,0,0,0,6,4.64A56.88,56.88,0,0,0,58.72,138.26ZM60,131.55c-2.69-2.51-6.73-9.54-7.74-11.29s-5.87-12.06-6.16-13.66.42-.57,1.77.54,6.86,10.12,8,12a2.86,2.86,0,0,0,.2.32c.13.19,6.68,8.38,12.92,12.13s7.57,3.57,8.33,4.34a7.2,7.2,0,0,1,1.27,1.93c.22.74,1.2,2.68-.77,2.6a63.46,63.46,0,0,1-8.58-1.48C68,138.6,62.7,134.07,60,131.55ZM57.45,54.34c1-.3,10.48-.79,10.7-.44s-2.07.47-3.86.92A16.05,16.05,0,0,0,59,56.71a2,2,0,0,1-2-.41,1.69,1.69,0,0,1-.49-1.17h0S56.48,54.64,57.45,54.34Zm4.88,2.92A14.81,14.81,0,0,1,67,55.55c.58-.06,1.54-.12,1.84.17s-1.87.32-4,5-.74,7.67-.3,7.64-.35-3,.89-5.52,3.38-6.53,6.85-7.59,8.41.15,9.66.79A3.28,3.28,0,0,1,84,59.27c0,1.77-1.21,3-1.87,6.16a64.74,64.74,0,0,0-.94,8.38c0,.81-1.36,1.6-3.69,1.49a2.84,2.84,0,0,1-2.7-2.37c-.13-1.37,1.9-4.92,1.48-5,0,0-1.83,3.22-3.29,4.22a14,14,0,0,1-3.85,1.77c-2,.76-8.63,2.74-10.35,3.14s-2-.22-2.7-1.33a17.43,17.43,0,0,1-1-8.69C55.71,62,59.46,59,62.33,57.26Zm84.83,29.25c-3.18-1.63-4-2.7-4.36-3.18s2.44-.52,6.29,1.63,4.22,5.47,4.51,7.1.07,3.33-.22,3.25-.4-.69-1-1.65a5.7,5.7,0,0,0-4.51-3.53c-3.37-.59-2.81.52-5,.74s-1.85-1-2.88-2.66-2-4.77-3-5.77-1.63-1.89-1.18-1.85a18.56,18.56,0,0,1,2.59,1.11,13.19,13.19,0,0,0,3.48,3.48c1.92,1.15,3.92,2.37,5.84,2.66S150.34,88.14,147.16,86.51Zm-2.4-4.81a59.16,59.16,0,0,0-8.91-3c-1.29-.3-3.25-1.15-4.29-5.25a7.68,7.68,0,0,1,1.29-5.67,1.63,1.63,0,0,1,1.62-.69c1,.27,2.81,2,3.9,6,0,0,1.06,1.77.49-1s-1.06-4-1.68-4.54.2-.67,1-.69,2.17,1.08,3.35,4.24c1,2.76,1.69,4,2.37,4.65A43.38,43.38,0,0,0,149,81.78a6.93,6.93,0,0,1,2.22,2.44S147.56,82.85,144.75,81.71ZM135.1,64.84a47.73,47.73,0,0,1-9.61-.67c-6.06-.92-10.8-2.1-10.8-2.1s-2.22-.57-4.88-1.53-4.73-2.54-6.9-3-5.65-.17-7.89-.35-12.3-2.59-13.21-2.71-2.14-.79,1.92-.64,67.25,0,67.25,0,2.79-.1,2.61,1.68-.3,4.51-6.06,7A35.44,35.44,0,0,1,135.1,64.84Zm-23.37-1.33s8.95,1.59,10.35,2,1.37,2.11,1.55,3.48.89.22.89.22c.55-2-.7-2.88.59-2.81s5.25,1,5.25,1a7.3,7.3,0,0,1-2.07,6.36c-2.24,2-4.58,1.82-5.81,2a40.68,40.68,0,0,1-4.2-.14c-3.62-.3-5.28-1.92-6.51-2.17s-1.63.15-1.63.15,1.18-1,1.38-3.85A29.63,29.63,0,0,0,111.73,63.51Zm-5.32,3.06c-.69-1.28-1.23-1.5-1.48-1.28s.79,1.87.2,4.44a5.42,5.42,0,0,1-3.8,4.09c-1.26.32-3.35.22-4.88.74s-3.16,1.63-3.85,1.68-1.43,0-1.48-2.32A13.36,13.36,0,0,0,90,67.8c-1-2.34-2.27-3.75-2.42-6.21s.71-3.6,1.87-4.24,3.65-.07,5.87,2.47,3.08,3.5,3.5,4.59,1.11.52.25-1.13S98,60.33,97,59.42s1.18-.89,2.86,0a16,16,0,0,1,3.25,2.12c.35.32,1,0-.2-1.13s-2.27-1.92-.89-1.82,4.91,2.39,6,3.25c2.19,1.65,1.85,5,1.85,5s-.47,6.16-4.17,6.66c0,0-1,0,.1-1.38A6.17,6.17,0,0,0,106.41,66.57Zm43.27,52.19c.74,2.07.11,7.28-.52,8.65-1.22,2.22-1.77,2.48-1.77-.52a33.2,33.2,0,0,0-.52-5.58,15.21,15.21,0,0,1,0-5.21,9,9,0,0,1,1.11-2.66S148.93,116.69,149.67,118.76Zm-33.11,15.46A71.82,71.82,0,0,0,127.63,128a44,44,0,0,0,9-8.21c1.15-1.48,2.81-2.07,1.7-.59s-2.07,6.32-3.25,8.51a17.58,17.58,0,0,1-7.4,6.58c-3.66,1.89-10.95,4.46-10.95,4.46C116.27,138.38,116.56,134.22,116.56,134.22Zm16,.37c1.92-1.63,4.22-4.51,6.36-11.46a52.33,52.33,0,0,1,4.36-10.95c1.7-3.55,3.07-5,4.88-6.36a10,10,0,0,1-.3,3.92c-.58,1.74-3.74,4.84-2.93,12.76a2.89,2.89,0,0,0,0,.48c.37,2.11.81,5.07-1.11,7.47s-5.29,3.85-7.17,4.51-7.88,3.11-8.21,2.44S130.59,136.21,132.51,134.59Zm9,0c1.92-1.07,9.32-6.06,9.32-6.06a17,17,0,0,1,5.1,3.18c1,1.07-.37.78-2.44,1s-9.84,2.11-11.24,2.29S141.54,134.59,141.54,134.59Zm9.73-18.4c-.38-.95-2.11-3.75-1.74-6.75a27.24,27.24,0,0,1,3.4-8.95,10.84,10.84,0,0,0,1.63-2.55c0,.94.06,2.2,0,3.51a45.79,45.79,0,0,1-.74,6c-.11.7.59,0,1.33-2.14a25.38,25.38,0,0,0,1-11.61c-.74-5.21-1.77-9.65-4.81-12.87A53.69,53.69,0,0,1,146.59,75s-2.49-3.23-3.35-4.59-1.13-2.81-1.58-3.16-.27-.94.44-1.23a5.11,5.11,0,0,1,3.55-.2c1.26.52,5.89,4.54,6.9,5.67,0,0,2.88,2.61,6.21,10.38s4.62,17.16,4.44,20.56a12.71,12.71,0,0,1-4.29,8.36c-2.26,2.18-5.44,5.21-6,7.17S151.74,117.37,151.26,116.19Zm3.14-19.77c0-.14,0-.12,0,0Zm9.69-4.59c-.48-3.73-3.22-11.72-5.18-13.61s-.07-1.59,1.85.22c.15.15.31.27.47.4,1.26,1.11,4.7,4.47,5.45,8.55.92,5-.37,11.32-.37,11.32s-.89,3.18-1.63,3.62S164.57,95.57,164.09,91.84Zm-17.23-60.5c-2.93,1.37-4.88,2.5-5.62,2.54-.44,0-3.17-4.84-5.67-9.49C138.1,25.89,144.73,30.15,146.86,31.34ZM103.67,7.12c-.42-1,.39-2.29,2-2.33a1.93,1.93,0,0,1,2,2,1.4,1.4,0,0,1-1.46,1.42l-.61,0h-.37A1.8,1.8,0,0,1,103.67,7.12Zm-3.44,5.57c.2-.8.72-2.2,5.18-2.27,4.29-.07,5.07,2.33,5.1,2.92a2.18,2.18,0,0,1-.21,1.19c-1.61-.17-3.29-.29-4.95-.34s-3.23,0-4.86.08h0A2.32,2.32,0,0,1,100.23,12.68Zm5.39,3.47A52.91,52.91,0,0,1,118.76,18c-5.54,5.11-12.12,12-13.12,12.2S97.11,23,91.12,17.31C94.13,16.38,99.9,16.2,105.62,16.15ZM74,20.68c-2.87,5.94-5.51,12.13-6,12.56s-3.76-2.3-7.75-5.4A54.55,54.55,0,0,1,74,20.68ZM49.8,29.79s-3.25-5.38-2.54-7c1.06-2.37,18.49,14.43,21.25,13.66,2-.57,4.17-6.29,7.05-12.75,2.49-5.57,4.86-10.58,6-10.75.83-.13,5.8,4.56,11,9.59s10.64,10.8,12.79,10.67c2-.12,6.72-5.91,11.59-10.53,4.41-4.18,9.62-8.26,10.16-8.26s4,5.58,6.85,11.36c2.66,5.38,4.75,11,5.87,11.36,1.55.56,6.83-3.72,12.94-6.19,3-1.22,7.62-2.88,10.77-2.69,0,0-.69,5-2.71,5.13a35.82,35.82,0,0,0-10.85,5c-4.54,3.4-8.63,7.25-10,7.2s-12.87-21.42-15.88-21.4c-3.5,0-17,16.52-18.74,16.67S87.23,23.45,83.92,23.75,69.87,43.15,68.24,43.3,53.21,30.28,49.8,29.79Zm2.68,11a4.22,4.22,0,0,0-.11-.58S50.59,34.72,51.09,34s8.55,5.35,10.48,7.22,6.19,5.15,6.83,5.1,5.21-6.08,9-11.39c3-4.22,5.86-8,6.88-8,1.5,0,8.58,6.34,11.09,9,2,2.14,7.81,8.18,9.89,8.33.76.05,7-6.81,12.15-11.73a37.12,37.12,0,0,1,6.48-5.23c.63,0,3.56,4.09,6.46,8.8,3.34,5.43,6.74,11.6,8.14,12.2,2.61,1.13,10.72-7.25,15.75-9.76s5.13-1.26,4.93-.07c-.11.68-1.25,4.28-1.5,5.18l-2.18,5.89a4.33,4.33,0,0,1-.74,1.08c-.52.57-1.75,1-5,1H57.4a3,3,0,0,1-2.61-1.33C54.14,49.11,52.87,42.79,52.48,40.82ZM41.84,65.4c2.29-5.88,6.21-7,6.21-7,3.62-2.37,3.57-.74,2.51-.18s-2,2.27-3.11,3.85-.72,2.33-.33,1.7a11.63,11.63,0,0,1,2.07-2.63c1.46-1.52,5.53-3.7,7.14-3.59s1.24,1.2,0,2.51-2.14,3.85-3.07,7.1.39,6.32.89,7.77.57,3.25-.92,3.4-2.55-.13-4.25-3.4a13.81,13.81,0,0,1-1.66-6.06s0-.91-.43-.91c-.29,0-.64,1.36-.43,3.38a13.14,13.14,0,0,0,1.59,5.1c1.15,2,1,2.48.53,3h0c-.65.55-2,1.55-3.33,1.26s-2.74-2.07-3.18-3.11A16.68,16.68,0,0,1,41.84,65.4ZM30.92,86.09C30.65,85.63,32.74,74.8,36.7,70c.94-1.18,1.63-2.16,1.74-1.44,0,0,.35,5,.22,6.51s-.3,2.79-2.55,5a36,36,0,0,0-4.42,5.63l0-.1S31.19,86.56,30.92,86.09Zm4.39,27.51c-3.08-6.85-4-15.67-4-15.67-.06-.55-.76-5.38.89-9.24a24.73,24.73,0,0,1,5.36-7.4c1.07-1.22,1.66-1.42,1.52-.59a26.31,26.31,0,0,1-1.41,5.36c-.76,1.65-1.7,3.27-1.41,3.37s1.53-.94,3-3.73,1-3.92,1.44-4.29.63-.26,1.22,1a9.49,9.49,0,0,1,.74,2.48c.07,1.29.84,5.56.49,6.15a15.73,15.73,0,0,0-4.54,7.45A28.22,28.22,0,0,0,38,112.37a41.54,41.54,0,0,0,3.16,9S38.39,120.46,35.31,113.61Zm2.37,26.13c-8.68.2-8.14,0-6.71-2.17a83.45,83.45,0,0,1,8.38-10.06c1.55-1.5,2.23-1.79,2.53-1.75h0l.23.27v0c.82.87,1.42,1.5,1.53,1.61A8.79,8.79,0,0,1,42.51,129a47.69,47.69,0,0,0-5,6.88c-.81,1.66.36,1.73,4.14,1.7s17.39,1.59,20.08,1.94l.45.06a2.74,2.74,0,0,0,.9.11c3.62.55,12.71,2.82,15,3s9.46,3.51,18,4.21a1.08,1.08,0,0,0,0,.23c.35,1.13-1.43,1.23-2.07,1s-11.54-2.86-20.12-4.63S46.35,139.54,37.67,139.74ZM75.29,191.2c-5.68-2.28-13-5-13.22-6.55s.55-16-.24-17.2-.59,2.37-1,5.62-1.08,4.44-1.38,3-2.37-3.8-1.68-1.68.59,8.69.25,9-3.33-2.29-4.39-3c-2.07-1.4-2.92-2.25-7.08-5.32-3.38-2.49-5.05-4.75-5.84-6.62s.35-3.11,1.68-4.24,6.36-4.83,9.07-7,7-7.35,11-10.06,6.9-2.17,6.9-2.17l0-.08c6.31.81,12.2,1.89,16.68,2.79h0s1,.22,1,4c.08,4,.92,21.11,1,23.17-3.31-.12-5.49-.27-5.94-.31A3.35,3.35,0,0,0,79.32,172a2.15,2.15,0,0,0-.39,0,3.48,3.48,0,0,0-3.61,2.67c-.69,2.12.6,3.67,2.65,4.11a4.13,4.13,0,0,0,3.4-.51,21.53,21.53,0,0,0,6.55,1.14h.17l.14,14.77A46,46,0,0,1,75.29,191.2ZM80.58,176a1.73,1.73,0,0,1-2.41,1.37c-1.21-.35-1.42-1.58-.88-2.66a1.7,1.7,0,0,1,2.05-.86,3.24,3.24,0,0,1,.47.19A2,2,0,0,1,80.58,176Zm9.95,18.39s-.15-13.7-.1-14.86c2.72.11,5.71.26,6.22.26,0,1.45.48,14.95.48,14.95l-2.76-.13C92.83,194.5,90.52,194.36,90.52,194.36Zm0-16.27L89,178c-6.08-.41-6.56-.48-6.66-1.18,0-.33.4-.78,1.55-.78,1.7,0,10.22.52,14.27.37s10.95-.33,12.42-.44c1.93-.15,2,1,2,1a1,1,0,0,1-.88,1A148.74,148.74,0,0,1,90.49,178.08Zm8.94,16.61-.53-14.89c1.8,0,4.72,0,7-.06-.08,1,.68,14.48.68,14.48s.11.29-2.83.47C101.73,194.82,99.43,194.69,99.43,194.69Zm42.77-44.5c7.74,5.67,13.61,19,14.4,20.71s-.59,2.65-4.72,5.69c-4.51,3.33-9,7.15-10,6.46-2.81-2-3.85-9.78-4.1-11.26s-.27-3.66-1.08-.3a16,16,0,0,0,2.66,13.61,42.31,42.31,0,0,1-13.2,5.9c-8.38,2-17.36,3.56-17.25,3.29l-.65-14.68a47.2,47.2,0,0,0,5.71-.83h0a3.89,3.89,0,0,0,3.66.74c2.05-.44,3.35-2,2.65-4.11a3.48,3.48,0,0,0-3.61-2.67,2.15,2.15,0,0,0-.39,0,3.32,3.32,0,0,0-2.68,1.85h-.15l-5.49.15c0-.52,0-.63-.05-1.07,0-1.45,0-21.65.3-23.7a3.13,3.13,0,0,1,1.34-2.5c5-1.22,11.12-2.72,17.63-4.26C130,143.41,134.67,144.67,142.2,150.19Zm-26.43,24.58a3.23,3.23,0,0,1,.47-.19,1.66,1.66,0,0,1,2.05.86c.4.91.31,2.3-.79,2.59s-2.36,0-2.5-1.29A2,2,0,0,1,115.78,174.77Zm54.6-40.85c-4.08.06-15.9,2.22-28.4,4.51s-30,6.62-33.43,7.4-9.5,2.51-9.84,2,.61-.7,1-.83c5.51-.36,12.34-3.22,14.59-4.3,2.87-1.25,15.43-3.82,18.32-4.41l.68-.16c4.42-1,20.47-4.16,23.5-4.72,3.22-.59,2.07-1.66,1.18-2.37a28.27,28.27,0,0,0-4.81-2.66c-1.55-.67-.15-1-.15-1l2.37-1.33c6.73.33,13.15,4.86,14.35,5.69C171.27,132.74,173,133.88,170.38,133.92Z" fill="#692f23"/>
  <path d="M73.91,96.15a33.87,33.87,0,0,0,3.49-1.38,3.71,3.71,0,0,1,1.26,0,1.93,1.93,0,0,0,.46.07c1,0,1.11-.62,1-1.15-.17-.81-2.18-3.85-4.84-5.69s-5.17-1.75-9.13-1.18a9.37,9.37,0,0,0-5,2.63h0s-1.72,2.05-1.55,2.88,1.74,2.5,3.81,3.18a18.53,18.53,0,0,0,5.39,1A20.87,20.87,0,0,0,73.91,96.15Zm1.33-6.89a16.46,16.46,0,0,1,3.06,3.07c.59.7.45,1.35,0,1.32a4.24,4.24,0,0,0-1.1,0c-.29.07-.63.14-.75.18-.57.19-1.18.37-1.18.37-.37.09-1.24.41-1.18.07s.65-.87,1-1.7a2.91,2.91,0,0,0-.22-2.85C74.2,88.47,75.24,89.27,75.24,89.27Zm-8.62,5.68a4.62,4.62,0,0,1-2.7-.59c-1.2-.59-2.5-1.76-2.29-2.44a4.37,4.37,0,0,1,1-1.46A12.92,12.92,0,0,1,65,88.68c1.07-.5,1.36-.3.88.22a3.66,3.66,0,0,0-1.05,2.47,3.6,3.6,0,0,0,.89,2.51C66.34,94.5,67.12,94.83,66.62,94.94Zm2.07-.48A3.73,3.73,0,0,1,66.62,92,2.65,2.65,0,0,1,67.36,89c.8-.46,1.39,0,1,1a2.22,2.22,0,0,0,2.37,3,1.92,1.92,0,0,0,1.74-2.55c-.13-.54-1.05-1.65.26-1.33s1.85,2.09,1.22,3.51a4.08,4.08,0,0,1-2.3,1.93,4.84,4.84,0,0,1-1.22.15A6.56,6.56,0,0,1,68.69,94.46Z" fill="#692f23"/>
</svg>
