<svg data-name="Слой 1" xmlns="http://www.w3.org/2000/svg" width="32" height="29.89" viewBox="0 0 32 29.89">
  <g>
    <path d="M428.14,66c-6.94,0-12.58,5.15-12.58,11.5S421.2,89,428.14,89s12.58-5.15,12.58-11.5S435.09,66,428.14,66Zm0,22.41c-4.9,0-8.88-4.27-8.88-9.54a10.07,10.07,0,0,1,.86-4.07,22.84,22.84,0,0,0,16,0,10.07,10.07,0,0,1,.86,4.07C437,84.13,433,88.41,428.14,88.41Z" transform="translate(-412.01 -64.94)" style="fill:  #ff5a19"/>
    <circle cx="12.28" cy="14.95" r="1.22" style="fill:  #fd8204"/>
    <circle cx="19.41" cy="14.95" r="1.22" style="fill:  #fd8204"/>
    <path d="M430.54,84.43a7.58,7.58,0,0,1-2.6.43,7.76,7.76,0,0,1-2.47-.38" transform="translate(-412.01 -64.94)" style="fill: none;stroke:  #fd8204;stroke-linecap: round;stroke-miterlimit: 10"/>
    <path d="M444,78.27a4.83,4.83,0,0,0-2.75-4.36,14.1,14.1,0,0,0-26.36.25,4.84,4.84,0,0,0,1.95,9.26H417V76.84a11.31,11.31,0,0,1,22-.94v7.2h0.19l0.51,0A12.06,12.06,0,0,1,432,91.24a2.26,2.26,0,0,0-1.83-.94h-4a2.27,2.27,0,0,0,0,4.54h4a2.27,2.27,0,0,0,2.27-2.27,13.45,13.45,0,0,0,8.84-9.92A4.83,4.83,0,0,0,444,78.27Z" transform="translate(-412.01 -64.94)" style="fill: #263239"/>
  </g>
</svg>
