<svg xmlns="http://www.w3.org/2000/svg" width="134.16" height="33.32" viewBox="0 0 134.16 33.32">
  <g>
    <g>
      <path d="M27,129.77H22.69a1.88,1.88,0,0,1-1.88-1.88v-4.27a1.88,1.88,0,0,1,1.88-1.88H27a1.88,1.88,0,0,1,1.88,1.88v4.27A1.88,1.88,0,0,1,27,129.77Zm-4.27-6.58a0.43,0.43,0,0,0-.43.43v4.27a0.43,0.43,0,0,0,.43.43H27a0.43,0.43,0,0,0,.43-0.43v-4.27A0.43,0.43,0,0,0,27,123.2H22.69Z" transform="translate(-16.14 -109.26)" style="fill: #fd8204"/>
      <path d="M30.12,114.9l-1.49-1.43-1.41-1.4c-2.08-2.08-2.84-2.8-3.53-2.8H22.19a1.88,1.88,0,0,0-1.88,1.88v1.34c-0.41.53-1.56,2-2.61,3.47l-0.12.17a5.69,5.69,0,0,0-1.44,2.83v13.63A1.88,1.88,0,0,0,18,134.45H31.65a1.88,1.88,0,0,0,1.88-1.88V118.94C33.52,118.21,32.69,117.36,30.12,114.9Zm-11.25,1.91c1.29-1.76,2.73-3.62,2.74-3.64l0.15-.2v-1.83a0.43,0.43,0,0,1,.43-0.43H23.6a21.41,21.41,0,0,1,2.58,2.38l1.42,1.41,1.5,1.44c0.79,0.75,1.7,1.62,2.31,2.27H17.9c0.26-.44.63-0.94,0.85-1.24ZM31.65,133H18a0.43,0.43,0,0,1-.43-0.43V119.67H32.07v12.91A0.43,0.43,0,0,1,31.65,133Z" transform="translate(-16.14 -109.26)" style="fill: #682f24"/>
    </g>
    <g>
      <path d="M40.45,134.51c-0.52-1.1-.89-1.35-1.28-1.43v1.43H38.42v-3.09h0.75v1.49c0.24-.27.7-0.83,1.2-1.49h0.89a10.31,10.31,0,0,1-1.17,1.41c0.31,0.12.59,0.32,1.24,1.67H40.45Z" transform="translate(-16.14 -109.26)" style="fill: #ff8300"/>
      <path d="M43,133c0-1.26.49-1.62,1.47-1.62s1.48,0.36,1.48,1.62-0.49,1.64-1.48,1.64S43,134.22,43,133Zm0.78,0c0,0.86.16,1,.69,1s0.7-.16.7-1-0.16-1-.7-1S43.75,132.08,43.75,133Z" transform="translate(-16.14 -109.26)" style="fill: #fd8204"/>
      <path d="M50.65,131.42H51.7v3.09H50.95v-2.25c-0.29.61-.63,1.46-0.85,2.07H49.53c-0.22-.61-0.55-1.47-0.83-2.07v2.25H48v-3.09h1.1c0.29,0.59.54,1.2,0.8,1.84C50.11,132.61,50.37,132,50.65,131.42Z" transform="translate(-16.14 -109.26)" style="fill: #fd8204"/>
      <path d="M55.6,130.21h0.75v1.18a2.24,2.24,0,0,1,.5-0.06c1,0,1.36.37,1.36,1.63S57.76,134.6,57,134.6a1.14,1.14,0,0,1-.64-0.18v1.26H55.6v-1.26a1.17,1.17,0,0,1-.64.18c-0.77,0-1.22-.38-1.22-1.63s0.4-1.63,1.36-1.63a2.33,2.33,0,0,1,.5.06v-1.18Zm0,3.46v-1.61a1.38,1.38,0,0,0-.5-0.08c-0.44,0-.62.15-0.62,1s0.18,1,.61,1S55.6,133.85,55.6,133.67Zm1.87-.69c0-.85-0.18-1-0.62-1a1.36,1.36,0,0,0-.5.08v1.62c0,0.18.21,0.28,0.5,0.28S57.47,133.75,57.47,133Z" transform="translate(-16.14 -109.26)" style="fill: #fd8204"/>
      <path d="M60.15,133c0-1.26.49-1.62,1.47-1.62s1.48,0.36,1.48,1.62-0.49,1.64-1.48,1.64S60.15,134.22,60.15,133Zm0.78,0c0,0.86.16,1,.69,1s0.7-.16.7-1-0.16-1-.7-1S60.93,132.08,60.93,133Z" transform="translate(-16.14 -109.26)" style="fill: #fd8204"/>
      <path d="M65.15,131.56a4,4,0,0,1,1.35-.23c1,0,1.48.37,1.48,1.63s-0.52,1.63-1.34,1.63a1.54,1.54,0,0,1-.74-0.18v1.26H65.15v-4.11Zm0.75,2.1a0.53,0.53,0,0,0,.61.3c0.53,0,.7-0.21.7-1s-0.18-1-.71-1a1.83,1.83,0,0,0-.6.09v1.59Z" transform="translate(-16.14 -109.26)" style="fill: #fd8204"/>
      <path d="M71.46,134.51H70.7v-2.43H69.64v-0.66h2.88v0.66H71.46v2.43Z" transform="translate(-16.14 -109.26)" style="fill: #fd8204"/>
      <path d="M74,132.45h1.49v0.72H74v-0.72Z" transform="translate(-16.14 -109.26)" style="fill: #fd8204"/>
      <path d="M79.81,134.44a2.94,2.94,0,0,1-.94.16,1.64,1.64,0,0,1,0-3.27,3.22,3.22,0,0,1,.94.15l-0.17.64a2.18,2.18,0,0,0-.72-0.13c-0.55,0-.81.12-0.81,1s0.26,1,.81,1a2,2,0,0,0,.72-0.15Z" transform="translate(-16.14 -109.26)" style="fill: #fd8204"/>
      <path d="M84.09,134.43a3.89,3.89,0,0,1-1.08.17,1.37,1.37,0,0,1-1.5-1.64c0-1.24.54-1.62,1.44-1.62s1.4,0.33,1.35,1.83h-2a0.66,0.66,0,0,0,.8.8,3.75,3.75,0,0,0,.87-0.13Zm-1.78-1.84h1.3c0-.55-0.18-0.66-0.61-0.66A0.58,0.58,0,0,0,82.31,132.59Z" transform="translate(-16.14 -109.26)" style="fill: #fd8204"/>
      <path d="M86.29,131.56a4,4,0,0,1,1.35-.23c1,0,1.48.37,1.48,1.63s-0.52,1.63-1.34,1.63a1.54,1.54,0,0,1-.74-0.18v1.26H86.29v-4.11Zm0.75,2.1a0.53,0.53,0,0,0,.61.3c0.53,0,.7-0.21.7-1s-0.18-1-.71-1a1.84,1.84,0,0,0-.6.09v1.59Z" transform="translate(-16.14 -109.26)" style="fill: #fd8204"/>
      <path d="M94,133.67a0.77,0.77,0,0,1-.91.84H91.17v-3.09H93c0.7,0,.86.29,0.86,0.74a0.62,0.62,0,0,1-.7.71A0.69,0.69,0,0,1,94,133.67Zm-2-1h0.89a0.26,0.26,0,0,0,.3-0.32,0.25,0.25,0,0,0-.3-0.3H91.92v0.62Zm0.92,1.3a0.29,0.29,0,0,0,.33-0.35,0.33,0.33,0,0,0-.35-0.4h-0.9v0.75h0.92Z" transform="translate(-16.14 -109.26)" style="fill: #fd8204"/>
      <path d="M98,132.63a15.5,15.5,0,0,1-1.26,1.89H96v-3.09h0.75v2a16.12,16.12,0,0,0,1.26-2h0.75v3.09H98v-1.89Z" transform="translate(-16.14 -109.26)" style="fill: #fd8204"/>
      <path d="M103.28,134.44a2.94,2.94,0,0,1-.94.16,1.64,1.64,0,0,1,0-3.27,3.22,3.22,0,0,1,.94.15l-0.17.64a2.18,2.18,0,0,0-.72-0.13c-0.55,0-.81.12-0.81,1s0.26,1,.81,1a2,2,0,0,0,.72-0.15Z" transform="translate(-16.14 -109.26)" style="fill: #fd8204"/>
    </g>
    <g>
      <path d="M148,121.35a0.43,0.43,0,0,1-.25.29,1.12,1.12,0,0,1-.56.13,0.11,0.11,0,0,0-.12.05,2.45,2.45,0,0,0-.35,1.1,0.08,0.08,0,0,0,0,.09,0.49,0.49,0,0,1,.14.09,2,2,0,0,1,.49,1.05,2.74,2.74,0,0,1,0,.7,1.24,1.24,0,0,1-.11.37c-0.09.2-.16,0.4-0.26,0.59a0.33,0.33,0,0,0,.07.41v0a0.7,0.7,0,0,1,.21.36,0.42,0.42,0,0,1,0,.32,0.88,0.88,0,0,1-.13.2,0.74,0.74,0,0,0-.16.45,1.45,1.45,0,0,1,0,.33,0.5,0.5,0,0,1-.12.22,1.32,1.32,0,0,0-.31.38,0.85,0.85,0,0,1-.09.12l-0.14.17-0.46.54a0.89,0.89,0,0,1-.16.14l-0.66.45,0,0,0.09,0,0.6,0.22a1,1,0,0,1,.47.41l0.11,0.16a2.51,2.51,0,0,1,.37.62,5.31,5.31,0,0,1,.3,1.16,1.79,1.79,0,0,1-.26,1.21l-0.14.21a0.78,0.78,0,0,1-.36.34,0.18,0.18,0,0,0-.1.1,1.26,1.26,0,0,0-.11.57,0.2,0.2,0,0,0,.29.19l1.26-.5a2,2,0,0,1,.9-0.17h0.36a1.92,1.92,0,0,1,.66.23,1.3,1.3,0,0,1,.55.59c0,0.09.08,0.18,0.12,0.27a1.79,1.79,0,0,1,.08,1,1.94,1.94,0,0,1-.46.92,1.2,1.2,0,0,1-.34.29l-0.52.26-0.26.1a4.66,4.66,0,0,1-.94.13l-0.37,0-0.83.1a2.64,2.64,0,0,0-.66.14,1.57,1.57,0,0,1-.48.13l-0.18,0a5.36,5.36,0,0,1-.56.05,4.71,4.71,0,0,1-.73-0.05,1.15,1.15,0,0,1-.76-0.39l-0.14-.2a0.24,0.24,0,0,0-.11-0.11,1.6,1.6,0,0,0,0,.21c0,0.1,0,.2.05,0.3,0.05,0.28.12,0.56,0.16,0.85s0.08,0.69.11,1a2.22,2.22,0,0,1,0,.71,1.63,1.63,0,0,1-.44.88l-0.16.12-0.12.07a1.24,1.24,0,0,1-.62.27l-0.5.07a1.77,1.77,0,0,1-.65,0l-0.9-.27a1.6,1.6,0,0,1-.67-0.42,0.24,0.24,0,0,1-.05-0.07,2.17,2.17,0,0,1-.22-0.7,5.78,5.78,0,0,1,0-1,0.86,0.86,0,0,1,0-.18,2.94,2.94,0,0,0,.13-0.58c0-.14,0-0.27.05-0.41a2.78,2.78,0,0,0,0-.29,7.2,7.2,0,0,0-.08-1.09,1.68,1.68,0,0,1,.16-1,0.73,0.73,0,0,0,.09-0.5,0.78,0.78,0,0,0-.07-0.19c0-.1-0.11-0.21-0.14-0.31a0.53,0.53,0,0,0-.23-0.28l-0.21-.12A1.37,1.37,0,0,0,138,135h-7.41a0.22,0.22,0,0,0-.24.14,0.14,0.14,0,0,1-.11.11,0.66,0.66,0,0,1-.24,0,0.6,0.6,0,0,1-.23-0.15,1.15,1.15,0,0,0-.24-0.17l-0.07,0-0.38-.32a0.85,0.85,0,0,1-.3-0.53c0-.26-0.09-0.52-0.13-0.78a2.75,2.75,0,0,1,0-.83,0.77,0.77,0,0,1,.09-0.25,1.1,1.1,0,0,1,.49-0.46,2.4,2.4,0,0,0,.28-0.17l0.47-.34a2,2,0,0,0,.17-0.16l-0.11-.13a1.69,1.69,0,0,1-.39-0.58,0.4,0.4,0,0,1,0-.31,2.66,2.66,0,0,1,.16-0.35c0-.07.1-0.14,0.13-0.21l0.26-.55c0.15-.35.31-0.69,0.45-1s0.17-.47.27-0.7a4.12,4.12,0,0,0,.21-0.7,5.8,5.8,0,0,1,.34-1.07c0.17-.39.38-0.78,0.57-1.16a0.74,0.74,0,0,1,.08-0.13l0.46-.62,0.14-.15,0.54-.54a2.67,2.67,0,0,1,.55-0.43l0.16-.11,0.32-.21c0.07,0,.15-0.07.22-0.12a2.72,2.72,0,0,1,.53-0.31,4.31,4.31,0,0,0,.65-0.4l0.08-.07a0.34,0.34,0,0,0-.13,0l-0.55,0L134.7,121l-0.6-.15a2.53,2.53,0,0,1-.93-0.4l-0.08-.05a2.67,2.67,0,0,1-.66-0.53,8.05,8.05,0,0,1-.9-1.23,7.81,7.81,0,0,1-.64-1.5l-0.09-.23c0-.1-0.07-0.2-0.1-0.31a2.19,2.19,0,0,1,0-.89,4.55,4.55,0,0,1,.42-1.41c0.08-.16.16-0.32,0.25-0.48l0.4-.68a11.66,11.66,0,0,1,.69-1,1,1,0,0,1,.13-0.14,4.47,4.47,0,0,1,.62-0.53l0.12-.1,0.3-.24,0.35-.24a4.91,4.91,0,0,1,.81-0.45l0.47-.19a3.69,3.69,0,0,1,1.47-.28h0.84a2.35,2.35,0,0,1,.54,0h0.08l0.43-.11a3,3,0,0,1,.67-0.09,4.55,4.55,0,0,1,1.2.13,3.71,3.71,0,0,1,.67.22,2,2,0,0,0,.23.08c0.1,0,.21.06,0.31,0.1l0.62,0.29a4.65,4.65,0,0,1,.46.24,5.41,5.41,0,0,1,.85.59l0.1,0.08a2.94,2.94,0,0,1,.64.58,4.44,4.44,0,0,1,.39.47,12.45,12.45,0,0,1,.66,1.06,4,4,0,0,1,.29.72,5.78,5.78,0,0,1,.2,1.69,4.23,4.23,0,0,1-.14,1,5.57,5.57,0,0,1-.23.64,5.88,5.88,0,0,1-.54,1.09c-0.13.2-.27,0.39-0.42,0.58a1.78,1.78,0,0,1-.18.2l-0.46.45a2.73,2.73,0,0,1-.9.63l0,0-0.36.19c-0.18.09-.36,0.19-0.54,0.27s-0.46.17-.7,0.26l-0.09,0,0.17,0.1,0.38,0.23,0.38,0.25a3.36,3.36,0,0,1,.75.6,6.43,6.43,0,0,1,1,1.43c0.05,0.1.09,0.2,0.13,0.3s0.05,0.13.08,0.19a1.86,1.86,0,0,1,.29.77l0.1-.05a0.85,0.85,0,0,1,.17-0.06l0.36,0a0.08,0.08,0,0,0,.08-0.06,0.32,0.32,0,0,0,0-.23,1.28,1.28,0,0,1,0-.89,1.24,1.24,0,0,0,.06-0.49c0-.11,0-0.22,0-0.33a1.24,1.24,0,0,1,0-.2,0.18,0.18,0,0,1,.17-0.16h0.1a0.39,0.39,0,0,0,.28-0.05l0.09,0a0.23,0.23,0,0,1,.19,0l0.3,0.14a0.33,0.33,0,0,0,.17.06l0-.11a2.17,2.17,0,0,1,.26-0.85l0.1-.19a0.1,0.1,0,0,0,0-.08,0.68,0.68,0,0,1-.07-0.36s0-.08,0-0.14a0.62,0.62,0,0,1-.69-0.44,0.7,0.7,0,0,1,.22-0.69L146.3,120a1.35,1.35,0,0,1-.16-0.19,0.41,0.41,0,0,1,0-.43,0.73,0.73,0,0,1,.4-0.31l0.12,0c0-.12,0-0.23,0-0.33a0.28,0.28,0,0,1,.09-0.21,0.74,0.74,0,0,1,.66-0.24,0.71,0.71,0,0,1,.37.16l0.14,0.11,0.2-.08a1,1,0,0,1,.51,0,0.57,0.57,0,0,1,.42.73s0,0.05,0,.09a0.62,0.62,0,0,1,.35.26,0.71,0.71,0,0,1,.13.56,0.52,0.52,0,0,1-.28.35l-0.09.05a2.55,2.55,0,0,1,.06.25,1.77,1.77,0,0,1,0,.26,0.54,0.54,0,0,1-.39.5,1.43,1.43,0,0,1-.77-0.09v0Zm-6,2.77,0.12,0.3c0,0.12.08,0.24,0.13,0.35a0.53,0.53,0,0,0,.08.14,0.34,0.34,0,0,0,.41,0l0.18-.1,0.17-.12a0.16,0.16,0,0,1,0,.17l-0.12.13a1,1,0,0,0-.26.5,4.28,4.28,0,0,0-.08.67,3.52,3.52,0,0,0,.08.79,7.21,7.21,0,0,1,.14,1.09,2,2,0,0,0,.36,1,1.2,1.2,0,0,0,.43.37,1.91,1.91,0,0,0,.86.22,1.05,1.05,0,0,0,.51-0.07,1.87,1.87,0,0,0,.75-0.56,3.57,3.57,0,0,0,.23-0.35,0.33,0.33,0,0,0,0-.27,0.23,0.23,0,0,0-.14-0.13,1.53,1.53,0,0,0-.53-0.16l-0.42-.06a1.12,1.12,0,0,1-.25-0.09,3.34,3.34,0,0,1-.55-0.33,1.2,1.2,0,0,1-.41-0.57l0-.11a4.15,4.15,0,0,0-.21.54l0-.08a3.32,3.32,0,0,1,0-1.13,0.59,0.59,0,0,1,0-.11c0.08-.21.17-0.42,0.24-0.63a0.77,0.77,0,0,0,0-.21,2.81,2.81,0,0,0-.15-1.23,4.42,4.42,0,0,0-.8-1.34,4.9,4.9,0,0,0-.74-0.68,1.94,1.94,0,0,0-.34-0.19l-0.65-.29a1,1,0,0,0-.57-0.06l-0.15,0-0.45.12v0.08c0.1,0.43.2,0.87,0.26,1.31a4.48,4.48,0,0,1,0,.88c0,0.33,0,.65,0,1a0.68,0.68,0,0,1-.32.58,0.64,0.64,0,0,1-.27.09l-0.91.13h-0.28a0.41,0.41,0,0,1-.34-0.19,0.23,0.23,0,0,1,0-.11,3.23,3.23,0,0,1,0-.33,6.08,6.08,0,0,0-.26-1.84c-0.06-.2-0.15-0.4-0.2-0.6a2.75,2.75,0,0,0-.42-0.87,0.67,0.67,0,0,0-.58-0.3,2.1,2.1,0,0,0-.75.15,3.62,3.62,0,0,0-.46.23c-0.21.11-.44,0.21-0.65,0.31l-0.41.21-0.28.16a3.19,3.19,0,0,0-.37.28c-0.22.21-.43,0.43-0.65,0.65l-0.09.11c-0.18.24-.36,0.48-0.53,0.72s-0.27.41-.4,0.62a0.81,0.81,0,0,0-.06.18,0.8,0.8,0,0,1,0,.13,5.86,5.86,0,0,0-.35.94c0,0.11-.08.22-0.13,0.33a0.84,0.84,0,0,0-.09.43,0.33,0.33,0,0,0,.28.31,0.69,0.69,0,0,0,.35,0,1.43,1.43,0,0,0,.29-0.14,0.76,0.76,0,0,1,.56-0.11h0.18l-0.05.06-0.27.16a0.2,0.2,0,0,0-.11.13,0.14,0.14,0,0,0,.11.19l0.23,0a1.08,1.08,0,0,1,.38.14,0.47,0.47,0,0,1,.2.22,0.07,0.07,0,0,1-.1,0,3.14,3.14,0,0,0-1.38-.22,1.52,1.52,0,0,0-.69.17,0.57,0.57,0,0,0-.26.25l-0.14.3c-0.11.26-.22,0.53-0.34,0.78a2.09,2.09,0,0,1-.19.28l-0.08.12,0.15,0,0.34,0a4.24,4.24,0,0,1,.94.16L132,130l0.43,0.14a0.68,0.68,0,0,1,.14.08,1.62,1.62,0,0,1,.64.93c0,0.09,0,.19.06,0.3a1,1,0,0,0,.09-0.11,2,2,0,0,0,.24-0.64,6,6,0,0,1,.2-0.74,3.28,3.28,0,0,1,.15-0.37c0-.06.06-0.1,0.09-0.16a2.38,2.38,0,0,0,.19-0.35,8.15,8.15,0,0,0,.27-0.88,5.85,5.85,0,0,0,.1-2c0-.18-0.06-0.36-0.09-0.53a0.7,0.7,0,0,1,0-.09,0.1,0.1,0,0,1,.12-0.13,0.65,0.65,0,0,0,.28-0.07,0.46,0.46,0,0,0,.27-0.41c0-.07,0-0.14,0-0.21a0.11,0.11,0,0,1,.07-0.12c0.07,0,.06.07,0.07,0.12a1.79,1.79,0,0,1,0,.63c-0.06.29-.12,0.57-0.17,0.86s-0.06.39-.08,0.59c0,0.35-.06.7-0.09,1s-0.06.84-.09,1.26v0a0.47,0.47,0,0,0-.26.07,0.87,0.87,0,0,0-.29.35,2.72,2.72,0,0,0-.14.55,3.7,3.7,0,0,0-.09.94c0,0.13,0,.27,0,0.4a1.06,1.06,0,0,0,.32.6,0.45,0.45,0,0,0,.18.11,0.76,0.76,0,0,1,.22.13l0.16,0.11a3.41,3.41,0,0,0,.51-0.61,1.8,1.8,0,0,1,.17-0.19l0.2-.18a4.73,4.73,0,0,1,.94-0.71l0.11-.07v0h-0.4a0.16,0.16,0,0,1-.1-0.05,0.09,0.09,0,0,1,0-.14,1.32,1.32,0,0,1,.24-0.1,3.63,3.63,0,0,0,.79-0.34c0.19-.1.38-0.18,0.56-0.28a3.38,3.38,0,0,0,.44-0.31,2.81,2.81,0,0,0-.31,0,3.28,3.28,0,0,0-.87.23,1.25,1.25,0,0,1-.44.1h-0.57a0.08,0.08,0,0,1,.05-0.12,8.31,8.31,0,0,1,.92-0.4,4.94,4.94,0,0,1,.87-0.21l0.4-.07,0.64-.06,0.8-.08c0.24,0,.48,0,0.72,0l0.61,0,0.22,0a2.25,2.25,0,0,0,.62.08,0.31,0.31,0,0,0,.28-0.16,0.35,0.35,0,0,0,0-.25c0-.07,0-0.13-0.05-0.2s-0.07-.4-0.08-0.6c0-.51-0.06-1-0.09-1.52a9.68,9.68,0,0,0-.14-1c-0.05-.3-0.08-0.61-0.12-0.91,0-.07,0-0.15,0-0.22a0.14,0.14,0,0,1,0-.14A0.77,0.77,0,0,1,142,124.12Zm-2.68-9.71c0,0.14,0,.28,0,0.42l-0.21,0a2.52,2.52,0,0,0-.53,0,2.18,2.18,0,0,1-.83,0,2.51,2.51,0,0,0-.76-0.07,1.86,1.86,0,0,0-.37.06,1.84,1.84,0,0,1-.61,0,1,1,0,0,1-.45-0.17c-0.09-.05-0.1-0.06-0.17,0l-0.29.34-0.12.12-0.29.21a2,2,0,0,0-.39.4,1.17,1.17,0,0,0-.23.55,1.76,1.76,0,0,0,0,.44,0.3,0.3,0,0,1,0,.15,0.19,0.19,0,0,1-.2.14h0a0.24,0.24,0,0,0-.21.07,0.32,0.32,0,0,0-.05.3,4.05,4.05,0,0,0,.2.4,0.16,0.16,0,0,0,.07.05,0.71,0.71,0,0,0,.35.1,0.14,0.14,0,0,1,.13.07l0.28,0.45a3.14,3.14,0,0,0,.76.87c0.18,0.14.34,0.31,0.52,0.43a4.53,4.53,0,0,0,1,.57c0.16,0.06.32,0.1,0.48,0.17a4.6,4.6,0,0,0,1.33.3,3.15,3.15,0,0,0,1.11-.12,6.14,6.14,0,0,0,1.2-.41,2.07,2.07,0,0,0,.63-0.43c0.18-.18.37-0.36,0.55-0.55a6.84,6.84,0,0,0,.48-0.57,3,3,0,0,0,.23-0.41l0.1-.21a0.16,0.16,0,0,1,.16-0.09,0.36,0.36,0,0,0,.35-0.2,1.13,1.13,0,0,0,.1-0.25,0.41,0.41,0,0,0-.1-0.41,0.78,0.78,0,0,0-.16-0.09l0,0c0-.21.08-0.41,0.1-0.61a3.11,3.11,0,0,0,0-.49,2.28,2.28,0,0,0-.09-0.63,1.91,1.91,0,0,0-.3-0.59,0.63,0.63,0,0,0-.3-0.18,2,2,0,0,0-1.13,0,3.06,3.06,0,0,1-.59.08,2.16,2.16,0,0,0-.65.13,2.46,2.46,0,0,1-.54.15c-0.07-.14-0.15-0.28-0.22-0.43s-0.12-.29-0.17-0.43h0C139.32,114.12,139.32,114.26,139.31,114.4Zm-1.16,19.29a1.27,1.27,0,0,1,.69,0l0.4,0.09a0.12,0.12,0,0,0,.14,0l0.38-.45c0.05-.06.12-0.12,0.17-0.18s0.16-.25.24-0.38l0.07-.11a0.29,0.29,0,0,1,.21-0.15l0.45-.11a0.19,0.19,0,0,0,.13-0.11,0.2,0.2,0,0,0-.16-0.3l-0.67,0H140a0.56,0.56,0,0,1,.31-0.09,3.67,3.67,0,0,1,.55,0,0.94,0.94,0,0,1,.41.18c0.2,0.14.4,0.28,0.59,0.44s0.35,0.33.53,0.49a1,1,0,0,0,.25.2,0.71,0.71,0,0,1,.25.19l0.07,0.06,0.25,0.22a0.78,0.78,0,0,0,.45.24,0.37,0.37,0,0,0,.27-0.05,0.17,0.17,0,0,0,.07-0.08,0.52,0.52,0,0,1,.18-0.21,0.9,0.9,0,0,1,0,.3,0.63,0.63,0,0,0,0,.3,0.23,0.23,0,0,0,.19.16,2.8,2.8,0,0,0,.93,0,0.89,0.89,0,0,0,.6-0.33,2.32,2.32,0,0,0,.22-0.42,0.29,0.29,0,0,0,0-.13,2.47,2.47,0,0,0-.1-0.74l-0.07-.18a1,1,0,0,1,.5.55c0-.09,0-0.17,0-0.25s0-.31,0-0.46,0-.29,0-0.43a1.9,1.9,0,0,0-.23-0.78A1.83,1.83,0,0,0,146,131a1.65,1.65,0,0,0-.17-0.19,1.2,1.2,0,0,0-.25-0.19,3.12,3.12,0,0,0-1.18-.33l-0.42-.06-0.68-.09a3.33,3.33,0,0,0-.75,0h-0.17a2,2,0,0,0-.68.15l-0.09,0-1,.46-0.82.38h0a5.41,5.41,0,0,0-.82.35,0.84,0.84,0,0,0-.21.15c-0.12.11-.22,0.24-0.34,0.35a1.84,1.84,0,0,0-.33.5,1.16,1.16,0,0,0-.1.45,2.09,2.09,0,0,0,0,.61s0,0.08,0,.13h0.12ZM139,112.16l0.26,0.71a8.08,8.08,0,0,0,.45,1c0.05,0.1.09,0.2,0.14,0.3a0.43,0.43,0,0,0,.12-0.49l0.06,0.07c0.07,0.12.15,0.24,0.21,0.36a0.24,0.24,0,0,0,.23.14l0.34,0,0.2,0a0.74,0.74,0,0,1,.3.05,0.93,0.93,0,0,0,.81,0,0.26,0.26,0,0,0,.14-0.21,2.07,2.07,0,0,0-.08-0.87c-0.09-.27-0.18-0.53-0.26-0.8a1.93,1.93,0,0,0-.29-0.53,3.44,3.44,0,0,0-1.14-1.06,4.54,4.54,0,0,0-.86-0.39,1.36,1.36,0,0,0-.29-0.05,0.18,0.18,0,0,0-.11,0c-0.08.05-.08,0.11,0,0.17l0.15,0.11a2.92,2.92,0,0,1,.74.73,2.33,2.33,0,0,1,.2.33c0.1,0.21.19,0.42,0.29,0.63a1.92,1.92,0,0,1,.11,1.13,0.37,0.37,0,0,1-.1.25c0-.05,0-0.09,0-0.13a4,4,0,0,0-.35-1.56,2.21,2.21,0,0,0-.86-1l-0.22-.15-0.08-.05-0.67-.27a1.17,1.17,0,0,0-.73,0,0.65,0.65,0,0,0-.48.56,3.45,3.45,0,0,0-.05,1c0,0.13,0,.26,0,0.39s0,0.51,0,.77a1.59,1.59,0,0,0,.32.83,0.58,0.58,0,0,0,.41.23,5.26,5.26,0,0,0,.75,0,0.5,0.5,0,0,0,.17,0,0.19,0.19,0,0,0,.13-0.18,8.77,8.77,0,0,0,0-1,3.27,3.27,0,0,0-.1-0.69c-0.06-.22-0.12-0.44-0.17-0.67A1.33,1.33,0,0,1,139,112.16ZM140.07,136h0a1.06,1.06,0,0,1,.33.33,0.59,0.59,0,0,0,.27.24l0.17,0.09a1.29,1.29,0,0,0,.72.08,1.81,1.81,0,0,0,.84-0.3l0.17-.13,0.05,0.14a0.23,0.23,0,0,0,.39.06,1.59,1.59,0,0,0,.27-0.55,1.33,1.33,0,0,0,.1-0.48,1.8,1.8,0,0,0,0-.7,2.65,2.65,0,0,0-.1-0.45,1.08,1.08,0,0,0-.17-0.37,1.56,1.56,0,0,0-.78-0.62l-0.4-.17a4.12,4.12,0,0,0-.64-0.14,2.61,2.61,0,0,0-.74,0,0.55,0.55,0,0,0-.32.15,1.73,1.73,0,0,0-.19.22l-0.26.33a0.83,0.83,0,0,0-.2.39c0,0.15-.08.31-0.13,0.46a1.67,1.67,0,0,0,0,1,1.34,1.34,0,0,0,.13.28,0.39,0.39,0,0,0,.13.13l0.27,0.14Zm-9.56-4.57a1.07,1.07,0,0,1,.71.14l0.07,0.05a0.06,0.06,0,0,1-.09,0,2.19,2.19,0,0,0-.66-0.06,1.66,1.66,0,0,0-.7.18,3.44,3.44,0,0,0-.72.48,0.22,0.22,0,0,0-.1.17,0.15,0.15,0,0,0,.06.14,0.19,0.19,0,0,1,.08.18,0.45,0.45,0,0,0,.2.42,0.8,0.8,0,0,1,.16,0c0.06,0,.08,0,0.08.09h0a1.34,1.34,0,0,0,0,.68,4.73,4.73,0,0,0,.1.51,4,4,0,0,0,.14.41,0.23,0.23,0,0,0,.21.12,0.09,0.09,0,0,0,.1-0.11c0-.18,0-0.36,0-0.54a4.08,4.08,0,0,1,0-.65,0.44,0.44,0,0,1,.23-0.36l0.21-.13,0.55-.28a0.1,0.1,0,0,1,.13,0,0.1,0.1,0,0,1,0,.13l-0.08.11a1.22,1.22,0,0,0,.71.61,0.26,0.26,0,0,0,.34-0.14,0.17,0.17,0,0,0,0-.14,2.67,2.67,0,0,1-.18-1c0-.12,0-0.24,0-0.35s0-.18,0-0.27a0.68,0.68,0,0,0-.25-0.5,1.11,1.11,0,0,0-.62-0.29,0.86,0.86,0,0,0-.58.07l0,0a1.22,1.22,0,0,1-.36.25l-0.05,0A0.91,0.91,0,0,0,130.51,131.43Zm0.11,3.06h6.67l0.18,0h0.17a0.15,0.15,0,0,0,.16-0.1,0.19,0.19,0,0,0-.06-0.21,1.11,1.11,0,0,0-.31-0.17,4,4,0,0,0-.63-0.17,3.77,3.77,0,0,1-.75-0.2c-0.1,0-.2-0.09-0.3-0.12a1.57,1.57,0,0,0-.46-0.05h-2.86c0,0.05,0,.09,0,0.13a0.34,0.34,0,0,1-.31.36,0.9,0.9,0,0,1-.7-0.22c-0.13-.1-0.24-0.22-0.35-0.33a0.18,0.18,0,0,0-.18,0,0.81,0.81,0,0,0-.41.26,0.26,0.26,0,0,0-.07.22c0,0.2,0,.39.06,0.61h0.14Zm17-15.94a0.45,0.45,0,0,0-.76.29c0,0.08,0,.16,0,0.24a0.39,0.39,0,0,0-.47.29,0.45,0.45,0,0,0,.29.53l-0.07.06a0.67,0.67,0,0,0-.23.66,0.28,0.28,0,0,0,.18.23,0.67,0.67,0,0,0,.45,0l0.08,0c0,0.07,0,.12-0.07.18a0.52,0.52,0,0,0,0,.32,0.21,0.21,0,0,0,.19.18,0.62,0.62,0,0,0,.64-0.39l0.07-.29,0.05,0.05a0.74,0.74,0,0,0,.36.29,0.61,0.61,0,0,0,.4,0,0.32,0.32,0,0,0,.23-0.22,0.63,0.63,0,0,0-.05-0.55l-0.06-.1,0.1,0a0.9,0.9,0,0,0,.29-0.18,0.47,0.47,0,0,0,0-.65,0.51,0.51,0,0,0-.37-0.17h-0.08c0-.08,0-0.16,0-0.24a0.56,0.56,0,0,0,0-.18,0.44,0.44,0,0,0-.58-0.29,2.26,2.26,0,0,0-.3.12l-0.09,0ZM137,114.2a2.32,2.32,0,0,1-.26-0.56,1.88,1.88,0,0,1-.08-0.59,2.28,2.28,0,0,1,.12-0.84,4.5,4.5,0,0,0,.2-1,1.57,1.57,0,0,1,.1-0.36,0.32,0.32,0,0,1,.1-0.12l0.25-.2a0.47,0.47,0,0,0,.07-0.08h0a1.51,1.51,0,0,0-.49.14,6.07,6.07,0,0,1-.82.4,0.78,0.78,0,0,0-.23.13l-0.14.11a0.89,0.89,0,0,0-.36.55c-0.06.24-.12,0.49-0.17,0.74a2.51,2.51,0,0,0,0,.73c0,0.08,0,.17,0,0.25a0.81,0.81,0,0,0,.21.44l0.31,0.34a0.45,0.45,0,0,0,.33.13,1.7,1.7,0,0,0,.7-0.1,1.07,1.07,0,0,1,.19,0Zm7.93,0.18c-0.19-.24-0.39-0.47-0.56-0.73s-0.38-.52-0.56-0.78l0-.06,0,0c0,0.15.05,0.3,0.08,0.45a0.35,0.35,0,0,0,0,.09l0.22,0.4,0.38,0.65a4,4,0,0,1,.49,1.16,3.91,3.91,0,0,1,.07,1c0,0.1,0,.19,0,0.29a2.32,2.32,0,0,1-.25.77c-0.2.45-.42,0.89-0.63,1.34a3,3,0,0,1-.15.29,0.12,0.12,0,0,0,0,.15l0.06,0a3.86,3.86,0,0,0,.68-0.82l0.2-.32a4.61,4.61,0,0,0,.58-1.46c0-.12.06-0.23,0.07-0.35a4,4,0,0,0,0-1.57,5.58,5.58,0,0,0-.68-1.66,3.3,3.3,0,0,0-.3-0.35l-0.21-.22a3.33,3.33,0,0,0-.3-0.26l-0.55-.36-0.08,0a1,1,0,0,0,.18.31,7.45,7.45,0,0,1,.94,1.24c0.11,0.19.23,0.39,0.33,0.58s0.08,0.19.12,0.28h0Zm1.16,10.53L145.75,126l0,0a1.21,1.21,0,0,0,.72.13l0.13,0a0.2,0.2,0,0,0,.13-0.14c0-.13.09-0.25,0.14-0.37s0.08-.15.12-0.23l0-.06c0.07-.2.15-0.4,0.21-0.61a1,1,0,0,0,0-.63c0-.12-0.09-0.24-0.14-0.35a1.12,1.12,0,0,0-.44-0.51,3.21,3.21,0,0,0-.67-0.3,0.23,0.23,0,0,0-.32.11,0.72,0.72,0,0,1,.5.24l0.1,0.07a0.09,0.09,0,0,1,0,.11l-0.07,0-0.2-.14a0.26,0.26,0,0,0-.2-0.08,0.11,0.11,0,0,0-.07,0,1.5,1.5,0,0,1-.25.38,0.5,0.5,0,0,0-.08.32l0.06-.07,0.16-.17a0.31,0.31,0,0,1,.4,0l0.18,0.16,0.11,0.08v0l-0.08,0-0.25-.15a0.11,0.11,0,0,0-.17,0c-0.08.12-.16,0.24-0.23,0.36a0.23,0.23,0,0,0,0,.09,1.68,1.68,0,0,1,0,.2,0.24,0.24,0,0,0,.1.24l0.17,0.13,0.12-.48,0-.06a0.64,0.64,0,0,1,.11.15,1,1,0,0,0,.36.48L146.5,125v0Zm-1.91.92a1.17,1.17,0,0,0-.19.31,2,2,0,0,0-.14.48,1.07,1.07,0,0,0,.09.49,0.36,0.36,0,0,0,.08.12,2.21,2.21,0,0,0,.43.36,3,3,0,0,0,1,.4h0.62a0.9,0.9,0,0,0,.28,0,0.89,0.89,0,0,0,.43-0.3,0.19,0.19,0,0,0,0-.1,0.56,0.56,0,0,1,.18-0.42,0.39,0.39,0,0,0,.11-0.42,1.23,1.23,0,0,0-.06-0.13,1,1,0,0,0,0,.11,0.37,0.37,0,0,1-.28.33,2.26,2.26,0,0,1-1.13.06l-0.32-.11-0.08.53s0,0-.05,0a2.4,2.4,0,0,1-.06-0.57,0.13,0.13,0,0,0,0-.06l0,0a2.4,2.4,0,0,1-.48-0.37l0,0a0.5,0.5,0,0,1-.23-0.46c0-.06,0-0.13,0-0.22A0.79,0.79,0,0,0,144.23,125.82Zm-0.76-12.68c-0.05-.16-0.12-0.31-0.17-0.47a2.61,2.61,0,0,0-.3-0.55,3.68,3.68,0,0,0-.67-0.74c-0.09-.09-0.17-0.18-0.27-0.27l-0.41-.33-0.3-.19a1.39,1.39,0,0,0-.76-0.24,0.2,0.2,0,0,0-.07,0,0.27,0.27,0,0,0,0,.07l0.12,0.08a2.65,2.65,0,0,1,.7.55c0.18,0.2.36,0.4,0.54,0.6a1.27,1.27,0,0,1,.14.2,4.07,4.07,0,0,1,.37.72,2.11,2.11,0,0,1,.08.35c0,0.15,0,.3,0,0.45s0,0.21,0,.32a0.51,0.51,0,0,0,.06.28,0.56,0.56,0,0,0,.44.25,0.69,0.69,0,0,0,.26,0,0.35,0.35,0,0,0,.25-0.36s0-.06,0-0.09A2.15,2.15,0,0,0,143.47,113.14Zm0.48,2.58a3.6,3.6,0,0,1,.12,1,3.49,3.49,0,0,1-.08.86,6.21,6.21,0,0,1-.24.68,7.66,7.66,0,0,1-.61,1.19c-0.12.19-.26,0.36-0.39,0.54l-0.13.17a0.15,0.15,0,0,0,.13-0.05,4.19,4.19,0,0,0,.36-0.29c0.21-.2.42-0.41,0.61-0.62a1.29,1.29,0,0,0,.18-0.25l0.61-1.08a1.59,1.59,0,0,0,.09-0.24l0-.08a3.82,3.82,0,0,0,.22-1.57,1.74,1.74,0,0,0-.34-1,2.12,2.12,0,0,0-.32-0.31l-0.08,0,0.12,0.46a2.47,2.47,0,0,1,.11.78,1,1,0,0,1-.07.39l0-.08c0-.16-0.07-0.33-0.11-0.49a0.45,0.45,0,0,0-.23-0.28C143.93,115.58,143.93,115.65,143.95,115.72ZM134.87,112l-0.15.14a5.16,5.16,0,0,0-.65.6,2.7,2.7,0,0,0-.61,1.2,4.71,4.71,0,0,0-.1.89c0,0.16,0,.31,0,0.46s0,0.09.06,0.1l0,0c0.22-.26.48-0.48,0.72-0.71a1.4,1.4,0,0,0,.16-0.2l0.28-.41a1.52,1.52,0,0,0,.26-0.95,2.81,2.81,0,0,1,0-.82c0-.11,0-0.23.05-0.34l0,0Zm-3.17,2.2c0.08-.11.15-0.23,0.23-0.34l0.23-.34c0-.08.1-0.15,0.14-0.23a1.78,1.78,0,0,1,.44-0.51,3.2,3.2,0,0,1,.6-0.38q0.28-.15.55-0.33l0.8-.56,0.14-.1a3,3,0,0,1,1.1-.59h0c0.37-.19.77-0.3,1.12-0.53l0.06,0h-0.07a4.4,4.4,0,0,0-.58,0,3.34,3.34,0,0,0-.79.21c-0.18.08-.37,0.15-0.55,0.22a4.44,4.44,0,0,0-.75.42l-0.87.58a4.41,4.41,0,0,0-.7.59l-0.51.52a1.05,1.05,0,0,0-.13.15,4.52,4.52,0,0,0-.58,1.08c0,0.12-.09.23-0.13,0.35l0,0A2.67,2.67,0,0,0,131.7,114.2Zm1.44-.6a8,8,0,0,0-.6,1,1.41,1.41,0,0,0-.12.46,7.34,7.34,0,0,0-.06,1.09,3,3,0,0,0,.06.45,3.16,3.16,0,0,0,.12.47,1.6,1.6,0,0,0,.19.39c0.16,0.23.34,0.45,0.52,0.68l0.38,0.47a0.45,0.45,0,0,0,.17.13l0.37,0.19,0.13,0.06,0,0-0.11-.1-0.26-.22a2.34,2.34,0,0,1-.36-0.42c-0.09-.13-0.19-0.25-0.28-0.38a2.28,2.28,0,0,1-.35-0.88,4,4,0,0,1,0-1.05,10.65,10.65,0,0,1,.12-1.19c0-.16.07-0.31,0.11-0.46l0.07-.33a2.93,2.93,0,0,1,.23-0.69,0.09,0.09,0,0,0,0,0h0C133.33,113.36,133.23,113.47,133.15,113.6ZM133.33,133h0.73a0.27,0.27,0,0,0,.27-0.17,0.33,0.33,0,0,0-.11-0.35l-0.57-.42-0.2-.15a2.26,2.26,0,0,1-.16-0.17l-0.3.05-0.41,0-0.09,0a0.48,0.48,0,0,0-.16.26,1.36,1.36,0,0,0,0,.91A7.57,7.57,0,0,1,133.33,133Zm14.41,3.74s0,0.09,0,.13a0.24,0.24,0,0,0,.29.21,2.29,2.29,0,0,0,.74-0.29,0.22,0.22,0,0,0,.1-0.2,0.21,0.21,0,0,0,0-.05,3.21,3.21,0,0,1-.05-0.67,0.38,0.38,0,0,0,0-.14,0.17,0.17,0,0,0-.29-0.06l-0.16.11L148,136a1.6,1.6,0,0,0-.25.16,0.4,0.4,0,0,0-.1.32Zm-10.92-5.72-0.82.55a1.78,1.78,0,0,0-.35.39H136a4.84,4.84,0,0,1,1.11.12c0.14,0,.29,0,0.43,0h0.08a0.35,0.35,0,0,0,0-.06,2.54,2.54,0,0,1-.29-1c0-.08,0-0.16,0-0.26Zm-5-12.93-0.1-.27a3.66,3.66,0,0,1-.25-1.06,2.38,2.38,0,0,1,0-.37c0-.14,0-0.28.06-0.42a2.08,2.08,0,0,1,.19-0.62c0.1-.23.22-0.45,0.33-0.67l0-.07a5.5,5.5,0,0,1,.59-1,2.44,2.44,0,0,1,.28-0.39,0.35,0.35,0,0,0,0-.06,0.13,0.13,0,0,0-.11.06l-0.35.42-0.32.38a3.07,3.07,0,0,0-.4.56,10.52,10.52,0,0,0-.57,1.22,1.82,1.82,0,0,0-.1.82,1.85,1.85,0,0,0,.09.4,5.34,5.34,0,0,0,.37,1,1.88,1.88,0,0,0,.15.21l0.06,0h0S131.84,118.16,131.83,118.12Zm-0.77,12.59,0.56,0.1a2,2,0,0,1,.3.08,1,1,0,0,1,.56.45l0,0.07h0a0.41,0.41,0,0,0,.08-0.45c-0.07-.12-0.14-0.24-0.22-0.36a0.76,0.76,0,0,0-.44-0.27,3.05,3.05,0,0,0-.53-0.11,0.8,0.8,0,0,0-.74.3l-0.15.21,0,0A0.57,0.57,0,0,1,131.06,130.71Zm8.37-1.21-0.22.09-0.41.21-0.42.2-0.14.06-0.5.32-0.05,0,0.05,0,0.06,0a8,8,0,0,0,.87.25l0.29,0.1,0.11,0C139.24,130.42,139.31,130,139.43,129.51Zm1.5,10.61a0.79,0.79,0,0,0,0-.11,0.1,0.1,0,0,0-.09-0.09,0.73,0.73,0,0,0-.42,0l-0.18.07a0.39,0.39,0,0,0-.25.36,1.68,1.68,0,0,0,0,.22,0.32,0.32,0,0,0,.17.26l0.46,0.24a0.42,0.42,0,0,0,.14,0,0.15,0.15,0,0,0,.18-0.15,1.57,1.57,0,0,0,0-.17h0C140.93,140.58,140.93,140.35,140.93,140.12Zm-4.83-7.54,0.42,0.45a0.86,0.86,0,0,1,.2.32,0.14,0.14,0,0,0,.06.06l0.07,0,0.44,0.1c0-.18.06-0.36,0.11-0.54s0.13-.34.2-0.51h-0.05a3.51,3.51,0,0,1-.87-0.08,3.53,3.53,0,0,0-.76,0l0,0Zm-3.51-14.51a3.14,3.14,0,0,0-.05,1,0.84,0.84,0,0,0,.26.56l0,0h0l0-.1a1.29,1.29,0,0,1-.06-0.7s0-.14.07-0.13,0.05,0.09.07,0.14,0,0.15,0,.22a1.08,1.08,0,0,0,.19.48,1.9,1.9,0,0,0,.49.48,2.33,2.33,0,0,0,.35.17l-0.16-.19a1.93,1.93,0,0,1-.31-0.48c0-.08-0.08-0.15-0.12-0.23l-0.29-.66c0-.1-0.1-0.2-0.15-0.3l-0.19-.37-0.07-.12A0.23,0.23,0,0,0,132.58,118.07Zm8.67,22.72a0.36,0.36,0,0,0,.22.35,0.44,0.44,0,0,0,.46-0.06,0.38,0.38,0,0,0,.17-0.36,4.31,4.31,0,0,0-.07-0.48,0.23,0.23,0,0,0-.25-0.21l-0.17,0a0.71,0.71,0,0,0-.18,0,0.2,0.2,0,0,0-.18.22c0,0.05,0,.1,0,0.15v0.14h0C141.26,140.61,141.26,140.7,141.26,140.79ZM141,130l-0.4-.14a4.48,4.48,0,0,0-.76-0.22h-0.11a0.66,0.66,0,0,0-.08.28,5.41,5.41,0,0,1-.16.79s0,0.1,0,.17a17.12,17.12,0,0,0,1.62-.84Zm-2.75-6.58a3.83,3.83,0,0,0,.6.78,3.38,3.38,0,0,0,.66-0.86l-0.65-.42Zm-0.09,8.24a4.72,4.72,0,0,1,.78-0.5l0.11-.07-0.16,0-0.77-.16c-0.13,0-.25-0.09-0.38-0.13l-0.21-.05a3.54,3.54,0,0,0,.37,1.19Zm11.38,3.44a0.06,0.06,0,0,0-.09,0l-0.23.21a0.37,0.37,0,0,0-.12.42,2,2,0,0,1,.11.64c0,0.13.07,0.18,0.19,0.12a0.42,0.42,0,0,0,.13-0.11,0.86,0.86,0,0,0,.17-0.32,2.16,2.16,0,0,0,.11-0.56A0.58,0.58,0,0,0,149.55,135.13Zm-2.31,1.92a0.15,0.15,0,0,0,.16-0.2c0-.12-0.07-0.23-0.1-0.35a0.15,0.15,0,0,0-.15-0.12,1.24,1.24,0,0,0-.27,0l-0.41.1a0.37,0.37,0,0,0-.27.45,0.17,0.17,0,0,0,.16.13h0.31Zm-2.33.7c0.06,0.13.11,0.26,0.18,0.39a0.27,0.27,0,0,0,.24.15,0.84,0.84,0,0,0,.23,0,2.25,2.25,0,0,0,.34-0.11A0.17,0.17,0,0,0,146,138a0.47,0.47,0,0,0-.23-0.39,0.41,0.41,0,0,0-.24-0.06l-0.2,0-0.31,0h-0.08A0.18,0.18,0,0,0,144.91,137.75ZM139,124.41a2.16,2.16,0,0,0,.8.65,2.81,2.81,0,0,0,0-.3,5.44,5.44,0,0,1,0-.85c0-.1,0-0.19,0-0.29s0-.1-0.13-0.13A4.49,4.49,0,0,1,139,124.41ZM147.58,138a0.19,0.19,0,0,0,.12-0.24,1,1,0,0,0-.09-0.21,0.17,0.17,0,0,0-.15-0.08H147.3a2.39,2.39,0,0,1-.7.08,0.14,0.14,0,0,0-.17.16,0.18,0.18,0,0,0,0,.09,0.43,0.43,0,0,0,.29.25l0.35,0A1,1,0,0,0,147.58,138Zm-2.06-.82a0.35,0.35,0,0,0,.16,0,0.33,0.33,0,0,0,0-.49,1.58,1.58,0,0,0-.69-0.14,0.27,0.27,0,0,0-.18.08,0.14,0.14,0,0,0,0,.12c0,0.12,0,.23,0,0.35a0.11,0.11,0,0,0,.14.14h0.66Zm1.35-1.06a1.08,1.08,0,0,0,.24-0.09,0.16,0.16,0,0,0,.09-0.16c0-.15,0-0.29,0-0.44s0-.09-0.1-0.07l-0.28.07-0.22,0a0.47,0.47,0,0,0-.24.11,0.14,0.14,0,0,0-.05.08c0,0.15,0,.31-0.06.46a0.14,0.14,0,0,0,0,0A2.19,2.19,0,0,0,146.86,136.1Zm0.74-.47a0.18,0.18,0,0,0,.25.13,1.18,1.18,0,0,0,.58-0.41,0.2,0.2,0,0,0,0-.25,0.71,0.71,0,0,1-.06-0.14,0.12,0.12,0,0,0-.12-0.1h-0.11l-0.34.06a0.28,0.28,0,0,0-.24.3s0,0.09,0,.13h0A2.55,2.55,0,0,0,147.6,135.63Zm-3.09,2.23a0.35,0.35,0,0,0-.42-0.24,1.85,1.85,0,0,1-.59,0h-0.05a0.18,0.18,0,0,0,0,.21,0.86,0.86,0,0,0,.41.37,1.36,1.36,0,0,0,.51.15h0.07a0.18,0.18,0,0,0,.22,0C144.61,138.14,144.57,138,144.51,137.86Zm-3.68-.37c-0.18-.2-0.36-0.41-0.55-0.61a0.5,0.5,0,0,0-.42-0.14,0.18,0.18,0,0,0-.18.19,0.74,0.74,0,0,0,.16.45,0.14,0.14,0,0,0,.08,0,2.5,2.5,0,0,0,.83.11h0.1Zm-2-12.89-0.07.06-0.14.15a0.52,0.52,0,0,1-.34.17s0,0.1,0,.15,0,0.1,0,.16a0.72,0.72,0,0,0,.36.11s0-.09.07-0.09v-0.06a0.09,0.09,0,0,1,.15,0,1.27,1.27,0,0,1,.12.2,2.07,2.07,0,0,0,.61-0.13A3.21,3.21,0,0,1,138.88,124.61Zm-0.07-2a1.16,1.16,0,0,0,.42-0.75l-0.57,0a1,1,0,0,1,.08.14,0.18,0.18,0,0,1,0,.17l-0.07-.06a0.24,0.24,0,0,0-.14-0.09,0.07,0.07,0,0,1,0-.1l0-.06-0.73-.09A5.17,5.17,0,0,0,138.81,122.65Zm2.6,7.11a1.4,1.4,0,0,1,.36-0.48,3.57,3.57,0,0,0-1.76,0Zm2.89,7.42a1.92,1.92,0,0,0,0-.53,0.27,0.27,0,0,0-.24-0.22l-0.3,0c-0.08,0-.1,0-0.11.1s0,0.3-.07.46l0,0.18A2.32,2.32,0,0,0,144.3,137.18ZM144,136a1.87,1.87,0,0,0,1,0,1.27,1.27,0,0,0,.46-0.22l0.05,0,0,0-0.59-.16a0.16,0.16,0,0,0-.12,0,5.12,5.12,0,0,1-.89.38l0,0A0.58,0.58,0,0,0,144,136Zm-2.86,1.32a0.29,0.29,0,0,0,.35.13,1.59,1.59,0,0,0,.38-0.12l0.54-.28,0.2-.14a0.29,0.29,0,0,0-.19,0,2.64,2.64,0,0,0-.32.08,1.54,1.54,0,0,1-.49.09h-0.43l-0.21,0h-0.07v0A3.5,3.5,0,0,1,141.09,137.33Zm-0.14,1.9a0.16,0.16,0,0,0-.14-0.13h0l-0.56,0-0.13,0a1,1,0,0,0,0,.15,0.43,0.43,0,0,0,0,.14s0,0.08.05,0.13a0.28,0.28,0,0,0,.28.19l0.33,0,0.18,0A0.67,0.67,0,0,0,140.95,139.23Zm-7.18-23.73a1.34,1.34,0,0,0-.33,1,0.13,0.13,0,0,0,.09.13,0.09,0.09,0,0,0,.12,0,0.44,0.44,0,0,0,.08-0.22,1.44,1.44,0,0,1,.26-0.76l0.4-.58a1.19,1.19,0,0,0,.19-0.35Zm11.72,11.18,0.13,0a1.47,1.47,0,0,0,.88,0,0.45,0.45,0,0,0,.21-0.13,0.13,0.13,0,0,0,0-.17,0.14,0.14,0,0,0-.16-0.06h0a1.06,1.06,0,0,1-.82-0.07h-0.07Zm-5.32,14.86c0,0.11.06,0.21,0.08,0.31a0.41,0.41,0,0,0,.52.25,0.15,0.15,0,0,0,.11-0.16,2,2,0,0,0,0-.26,0.25,0.25,0,0,0-.21-0.22l-0.5-.12h0C140.15,141.41,140.16,141.48,140.18,141.54Zm0.6-2.75a0.15,0.15,0,0,0,.14-0.23,0.25,0.25,0,0,0-.18-0.17,1.91,1.91,0,0,1-.48-0.21,0.15,0.15,0,0,0-.24.14,1,1,0,0,0,0,.12,0.31,0.31,0,0,0,.25.3,0.82,0.82,0,0,0,.36,0h0.16Zm-3.11-16.67c0.08,0.25.16,0.49,0.23,0.74a2.29,2.29,0,0,0,.2.36,2.69,2.69,0,0,0,.52-0.4l-1-.74A0.22,0.22,0,0,0,137.67,122.12Zm11.6,15.44a2,2,0,0,0,.58-0.5,0.78,0.78,0,0,0,.15-0.57,0.69,0.69,0,0,0,0-.13l-0.07.08-0.26.33a1.12,1.12,0,0,1-.31.27,0.14,0.14,0,0,0-.06.07c0,0.16-.06.32-0.09,0.5Zm-7.92,1.94a0.1,0.1,0,0,0,.11.13h0.06l0.36,0h0a0.15,0.15,0,0,0,.17-0.22c0-.06,0-0.13,0-0.19a0.17,0.17,0,0,0-.18-0.16h-0.35a0.16,0.16,0,0,0-.17.2v0.05h0S141.34,139.45,141.34,139.5Zm-0.1,2.45a0.21,0.21,0,0,0,.18.24,0.32,0.32,0,0,0,.34-0.11,0.69,0.69,0,0,0,.16-0.25,0.56,0.56,0,0,0,0-.15,0.14,0.14,0,0,0-.17-0.16l-0.48.07C141.27,141.72,141.26,141.84,141.24,142Zm-1.52-19.25c-0.07-.21-0.12-0.44-0.17-0.65l0-.11a4.18,4.18,0,0,1-.17.46,4,4,0,0,1-.27.4l0.56,0.37A0.62,0.62,0,0,0,139.72,122.71Zm3.11-11.24,0.25,0.27,0.06,0a0.11,0.11,0,0,0,.13,0,0.14,0.14,0,0,0,0-.11,0.68,0.68,0,0,0-.2-0.36l-0.32-.3a1.82,1.82,0,0,0-.47-0.27l-0.33-.13h0Zm-1.15,9.11a1.61,1.61,0,0,0,.47-0.44,3.32,3.32,0,0,1,.22-0.28,2.72,2.72,0,0,0,.41-0.67v-0.06l-0.06,0a2.69,2.69,0,0,0-.48.54,1.45,1.45,0,0,1-.14.16l-0.26.28-0.25.28-0.2.22A0.43,0.43,0,0,0,141.67,120.58Zm3.26,14.14a1.61,1.61,0,0,1-.44,0,2.51,2.51,0,0,0-.51,0,0.3,0.3,0,0,0,.05.06,2.35,2.35,0,0,0,.23.16l0.43,0.22a0.08,0.08,0,0,0,.1,0l0.56-.42,0,0Zm-6.7-13.4,0.17,0.2a0.1,0.1,0,0,0,.12,0,0.37,0.37,0,0,0,.22-0.13,1.32,1.32,0,0,1,.39-0.35l0,0H139.1l-0.43,0a0.12,0.12,0,0,0-.1.06c-0.06.07-.1,0.07-0.16,0a0.1,0.1,0,0,0-.05,0l-0.3,0,0,0Zm7.17,4.75-0.41-.45a0.49,0.49,0,0,0,0,.7l0.15,0.14,0.09,0.07Zm-3,13.5a0.19,0.19,0,0,0,.31.13,0.24,0.24,0,0,0,.14-0.27c0-.12,0-0.24-0.08-0.36a0.07,0.07,0,0,0-.08-0.06h-0.24a0.08,0.08,0,0,0-.09.09c0,0.06,0,.12,0,0.18h0A2.31,2.31,0,0,0,142.43,139.57Zm6-1.76a0.3,0.3,0,0,0,.23-0.18,1.94,1.94,0,0,0,.1-0.26,0.12,0.12,0,0,0,0-.09,0.08,0.08,0,0,0-.1,0l-0.53.14a0.1,0.1,0,0,0-.09.09,0.66,0.66,0,0,0,0,.21,0.2,0.2,0,0,0,.24.12Zm-9.39-16.22,0.81-.19,0.27-.1a2.28,2.28,0,0,0-.56-0.25H139.5l-0.46.31a0.57,0.57,0,0,0-.19.25Zm-0.87,0a0.08,0.08,0,0,0,0,0,2.52,2.52,0,0,1-.34-0.47l-0.06-.08a0.19,0.19,0,0,0-.21,0l-0.33.15-0.16.11a2.73,2.73,0,0,0,.36.14c0-.07,0-0.17.08-0.19a0.16,0.16,0,0,1,.17.05,0.17,0.17,0,0,1,0,.22A2.47,2.47,0,0,0,138.18,121.58Zm7.42,4.1,0.15-.41a0.25,0.25,0,0,0,0-.23,0.61,0.61,0,0,0-.29-0.25l0,0-0.05.58a0.48,0.48,0,0,0,.09.3l0.09,0.12Zm-13.72-9.46q0,0.45,0,.89a1,1,0,0,0,.07.35,0.34,0.34,0,0,0,.25.19,0.39,0.39,0,0,0,0-.21c0-.16-0.08-0.31-0.13-0.46a2.74,2.74,0,0,1-.1-0.78c0-.06,0-0.13,0-0.19A0.32,0.32,0,0,0,131.89,116.22Zm10.5,24.48a0.1,0.1,0,0,0,.18.08l0.17-.13a0.28,0.28,0,0,0,.1-0.22,0.21,0.21,0,0,0-.14-0.22,0.79,0.79,0,0,1-.17-0.1s-0.06-.06-0.1,0a0.27,0.27,0,0,0-.05.1,0,0,0,0,0,0,0h0C142.38,140.37,142.39,140.54,142.39,140.71Zm3.36-5.3a1.79,1.79,0,0,0,.07-0.71,3.71,3.71,0,0,1-.66.57A1.28,1.28,0,0,0,145.75,135.41Zm-2-.51v0.71a3.12,3.12,0,0,0,.67-0.26A2.05,2.05,0,0,1,143.76,134.89Zm-4.29,6.58,0.14,0.24a0.28,0.28,0,0,0,.15.12,0.09,0.09,0,0,0,0,0c0-.21-0.08-0.42-0.12-0.62a0.27,0.27,0,0,0-.13-0.19l-0.26-.18A1.81,1.81,0,0,0,139.47,141.48Zm2.11-3.7,0.35,0.2a0.13,0.13,0,0,0,.11,0l0.29-.26a0.64,0.64,0,0,0,.17-0.27s0,0,0-.07A3.72,3.72,0,0,1,141.58,137.78Zm-3.42-14h0l0.09,0.42h0.13a0.09,0.09,0,0,1,0,.06c0,0.08,0,.13-0.13.17l0,0.42a1.53,1.53,0,0,0,.39-0.37Zm4,14.76a0.15,0.15,0,0,0,.07.15l0,0,0.21,0a0.2,0.2,0,0,0,.17-0.1,0.37,0.37,0,0,0,0-.11,0.59,0.59,0,0,1,0-.07,0.12,0.12,0,0,0-.1-0.17h-0.1A0.31,0.31,0,0,0,142.2,138.5Zm-2.51-.51a1,1,0,0,1,0-.15,0.11,0.11,0,0,0,0-.15l-0.15-.12a0.08,0.08,0,0,0-.09,0,0.16,0.16,0,0,0-.12.14,0.27,0.27,0,0,0,0,.11,1,1,0,0,0,.28.46l0,0C139.67,138.18,139.68,138.09,139.69,138Zm-0.28,1,0,0.28a0.39,0.39,0,0,0,.26.3,1.73,1.73,0,0,1,0-.18c0-.17,0-0.34,0-0.52a0.16,0.16,0,0,0-.08-0.15l-0.2-.14Zm2.08-.93-0.31-.21-0.08,0-0.6,0h0a1.48,1.48,0,0,0,1.09.25Zm1.12-8.47,0,0a2.81,2.81,0,0,0-.6-0.23l-0.15.21a0.45,0.45,0,0,0-.14.23A4,4,0,0,1,142.62,129.62Zm0.15,11.63h-0.12a0.28,0.28,0,0,0-.23.23c0,0.12-.06.25-0.1,0.37s0,0.07,0,.12A0.8,0.8,0,0,0,142.77,141.24Zm-12.21-10.95a0.47,0.47,0,0,0-.52,0,1,1,0,0,0,.25.46Zm6.08-9.69,0,0.1,0.1,0.33a0.1,0.1,0,0,0,.17.05l0.33-.23Zm5.19,18.15a0.12,0.12,0,0,0,.12-0.11,0.13,0.13,0,0,0-.12-0.13H141.6l-0.13,0c-0.2,0-.19.09-0.13,0.26ZM139.89,121l0.3,0.15a0.07,0.07,0,0,0,.11,0,0.84,0.84,0,0,0,.12-0.3,0.13,0.13,0,0,0-.14,0l-0.48.14v0Zm-4.47,11.32a0.17,0.17,0,0,0,0,.12,0.32,0.32,0,0,0,.11.25c0.15,0.12.31,0.23,0.47,0.34l0.1,0.05v0ZM148.81,135a0.12,0.12,0,0,0,.13.11,0.19,0.19,0,0,0,.18-0.16,0.13,0.13,0,0,0-.16-0.1A0.15,0.15,0,0,0,148.81,135Zm-9.21,5.41h0l0.05-.44-0.07,0-0.12,0A3.21,3.21,0,0,0,139.6,140.42Zm6.17-4.32h0.05l0-.23h0l-0.23.22Z" transform="translate(-16.14 -109.26)" style="fill: #682f24;fill-rule: evenodd"/>
      <path d="M141.92,124a0.77,0.77,0,0,1,.08.11l0.12,0.3c0,0.12.08,0.24,0.13,0.35a0.53,0.53,0,0,0,.08.14,0.34,0.34,0,0,0,.41,0l0.18-.1,0.17-.12a0.16,0.16,0,0,1,0,.17l-0.12.13a1,1,0,0,0-.26.5,4.28,4.28,0,0,0-.08.67,3.52,3.52,0,0,0,.08.79,7.21,7.21,0,0,1,.14,1.09,2,2,0,0,0,.36,1,1.2,1.2,0,0,0,.43.37,1.91,1.91,0,0,0,.86.22,1.05,1.05,0,0,0,.51-0.07,1.87,1.87,0,0,0,.75-0.56,3.57,3.57,0,0,0,.23-0.35,0.33,0.33,0,0,0,0-.27,0.23,0.23,0,0,0-.14-0.13,1.53,1.53,0,0,0-.53-0.16l-0.42-.06a1.12,1.12,0,0,1-.25-0.09,3.34,3.34,0,0,1-.55-0.33,1.2,1.2,0,0,1-.41-0.57l0-.11a4.15,4.15,0,0,0-.21.54l0-.08a3.32,3.32,0,0,1,0-1.13,0.59,0.59,0,0,1,0-.11c0.08-.21.17-0.42,0.24-0.63a0.77,0.77,0,0,0,0-.21,2.81,2.81,0,0,0-.15-1.23,4.42,4.42,0,0,0-.8-1.34,4.9,4.9,0,0,0-.74-0.68,1.94,1.94,0,0,0-.34-0.19l-0.65-.29a1,1,0,0,0-.57-0.06l-0.15,0-0.45.12v0.08c0.1,0.43.2,0.87,0.26,1.31a4.48,4.48,0,0,1,0,.88c0,0.33,0,.65,0,1a0.68,0.68,0,0,1-.32.58,0.64,0.64,0,0,1-.27.09l-0.91.13h-0.28a0.41,0.41,0,0,1-.34-0.19,0.23,0.23,0,0,1,0-.11,3.23,3.23,0,0,1,0-.33,6.08,6.08,0,0,0-.26-1.84c-0.06-.2-0.15-0.4-0.2-0.6a2.75,2.75,0,0,0-.42-0.87,0.67,0.67,0,0,0-.58-0.3,2.1,2.1,0,0,0-.75.15,3.62,3.62,0,0,0-.46.23c-0.21.11-.44,0.21-0.65,0.31l-0.41.21-0.28.16a3.19,3.19,0,0,0-.37.28c-0.22.21-.43,0.43-0.65,0.65l-0.09.11c-0.18.24-.36,0.48-0.53,0.72s-0.27.41-.4,0.62a0.81,0.81,0,0,0-.06.18,0.8,0.8,0,0,1,0,.13,5.86,5.86,0,0,0-.35.94c0,0.11-.08.22-0.13,0.33a0.84,0.84,0,0,0-.09.43,0.33,0.33,0,0,0,.28.31,0.69,0.69,0,0,0,.35,0,1.43,1.43,0,0,0,.29-0.14,0.76,0.76,0,0,1,.56-0.11h0.18l-0.05.06-0.27.16a0.2,0.2,0,0,0-.11.13,0.14,0.14,0,0,0,.11.19l0.23,0a1.08,1.08,0,0,1,.38.14,0.47,0.47,0,0,1,.2.22,0.07,0.07,0,0,1-.1,0,3.14,3.14,0,0,0-1.38-.22,1.52,1.52,0,0,0-.69.17,0.57,0.57,0,0,0-.26.25l-0.14.3c-0.11.26-.22,0.53-0.34,0.78a2.09,2.09,0,0,1-.19.28l-0.08.12,0.15,0,0.34,0a4.24,4.24,0,0,1,.94.16L132,130l0.43,0.14a0.68,0.68,0,0,1,.14.08,1.62,1.62,0,0,1,.64.93c0,0.09,0,.19.06,0.3a1,1,0,0,0,.09-0.11,2,2,0,0,0,.24-0.64,6,6,0,0,1,.2-0.74,3.28,3.28,0,0,1,.15-0.37c0-.06.06-0.1,0.09-0.16a2.38,2.38,0,0,0,.19-0.35,8.15,8.15,0,0,0,.27-0.88,5.85,5.85,0,0,0,.1-2c0-.18-0.06-0.36-0.09-0.53a0.7,0.7,0,0,1,0-.09,0.1,0.1,0,0,1,.12-0.13,0.65,0.65,0,0,0,.28-0.07,0.46,0.46,0,0,0,.27-0.41c0-.07,0-0.14,0-0.21a0.11,0.11,0,0,1,.07-0.12c0.07,0,.06.07,0.07,0.12a1.79,1.79,0,0,1,0,.63c-0.06.29-.12,0.57-0.17,0.86s-0.06.39-.08,0.59c0,0.35-.06.7-0.09,1s-0.06.84-.09,1.26v0a0.47,0.47,0,0,0-.26.07,0.87,0.87,0,0,0-.29.35,2.72,2.72,0,0,0-.14.55,3.7,3.7,0,0,0-.09.94c0,0.13,0,.27,0,0.4a1.06,1.06,0,0,0,.32.6,0.45,0.45,0,0,0,.18.11,0.76,0.76,0,0,1,.22.13l0.16,0.11a3.41,3.41,0,0,0,.51-0.61,1.8,1.8,0,0,1,.17-0.19l0.2-.18a4.73,4.73,0,0,1,.94-0.71l0.11-.07v0h-0.4a0.16,0.16,0,0,1-.1-0.05,0.09,0.09,0,0,1,0-.14,1.32,1.32,0,0,1,.24-0.1,3.63,3.63,0,0,0,.79-0.34c0.19-.1.38-0.18,0.56-0.28a3.38,3.38,0,0,0,.44-0.31,2.81,2.81,0,0,0-.31,0,3.28,3.28,0,0,0-.87.23,1.25,1.25,0,0,1-.44.1h-0.57a0.08,0.08,0,0,1,.05-0.12,8.31,8.31,0,0,1,.92-0.4,4.94,4.94,0,0,1,.87-0.21l0.4-.07,0.64-.06,0.8-.08c0.24,0,.48,0,0.72,0l0.61,0,0.22,0a2.25,2.25,0,0,0,.62.08,0.31,0.31,0,0,0,.28-0.16,0.35,0.35,0,0,0,0-.25c0-.07,0-0.13-0.05-0.2s-0.07-.4-0.08-0.6c0-.51-0.06-1-0.09-1.52a9.68,9.68,0,0,0-.14-1c-0.05-.3-0.08-0.61-0.12-0.91,0-.07,0-0.15,0-0.22A0.14,0.14,0,0,1,141.92,124Z" transform="translate(-16.14 -109.26)" style="fill: #fff;fill-rule: evenodd"/>
      <path d="M139.35,114c0.06,0.14.11,0.29,0.17,0.43s0.15,0.29.22,0.43a2.46,2.46,0,0,0,.54-0.15,2.16,2.16,0,0,1,.65-0.13,3.06,3.06,0,0,0,.59-0.08,2,2,0,0,1,1.13,0,0.63,0.63,0,0,1,.3.18,1.91,1.91,0,0,1,.3.59,2.28,2.28,0,0,1,.09.63,3.11,3.11,0,0,1,0,.49c0,0.2-.06.4-0.1,0.61l0,0a0.78,0.78,0,0,1,.16.09,0.41,0.41,0,0,1,.1.41,1.13,1.13,0,0,1-.1.25,0.36,0.36,0,0,1-.35.2,0.16,0.16,0,0,0-.16.09l-0.1.21a3,3,0,0,1-.23.41,6.84,6.84,0,0,1-.48.57c-0.18.19-.37,0.37-0.55,0.55a2.07,2.07,0,0,1-.63.43,6.14,6.14,0,0,1-1.2.41,3.15,3.15,0,0,1-1.11.12,4.6,4.6,0,0,1-1.33-.3c-0.15-.07-0.32-0.11-0.48-0.17a4.53,4.53,0,0,1-1-.57c-0.19-.13-0.35-0.29-0.52-0.43a3.14,3.14,0,0,1-.76-0.87l-0.28-.45a0.14,0.14,0,0,0-.13-0.07,0.71,0.71,0,0,1-.35-0.1,0.16,0.16,0,0,1-.07-0.05,4.05,4.05,0,0,1-.2-0.4,0.32,0.32,0,0,1,.05-0.3,0.23,0.23,0,0,1,.21-0.06h0a0.19,0.19,0,0,0,.2-0.14,0.3,0.3,0,0,0,0-.15,1.76,1.76,0,0,1,0-.44,1.17,1.17,0,0,1,.23-0.55,2,2,0,0,1,.39-0.4l0.29-.21,0.12-.12,0.29-.34c0.07-.08.08-0.07,0.17,0a1,1,0,0,0,.45.17,1.84,1.84,0,0,0,.61,0,1.86,1.86,0,0,1,.37-0.06,2.51,2.51,0,0,1,.76.07,2.18,2.18,0,0,0,.83,0,2.52,2.52,0,0,1,.53,0l0.21,0c0-.15,0-0.29,0-0.42s0-.28,0-0.42h0Zm-2.14,4.7a0.23,0.23,0,0,1,.26-0.05l0.07,0a1.34,1.34,0,0,0,.35.19,2.28,2.28,0,0,0,.29.11,2,2,0,0,1,.28.09,1.41,1.41,0,0,0,.8.12l0.53-.06a1.53,1.53,0,0,0,.42-0.12c0.12-.06.25-0.1,0.37-0.15l0.24-.13a0.14,0.14,0,0,1,.15,0l0.2,0.11a0.42,0.42,0,0,0,0-.08l-0.06-.15c0-.1-0.06-0.1-0.16-0.08a3.1,3.1,0,0,0-.61.17,2.05,2.05,0,0,1-.39.08,6.1,6.1,0,0,1-1.14,0,1.52,1.52,0,0,1-.35-0.06,6.5,6.5,0,0,1-.71-0.22,0.89,0.89,0,0,0-.47,0h0a0.13,0.13,0,0,0-.1.19l0,0.07Zm0.13-1.76a0.88,0.88,0,0,0,.42,0,1.21,1.21,0,0,0,.46-0.14,0.22,0.22,0,0,0,.11-0.26,0.82,0.82,0,0,0-.18-0.34,0.43,0.43,0,0,0-.32-0.17,1.34,1.34,0,0,0-.5,0l-0.3.07a0.58,0.58,0,0,0-.31.2c-0.09.1-.18,0.21-0.26,0.32l0,0.05a0.08,0.08,0,0,0,0,.13,0.47,0.47,0,0,0,.26.06h0.18A1.24,1.24,0,0,1,137.34,116.92Zm4.78-.79a0.44,0.44,0,0,0-.4-0.21l-0.68,0a0.26,0.26,0,0,0-.14,0,1.52,1.52,0,0,0-.45.46,0.29,0.29,0,0,0,0,.25h0a5.92,5.92,0,0,0,.64.11c0.15,0,.29,0,0.44,0a0.87,0.87,0,0,0,.57-0.26,0.13,0.13,0,0,0,0-.18C142.25,116.28,142.2,116.25,142.12,116.13Zm-5.05-.8,0.14-.05,0.34-.11a0.11,0.11,0,0,0,.09-0.14,0.12,0.12,0,0,0-.09-0.15,0.61,0.61,0,0,0-.23,0,1.29,1.29,0,0,0-.76.53,0.47,0.47,0,0,0-.07.15,0.3,0.3,0,0,0,0,.1h0A2.21,2.21,0,0,1,137.07,115.33Zm5.28-.13a2.91,2.91,0,0,0-.4-0.36,0.87,0.87,0,0,0-.76-0.11,0.24,0.24,0,0,0-.11.08s0,0.09,0,.11l0.31,0.09,0.45,0.16c0.17,0.07.35,0.11,0.52,0.16l0,0A0.56,0.56,0,0,0,142.35,115.21Zm-2.58,4.4,0.13-.08a0,0,0,0,0,0-.09h-0.13l-0.42,0h-0.7a0.06,0.06,0,0,0-.08,0,0.1,0.1,0,0,0,0,.08,0.28,0.28,0,0,0,.11.08,1.08,1.08,0,0,0,.4.07A2.07,2.07,0,0,0,139.77,119.61Zm0.06-1.73a0.27,0.27,0,0,0,.09-0.12,0.09,0.09,0,0,0,0-.09,0.07,0.07,0,0,0-.09,0l-0.1.08a0.68,0.68,0,0,1-.44.07h0a0.1,0.1,0,1,0,0,.19h0.2A0.65,0.65,0,0,0,139.83,117.88Z" transform="translate(-16.14 -109.26)" style="fill: #fff;fill-rule: evenodd"/>
      <path d="M138,133.71h0.12a1.27,1.27,0,0,1,.69,0l0.4,0.09a0.12,0.12,0,0,0,.14,0l0.38-.45c0.05-.06.12-0.12,0.17-0.18s0.16-.25.24-0.38l0.07-.11a0.29,0.29,0,0,1,.21-0.15l0.45-.11a0.19,0.19,0,0,0,.13-0.11,0.2,0.2,0,0,0-.16-0.3l-0.67,0H140a0.56,0.56,0,0,1,.31-0.09,3.67,3.67,0,0,1,.55,0,0.94,0.94,0,0,1,.41.18c0.2,0.14.4,0.28,0.59,0.44s0.35,0.33.53,0.49a1,1,0,0,0,.25.2,0.71,0.71,0,0,1,.25.19l0.07,0.06,0.25,0.22a0.78,0.78,0,0,0,.45.24,0.37,0.37,0,0,0,.27-0.05,0.17,0.17,0,0,0,.07-0.08,0.52,0.52,0,0,1,.18-0.21,0.9,0.9,0,0,1,0,.3,0.63,0.63,0,0,0,0,.3,0.23,0.23,0,0,0,.19.16,2.8,2.8,0,0,0,.93,0,0.89,0.89,0,0,0,.6-0.33,2.32,2.32,0,0,0,.22-0.42,0.29,0.29,0,0,0,0-.13,2.47,2.47,0,0,0-.1-0.74l-0.07-.18a1,1,0,0,1,.5.55c0-.09,0-0.17,0-0.25s0-.31,0-0.46,0-.29,0-0.43a1.9,1.9,0,0,0-.23-0.78A1.83,1.83,0,0,0,146,131a1.65,1.65,0,0,0-.17-0.19,1.2,1.2,0,0,0-.25-0.19,3.12,3.12,0,0,0-1.18-.33l-0.42-.06-0.68-.09a3.33,3.33,0,0,0-.75,0h-0.17a2,2,0,0,0-.68.15l-0.09,0-1,.46-0.82.38h0a5.41,5.41,0,0,0-.82.35,0.84,0.84,0,0,0-.21.15c-0.12.11-.22,0.24-0.34,0.35a1.84,1.84,0,0,0-.33.5,1.16,1.16,0,0,0-.1.45,2.09,2.09,0,0,0,0,.61S138,133.66,138,133.71Z" transform="translate(-16.14 -109.26)" style="fill: #fff;fill-rule: evenodd"/>
      <path d="M138.72,111.69a1.33,1.33,0,0,1,.28.47l0.26,0.71a8.08,8.08,0,0,0,.45,1c0.05,0.1.09,0.2,0.14,0.3a0.43,0.43,0,0,0,.12-0.49l0.06,0.07c0.07,0.12.15,0.24,0.21,0.36a0.24,0.24,0,0,0,.23.14l0.34,0,0.2,0a0.74,0.74,0,0,1,.3.05,0.93,0.93,0,0,0,.81,0,0.26,0.26,0,0,0,.14-0.21,2.07,2.07,0,0,0-.08-0.87c-0.09-.27-0.18-0.53-0.26-0.8a1.93,1.93,0,0,0-.29-0.53,3.44,3.44,0,0,0-1.14-1.06,4.54,4.54,0,0,0-.86-0.39,1.36,1.36,0,0,0-.29-0.05,0.18,0.18,0,0,0-.11,0c-0.08.05-.08,0.11,0,0.17l0.15,0.11a2.92,2.92,0,0,1,.74.73,2.33,2.33,0,0,1,.2.33c0.1,0.21.19,0.42,0.29,0.63a1.92,1.92,0,0,1,.11,1.13,0.37,0.37,0,0,1-.1.25c0-.05,0-0.09,0-0.13a4,4,0,0,0-.35-1.56,2.21,2.21,0,0,0-.86-1l-0.22-.15-0.08-.05-0.67-.27a1.17,1.17,0,0,0-.73,0,0.65,0.65,0,0,0-.48.56,3.45,3.45,0,0,0-.05,1c0,0.13,0,.26,0,0.39s0,0.51,0,.77a1.59,1.59,0,0,0,.32.83,0.58,0.58,0,0,0,.41.23,5.26,5.26,0,0,0,.75,0,0.5,0.5,0,0,0,.17,0,0.19,0.19,0,0,0,.13-0.18,8.77,8.77,0,0,0,0-1,3.27,3.27,0,0,0-.1-0.69C138.83,112.14,138.78,111.91,138.72,111.69Z" transform="translate(-16.14 -109.26)" style="fill: #fd8204;fill-rule: evenodd"/>
      <path d="M140.05,136.07l0-.07h0a1.06,1.06,0,0,1,.33.33,0.59,0.59,0,0,0,.27.24l0.17,0.09a1.29,1.29,0,0,0,.72.08,1.81,1.81,0,0,0,.84-0.3l0.17-.13,0.05,0.14a0.23,0.23,0,0,0,.39.06,1.59,1.59,0,0,0,.27-0.55,1.33,1.33,0,0,0,.1-0.48,1.8,1.8,0,0,0,0-.7,2.65,2.65,0,0,0-.1-0.45,1.08,1.08,0,0,0-.17-0.37,1.56,1.56,0,0,0-.78-0.62l-0.4-.17a4.12,4.12,0,0,0-.64-0.14,2.61,2.61,0,0,0-.74,0,0.55,0.55,0,0,0-.32.15,1.73,1.73,0,0,0-.19.22l-0.26.33a0.83,0.83,0,0,0-.2.39c0,0.15-.08.31-0.13,0.46a1.67,1.67,0,0,0,0,1,1.34,1.34,0,0,0,.13.28,0.39,0.39,0,0,0,.13.13Z" transform="translate(-16.14 -109.26)" style="fill: #fff;fill-rule: evenodd"/>
      <path d="M130.15,131.42a0.91,0.91,0,0,0,.35,0,1.07,1.07,0,0,1,.71.14l0.07,0.05a0.06,0.06,0,0,1-.09,0,2.19,2.19,0,0,0-.66-0.06,1.66,1.66,0,0,0-.7.18,3.44,3.44,0,0,0-.72.48,0.22,0.22,0,0,0-.1.17,0.15,0.15,0,0,0,.06.14,0.19,0.19,0,0,1,.08.18,0.45,0.45,0,0,0,.2.42,0.8,0.8,0,0,1,.16,0c0.06,0,.08,0,0.08.09h0a1.34,1.34,0,0,0,0,.68,4.73,4.73,0,0,0,.1.51,4,4,0,0,0,.14.41,0.23,0.23,0,0,0,.21.12,0.09,0.09,0,0,0,.1-0.11c0-.18,0-0.36,0-0.54a4.08,4.08,0,0,1,0-.65,0.44,0.44,0,0,1,.23-0.36l0.21-.13,0.55-.28a0.1,0.1,0,0,1,.13,0,0.1,0.1,0,0,1,0,.13l-0.08.11a1.22,1.22,0,0,0,.71.61,0.26,0.26,0,0,0,.34-0.14,0.17,0.17,0,0,0,0-.14,2.67,2.67,0,0,1-.18-1c0-.12,0-0.24,0-0.35s0-.18,0-0.27a0.68,0.68,0,0,0-.25-0.5,1.11,1.11,0,0,0-.62-0.29,0.86,0.86,0,0,0-.58.07l0,0a1.22,1.22,0,0,1-.36.25Z" transform="translate(-16.14 -109.26)" style="fill: #fff;fill-rule: evenodd"/>
      <path d="M130.48,134.49h6.81l0.18,0h0.17a0.15,0.15,0,0,0,.16-0.1,0.19,0.19,0,0,0-.06-0.21,1.11,1.11,0,0,0-.31-0.17,4,4,0,0,0-.63-0.17,3.77,3.77,0,0,1-.75-0.2c-0.1,0-.2-0.09-0.3-0.12a1.57,1.57,0,0,0-.46-0.05h-2.86c0,0.05,0,.09,0,0.13a0.34,0.34,0,0,1-.31.36,0.9,0.9,0,0,1-.7-0.22c-0.13-.1-0.24-0.22-0.35-0.33a0.18,0.18,0,0,0-.18,0,0.81,0.81,0,0,0-.41.26,0.26,0.26,0,0,0-.07.22C130.44,134.08,130.46,134.28,130.48,134.49Z" transform="translate(-16.14 -109.26)" style="fill: #fff;fill-rule: evenodd"/>
      <path d="M147.89,118.69a2.26,2.26,0,0,1,.3-0.12,0.44,0.44,0,0,1,.58.29,0.56,0.56,0,0,1,0,.18c0,0.08,0,.16,0,0.24h0.08a0.51,0.51,0,0,1,.37.17,0.47,0.47,0,0,1,0,.65,0.9,0.9,0,0,1-.29.18l-0.1,0,0.06,0.1a0.63,0.63,0,0,1,.05.55,0.32,0.32,0,0,1-.23.22,0.61,0.61,0,0,1-.4,0,0.74,0.74,0,0,1-.36-0.29l-0.05-.05-0.07.29a0.62,0.62,0,0,1-.64.39,0.21,0.21,0,0,1-.19-0.18,0.52,0.52,0,0,1,0-.32c0-.05,0-0.11.07-0.18l-0.08,0a0.67,0.67,0,0,1-.45,0,0.28,0.28,0,0,1-.18-0.23,0.67,0.67,0,0,1,.23-0.66l0.07-.06a0.45,0.45,0,0,1-.29-0.53,0.39,0.39,0,0,1,.47-0.29c0-.09,0-0.17,0-0.24a0.45,0.45,0,0,1,.76-0.29l0.17,0.18Zm-1,1.55a0.6,0.6,0,0,1,.42-0.06,0.23,0.23,0,0,1,.17.13,0.39,0.39,0,0,1,0,.39,1.58,1.58,0,0,0-.08.17,0.06,0.06,0,0,0,.09,0,0.78,0.78,0,0,0,.13-0.15,1.53,1.53,0,0,0,.09-0.24,0.07,0.07,0,0,1,.08-0.06h0.07a0.15,0.15,0,0,1,.15,0l0.31,0.15,0.07,0a0.57,0.57,0,0,0-.18-0.24l-0.09-.06a0.23,0.23,0,0,1,0-.09,0.32,0.32,0,0,1,0-.08,0.14,0.14,0,0,1,.11-0.15,1.46,1.46,0,0,1,.58-0.1,0.69,0.69,0,0,0-.66-0.08l-0.05-.08,0-.08a0.75,0.75,0,0,0,.18-0.54l0,0.09a1.29,1.29,0,0,1-.19.31,0.22,0.22,0,0,1-.23.09h-0.07l-0.09-.24a0.38,0.38,0,0,0-.23-0.24l0,0.07,0.15,0.38a0.2,0.2,0,0,1,0,.12,0.08,0.08,0,0,1-.14,0,0.54,0.54,0,0,0-.41-0.11l0.06,0,0.21,0.15a0.14,0.14,0,0,1,.06.16,0.15,0.15,0,0,1-.13.1l-0.26.09a0.24,0.24,0,0,0-.12.11v0Z" transform="translate(-16.14 -109.26)" style="fill: #fd8204;fill-rule: evenodd"/>
      <path d="M137.08,114.27l0-.07a2.32,2.32,0,0,1-.26-0.56,1.88,1.88,0,0,1-.08-0.59,2.28,2.28,0,0,1,.12-0.84,4.5,4.5,0,0,0,.2-1,1.57,1.57,0,0,1,.1-0.36,0.32,0.32,0,0,1,.1-0.12l0.25-.2a0.47,0.47,0,0,0,.07-0.08h0a1.51,1.51,0,0,0-.49.14,6.07,6.07,0,0,1-.82.4,0.78,0.78,0,0,0-.23.13l-0.14.11a0.89,0.89,0,0,0-.36.55c-0.06.24-.12,0.49-0.17,0.74a2.51,2.51,0,0,0,0,.73c0,0.08,0,.17,0,0.25a0.81,0.81,0,0,0,.21.44l0.31,0.34a0.45,0.45,0,0,0,.33.13,1.7,1.7,0,0,0,.7-0.1A1.07,1.07,0,0,1,137.08,114.27Z" transform="translate(-16.14 -109.26)" style="fill: #fd8204;fill-rule: evenodd"/>
      <path d="M145,114.39l0,0c-0.19-.24-0.39-0.47-0.56-0.73s-0.38-.52-0.56-0.78l0-.06,0,0c0,0.15.05,0.3,0.08,0.45a0.35,0.35,0,0,0,0,.09l0.22,0.4,0.38,0.65a4,4,0,0,1,.49,1.16,3.91,3.91,0,0,1,.07,1c0,0.1,0,.19,0,0.29a2.32,2.32,0,0,1-.25.77c-0.2.45-.42,0.89-0.63,1.34a3,3,0,0,1-.15.29,0.12,0.12,0,0,0,0,.15l0.06,0a3.86,3.86,0,0,0,.68-0.82l0.2-.32a4.61,4.61,0,0,0,.58-1.46c0-.12.06-0.23,0.07-0.35a4,4,0,0,0,0-1.57,5.58,5.58,0,0,0-.68-1.66,3.3,3.3,0,0,0-.3-0.35l-0.21-.22a3.33,3.33,0,0,0-.3-0.26l-0.55-.36-0.08,0a1,1,0,0,0,.18.31,7.45,7.45,0,0,1,.94,1.24c0.11,0.19.23,0.39,0.33,0.58s0.08,0.19.12,0.28h0Z" transform="translate(-16.14 -109.26)" style="fill: #fd8204;fill-rule: evenodd"/>
      <path d="M146.5,125.08l-0.36-.18L145.75,126l0,0a1.21,1.21,0,0,0,.72.13l0.13,0a0.2,0.2,0,0,0,.13-0.14c0-.13.09-0.25,0.14-0.37s0.08-.15.12-0.23l0-.06c0.07-.2.15-0.4,0.21-0.61a1,1,0,0,0,0-.63c0-.12-0.09-0.24-0.14-0.35a1.12,1.12,0,0,0-.44-0.51,3.21,3.21,0,0,0-.67-0.3,0.23,0.23,0,0,0-.32.11,0.72,0.72,0,0,1,.5.24l0.1,0.07a0.09,0.09,0,0,1,0,.11l-0.07,0-0.2-.14a0.26,0.26,0,0,0-.2-0.08,0.11,0.11,0,0,0-.07,0,1.5,1.5,0,0,1-.25.38,0.5,0.5,0,0,0-.08.32l0.06-.07,0.16-.17a0.31,0.31,0,0,1,.4,0l0.18,0.16,0.11,0.08v0l-0.08,0-0.25-.15a0.11,0.11,0,0,0-.17,0c-0.08.12-.16,0.24-0.23,0.36a0.23,0.23,0,0,0,0,.09,1.68,1.68,0,0,1,0,.2,0.24,0.24,0,0,0,.1.24l0.17,0.13,0.12-.48,0-.06a0.64,0.64,0,0,1,.11.15,1,1,0,0,0,.36.48L146.5,125v0Z" transform="translate(-16.14 -109.26)" style="fill: #fff;fill-rule: evenodd"/>
      <path d="M144.34,125.73a0.79,0.79,0,0,0-.11.1,1.17,1.17,0,0,0-.19.31,2,2,0,0,0-.14.48,1.07,1.07,0,0,0,.09.49,0.36,0.36,0,0,0,.08.12,2.21,2.21,0,0,0,.43.36,3,3,0,0,0,1,.4h0.62a0.9,0.9,0,0,0,.28,0,0.89,0.89,0,0,0,.43-0.3,0.19,0.19,0,0,0,0-.1,0.56,0.56,0,0,1,.18-0.42,0.39,0.39,0,0,0,.11-0.42,1.23,1.23,0,0,0-.06-0.13,1,1,0,0,0,0,.11,0.37,0.37,0,0,1-.28.33,2.26,2.26,0,0,1-1.13.06l-0.32-.11-0.08.53s0,0-.05,0a2.4,2.4,0,0,1-.06-0.57,0.13,0.13,0,0,0,0-.06l0,0a2.4,2.4,0,0,1-.48-0.37l0,0a0.5,0.5,0,0,1-.23-0.46C144.34,125.88,144.34,125.82,144.34,125.73Z" transform="translate(-16.14 -109.26)" style="fill: #fff;fill-rule: evenodd"/>
      <path d="M143.59,113.78a2.15,2.15,0,0,0-.12-0.64c-0.05-.16-0.12-0.31-0.17-0.47a2.61,2.61,0,0,0-.3-0.55,3.68,3.68,0,0,0-.67-0.74c-0.09-.09-0.17-0.18-0.27-0.27l-0.41-.33-0.3-.19a1.39,1.39,0,0,0-.76-0.24,0.2,0.2,0,0,0-.07,0,0.27,0.27,0,0,0,0,.07l0.12,0.08a2.65,2.65,0,0,1,.7.55c0.18,0.2.36,0.4,0.54,0.6a1.27,1.27,0,0,1,.14.2,4.07,4.07,0,0,1,.37.72,2.11,2.11,0,0,1,.08.35c0,0.15,0,.3,0,0.45s0,0.21,0,.32a0.51,0.51,0,0,0,.06.28,0.56,0.56,0,0,0,.44.25,0.69,0.69,0,0,0,.26,0,0.35,0.35,0,0,0,.25-0.36S143.59,113.81,143.59,113.78Z" transform="translate(-16.14 -109.26)" style="fill: #fd8204;fill-rule: evenodd"/>
      <path d="M143.91,115.48c0,0.1,0,.17,0,0.24a3.6,3.6,0,0,1,.12,1,3.49,3.49,0,0,1-.08.86,6.21,6.21,0,0,1-.24.68,7.66,7.66,0,0,1-.61,1.19c-0.12.19-.26,0.36-0.39,0.54l-0.13.17a0.15,0.15,0,0,0,.13-0.05,4.19,4.19,0,0,0,.36-0.29c0.21-.2.42-0.41,0.61-0.62a1.29,1.29,0,0,0,.18-0.25l0.61-1.08a1.59,1.59,0,0,0,.09-0.24l0-.08a3.82,3.82,0,0,0,.22-1.57,1.74,1.74,0,0,0-.34-1,2.12,2.12,0,0,0-.32-0.31l-0.08,0,0.12,0.46a2.47,2.47,0,0,1,.11.78,1,1,0,0,1-.07.39l0-.08c0-.16-0.07-0.33-0.11-0.49A0.45,0.45,0,0,0,143.91,115.48Z" transform="translate(-16.14 -109.26)" style="fill: #fd8204;fill-rule: evenodd"/>
      <path d="M135,111.93l-0.08.07-0.15.14a5.16,5.16,0,0,0-.65.6,2.7,2.7,0,0,0-.61,1.2,4.71,4.71,0,0,0-.1.89c0,0.16,0,.31,0,0.46s0,0.09.06,0.1l0,0c0.22-.26.48-0.48,0.72-0.71a1.4,1.4,0,0,0,.16-0.2l0.28-.41a1.52,1.52,0,0,0,.26-0.95,2.81,2.81,0,0,1,0-.82c0-.11,0-0.23.05-0.34Z" transform="translate(-16.14 -109.26)" style="fill: #fd8204;fill-rule: evenodd"/>
      <path d="M131.52,114.41a2.67,2.67,0,0,0,.18-0.21c0.08-.11.15-0.23,0.23-0.34l0.23-.34c0-.08.1-0.15,0.14-0.23a1.78,1.78,0,0,1,.44-0.51,3.2,3.2,0,0,1,.6-0.38q0.28-.15.55-0.33l0.8-.56,0.14-.1a3,3,0,0,1,1.1-.59h0c0.37-.19.77-0.3,1.12-0.53l0.06,0h-0.07a4.4,4.4,0,0,0-.58,0,3.34,3.34,0,0,0-.79.21c-0.18.08-.37,0.15-0.55,0.22a4.44,4.44,0,0,0-.75.42l-0.87.58a4.41,4.41,0,0,0-.7.59l-0.51.52a1.05,1.05,0,0,0-.13.15,4.52,4.52,0,0,0-.58,1.08c0,0.12-.09.23-0.13,0.35Z" transform="translate(-16.14 -109.26)" style="fill: #fd8204;fill-rule: evenodd"/>
      <path d="M133.42,113.24c-0.09.12-.19,0.23-0.27,0.36a8,8,0,0,0-.6,1,1.41,1.41,0,0,0-.12.46,7.34,7.34,0,0,0-.06,1.09,3,3,0,0,0,.06.45,3.16,3.16,0,0,0,.12.47,1.6,1.6,0,0,0,.19.39c0.16,0.23.34,0.45,0.52,0.68l0.38,0.47a0.45,0.45,0,0,0,.17.13l0.37,0.19,0.13,0.06,0,0-0.11-.1-0.26-.22a2.34,2.34,0,0,1-.36-0.42c-0.09-.13-0.19-0.25-0.28-0.38a2.28,2.28,0,0,1-.35-0.88,4,4,0,0,1,0-1.05,10.65,10.65,0,0,1,.12-1.19c0-.16.07-0.31,0.11-0.46l0.07-.33a2.93,2.93,0,0,1,.23-0.69,0.09,0.09,0,0,0,0,0h0Z" transform="translate(-16.14 -109.26)" style="fill: #fd8204;fill-rule: evenodd"/>
      <path d="M132.33,133.06a7.57,7.57,0,0,1,1,0h0.73a0.27,0.27,0,0,0,.27-0.17,0.33,0.33,0,0,0-.11-0.35l-0.57-.42-0.2-.15a2.26,2.26,0,0,1-.16-0.17l-0.3.05-0.41,0-0.09,0a0.48,0.48,0,0,0-.16.26A1.36,1.36,0,0,0,132.33,133.06Z" transform="translate(-16.14 -109.26)" style="fill: #fd8204;fill-rule: evenodd"/>
      <path d="M147.69,136.43l0,0.34s0,0.09,0,.13a0.24,0.24,0,0,0,.29.21,2.29,2.29,0,0,0,.74-0.29,0.22,0.22,0,0,0,.1-0.2,0.21,0.21,0,0,0,0-.05,3.21,3.21,0,0,1-.05-0.67,0.38,0.38,0,0,0,0-.14,0.17,0.17,0,0,0-.29-0.06l-0.16.11L148,136a1.6,1.6,0,0,0-.25.16A0.4,0.4,0,0,0,147.69,136.43Z" transform="translate(-16.14 -109.26)" style="fill: #fd8204;fill-rule: evenodd"/>
      <path d="M137.27,131.06a2.54,2.54,0,0,0,.29,1,0.35,0.35,0,0,1,0,.06h-0.08c-0.14,0-.29,0-0.43,0A4.84,4.84,0,0,0,136,132h-0.33a1.78,1.78,0,0,1,.35-0.39l0.82-.55,0.43-.25C137.25,130.9,137.27,131,137.27,131.06Zm-0.38.28a0.19,0.19,0,0,0-.18.2,0.21,0.21,0,0,0,.21.22,0.17,0.17,0,0,0,.17-0.18A0.23,0.23,0,0,0,136.9,131.33Z" transform="translate(-16.14 -109.26)" style="fill: #fff;fill-rule: evenodd"/>
      <path d="M131.86,118.24s0-.08,0-0.12l-0.1-.27a3.66,3.66,0,0,1-.25-1.06,2.38,2.38,0,0,1,0-.37c0-.14,0-0.28.06-0.42a2.08,2.08,0,0,1,.19-0.62c0.1-.23.22-0.45,0.33-0.67l0-.07a5.5,5.5,0,0,1,.59-1,2.44,2.44,0,0,1,.28-0.39,0.35,0.35,0,0,0,0-.06,0.13,0.13,0,0,0-.11.06l-0.35.42-0.32.38a3.07,3.07,0,0,0-.4.56,10.52,10.52,0,0,0-.57,1.22,1.82,1.82,0,0,0-.1.82,1.85,1.85,0,0,0,.09.4,5.34,5.34,0,0,0,.37,1,1.88,1.88,0,0,0,.15.21l0.06,0h0Z" transform="translate(-16.14 -109.26)" style="fill: #fd8204;fill-rule: evenodd"/>
      <path d="M130.58,130.76a0.57,0.57,0,0,1,.49,0l0.56,0.1a2,2,0,0,1,.3.08,1,1,0,0,1,.56.45l0,0.07h0a0.41,0.41,0,0,0,.08-0.45c-0.07-.12-0.14-0.24-0.22-0.36a0.76,0.76,0,0,0-.44-0.27,3.05,3.05,0,0,0-.53-0.11,0.8,0.8,0,0,0-.74.3l-0.15.21Z" transform="translate(-16.14 -109.26)" style="fill: #fff;fill-rule: evenodd"/>
      <path d="M139,130.82l-0.29-.1a8,8,0,0,1-.87-0.25l-0.06,0-0.05,0,0.05,0,0.5-.32,0.14-.06,0.42-.2,0.41-.21,0.22-.09c-0.12.46-.19,0.91-0.35,1.35Zm-0.33-.59a0.2,0.2,0,0,0,.2.17,0.15,0.15,0,0,0,.15-0.16,0.18,0.18,0,0,0-.18-0.18A0.17,0.17,0,0,0,138.64,130.23Z" transform="translate(-16.14 -109.26)" style="fill: #fff;fill-rule: evenodd"/>
      <path d="M140.93,140.81c0-.23,0-0.46,0-0.69a0.79,0.79,0,0,0,0-.11,0.1,0.1,0,0,0-.09-0.09,0.73,0.73,0,0,0-.42,0l-0.18.07a0.39,0.39,0,0,0-.25.36,1.68,1.68,0,0,0,0,.22,0.32,0.32,0,0,0,.17.26l0.46,0.24a0.42,0.42,0,0,0,.14,0,0.15,0.15,0,0,0,.18-0.15,1.57,1.57,0,0,0,0-.17h0Z" transform="translate(-16.14 -109.26)" style="fill: #fd8204;fill-rule: evenodd"/>
      <path d="M135.91,132.35a3.53,3.53,0,0,1,.76,0,3.51,3.51,0,0,0,.87.08h0.05c-0.07.17-.15,0.34-0.2,0.51s-0.07.36-.11,0.54l-0.44-.1-0.07,0a0.14,0.14,0,0,1-.06-0.06,0.86,0.86,0,0,0-.2-0.32l-0.42-.45-0.2-.21Zm0.89,0.58a0.21,0.21,0,0,0,.22.2,0.21,0.21,0,0,0,.22-0.21,0.21,0.21,0,0,0-.2-0.22A0.23,0.23,0,0,0,136.8,132.93Z" transform="translate(-16.14 -109.26)" style="fill: #fff;fill-rule: evenodd"/>
      <path d="M132.67,117.91a0.23,0.23,0,0,0-.09.16,3.14,3.14,0,0,0-.05,1,0.84,0.84,0,0,0,.26.56l0,0h0l0-.1a1.29,1.29,0,0,1-.06-0.7s0-.14.07-0.13,0.05,0.09.07,0.14,0,0.15,0,.22a1.08,1.08,0,0,0,.19.48,1.9,1.9,0,0,0,.49.48,2.33,2.33,0,0,0,.35.17l-0.16-.19a1.93,1.93,0,0,1-.31-0.48c0-.08-0.08-0.15-0.12-0.23l-0.29-.66c0-.1-0.1-0.2-0.15-0.3l-0.19-.37Z" transform="translate(-16.14 -109.26)" style="fill: #fd8204;fill-rule: evenodd"/>
      <path d="M141.26,140.52c0,0.09,0,.18,0,0.27a0.36,0.36,0,0,0,.22.35,0.44,0.44,0,0,0,.46-0.06,0.38,0.38,0,0,0,.17-0.36,4.31,4.31,0,0,0-.07-0.48,0.23,0.23,0,0,0-.25-0.21l-0.17,0a0.71,0.71,0,0,0-.18,0,0.2,0.2,0,0,0-.18.22c0,0.05,0,.1,0,0.15v0.14h0Z" transform="translate(-16.14 -109.26)" style="fill: #fd8204;fill-rule: evenodd"/>
      <path d="M139.46,130.9c0-.07,0-0.12,0-0.17a5.41,5.41,0,0,0,.16-0.79,0.66,0.66,0,0,1,.08-0.28h0.11a4.48,4.48,0,0,1,.76.22L141,130l0.07,0A17.12,17.12,0,0,1,139.46,130.9Zm0.61-.58a0.23,0.23,0,0,0,.2-0.19,0.16,0.16,0,0,0-.16-0.15,0.18,0.18,0,0,0-.19.18A0.17,0.17,0,0,0,140.07,130.32Z" transform="translate(-16.14 -109.26)" style="fill: #fff;fill-rule: evenodd"/>
      <path d="M139.52,123.38a3.38,3.38,0,0,1-.66.86,3.83,3.83,0,0,1-.6-0.78l0.62-.49Zm-0.74,0a0.37,0.37,0,0,0-.12.22,0.06,0.06,0,0,0,0,0,0.18,0.18,0,0,0,.2-0.17,0.08,0.08,0,0,0-.09-0.09h0Z" transform="translate(-16.14 -109.26)" style="fill: #fff;fill-rule: evenodd"/>
      <path d="M137.55,130.74l0.21,0.05c0.13,0,.25.1,0.38,0.13l0.77,0.16,0.16,0-0.11.07a4.72,4.72,0,0,0-.78.5l-0.26.25A3.54,3.54,0,0,1,137.55,130.74Zm0.59,0.67a0.15,0.15,0,0,0,.14-0.17,0.15,0.15,0,0,0-.14-0.14,0.16,0.16,0,0,0-.16.16A0.16,0.16,0,0,0,138.14,131.41Z" transform="translate(-16.14 -109.26)" style="fill: #fff;fill-rule: evenodd"/>
      <path d="M149.82,135.54a0.58,0.58,0,0,0-.27-0.41,0.06,0.06,0,0,0-.09,0l-0.23.21a0.37,0.37,0,0,0-.12.42,2,2,0,0,1,.11.64c0,0.13.07,0.18,0.19,0.12a0.42,0.42,0,0,0,.13-0.11,0.86,0.86,0,0,0,.17-0.32A2.16,2.16,0,0,0,149.82,135.54Z" transform="translate(-16.14 -109.26)" style="fill: #fd8204;fill-rule: evenodd"/>
      <path d="M146.67,137.09l0.57,0a0.15,0.15,0,0,0,.16-0.2c0-.12-0.07-0.23-0.1-0.35a0.15,0.15,0,0,0-.15-0.12,1.24,1.24,0,0,0-.27,0l-0.41.1a0.37,0.37,0,0,0-.27.45,0.17,0.17,0,0,0,.16.13h0.31Z" transform="translate(-16.14 -109.26)" style="fill: #fd8204;fill-rule: evenodd"/>
      <path d="M144.93,137.56a0.18,0.18,0,0,0,0,.18c0.06,0.13.11,0.26,0.18,0.39a0.27,0.27,0,0,0,.24.15,0.84,0.84,0,0,0,.23,0,2.25,2.25,0,0,0,.34-0.11A0.17,0.17,0,0,0,146,138a0.47,0.47,0,0,0-.23-0.39,0.41,0.41,0,0,0-.24-0.06l-0.2,0-0.31,0h-0.08Z" transform="translate(-16.14 -109.26)" style="fill: #fd8204;fill-rule: evenodd"/>
      <path d="M139.83,123.62c0,0.1,0,.19,0,0.29a5.44,5.44,0,0,0,0,.85,2.81,2.81,0,0,1,0,.3,2.16,2.16,0,0,1-.8-0.65,4.49,4.49,0,0,0,.67-0.91C139.82,123.52,139.83,123.52,139.83,123.62Zm-0.31.74a0.12,0.12,0,0,0,.09,0,0.11,0.11,0,0,0,0-.08,0.12,0.12,0,0,0-.13-0.11l-0.12,0a0.07,0.07,0,0,0-.05.08,0.07,0.07,0,0,0,.08.05h0Z" transform="translate(-16.14 -109.26)" style="fill: #fff;fill-rule: evenodd"/>
      <path d="M147.1,138.09a1,1,0,0,0,.48-0.1,0.19,0.19,0,0,0,.12-0.24,1,1,0,0,0-.09-0.21,0.17,0.17,0,0,0-.15-0.08H147.3a2.39,2.39,0,0,1-.7.08,0.14,0.14,0,0,0-.17.16,0.18,0.18,0,0,0,0,.09,0.43,0.43,0,0,0,.29.25Z" transform="translate(-16.14 -109.26)" style="fill: #fd8204;fill-rule: evenodd"/>
      <path d="M145.19,137.17h0.32a0.35,0.35,0,0,0,.16,0,0.33,0.33,0,0,0,0-.49,1.58,1.58,0,0,0-.69-0.14,0.27,0.27,0,0,0-.18.08,0.14,0.14,0,0,0,0,.12c0,0.12,0,.23,0,0.35a0.11,0.11,0,0,0,.14.14h0.33Z" transform="translate(-16.14 -109.26)" style="fill: #fd8204;fill-rule: evenodd"/>
      <path d="M146.24,136.13a2.19,2.19,0,0,0,.62,0,1.08,1.08,0,0,0,.24-0.09,0.16,0.16,0,0,0,.09-0.16c0-.15,0-0.29,0-0.44s0-.09-0.1-0.07l-0.28.07-0.22,0a0.47,0.47,0,0,0-.24.11,0.14,0.14,0,0,0-.05.08c0,0.15,0,.31-0.06.46A0.14,0.14,0,0,0,146.24,136.13Z" transform="translate(-16.14 -109.26)" style="fill: #fd8204;fill-rule: evenodd"/>
      <path d="M147.56,135.36a2.55,2.55,0,0,0,0,.27,0.18,0.18,0,0,0,.25.13,1.18,1.18,0,0,0,.58-0.41,0.2,0.2,0,0,0,0-.25,0.71,0.71,0,0,1-.06-0.14,0.12,0.12,0,0,0-.12-0.1h-0.11l-0.34.06a0.28,0.28,0,0,0-.24.3s0,0.09,0,.13h0Z" transform="translate(-16.14 -109.26)" style="fill: #fd8204;fill-rule: evenodd"/>
      <path d="M144.67,138.29c-0.05-.15-0.1-0.29-0.16-0.43a0.35,0.35,0,0,0-.42-0.24,1.85,1.85,0,0,1-.59,0h-0.05a0.18,0.18,0,0,0,0,.21,0.86,0.86,0,0,0,.41.37,1.36,1.36,0,0,0,.51.15h0.07A0.18,0.18,0,0,0,144.67,138.29Z" transform="translate(-16.14 -109.26)" style="fill: #fd8204;fill-rule: evenodd"/>
      <path d="M140.86,137.54l0,0c-0.18-.2-0.36-0.41-0.55-0.61a0.5,0.5,0,0,0-.42-0.14,0.18,0.18,0,0,0-.18.19,0.74,0.74,0,0,0,.16.45,0.14,0.14,0,0,0,.08,0,2.5,2.5,0,0,0,.83.11h0.1Z" transform="translate(-16.14 -109.26)" style="fill: #fff;fill-rule: evenodd"/>
      <path d="M139.7,125.28a3.21,3.21,0,0,1-.82-0.67l-0.07.06-0.14.15a0.52,0.52,0,0,1-.34.17s0,0.1,0,.15,0,0.1,0,.16a0.72,0.72,0,0,0,.36.11s0-.09.07-0.09v-0.06a0.09,0.09,0,0,1,.15,0,1.27,1.27,0,0,1,.12.2A2.07,2.07,0,0,0,139.7,125.28Z" transform="translate(-16.14 -109.26)" style="fill: #fff;fill-rule: evenodd"/>
      <path d="M137.75,121.86a5.17,5.17,0,0,0,1.06.8,1.16,1.16,0,0,0,.42-0.75l-0.57,0a1,1,0,0,1,.08.14,0.18,0.18,0,0,1,0,.17l-0.07-.06a0.24,0.24,0,0,0-.14-0.09,0.07,0.07,0,0,1,0-.1l0-.06Z" transform="translate(-16.14 -109.26)" style="fill: #fff;fill-rule: evenodd"/>
      <path d="M140,129.29l1.4,0.47a1.4,1.4,0,0,1,.36-0.48A3.57,3.57,0,0,0,140,129.29Z" transform="translate(-16.14 -109.26)" style="fill: #fff;fill-rule: evenodd"/>
      <path d="M143.54,137.12a2.32,2.32,0,0,0,.76.06,1.92,1.92,0,0,0,0-.53,0.27,0.27,0,0,0-.24-0.22l-0.3,0c-0.08,0-.1,0-0.11.1s0,0.3-.07.46Z" transform="translate(-16.14 -109.26)" style="fill: #fd8204;fill-rule: evenodd"/>
      <path d="M143.84,136a0.58,0.58,0,0,0,.12.06,1.87,1.87,0,0,0,1,0,1.27,1.27,0,0,0,.46-0.22l0.05,0,0,0-0.59-.16a0.16,0.16,0,0,0-.12,0,5.12,5.12,0,0,1-.89.38Z" transform="translate(-16.14 -109.26)" style="fill: #fff;fill-rule: evenodd"/>
      <path d="M140.82,137a3.5,3.5,0,0,1,.27.3,0.29,0.29,0,0,0,.35.13,1.59,1.59,0,0,0,.38-0.12l0.54-.28,0.2-.14a0.29,0.29,0,0,0-.19,0,2.64,2.64,0,0,0-.32.08,1.54,1.54,0,0,1-.49.09h-0.43l-0.21,0h-0.07v0Z" transform="translate(-16.14 -109.26)" style="fill: #fff;fill-rule: evenodd"/>
      <path d="M140.92,139.59a0.67,0.67,0,0,0,0-.36,0.16,0.16,0,0,0-.14-0.13h0l-0.56,0-0.13,0a1,1,0,0,0,0,.15,0.43,0.43,0,0,0,0,.14s0,0.08.05,0.13a0.28,0.28,0,0,0,.28.19l0.33,0Z" transform="translate(-16.14 -109.26)" style="fill: #fd8204;fill-rule: evenodd"/>
      <path d="M134.57,114.7l-0.8.8a1.34,1.34,0,0,0-.33,1,0.13,0.13,0,0,0,.09.13,0.09,0.09,0,0,0,.12,0,0.44,0.44,0,0,0,.08-0.22,1.44,1.44,0,0,1,.26-0.76l0.4-.58A1.19,1.19,0,0,0,134.57,114.7Z" transform="translate(-16.14 -109.26)" style="fill: #fd8204;fill-rule: evenodd"/>
      <path d="M145.67,126.25l-0.18.43,0.13,0a1.47,1.47,0,0,0,.88,0,0.45,0.45,0,0,0,.21-0.13,0.13,0.13,0,0,0,0-.17,0.14,0.14,0,0,0-.16-0.06h0a1.06,1.06,0,0,1-.82-0.07h-0.07Z" transform="translate(-16.14 -109.26)" style="fill: #fff;fill-rule: evenodd"/>
      <path d="M140.14,141.35c0,0.06,0,.12,0,0.19s0.06,0.21.08,0.31a0.41,0.41,0,0,0,.52.25,0.15,0.15,0,0,0,.11-0.16,2,2,0,0,0,0-.26,0.25,0.25,0,0,0-.21-0.22l-0.5-.12h0Z" transform="translate(-16.14 -109.26)" style="fill: #fd8204;fill-rule: evenodd"/>
      <path d="M140.62,138.79h0.16a0.15,0.15,0,0,0,.14-0.23,0.25,0.25,0,0,0-.18-0.17,1.91,1.91,0,0,1-.48-0.21,0.15,0.15,0,0,0-.24.14,1,1,0,0,0,0,.12,0.31,0.31,0,0,0,.25.3A0.82,0.82,0,0,0,140.62,138.79Z" transform="translate(-16.14 -109.26)" style="fill: #fd8204;fill-rule: evenodd"/>
      <path d="M138.62,122.83a2.69,2.69,0,0,1-.52.4,2.29,2.29,0,0,1-.2-0.36c-0.07-.25-0.15-0.5-0.23-0.74a0.22,0.22,0,0,1,0,0Zm-0.54,0a0.07,0.07,0,0,0,.14,0,0.1,0.1,0,0,0,0-.13l0,0A0.15,0.15,0,0,0,138.07,122.84Z" transform="translate(-16.14 -109.26)" style="fill: #fff;fill-rule: evenodd"/>
      <path d="M149.17,137.6l0.09,0a2,2,0,0,0,.58-0.5,0.78,0.78,0,0,0,.15-0.57,0.69,0.69,0,0,0,0-.13l-0.07.08-0.26.33a1.12,1.12,0,0,1-.31.27,0.14,0.14,0,0,0-.06.07C149.23,137.27,149.2,137.43,149.17,137.6Z" transform="translate(-16.14 -109.26)" style="fill: #fd8204;fill-rule: evenodd"/>
      <path d="M141.35,139.35v0.15a0.1,0.1,0,0,0,.11.13h0.06l0.36,0h0a0.15,0.15,0,0,0,.17-0.22c0-.06,0-0.13,0-0.19a0.17,0.17,0,0,0-.18-0.16h-0.35a0.16,0.16,0,0,0-.17.2v0.05h0Z" transform="translate(-16.14 -109.26)" style="fill: #fd8204;fill-rule: evenodd"/>
      <path d="M141.29,141.6c0,0.13,0,.24,0,0.36a0.21,0.21,0,0,0,.18.24,0.32,0.32,0,0,0,.34-0.11,0.69,0.69,0,0,0,.16-0.25,0.56,0.56,0,0,0,0-.15,0.14,0.14,0,0,0-.17-0.16Z" transform="translate(-16.14 -109.26)" style="fill: #fd8204;fill-rule: evenodd"/>
      <path d="M139.06,122.81a4,4,0,0,0,.27-0.4,4.18,4.18,0,0,0,.17-0.46l0,0.11c0.06,0.22.11,0.44,0.17,0.65a0.62,0.62,0,0,1-.1.47Zm0.47-.53a0.06,0.06,0,0,0-.05,0,0.08,0.08,0,0,0,0,.05,0.24,0.24,0,0,0,.07.18,0,0,0,0,0,.07,0,0.65,0.65,0,0,0,0-.09Z" transform="translate(-16.14 -109.26)" style="fill: #fff;fill-rule: evenodd"/>
      <path d="M142,110.65l0.87,0.82,0.25,0.27,0.06,0a0.11,0.11,0,0,0,.13,0,0.14,0.14,0,0,0,0-.11,0.68,0.68,0,0,0-.2-0.36l-0.32-.3a1.82,1.82,0,0,0-.47-0.27l-0.33-.13h0Z" transform="translate(-16.14 -109.26)" style="fill: #fd8204;fill-rule: evenodd"/>
      <path d="M141.39,120.66a0.43,0.43,0,0,0,.28-0.08,1.61,1.61,0,0,0,.47-0.44,3.32,3.32,0,0,1,.22-0.28,2.72,2.72,0,0,0,.41-0.67v-0.06l-0.06,0a2.69,2.69,0,0,0-.48.54,1.45,1.45,0,0,1-.14.16l-0.26.28-0.25.28Z" transform="translate(-16.14 -109.26)" style="fill: #fd8204;fill-rule: evenodd"/>
      <path d="M145.38,134.68l-0.44,0a1.61,1.61,0,0,1-.44,0,2.51,2.51,0,0,0-.51,0,0.3,0.3,0,0,0,.05.06,2.35,2.35,0,0,0,.23.16l0.43,0.22a0.08,0.08,0,0,0,.1,0l0.56-.42Z" transform="translate(-16.14 -109.26)" style="fill: #fff;fill-rule: evenodd"/>
      <path d="M138,121.06l0.19,0.27,0.17,0.2a0.1,0.1,0,0,0,.12,0,0.37,0.37,0,0,0,.22-0.13,1.32,1.32,0,0,1,.39-0.35l0,0H139.1l-0.43,0a0.12,0.12,0,0,0-.1.06c-0.06.07-.1,0.07-0.16,0a0.1,0.1,0,0,0-.05,0l-0.3,0Z" transform="translate(-16.14 -109.26)" style="fill: #fff;fill-rule: evenodd"/>
      <path d="M145.21,126.53l0.19-.46-0.41-.45a0.49,0.49,0,0,0,0,.7l0.15,0.14Z" transform="translate(-16.14 -109.26)" style="fill: #fff;fill-rule: evenodd"/>
      <path d="M142.39,139.29a2.31,2.31,0,0,0,0,.29,0.19,0.19,0,0,0,.31.13,0.24,0.24,0,0,0,.14-0.27c0-.12,0-0.24-0.08-0.36a0.07,0.07,0,0,0-.08-0.06h-0.24a0.08,0.08,0,0,0-.09.09c0,0.06,0,.12,0,0.18h0Z" transform="translate(-16.14 -109.26)" style="fill: #fd8204;fill-rule: evenodd"/>
      <path d="M148.3,137.84l0.15,0a0.3,0.3,0,0,0,.23-0.18,1.94,1.94,0,0,0,.1-0.26,0.12,0.12,0,0,0,0-.09,0.08,0.08,0,0,0-.1,0l-0.53.14a0.1,0.1,0,0,0-.09.09,0.66,0.66,0,0,0,0,.21A0.2,0.2,0,0,0,148.3,137.84Z" transform="translate(-16.14 -109.26)" style="fill: #fd8204;fill-rule: evenodd"/>
      <path d="M139,121.38l0.46-.31h0.07a2.28,2.28,0,0,1,.56.25l-0.27.1-0.81.19-0.2,0A0.57,0.57,0,0,1,139,121.38Zm0.39,0a0.08,0.08,0,0,0,.11,0,0.16,0.16,0,0,0,.11-0.13,0.08,0.08,0,0,0,0,0,0.12,0.12,0,0,0-.14,0,0.11,0.11,0,0,0-.09.1A0.23,0.23,0,0,0,139.44,121.4Z" transform="translate(-16.14 -109.26)" style="fill: #fff;fill-rule: evenodd"/>
      <path d="M137.65,121.44a2.47,2.47,0,0,0,.54.14,0.08,0.08,0,0,0,0,0,2.52,2.52,0,0,1-.34-0.47l-0.06-.08a0.19,0.19,0,0,0-.21,0l-0.33.15-0.16.11a2.73,2.73,0,0,0,.36.14c0-.07,0-0.17.08-0.19a0.16,0.16,0,0,1,.17.05A0.17,0.17,0,0,1,137.65,121.44Z" transform="translate(-16.14 -109.26)" style="fill: #fff;fill-rule: evenodd"/>
      <path d="M145.55,125.82l0.06-.13,0.15-.41a0.25,0.25,0,0,0,0-.23,0.61,0.61,0,0,0-.29-0.25l0,0-0.05.58a0.48,0.48,0,0,0,.09.3Z" transform="translate(-16.14 -109.26)" style="fill: #fff;fill-rule: evenodd"/>
      <path d="M132,116a0.32,0.32,0,0,0-.06.21q0,0.45,0,.89a1,1,0,0,0,.07.35,0.34,0.34,0,0,0,.25.19,0.39,0.39,0,0,0,0-.21c0-.16-0.08-0.31-0.13-0.46a2.74,2.74,0,0,1-.1-0.78C131.95,116.14,132,116.07,132,116Z" transform="translate(-16.14 -109.26)" style="fill: #fd8204;fill-rule: evenodd"/>
      <path d="M142.38,140.2c0,0.17,0,.34,0,0.5a0.1,0.1,0,0,0,.18.08l0.17-.13a0.28,0.28,0,0,0,.1-0.22,0.21,0.21,0,0,0-.14-0.22,0.79,0.79,0,0,1-.17-0.1s-0.06-.06-0.1,0a0.27,0.27,0,0,0-.05.1,0,0,0,0,0,0,0h0Z" transform="translate(-16.14 -109.26)" style="fill: #fd8204;fill-rule: evenodd"/>
      <path d="M145.15,135.27a1.28,1.28,0,0,0,.6.13,1.79,1.79,0,0,0,.07-0.71A3.71,3.71,0,0,1,145.15,135.27Z" transform="translate(-16.14 -109.26)" style="fill: #fff;fill-rule: evenodd"/>
      <path d="M144.43,135.34a2.05,2.05,0,0,1-.67-0.45v0.71A3.12,3.12,0,0,0,144.43,135.34Z" transform="translate(-16.14 -109.26)" style="fill: #fff;fill-rule: evenodd"/>
      <path d="M139.27,140.8a1.81,1.81,0,0,0,.2.67l0.14,0.24a0.28,0.28,0,0,0,.15.12,0.09,0.09,0,0,0,0,0c0-.21-0.08-0.42-0.12-0.62a0.27,0.27,0,0,0-.13-0.19Z" transform="translate(-16.14 -109.26)" style="fill: #fd8204;fill-rule: evenodd"/>
      <path d="M142.51,137.35a3.72,3.72,0,0,1-.93.43l0.35,0.2a0.13,0.13,0,0,0,.11,0l0.29-.26a0.64,0.64,0,0,0,.17-0.27S142.5,137.39,142.51,137.35Z" transform="translate(-16.14 -109.26)" style="fill: #fff;fill-rule: evenodd"/>
      <path d="M138.71,124.44l-0.54-.7h0l0.09,0.42h0.13a0.09,0.09,0,0,1,0,.06c0,0.08,0,.13-0.13.17l0,0.42A1.53,1.53,0,0,0,138.71,124.44Z" transform="translate(-16.14 -109.26)" style="fill: #fff;fill-rule: evenodd"/>
      <path d="M142.52,138.19a0.31,0.31,0,0,0-.32.31,0.15,0.15,0,0,0,.07.15l0,0,0.21,0a0.2,0.2,0,0,0,.17-0.1,0.37,0.37,0,0,0,0-.11,0.59,0.59,0,0,1,0-.07,0.12,0.12,0,0,0-.1-0.17h-0.1Z" transform="translate(-16.14 -109.26)" style="fill: #fd8204;fill-rule: evenodd"/>
      <path d="M139.66,138.28c0-.1,0-0.19,0-0.29a1,1,0,0,1,0-.15,0.11,0.11,0,0,0,0-.15l-0.15-.12a0.08,0.08,0,0,0-.09,0,0.16,0.16,0,0,0-.12.14,0.27,0.27,0,0,0,0,.11,1,1,0,0,0,.28.46Z" transform="translate(-16.14 -109.26)" style="fill: #fd8204;fill-rule: evenodd"/>
      <path d="M139.37,138.6l0,0.41,0,0.28a0.39,0.39,0,0,0,.26.3,1.73,1.73,0,0,1,0-.18c0-.17,0-0.34,0-0.52a0.16,0.16,0,0,0-.08-0.15Z" transform="translate(-16.14 -109.26)" style="fill: #fd8204;fill-rule: evenodd"/>
      <path d="M141.55,138.13l-0.05,0-0.31-.21-0.08,0-0.6,0h0A1.48,1.48,0,0,0,141.55,138.13Z" transform="translate(-16.14 -109.26)" style="fill: #fff;fill-rule: evenodd"/>
      <path d="M141.75,129.8a4,4,0,0,1,.86-0.19l0,0a2.81,2.81,0,0,0-.6-0.23l-0.15.21A0.45,0.45,0,0,0,141.75,129.8Z" transform="translate(-16.14 -109.26)" style="fill: #fff;fill-rule: evenodd"/>
      <path d="M142.3,142a0.8,0.8,0,0,0,.47-0.71h-0.12a0.28,0.28,0,0,0-.23.23c0,0.12-.06.25-0.1,0.37S142.31,141.91,142.3,142Z" transform="translate(-16.14 -109.26)" style="fill: #fd8204;fill-rule: evenodd"/>
      <path d="M130.29,130.72l0.27-.42a0.47,0.47,0,0,0-.52,0A1,1,0,0,0,130.29,130.72Z" transform="translate(-16.14 -109.26)" style="fill: #fff;fill-rule: evenodd"/>
      <path d="M137.27,120.85l-0.63-.25,0,0.1,0.1,0.33a0.1,0.1,0,0,0,.17.05Z" transform="translate(-16.14 -109.26)" style="fill: #fff;fill-rule: evenodd"/>
      <path d="M141.34,138.8l0.48,0a0.12,0.12,0,0,0,.12-0.11,0.13,0.13,0,0,0-.12-0.13H141.6l-0.13,0C141.27,138.57,141.29,138.63,141.34,138.8Z" transform="translate(-16.14 -109.26)" style="fill: #fd8204;fill-rule: evenodd"/>
      <path d="M139.79,121l0.1,0.05,0.3,0.15a0.07,0.07,0,0,0,.11,0,0.84,0.84,0,0,0,.12-0.3,0.13,0.13,0,0,0-.14,0l-0.48.14v0Z" transform="translate(-16.14 -109.26)" style="fill: #fff;fill-rule: evenodd"/>
      <path d="M136.08,133.07l-0.66-.75a0.17,0.17,0,0,0,0,.12,0.32,0.32,0,0,0,.11.25c0.15,0.12.31,0.23,0.47,0.34l0.1,0.05v0Z" transform="translate(-16.14 -109.26)" style="fill: #fff;fill-rule: evenodd"/>
      <path d="M149,134.87a0.15,0.15,0,0,0-.15.15,0.12,0.12,0,0,0,.13.11,0.19,0.19,0,0,0,.18-0.16A0.13,0.13,0,0,0,149,134.87Z" transform="translate(-16.14 -109.26)" style="fill: #fd8204;fill-rule: evenodd"/>
      <path d="M139.48,139.93a3.21,3.21,0,0,0,.12.49h0l0.05-.44-0.07,0Z" transform="translate(-16.14 -109.26)" style="fill: #fd8204;fill-rule: evenodd"/>
      <path d="M145.6,136.07l0.17,0h0.05l0-.23h0Z" transform="translate(-16.14 -109.26)" style="fill: #fd8204;fill-rule: evenodd"/>
      <path d="M137.13,118.74l0.08-.07a0.23,0.23,0,0,1,.26-0.05l0.07,0a1.34,1.34,0,0,0,.35.19,2.28,2.28,0,0,0,.29.11,2,2,0,0,1,.28.09,1.41,1.41,0,0,0,.8.12l0.53-.06a1.53,1.53,0,0,0,.42-0.12c0.12-.06.25-0.1,0.37-0.15l0.24-.13a0.14,0.14,0,0,1,.15,0l0.2,0.11a0.42,0.42,0,0,0,0-.08l-0.06-.15c0-.1-0.06-0.1-0.16-0.08a3.1,3.1,0,0,0-.61.17,2.05,2.05,0,0,1-.39.08,6.1,6.1,0,0,1-1.14,0,1.52,1.52,0,0,1-.35-0.06,6.5,6.5,0,0,1-.71-0.22,0.89,0.89,0,0,0-.47,0h0a0.13,0.13,0,0,0-.1.19Z" transform="translate(-16.14 -109.26)" style="fill: #63291c;fill-rule: evenodd"/>
      <path d="M136.71,116.89a0.47,0.47,0,0,1-.26-0.06,0.08,0.08,0,0,1,0-.13l0-.05c0.09-.11.17-0.22,0.26-0.32a0.58,0.58,0,0,1,.31-0.2l0.3-.07a1.34,1.34,0,0,1,.5,0,0.43,0.43,0,0,1,.32.17,0.82,0.82,0,0,1,.18.34,0.22,0.22,0,0,1-.11.26,1.21,1.21,0,0,1-.46.14,0.88,0.88,0,0,1-.42,0,1.24,1.24,0,0,0-.45,0h-0.18Zm1.43-.26-0.23-.33a0.55,0.55,0,0,1-.26.46A0.59,0.59,0,0,0,138.14,116.63Zm-1.17-.28a0.62,0.62,0,0,0-.33.18,2.57,2.57,0,0,0,.42.18A0.65,0.65,0,0,1,137,116.35Zm0.22,0.07a0.29,0.29,0,0,0,.26.26,0.27,0.27,0,0,0,.27-0.2l-0.07,0c-0.15.17-.33,0.16-0.41,0Z" transform="translate(-16.14 -109.26)" style="fill: #63291c;fill-rule: evenodd"/>
      <path d="M142.07,116.6a0.87,0.87,0,0,1-.57.26c-0.15,0-.29,0-0.44,0a5.92,5.92,0,0,1-.64-0.11h0a0.29,0.29,0,0,1,0-.25,1.52,1.52,0,0,1,.45-0.46,0.26,0.26,0,0,1,.14,0l0.68,0a0.44,0.44,0,0,1,.4.21c0.08,0.12.13,0.15,0,.29A0.13,0.13,0,0,1,142.07,116.6Zm-0.36-.43a1.17,1.17,0,0,1-.21.48,0.71,0.71,0,0,0,.51-0.19A0.45,0.45,0,0,0,141.71,116.17Zm-1.16.27a0.52,0.52,0,0,1-.06.11,0.65,0.65,0,0,0,.35,0l-0.09-.32A0.27,0.27,0,0,0,140.55,116.44Zm0.42-.18-0.08,0a0.11,0.11,0,0,0,0,0,0.79,0.79,0,0,0,.09.19,0.27,0.27,0,0,0,.2,0,0.42,0.42,0,0,0,.17,0,0.13,0.13,0,0,0,.09-0.18A0.26,0.26,0,0,1,141,116.26Z" transform="translate(-16.14 -109.26)" style="fill: #63291c;fill-rule: evenodd"/>
      <path d="M136.51,115.66a2.21,2.21,0,0,1,.56-0.32l0.14-.05,0.34-.11a0.11,0.11,0,0,0,.09-0.14,0.12,0.12,0,0,0-.09-0.15,0.61,0.61,0,0,0-.23,0,1.29,1.29,0,0,0-.76.53,0.47,0.47,0,0,0-.07.15,0.3,0.3,0,0,0,0,.1h0Z" transform="translate(-16.14 -109.26)" style="fill: #63291c;fill-rule: evenodd"/>
      <path d="M142.42,115.31a0.56,0.56,0,0,0-.07-0.1,2.91,2.91,0,0,0-.4-0.36,0.87,0.87,0,0,0-.76-0.11,0.24,0.24,0,0,0-.11.08s0,0.09,0,.11l0.31,0.09,0.45,0.16c0.17,0.07.35,0.11,0.52,0.16Z" transform="translate(-16.14 -109.26)" style="fill: #63291c;fill-rule: evenodd"/>
      <path d="M139.1,119.74a2.07,2.07,0,0,0,.67-0.13l0.13-.08a0,0,0,0,0,0-.09h-0.13l-0.42,0h-0.7a0.06,0.06,0,0,0-.08,0,0.1,0.1,0,0,0,0,.08,0.28,0.28,0,0,0,.11.08A1.08,1.08,0,0,0,139.1,119.74Z" transform="translate(-16.14 -109.26)" style="fill: #63291c;fill-rule: evenodd"/>
      <path d="M139.39,118a0.65,0.65,0,0,0,.44-0.15,0.27,0.27,0,0,0,.09-0.12,0.09,0.09,0,0,0,0-.09,0.07,0.07,0,0,0-.09,0l-0.1.08a0.68,0.68,0,0,1-.44.07h0a0.1,0.1,0,1,0,0,.19h0.2Z" transform="translate(-16.14 -109.26)" style="fill: #63291c;fill-rule: evenodd"/>
      <path d="M146.83,120.26a0.24,0.24,0,0,1,.12-0.11l0.26-.09a0.15,0.15,0,0,0,.13-0.1,0.14,0.14,0,0,0-.06-0.16l-0.21-.15-0.06,0a0.54,0.54,0,0,1,.41.11,0.08,0.08,0,0,0,.14,0,0.2,0.2,0,0,0,0-.12l-0.15-.38,0-.07a0.38,0.38,0,0,1,.23.24l0.09,0.24h0.07a0.22,0.22,0,0,0,.23-0.09,1.29,1.29,0,0,0,.19-0.31l0-.09a0.75,0.75,0,0,1-.18.54l0,0.08,0.05,0.08a0.69,0.69,0,0,1,.66.08,1.46,1.46,0,0,0-.58.1,0.14,0.14,0,0,0-.11.15,0.32,0.32,0,0,0,0,.08,0.23,0.23,0,0,0,0,.09l0.09,0.06a0.57,0.57,0,0,1,.18.24l-0.07,0-0.31-.15a0.15,0.15,0,0,0-.15,0h-0.07a0.07,0.07,0,0,0-.08.06,1.53,1.53,0,0,1-.09.24,0.78,0.78,0,0,1-.13.15,0.06,0.06,0,0,1-.09,0,1.58,1.58,0,0,1,.08-0.17,0.39,0.39,0,0,0,0-.39,0.23,0.23,0,0,0-.17-0.13,0.6,0.6,0,0,0-.42.06l-0.09,0v0Zm0.82-.06a0.26,0.26,0,0,0,.28,0,0.3,0.3,0,0,0,.08-0.42,0.09,0.09,0,0,0,0,0,0.29,0.29,0,0,0-.41.29A0.19,0.19,0,0,0,147.64,120.21Z" transform="translate(-16.14 -109.26)" style="fill: #63291c;fill-rule: evenodd"/>
      <path d="M137.1,131.58a0.23,0.23,0,0,0-.2-0.24,0.19,0.19,0,0,0-.18.2,0.21,0.21,0,0,0,.21.22A0.17,0.17,0,0,0,137.1,131.58Z" transform="translate(-16.14 -109.26)" style="fill: #63291c;fill-rule: evenodd"/>
      <path d="M138.81,130.06a0.17,0.17,0,0,0-.17.17,0.2,0.2,0,0,0,.2.17,0.15,0.15,0,0,0,.15-0.16A0.18,0.18,0,0,0,138.81,130.06Z" transform="translate(-16.14 -109.26)" style="fill: #63291c;fill-rule: evenodd"/>
      <path d="M137,132.71a0.23,0.23,0,0,0-.24.22,0.21,0.21,0,0,0,.22.2,0.21,0.21,0,0,0,.22-0.21A0.21,0.21,0,0,0,137,132.71Z" transform="translate(-16.14 -109.26)" style="fill: #63291c;fill-rule: evenodd"/>
      <path d="M139.91,130.15a0.17,0.17,0,0,0,.16.17,0.23,0.23,0,0,0,.2-0.19,0.16,0.16,0,0,0-.16-0.15A0.18,0.18,0,0,0,139.91,130.15Z" transform="translate(-16.14 -109.26)" style="fill: #63291c;fill-rule: evenodd"/>
      <path d="M138.8,123.33h0a0.37,0.37,0,0,0-.12.22,0.06,0.06,0,0,0,0,0,0.18,0.18,0,0,0,.2-0.17A0.08,0.08,0,0,0,138.8,123.33Z" transform="translate(-16.14 -109.26)" style="fill: #63291c;fill-rule: evenodd"/>
      <path d="M138,131.25a0.16,0.16,0,0,0,.16.16,0.15,0.15,0,0,0,.14-0.17,0.15,0.15,0,0,0-.14-0.14A0.16,0.16,0,0,0,138,131.25Z" transform="translate(-16.14 -109.26)" style="fill: #63291c;fill-rule: evenodd"/>
      <path d="M139.46,124.34l0.06,0a0.12,0.12,0,0,0,.09,0,0.11,0.11,0,0,0,0-.08,0.12,0.12,0,0,0-.13-0.11l-0.12,0a0.07,0.07,0,0,0-.05.08,0.07,0.07,0,0,0,.08.05h0Z" transform="translate(-16.14 -109.26)" style="fill: #63291c;fill-rule: evenodd"/>
      <path d="M138.19,122.7a0.15,0.15,0,0,0-.11.14,0.07,0.07,0,0,0,.14,0,0.1,0.1,0,0,0,0-.13Z" transform="translate(-16.14 -109.26)" style="fill: #63291c;fill-rule: evenodd"/>
      <path d="M139.59,122.38l-0.06-.11a0.06,0.06,0,0,0-.05,0,0.08,0.08,0,0,0,0,.05,0.24,0.24,0,0,0,.07.18,0,0,0,0,0,.07,0A0.65,0.65,0,0,0,139.59,122.38Z" transform="translate(-16.14 -109.26)" style="fill: #63291c;fill-rule: evenodd"/>
      <path d="M139.41,121.35a0.23,0.23,0,0,0,0,.05,0.08,0.08,0,0,0,.11,0,0.16,0.16,0,0,0,.11-0.13,0.08,0.08,0,0,0,0,0,0.12,0.12,0,0,0-.14,0A0.11,0.11,0,0,0,139.41,121.35Z" transform="translate(-16.14 -109.26)" style="fill: #63291c;fill-rule: evenodd"/>
      <path d="M137.65,116.77a0.59,0.59,0,0,0,.48-0.13l-0.23-.33A0.55,0.55,0,0,1,137.65,116.77Z" transform="translate(-16.14 -109.26)" style="fill: #fff;fill-rule: evenodd"/>
      <path d="M137.06,116.71a0.65,0.65,0,0,1-.1-0.37,0.62,0.62,0,0,0-.33.18A2.57,2.57,0,0,0,137.06,116.71Z" transform="translate(-16.14 -109.26)" style="fill: #fff;fill-rule: evenodd"/>
      <path d="M137.24,116.4l0,0a0.29,0.29,0,0,0,.26.26,0.27,0.27,0,0,0,.27-0.2l-0.07,0C137.5,116.61,137.32,116.6,137.24,116.4Z" transform="translate(-16.14 -109.26)" style="fill: #fff;fill-rule: evenodd"/>
      <path d="M142,116.45a0.45,0.45,0,0,0-.3-0.29,1.17,1.17,0,0,1-.21.48A0.71,0.71,0,0,0,142,116.45Z" transform="translate(-16.14 -109.26)" style="fill: #fff;fill-rule: evenodd"/>
      <path d="M140.74,116.24a0.27,0.27,0,0,0-.19.2,0.52,0.52,0,0,1-.06.11,0.65,0.65,0,0,0,.35,0Z" transform="translate(-16.14 -109.26)" style="fill: #fff;fill-rule: evenodd"/>
      <path d="M141.44,116.29a0.26,0.26,0,0,1-.46,0l-0.08,0a0.11,0.11,0,0,0,0,0,0.79,0.79,0,0,0,.09.19,0.27,0.27,0,0,0,.2,0,0.42,0.42,0,0,0,.17,0A0.13,0.13,0,0,0,141.44,116.29Z" transform="translate(-16.14 -109.26)" style="fill: #fff;fill-rule: evenodd"/>
      <path d="M147.54,120a0.19,0.19,0,0,0,.1.19,0.26,0.26,0,0,0,.28,0,0.3,0.3,0,0,0,.08-0.42,0.09,0.09,0,0,0,0,0A0.29,0.29,0,0,0,147.54,120Z" transform="translate(-16.14 -109.26)" style="fill: #fff;fill-rule: evenodd"/>
    </g>
    <rect x="90.86" y="24.09" width="22.13" height="1.22" rx="0.2" ry="0.2" style="fill: #682f24"/>
    <g>
      <path d="M42.08,126.44a4.84,4.84,0,0,1-3.62-1.57,5.64,5.64,0,0,1,0-7.37,4.84,4.84,0,0,1,3.61-1.57,5.12,5.12,0,0,1,5,5.26A5.05,5.05,0,0,1,42.08,126.44Zm0-8.74a1.59,1.59,0,0,0-1.15.48,4.26,4.26,0,0,0-.84,3,4.45,4.45,0,0,0,.86,3,1.57,1.57,0,0,0,1.13.48c0.74,0,2-.45,2-3.48C44.08,119,43.32,117.7,42.08,117.7Z" transform="translate(-16.14 -109.26)" style="fill: #682f24"/>
      <path d="M67.29,126.44a4.84,4.84,0,0,1-3.62-1.57,5.64,5.64,0,0,1,0-7.37,4.84,4.84,0,0,1,3.61-1.57,5.12,5.12,0,0,1,5,5.26A5.05,5.05,0,0,1,67.29,126.44Zm0-8.74a1.59,1.59,0,0,0-1.15.48,4.26,4.26,0,0,0-.84,3,4.45,4.45,0,0,0,.86,3,1.57,1.57,0,0,0,1.13.48c0.74,0,2-.45,2-3.48C69.3,119,68.54,117.7,67.29,117.7Z" transform="translate(-16.14 -109.26)" style="fill: #682f24"/>
      <path d="M110.67,126.44a4.84,4.84,0,0,1-3.62-1.57,5.64,5.64,0,0,1,0-7.37,4.84,4.84,0,0,1,3.61-1.57,5.12,5.12,0,0,1,5,5.26A5.05,5.05,0,0,1,110.67,126.44Zm0-8.74a1.59,1.59,0,0,0-1.15.48,4.26,4.26,0,0,0-.84,3,4.45,4.45,0,0,0,.86,3,1.57,1.57,0,0,0,1.13.48c0.74,0,2-.45,2-3.48C112.67,119,111.91,117.7,110.67,117.7Z" transform="translate(-16.14 -109.26)" style="fill: #682f24"/>
      <path d="M59.34,126.31A1.4,1.4,0,0,1,57.8,125c0-.17.07-5.35,0.07-5.35s-1.76,4.35-2.54,5.78a0.84,0.84,0,0,1-1.19.06A52,52,0,0,1,52,120.17a26.26,26.26,0,0,1-.24,2.65c-0.28,2.1-1.12,3.49-2.59,3.49a1.74,1.74,0,0,1-1.62-.91,11.8,11.8,0,0,0,1.36-3.56,33.11,33.11,0,0,0,.28-4.27,1.9,1.9,0,0,1,1.94-1.7,2.24,2.24,0,0,1,2,1.21,35.5,35.5,0,0,0,1.63,4.32c0.12,0,1.76-4.23,1.76-4.23a2.47,2.47,0,0,1,2.17-1.29,2.63,2.63,0,0,1,1.77.71,1.73,1.73,0,0,1,.34,1s0,0.86,0,2c0,2,.12,5.33.13,5.44a1.45,1.45,0,0,1-1.59,1.35h0Z" transform="translate(-16.14 -109.26)" style="fill: #682f24"/>
      <path d="M78.07,126.4c-3.22,0-4.37-2.25-4.37-4v-5.09c0-.73.46-1.12,1.5-1.32a16.33,16.33,0,0,1,2.57-.15c1,0,4.1.35,4.1,2.35a2.73,2.73,0,0,1-1.61,2.11s2.36,0.83,2.36,2.58C82.63,125.18,80.34,126.4,78.07,126.4Zm-0.17-5.16-1.07,0a2.69,2.69,0,0,0,0,.41V123c0.09,1.58,1,1.8,1.43,1.8a1.65,1.65,0,0,0,1.57-1.88A1.72,1.72,0,0,0,77.9,121.24Zm-0.16-3.86a6,6,0,0,0-.94.08l0,2.86h0.74a1.56,1.56,0,0,0,1.63-1.63A1.24,1.24,0,0,0,77.74,117.38Z" transform="translate(-16.14 -109.26)" style="fill: #682f24"/>
      <path d="M88.69,126.37a5,5,0,0,1-4.85-5.07,5.37,5.37,0,0,1,5.1-5.44c2.85,0,4.13,1.73,4.13,3,0,2.36-2.4,3.22-3.94,3.26A15.69,15.69,0,0,1,86.9,122L87,122.34a3.12,3.12,0,0,0,3.13,2.45,7.2,7.2,0,0,0,2.78-.75c0.14-.06.25,0,0.14,0.18A4.88,4.88,0,0,1,88.69,126.37ZM88,117.54c-1.28.82-1.16,3.07-1.16,3.07a3.09,3.09,0,0,0,.91.1,2.89,2.89,0,0,0,1.81-.51,2,2,0,0,0,.75-1.6,1.31,1.31,0,0,0-1.49-1.33A1.78,1.78,0,0,0,88,117.54Zm2.76-2.62a1.62,1.62,0,0,1-1.16-.45,1.14,1.14,0,0,1,0-1.6,1.62,1.62,0,0,1,1.16-.45A1.28,1.28,0,1,1,90.76,114.92Zm-4.5,0a1.62,1.62,0,0,1-1.16-.45,1.14,1.14,0,0,1,0-1.6,1.62,1.62,0,0,1,1.16-.45A1.28,1.28,0,1,1,86.25,114.92Z" transform="translate(-16.14 -109.26)" style="fill: #682f24"/>
      <path d="M96.58,126.37A1.5,1.5,0,0,1,95,125s0.1-4.39.1-4.86c0-2-.5-3-1.06-3.35a2.34,2.34,0,0,1,1.85-.95c1.4,0,2.3,1.39,2.3,2.93v1.53h2.7s0-3.09,0-3.13c0-1.32,1.52-1.33,1.58-1.33a1.44,1.44,0,0,1,1.58,1.33c0,0.37-.06,4.55-0.06,4.91,0,2.31.52,3,1.1,3.37a2.4,2.4,0,0,1-1.87.9c-1.4,0-2.3-1.06-2.3-2.9v-1.7H98.15s0.07,3.14.07,3.25A1.5,1.5,0,0,1,96.58,126.37Z" transform="translate(-16.14 -109.26)" style="fill: #682f24"/>
      <path d="M118.95,126.42a1.49,1.49,0,0,1-1.65-1.35c0-.08,0-1.1.05-1.86,0-1.22.1-2.73,0.1-3.05,0-2-.5-3-1.06-3.35a2.34,2.34,0,0,1,1.85-.95c1.38,0,2.28.9,2.28,2.93v1.78l0.47-.08s0.52-4.63,4-4.63a1.78,1.78,0,0,1,2,1.76,1.55,1.55,0,0,1-1.7,1.64,1.32,1.32,0,0,1-.57-0.11,0.94,0.94,0,0,0-.93-1.33c-0.91,0-1.58,1.57-1.52,2.57a2.36,2.36,0,0,1,2,.78,6.77,6.77,0,0,1,.53,1,5.67,5.67,0,0,0,2.43,3.27l0,0.05a3,3,0,0,1-2.14.91c-2.25,0-2.57-2-3-3.3-0.2-.69-0.45-1.61-1.17-1.58a3.7,3.7,0,0,0-.38.07c0,0.24,0,1.43,0,2.16,0,0.46,0,1.23,0,1.29A1.5,1.5,0,0,1,118.95,126.42Z" transform="translate(-16.14 -109.26)" style="fill: #682f24"/>
    </g>
  </g>
</svg>
