<svg data-name="Слой 1" xmlns="http://www.w3.org/2000/svg" width="26.28" height="24.29" viewBox="0 0 26.28 24.29">
  <g>
    <path d="M189.79,112.65a11.4,11.4,0,1,1-.3-7.39" transform="translate(-166.72 -97.25)" style="fill: none;stroke: #682f24;stroke-linecap: round;stroke-miterlimit: 10;stroke-width: 1.5px"/>
    <polygon points="19.62 7.84 23.55 12.15 25.32 6.59 19.62 7.84" style="fill: #682f24"/>
  </g>
  <g>
    <path d="M172.19,104.86a7.51,7.51,0,0,1,2.3-.34c1.7,0,2.53.39,2.53,2,0,1.4-.4,1.86-2.89,3.53H177v1.37H172v-1.27c3.19-2.37,3.38-2.56,3.38-3.46,0-.61-0.25-0.78-1-0.78a6.82,6.82,0,0,0-1.8.26Z" transform="translate(-166.72 -97.25)" style="fill: #682f24"/>
    <path d="M177.27,109.83V109.3c0.73-1.31,2-3.41,2.84-4.61h2v3.84H183v1.31h-0.87v1.61h-1.49v-1.61h-3.34Zm3.34-3.7a22.93,22.93,0,0,0-1.48,2.39h1.48v-2.39Z" transform="translate(-166.72 -97.25)" style="fill: #682f24"/>
  </g>
  <circle cx="20.66" cy="17.77" r="5.62" style="fill: #ff8300"/>
  <path d="M189.54,113.11a28.58,28.58,0,0,0-2.12,4.65h-1.31a19.45,19.45,0,0,1,1.89-4h-2.43v-1h4v0.33Z" transform="translate(-166.72 -97.25)" style="fill: #fffffe"/>
</svg>
