<svg xmlns="http://www.w3.org/2000/svg" width="60" height="60" viewBox="0 0 60 60"><title>выезд-мастера</title><g id="Слой_2" data-name="Слой 2"><g id="Слой_1-2" data-name="Слой 1"><rect width="60" height="60" fill="none"/><path d="M52.89,29.1c-2.71-1.74-7.52-8.44-9.37-10.27A6.38,6.38,0,0,0,39,17H8.14a1.78,1.78,0,0,0-1.78,1.75L6.08,37.87a1.36,1.36,0,0,0,1.36,1.38h3.24c0-.07,0-.15,0-.22a5.21,5.21,0,0,1,10.43,0c0,.08,0,.15,0,.22h20c0-.07,0-.15,0-.22a5.21,5.21,0,1,1,10.43,0c0,.08,0,.15,0,.22H52a1.93,1.93,0,0,0,1.93-1.93V31A2.47,2.47,0,0,0,52.89,29.1Z" fill="#ffffff" stroke="#263239" stroke-linejoin="round"/><circle cx="15.85" cy="39.14" r="4.03" fill="#ffffff" stroke="#ff5a19" stroke-miterlimit="10"/><circle cx="15.85" cy="39.14" r="2.41" fill="#ffffff" stroke="#ff5a19" stroke-miterlimit="10" stroke-width="0.8"/><circle cx="46.28" cy="39.14" r="4.03" fill="#ffffff" stroke="#ff5a19" stroke-miterlimit="10"/><circle cx="46.28" cy="39.14" r="2.41" fill="#ffffff" stroke="#ff5a19" stroke-miterlimit="10" stroke-width="0.8"/><path d="M47,27.43l-12.39.11a1,1,0,0,1-.85-1V20.16a.81.81,0,0,1,.72-.88h6.39a1.32,1.32,0,0,1,1,.56l5.45,6.72C47.58,26.91,47.37,27.43,47,27.43Z" fill="#ffffff" stroke="#263239" stroke-linejoin="round" stroke-width="0.8"/><line x1="6.42" y1="28.66" x2="18.88" y2="28.62" fill="#ffffff" stroke="#263239" stroke-linecap="round" stroke-miterlimit="10" stroke-width="0.8"/><line x1="6.59" y1="29.63" x2="27.93" y2="29.63" fill="#ffffff" stroke="#263239" stroke-linecap="round" stroke-miterlimit="10" stroke-width="0.8"/><line x1="31.22" y1="16.83" x2="31.22" y2="38.99" fill="#ffffff" stroke="#263239" stroke-miterlimit="10" stroke-width="0.8"/><line x1="33.9" y1="29.92" x2="35.9" y2="29.92" fill="#ffffff" stroke="#263239" stroke-linecap="round" stroke-miterlimit="10" stroke-width="0.8"/></g></g></svg>
