<svg xmlns="http://www.w3.org/2000/svg" width="60" height="60" viewBox="0 0 60 60"><title>кресло_1</title><g id="Слой_2" data-name="Слой 2"><g id="Слой_1-2" data-name="Слой 1"><rect width="60" height="60" fill="none"/><path d="M44.72,15H41.88a15,15,0,0,0-24.72,0H14.31a3.5,3.5,0,0,0-3.5,3.5V40.4a3.5,3.5,0,0,0,3.5,3.5H44.72a3.5,3.5,0,0,0,3.5-3.5V18.54A3.5,3.5,0,0,0,44.72,15Z" fill="#ffffff" stroke="#263239" stroke-linejoin="round"/><ellipse cx="29.52" cy="35.13" rx="19.27" ry="4.73" fill="#ffffff" stroke="#263239" stroke-linejoin="round" stroke-width="0.8"/><path d="M47.24,46c0,2.05-1.1,3.72-2.47,3.72H14.26c-1.36,0-2.47-1.66-2.47-3.72v-4.7c0-2.05,1.1-3.72,2.47-3.72H44.78c1.36,0,2.47,1.66,2.47,3.72Z" fill="#ffffff" stroke="#263239" stroke-linejoin="round"/><path d="M14.51,31.77a5,5,0,1,0-7.12,4.53V49.52a1.93,1.93,0,0,0,1.93,1.93h3.25a1.93,1.93,0,0,0,1.93-1.93V31.89s0,0,0-.06S14.51,31.79,14.51,31.77Z" fill="#ffffff" stroke="#263239" stroke-linejoin="round"/><path d="M45.28,31.77a5.11,5.11,0,0,1,10.22,0,5,5,0,0,1-3,4.53v13.2a2,2,0,0,1-2,1.93H47.25a2,2,0,0,1-2-1.93V31.88s0,0,0-.06S45.28,31.79,45.28,31.77Z" fill="#ffffff" stroke="#263239" stroke-linejoin="round"/><circle cx="9.51" cy="31.7" r="1.31" fill="#ffffff" stroke="#263239" stroke-linejoin="round" stroke-width="0.8"/><circle cx="50.39" cy="31.7" r="1.31" fill="#ffffff" stroke="#263239" stroke-linejoin="round" stroke-width="0.8"/><path d="M39.91,24.91a52.85,52.85,0,0,1,.35-6.17c-2.82-1.42-6.62.87-10.8.87s-7.88-2.31-10.7-.92a52.78,52.78,0,0,1,.36,6.22,52.79,52.79,0,0,1-.36,6.22c2.81,1.39,6.57-.19,10.7-.19s8,1.55,10.8.14A52.85,52.85,0,0,1,39.91,24.91Z" fill="#ffffff" stroke="#ff5a19" stroke-linejoin="round" stroke-width="0.8"/></g></g></svg>
