<svg xmlns="http://www.w3.org/2000/svg" width="60" height="60" viewBox="0 0 60 60"><title>верх.поверх</title><g id="Слой_2" data-name="Слой 2"><g id="Слой_1-2" data-name="Слой 1"><rect width="60" height="60" fill="none"/><path d="M38.1,51v1.27a1,1,0,0,0,1,1h2.06a1,1,0,0,0,1-1V51" fill="#ffffff" stroke="#263239" stroke-linejoin="round" stroke-width="0.5"/><path d="M17.53,51v1.27a1,1,0,0,0,1,1h2.06a1,1,0,0,0,1-1V51" fill="#ffffff" stroke="#263239" stroke-linejoin="round" stroke-width="0.6"/><path d="M44.14,48.81a2.72,2.72,0,0,1-2.91,2.46H18.9A2.71,2.71,0,0,1,16,48.81V9.23A2.71,2.71,0,0,1,18.9,6.77H41.23a2.71,2.71,0,0,1,2.91,2.46Z" fill="#ffffff" stroke="#263239" stroke-linecap="round" stroke-linejoin="round"/><circle cx="31.87" cy="34.4" r="0.68" fill="#ff5a19"/><circle cx="28.27" cy="34.4" r="0.68" fill="#ff5a19"/><line x1="15.86" y1="31.25" x2="43.67" y2="31.25" fill="none" stroke="#263239" stroke-linejoin="round" stroke-width="0.6"/><line x1="30.07" y1="31.32" x2="30.07" y2="51.15" fill="none" stroke="#263239" stroke-linejoin="round" stroke-width="0.6"/><path d="M18.45,8.16H41.73a1,1,0,0,1,1,1v22a0,0,0,0,1,0,0H17.45a0,0,0,0,1,0,0v-22A1,1,0,0,1,18.45,8.16Z" fill="#ffffff" stroke="#263239" stroke-linecap="round" stroke-linejoin="round" stroke-width="0.5"/><path d="M18.45,8.16H41.73a1,1,0,0,1,1,1v22a0,0,0,0,1,0,0H17.45a0,0,0,0,1,0,0v-22A1,1,0,0,1,18.45,8.16Z" fill="#ffffff" stroke="#263239" stroke-linecap="round" stroke-linejoin="round" stroke-width="0.5"/><line x1="17.65" y1="15.88" x2="42.56" y2="15.88" fill="none" stroke="#263239" stroke-linecap="round" stroke-linejoin="round" stroke-width="0.5"/><line x1="17.65" y1="23.54" x2="42.56" y2="23.54" fill="none" stroke="#263239" stroke-linecap="round" stroke-linejoin="round" stroke-width="0.5"/></g></g></svg>
