<svg xmlns="http://www.w3.org/2000/svg" width="60" height="60" viewBox="0 0 60 60"><title>каркас-кровати_1</title><g id="Слой_2" data-name="Слой 2"><g id="Слой_1-2" data-name="Слой 1"><rect width="60" height="60" fill="none"/><path d="M55.5,40.36v6.45a1.62,1.62,0,0,1-1.62,1.62H49.52V46.61A1.62,1.62,0,0,0,47.9,45H12.1a1.62,1.62,0,0,0-1.62,1.62v1.82H6.12A1.62,1.62,0,0,1,4.5,46.81V40.36Z" fill="#ffffff" stroke="#263239" stroke-linecap="round" stroke-miterlimit="10"/><path d="M51.4,28.82V22.69c0-6.14-9.59-11.12-21.42-11.12s-21.42,5-21.42,11.12v6.13" fill="#ffffff" stroke="#ff5a19" stroke-linecap="round" stroke-miterlimit="10"/><path d="M55.5,40.33V30.41a1.61,1.61,0,0,0-1.62-1.6H6.12a1.61,1.61,0,0,0-1.62,1.6v9.92" fill="#fff" stroke="#263239" stroke-linecap="round" stroke-miterlimit="10"/><line x1="13.06" y1="15.9" x2="13.06" y2="28.25" fill="none" stroke="#ff5a19" stroke-linecap="round" stroke-miterlimit="10" stroke-width="0.8"/><line x1="23.22" y1="12.67" x2="23.22" y2="28.33" fill="none" stroke="#ff5a19" stroke-linecap="round" stroke-miterlimit="10" stroke-width="0.8"/><line x1="29.06" y1="11.67" x2="29.06" y2="28.33" fill="none" stroke="#ff5a19" stroke-linecap="round" stroke-miterlimit="10" stroke-width="0.8"/><line x1="34.9" y1="12.02" x2="34.89" y2="28.33" fill="none" stroke="#ff5a19" stroke-linecap="round" stroke-miterlimit="10" stroke-width="0.8"/><line x1="40.72" y1="13.67" x2="40.72" y2="28.33" fill="none" stroke="#ff5a19" stroke-linecap="round" stroke-miterlimit="10" stroke-width="0.8"/><line x1="46.56" y1="15.67" x2="46.56" y2="28.33" fill="none" stroke="#ff5a19" stroke-linecap="round" stroke-miterlimit="10" stroke-width="0.8"/><line x1="17.89" y1="13.58" x2="17.89" y2="28.25" fill="none" stroke="#ff5a19" stroke-linecap="round" stroke-miterlimit="10" stroke-width="0.8"/></g></g></svg>
