<svg xmlns="http://www.w3.org/2000/svg" width="60" height="60" viewBox="0 0 60 60"><title>полировка-паркета</title><g id="Слой_2" data-name="Слой 2"><g id="Слой_1-2" data-name="Слой 1"><rect width="60" height="60" fill="none"/><path d="M46.05,6.39H40a1.38,1.38,0,0,0-1.38,1.38V33.44h1.19v-24h6.28A1.38,1.38,0,0,0,47.44,8V7.78A1.38,1.38,0,0,0,46.05,6.39Z" fill="#ffffff" stroke="#263239" stroke-linejoin="round" stroke-width="0.8"/><path d="M30.1,32c.37-1.67.63-3.22,2.16-3.22H39.8v3" fill="#ffffff" stroke="#263239" stroke-linejoin="round" stroke-width="0.79"/><path d="M39.68,45V30.69h-8c-.92,0-1.28.82-1.66,1.66-2.56,5.7-4.37,10.11-4.37,10.11-.79,0-6.18,5.14-7.62,6.52h-4.7a.79.79,0,0,0-.79.79v2.54a.79.79,0,0,0,.79.79H38" fill="#ffffff" stroke="#263239" stroke-linejoin="round"/><line x1="39.68" y1="42.72" x2="25.46" y2="42.72" fill="none" stroke="#263239" stroke-linecap="round" stroke-linejoin="round" stroke-width="0.8"/><line x1="18.05" y1="49.17" x2="34.67" y2="49.17" fill="none" stroke="#263239" stroke-linecap="round" stroke-linejoin="round" stroke-width="0.8"/><circle cx="38.76" cy="48.98" r="4.63" fill="#ffffff" stroke="#263239" stroke-linejoin="round"/><circle cx="38.76" cy="48.98" r="2.24" fill="#ffffff" stroke="#263239" stroke-linecap="round" stroke-linejoin="round" stroke-width="0.8"/><polygon points="20.27 30.09 20.75 32.34 23 32.82 20.75 33.3 20.27 35.54 19.79 33.29 17.54 32.82 19.79 32.34 20.27 30.09" fill="#ff5a19"/><polygon points="11.27 26.09 11.74 28.34 13.99 28.82 11.75 29.3 11.27 31.55 10.79 29.3 8.54 28.82 10.79 28.34 11.27 26.09" fill="#ff5a19"/><polygon points="13.73 35.49 14.21 37.74 16.46 38.22 14.21 38.7 13.73 40.94 13.25 38.7 11.01 38.22 13.25 37.74 13.73 35.49" fill="#ff5a19"/></g></g></svg>
