<svg xmlns="http://www.w3.org/2000/svg" width="60" height="60" viewBox="0 0 60 60"><title>полировка-мебели</title><g id="Слой_2" data-name="Слой 2"><g id="Слой_1-2" data-name="Слой 1"><rect width="60" height="60" fill="none"/><path d="M32.66,49.71V51a1,1,0,0,0,1,1H35.7a1,1,0,0,0,1-1V49.71" fill="#ffffff" stroke="#263239" stroke-linejoin="round" stroke-width="0.8"/><path d="M12.1,49.71V51a1,1,0,0,0,1,1h2.06a1,1,0,0,0,1-1V49.71" fill="#ffffff" stroke="#263239" stroke-linejoin="round" stroke-width="0.8"/><path d="M38.71,47.54A2.72,2.72,0,0,1,35.8,50H13.47a2.71,2.71,0,0,1-2.91-2.46V8a2.71,2.71,0,0,1,2.91-2.46H35.8A2.71,2.71,0,0,1,38.71,8Z" fill="#ffffff" stroke="#263239" stroke-linecap="round" stroke-linejoin="round"/><circle cx="26.44" cy="33.14" r="0.68" fill="#263239"/><circle cx="22.84" cy="33.13" r="0.68" fill="#263239"/><line x1="10.42" y1="29.99" x2="38.23" y2="29.99" fill="none" stroke="#263239" stroke-linejoin="round" stroke-width="0.6"/><line x1="24.63" y1="30.05" x2="24.63" y2="49.88" fill="none" stroke="#263239" stroke-linejoin="round" stroke-width="0.8"/><path d="M13,6.89H36.3a1,1,0,0,1,1,1v22a0,0,0,0,1,0,0H12a0,0,0,0,1,0,0v-22A1,1,0,0,1,13,6.89Z" fill="#ffffff" stroke="#263239" stroke-linecap="round" stroke-linejoin="round" stroke-width="0.5"/><path d="M13,6.89H36.3a1,1,0,0,1,1,1v22a0,0,0,0,1,0,0H12a0,0,0,0,1,0,0v-22A1,1,0,0,1,13,6.89Z" fill="#ffffff" stroke="#263239" stroke-linecap="round" stroke-linejoin="round" stroke-width="0.8"/><line x1="12.21" y1="14.61" x2="37.13" y2="14.61" fill="none" stroke="#263239" stroke-linecap="round" stroke-linejoin="round" stroke-width="0.8"/><line x1="12.21" y1="22.28" x2="37.13" y2="22.28" fill="none" stroke="#263239" stroke-linecap="round" stroke-linejoin="round" stroke-width="0.8"/><polygon points="23.89 25.57 17.08 32.35 32.12 47.68 47.12 33.06 37.39 23.27 23.89 25.57" fill="#ffffff"/><path d="M45.8,43.53l-.25-4.09-1.84-2.91-2.16,2-6-5.66a1.56,1.56,0,0,0-1.59-.16,1.31,1.31,0,0,0-.41,1.44l-1-.87s-1-.25-1.5.31-.47,1.32.49,2.37a2,2,0,0,0-1.37.47,1.39,1.39,0,0,0,.09,2,9.73,9.73,0,0,0,1.22,1.19s-1.06.16-1.34.69A1.31,1.31,0,0,0,30.39,42l12,12a6.56,6.56,0,0,0,3.73-1.59,11.83,11.83,0,0,0,2.81-3.81L49.39,47Z" fill="#ffffff"/><path d="M32.35,48.23a.44.44,0,0,0,.31-.13l1.91-1.91a.45.45,0,0,0-.63-.63l-1.59,1.59L17.66,32.47,24,26.09l13.11-2.46L46.51,33l-3.22,3.22a.44.44,0,0,0,0,.63.45.45,0,0,0,.63,0l3.54-3.53a.47.47,0,0,0,.13-.32.45.45,0,0,0-.13-.31l-9.84-9.85a.44.44,0,0,0-.4-.12L23.73,25.24a.4.4,0,0,0-.23.12l-6.79,6.79a.45.45,0,0,0,0,.63L32,48.1A.45.45,0,0,0,32.35,48.23Z" fill="#ff5a19"/><path d="M42.43,54.46h.05a10.37,10.37,0,0,0,4.83-2.86,9.76,9.76,0,0,0,2.26-4.38.23.23,0,0,0-.18-.26.22.22,0,0,0-.26.18A9.52,9.52,0,0,1,47,51.3,10.08,10.08,0,0,1,42.38,54a.22.22,0,0,0,.05.44Z" fill="#263239"/><path d="M42.27,54.49a.45.45,0,0,0,.32-.76s-4.7-4.84-6.41-6.55L30.61,41.6a.83.83,0,1,1,1.17-1.17.45.45,0,1,0,.64-.63h0l-1.85-1.85a.84.84,0,0,1,0-1.17.82.82,0,0,1,1-.11.45.45,0,0,0,.59-.1.44.44,0,0,0,0-.59l-.85-.85a.83.83,0,0,1,.59-1.42h0a.82.82,0,0,1,.58.24l1,1a.45.45,0,0,0,.63,0,.45.45,0,0,0,.13-.32.43.43,0,0,0-.13-.32.83.83,0,0,1,1.18-1.18l5.87,5.76a.45.45,0,0,0,.63,0l1.73-1.71a3.2,3.2,0,0,1,1.32,1.67,17.27,17.27,0,0,1,.41,4.74.45.45,0,0,0,.13.34l3.37,3.41a.44.44,0,0,0,.63,0,.45.45,0,0,0,0-.63l-3.24-3.27a17.35,17.35,0,0,0-.47-4.86,3.76,3.76,0,0,0-2.15-2.36.44.44,0,0,0-.43.11L41.51,38,36,32.54a1.72,1.72,0,0,0-2.44,0,1.69,1.69,0,0,0-.44.74,1.7,1.7,0,0,0-1.2-.48h0a1.72,1.72,0,0,0-1.26,2.91,1.76,1.76,0,0,0-.7.42,1.73,1.73,0,0,0,0,2.44l.79.78A1.73,1.73,0,0,0,30,42.24l5.58,5.58c1.7,1.7,6.35,6.49,6.4,6.54A.43.43,0,0,0,42.27,54.49Z" fill="#263239"/><path d="M37.67,39a.45.45,0,0,0,.32-.76l-3.81-3.81a.45.45,0,1,0-.63.63l3.81,3.81A.45.45,0,0,0,37.67,39Z" fill="#263239"/><path d="M36.14,41a.44.44,0,0,0,.32-.76L32.14,36a.45.45,0,1,0-.63.63l4.31,4.31A.45.45,0,0,0,36.14,41Z" fill="#263239"/><path d="M34.54,43a.45.45,0,0,0,.32-.76l-2.37-2.37a.45.45,0,0,0-.63.63l2.37,2.37A.43.43,0,0,0,34.54,43Z" fill="#263239"/><path d="M30.85,31.72a.23.23,0,0,0,.17-.08l6.71-8.08a.23.23,0,0,0-.35-.29l-6.57,7.92-6.92-5.61a.22.22,0,0,0-.31,0,.23.23,0,0,0,0,.31l7.1,5.75A.23.23,0,0,0,30.85,31.72Z" fill="#ff5a19"/><path d="M43,40.59a.45.45,0,0,0,.32-.76L41.83,38.3a.45.45,0,0,0-.63.63l1.52,1.52A.45.45,0,0,0,43,40.59Z" fill="#263239"/><path d="M41.84,36.13A.21.21,0,0,0,42,36c0-.11.16-.81-.76-3.84a19,19,0,0,0-4-6.34.22.22,0,0,0-.31,0,.22.22,0,0,0,0,.32,19,19,0,0,1,3.9,6.16c.88,2.92.76,3.56.76,3.59a.23.23,0,0,0,.16.27Z" fill="#ff5a19"/><path d="M39.16,32.6h0a.22.22,0,0,0,.19-.26c-.64-3.76-2.35-4.91-2.42-5a.22.22,0,0,0-.31.06.22.22,0,0,0,.06.31s1.62,1.11,2.22,4.66A.23.23,0,0,0,39.16,32.6Z" fill="#ff5a19"/></g></g></svg>
