<?xml version="1.0" encoding="utf-8"?>
<!-- Generator: Adobe Illustrator 21.0.2, SVG Export Plug-In . SVG Version: 6.00 Build 0)  -->
<svg version="1.1" id="Слой_1" xmlns="http://www.w3.org/2000/svg" xmlns:xlink="http://www.w3.org/1999/xlink" x="0px" y="0px"
	 viewBox="0 0 60 60" style="enable-background:new 0 0 60 60;" xml:space="preserve">
<style type="text/css">
	.st0{fill:none;}
	.st1{fill:#ffffff;}
	.st2{fill:#263239;}
	.st3{fill:#ff5a19;}
	.st4{fill:#ffffff;}
	.st5{fill:#ffffff;}
	.st6{fill:none;stroke:#692F17;stroke-width:0.5;stroke-miterlimit:10;}
</style>
<title>мытье-фасада</title>
<g id="Слой_1-2">
	<g>
		<rect y="0" class="st0" width="60" height="60"/>
	</g>
	<g>
		<polygon class="st1" points="42.9,14.2 35.8,15 35.8,16.7 42.9,15.9 		"/>
		<path class="st2" d="M35.8,17.1c-0.1,0-0.2,0-0.3-0.1s-0.1-0.2-0.1-0.3V15c0-0.2,0.2-0.4,0.4-0.4l7.1-0.8c0.1,0,0.2,0,0.3,0.1
			s0.1,0.2,0.1,0.3v1.7c0,0.2-0.2,0.4-0.4,0.4L35.8,17.1C35.9,17.1,35.9,17.1,35.8,17.1z M36.2,15.4v0.9l6.3-0.7v-0.9L36.2,15.4z"/>
	</g>
	<g>
		<ellipse class="st1" cx="22" cy="17.1" rx="6.3" ry="6.3"/>
		<path class="st3" d="M22,23.8c-3.8,0-6.8-3-6.8-6.8s3.1-6.8,6.8-6.8c3.8,0,6.8,3,6.8,6.8S25.7,23.8,22,23.8z M22,11.3
			c-3.2,0-5.8,2.6-5.8,5.8s2.6,5.8,5.8,5.8s5.8-2.6,5.8-5.8C27.8,13.9,25.2,11.3,22,11.3z"/>
	</g>
	<g>
		<path class="st4" d="M28.9,27.9c-2-0.7-4.8-1.3-5.3-4.8L22.3,6.3c0-0.5-0.5-0.9-1-0.9h-2.1c-0.6,0-1,0.4-1,1v36.9l0,0
			c0,6.3,0,11.5,0,11.5h16.2l3-7.7v-9.4C37.4,37.6,37.3,30.9,28.9,27.9z"/>
		<path class="st2" d="M34.7,55.2h-17V6.3c0-0.8,0.7-1.5,1.5-1.5h2.1l0,0c0.8,0,1.4,0.6,1.5,1.4l1.3,16.9c0.4,2.8,2.5,3.5,4.3,4.2
			c0.2,0.1,0.4,0.1,0.6,0.2l0,0c8.6,3.1,8.9,10.1,8.9,10.1l-0.1,9.6L34.7,55.2z M18.7,54.2H34l2.8-7.3v-9.3c0-0.2-0.3-6.4-8.2-9.2
			c-0.2-0.1-0.4-0.1-0.6-0.2c-1.9-0.6-4.5-1.5-5-5L21.8,6.3c0-0.3-0.2-0.5-0.5-0.5l0,0h-2.1c-0.3,0-0.5,0.2-0.5,0.5
			C18.7,6.3,18.7,54.2,18.7,54.2z"/>
	</g>
	<g>
		<polygon class="st1" points="44.4,12.4 34.7,13.3 34.5,13.3 34.5,13.3 34.5,13.4 34.5,15.7 34.5,38.7 36,38.7 36,15.6 44.4,14.7
					"/>
		<path class="st2" d="M36,39.1h-1.5c-0.2,0-0.4-0.2-0.4-0.4V13.3c0-0.1,0.1-0.3,0.2-0.3c0.1-0.1,0.2-0.1,0.3-0.1h0.2l9.6-1
			c0.1,0,0.2,0,0.3,0.1s0.1,0.2,0.1,0.3v2.4c0,0.2-0.2,0.4-0.4,0.4l-8,0.8v22.8C36.4,38.9,36.2,39.1,36,39.1z M34.9,38.3h0.7V15.6
			c0-0.2,0.2-0.4,0.4-0.4l8-0.8v-1.6l-9.1,0.9V38.3z"/>
	</g>
	<g>
		<rect x="33.5" y="37.7" class="st1" width="3.8" height="7.3"/>
		<path class="st2" d="M37.3,45.3h-3.8c-0.2,0-0.4-0.2-0.4-0.4v-7.3c0-0.2,0.2-0.4,0.4-0.4h3.8c0.2,0,0.4,0.2,0.4,0.4v7.3
			C37.7,45.1,37.5,45.3,37.3,45.3z M33.8,44.6H37V38h-3.1v6.6H33.8z"/>
	</g>
	<g>
		<ellipse class="st4" cx="34" cy="49.5" rx="5.3" ry="5.2"/>
		<path class="st2" d="M34,55.2c-3.2,0-5.8-2.6-5.8-5.7s2.6-5.7,5.8-5.7s5.8,2.6,5.8,5.7S37.1,55.2,34,55.2z M34,44.8
			c-2.6,0-4.8,2.1-4.8,4.7s2.1,4.7,4.8,4.7s4.8-2.1,4.8-4.7S36.6,44.8,34,44.8z"/>
	</g>
	<g>
		<ellipse class="st5" cx="34" cy="49.5" rx="3" ry="3"/>
		<path class="st2" d="M34,52.9c-1.9,0-3.4-1.5-3.4-3.4s1.5-3.4,3.4-3.4s3.4,1.5,3.4,3.4S35.8,52.9,34,52.9z M34,46.9
			c-1.4,0-2.6,1.2-2.6,2.6s1.2,2.6,2.6,2.6s2.6-1.2,2.6-2.6S35.4,46.9,34,46.9z"/>
	</g>
	<g>
		<path class="st6" d="M19.8,47.7"/>
	</g>
	<g>
		<path class="st2" d="M18.7,44.4h-0.8c0-9.1,7.3-15.4,13.8-15.4v0.8C25.5,29.9,18.7,36.1,18.7,44.4z"/>
	</g>
	<g>
		<path class="st2" d="M36.1,18.3L36,17.5l7-0.7c0.5,0,0.9-0.5,0.8-1v-1.3h0.8v1.3c0.1,0.9-0.6,1.7-1.6,1.8L36.1,18.3z"/>
	</g>
</g>
</svg>
