<svg xmlns="http://www.w3.org/2000/svg" width="60" height="60" viewBox="0 0 60 60"><title>мытье-окна</title><g id="Слой_2" data-name="Слой 2"><g id="Слой_1-2" data-name="Слой 1"><rect width="60" height="60" fill="none"/><path d="M30.85,51.63a14.39,14.39,0,0,1-4.69-3.29,9.58,9.58,0,0,1-2.59-4l.67-.65,7.59,6.83Z" fill="#ffffff" stroke="#263239" stroke-miterlimit="10" stroke-width="0.8"/><path d="M31.1,51.48s2.57-3.59,4-3.87A15.07,15.07,0,0,0,41.92,44l1.79-1.79,1.3-1.3,1.7-1.7a1.53,1.53,0,0,0,0-2.17l-.24-.24a1.53,1.53,0,0,0-2.16,0l1.07-1.07a1.77,1.77,0,0,0,0-2.5l-.28-.28a1.77,1.77,0,0,0-2.5,0l.22-.22a1.77,1.77,0,0,0,0-2.5l-.28-.28a1.77,1.77,0,0,0-2.5,0l-.77.78A1.88,1.88,0,0,0,39.39,28l-.28-.28a1.88,1.88,0,0,0-2.65.14l-2.21,2.21-1.66,1.66-.15.15v-.2s0-.09,0-.13L32,32l-2.42-2.42A2.24,2.24,0,0,0,28,31.73l-.34,8.71-3.86,3.72" fill="#ffffff" stroke="#263239" stroke-linecap="round" stroke-linejoin="round" fill-rule="evenodd"/><line x1="33.83" y1="30.55" x2="30.28" y2="34.1" fill="none" stroke="#263239" stroke-linecap="round" stroke-linejoin="round"/><path d="M24,28.2a4.69,4.69,0,0,0,5.22,1L32,32l2.41-2.41-2.82-2.82a4.69,4.69,0,0,0-1-5.22" fill="#ffffff" stroke="#263239" stroke-linecap="round" stroke-linejoin="round" fill-rule="evenodd"/><path d="M14.28,31.26l1.93,1.93a2,2,0,0,0,2.78,0L35.65,16.54a2,2,0,0,0,0-2.78l-1.93-1.93" fill="#ffffff" stroke="#263239" stroke-linejoin="round" fill-rule="evenodd"/><rect x="8.67" y="18.27" width="27.97" height="3.83" transform="translate(-7.64 21.93) rotate(-45)" fill="#ffffff"/><path d="M31.18,9.51l2.14,2.14L14.12,30.86,12,28.71,31.18,9.51m0-1.13L10.84,28.71,14.12,32,34.46,11.65,31.18,8.37Z" fill="#ff5a19"/></g></g></svg>
