<svg xmlns="http://www.w3.org/2000/svg" width="60" height="60" viewBox="0 0 60 60"><title>мытье посуды</title><g id="Слой_2" data-name="Слой 2"><g id="Слой_1-2" data-name="Слой 1"><rect width="60" height="60" fill="none"/><polygon points="35.28 26.68 38.72 29.42 37.05 32.3 33.53 33.88 35.28 26.68" fill="#ffffff" fill-rule="evenodd"/><polygon points="31.7 8 32.26 10.65 34.91 11.22 32.27 11.78 31.7 14.43 31.13 11.78 28.48 11.22 31.13 10.65 31.7 8" fill="#ff5a19"/><polygon points="23.99 14.37 24.55 17.02 27.21 17.59 24.55 18.15 23.99 20.8 23.43 18.15 20.77 17.59 23.43 17.02 23.99 14.37" fill="#ff5a19"/><polygon points="23.25 30.12 23.82 32.77 26.46 33.34 23.82 33.9 23.25 36.55 22.69 33.9 20.03 33.34 22.69 32.77 23.25 30.12" fill="#ffffff"/><path d="M32.67,49.48a14.44,14.44,0,1,1,2.62-23.37" fill="#ffffff" stroke="#263239" stroke-linecap="round" stroke-miterlimit="10" fill-rule="evenodd"/><path d="M32.67,43.46a9.64,9.64,0,1,1,1.85-10.35" fill="none" stroke="#263239" stroke-miterlimit="10" stroke-width="0.8" fill-rule="evenodd"/><path d="M42.21,22.2V20.41h2a3.5,3.5,0,1,0-7,0h2V22.2" fill="#ffffff" stroke="#263239" stroke-miterlimit="10" stroke-width="0.8" fill-rule="evenodd"/><path d="M38,28.17v3.38s-5.3,2.23-5.3,3.41V49.87A2.14,2.14,0,0,0,34.8,52H46.65a2.13,2.13,0,0,0,2.14-2.13V35c0-1.18-5.3-3.41-5.3-3.41V28.17" fill="#ffffff" stroke="#263239" stroke-linecap="round" stroke-miterlimit="10" fill-rule="evenodd"/><rect x="33.15" y="38.14" width="15.12" height="8.07" fill="#ffffff"/><rect x="35.29" y="22.2" width="10.88" height="6.02" rx="1.54" ry="1.54" fill="#ffffff" stroke="#263239" stroke-linecap="round" stroke-miterlimit="10"/><line x1="32.66" y1="38.23" x2="48.79" y2="38.23" fill="none" stroke="#ff5a19" stroke-miterlimit="10" stroke-width="0.8"/><line x1="37.86" y1="31.72" x2="43.59" y2="31.72" fill="none" stroke="#263239" stroke-miterlimit="10" stroke-width="0.8"/><line x1="32.66" y1="46.56" x2="48.79" y2="46.56" fill="none" stroke="#ff5a19" stroke-miterlimit="10" stroke-width="0.8"/></g></g></svg>
