<svg xmlns="http://www.w3.org/2000/svg" width="60" height="60" viewBox="0 0 60 60"><title>стиральная машина </title><g id="Слой_2" data-name="Слой 2"><g id="Слой_1-2" data-name="Слой 1"><rect width="60" height="60" fill="none"/><rect x="11.26" y="5.22" width="37.68" height="46.65" fill="#ffffff"/><path d="M11,12.44l14.39.07a2.19,2.19,0,0,0,2.19-2.19V5.14l-13.19,0s-1.77-.17-2.48.55A4.74,4.74,0,0,0,11,8Z" fill="#ffffff" stroke="#263239" stroke-linecap="round" stroke-miterlimit="10" stroke-width="0.8"/><path d="M18,52.43a2.68,2.68,0,0,1-5.35,0" fill="#ffffff" stroke="#263239" stroke-miterlimit="10" stroke-width="0.8"/><path d="M47.07,52.43a2.68,2.68,0,1,1-5.35,0" fill="#ffffff" stroke="#263239" stroke-miterlimit="10" stroke-width="0.8"/><rect x="11.06" y="5.17" width="37.94" height="47.26" rx="2.19" ry="2.19" fill="none" stroke="#263239" stroke-linecap="round" stroke-miterlimit="10"/><line x1="11.06" y1="14.57" x2="49" y2="14.57" fill="none" stroke="#263239" stroke-linecap="round" stroke-miterlimit="10" stroke-width="0.8"/><line x1="11.06" y1="47.86" x2="49" y2="47.86" fill="none" stroke="#263239" stroke-linecap="round" stroke-miterlimit="10" stroke-width="0.8"/><circle cx="30.03" cy="31.12" r="11.39" fill="#ffffff" stroke="#ff5a19" stroke-linecap="round" stroke-miterlimit="10"/><path d="M35.24,31.12a6.16,6.16,0,0,1,1.82-4.38,8.29,8.29,0,1,0,0,8.77A6.16,6.16,0,0,1,35.24,31.12Z" fill="#ffffff" stroke="#ff5a19" stroke-linecap="round" stroke-miterlimit="10" stroke-width="0.8"/><circle cx="33.29" cy="9.98" r="1.28" fill="#263239"/><circle cx="36.99" cy="9.98" r="0.88" fill="#ffffff"/><path d="M37,9.5a.48.48,0,1,1-.48.48A.48.48,0,0,1,37,9.5m0-.8A1.28,1.28,0,1,0,38.27,10,1.28,1.28,0,0,0,37,8.7Z" fill="#263239"/><circle cx="40.69" cy="9.98" r="0.88" fill="#ffffff"/><path d="M40.69,9.5a.48.48,0,1,1-.48.48.48.48,0,0,1,.48-.48m0-.8A1.28,1.28,0,1,0,42,10,1.28,1.28,0,0,0,40.69,8.7Z" fill="#263239"/><circle cx="44.39" cy="9.98" r="0.88" fill="#ffffff"/><path d="M44.39,9.5a.48.48,0,1,1-.48.48.48.48,0,0,1,.48-.48m0-.8A1.28,1.28,0,1,0,45.67,10,1.28,1.28,0,0,0,44.39,8.7Z" fill="#263239"/></g></g></svg>
