<svg xmlns="http://www.w3.org/2000/svg" width="60" height="60" viewBox="0 0 60 60"><title>ковер_2</title><g id="Слой_2" data-name="Слой 2"><g id="Слой_1-2" data-name="Слой 1"><rect width="60" height="60" fill="none"/><line x1="4.87" y1="10.73" x2="55.09" y2="10.73" fill="none" stroke="#263239" stroke-linecap="round" stroke-miterlimit="10" stroke-width="0.8"/><line x1="4.87" y1="13.5" x2="55.09" y2="13.5" fill="none" stroke="#263239" stroke-linecap="round" stroke-miterlimit="10" stroke-width="0.8"/><line x1="4.87" y1="16.27" x2="55.09" y2="16.27" fill="none" stroke="#263239" stroke-linecap="round" stroke-miterlimit="10" stroke-width="0.8"/><line x1="4.87" y1="19.04" x2="55.09" y2="19.04" fill="none" stroke="#263239" stroke-linecap="round" stroke-miterlimit="10" stroke-width="0.8"/><line x1="4.87" y1="21.81" x2="55.09" y2="21.81" fill="none" stroke="#263239" stroke-linecap="round" stroke-miterlimit="10" stroke-width="0.8"/><line x1="4.87" y1="24.58" x2="55.09" y2="24.58" fill="none" stroke="#263239" stroke-linecap="round" stroke-miterlimit="10" stroke-width="0.8"/><line x1="4.87" y1="27.34" x2="55.09" y2="27.34" fill="none" stroke="#263239" stroke-linecap="round" stroke-miterlimit="10" stroke-width="0.8"/><line x1="4.87" y1="30.11" x2="55.09" y2="30.11" fill="none" stroke="#263239" stroke-linecap="round" stroke-miterlimit="10" stroke-width="0.8"/><line x1="4.87" y1="32.88" x2="55.09" y2="32.88" fill="none" stroke="#263239" stroke-linecap="round" stroke-miterlimit="10" stroke-width="0.8"/><line x1="4.87" y1="35.65" x2="55.09" y2="35.65" fill="none" stroke="#263239" stroke-linecap="round" stroke-miterlimit="10" stroke-width="0.8"/><line x1="4.87" y1="38.42" x2="55.09" y2="38.42" fill="none" stroke="#263239" stroke-linecap="round" stroke-miterlimit="10" stroke-width="0.8"/><line x1="4.87" y1="41.19" x2="55.09" y2="41.19" fill="none" stroke="#263239" stroke-linecap="round" stroke-miterlimit="10" stroke-width="0.8"/><line x1="4.87" y1="43.96" x2="55.09" y2="43.96" fill="none" stroke="#263239" stroke-linecap="round" stroke-miterlimit="10" stroke-width="0.8"/><line x1="4.87" y1="46.73" x2="55.09" y2="46.73" fill="none" stroke="#263239" stroke-linecap="round" stroke-miterlimit="10" stroke-width="0.8"/><line x1="4.87" y1="49.5" x2="55.09" y2="49.5" fill="none" stroke="#263239" stroke-linecap="round" stroke-miterlimit="10" stroke-width="0.8"/><rect x="7.74" y="10.58" width="44.53" height="39.06" fill="#ffffff" stroke="#263239" stroke-linecap="round" stroke-miterlimit="10"/><rect x="12.85" y="10.58" width="2.11" height="39.02" fill="#ffffff" stroke="#ff5a19" stroke-linecap="round" stroke-miterlimit="10" stroke-width="0.8"/><rect x="45.32" y="10.47" width="2.11" height="39.23" fill="#ffffff" stroke="#ff5a19" stroke-linecap="round" stroke-miterlimit="10" stroke-width="0.8"/></g></g></svg>
