<svg xmlns="http://www.w3.org/2000/svg" width="60" height="60" viewBox="0 0 60 60"><title>размывка-полов</title><g id="Слой_2" data-name="Слой 2"><g id="Слой_1-2" data-name="Слой 1"><rect width="60" height="60" fill="none"/><path d="M46,6.34H39.94a1.38,1.38,0,0,0-1.38,1.38V33.39h1.19v-24H46A1.38,1.38,0,0,0,47.41,8V7.73A1.38,1.38,0,0,0,46,6.34Z" fill="#ffffff" stroke="#263239" stroke-linejoin="round" stroke-width="0.8"/><path d="M30.13,32.09c.37-1.67.63-3.22,2.14-3.22h7.49v3" fill="#ffffff" stroke="#ff5a19" stroke-linejoin="round" stroke-width="0.79"/><path d="M39.7,45V30.74h-8c-.92,0-1.28.82-1.66,1.66-2.56,5.7-4.37,10.11-4.37,10.11-.79,0-6.18,5.14-7.62,6.52h-4.7a.79.79,0,0,0-.79.79v2.54a.79.79,0,0,0,.79.79H38" fill="#ffffff" stroke="#263239" stroke-linejoin="round"/><line x1="39.7" y1="42.78" x2="25.48" y2="42.78" fill="none" stroke="#263239" stroke-linecap="round" stroke-linejoin="round" stroke-width="0.8"/><line x1="18.07" y1="49.14" x2="34.69" y2="49.14" fill="none" stroke="#263239" stroke-linecap="round" stroke-linejoin="round" stroke-width="0.8"/><circle cx="38.79" cy="49.03" r="4.63" fill="#ffffff" stroke="#ff5a19" stroke-linejoin="round"/><circle cx="38.79" cy="49.03" r="2.24" fill="#ffffff" stroke="#ff5a19" stroke-linecap="round" stroke-linejoin="round" stroke-width="0.8"/></g></g></svg>
