<svg xmlns="http://www.w3.org/2000/svg" width="60" height="60" viewBox="0 0 60 60"><title>мытье-стен</title><g id="Слой_2" data-name="Слой 2"><g id="Слой_1-2" data-name="Слой 1"><rect width="60" height="60" fill="none"/><polygon points="18.98 14.36 10.8 22.5 28.85 40.9 46.85 23.35 35.17 11.6 18.98 14.36" fill="#ffffff" stroke="#263239" stroke-linejoin="round" stroke-width="0.8"/><path d="M45.27,35.92,45,31l-2.21-3.49-2.59,2.4-7.24-6.79A1.87,1.87,0,0,0,31,22.94a1.57,1.57,0,0,0-.49,1.73l-1.2-1.05s-1.26-.3-1.8.38-.56,1.59.59,2.85a2.34,2.34,0,0,0-1.64.56,1.66,1.66,0,0,0,.11,2.4,11.68,11.68,0,0,0,1.46,1.43s-1.28.19-1.61.82a1.57,1.57,0,0,0,.34,2.06L41.16,48.51a7.87,7.87,0,0,0,4.48-1.91A14.19,14.19,0,0,0,49,42l.56-2Z" fill="#ffffff"/><path d="M29.12,41.56a.52.52,0,0,0,.38-.16l2.29-2.29a.54.54,0,0,0-.76-.76l-1.91,1.91L11.49,22.64,19.15,15,34.88,12,46.12,23.27l-3.86,3.87a.53.53,0,0,0,0,.75.54.54,0,0,0,.76,0l4.24-4.24a.56.56,0,0,0,.16-.38.54.54,0,0,0-.16-.38L35.44,11.08a.52.52,0,0,0-.48-.14L18.79,14a.48.48,0,0,0-.28.15l-8.15,8.15a.54.54,0,0,0,0,.76L28.74,41.41A.53.53,0,0,0,29.12,41.56Z" fill="#ff5a19"/><path d="M40.88,49h.06a12.09,12.09,0,0,0,8.77-8.86.43.43,0,0,0-.29-.4.27.27,0,0,0-.31.22A14.65,14.65,0,0,1,46.18,45a10.87,10.87,0,0,1-5.43,3.16c-.15,0-.18.46-.14.6A.27.27,0,0,0,40.88,49Z" fill="#263239"/><path d="M41,49.07a.54.54,0,0,0,.39-.91c-.06-.05-5.64-5.81-7.69-7.86L27,33.61a1,1,0,0,1,1.41-1.41.54.54,0,1,0,.76-.76h0L27,29.21a1,1,0,0,1,0-1.41,1,1,0,0,1,1.23-.14.54.54,0,0,0,.71-.12.53.53,0,0,0,0-.71l-1-1a1,1,0,0,1,.71-1.7h0a1,1,0,0,1,.7.29l1.26,1.26a.53.53,0,0,0,.75,0,.54.54,0,0,0,.16-.38.52.52,0,0,0-.16-.38A1,1,0,1,1,32.7,23.5l7,6.91a.54.54,0,0,0,.75,0l2.07-2.06a3.84,3.84,0,0,1,1.58,2,20.72,20.72,0,0,1,.5,5.69.54.54,0,0,0,.16.4l4,4.09a.53.53,0,0,0,.76,0,.54.54,0,0,0,0-.76l-3.88-3.92A20.82,20.82,0,0,0,45.16,30a4.51,4.51,0,0,0-2.58-2.83.53.53,0,0,0-.52.14l-1.95,1.93-6.67-6.53a2.06,2.06,0,0,0-2.92,0,2,2,0,0,0-.52.89A2,2,0,0,0,28.57,23h0a2.07,2.07,0,0,0-1.51,3.49,2.11,2.11,0,0,0-.84.51,2.07,2.07,0,0,0,0,2.93l.94.94a2.07,2.07,0,0,0-.89,3.45L33,41.06c2,2,7.62,7.79,7.68,7.85A.52.52,0,0,0,41,49.07Z" fill="#263239"/><path d="M35.51,30.43a.54.54,0,0,0,.38-.92l-4.57-4.57a.54.54,0,1,0-.76.76l4.57,4.57A.54.54,0,0,0,35.51,30.43Z" fill="#263239"/><path d="M33.67,32.92A.53.53,0,0,0,34,32l-5.17-5.17a.54.54,0,0,0-.76.76l5.17,5.17A.54.54,0,0,0,33.67,32.92Z" fill="#263239"/><path d="M31.76,35.29a.54.54,0,0,0,.38-.92L29.3,31.53a.54.54,0,0,0-.75.76l2.84,2.84A.52.52,0,0,0,31.76,35.29Z" fill="#263239"/><path d="M27.32,21.75a.28.28,0,0,0,.21-.1l8.06-9.7a.27.27,0,0,0-.42-.35l-7.89,9.5L19,14.36a.27.27,0,0,0-.38,0,.27.27,0,0,0,0,.38l8.51,6.9A.28.28,0,0,0,27.32,21.75Z" fill="#ff5a19"/><path d="M41.94,32.39a.54.54,0,0,0,.38-.92L40.5,29.64a.54.54,0,1,0-.76.76l1.82,1.82A.54.54,0,0,0,41.94,32.39Z" fill="#263239"/><path d="M40.51,27a.26.26,0,0,0,.25-.18c0-.13.2-1-.91-4.61S35.2,14.79,35,14.64a.26.26,0,0,0-.38,0,.27.27,0,0,0,0,.38s3.57,3.75,4.68,7.4.91,4.28.91,4.31a.28.28,0,0,0,.19.32Z" fill="#ff5a19"/><path d="M37.3,22.8h0a.27.27,0,0,0,.23-.31c-.77-4.51-2.81-5.89-2.9-5.94a.26.26,0,0,0-.37.08.27.27,0,0,0,.07.37s1.94,1.33,2.67,5.59A.27.27,0,0,0,37.3,22.8Z" fill="#ff5a19"/></g></g></svg>
