<svg xmlns="http://www.w3.org/2000/svg" width="60" height="60" viewBox="0 0 60 60"><title>люстра_1</title><g id="Слой_2" data-name="Слой 2"><g id="Слой_1-2" data-name="Слой 1"><rect width="60" height="60" fill="none"/><path d="M30.18,51.22h0" fill="none" stroke="#263239" stroke-linecap="round" stroke-miterlimit="10" stroke-width="1.48"/><path d="M27.85,51.1c-7.46-.78-11.62-5.3-12.12-11" fill="none" stroke="#263239" stroke-linecap="round" stroke-miterlimit="10" stroke-width="1.48" stroke-dasharray="0.08 2.3"/><path d="M15.68,39v0" fill="none" stroke="#263239" stroke-linecap="round" stroke-miterlimit="10" stroke-width="1.48"/><path d="M28,48.89l0,0" fill="none" stroke="#263239" stroke-linecap="round" stroke-miterlimit="10" stroke-width="1.48"/><path d="M26,47.6c-2-1.46-3.23-3.32-3.43-7.42" fill="none" stroke="#263239" stroke-linecap="round" stroke-miterlimit="10" stroke-width="1.48" stroke-dasharray="0.08 2.34"/><path d="M22.52,39v0" fill="none" stroke="#263239" stroke-linecap="round" stroke-miterlimit="10" stroke-width="1.48"/><line x1="30.18" y1="48.15" x2="30.18" y2="36.72" fill="none" stroke="#263239" stroke-linecap="round" stroke-miterlimit="10" stroke-width="1.48" stroke-dasharray="0.07 2.22"/><line x1="30.18" y1="34.27" x2="30.18" y2="10.45" fill="none" stroke="#263239" stroke-linecap="round" stroke-miterlimit="10" stroke-width="1.48" stroke-dasharray="0.07 2.22"/><path d="M30.18,51.22h0" fill="none" stroke="#263239" stroke-linecap="round" stroke-miterlimit="10" stroke-width="1.48"/><path d="M32.52,51.1c7.46-.78,11.62-5.3,12.12-11" fill="none" stroke="#263239" stroke-linecap="round" stroke-miterlimit="10" stroke-width="1.48" stroke-dasharray="0.08 2.3"/><path d="M44.69,39v0" fill="none" stroke="#263239" stroke-linecap="round" stroke-miterlimit="10" stroke-width="1.48"/><path d="M14.3,33.57h0" fill="none" stroke="#263239" stroke-linecap="round" stroke-miterlimit="10" stroke-width="1.48"/><path d="M16.38,32.93c6.67-2.93,9.2-13,9.44-20.19" fill="none" stroke="#263239" stroke-linecap="round" stroke-miterlimit="10" stroke-width="1.48" stroke-dasharray="0.07 2.15"/><path d="M25.84,11.66v0" fill="none" stroke="#263239" stroke-linecap="round" stroke-miterlimit="10" stroke-width="1.48"/><path d="M21.61,33.57h0" fill="none" stroke="#263239" stroke-linecap="round" stroke-miterlimit="10" stroke-width="1.48"/><path d="M23.52,32.71c2.94-2.81,4.55-12,4.68-20" fill="none" stroke="#263239" stroke-linecap="round" stroke-miterlimit="10" stroke-width="1.48" stroke-dasharray="0.07 2.12"/><path d="M28.21,11.69v0" fill="none" stroke="#263239" stroke-linecap="round" stroke-miterlimit="10" stroke-width="1.48"/><path d="M46.08,33.57h0" fill="none" stroke="#263239" stroke-linecap="round" stroke-miterlimit="10" stroke-width="1.48"/><path d="M44,32.92c-6.55-2.94-9-13-9.26-20.19" fill="none" stroke="#263239" stroke-linecap="round" stroke-miterlimit="10" stroke-width="1.48" stroke-dasharray="0.07 2.14"/><path d="M34.74,11.66v0" fill="none" stroke="#263239" stroke-linecap="round" stroke-miterlimit="10" stroke-width="1.48"/><path d="M38.9,33.57h0" fill="none" stroke="#263239" stroke-linecap="round" stroke-miterlimit="10" stroke-width="1.48"/><path d="M36.85,32.54c-2.77-3-4.3-11.86-4.44-19.68" fill="none" stroke="#263239" stroke-linecap="round" stroke-miterlimit="10" stroke-width="1.48" stroke-dasharray="0.08 2.32"/><path d="M32.4,11.69v0" fill="none" stroke="#263239" stroke-linecap="round" stroke-miterlimit="10" stroke-width="1.48"/><path d="M32.4,48.89l0,0" fill="none" stroke="#263239" stroke-linecap="round" stroke-miterlimit="10" stroke-width="1.48"/><path d="M34.39,47.6c2-1.46,3.23-3.32,3.43-7.42" fill="none" stroke="#263239" stroke-linecap="round" stroke-miterlimit="10" stroke-width="1.48" stroke-dasharray="0.08 2.34"/><path d="M37.85,39v0" fill="none" stroke="#263239" stroke-linecap="round" stroke-miterlimit="10" stroke-width="1.48"/><path d="M47.18,37.1A1.87,1.87,0,0,1,45.32,39H14.68a1.87,1.87,0,0,1-1.87-1.86h0a1.86,1.86,0,0,1,1.87-1.87H45.32a1.86,1.86,0,0,1,1.86,1.87Z" fill="#ffffff" stroke="#ff5a19" stroke-linecap="round" stroke-miterlimit="10"/><path d="M25.83,9a4.54,4.54,0,0,1,8.71,0Z" fill="#ffffff"/><path d="M30.18,6.48a3.79,3.79,0,0,1,3.22,1.78H27a3.79,3.79,0,0,1,3.22-1.78m0-1.48a5.28,5.28,0,0,0-5.25,4.73h10.5A5.28,5.28,0,0,0,30.18,5Z" fill="#ff5a19"/><circle cx="30.18" cy="53.66" r="1.34" fill="#263239"/><rect width="60" height="60" fill="none"/></g></g></svg>
