<svg xmlns="http://www.w3.org/2000/svg" width="60" height="60" viewBox="0 0 60 60"><title>почасовая-работа</title><g id="Слой_2" data-name="Слой 2"><g id="Слой_1-2" data-name="Слой 1"><rect width="60" height="60" fill="none"/><path d="M15.57,29.28c-.62,0-1.12-1.37-1.12-3.05s.5-3.05,1.12-3.05" fill="#ffffff" stroke="#263239" stroke-linecap="round" stroke-linejoin="round" stroke-width="0.5" fill-rule="evenodd"/><polyline points="23.81 40.29 23.81 30.3 26.24 30.3 26.24 40.29" fill="#ffffff" stroke="#263239" stroke-miterlimit="10"/><path d="M22.93,47.57V42.09A2.09,2.09,0,0,1,25,40h0a2.09,2.09,0,0,1,2.09,2.09v5.48" fill="#ffffff" stroke="#263239" stroke-linecap="round" stroke-miterlimit="10"/><path d="M14.22,50H35.83a.8.8,0,0,1,.8.8v1.31a.81.81,0,0,1-.81.81H14.22a.8.8,0,0,1-.8-.8V50.81A.81.81,0,0,1,14.22,50Z" fill="#ffffff" stroke="#263239" stroke-miterlimit="10"/><path d="M15.88,49.4a1.85,1.85,0,0,1,1.86-1.85H32.32a1.85,1.85,0,0,1,1.85,1.85" fill="#ffffff" stroke="#263239" stroke-linecap="round" stroke-miterlimit="10"/><path d="M23.81,22.1V8.3A1.22,1.22,0,0,1,25,7.08h0A1.22,1.22,0,0,1,26.24,8.3V22.09" fill="#ffffff" stroke="#263239" stroke-miterlimit="10"/><path d="M15.53,29s2.35-.39,3,.05a8.14,8.14,0,0,0,4,1.21h3.66a.83.83,0,0,0,.83-.83v-.18a.82.82,0,0,0-.83-.83H27a1,1,0,0,0,1-1V27.3a1,1,0,0,0-1-1h.17a1,1,0,0,0,1-1v-.21a1,1,0,0,0-1-1h-.59a1,1,0,0,0,1.07-1v-.21a1,1,0,0,0-1.07-1L23.32,22V20.11a1.21,1.21,0,0,0-1.45.19l-3.46,3.2-2.89-.05" fill="#ffffff" stroke="#263239" stroke-linecap="round" stroke-linejoin="round" fill-rule="evenodd"/><circle cx="39.63" cy="35.56" r="0.82" fill="#ffffff"/><path d="M28.68,35.55a11,11,0,1,1,11,11A10.95,10.95,0,0,1,28.68,35.55Z" fill="#ffffff" stroke="#ff5a19" stroke-linecap="round" stroke-miterlimit="10"/><path d="M30.56,35.55a9.07,9.07,0,1,1,9.07,9.08A9.07,9.07,0,0,1,30.56,35.55Z" fill="#ffffff" stroke="#ff5a19" stroke-miterlimit="10" stroke-width="0.5"/><line x1="39.63" y1="35.56" x2="39.63" y2="28.17" fill="none" stroke="#263239" stroke-linecap="round" stroke-miterlimit="10"/><line x1="39.43" y1="35.56" x2="35.5" y2="33.29" fill="none" stroke="#263239" stroke-linecap="round" stroke-miterlimit="10"/><circle cx="33.39" cy="35.56" r="0.4" fill="#263239"/><circle cx="45.88" cy="35.56" r="0.4" fill="#263239"/><circle cx="39.63" cy="29.31" r="0.4" fill="#263239"/><circle cx="39.63" cy="41.8" r="0.4" fill="#263239"/><circle cx="34.22" cy="38.67" r="0.4" transform="translate(-14.72 22.21) rotate(-29.9)" fill="#263239"/><circle cx="45.04" cy="32.44" r="0.4" transform="translate(-10.18 26.81) rotate(-29.94)" fill="#263239"/><circle cx="36.52" cy="30.15" r="0.4" transform="translate(-10.17 22.26) rotate(-29.95)" fill="#263239"/><circle cx="42.75" cy="40.97" r="0.4" transform="translate(-14.73 26.78) rotate(-29.92)" fill="#263239"/><circle cx="36.51" cy="40.96" r="0.4" transform="translate(-17.22 52.1) rotate(-60)" fill="#263239"/><circle cx="42.75" cy="30.15" r="0.4" transform="translate(-4.73 52.11) rotate(-60.01)" fill="#263239"/><circle cx="34.23" cy="32.43" r="0.4" transform="translate(-10.97 45.87) rotate(-60.02)" fill="#263239"/><circle cx="45.04" cy="38.68" r="0.4" transform="translate(-10.97 58.35) rotate(-60.01)" fill="#263239"/></g></g></svg>
