<svg xmlns="http://www.w3.org/2000/svg" width="60" height="60" viewBox="0 0 60 60"><title>жалюзи_1</title><g id="Слой_2" data-name="Слой 2"><g id="Слой_1-2" data-name="Слой 1"><rect width="60" height="60" fill="none"/><rect x="8.35" y="7.5" width="43.29" height="1.95" fill="#ffffff" stroke="#263239" stroke-linejoin="round" stroke-width="0.88"/><rect x="8.35" y="10.23" width="43.29" height="3.56" fill="#ffffff" stroke="#263239" stroke-linejoin="round" stroke-width="0.8"/><rect x="8.35" y="13.73" width="43.29" height="3.56" fill="#ffffff" stroke="#263239" stroke-linejoin="round" stroke-width="0.8"/><rect x="8.35" y="17.23" width="43.29" height="3.56" fill="#ffffff" stroke="#263239" stroke-linejoin="round" stroke-width="0.8"/><rect x="8.35" y="20.73" width="43.29" height="3.56" fill="#ffffff" stroke="#263239" stroke-linejoin="round" stroke-width="0.8"/><rect x="8.35" y="24.23" width="43.29" height="3.56" fill="#ffffff" stroke="#263239" stroke-linejoin="round" stroke-width="0.8"/><rect x="8.35" y="27.73" width="43.29" height="3.56" fill="#ffffff" stroke="#263239" stroke-linejoin="round" stroke-width="0.8"/><rect x="8.35" y="31.23" width="43.29" height="3.56" fill="#ffffff" stroke="#263239" stroke-linejoin="round" stroke-width="0.8"/><rect x="8.35" y="34.73" width="43.29" height="3.56" fill="#ffffff" stroke="#263239" stroke-linejoin="round" stroke-width="0.8"/><rect x="8.35" y="38.23" width="43.29" height="3.56" fill="#ffffff" stroke="#263239" stroke-linejoin="round" stroke-width="0.8"/><rect x="8.35" y="41.73" width="43.29" height="3.56" fill="#ffffff" stroke="#263239" stroke-linejoin="round" stroke-width="0.8"/><rect x="8.35" y="45.23" width="43.29" height="3.56" fill="#ffffff" stroke="#263239" stroke-linejoin="round" stroke-width="0.8"/><rect x="8.35" y="48.73" width="43.29" height="3.56" fill="#ffffff" stroke="#263239" stroke-linejoin="round" stroke-width="0.8"/><line x1="11.66" y1="7.5" x2="11.66" y2="52.5" fill="none" stroke="#263239" stroke-miterlimit="10" stroke-width="0.8"/><line x1="48.4" y1="7.5" x2="48.4" y2="52.26" fill="none" stroke="#263239" stroke-miterlimit="10" stroke-width="0.8"/><rect x="6.03" y="7.77" width="2.22" height="2.28" fill="#ffffff" stroke="#ff5a19" stroke-linejoin="round" stroke-width="1.09"/><rect x="51.75" y="7.77" width="2.21" height="2.51" fill="#ffffff" stroke="#263239" stroke-linejoin="round" stroke-width="1.14"/><rect x="6.01" y="7.42" width="48.2" height="2.82" fill="#ffffff" stroke="#ff5a19" stroke-linejoin="round"/><line x1="53.54" y1="10.45" x2="53.54" y2="43.61" fill="none" stroke="#ff5a19" stroke-linejoin="round" stroke-width="0.8"/><circle cx="53.57" cy="44.24" r="0.83" fill="none" stroke="#ff5a19" stroke-linejoin="round" stroke-width="0.8"/></g></g></svg>
