<svg xmlns="http://www.w3.org/2000/svg" width="60" height="60" viewBox="0 0 60 60"><title>кухонные-полки_3</title><g id="Слой_2" data-name="Слой 2"><g id="Слой_1-2" data-name="Слой 1"><rect width="60" height="60" fill="none"/><path d="M22.25,53.48v1.77a1.38,1.38,0,0,1-1.38,1.38h0a1.38,1.38,0,0,1-1.38-1.38V53.48" fill="#ffffff" stroke="#263239" stroke-linejoin="round" stroke-width="0.5"/><path d="M41.85,53.48v1.77a1.38,1.38,0,0,1-1.38,1.38h0a1.38,1.38,0,0,1-1.38-1.38V53.48" fill="#ffffff" stroke="#263239" stroke-linejoin="round" stroke-width="0.5"/><path d="M44.42,36.67H15.58a2.08,2.08,0,0,0-2.08,2.08v12.8a2.08,2.08,0,0,0,2.08,2.08H44.42a2.08,2.08,0,0,0,2.08-2.08V38.75A2.08,2.08,0,0,0,44.42,36.67Z" fill="#ffffff" stroke="#263239" stroke-linejoin="round"/><line x1="30.02" y1="36.54" x2="30.02" y2="53.19" fill="none" stroke="#263239" stroke-miterlimit="10" stroke-width="0.5"/><path d="M37.82,36.82V28.44a2.59,2.59,0,1,0-5.18,0v1.84" fill="none" stroke="#ff5a19" stroke-linejoin="round"/><path d="M44.31,33.8a.92.92,0,0,1-.92.92h-2.7a.92.92,0,0,1-.92-.92h0a.92.92,0,0,1,.92-.92h2.7a.92.92,0,0,1,.92.92Z" fill="#ffffff" stroke="#ff5a19" stroke-linejoin="round" stroke-width="0.8"/><path d="M35.45,33.8a.92.92,0,0,1-.92.92h-2.7a.92.92,0,0,1-.92-.92h0a.92.92,0,0,1,.92-.92h2.7a.92.92,0,0,1,.92.92Z" fill="#ffffff" stroke="#ff5a19" stroke-linejoin="round" stroke-width="0.8"/><line x1="42.03" y1="36.82" x2="42.03" y2="34.95" fill="none" stroke="#ff5a19" stroke-linejoin="round" stroke-width="1.26"/><line x1="33.18" y1="36.82" x2="33.18" y2="34.95" fill="none" stroke="#ff5a19" stroke-linejoin="round" stroke-width="1.26"/><line x1="30.02" y1="42.66" x2="13.5" y2="42.66" fill="none" stroke="#263239" stroke-miterlimit="10" stroke-width="0.5"/><line x1="30.02" y1="47.77" x2="13.5" y2="47.77" fill="none" stroke="#263239" stroke-miterlimit="10" stroke-width="0.5"/><circle cx="34.05" cy="41.49" r="1.14" fill="#263239"/><path d="M17.73,4.41H42.43a2,2,0,0,1,2,2V17.26a2,2,0,0,1-2,2H17.73a2,2,0,0,1-2-2V6.44A2,2,0,0,1,17.73,4.41Z" fill="#ffffff" stroke="#263239" stroke-linejoin="round"/><line x1="30.4" y1="4.72" x2="30.4" y2="19.24" fill="none" stroke="#263239" stroke-miterlimit="10" stroke-width="0.5"/><circle cx="33.48" cy="15.89" r="1.11" fill="#263239"/><circle cx="27.12" cy="15.89" r="1.11" fill="#263239"/></g></g></svg>
