<svg xmlns="http://www.w3.org/2000/svg" width="62.39" height="58.5" viewBox="0 0 62.39 58.5">
  <title>недостатки</title>
  <rect x="29.97" y="43.06" width="4.56" height="10.5" rx="1.11" ry="1.11" style="fill: #ff8300;stroke: #682f24;stroke-linejoin: round"/>
  <rect x="55.17" y="43.06" width="4.56" height="10.5" rx="1.11" ry="1.11" style="fill: #dce1e2;stroke: #682f24;stroke-linejoin: round"/>
  <rect x="28.34" y="0.75" width="33.3" height="50.58" rx="2.8" ry="2.8" style="fill: #e3ddd3;stroke: #692f17;stroke-linecap: round;stroke-linejoin: round;stroke-width: 1.5px"/>
  <line x1="28.34" y1="8.76" x2="61.64" y2="8.76" style="fill: none;stroke: #692f17;stroke-linejoin: round;stroke-width: 0.699999988079071px"/>
  <line x1="44.99" y1="0.75" x2="44.99" y2="51.33" style="fill: none;stroke: #692f17;stroke-linejoin: round;stroke-width: 0.699999988079071px"/>
  <circle cx="41.52" cy="28.49" r="1.48" style="fill: #692f17"/>
  <circle cx="48.37" cy="28.49" r="1.48" style="fill: #692f17"/>
  <rect x="0.75" y="8.76" width="22.19" height="27.29" style="fill: #fff;stroke: #692f17;stroke-linecap: round;stroke-linejoin: round;stroke-width: 1.5px"/>
  <line x1="11.85" y1="8.76" x2="11.85" y2="36.05" style="fill: none;stroke: #692f17;stroke-linejoin: round;stroke-width: 0.699999988079071px"/>
  <line x1="11.85" y1="19.12" x2="22.94" y2="19.12" style="fill: none;stroke: #692f17;stroke-linejoin: round;stroke-width: 0.699999988079071px"/>
  <g>
    <path d="M734.49,116V97.42s10.35-2,15.64,6.18c5,7.7-1.76,19.6-1.76,19.6h-11" transform="translate(-708.66 -65.53)" style="fill: #f08119;stroke: #692f17;stroke-linejoin: round;stroke-width: 1.5px;fill-rule: evenodd"/>
    <ellipse cx="28.22" cy="53.59" rx="4.14" ry="4.09" style="fill: #f8f4eb;stroke: #692f17;stroke-miterlimit: 10;stroke-width: 1.5px"/>
    <ellipse cx="28.22" cy="53.59" rx="2.38" ry="2.35" style="fill: #f7f5f2;stroke: #692f17;stroke-linejoin: round;stroke-width: 0.699999988079071px"/>
    <path d="M742.92,98.07a10.92,10.92,0,0,0-3,7.48,11.1,11.1,0,0,0,11.17,11" transform="translate(-708.66 -65.53)" style="fill: none;stroke: #692f17;stroke-linejoin: round;fill-rule: evenodd"/>
    <path d="M720.34,118.49h2.35l4.92-30.54c0.59-2.73,2-4.43,4.48-4.43a4.46,4.46,0,0,1,4.48,4.43V95.2h2.35V87.94a6.79,6.79,0,0,0-6.82-6.75c-3.76,0-6.09,2.75-6.83,6.75Z" transform="translate(-708.66 -65.53)" style="fill: #f8f4eb;stroke: #692f17;stroke-linecap: round;stroke-linejoin: round"/>
    <path d="M740,97.21h0a2,2,0,0,0-2-2h-0.69a2,2,0,0,0-2,2h0" transform="translate(-708.66 -65.53)" style="fill: #f8f4eb;stroke: #692f17;stroke-linejoin: round;stroke-width: 2px"/>
    <path d="M714.12,120.45h2.63a1.82,1.82,0,0,1,1.81-1.58h5.91a1.82,1.82,0,0,1,1.81,1.58h2.63a0.78,0.78,0,0,1,.79.78v1.27a0.78,0.78,0,0,1-.79.78H714.12a0.78,0.78,0,0,1-.79-0.78v-1.27A0.78,0.78,0,0,1,714.12,120.45Z" transform="translate(-708.66 -65.53)" style="fill: #f8f4eb;stroke: #692f17;stroke-miterlimit: 10;stroke-width: 1.5px"/>
    <line x1="18.01" y1="55.15" x2="7.79" y2="55.15" style="fill: #e2ddd3;stroke: #692f17;stroke-linejoin: round"/>
    <polygon points="15.18 46.18 14.03 53.34 11.68 53.34 12.83 46.18 15.18 46.18" style="fill: #f8f4eb;stroke: #692f17;stroke-linejoin: round;stroke-width: 1.5px"/>
  </g>
</svg>
