<svg xmlns="http://www.w3.org/2000/svg" width="51.02" height="58.5" viewBox="0 0 51.02 58.5">
  <title>Календарь)</title>
  <rect x="0.75" y="0.75" width="49.52" height="57" rx="2.91" ry="2.91" style="fill: #f7f5f2;stroke: #692f17;stroke-miterlimit: 10;stroke-width: 1.5px"/>
  <path d="M994.81,68.7h-43.7a2.91,2.91,0,0,0-2.91,2.91v5.11h49.52V71.61A2.91,2.91,0,0,0,994.81,68.7Z" transform="translate(-947.45 -67.41)" style="fill: #f08119;stroke: #692f17;stroke-linejoin: round;stroke-width: 1.5px"/>
  <path d="M954.61,78.08a1.54,1.54,0,0,1-1.54,1.54h0a1.54,1.54,0,0,1-1.54-1.54v-4.2a1.54,1.54,0,0,1,1.54-1.54h0a1.54,1.54,0,0,1,1.54,1.54v4.2Z" transform="translate(-947.45 -67.41)" style="fill: #f7f5f2;stroke: #682f24;stroke-miterlimit: 10;stroke-width: 0.699999988079071px"/>
  <path d="M994.12,78.08a1.54,1.54,0,0,1-1.54,1.54h0A1.54,1.54,0,0,1,991,78.08v-4.2a1.54,1.54,0,0,1,1.54-1.54h0a1.54,1.54,0,0,1,1.54,1.54v4.2Z" transform="translate(-947.45 -67.41)" style="fill: #f7f5f2;stroke: #682f24;stroke-miterlimit: 10;stroke-width: 0.699999988079071px"/>
  <rect x="5.92" y="23.9" width="4.17" height="4.17" rx="1.01" ry="1.01" style="fill: #e2ddd3"/>
  <rect x="11.77" y="23.9" width="4.17" height="4.17" rx="1.01" ry="1.01" style="fill: #e2ddd3"/>
  <rect x="17.61" y="23.9" width="4.18" height="4.17" rx="1.01" ry="1.01" style="fill: #e2ddd3"/>
  <rect x="23.46" y="23.9" width="4.18" height="4.17" rx="1.01" ry="1.01" style="fill: #e2ddd3"/>
  <rect x="29.31" y="23.9" width="4.17" height="4.17" rx="1.01" ry="1.01" style="fill: #e2ddd3"/>
  <rect x="35.15" y="23.9" width="4.17" height="4.17" rx="1.01" ry="1.01" style="fill: #e7c3a0"/>
  <rect x="41" y="23.9" width="4.17" height="4.17" rx="1.01" ry="1.01" style="fill: #e7c3a0"/>
  <rect x="5.92" y="29.85" width="4.17" height="4.18" rx="1.01" ry="1.01" style="fill: #e2ddd3"/>
  <rect x="11.77" y="29.85" width="4.17" height="4.18" rx="1.01" ry="1.01" style="fill: #e2ddd3"/>
  <rect x="17.61" y="29.85" width="4.18" height="4.18" rx="1.01" ry="1.01" style="fill: #e2ddd3"/>
  <rect x="23.46" y="29.85" width="4.18" height="4.18" rx="1.01" ry="1.01" style="fill: #e2ddd3"/>
  <rect x="29.31" y="29.85" width="4.17" height="4.18" rx="1.01" ry="1.01" style="fill: #e2ddd3"/>
  <rect x="35.15" y="29.85" width="4.17" height="4.18" rx="1.01" ry="1.01" style="fill: #e7c3a0"/>
  <rect x="41" y="29.85" width="4.17" height="4.18" rx="1.01" ry="1.01" style="fill: #e7c3a0"/>
  <rect x="5.92" y="35.74" width="4.17" height="4.17" rx="1.01" ry="1.01" style="fill: #e2ddd3"/>
  <rect x="11.77" y="35.74" width="4.17" height="4.17" rx="1.01" ry="1.01" style="fill: #e2ddd3"/>
  <rect x="17.61" y="35.74" width="4.18" height="4.17" rx="1.01" ry="1.01" style="fill: #e2ddd3"/>
  <rect x="23.46" y="35.74" width="4.18" height="4.17" rx="1.01" ry="1.01" style="fill: #e2ddd3"/>
  <rect x="29.31" y="35.74" width="4.17" height="4.17" rx="1.01" ry="1.01" style="fill: #e2ddd3"/>
  <rect x="35.15" y="35.74" width="4.17" height="4.17" rx="1.01" ry="1.01" style="fill: #e7c3a0"/>
  <rect x="41" y="35.74" width="4.17" height="4.17" rx="1.01" ry="1.01" style="fill: #e7c3a0"/>
  <rect x="5.92" y="41.69" width="4.17" height="4.18" rx="1.01" ry="1.01" style="fill: #e2ddd3"/>
  <rect x="11.77" y="41.69" width="4.17" height="4.18" rx="1.01" ry="1.01" style="fill: #e2ddd3"/>
  <rect x="17.61" y="41.69" width="4.18" height="4.18" rx="1.01" ry="1.01" style="fill: #e2ddd3"/>
  <rect x="23.46" y="41.69" width="4.18" height="4.18" rx="1.01" ry="1.01" style="fill: #e2ddd3"/>
  <rect x="29.31" y="41.69" width="4.17" height="4.18" rx="1.01" ry="1.01" style="fill: #e2ddd3"/>
  <rect x="35.15" y="41.69" width="4.17" height="4.18" rx="1.01" ry="1.01" style="fill: #e7c3a0"/>
  <rect x="41" y="41.69" width="4.17" height="4.18" rx="1.01" ry="1.01" style="fill: #e7c3a0"/>
  <rect x="5.92" y="47.15" width="4.17" height="4.17" rx="1.01" ry="1.01" style="fill: #e2ddd3"/>
  <rect x="11.77" y="47.15" width="4.17" height="4.17" rx="1.01" ry="1.01" style="fill: #e2ddd3"/>
  <rect x="17.61" y="47.15" width="4.18" height="4.17" rx="1.01" ry="1.01" style="fill: #e2ddd3"/>
  <path d="M993.25,85.8a1.75,1.75,0,0,1-1.75,1.75H955.61a1.75,1.75,0,0,1-1.75-1.75h0A1.75,1.75,0,0,1,955.61,84H991.5a1.75,1.75,0,0,1,1.75,1.75h0Z" transform="translate(-947.45 -67.41)" style="fill: #e2ddd3"/>
</svg>
