<svg xmlns="http://www.w3.org/2000/svg" width="72.57" height="57.75" viewBox="0 0 72.57 57.75">
  <title>Иконки (500р.)</title>
  <g>
    <path d="M1083.2,88.44a4.29,4.29,0,0,0-6.53-3.67l0-.21a5.92,5.92,0,0,0-11.72,1.12h-0.11a3.72,3.72,0,0,0-6.2,2.77l0,0,0,0h24.6Z" transform="translate(-1020.16 -66)" style="fill: #f8f4eb"/>
    <path d="M1074.6,88.44a4.3,4.3,0,1,1,8.6,0" transform="translate(-1020.16 -66)" style="fill: none;stroke: #692f17;stroke-miterlimit: 10"/>
    <path d="M1058.59,88.44a3.72,3.72,0,0,1,6.31-2.68" transform="translate(-1020.16 -66)" style="fill: none;stroke: #692f17;stroke-miterlimit: 10"/>
    <path d="M1065.54,88.44a5.93,5.93,0,1,1,11.09-3.88" transform="translate(-1020.16 -66)" style="fill: none;stroke: #692f17;stroke-miterlimit: 10"/>
    <circle cx="44.21" cy="11.9" r="1.93" style="fill: #f8f4eb;stroke: #692f17;stroke-miterlimit: 10"/>
    <path d="M1086.77,88.44h-31.9a1.18,1.18,0,0,0-1.18,1.18v1.45a1.19,1.19,0,0,0,1.18,1.18h1.57l1.61,23.63a3.3,3.3,0,0,0,3.3,3.29h18.94a3.3,3.3,0,0,0,3.29-3.29l1.62-23.63h1.57a1.19,1.19,0,0,0,1.18-1.18V89.62A1.18,1.18,0,0,0,1086.77,88.44Z" transform="translate(-1020.16 -66)" style="fill: #f08119;stroke: #692f17;stroke-miterlimit: 10;stroke-width: 1.5px;fill-rule: evenodd"/>
    <line x1="35.76" y1="25.85" x2="65.03" y2="25.85" style="fill: none;stroke: #692f17;stroke-linejoin: round;stroke-width: 0.699999988079071px"/>
    <circle cx="47.8" cy="26.38" r="2.19" style="fill: #692f17"/>
    <path d="M1067.82,91.85s7.16,18.52,16.83,16.61c6.91-1.36.54-13.55,0.54-13.55" transform="translate(-1020.16 -66)" style="fill: none;stroke: #692f17;stroke-linejoin: round;stroke-width: 1.5px"/>
  </g>
  <g>
    <g>
      <rect x="22.48" y="0.75" width="3.69" height="3.68" style="fill: #edb004"/>
      <path d="M1045.59,67.5v2.18h-2.19V67.5h2.19m0.84-1.5h-3.87a0.66,0.66,0,0,0-.66.66v4.52h5.19V66.66a0.66,0.66,0,0,0-.66-0.66h0Z" transform="translate(-1020.16 -66)" style="fill: #682f24"/>
    </g>
    <g>
      <path d="M1045.52,107.21a2.89,2.89,0,0,1-2.88-2.89V70.84h3.78c0.28,2,1.82,7.73,10.5,10.45,2.78,0.87,3.1,2.08,3.1,2.92v20.11a2.89,2.89,0,0,1-2.88,2.89h-11.63Z" transform="translate(-1020.16 -66)" style="fill: #e7c3a0"/>
      <path d="M1045.8,71.59c0.53,2.52,2.63,7.83,10.9,10.41,2.58,0.8,2.58,1.82,2.58,2.21v20.11a2.14,2.14,0,0,1-2.13,2.14h-11.63a2.14,2.14,0,0,1-2.13-2.14V71.59h2.41m1.31-1.5h-5.21a0.83,0.83,0,0,0,0,.11v34.12a3.63,3.63,0,0,0,3.63,3.64h11.63a3.63,3.63,0,0,0,3.63-3.64V84.21c0-2-1.72-3-3.63-3.64-9.92-3.1-10-10.38-10-10.38s0-.07,0-0.11h0Z" transform="translate(-1020.16 -66)" style="fill: #682f24"/>
    </g>
  </g>
  <g>
    <path d="M1029,73.89a6.66,6.66,0,0,1-2.19,5.49,21.7,21.7,0,0,1-2.89,2l0.45,0.48a12.62,12.62,0,0,0,4.9-2.78c2.62-2.62,2.15-5.22,2.15-5.22H1029Z" transform="translate(-1020.16 -66)" style="fill: #f8f4eb;stroke: #692f17;stroke-miterlimit: 10;stroke-width: 0.699999988079071px"/>
    <rect x="3.97" y="4.57" width="3.04" height="2.67" rx="0.42" ry="0.42" style="fill: #e7c3a0;stroke: #692f17;stroke-miterlimit: 10;stroke-width: 0.699999988079071px"/>
    <path d="M1043.7,90.67a8.77,8.77,0,1,0-17.54,0s0,0,0,.06,0,0,0,.05v14.44a3.64,3.64,0,0,0,3.64,3.64h10.26a3.64,3.64,0,0,0,3.64-3.64V90.78s0,0,0-.05S1043.7,90.69,1043.7,90.67Z" transform="translate(-1020.16 -66)" style="fill: #dce1e2;stroke: #692f17;stroke-miterlimit: 10;stroke-width: 1.5px"/>
    <path d="M1038.72,70.09H1027a0.88,0.88,0,0,0-.87.88V73a0.88,0.88,0,0,0,.87.88h4.43l1.58,4.65a0.61,0.61,0,0,0-.56.61v3.12h4.89V79.16a0.62,0.62,0,0,0-.62-0.62h0V73.89h2a0.88,0.88,0,0,0,.87-0.88V71A0.87,0.87,0,0,0,1038.72,70.09Z" transform="translate(-1020.16 -66)" style="fill: #f8f4eb;stroke: #692f17;stroke-linecap: round;stroke-linejoin: round;stroke-width: 1.5px"/>
  </g>
  <path d="M1024.47,100.83l2.76,17.48a3.4,3.4,0,0,0,3.4,3.4H1058a3.4,3.4,0,0,0,3.4-3.4l2.76-17.48h-39.73Z" transform="translate(-1020.16 -66)" style="fill: #e2ddd3;stroke: #682f24;stroke-linecap: round;stroke-linejoin: round;stroke-width: 1.5px"/>
  <path d="M1.92,29.78H46.43a1.16,1.16,0,0,1,1.16,1.16v2.71a1.16,1.16,0,0,1-1.16,1.16H1.92A1.17,1.17,0,0,1,.75,33.66V30.95A1.17,1.17,0,0,1,1.92,29.78Z" style="fill: #e2ddd3;stroke: #682f24;stroke-linecap: round;stroke-linejoin: round;stroke-width: 1.5px"/>
  <g>
    <path d="M1044.56,95.78l-4.26,4.69s0,3.77-.84,5.48c-0.5,1-2.57,5.91-4.55,4.85-1.08-.58,1.28-5.33,1.28-5.33l-6.86,6.74a1.39,1.39,0,1,1-2-2l-1.14,1.14a1.39,1.39,0,0,1-2-2l0.92-.92a1.39,1.39,0,0,1-1.72-2.16l2-2a1.39,1.39,0,0,1-2-2l6.07-6.07c1.88-1.87,1.36-1.37,1.36-1.37a25.93,25.93,0,0,1,7.58-.67C1043.15,94.62,1044.56,95.78,1044.56,95.78Z" transform="translate(-1020.16 -66)" style="fill: #fde9d3;stroke: #682f24;stroke-linecap: round;stroke-linejoin: round;stroke-width: 0.699999988079071px;fill-rule: evenodd"/>
    <line x1="7.23" y1="44.22" x2="11.37" y2="40.08" style="fill: #fde9d3;stroke: #682f24;stroke-linecap: round;stroke-linejoin: round;stroke-width: 0.699999988079071px"/>
    <line x1="5.02" y1="42.5" x2="9.7" y2="37.82" style="fill: #fde9d3;stroke: #682f24;stroke-linecap: round;stroke-linejoin: round;stroke-width: 0.699999988079071px"/>
    <line x1="5.4" y1="38.24" x2="7.97" y2="35.67" style="fill: #fde9d3;stroke: #682f24;stroke-linecap: round;stroke-linejoin: round;stroke-width: 0.699999988079071px"/>
    <line x1="15.55" y1="39.96" x2="17.2" y2="38.3" style="fill: #fde9d3;stroke: #682f24;stroke-linecap: round;stroke-linejoin: round;stroke-width: 0.699999988079071px"/>
  </g>
  <g>
    <path d="M1042.44,95l-0.05,1.8s-2.57,2.76-3.14,4.57c-0.34,1.07-2.2,6-.09,6.54,1.16,0.29,2.73-4.75,2.73-4.75l0.26,9.45a1.31,1.31,0,0,0,1.39,1.29,1.42,1.42,0,0,0,1.34-1.44l0,1.58a1.31,1.31,0,0,0,1.39,1.29,1.43,1.43,0,0,0,1.34-1.44l0-1.28a1.3,1.3,0,0,0,1.35,1,1.43,1.43,0,0,0,1.34-1.44l-0.05-2.8a1.31,1.31,0,0,0,1.39,1.29,1.42,1.42,0,0,0,1.34-1.44l-0.16-8.43c-0.05-2.61,0-5.9,0-5.9a20.46,20.46,0,0,0-5-.38A27.14,27.14,0,0,0,1042.44,95Z" transform="translate(-1020.16 -66)" style="fill: #fde9d3;stroke: #682f24;stroke-linecap: round;stroke-linejoin: round;stroke-width: 0.699999988079071px;fill-rule: evenodd"/>
    <line x1="24.71" y1="46.43" x2="24.6" y2="40.67" style="fill: #fde9d3;stroke: #682f24;stroke-linecap: round;stroke-linejoin: round;stroke-width: 0.699999988079071px"/>
    <line x1="27.45" y1="46.63" x2="27.32" y2="40.11" style="fill: #fde9d3;stroke: #682f24;stroke-linecap: round;stroke-linejoin: round;stroke-width: 0.699999988079071px"/>
    <line x1="30.08" y1="43.26" x2="30.01" y2="39.68" style="fill: #fde9d3;stroke: #682f24;stroke-linecap: round;stroke-linejoin: round;stroke-width: 0.699999988079071px"/>
    <line x1="21.73" y1="37.84" x2="21.69" y2="35.54" style="fill: #fde9d3;stroke: #682f24;stroke-linecap: round;stroke-linejoin: round;stroke-width: 0.699999988079071px"/>
  </g>
  <line x1="16.91" y1="12.98" x2="12.11" y2="12.98" style="fill: none;stroke: #692f17;stroke-miterlimit: 10"/>
  <g>
    <path d="M1083.24,103.75v2.73s-4.29,1.8-4.29,2.75v12a1.73,1.73,0,0,0,1.73,1.72h9.58a1.72,1.72,0,0,0,1.73-1.72v-12c0-1-4.29-2.75-4.29-2.75v-2.73" transform="translate(-1020.16 -66)" style="fill: #fee9d4;stroke: #692f17;stroke-miterlimit: 10;stroke-width: 1.5px;fill-rule: evenodd"/>
    <rect x="60.9" y="33.32" width="8.8" height="4.86" rx="1.25" ry="1.25" style="fill: #f8f4eb;stroke: #692f17;stroke-linecap: round;stroke-linejoin: round;stroke-width: 1.5px"/>
    <path d="M1086.66,99.32V97.87h1.63a2.83,2.83,0,1,0-5.66,0h1.63v1.45" transform="translate(-1020.16 -66)" style="fill: #f8f4eb;stroke: #692f17;stroke-linecap: round;stroke-linejoin: round;fill-rule: evenodd"/>
    <line x1="62.99" y1="40.61" x2="67.61" y2="40.61" style="fill: #fde9d3;stroke: #692f17;stroke-miterlimit: 10;stroke-width: 0.699999988079071px"/>
    <g>
      <rect x="59.13" y="46.22" width="12.33" height="6.03" style="fill: #f7f5f2"/>
      <path d="M1091.28,112.58v5.33h-11.63v-5.33h11.63m0.7-.7h-13v6.73h13v-6.73h0Z" transform="translate(-1020.16 -66)" style="fill: #692f17"/>
    </g>
  </g>
</svg>
