<svg xmlns="http://www.w3.org/2000/svg" xmlns:xlink="http://www.w3.org/1999/xlink" data-name="Слой 1" viewBox="0 0 303.18 296.56">
  <defs><radialGradient id="a" cx="420.77" cy="358.15" r="6.53" data-name="Безымянный градиент 4" gradientTransform="matrix(.28 1.16 -.76 .26 454.76 -227.32)" gradientUnits="userSpaceOnUse"><stop offset=".42" stop-color="#f7c5b1" stop-opacity=".65"/><stop offset=".49" stop-color="#f7c5b1" stop-opacity=".61"/><stop offset=".62" stop-color="#f7c4b0" stop-opacity=".49"/><stop offset=".79" stop-color="#f7c4ae" stop-opacity=".29"/><stop offset=".98" stop-color="#f7c3ac" stop-opacity=".03"/><stop offset="1" stop-color="#f7c3ac" stop-opacity="0"/></radialGradient><radialGradient id="b" cx="406.16" cy="466.17" r="6.53" gradientTransform="matrix(-1.16 .28 -.26 -.76 927.28 596.2)" xlink:href="#a"/></defs><text fill="#692f23" transform="translate(128.65 240.82)" font-size="13" font-family="Helvetica Neue LT W1G">Заказ</text><text fill="#692f23" transform="translate(123.37 286.85)" font-size="13" font-family="Helvetica Neue LT W1G">500 <tspan x="25.3" y="0">р</tspan><tspan x="32.85" y="0">у</tspan><tspan x="39.35" y="0">б</tspan><tspan x="46.5" y="0">лей</tspan></text><path fill="#f9e5cc" d="M174.16 25.28c-.25-.29-1.31-1-1.44-.12a17.82 17.82 0 0 1-.94 3.12c-.2.49-.53 1.31-.57.49s-.62-2.91-.57-3.2-.53-2.17-.57-2.62-5-2.83-5.58-3.61-3.65-3.61-3.73-4.55a11 11 0 0 1-4.18 4.18c-2.54 1.19-6.89 2.5-8.45 2.38a31.93 31.93 0 0 0-4.18.12 7.25 7.25 0 0 1-2.62 1.15 7.22 7.22 0 0 0-2.34.82l-.82 3.65-.16 5.49s-.06.46-.1 1.11a3.58 3.58 0 0 1-.64 1c-.2.08-1.23-2.91-1.23-2.91s-.78-4.35-1.52-4-1.72.33-1.44 1.44.86 3.85 1.19 4.84 1.35 3.57 2 3.61a15.89 15.89 0 0 0 2 .25h.14a44.61 44.61 0 0 0 3.18 6.15 32.75 32.75 0 0 0 4 4.72.59.59 0 0 0 .06.36s.29 4.88.29 5.66a14.56 14.56 0 0 1-1.31 3.32s1.07 2.05 1.93 3.57 2.5 2.62 5.08 3.9a16.75 16.75 0 0 1 4.63 3.69 6.62 6.62 0 0 0 .94-1.44c.33-.74 2.21-1.85 2.5-2.05a22.39 22.39 0 0 0 2.75-3.49 13.74 13.74 0 0 0 .74-3.24c.08-.16-1-3.36-1.15-4.63a21.86 21.86 0 0 1 .37-4.31l-.17.12c.63-.66 1-1.24 1.45-1.71a62.74 62.74 0 0 0 4.43-6.36c.33-.82 2.87-6.72 3.36-7.13s.29-.12 1.15-1.56 1-4.31 1.39-5.13a5.48 5.48 0 0 0 .13-3.08z"/><path fill="#fff" d="M144.06 30.45a7.49 7.49 0 0 1 1.56-.78 9 9 0 0 1 1.68-.12 9.12 9.12 0 0 0 1.52 0 2.25 2.25 0 0 1 .94-.29 2.35 2.35 0 0 1 .7.66 1 1 0 0 1 .33.78.49.49 0 0 1-.21.41c-.12 0-.41.25-.57.25s-.62.29-.82.33a7 7 0 0 1-1.07.25 6.58 6.58 0 0 1-1.23.12 5.07 5.07 0 0 1-1.23-.08 5.87 5.87 0 0 0-.78-.37zm15.13.65a9.49 9.49 0 0 1 1.85-1.31 6.89 6.89 0 0 1 1.68-.21c.33 0 1.27.12 1.39.12a1.8 1.8 0 0 1 .82.29 4.47 4.47 0 0 1 .57.86.43.43 0 0 1 0 .49 2.55 2.55 0 0 1-.82.49 3.56 3.56 0 0 1-1.52.33c-.74-.08-2-.25-2-.25s-1.8-.45-2-.57-.17-.07.03-.24z"/><path fill="#d3d2d3" d="M160.81 29.8a2.23 2.23 0 0 0 0 1.39 1.8 1.8 0 0 0 1 .7 2.45 2.45 0 0 0 1.09-.06 1.67 1.67 0 0 0 .79-.51 1.93 1.93 0 0 0 .36-.77 1.73 1.73 0 0 0-.26-.6.62.62 0 0 0-.38-.38 14.69 14.69 0 0 0-1.73-.06 1 1 0 0 0-.87.29zm-11.83-.15a1.55 1.55 0 0 1-.28 1.28 1.92 1.92 0 0 1-1.2 1 3 3 0 0 1-1.56-.83 5.55 5.55 0 0 1-.26-1.69 6.66 6.66 0 0 1 1.17-.13c.26 0 1.64.11 1.64.11a.68.68 0 0 1 .49.26z"/><path fill="#f7bc16" d="M162.97 3.3c-.16-.16-2.09-2-7.79-2.54a25.74 25.74 0 0 0-11.81 1.85c-.86.45-5 3.28-5.9 4.43a35.15 35.15 0 0 0-3.57 7.59c-.45 1.85-1 6.81-.74 8.45s1 4.59 1 4.59a1 1 0 0 1 1 .62c.41.7.57.37.7 0s-.45 2.17.16 3.49 1.23 2.91 1.23 2.91.37.29.37.16.74-8.32.74-8.49.78-2.91.9-3.12a31.6 31.6 0 0 1 3.24-.74c.29-.12 1.68-1 1.68-1s6.15-.25 7.38-.7 5.41-1.39 6.36-2.42 3.24-3.85 3.24-3.85a7.31 7.31 0 0 0 1.15 2.58c.9 1.27 5.78 3.94 6.56 4.84a13.25 13.25 0 0 0 1.44 1.19 9.49 9.49 0 0 0-.21 3.16 8.83 8.83 0 0 0 1.11 2.75l.9-.62s.16-3.2 1.48-4.51c.51-.51-1.35-14.06-2.13-15.29s-3.36-4.8-5.08-5a11.36 11.36 0 0 0-3.28.12z"/><path fill="#f6c966" d="M161.41 8.03s-.33.57-1.93.45a15 15 0 0 0-8.12.57 25.8 25.8 0 0 0-8.16 4c-.49.45-.29.82 1.11.29a67.84 67.84 0 0 1 11.85-3.08c3.65-.37 3.77 0 3.77 0a14.67 14.67 0 0 1-3.49 3.16c-2 1.23-7.5 3.2-9.72 3.28a28.55 28.55 0 0 0 4.31.29 43.55 43.55 0 0 0 6.27-1.72 28.5 28.5 0 0 0 3.28-1.8 13.77 13.77 0 0 0 1-1.19c.12-.16.78-1.52.78-1.52a24.34 24.34 0 0 1 3.73 2.05 13.85 13.85 0 0 1 3.81 4.43s-.25-3.65-2.26-5.25a14.44 14.44 0 0 0-4.67-2.3h.66s-.94-2.87.57-3.44 5.45.7 7.5 5.08c0 0-1.48-5.78-3-6.52s-3.73-1.39-4.59-1.19-1.72-1-1.85-1.19A16.49 16.49 0 0 0 156.44.5a42.75 42.75 0 0 0-11.07 1.27c-1.85.7-4 1.27-4.76 2.05a36.9 36.9 0 0 0-4.59 5.86c-.66 1.44-1 1.35-1.31 2.58s-1.52 4.43-1.27 5.9a12.7 12.7 0 0 1 .16 2.67 17.52 17.52 0 0 1 3-8.08c2.79-4 8.69-7.83 13.24-8.36s11.28-.57 12.3.49-.73 3.15-.73 3.15z"/><path fill="#e8eaf7" d="M145.46 49.88s-4.35 4.15-4.65 4.88-4.47 3.65-5.62 4-4.92.82-7.05 2.62-6.19 10.87-6.81 13.08-3.12 13.9-3.2 14.06-2.54 9.23-2.38 10.25a7.22 7.22 0 0 0 1.07 3.61c.9 1.19 4.1 5.33 6.89 7s5.08 3.12 6.77 3.36 4.76.41 4.76.41a1.11 1.11 0 0 0 .57 1.27c.82.45 7.38 1.8 11.89 2.21s13.74.82 14.1.66 7.71-1.07 9.14-1.44a20.77 20.77 0 0 0 4.18-1.39c.94-.53 3.08 4.92 3.28 4.47 0 0 10.91-4.22 13-14.6 0 0-2.87-17.84-2.83-18.08s-2.46-16-2.46-16-2.71-6.93-3.57-8.24a13.24 13.24 0 0 0-4.84-3.69c-1.56-.66-9.14-3.32-9.23-3.44s-3.4-3.61-3.77-3.94-1.85-1.48-1.85-1.48a1.33 1.33 0 0 0-.86 1.35c.08 1-.62 3 .29 4.88s1.48 2.75 1.15 3.53-1.07 4.06-2.62 5.49a38.13 38.13 0 0 1-3.36 2.71l-1.39 2.34c-.12.21-1.27-1.89-2.46-2.62s-3.69-2-3.77-2.09-4.39-4.43-4.72-5.29a7.7 7.7 0 0 1-.33-2.21 2.76 2.76 0 0 0 1-2.09 37.44 37.44 0 0 0-.32-5.58z"/><path fill="#f9e5cc" d="M149.64 101.75s.41-1.35.78-1.31a12.91 12.91 0 0 0 1.68.74c.49 0 3.54.25 4.69-.61a5.89 5.89 0 0 0 2.2-4c.16-1.64.53-3.44 1.27-3.65s1.15.29 1.39 1.89a31.26 31.26 0 0 1 .08 4.67 4.22 4.22 0 0 0 2.26.45c1.72 0 2.54.41 2.3 1.07a1.2 1.2 0 0 0-.08.94 1.8 1.8 0 0 1 1.15 1.48 5.67 5.67 0 0 1-.21 1.64 1.43 1.43 0 0 1 .21 1.39 3.34 3.34 0 0 1-.94 1.39l-.61.19s1.19 0 .7.94a3.28 3.28 0 0 1-1.7 1.76 25.8 25.8 0 0 1-5.37.7 58.87 58.87 0 0 1-6.4-1c-.16-.08-2.5-.25-2.83-.29s-.98-4-.57-8.39z"/><path fill="#fd8204" d="M135.29 120.24l.06-3a4.23 4.23 0 0 1-.43-1.48 8.35 8.35 0 0 1 .37-1.78 7.85 7.85 0 0 0 3 1.35c1.72.37 9.84 2 15.62 1.72s11.32-.18 13.22-.49 6.93-1.35 8-2.09a29.72 29.72 0 0 0 2.62-2.15 10.11 10.11 0 0 1-.06 3.32 1.87 1.87 0 0 0 .12 1.29 17.88 17.88 0 0 1 .51 2.67s-4.88 6.29-22.06 6.15c-20.33-.18-20.97-5.51-20.97-5.51z"/><path fill="#f2af72" d="M136.58 117.41a76 76 0 0 0 12.79 2.62c5.54.43 12.67.68 16.85-.18s8.73-2.09 9.84-2.71a5.33 5.33 0 0 0 1.91-2.71 9.36 9.36 0 0 0-.62-2s-1.66 2.46-6.77 3.38-11.75 1.91-18.64 1.11-11.56-.92-13.22-1.54-3.44-1.41-3.44-1.41a2.07 2.07 0 0 0-.43 1.54c.25.62-.12 1.17 1.48 1.78s.25.12.25.12z"/><g fill="#692f23"><path d="M163.27 25.03l-2.65-.06a.81.81 0 0 0-.83.52c-.16.39.37.72 1.09.86a7.78 7.78 0 0 0 2.71-.16 21.79 21.79 0 0 1 2.62-.48 2.83 2.83 0 0 1 1.27.19s.29.21.08-.19a2 2 0 0 0-.92-.79c-.21-.06-3.37.11-3.37.11zm-20.89 1.82a4.79 4.79 0 0 1 1.78-.86c.83-.18 4.15-.55 4.71-.55s1.48-.09 1.69.37-.13.55-.34.63a7.05 7.05 0 0 1-1.88.41c-.74 0-2.65-.15-3.41-.15a12.51 12.51 0 0 0-2.28.4c-.24.09-.46.15-.27-.25zm24.05 4.06a13.28 13.28 0 0 0-1.5-1.78 11.86 11.86 0 0 0-2.73-.2 6.06 6.06 0 0 0-1.62.27 6.66 6.66 0 0 0-1.7 1.82c-.49.68 0 .76.25.78s1.31.29 1.31.29l.41.1a11.11 11.11 0 0 0 1.48.32 5.17 5.17 0 0 0 2.13-.33c.45-.23 1.5-.7 1.5-.7a1.32 1.32 0 0 0 .47-.57zm-5.82.67l-.85-.26c-.36-.1-.61-.08-.48-.25a4.73 4.73 0 0 1 .84-.55 1.08 1.08 0 0 0 .34.62c.35.26.28.4.14.44zm2.3-.1a1.43 1.43 0 0 1-1.82-.36 1.27 1.27 0 0 1-.24-1 1 1 0 0 1 .13-.27c.22-.12.48 0 .44.23a.79.79 0 0 0 .84 1 .82.82 0 0 0 .8-.9.25.25 0 0 1 .11-.16.35.35 0 0 1 .44.26 1 1 0 0 1-.71 1.2zm.79.29c-.5.12.17-.15.38-.72a1.66 1.66 0 0 0-.07-1.29 3.85 3.85 0 0 1 1.48 1.2.36.36 0 0 1-.18.23 15.68 15.68 0 0 1-1.62.58zm-13.2-2.52a1.9 1.9 0 0 0-1.41-.45c-.31 0-2.42.18-2.94.2a2.66 2.66 0 0 0-1.27.25 9 9 0 0 0-1.7 1.31.92.92 0 0 0 .51.64 6.55 6.55 0 0 0 1 .66h.07a11.21 11.21 0 0 0 1.14.44 11.35 11.35 0 0 0 2.07 0c.34-.11.85-.33 1.12-.45a6.48 6.48 0 0 1 1.81-.49.64.64 0 0 0 .68-.4 3.84 3.84 0 0 0-1.08-1.71zm-5.38 2.06a1.53 1.53 0 0 1-.59-.44 1.65 1.65 0 0 1 .76-1.09.82.82 0 0 1 .3-.13 1.47 1.47 0 0 0 .31 1.71 1.13 1.13 0 0 1-.78-.05zm2.71.24a1.93 1.93 0 0 1-1.15-.08 1.5 1.5 0 0 1-.74-1.17.91.91 0 0 1 .13-.64.47.47 0 0 1 .29-.05.31.31 0 0 1 .24.31.88.88 0 0 0 .66 1 .76.76 0 0 0 .92-.94.28.28 0 0 1 .51-.2 1.33 1.33 0 0 1-.14 1.17 1.9 1.9 0 0 1-.74.59zm2.28-.5c-.18.1-1.46.54-1.46.54a2.46 2.46 0 0 0 .52-.62 3 3 0 0 0 .1-1.55 2 2 0 0 1 1.23 1.36 2.53 2.53 0 0 1-.39.25zm4.12 7.44a6.1 6.1 0 0 0 2.11 0c1-.12 1.39-.21 1.39-.21s.49 0 0 .41a4.31 4.31 0 0 1-2.54.88 3.34 3.34 0 0 1-2.3-1.17s-.21-.25.35-.12zm-5.91 3.65a.63.63 0 0 1 .45-.8 2.55 2.55 0 0 1 1.73.62c.47.29.72.57 3.14.88a11.25 11.25 0 0 0 5.23-.51 26 26 0 0 0 2.44-1.44c.16-.12.14-.25.35-.21a.86.86 0 0 1 .6.39.54.54 0 0 1 0 .66 4.21 4.21 0 0 1-.74.12c-.31.06-2.52 1.32-3.75 1.66a10.21 10.21 0 0 1-6.93-.33 12.19 12.19 0 0 0-1.8-1.15c-.31 0-.31.46-.72.11zm4.82 3.32s1.77.12 2.48.1a7.93 7.93 0 0 0 2.15-.35c.22-.09.88-.25.88-.25s.51.08 0 .37a10.64 10.64 0 0 1-2 1.07 9.89 9.89 0 0 1-2.28.12 8.47 8.47 0 0 1-2.58-.9c-.27-.14-.25-.41.49-.29a8 8 0 0 0 .86.13z"/><path d="M174.81 24.92a1.34 1.34 0 0 0-1-.93c.34-.49.37-4.12.18-5.6s-.4-6.3-2.68-10.39-4.24-4.52-5.75-4.86-1.88.22-1.88.22l-.28-.22a14.24 14.24 0 0 0-3.29-1.94c-2.06-.92-5.17-1.38-9.56-1.14a21.52 21.52 0 0 0-11.62 4.97c-1.74 1.64-3.07 3-4.82 7.52s-1.85 8-1.32 10.3l1.11 4.89.07-.06a.64.64 0 0 1-.53.3 1.25 1.25 0 0 0-.92 1.08c-.27 1 .62 3.4.65 3.59s1.54 3.82 1.54 3.82a5.18 5.18 0 0 0 1 1.51 21.46 21.46 0 0 0 2.12 1 11.32 11.32 0 0 1 1.51 2.72c.68 1.35 2.83 4.74 2.83 4.74l1.51 1.72s2.77 2 4.49 3.08a13.63 13.63 0 0 0 8.18 1.88 12.25 12.25 0 0 0 5.2-1.85c.37 0 .25 1.11.28 1.2a1.08 1.08 0 0 0 .23.27l.38-.23a5.27 5.27 0 0 1 .65-2.28 50.57 50.57 0 0 0 4.37-6.19 39 39 0 0 0 3.14-6.73c.52-1 1.88-1.6 2.52-3.08a19.68 19.68 0 0 0 .89-4.53c.12-.66.65-1.86.77-2.47a4.24 4.24 0 0 0 .03-2.31zm-12-20a2.8 2.8 0 0 1 1.18-.69 4.63 4.63 0 0 1 3.68.93 11.33 11.33 0 0 1 3.72 5.81c.22 1.32 1.6 7.69 1.75 9a30.87 30.87 0 0 1 0 3.91 12.07 12.07 0 0 1-.79 1.51c-.62 1-.46 3.61-.77 3s-1.2-4.77-1.2-4.77l.71.22a1.64 1.64 0 0 0-.77-1.51c-.92-.71-3-1.6-4.92-2.77s-2.83-3.66-3.11-4.24-.77-2.24-.31-1.78a22.24 22.24 0 0 0 3.55 2 7.23 7.23 0 0 1 1.68 1.2 4.85 4.85 0 0 0 1.26 1c.28 0 .06-.34-.15-.68a6 6 0 0 0-1.41-1.78c-.58-.34-2.83-1.08-3.94-1.78a2.34 2.34 0 0 1-.92-2.46c.09-.49.8-.83 1.85-.58a14.56 14.56 0 0 1 3.32 1.6c.28.22.58.09.46-.09a6.53 6.53 0 0 0-2.49-2 14.88 14.88 0 0 1-2.52-1c0-.12-.12-.83-.12-1a4.14 4.14 0 0 1 .28-.86c.09-.5-.22-1.88-.02-2.22zm-28.89 19.11a30 30 0 0 1 0-7.78 22.32 22.32 0 0 1 3.23-7.75 19.19 19.19 0 0 1 9.84-6.27c5.17-1.32 9-1.54 11.35-1s4.37 2.37 4.34 2.83a1.83 1.83 0 0 1-.49.74c-.12.34.09 1.35 0 1.88s-.52.4-1.69-.22a9.11 9.11 0 0 0-4.31-1.08c-1.48.06-.8.37-.71.34s1.11 0 1.11 0c1.6.15 4.83 2.06 5.07 2.61a4.25 4.25 0 0 1-.95 3.94c-1.32 1.54-4.83 3.32-8.77 4s-9.35-.43-10-.46a5.75 5.75 0 0 0-2 .31c-.34.15-1 .77-2.4 1.69s-.71.92-.25.77 2.18-1.54 2.86-1.81a5.09 5.09 0 0 1 3 .18 35.85 35.85 0 0 0 9.83 0 22.52 22.52 0 0 0 6.25-2.77c1.12-.71 1-.25 1-.25a9.25 9.25 0 0 1-2.64 4.06 17.55 17.55 0 0 1-6.7 2.49 61.31 61.31 0 0 1-6.75.68 29.18 29.18 0 0 1-3 1.1 13.93 13.93 0 0 1-5.1 0c-.45-.16-.74 0-.55.18s.79.73.79.73c-.32.36-.53 5.31-.53 5.31s-.17-.71-.13-.58a1.46 1.46 0 0 0-1.05-.81s-.22-1.06-.65-3.06zm3.2 13.16a3.11 3.11 0 0 1-1.43-1.54c-.13-.58-1.4-3.51-1.56-3.91a9 9 0 0 1-.55-2.61.54.54 0 0 1 .55-.4 1.38 1.38 0 0 1 1 1.06c.15.54 1.69 5.67 1.88 5.95s.42 1.56.11 1.5zm-.31-3.88c-.34-1.41-.87-3.89-.87-3.9.08.16.15.26.2.22a1.59 1.59 0 0 0 .31-1.22 38.44 38.44 0 0 1 .28-4.55c.12-.58.25-.62 1-.46s.65.55.65.55a9.41 9.41 0 0 0-.28 1.47c-.12 1-.34 5-.28 5.48s-.25 3.26-.25 3.26-.42.56-.76-.85zm33 3.38c-.4 2-2.8 6.3-3 6.67s-1.81 2.31-3.32 4.61-5 3.75-6.89 4a11.87 11.87 0 0 1-4.4-.22 45.86 45.86 0 0 1-4.46-2.09 17.25 17.25 0 0 1-4.8-4.12 57.94 57.94 0 0 1-4-6.92s-.92-3.2-1-3.66a15.33 15.33 0 0 1 .15-1.81c.09-.83.34-4.74.43-5.54a36.07 36.07 0 0 1 1.41-4.12c1 .09 5.2-1 7.93-1.35a25.47 25.47 0 0 0 8.83-2.92c3.51-1.75 4.34-3.6 4.34-3.6 1 2.92 4 4.92 5.14 5.57s3.6 2.15 3.66 2.28a27 27 0 0 0 .15 3 7.33 7.33 0 0 0 1.15 3.26 15.11 15.11 0 0 1-.32 1.55s-.6 3.44-1 5.41zm3.87-8.73a43.59 43.59 0 0 0-1.2 4.67 5.77 5.77 0 0 1-1 2.1c-.22.09-.46-.18-.46-.77a25 25 0 0 1 .46-2.71s.34-1.2.4-1.49a2 2 0 0 1 .31-.63 6.24 6.24 0 0 0 .25-1.81 14.48 14.48 0 0 1 .47-2c.6-.7.85-.1 1.19.7a2.09 2.09 0 0 1-.42 1.94z"/></g><path fill="#692f23" d="M173 77.74a1.94 1.94 0 0 0-.93 0 33 33 0 0 1-5.35.34c-1.45-.15-3.47-.39-3.66-.38s-.22.15-.18.44a2.92 2.92 0 0 1 0 .83v1.37a.82.82 0 0 0 .62.75 18.41 18.41 0 0 0 6.77.71c3.26-.34 2.71-1.91 2.71-1.91zm-.77 2.37s-.58 1-2.58 1-4.74-.11-6-.75v-1.75a47.6 47.6 0 0 0 5.06.34 16.49 16.49 0 0 0 3.54-.62v1.78z"/><path fill="#692f23" d="M191.93 103.35c-.25-.7-1.8-7.38-2.13-9.1s-.9-9.72-1.11-12.51a115.61 115.61 0 0 0-3.2-14.39c-.74-2.3-2.62-6.11-4.92-7.83s-7.54-2.42-8.9-3.16a16.6 16.6 0 0 1-4.72-3.17 11.06 11.06 0 0 0-2.5-2.77 14.18 14.18 0 0 0-1.48-.74l-.2.41a14.08 14.08 0 0 1 2.46 1.76 16.71 16.71 0 0 1 2.62 4.55 33.84 33.84 0 0 1 .57 7.54c-.21 2.3-.66 6-.66 6a32.61 32.61 0 0 0-3.24-1.72 15.73 15.73 0 0 0-4.59-1.35s-.82.12.12-.62a12.64 12.64 0 0 0 2.87-3.66 13.2 13.2 0 0 0 1-5.69s-.23-.66-.27.1a4 4 0 0 1-.18 1.13 11.34 11.34 0 0 1-1-5.82s-.23-1.05-.62.14a19.4 19.4 0 0 0 .17 3.79c.29 1.19.9 2.91 1 3.16a9.82 9.82 0 0 1-1.18 3.44c-.67 1.11-2 2.87-2.9 3.2a2.23 2.23 0 0 0-1.37 1c-.15.26-1.14 2.1-1.29 2.38l-.13-.14a8.57 8.57 0 0 0-2.41-2.53c-1.54-1-3.8-1.48-5.68-3.85a25.67 25.67 0 0 1-2.83-4.35 7.56 7.56 0 0 0 1-3.4c0-1.76-.23-4.83-.24-5.41a1.25 1.25 0 0 0-.87-.87s.07.31.26.94c-.53.3-3.69 2.17-4.89 4.88 0 0-3.16 2.38-4.23 3s-4.88 1.56-6.27 2.13a11.35 11.35 0 0 0-4.88 4.26c-1.64 2.42-2.79 6.27-3.61 9.18 0 0-2.21 8.2-2.42 9.43S116.33 94.91 116 96.1a17 17 0 0 0-.7 3.69c0 .94.74 2.17 1.93 3.85a31.22 31.22 0 0 0 6.15 6.15c1.8 1.15 6.36 3.44 8.12 3.57.72 0 2 .12 3.33.16l.18.63a7.78 7.78 0 0 0-.18 1.36 2.24 2.24 0 0 0 .31 1.5 9.43 9.43 0 0 0-.12 3.11c.11 1.2.85 1.94.62.35a7.86 7.86 0 0 1 .22-2.6 1 1 0 0 1 .06-.26h.09c.71.34 7.5 1.91 7.93 2s9.59 1.63 16.7 1.17a57.1 57.1 0 0 0 14.7-2.74 5.31 5.31 0 0 0 1.8-1.16.36.36 0 0 1 .41.15s.24 1.63.33 2.17c.12.7-.14 1.19 0 1.15a.64.64 0 0 0 .58-.55 2 2 0 0 0 .09-1.35 7.43 7.43 0 0 0-.74-2.42 3.79 3.79 0 0 0 .4-1.28 4.87 4.87 0 0 0-.14-2.22l.26-.31c.49-.62.86-4 .74-6s-1-8.61-.66-13.69-.29-10.87-.21-11.64.37-2.46.57-3.36.25-2.58 0-2.62-.7 2.79-.86 2.83a8.59 8.59 0 0 1-.66-3.44c.08-1.11-.66-.94-.57.37s.41 4.67.53 5.41.45 6.93.45 8.82-.33 8.08-.08 10.54 1.39 9.35.29 11.6-3.2 3.73-7.75 4.76-9 1.18-9.8.94a1.46 1.46 0 0 1-.7-1.48c0-.55-.14-2.5-.21-3.28h.66c3.32-.06 4.92-.25 5.63-1.11a4.3 4.3 0 0 0 1.2-1.88.91.91 0 0 0-.4-.77s1-.18 1.23-1.78a1.61 1.61 0 0 0-.31-1.2 2.3 2.3 0 0 0 .18-1.81 2.15 2.15 0 0 0-1-1.38 1.63 1.63 0 0 0-.43-1.88c-.92-1-4-.55-4-.55v-4.55s-.46-2.64-1.91-2.68c0 0-.71-.06-1.08 1.6s-.55 3.47-.74 3.78c0 0-.46-18.94-.58-20.39s-1.22-6.64-1.26-7.09l.11.18a10.71 10.71 0 0 1 1.76-2.91c.78-.62 2.21.2 2.58.33a28.8 28.8 0 0 1 5.41 2.58 4.55 4.55 0 0 0 2 .37c.66-.16.66-2.46.74-3s.12-6.15 0-7.79-.29-3.9-1-4.67a11.43 11.43 0 0 0 3.85 2.17c2.3.74 6.15 1.64 7.71 2.46s3.12 3 4.31 6.31a95.5 95.5 0 0 1 3.24 11.15c.29 1.89 1 7.34 1.07 9.06s.29 8 .9 10 2.09 7 2.05 8.2.85-.7.6-1.38zM141.1 55.71l.1-.21.09-.17.42-.86a14.3 14.3 0 0 1 3.7-4.06c0 1 .12 4 0 5.2-.16 1.44-.66 2.21-.86 2.09s0-1.31-.2-1.48-.49-.25-.53.33a9.15 9.15 0 0 0 1.44 3.85c.94 1.52 3.57 4.22 3.94 4.8a5.36 5.36 0 0 0 1.52 1.31c.12 0 0 .21-1.23.74a11.05 11.05 0 0 0-3 2.62c-.33.37-1.15 1.68-2 1s-3.77-6.64-3.94-8.73-.3-4.58.55-6.43zm18.85 61.74c4-.2 10-.57 13.16-1.72a12.25 12.25 0 0 0 4.34-2.59 3.21 3.21 0 0 1 0 1.86c-.28 1.08-2 2.21-4 2.83a52.85 52.85 0 0 1-18.14 2.31 101.84 101.84 0 0 1-16.22-2.11c-1.66-.34-3.44-.83-3.75-1.54a3.65 3.65 0 0 1 .15-1.51.48.48 0 0 1 .1-.24 19 19 0 0 0 4.14 1.53c2.75.65 16.24 1.39 20.22 1.18zm-10.84-7.52a1.45 1.45 0 0 1-.65 1s-1.93.5-2.58-1.06-1.64-3.16.08-8.57a3.67 3.67 0 0 1 .66-1.11 13.74 13.74 0 0 1 2.3 0s.7-.12.57.7a21.38 21.38 0 0 0-.41 2.34s-.34 5.57.03 6.7zm-3.19 1.74a25.35 25.35 0 0 0 2.82-.08 9 9 0 0 0 2.28-.68 1.69 1.69 0 0 1 1-.06 42.28 42.28 0 0 0 6.8 1.08 34.1 34.1 0 0 1 .16 3.55 1.36 1.36 0 0 1-1.15 1.27c-.49 0-13.45-.45-15.25-.86s-5-.74-6.19-1.35a1.51 1.51 0 0 1-1-.93 22.72 22.72 0 0 0 4.53-.21c1.7-.37 5.64-1.65 6.01-1.73zm12.24-11.93a8.05 8.05 0 0 0 1.41-3.61c.16-1.8.37-2.71.74-2.83s.78 1.15.82 2.58 0 3.73 0 3.73a2.43 2.43 0 0 0-1.19.41c0 .25.41.2.62.25s4.26-.16 4.76.2.74.62.53 1a1.71 1.71 0 0 1-1.07.78s-2.17.53-2.75.62-.66.18-.59.43 1.63.22 2.34.12a11.44 11.44 0 0 0 2.14-1 1.11 1.11 0 0 1 1.15.86 1.52 1.52 0 0 1-.58 1.74 9.17 9.17 0 0 1-3.23.57c-1.63 0-1.54.06-.92.37a8.46 8.46 0 0 0 3.29 0 3.19 3.19 0 0 0 1.26-.55 1.46 1.46 0 0 1 .09 1.32 2.82 2.82 0 0 1-2.28 1.2c-1.29.22-2.77.43-2.86.43s-.62.18.31.4a16.66 16.66 0 0 0 3.51-.22c.43 0 .65-.06.52.46s-.28 1.63-3.2 1.85a24.8 24.8 0 0 1-7.75-.28 28.34 28.34 0 0 0-4.61-.8 4.27 4.27 0 0 0-.48 0 40.52 40.52 0 0 1-.28-6.12l.46-2.41a.84.84 0 0 1 .86.08 10 10 0 0 0 3.55.3 4.79 4.79 0 0 0 3.44-1.88zm-1.21-23.53c.43 2.7.53 15.79.57 16.61s.46 5.8.16 6.35a4.06 4.06 0 0 1-3 1.84 7.17 7.17 0 0 1-2.77-.23.94.94 0 0 0-.49-.94 47.45 47.45 0 0 0-5.21-.49 2.61 2.61 0 0 0-1.44-1.48c-1.19-.57-.21 0-.21 0a26.32 26.32 0 0 1-3.49-1.64c-1.07-.7-7-1.35-7-1.35a1.6 1.6 0 0 0-.57-.45 6.72 6.72 0 0 0 .74-1.8 36 36 0 0 0 0-6.31 54.53 54.53 0 0 1-.37-5.62c.08-1.11-.16-4.72-.25-5.49s-.41-.94-.45-.45v2.36a.15.15 0 0 1-.29.07c-.35-.73-.86-1.65-1-1.53s.5 1.33.7 2.42c.24 1.33 1.15 11.19 1.11 13.28s-1 2.62-1 2.62a4.76 4.76 0 0 0-3.69 1.39c-1.39 1.6-.57 1.23-.57 1.23a5.79 5.79 0 0 1 1.6-1.19 4.05 4.05 0 0 1 2.26-.25 2.17 2.17 0 0 0-.94 1.23c-.57 1.15.29.53.29.53a8.76 8.76 0 0 1 1-1c.45-.37.82-.33 2.75-.33a20.9 20.9 0 0 1 6.11 1.6c.7.33 2.91 1.23 2.91 1.23a3.07 3.07 0 0 1 1 .9 2 2 0 0 1-.45 1.23v.05a15.24 15.24 0 0 0-.8 6c.37 2.67.9 4.1.62 4.43s-4.59 2-9.55 1.93-6.68-1.19-10.41-3.16a20.64 20.64 0 0 1-8.2-8.16 6.07 6.07 0 0 1-.08-4.67c1-2.67 2.91-12.59 2.91-12.59s2.5-10.09 2.71-11.19c0 .12 2.62-6 3.2-7.46a7.22 7.22 0 0 1 3.49-4.1c2.26-1.31 6.31-2.3 7.5-2.83a11.65 11.65 0 0 0 3.2-1.93 45.34 45.34 0 0 0 0 4.92c.16 1.85 1.76 5.45 2.71 7.09s1.8 3.2 2.26 3.36 1.44-.66 1.85-1.07a15.72 15.72 0 0 1 3.12-2.75 6.69 6.69 0 0 1 3.24-1c.9.08 2.34 1.48 2.87 2.46a59.27 59.27 0 0 1 1.36 6.32z"/><path fill="none" stroke="#ec800f" stroke-width="2" stroke-miterlimit="10" d="M27.28 154.76a104.88 104.88 0 0 1 63.3-70.73" stroke-linecap="round"/><path fill="#ec800f" d="M87.64 92.96l.64-8.02-5.33-6.03 18.99 1.47-14.3 12.58"/><path fill="none" stroke="#ec800f" stroke-width="2" stroke-miterlimit="10" d="M208.89 81.84a104.88 104.88 0 0 1 72 61.88" stroke-linecap="round"/><path fill="#ec800f" d="M271.88 140.95l8.04.48 5.92-5.44-1.09 19.02-12.87-14.06"/><path fill="#fff" d="M5.98 285.67a23.34 23.34 0 0 0 4.87 2.62c1.74.56 5.19-8.06 6.37-7.85a19.71 19.71 0 0 0 4.79.35c.83-.21 3.13-1 3.54-1.94a7.58 7.58 0 0 1 .9-1.88c.21-.07 1.32 5.28 1.32 6.39s-.63 6.39-.35 7.57c.22.93.18 3.87.39 5.62h51.27c-.14-1.81-.39-5-.32-5.21s.69-7.85.69-8.34-.63-2.83-.42-2.89a3.63 3.63 0 0 0 1.44-1.07c.28-.49 1.39-1.85 1.39-1.85s.95-.9 1.44-1.39a7.41 7.41 0 0 0 1.48-3.24c.35-1.53.93-4 1.2-5.09s-.09-3.91-.09-4.82a31.74 31.74 0 0 0-1.25-6c-.49-1.32-1.25-6.11-2.92-9.21-1.36-2.52-8.59-9.05-8.94-9.4s-4.07-2.34-6.44-3.8a9 9 0 0 0-4.58-1.39l-1.41-1.2s.21-2.85.21-3.26a1 1 0 0 1 .16-.61s-6.06 2.29-10 2.54a43.15 43.15 0 0 1-8.4-.43c-.28-.07-2.54-.89-2.8-1.56-.13-.33-1-.14-1-.14s1.11 3.13.76 3.13a70.7 70.7 0 0 0-7.92 2.36 55.39 55.39 0 0 0-8 5.14c-.49.56-6.32 5.77-6.95 6.32a69 69 0 0 0-5.75 5.3c-1.18 1.6-6.4 8.61-6.46 11.39-.21 9.93-4.1 10.77-3.75 15a13.58 13.58 0 0 0 5.53 8.84z"/><path fill="#e09c51" d="M11.43 200.75s-.56-5.7 1.53-9a60.79 60.79 0 0 1 5.83-7.36s4.58-2.92 5-3.2l4.31-2.92a56.85 56.85 0 0 1 6.67-3.33c2.08-.69 6.6-2.94 10.22-2.24s7.29-.33 7.71-.05 1.52.21 3.75.63 7.22 1.11 9.17 1.67 9.17 4.86 9.86 5.42 7.92 8.34 9.45 10.84 7.15 11.45 4.86 21.53c-3.27 14.42-18.88 17.53-26.81 19.45a7.45 7.45 0 0 1-3.07.13l.3-4.15s7.75-4.75 9.3-7c.62-.89 5.28-6.11 5.83-8.34 0 0 3.1-2.22 3.38-3.52s.37-3.7-.65-4.17a10 10 0 0 0-2.32-.65 23.26 23.26 0 0 0-6.67-6.67c-4.07-2.5-2.87-2.32-2.87-2.32a29.91 29.91 0 0 1-5.19.93 45.37 45.37 0 0 1-6.3-1.11l-5.74 1.57-4.81 1.14-2-10.09a9.07 9.07 0 0 0-1.57 2 45.84 45.84 0 0 0-1.11 5.37c-.09.93-.83 1.76-1.57 1.48s-4.3-.86-4.3-.86-6.53.58-8.57 2.43-3.29 6.74-3.29 6.74a3.18 3.18 0 0 0-2.27.95 4.55 4.55 0 0 0-.09 3.8c.46.65 1.39 2.69 2.13 2.69a5.47 5.47 0 0 1 1.67.37s5.93 9.26 6.95 9.82 6.58 5.09 7.5 5.56a2.23 2.23 0 0 1 1.39 1.48c0 .37.72 2.78-1.5 2.87a32.92 32.92 0 0 1-5.72-.56s-6.58-2.32-8.71-4-7.78-6.85-9.63-9.82-3.89-7.13-3.15-10.09.19-5.93.65-6.11a1.89 1.89 0 0 0 .45-1.31z"/><path fill="#f3dac0" d="M41.6 188.5a5.78 5.78 0 0 0-1.6 3.2c-.21 1.88-.83 4.58-.83 4.58s-3.26.9-3.61.69-.81-1.46-1.34-1.32a49.28 49.28 0 0 0-5 1.18c-.63.35-4.72 2-5.28 3.4s-2.36 4.72-2.36 4.72a7.53 7.53 0 0 0-1.94.76c0 .21-1.25 1.81-.42 3.47s1.25 3 3 3.61 3.47 3.61 3.68 4.45 6.74 7.78 7.08 8 5.71 3.49 9.38 4.31a31.27 31.27 0 0 0 19.1-1.94c1.53-.69 7.08-5.35 7.36-5.63s4.35-4 4.83-5.48a27.24 27.24 0 0 1 1.7-3.62s2.71-2 2.78-2.5 1.25-3.13.9-3.89a3.19 3.19 0 0 0-1.88-1.81c-.76-.14-1 .14-1.39-.14s-2.5-3-3.54-4.17a61.63 61.63 0 0 0-5.14-4.31l-.86-.51a7 7 0 0 1-3.73 1 18.72 18.72 0 0 1-5.9-.9 4.79 4.79 0 0 0-3.06.28c-.42.21-5.07 1-5.07 1l-4.34 1.1s-.23-1.57-.23-1.78-1.53-6.88-1.53-6.88z"/><path fill="#e9b87f" d="M35.81 173.85c-3 1.87-5.35 3.22-7.28 4.28a9.81 9.81 0 0 0-3.21 2.46c-.55.67-.37.68-1.67 2.64-.7 1.06-1.15 1.66-1.88 2.85a8.19 8.19 0 0 0-1 2.08c.16.11 1.23-2 3.4-2.78a5.65 5.65 0 0 1 2.22-.35 15.15 15.15 0 0 1 1.32-2.43 17.94 17.94 0 0 1 2.08-2.5 34.7 34.7 0 0 1 3.58-3.24l2.66-1.27z"/><path fill="#e9b87f" d="M40.41 173.03a18.92 18.92 0 0 0-5.19 2.5c-4.87 2.87-7.32 6.92-8.93 9.31-.55 1.16-1 2.07-1.39 2.69a9.37 9.37 0 0 0-1 2.08 3.26 3.26 0 0 0-.23 1.62c.3.13 1.31-2.33 3-4.54 2.5-3.33 7.22-7.11 10.33-5.83a3.9 3.9 0 0 1 1.81 1.62 4.79 4.79 0 0 1 2-2.73c.22-.13 1.15-.71 1.48-.42s0 1.52-.57 3.73a16.45 16.45 0 0 1 2.92-6.64 16.1 16.1 0 0 1 2.42-2.33 15.58 15.58 0 0 1 1.81-1.2 21.27 21.27 0 0 0-4.73-.14c-.59.12-3.23.23-3.73.28z"/><path fill="#e9b87f" d="M43.66 194.03a18.44 18.44 0 0 1-1.53-8.24 16.37 16.37 0 0 1 3-9.21s.15-.2 3.58-4c0 0 1-.19 2.09-.29a5.9 5.9 0 0 1 2.66.23 5.66 5.66 0 0 1 2.74 2.78 10.52 10.52 0 0 1 1.34 3.89 11 11 0 0 1 0 3.1 6.93 6.93 0 0 0-1.54-2.45 5.71 5.71 0 0 0-2.35-1.56 5.46 5.46 0 0 0-3-.06 6.3 6.3 0 0 0-3.16 1.9 31.45 31.45 0 0 0-2.78 4.63 14.19 14.19 0 0 0-1.44 3.75 10.91 10.91 0 0 0 .39 5.53z"/><path fill="#e9b87f" d="M57.12 178.3a10.78 10.78 0 0 1 3.85.82 11.82 11.82 0 0 1 6 6 12.69 12.69 0 0 0-2.36-4.77c-.8-1-1.14-1.11-2.27-2.41-.49-.57-.87-1.06-1.11-1.39-1.31-1.1-3.34-2.65-4.85-3a1.12 1.12 0 0 0-.94 0 1.61 1.61 0 0 0 .56 1.11 8.09 8.09 0 0 1 1.48 4.49zm-45.83 19.87a10.44 10.44 0 0 1 8.89-8l1.46-4.24c.79-1.59 2-3.2 2.77-4.79a22.11 22.11 0 0 0-4.65 2.69 65.73 65.73 0 0 0-5.39 6.27 25 25 0 0 0-3.08 8.07zm1.45.59a13.14 13.14 0 0 0-2 3.84c-1 3.13-.55 5.85-.07 8.68a31.43 31.43 0 0 0 1.67 6 19.1 19.1 0 0 1 6.6-20.07v-3.78a19.63 19.63 0 0 0-6.2 5.33z"/><path fill="#e9b87f" d="M58.2 173.8c.46-.79 3.73.21 5.23.79a19.37 19.37 0 0 1 7.83 5.74 16.93 16.93 0 0 0-8.45-2.3 53.93 53.93 0 0 0-4.44-3.36c-.3-.04-.31-.64-.17-.87z"/><ellipse cx="299.41" cy="355.95" fill="url(#a)" rx="5.72" ry="7.54" transform="rotate(-55.5 31.79 539.5)"/><ellipse cx="332.38" cy="355.08" fill="url(#b)" rx="7.54" ry="5.72" transform="rotate(-31.1 -54.85 765.34)"/><ellipse cx="32.87" cy="285.49" fill="#e95d16" rx="3.52" ry="3.8"/><path fill="#e95d16" d="M73.64 287.76c.62 1.9-1.2 4.12-3.45 4.12s-4.2-1.62-4.07-3.61c0-.3.76.86 3.49.74 2.2-.1 3.74-2.11 4.03-1.25z"/><ellipse cx="79.15" cy="253.47" fill="#fd8204" rx="4.17" ry="4.35"/><ellipse cx="9.49" cy="259.65" fill="#fd8204" rx="4.17" ry="4.35"/><ellipse cx="81.12" cy="270.49" fill="#fd8204" rx="4.17" ry="4.91"/><ellipse cx="43.89" cy="291.05" fill="#e95d16" rx="3.33" ry="3.43"/><ellipse cx="64.72" cy="236.8" fill="#fd8204" rx="3.8" ry="3.17"/><ellipse cx="63.86" cy="255.89" fill="#fd8204" rx="3.8" ry="3.76"/><circle cx="23.98" cy="254" r="3.43" fill="#e95d16"/><ellipse cx="54.54" cy="285.77" fill="#e95d16" rx="3.43" ry="3.52"/><path fill="#5b2019" d="M30.88 276.89s2.33 2.23 2.84 2.79a9.29 9.29 0 0 0 3.2 1.93 29.19 29.19 0 0 0 3.7.41 34.77 34.77 0 0 0 5.17-3.09c.53-.53 2-2.31 1.62-3.07a2.28 2.28 0 0 0-1.65-1.47 6.18 6.18 0 0 0-2.82.23c-.43.28-1.67 1.17-2.08 1.47a6.89 6.89 0 0 1-1.24.79 6.68 6.68 0 0 1-1.14.41.82.82 0 0 0-.63.71 2.11 2.11 0 0 0 1.62-.15 16.92 16.92 0 0 1 2.61-1.8 8.94 8.94 0 0 1 2.28-1c.56 0 1.09-.15 1.32.41s.61.43.33 1.45a4.81 4.81 0 0 1-2 2.33c-.56.33-2 1.22-2.82 1.65a5.07 5.07 0 0 1-3 .36 5.27 5.27 0 0 1-2.21-.91 19.1 19.1 0 0 1-2.79-2.77 7.39 7.39 0 0 0-2.71-1.55l-.44.31z"/><path fill="#5b2019" d="M42.62 281.94a9.38 9.38 0 0 0 5.2-.36 10.4 10.4 0 0 0 2.61-1.52c.42-.34.17-.2 1.5-1.42a3.67 3.67 0 0 0 1.29-1.5 2.23 2.23 0 0 0-.13-1.55 2.79 2.79 0 0 0-.76-.84 2.52 2.52 0 0 0-.44-.31 1.07 1.07 0 0 0-.36-.16 1.25 1.25 0 0 1-.39-.06h-.06a1.79 1.79 0 0 0-1 0 4.24 4.24 0 0 0-1.62.36 6.46 6.46 0 0 0-1.29.91.44.44 0 0 0-.05.51c.15.22 1.13-.82 2.41-1.19a3.09 3.09 0 0 1 2.38.2 1.84 1.84 0 0 1 .63.69 1.92 1.92 0 0 1 .13.84 1.55 1.55 0 0 1-.1.47 2.82 2.82 0 0 1-.24.43l-.23.35a5.67 5.67 0 0 1-.75.83c-1 1-.88.89-1.17 1.11a11.44 11.44 0 0 1-2.77 1.32 5.7 5.7 0 0 1-.94.29 7.51 7.51 0 0 1-1.37.09 14.76 14.76 0 0 1-2.69-.05 1.23 1.23 0 0 0-.81-.2l-.08.07c-.19.17-.18.22-.28.29s-.22 0-.38.17a.26.26 0 0 0-.12.14c.07.09.43.18 1.88.09z"/><ellipse cx="29.24" cy="294.15" fill="#5b2019" rx=".78" ry=".69"/><path fill="#5b2019" d="M37.11 271.76s2.32 1.67 2.73 1.88a16.94 16.94 0 0 0 2.57 1.39 1.49 1.49 0 0 0 .83-.51 27.09 27.09 0 0 1-3-1.9c-.56-.53-2.06-1.71-2.11-1.78a7.68 7.68 0 0 0-1.02.92z"/><path fill="#9d663f" d="M13.3 255.87s-.87-4.68-.27-4.91a6 6 0 0 1 2.57.2 37.38 37.38 0 0 1 4.3 1.19 5.09 5.09 0 0 1 1.22 1.24s-.71-.61.61-.77 3.23-.22 4.06-.29 3.64.21 4.48.17a19.66 19.66 0 0 1 2.78-.13 2 2 0 0 0 1.2.1c.54-.12 1.72-.54 2.11-.65l2.57-.71a1.34 1.34 0 0 0 .48.42c.3.15 1.53 5.28 1.57 6.73s1.23 16.13 2.23 16.69 1.91 1.45 5.47 0 5.67-2.43 5.67-2.43-.56 13.58-.71 14a5.18 5.18 0 0 1-1.71 2.07 4.87 4.87 0 0 1-2 1h-.34a8.58 8.58 0 0 1-6 3.57c-4.2.55-5.63-.42-5.63-.42a9.45 9.45 0 0 1-4.67 1.52 15 15 0 0 1-5.84-1.27 8.21 8.21 0 0 1-1.8-1.4c-9.21.95-8.52-13.59-9.86-20.31-.05-.25-.93-6.86-.93-6.86z"/><path fill="#ce8a58" d="M13.31 250.9s.84-1.42 1.61-1.54a7.89 7.89 0 0 1 3 .29 24 24 0 0 0 3 .85l.5.58.3.79.67-.41 2.54-.17h7.68l1.07-.22 4.4-.95 1.51 1.21s-1.86.53-2.67.75a29.12 29.12 0 0 1-4.07.54h-4.58a15.32 15.32 0 0 1-1.93.18c-.73 0-4.68-.29-4.87.23a.47.47 0 0 1-.68.29s-.89-1.38-4.25-2.13-3.4.21-3.4.21a2.2 2.2 0 0 1 .17-.5zm-.3 6.31s.31 3.83.92 4.88 2.51 1 4 1.67 8.8 1.61 9.84 1.73 12.47-.12 12.93-.28l1.15-.4-1.32-6.27a67.88 67.88 0 0 1-9 .63c-10.58-.24-13.6-1.14-14-1.36a33.49 33.49 0 0 0-3.29-1.18c-.13-.03-1.19-.37-1.23.58zm5.31 21.08a68.52 68.52 0 0 0 16.49 2.74c7.77.06 19-4.11 19-4.11l-.46 6.44a33.63 33.63 0 0 1-12.86 3.53c-7 .34-18.06-1.48-21.13-2.37s-1.04-6.23-1.04-6.23z"/><path fill="#d8d5cc" d="M32.28 250.85s2.51-3.1 5.78-3.58a13.11 13.11 0 0 1 5.34.16 3.82 3.82 0 0 1 2.59-2.29c1.86-.35 3.61-.37 4.62.49a33.42 33.42 0 0 1 7.66 9.93c3.13 5.93 3.5 8.25 3.55 9.15s.27 2.84-.6 3.59-5.21 3.42-6 4.11a46.28 46.28 0 0 1-7.22 3.33c-.45 0-3 .4-3.62 0a5.14 5.14 0 0 1-1.54-2.32c-.15-.51-1.83-15.13-1.92-15.64s-1.13-6-1.27-6.28a5 5 0 0 0-3.43-1.26 19.46 19.46 0 0 0-3.2 1.19z"/><path fill="#eeedec" d="M20.11 238.3s-.68-.92-.14-1.09 1.75.21 2.52.11 2.87-.51 2.87-.51a.5.5 0 0 1 .23.65c-.21.42.84.6 1.32.95s1.36.69 1.41 1 .6 1-.75 1.31a29 29 0 0 1-6.1.7 26.65 26.65 0 0 1-4.23-.69c0-.2-.76-.74-.14-1.21a17.75 17.75 0 0 1 3.01-1.22zm15.21 5.35a14.89 14.89 0 0 0 4 .07 10.39 10.39 0 0 1 2.36-.32s.58 2.4.61 3.1-.35.47-.35.47l-4.2.35s-1.31 1-1.67.81a1.46 1.46 0 0 1-.44-1.14c-.02-.31-.31-3.34-.31-3.34z"/><path fill="#f1d6ba" d="M35.43 235.54a4.77 4.77 0 0 0 .07 2 2.66 2.66 0 0 0 2.2.59c1.3-.15 3-.21 3.14-.59s.42-1.58-.09-1.86a4.13 4.13 0 0 0-1.91-.45c-.58.02-3.41.31-3.41.31z"/><path fill="#d8d5cc" d="M20.26 233.11a27.59 27.59 0 0 0 .08 3.38c.14.3.73.86 2.51.57a10.89 10.89 0 0 0 2.36-.55l-.61-3.48-.47-1.59-2.32-.21-1.54.42z"/><path fill="#aeaeae" d="M35.5 237.88a20.18 20.18 0 0 0 4.39.2c1-.18 1.3-.52 1.7-.21a2.23 2.23 0 0 1 1.13.86 9.4 9.4 0 0 1 .87 2.28c.08.78.63 3.62.68 4.24a7.39 7.39 0 0 1-.87 2.18c0 .09-.91-.51-1.06-.52a33.17 33.17 0 0 1-.75-3.75s-5.68 1-6 .72a18.7 18.7 0 0 1-2-3.22 1.73 1.73 0 0 1 .6-1.87 7 7 0 0 0 1.31-.91z"/><path fill="#fd8204" d="M29.12 239.37s-.26-2-.25-2.6c0-.88 2.4-.22 2.49-.16a16.94 16.94 0 0 1 1.14 2c.45.88 1.66 2.64 2 3.49a16.56 16.56 0 0 1 1 2.84 11.51 11.51 0 0 1 .31 2.09 3.13 3.13 0 0 1-.74 1.4c-2.07 1.46-3.71 2.88-3.71 2.88a35.76 35.76 0 0 1 .06-5.32 7.46 7.46 0 0 0 .1-3.51c-.29-.71-.18-1.75-.74-2s-1.81-.9-2.13-1a13.54 13.54 0 0 1-1.53-1.11z"/><path fill="#f09102" d="M15.63 240.45a4.24 4.24 0 0 0-1 3c0 1 .44 1.22 1.06 3 .74 2.16.07 2.83.79 2.94 1.08.16 5.37.55 5.45 2.38 1.26-.64 8.46-.8 9.15-.72 0-1.17-.05-5.84.27-6.58a4 4 0 0 0 .22-.64 1.57 1.57 0 0 0 .11-.58c0-.23-.42-2.9-2.12-3.41-.75-.23-1.14.15-2.63.65-2 .66-3.53.68-6.59.72-1.24 0-2.57 0-3-.81a1.09 1.09 0 0 0-.54-.61 1.4 1.4 0 0 0-1.17.66z"/><path fill="#ce8a58" d="M15.99 247.91a1.84 1.84 0 0 1-.7 1.6c-.75.34-1.44 1.13-1.64.53s-1.09-1.11-.48-1.59 1.76-1.52 1.76-1.52l.83-.11zm28.14-3.74a7.75 7.75 0 0 1 2 .11c.31.18.87.23.44.53s-2.18 1.07-2.18 1.07z"/><path fill="#5b2019" d="M15.32 241.29a2.79 2.79 0 0 0-.41 2 1.57 1.57 0 0 0 .63 1.2c.38.16-.7.53-.7.53a5 5 0 0 1-.61-1.82 3.3 3.3 0 0 1 .55-2.2 7.72 7.72 0 0 1 .64-.62z"/><path fill="#f09102" d="M29.35 239.25c-.4-1.07-.87-2.65-.58-3.05a3.48 3.48 0 0 0 .67-1.46 1.76 1.76 0 0 0-.67-1.31c-.45-.24-1.68-.66-1.59-1.57s.16-1.76 1-2c2-.58 9.28-3.92 9.88-3.95a1.47 1.47 0 0 1 1.51.62c.29.55.92 1.46.51 2s-3.08 1.43-3.38 1.57-.8-.11-.81 1 .07 2.76.79 3.16a8.8 8.8 0 0 1 1.09.85c-2.09.27-2.31.93-2.47.78a12.07 12.07 0 0 1-1.51-1.42c-.24-.39-.64-.46-.66-.07a13.45 13.45 0 0 0 .38 1.49c.12.73.42 1.68.44 2.2s.31 1-.6 1.16a14.4 14.4 0 0 1-2.38.24 4.64 4.64 0 0 1-1.62-.24z"/><path fill="#e75c16" d="M29.61 235.65a7.1 7.1 0 0 0 2.33.24 3.68 3.68 0 0 1 1.37-.33 1.74 1.74 0 0 1 .29 1 1.54 1.54 0 0 1 .1 1.42c-.4.8.13.48-.82.8a6.08 6.08 0 0 1-2.35.27c-.86 0-1.26.7-1.45-.66a11.15 11.15 0 0 1-.24-2.06 3.18 3.18 0 0 1 .82-.7z"/><path fill="#5b2019" d="M27.88 261.53a1.33 1.33 0 0 0-1 .68 1.26 1.26 0 0 0 .2 1.44 1.65 1.65 0 0 0 1.47.25 1.22 1.22 0 0 0 .69-1.27 1.18 1.18 0 0 0-1.38-1.1l.13.54a1.06 1.06 0 0 1 .82.55.74.74 0 0 1-.67.84.65.65 0 0 1-.79-.61.71.71 0 0 1 .65-.79zm-10.21-1.5a1.33 1.33 0 0 0-1 .68 1.26 1.26 0 0 0 .2 1.44 1.65 1.65 0 0 0 1.47.25 1.22 1.22 0 0 0 .69-1.27 1.18 1.18 0 0 0-1.38-1.1l.13.54a1.06 1.06 0 0 1 .82.55.74.74 0 0 1-.67.84.65.65 0 0 1-.79-.61.76.76 0 0 1 .71-.8zm25.14 21.63a1.33 1.33 0 0 0-1 .68 1.26 1.26 0 0 0 .2 1.44 1.65 1.65 0 0 0 1.47.25 1.22 1.22 0 0 0 .69-1.27 1.18 1.18 0 0 0-1.38-1.1l.13.54a1.06 1.06 0 0 1 .82.55.74.74 0 0 1-.67.84.65.65 0 0 1-.79-.61.73.73 0 0 1 .68-.79zm-13 .79a1.33 1.33 0 0 0-1 .68 1.26 1.26 0 0 0 .2 1.44 1.65 1.65 0 0 0 1.47.25 1.22 1.22 0 0 0 .69-1.27 1.18 1.18 0 0 0-1.38-1.1l.13.54a1.06 1.06 0 0 1 .82.55.74.74 0 0 1-.67.84.65.65 0 0 1-.79-.61.72.72 0 0 1 .69-.77zm10.43-21.13a1.33 1.33 0 0 0-1 .68 1.26 1.26 0 0 0 .2 1.44 1.65 1.65 0 0 0 1.47.25 1.22 1.22 0 0 0 .69-1.27 1.18 1.18 0 0 0-1.38-1.1l.13.54a1.06 1.06 0 0 1 .82.55.74.74 0 0 1-.67.84.65.65 0 0 1-.79-.61.66.66 0 0 1 .64-.75zM17.41 245.4a8.23 8.23 0 0 1-1.87-.92c-.37-.19-.71.35-.7.53"/><path fill="#f3dac0" d="M56.46 275.18s-2.09.24-2.21 1.06c-.39 2.82-1.75 1.24-2.08 1s-2.47-1-3.13-.56a1.88 1.88 0 0 0-.38 2.29c.39.68.22 1.17.94 1.54s3.07 1.25 3.27 1.34l.92.42a16.17 16.17 0 0 1-.13 2.91 3.86 3.86 0 0 1-2.42 2.39c-.35.11-1.59-1-3.06-1.67s-3.17-1.33-3.47-.26a2.73 2.73 0 0 0 .94 3.32 22.11 22.11 0 0 0 3.63 2.14 5 5 0 0 0 3.69.39 9.45 9.45 0 0 0 3.54-2 13.24 13.24 0 0 1 1.62-1.81c.48-.35 1-.79 1-.79l2.58-1.94s-.23-.25.4-2.3l-2.59-6.13z"/><path fill="#f3dac0" d="M43.71 286.63s-1.91-.86-2.57.28a2.29 2.29 0 0 0 .69 3.41 9.09 9.09 0 0 0 3.73 2 16.94 16.94 0 0 0 3.87 0 12.39 12.39 0 0 0 1.64-.39 31.24 31.24 0 0 1-4.1-1.93c-.38-.4-3.26-3.37-3.26-3.37z"/><path fill="#5b2019" d="M18.36 283.03a20.86 20.86 0 0 0 6.1 2c4.11.75 5.92 1 5.92 1l.38 1.09a47.86 47.86 0 0 1-6.77-.76c-3.37-.66-6-2-6-2.36a3.21 3.21 0 0 1 .37-.97z"/><path fill="#f3dac0" d="M16.18 278.5s2.09.24 2.21 1.06c.39 2.82 2.36.8 2.69.56a2.5 2.5 0 0 1 2.27-.25c.66.46.6 1.07.49 2-.09.78 0 1.27-.75 1.64s-3.21 1.33-3.41 1.42a6.85 6.85 0 0 0-.83.66 16.17 16.17 0 0 0 .13 2.91 3.86 3.86 0 0 0 2.42 2.39c.35.11 1.59-1 3.06-1.67s3.17-1.33 3.47-.26a2.73 2.73 0 0 1-.94 3.32 22.11 22.11 0 0 1-3.63 2.14 5 5 0 0 1-3.69.39 9.45 9.45 0 0 1-3.54-2 13.24 13.24 0 0 0-1.62-1.81c-.48-.35-1-.79-1-.79l-2.58-1.94s.23-.25-.4-2.3l2.59-6.13z"/><path fill="#f3dac0" d="M28.88 289.97s1.91-.86 2.57.28a2.29 2.29 0 0 1-.69 3.41 9.09 9.09 0 0 1-3.73 2 16.94 16.94 0 0 1-3.87 0 12.39 12.39 0 0 1-1.64-.39 31.24 31.24 0 0 0 4.1-1.93c.38-.4 3.26-3.37 3.26-3.37z"/><path fill="#fff" d="M13.48 265.6a14.9 14.9 0 0 1 4 .69 5.89 5.89 0 0 1 2.5 2.57c.42.83 2 1.46 2.36 2.15a25.25 25.25 0 0 1 .9 5c0 .69-2 2.5-2.5 2.85a4.75 4.75 0 0 1-1.32.56s-2.33-.19-3.07-.38c-1.56-.4-4.08 1.7-4.08 1.7l-6.46-15.07zm41.73-57.98c-.05-1.11 1.8-2.19 2.31-2.67a4.34 4.34 0 0 1 2.93-.57c.84.18 2.43-.18 3.3.32a3.21 3.21 0 0 1 1.51 1.93 1.66 1.66 0 0 1-.3 1.14 4.9 4.9 0 0 1-1.73.83 15 15 0 0 1-3 .11c-.75-.08-2-.29-2.53-.39s-2.46-.17-2.49-.7zm-23.02-.82c.12-.72.62-1.25 1.84-1.81s3.9-1.06 5.28-.55a6.63 6.63 0 0 1 3 2.66c.2.58.45.91-.05 1.07a23.4 23.4 0 0 0-2.57.42 11.73 11.73 0 0 1-3.64.52c-1.17-.02-4.12-.78-3.86-2.31z"/><path fill="#88cceb" d="M34.14 206.26a3.12 3.12 0 0 0 .72 2.13 4 4 0 0 0 2.65.65 2.36 2.36 0 0 0 1.92-.85c.29-.56.86-2.27-.34-3.11a3.9 3.9 0 0 0-3.13-.59 2.27 2.27 0 0 0-1.82 1.77zm23.67-.23s-.31 1.53.45 2.14a4 4 0 0 0 2.65.65 2.08 2.08 0 0 0 1.74-1c.29-.56 1-2.17-.16-3a3.9 3.9 0 0 0-3.13-.59 2 2 0 0 0-1.55 1.8z"/><path fill="#692f23" d="M71.43 230.54c.33-.11.8-.34 1.71-.7a27.79 27.79 0 0 0 3.84-1.89c5.21-2.91 7-4.38 7.62-5.11a26.1 26.1 0 0 0 5.13-8.68 23.22 23.22 0 0 0 .8-8.47c-.26-5.2-1-7.59-2.13-9.84a96.14 96.14 0 0 0-7.31-10.76 41 41 0 0 0-8-7.08s-4.28-2.77-7-3.23c-.11 0-.77-.12-1.67-.31-1.28-.27-1.37-.36-2.29-.56a26.54 26.54 0 0 0-3.63-.49l-2.19-.39c-.29-.12-.59-.24-.9-.35a2.89 2.89 0 0 0-1.47-.31h-.12l-1.45-.09a18.66 18.66 0 0 0-1.94 0c-1 .06-1 .2-1.88.21s-.87-.12-1.81-.17-1.12 0-2.08 0a7.37 7.37 0 0 0-2.61.07 23.12 23.12 0 0 0-4 1 22.23 22.23 0 0 0-8.91 3.39 21.06 21.06 0 0 0-3.06 2.45 104.632 104.632 0 0 0-6.73 4.29 19.82 19.82 0 0 0-5.62 5.95 24.32 24.32 0 0 0-3.04 10.56s0 .27-.08 2.6c-.08.23-.15.45-.22.68a16.74 16.74 0 0 0-.15 8 29.22 29.22 0 0 0 2.29 6.94 28.31 28.31 0 0 0 5.54 6.75 38.17 38.17 0 0 0 7.55 5.21 3.26 3.26 0 0 0 1.14.53 1.48 1.48 0 0 0-.12.88c.06 1.2.4 1.82 1 2a2.14 2.14 0 0 1 1.17.41 2.31 2.31 0 0 1 .22.8l-.2.11c-.53.31-2.57 1.76-3 2a5.86 5.86 0 0 0-.45-.57s-.3-2.68-.45-3.39-.34-1.75-1-1.74-2.83.16-2.91.17-1.08.31-1.06.77-.26 3.69-.22 3.89a1.23 1.23 0 0 1-.27 1 1.89 1.89 0 0 0-.44 1.15 12.11 12.11 0 0 1-1.87.93 15.86 15.86 0 0 0-1.87 1.42 1.76 1.76 0 0 0-.1.95 3.55 3.55 0 0 1 1.12-1.12c0 .5 1 1 1.5 1.1a21.69 21.69 0 0 0 6.21.29 8.82 8.82 0 0 0 4.28-1.34c.22-.07.59-.23.94-.35h.07a1.69 1.69 0 0 1 1.21 1.1c.5.87.86 2.16.5 2.55a9.49 9.49 0 0 1-4.49 1.66 46.76 46.76 0 0 1-9.17.09 5.56 5.56 0 0 1-1.87-.92c-.31-.28-.71.35-.7.53a1.3 1.3 0 0 0 .05.22l-.37.23a27.88 27.88 0 0 0-7.5 8.75 40.34 40.34 0 0 0-4.31 11.95 11.82 11.82 0 0 0 .11 3.06c-2 2.57-3.14 4.67-2.75 7.83.44 3.59 1.86 6.7 3.35 7.39a7.05 7.05 0 0 1 2.44 2s1.33.85 2.18.27a4 4 0 0 0 1 1c.14.1 1.16.94 1.86 1.42.09.16.18.3.23.37l2.73 1.53c.54.66 1.91 1.94 2.27 2.31a9 9 0 0 0 3 1.82c.6.11 2.17.31 3 .37a8 8 0 0 0 2.91.78 10.14 10.14 0 0 0 5.08-1.34 5.54 5.54 0 0 0 .6-.44l.62.13a14.44 14.44 0 0 0 5.4-.34 7.75 7.75 0 0 0 .92-.35l1.64.07a8.72 8.72 0 0 0 2 .14h.13c6.73.53 5.51 1.47 13.48 1.24a163.26 163.26 0 0 0 23.95-2.49 6.23 6.23 0 0 0 .27-1.8c.09-.14.76-8.24.37-10.49 1-1.07 2.32-2.48 3.51-3.77 2.29-2.49 2.57-6.42 3.06-7.55 1.39-3.2-1.57-19.38-4.63-23.48-1.92-2.57-4.91-5-6-6.25-.87-1-2.68-3.13-7.66-5.36-2.31-1-3.72-1.57-4.58-1.85a17.85 17.85 0 0 0 2.56-.4c3.34-1.14 4.34-1.05 5.72-1.54zm-50.84 1.9s.06-.47 1.34-.5h1.94s.49 0 .6 1a21 21 0 0 0 .34 2.09c.07.37.13 1 .13 1a1.08 1.08 0 0 1 0 .35 4.77 4.77 0 0 1-2.1.64 6.25 6.25 0 0 1-1.95-.2s-.35-.13-.35-1.26.06-3.12.06-3.12zm6.81 7.84c-.25.17-1.47.7-5.11.8s-4.31-.21-4.8-.52a.63.63 0 0 1-.37-.62 6.69 6.69 0 0 1 3.29-1.12c1 0 1.49 0 1.54-.21a10.82 10.82 0 0 0-1.81-.47c-.17-.22-.55-.61.38-.66s1.84.12 2.38.09a16.59 16.59 0 0 1 2.41-.24.21.21 0 0 1 .07.12.64.64 0 0 1-.65.82c-.75.15-1.5.12-1.5.21a1.64 1.64 0 0 0 1.6.21 3.64 3.64 0 0 1 2.18.12 8.49 8.49 0 0 1 .95.54l.06.18a1.61 1.61 0 0 1-.61.75zm.29-1.67l-1.47-.61c.44-.41 1.7-1.43 2.25-1.88v.18a18.34 18.34 0 0 0 .22 2.81zm58.23-19.81a10.4 10.4 0 0 1-.89 2.17 16.71 16.71 0 0 1-1.08 1.36c-1.57 1.52-6.67 4.14-7.79 4.8a29.55 29.55 0 0 1-5.1 2.61c-1.83.61-3.69 1-1.88-.75a14.4 14.4 0 0 0 3.4-5.7 42.19 42.19 0 0 0 1.11-4.48c.2-.89.19-1.1.3-1.54a3.57 3.57 0 0 0 .21-.84 14.78 14.78 0 0 0 1.06-2.62 4.18 4.18 0 0 0 2.48-1.63 7.14 7.14 0 0 0 2.15-3.92 4.38 4.38 0 0 0-.94-3.31 2.65 2.65 0 0 1 .27-1.27 13 13 0 0 0 .86-3.73 16.16 16.16 0 0 0-.52-4.34.1.1 0 0 1 0-.06 10.1 10.1 0 0 1 3.31 5.14 23.52 23.52 0 0 1 .7 3.82 25.71 25.71 0 0 1-.14 5.82 23 23 0 0 1-.51 2.87 8.61 8.61 0 0 1-.76 2.19 9.88 9.88 0 0 1-.94 1.52c-.62.8-2 2.24-2.31 2.81a9.81 9.81 0 0 0 3.9-3.69 16 16 0 0 0 1.87-6.11 36.85 36.85 0 0 0 .24-4.37v-.06a18.85 18.85 0 0 1 1.28 5.54c.09 2.72.28 5.87-.28 7.77zM61.5 266.28a3 3 0 0 1-.62 1.7c-.42.46-.93.94-.93.94s-3.65 2.49-5.12 3.23c-1.15.58-5 2.17-6.57 2.84s-2.57 1.23-3.72.44c-1.34-.92-1.39-2.53-1.55-3.94s-.29-3.72-.52-5.42-.93-8.24-1.39-9.63-.83-4-1-4.43l-.08-.17.31.19a6.07 6.07 0 0 0 1.53.74c.29 0 1 0 0-.78s-2.45-2.12-4-2l-.87.05h-.46a5.83 5.83 0 0 0-.84.13 5.07 5.07 0 0 0-.75.2c-.06 0-1.44.44-2.17.75h-.12a11.42 11.42 0 0 1 6.19-3.49 9.49 9.49 0 0 1 7.44 1.64c.91.78 2.77 2.94 3.13 3.21s.06-.73-.29-1.06-2.13-3.14-5.07-4.15a5.63 5.63 0 0 1 1.81-1.56 6.21 6.21 0 0 1 2.28-.38 9.57 9.57 0 0 1 5.11 3.51 70.1 70.1 0 0 1 5.18 7.89c.34.78 2.36 5.49 2.77 7a8.49 8.49 0 0 1 .32 2.54zm8.47 4.71a5.2 5.2 0 0 0-3.64-2.78c-1.76-.46-.86-.62.12-.72a9.16 9.16 0 0 1 3.8.09c1.34.44 5.58 3.11 6.53 5.21s1.22 2.88 1 3.76a13.12 13.12 0 0 0-.43 4.13 8.22 8.22 0 0 1-1.43 4.1 5.89 5.89 0 0 1-1.43 1 13.86 13.86 0 0 0 .4-1.84c0-.55-.05-1.62-.36-1.54a14.17 14.17 0 0 1-1 3.42c-.64 1.3-.16 2.62-3.05 2.78-1.14.06-1.69.11-2 .14a19 19 0 0 0 1.28-2.59 11.94 11.94 0 0 0 .49-4.26 22.92 22.92 0 0 0-1.4-6.27 8.06 8.06 0 0 0-1.8-2.85 6 6 0 0 0-2.16-1.4c-.69-.25-1-.2-1.94-.49a9.87 9.87 0 0 1-1.8-.77.68.68 0 0 0-.48.31c-.2.38.28.83.07 1.26a.94.94 0 0 1-.37.32 5.55 5.55 0 0 1-1.06.62l-1.05.46a5.67 5.67 0 0 1 2-3.22c1.86-1.58 3.67-1.88 6.3-.47a10.78 10.78 0 0 1 4.06 4 3.27 3.27 0 0 0-.65-2.36zm-1.56 17.76a5.32 5.32 0 0 1-.83.07 1.91 1.91 0 0 1-1.68-1.43 5 5 0 0 0-1.23-1.81c1.12-.33 2.22-.64 3.24-.91a3.25 3.25 0 0 1 .47 1.91c-.03 1 .02 1.88.03 2.16zm-.18-5a14.84 14.84 0 0 1-2.81.81c-.47.08-1.08.21-1.36.23a14.48 14.48 0 0 0-2.14.34v-.1a11.72 11.72 0 0 0 .29-2.62c-.1-.61-.59-2-1-3.57a5.1 5.1 0 0 0-1.89-2.84 5.37 5.37 0 0 0-1.94-.67h-.08l3.2-2.4a28.68 28.68 0 0 1 2.88-.49 4 4 0 0 1 3.24 1.64 21.65 21.65 0 0 1 2 5.25 29 29 0 0 1 .12 3.57 1.87 1.87 0 0 1 0 .51.79.79 0 0 1-.5.32zm-10.81 3.86a5.29 5.29 0 0 1-.42.46 18 18 0 0 1-2.63 2.61 5 5 0 0 1-2.08.86 4.78 4.78 0 0 1-2.87-.34c-.74-.41-2.13-1.24-2.66-1.56a4.54 4.54 0 0 1-1.84-2.2 1.21 1.21 0 0 1-.14-.56 1.31 1.31 0 0 1 1.29-1.22 2.62 2.62 0 0 1 1.66.59l.9.43a16 16 0 0 1 2.46 1.7 2 2 0 0 0 1.53.14.77.77 0 0 0-.59-.67l.12-.06a4.08 4.08 0 0 0 1.7-1.88 6.11 6.11 0 0 0 .31-2.58 5.83 5.83 0 0 1 .5.75 5.12 5.12 0 0 0 1 1.41s1.93-.59.69-1.34a16.28 16.28 0 0 1-2.06-1.59s-.16-.14-.58-.44l-.22-.14c-.85-.49-3-1-3.54-1.54a4.12 4.12 0 0 1-1.15-1.84 2 2 0 0 1 .09-1.5.85.85 0 0 1 .69-.42 1.7 1.7 0 0 1 .74.07 4.85 4.85 0 0 1 1.33.84c1.41 1 1.15 1.18 2.75 1.9a12.11 12.11 0 0 0 3.76 1.08.42.42 0 0 0 .44-.36 21.08 21.08 0 0 1-4.21-1.61l-.45-.28c0-.31.07-.87.12-1.52a3.45 3.45 0 0 1 4-.51c1.35.5 1.83 1.63 3 4.34a5.33 5.33 0 0 1-.51 4.84 6.63 6.63 0 0 0-3.27 2.12zm-8.07 4.42c-.66.15-1.5.33-1.75.35a9.33 9.33 0 0 1-4-1.15c-2.21-1-3-2.8-2.36-3.8a1.65 1.65 0 0 1 2-.89.77.77 0 0 1 .47.75 3.83 3.83 0 0 0 1.44 2.11 35.74 35.74 0 0 0 4.2 2.63zm-.61-6a14.28 14.28 0 0 0 4.69-2.19 14.78 14.78 0 0 1-.67 2.18 3 3 0 0 1-2.12 1.35 9.91 9.91 0 0 1-.86-.58zm-34.19-23.8a23.81 23.81 0 0 1-.72-3.61 1.49 1.49 0 0 1 .42-1.61c.87.48 6.13 3.08 17 3 0 0 5.94-.19 9.18-.68v-.24c.41 2.49.77 4.82.79 5.18v.44a61.71 61.71 0 0 1-11 .62 40.34 40.34 0 0 1-15.67-3.1zm8.17 8.91a3.67 3.67 0 0 0-.33-.51 12.75 12.75 0 0 0-1.7-1.29c0-.13-1.26-3-2.47-3.36a9.25 9.25 0 0 0-2.59-.41c-.12-.54-.3-1.3-.48-1.94a30.11 30.11 0 0 0 7.08 1.93c.09.99.27 3.05.49 5.58zm-1.53-17.88a6.24 6.24 0 0 0-.63-.75l.92-.63.09-.09.05.19a2.14 2.14 0 0 0-.41.92.84.84 0 0 0 0 .23v.12zm-.75-1.23a.71.71 0 0 1-.64.05 27.12 27.12 0 0 0-5.11-1.46s-.51-.12-.37-.38a1.59 1.59 0 0 1 .76-.47.81.81 0 0 1 .69-.08c.51.09 5.18 1.15 5.34 1.24a.36.36 0 0 1 .07.57 3.57 3.57 0 0 1-.74.53zm1.47 1.8a1.33 1.33 0 0 1 1.5-.69c1.37.05 8.94-.07 8.94-.07a2 2 0 0 1 1.18.25 46.28 46.28 0 0 1 .62 5.84 46.25 46.25 0 0 1-4.67 0 44.52 44.52 0 0 1-7.17-.53l-.15-1.6c-.11-1.5-.25-3.11-.25-3.25zM37 251.94a22 22 0 0 1-2.89.46l-.57-.86 1.72-.3c.7-.14 1.76-.26 2.6-.34a1.48 1.48 0 0 1 .27 0 1.71 1.71 0 0 1 .55.3 1.31 1.31 0 0 1 .19.28 18.64 18.64 0 0 0-1.87.42zm2.14 0a2.44 2.44 0 0 1 .25.67c.07.39.53 3.16 1 5.91-.6.09-2.67.37-5.24.54l-.77-6v-.05c.52-.09 1.72-.31 2.69-.5a18.5 18.5 0 0 0 2.07-.57zm-17.09 6.6h-.19zm.95 7.15a60.43 60.43 0 0 0 9.1.61s1.21 0 2.84-.13l1.29 14.22a41.38 41.38 0 0 1-9.18-.39c-.57-.09-1.64-.35-2.66-.61zm.44 13.46l-1.6-.43c.26-.29.49-.52.62-.65a4.27 4.27 0 0 0 .8-.9zm12.53-13c1.78-.11 3.83-.27 5.31-.5l.06-.48c.18 1.81.64 5.77.73 6.69a9 9 0 0 0 .89 3.6 2.77 2.77 0 0 0 2.3 1.17 5.8 5.8 0 0 0 2.36-.42 47.61 47.61 0 0 0 6-2.46l-.12 2.57c-.06 0-1.21.52-1.57.65l-.57-.37a2.66 2.66 0 0 0-1.61-.39 1.79 1.79 0 0 0-1 .39 1.89 1.89 0 0 0-.6 1.19 2.55 2.55 0 0 0 0 .46 40.94 40.94 0 0 1-9.56 2l-1.51.11zm17.47 11.05v.74l-.6-.39zm3.69-3.48a4 4 0 0 0-1.05.94 1.44 1.44 0 0 0-.32.62 3.71 3.71 0 0 0-1.53.57c.06-.93.12-1.89.13-2.49.45-.24.9-.48 1.34-.74s1.09-.66 1.58-1a2.4 2.4 0 0 0-.15 2.07zm-23.74-39a6.52 6.52 0 0 0 1.61 1.6c0 .65.07 1.45.07 1.45a1.43 1.43 0 0 1-.71.66l-.16.05v-.17a11.09 11.09 0 0 0-.26-2.42.75.75 0 0 0-.43-.41 4.55 4.55 0 0 0-.12-.75zm3.52-6.26a2 2 0 0 0 .92.92l.32.1c-.68.27-1.37.61-1.37.61a.66.66 0 0 1-.42.07 1.67 1.67 0 0 1-.91-1.07 1.52 1.52 0 0 1 .22-1.53 3.61 3.61 0 0 1 1.33-.69 1.7 1.7 0 0 0-.09 1.59zm15.44 14.13a12.17 12.17 0 0 1-2.47 1.72c-.88 0-1.22-.57-2.87-1.69l-.51-.34.56-.43 2.14-1.79c1.24.55 3.32 1.37 4.29 1.75-.27.22-.68.4-1.15.78zm2.37-.79l-.06 7.17c-.51-.67-1-1.21-1.26-1.53a12.13 12.13 0 0 0-2.71-2.21 3.4 3.4 0 0 0-.65-.32c.4-.25 1.25-.89 2.39-1.6a21.51 21.51 0 0 0 2.28-1.5zm-10.35 2.14v-.56c0-.42-.1-.9-.18-1.91l.1.09c.74.63 1.43 1 2.19 1.56a15.42 15.42 0 0 0 2.25 1.45h-.33a5.44 5.44 0 0 0-1.12 0 6 6 0 0 0-2.92-.62zm1.65.85a5.23 5.23 0 0 0-1 .43 5.45 5.45 0 0 0-.55.36l-.1-1.07a8.49 8.49 0 0 1 1.64.29zm-2-6.52a14.63 14.63 0 0 1 0-2.38l.53.67a17.51 17.51 0 0 0 3.69 3c-.88.78-1.4 1.23-1.75 1.49a7.15 7.15 0 0 0-.63.5 1.1 1.1 0 0 1-.22.17 2.8 2.8 0 0 1-1.43-1.44 4.22 4.22 0 0 1-.24-2zm5.12.55a14.72 14.72 0 0 1-3.93-3.17 4.1 4.1 0 0 1-.5-.69h.06a19 19 0 0 0 4.57.27 30.65 30.65 0 0 0 5-.6c-.66.51-2.49 1.81-3 2.3zm3-5.17c-.25 0-2-2.19-2.44-2.69a14.91 14.91 0 0 0 2.4-.05 11.78 11.78 0 0 0 2.07-.48c-.51.7-1.64 3.18-2.05 3.23zm-.82.42a21.88 21.88 0 0 1-3.54.11c-.6 0-1-.1-1.45-.14.7-.75 2.15-3 2.32-3a34.81 34.81 0 0 1 2.66 2.99zm-5.86-.45c-.24 0-1.61-2.49-2.12-3.17a13.66 13.66 0 0 0 4.39.42c-.46.77-1.86 2.7-2.29 2.75zm-1 .28a7.69 7.69 0 0 1-2.6-.77 5.91 5.91 0 0 1-1.84-1.28s1.92-1.51 2.42-1.29a20.93 20.93 0 0 1 1.99 3.35zm-4.09 1.13a14.81 14.81 0 0 0-1.8 0h-.16a8.39 8.39 0 0 1-1.46-1.21 2.07 2.07 0 0 1-.36-.5l1.73-.64a3.51 3.51 0 0 1 1.17.48 10.47 10.47 0 0 0 1.75.81 3.73 3.73 0 0 1 1.57 1.66 6.24 6.24 0 0 1 .16 3.3 1.76 1.76 0 0 0-.29-.33c-.35-.29-.93-.73-1.28-1-.06-.59-.18-1.81-.23-2a1.1 1.1 0 0 0-.8-.57zm.11 2.19a.3.3 0 0 1-.25.32l-1.66.18a18.14 18.14 0 0 1-2.63 0 1.35 1.35 0 0 1-.32-1.08c.11-1 .38-.84 1.86-1a10.08 10.08 0 0 1 2.65 0 7.47 7.47 0 0 1 .34 1.62zm-4.31-5c-.07-.24-.22-.61-.24-.65a.36.36 0 0 1 .29-.5c.62-.24 1.31-.54 1.92-.82a2.09 2.09 0 0 1 .4 1.11.84.84 0 0 1-.39.81c-.27.16-1.49.76-1.99.05zm3.47-.92a2.55 2.55 0 0 0-.54-1.46 2.6 2.6 0 0 0 .32-.19l.22-.11c.47.14 1.21.39 1.7.51zm0-2.6a.91.91 0 0 1-1.26.4 1.47 1.47 0 0 1-.85-1.09 1.21 1.21 0 0 1 .7-1.56 1.06 1.06 0 0 1 1.31.66 1.22 1.22 0 0 1 .09 1.59zm-2.52 6.42c-1.36 0-1.91.64-2.21.27s-.75-.59-1-.95a3.66 3.66 0 0 1-.51-1.06 1.28 1.28 0 0 1 .67-1.17 4.46 4.46 0 0 1 1-.64 2.05 2.05 0 0 0 .26.9c.21.48 1.4 2 1.78 2.65zm-3.67 1.1a4.4 4.4 0 0 1 .12 2 .53.53 0 0 1-.44.4l-.19-2.59a.38.38 0 0 1 .5.19zm.7 3a3.81 3.81 0 0 1 2.25-.82 7.83 7.83 0 0 0 1.28 0s1.65 0 2.37-.09a4 4 0 0 1 1.31-.12c.51.29 1.18.72.94 1.14s-1 1-2.93 1.3a12.74 12.74 0 0 1-4.69 0 1.93 1.93 0 0 1-.66-.39.71.71 0 0 1-.16-.72 1 1 0 0 1 .28-.27zm.94 2.14a32.38 32.38 0 0 0 4.17 0c.45 0 2.93-.56 3.19-.92a.37.37 0 0 1 .1-.09.75.75 0 0 1 .63.6 10.85 10.85 0 0 1 .4 2.08c0 .19.13 2.28.18 3.14-.27.26-.5.52-.68.73l-.65-.12c-.11-.78-.21-2.31-.23-2.44a8.57 8.57 0 0 0-.14-1.21.54.54 0 0 0-.53-.21c-.16 0-1.07.29-2.45.54a13.29 13.29 0 0 1-3.15.06 2.44 2.44 0 0 1-.47-.08c-.29-.52-.6-1.14-.9-1.65l-.25-.68a4.81 4.81 0 0 0 .77.28zm6.83 5.35a9.11 9.11 0 0 0-5.19.42l-.48.2a15 15 0 0 0-.45-3.14h1.76a21.58 21.58 0 0 0 3.57-.47c.65-.14.57.1.57.1zm12.89-8.78c-.12 1.58 0 2.26-.33 3a23 23 0 0 1-4.43-1.56l.31-.27c1-.84 2.44-2.07 2.86-2.39s1.54-1.27 2-1.72c-.14 1.04-.33 2.04-.41 2.94zm-2-4.07c.54-.51 2.23-3.42 2.52-3.47s1.67 1.86 2 2.26a9.4 9.4 0 0 1-1.22.43 32.8 32.8 0 0 1-3.3.77zm4.34-2.75a6.54 6.54 0 0 0-.67-1 18.17 18.17 0 0 0 2.87-1.25v2.33a1.38 1.38 0 0 1-1 .87 1.59 1.59 0 0 1-1.18-.96zm.34-2.31a28 28 0 0 1-9.31 1.25 25.84 25.84 0 0 1-5-.37 22.25 22.25 0 0 1-2.88-.75 1.33 1.33 0 0 0 0-1.51c-.76-1.29-1.28-1.94-2.39-1.59-.3.09-1.16.42-2.26.85-.42-.28-.8-.55-1.15-.8a33.32 33.32 0 0 1-5.46-5 31.77 31.77 0 0 1-5.53-9.08 2.92 2.92 0 0 1-.94.78c-1.06.1-2-1.18-2.46-1.87a5.69 5.69 0 0 1-.66-1.29 3.55 3.55 0 0 1-.24-2.08 1.85 1.85 0 0 1 .57-1.09 1.91 1.91 0 0 1 1.66-.27.32.32 0 0 0 .22.06 1.25 1.25 0 0 0 .61-.56 15.92 15.92 0 0 1 .91-2.89 6.85 6.85 0 0 1 3.3-3.86c2-1.27 4.57-1.57 6.09-2.08l.65-.2a9.3 9.3 0 0 0 2.8.81c.86 0 3.48.42 3.75-.61.12-.45.24-2.92.48-4.42a10.92 10.92 0 0 1 1.29-3.22c.24.85.57 1.88 1.06 3.23a61.52 61.52 0 0 1 1.14 6.54s1.22-.3 2.66-.8 3.92-.76 5.21-1.1a30 30 0 0 1 3.5-.72c.3 0 3.58.88 4.95 1a15.49 15.49 0 0 0 4.57-.23 3.78 3.78 0 0 0 1.47-.61l.11-.08a4 4 0 0 0 1.31 1.2c.86.56 3.09 2 4.21 2.89s3.65 4.87 3.65 4.87a2.53 2.53 0 0 1 3.25 1.83c.56 1.91-1.18 3.83-1.52 4.21a6.87 6.87 0 0 1-2.08 1.57 26.15 26.15 0 0 1-4 6.56 29.14 29.14 0 0 1-6.3 5.51 26.85 26.85 0 0 1-7.22 3.92zm-22.68-1.77c-1.81.72-3.61 1.44-5 2a11.55 11.55 0 0 0-1-.83c-4-3.37-5.89-5.39-7.58-10a12.75 12.75 0 0 1-.33-5.21 1.84 1.84 0 0 0 2.27.43s.94 2.21 1.39 3a55.64 55.64 0 0 0 4.72 5.94 53.82 53.82 0 0 0 5.53 4.67zm33.38-50.28a32 32 0 0 1 9.55 6.6c2.44 2.24 3.88 4.36 7 8.49a21.56 21.56 0 0 1 3.42 6.09 16 16 0 0 1 1.11 4.75 31.28 31.28 0 0 1-1.11 12.69 17.06 17.06 0 0 1-1.06 2.7 35.8 35.8 0 0 0 0-6.77 46.8 46.8 0 0 0-1.95-8.09 21.39 21.39 0 0 0-3.42-6.66 31.37 31.37 0 0 1-2.72-3.94c-.31-.62-1.84-3.67-2.42-4.89a28.87 28.87 0 0 0-2.25-4 13.83 13.83 0 0 0-1.86-2.34c-1.43-1.47-3.51-3.3-4.06-3.79a15.38 15.38 0 0 0-2.39-1.67c.78.23 1.49.5 2.18.79zm-8.92-2.35c.3-.3 1.74.38 3.12.89a24.51 24.51 0 0 1 10.59 8.45c4.51 6.09 5.91 12.1 5.86 13.45 0 .12.07 1 0 1.92a12.22 12.22 0 0 1-.37 3 7.54 7.54 0 0 1-.85 2.16 2.52 2.52 0 0 0-1.78 0c-.13.07-.3-.3-1.12-1.62a10 10 0 0 0-2.84-3.2h-.07.38a6.44 6.44 0 0 1 2.78.65 14.56 14.56 0 0 0 1.92 1.19c.29-.16-.16-.79-.56-1.21a6.16 6.16 0 0 0-2.36-1.42 19.87 19.87 0 0 0-3.87-.83 35.19 35.19 0 0 0-3.19-2.19s.37-.33.34-.33a3 3 0 0 0 .64-1 10.7 10.7 0 0 0 .73-5 18.71 18.71 0 0 0-.73-3.63 12.49 12.49 0 0 0-2.26-4.54 31.64 31.64 0 0 0-5-5.39 8 8 0 0 1-1.33-1.39zm-9.75-.89a3.43 3.43 0 0 1 1.37-.43 5.28 5.28 0 0 1 2.79.35c.22.17.84.66 1.07.89a7.58 7.58 0 0 1 2.08 3.37c1 3.14.18 6.39.3 6.4a.48.48 0 0 0 0-.09c.62 0 .83-3.64.83-3.64 0-1-.11-1.89-.13-2.07a32.81 32.81 0 0 0-.78-3.2 2.81 2.81 0 0 1-.22-.6 15.18 15.18 0 0 1 2.36 1.41 24.19 24.19 0 0 1 4 3.84 17.56 17.56 0 0 1 3.2 4.95 14.37 14.37 0 0 1 .84 7c-.18 2-.62 2.91-1.33 3.5a4 4 0 0 1-1.48.68 14.13 14.13 0 0 1-4.22.46 18.23 18.23 0 0 1-4.26-1 2.85 2.85 0 0 0 1.54-1.66 5.81 5.81 0 0 0 0-3 8.91 8.91 0 0 0-.56-2.27v1.53a12.49 12.49 0 0 1-.46 3.09 4.6 4.6 0 0 1-1.9 2c-1.42 1.09-1.83.48-4.44 1.14a29.84 29.84 0 0 1-4.74 1.07c-.11 0-.87.23-1-.16a7.55 7.55 0 0 1-.23-2.28c-.09-1.74-1.51-5.44-1.86-7.88-.69-4.69 2-8.7 2.66-9.63a12.56 12.56 0 0 1 4.6-3.8zm-23.08 6.89a24.53 24.53 0 0 1 6-4.38 21.4 21.4 0 0 1 3.05-1.3 25 25 0 0 0-3.89 3 31.25 31.25 0 0 0-4.74 5.4 25.36 25.36 0 0 0-3 6.56 16.21 16.21 0 0 0-.51 3.25c.11 0 .88-3 2.26-5.59a22.78 22.78 0 0 1 2.1-3.19 36.66 36.66 0 0 1 5.22-6c1.88-1.67 5.19-3.85 6.71-4.26s5.08-.66 5-.42-2.48 1.14-3.9 3.28a13.78 13.78 0 0 0-2.77 6.34c-.24 2 .18 2.66.18 2.66a18.41 18.41 0 0 1 3.65-8.37 10.77 10.77 0 0 1 4.31-3.5c.89-.37 1.76-.37 1.4-.16a11.08 11.08 0 0 0-4.43 4.79 15 15 0 0 0-2 6.63 5.88 5.88 0 0 0 0 2.49c-.11.12-.62 1.11-.83 1.5a9.4 9.4 0 0 0-1 3c-.18.93 0 3.39-.31 3.86s-1.45.5-2.57.35a10.71 10.71 0 0 1-1.39-.27 4 4 0 0 0 .84-1.35 7.53 7.53 0 0 0 .41-2.18 19.68 19.68 0 0 1-1 1.78 3.65 3.65 0 0 1-2.13 1.32c-.56.14-1.63.23-3 .61a10.87 10.87 0 0 0-5.21 2.26 15.85 15.85 0 0 0-2.59 3.93 1.54 1.54 0 0 1-1-.06c-1.09-.61-1.38-1.13-1.76-2.8a12.19 12.19 0 0 1-.28-5.7 19.72 19.72 0 0 1 2.15-6.22 32.74 32.74 0 0 1 5.06-7.3zM11.9 197.48a15.84 15.84 0 0 1 1.37-4.85 19 19 0 0 1 6.11-8s1.5-1.14 4.76-3.27a32.16 32.16 0 0 0-3.13 4.94 20.47 20.47 0 0 0-2.46 6.14 23.88 23.88 0 0 0-6.75 7.53c.11-.84.09-1.75.13-2.53zm12 30.87a31 31 0 0 1-8.42-7.41 19.9 19.9 0 0 1-3.54-6.28 22.41 22.41 0 0 1-1.24-6.65 18.57 18.57 0 0 1 .64-4.77 16.24 16.24 0 0 1 3.4-5.68 18.19 18.19 0 0 1 3.57-3.2 13.28 13.28 0 0 0-.1 2.77 22.64 22.64 0 0 0 .69 3.83l.06.21a12.22 12.22 0 0 0-2.32 3.22 19 19 0 0 0-1.57 7.13 34.68 34.68 0 0 0 .48 4.94 22.54 22.54 0 0 0 .86 3.4c.15.36-.9-5.63-.19-9.64s1.34-5.28 2.41-7.08a3.2 3.2 0 0 1 .72-.86 1.9 1.9 0 0 0 .57.76 2.23 2.23 0 0 0 1.88.46c-.39.82-.65 1.44-.7 1.59H21a8.21 8.21 0 0 0-1 0 2 2 0 0 0-1.5 1.37 4.06 4.06 0 0 0 .36 4 11 11 0 0 0 1.26 1.6c-.06.5-.18 1.53-.22 2.29a11.91 11.91 0 0 0 .34 3.7 12.13 12.13 0 0 0 1.44 3.42 25.12 25.12 0 0 0 2.61 3.91c2.16 2.62 3.54 3 4.56 4a7.47 7.47 0 0 1-.88.32 2 2 0 0 0-.7.47 26.67 26.67 0 0 1-3.32-1.86zm5.5 7.8h.14l.3 2.79a.39.39 0 0 1-.42-.09c-.32-.64-.4-2.47.04-2.74zm.45-.78a5.27 5.27 0 0 0-.14-1.61 3 3 0 0 0-1.39-.6 1.17 1.17 0 0 1-1-1.31 1.23 1.23 0 0 1 .32-.71l.41-.38a3.11 3.11 0 0 1 .42-.26l.91-.38h.14c.51-.06 5.4-2.24 5.4-2.24a1.92 1.92 0 0 0-.21 1.48 1.77 1.77 0 0 0 1 1.19c-.71.38-1.79 1-2.13 1.22a2.12 2.12 0 0 0-.43.41 2.89 2.89 0 0 0-.73 1.82 1.47 1.47 0 0 0 .23 1.23v.05a.54.54 0 0 1-.25.19c-.2 0-1.59.11-1.59.11h-.72c-.19-.08-.19-.25-.19-.25zm2.87 3.34a.6.6 0 0 1-.46.1 11.43 11.43 0 0 1-.23-2.68.63.63 0 0 1 .51 0 13.08 13.08 0 0 1 .27 2.54zm-.95.22a.49.49 0 0 1-.4.11.17.17 0 0 1-.15 0s-.31-2.73-.24-2.82a.66.66 0 0 1 .43-.1.24.24 0 0 1 .17.12 23.26 23.26 0 0 1 .23 2.65zm-1 0a.66.66 0 0 1-.53 0 21 21 0 0 1-.19-2.78.38.38 0 0 1 .48-.07 13.6 13.6 0 0 1 .28 2.86zm-.59 1h-.06a19.34 19.34 0 0 1 2.18-.06c.21.3.85 1.26 1.13 1.78l.09.17a.26.26 0 0 0 0 .06 18.86 18.86 0 0 1 1.18 2.58 32.87 32.87 0 0 1 .63 3.26 7.2 7.2 0 0 0-2.57 1.88c-.51.61-.86 1.05-1.09 1.36h-.11a19.29 19.29 0 0 1 0-4.93c.38-1.73.57-2.46.4-3.17s-.5-2.32-1.74-2.96zm2.31 11.84a1.52 1.52 0 0 1 .77.69h-2.7c-3.7 0-8.17-.09-8.17-.09a2 2 0 0 0-.27 0l.18-.27a1.42 1.42 0 0 1 1.07-.41c.67-.12 9.16.06 9.16.06zm-9.54-5.42a17.17 17.17 0 0 0 7-1.23l1-.57s-.38 1.81-.4 2.45.09 3.14.15 4c-2.64 0-7.51.08-7.51.08a2.36 2.36 0 0 0-1.33.64l-.24-.7a1 1 0 0 0-.41-.44c-.19-.11-2.94-.75-4.51-1.12a1.35 1.35 0 0 1-.58-.82 8 8 0 0 0-.2-1.67c-.14-.46-.36-1.43-.36-1.43s1.18 1.11 7.42.79zm-7.5 1a6.74 6.74 0 0 1 .1 1.13c0 .4 0 .59-.26.66a2.19 2.19 0 0 0-1.23.38s-.3 0-.3-.7 1.27-1.25 1.72-1.47zm-1.92 4.22a.69.69 0 0 1 .5-.23 1 1 0 0 1 .24 0c1.18.25 4.81 1.08 5 1.18s1.61.61 1.64 1.39.37 2.87.49 3.65l.08.87a34.16 34.16 0 0 1-7.57-2.31l-.74-3.2a1.57 1.57 0 0 1 .4-1.35zm-8.21 9.78c2.08-4.86 3.82-9.24 6.32-11.39l.57-.5a20.73 20.73 0 0 0 .41 3.91c.11.91.31 1.93.46 2.59a1 1 0 0 0-.41.49c-.18.37.39 2.1.49 4.15s1.15 2.52 1.15 2.52l.36 2.51c-1.31.11-3.35-.67-4.52-.68a7.83 7.83 0 0 0-6.18 3c-.11-.92-.16-3.05 1.38-6.6zm-1.29 22.46c-1.66-1.78-2.05-3.58-.76-6.27a10.78 10.78 0 0 1 3.77-4.24 4.78 4.78 0 0 0-2.26 1 6.2 6.2 0 0 0-2.59 4.45c-.35 2.42-.68-.05-.83-1a9.16 9.16 0 0 1-.09-3.8c.38-1.36 2.85-5.71 4.9-6.76s2.82-1.35 3.71-1.14a13.12 13.12 0 0 0 4.14.24 4.34 4.34 0 0 1 .72 0l.67.11a7.33 7.33 0 0 1 2.76 1.09 5.89 5.89 0 0 1 1.1 1.38s-1.49-.09-1.95-.05-1.44.18-1.44.18a14.17 14.17 0 0 1 3.46.79c1.33.58 2.35.66 2.91 2.92s.44 2.67.35 2.9a2.67 2.67 0 0 1-1.35 1.75 5 5 0 0 0-1.56 1.09 19.88 19.88 0 0 0-1.25-3 3.25 3.25 0 0 1 1.89-.56c1.22 0 2.27-.15 2.27-.15a20.76 20.76 0 0 0-2.76-1.21 11.94 11.94 0 0 0-4.28-.3 22.92 22.92 0 0 0-6.2 1.69 8.06 8.06 0 0 0-2.76 1.93 6 6 0 0 0-1.29 2.23c-.21.7-.15 1-.4 2a9.86 9.86 0 0 1-.69 1.83.68.68 0 0 0 .34.46c.39.18.82-.32 1.25-.12a.94.94 0 0 1 .33.35 5.55 5.55 0 0 1 .66 1c.18.37.34.71.51 1a5.67 5.67 0 0 1-3.25-1.78zm17.78-4.06a3.75 3.75 0 0 0-.65.29l-1.06.69 1.08-1.23zm-11.35 7.23a1.15 1.15 0 0 0-.64-.29c-1.41-.1-1.8-2.18-2.7-3.27a28.69 28.69 0 0 1-.62-2.85 4 4 0 0 1 1.48-3.31 21.65 21.65 0 0 1 5.15-2.2 29 29 0 0 1 3.56-.28 1.87 1.87 0 0 1 .51 0 .79.79 0 0 1 .37.42 14.84 14.84 0 0 1 .94 2.77c.1.47.21 1.07.29 1.34v.08a5.73 5.73 0 0 0-2.16-.84 3.38 3.38 0 0 0-.64 0h-.32a5.64 5.64 0 0 0-2.4.75 4.87 4.87 0 0 0-1.89 2.84c-.4 1.53-.89 3-1 3.57a4.84 4.84 0 0 0 .05 1.27zm9.85 7.87a5 5 0 0 1-2.08-.86 18 18 0 0 1-2.63-2.61 14.31 14.31 0 0 0-3.47-2.25 5.49 5.49 0 0 1-.73-5.17c1.19-2.71 1.67-3.84 3-4.34a8 8 0 0 1 1.44-.41c.73.27 2.66 1.06 3.23 1.87a.86.86 0 0 0 .18.19l-1.21.77a20.77 20.77 0 0 1-4.15 1.59.41.41 0 0 0 .44.35 11.93 11.93 0 0 0 3.71-1.07c1.58-.71 1.32-.87 2.71-1.87a4.77 4.77 0 0 1 1.31-.82 1.67 1.67 0 0 1 .73-.06.84.84 0 0 1 .68.41 2 2 0 0 1 .09 1.48 4.06 4.06 0 0 1-1.13 1.81c-.52.55-2.65 1-3.49 1.52s-1.58 1.39-2.81 2.13c-.78.58.27 1.58.68 1.32.33 0 .86-1.12 1-1.39a8.56 8.56 0 0 1 .56-.76 6.06 6.06 0 0 0 .32 2.57 4.08 4.08 0 0 0 1.7 1.88l.12.06a.77.77 0 0 0-.59.67 2 2 0 0 0 1.53-.14 16 16 0 0 1 2.46-1.7c.62-.29 1.65-.82 2.15-1a1.27 1.27 0 0 1 1.44.23c.34.46.38.56.12 1.52a4.54 4.54 0 0 1-1.84 2.2c-.53.31-1.91 1.15-2.66 1.56a4.78 4.78 0 0 1-2.83.32zm8.69-.31a9.33 9.33 0 0 1-4 1.15c-.25 0-1.09-.2-1.75-.35a35.74 35.74 0 0 0 4.21-2.61 3.83 3.83 0 0 0 1.44-2.11 1.92 1.92 0 0 1 2.26-.1c.96.9.21 2.94-2.18 4.02zm1.51-7.25c.26.08 4.45.47 5.71.47h.67a48.22 48.22 0 0 1 .24 4.86 2.62 2.62 0 0 1-1.71 1.16 13.49 13.49 0 0 1-3.92 0 3.65 3.65 0 0 0 1-2.54 2.07 2.07 0 0 0-1.86-2 3.32 3.32 0 0 0-2 .11 2 2 0 0 0-1.51-1.1 5.3 5.3 0 0 0-1.86.22l-.32-2-.9-.12.35 2.59c-.52.36-1.3.92-1.6 1.15a9.93 9.93 0 0 1-.86.58 3 3 0 0 1-2.12-1.35 20.47 20.47 0 0 1-.9-3.12 7.8 7.8 0 0 1 1.56-.94c1.58-.78 2.33-.87 2.87-1.39a3.06 3.06 0 0 0 .94-2.62 2.24 2.24 0 0 0-.22-.71 36.19 36.19 0 0 0 13 1 64.61 64.61 0 0 0 8.94-1.28 24 24 0 0 0 2.42-.78 3.17 3.17 0 0 0 .69 1c.56.52 1.31.62 2.92 1.41a11.49 11.49 0 0 1 1.31.72l-.23.18a30 30 0 0 1-3.3 1.83 16.18 16.18 0 0 1-2.09.7 5.07 5.07 0 0 0-2.21-.35 2 2 0 0 0-1.51 1.1 2.52 2.52 0 0 0-1.79-.28 2.9 2.9 0 0 0-1.47.8 49.41 49.41 0 0 1-10.67-.36 2.26 2.26 0 0 0 .41 1.05zm8.74 6a2.21 2.21 0 0 1-1.12-.72c-.06-1.41-.26-3.88-.34-4.87.67 0 1.48-.09 2.43-.19a3.42 3.42 0 0 0-.07.39c-.15 1.27 1 2.93 2.38 3.81a8.56 8.56 0 0 0 2.31 1l-.77.24a18.71 18.71 0 0 1-4.84.35zm39.4-3.72a3.51 3.51 0 0 0-.11.69 4.72 4.72 0 0 0-.13.69 2.6 2.6 0 0 1-.5 1 3.47 3.47 0 0 1-2.07.93 31.67 31.67 0 0 1-4 .37c-.57.06-.88.11-1.35.17-4.67.62-12.43 1-15.76 1.19-1.83-.16-6.53-.54-10.17-.8a17.81 17.81 0 0 0 2.76-.76h.27a8 8 0 0 0 2.91-.78c.83-.06 2.4-.26 3-.37a8.77 8.77 0 0 0 3-1.82c.48-.53 2.68-2.63 2.68-2.63l.7-.55c.9-.23 1.87-.51 2.86-.8.72.69 2 2 2.39 2.38a3.38 3.38 0 0 0 3.09 1.4 8 8 0 0 0 4.34-1.13 12.74 12.74 0 0 0 1.37-1.63c.13 0 3.07-1.11 3.47-2.31a9.32 9.32 0 0 0 .52-2.51l.74-.79c-.04 4.52.06 6.87-.03 8.06zm-12.7-54.86a22 22 0 0 1 5.57 3c2.39 1.59 3.67 3.55 4.32 3.95s2.14 1.61 4.63 4.82 5.2 17.22 4.91 19.63c-.42 3.43-.83 6.3-2.32 8.89-1.05 1.84-4.48 5-5.09 5.84.12-1.29.82-3 .87-4 .07-1.25 0-3.85-3-6.6s-5.15-4.34-8.75-4.06l-.56.05a7.44 7.44 0 0 0 1.11-.88c.92-.85 2.42-3.54 3.6-4.59a42.06 42.06 0 0 0 3.47-2.8c1-1.11-.19-.6-.19-.6a6.48 6.48 0 0 1-1.67.42c-.59 0-.09-1.07-.28-2.45-.15-1.13 1-3.54.69-4.26-.29-.06-.95 1.54-1.38 1.64s-.46-1.24-.72-3.6-.59-.66-.59-.66l.3 10.81a32.1 32.1 0 0 0-3 4.32c-.42 1-4 3-5.46 3.7a8.31 8.31 0 0 0-.39-3.39 57.49 57.49 0 0 0-3.33-8.51 30.64 30.64 0 0 0-3.11-5.09l-.09-9.79v-1.43a6.15 6.15 0 0 1 .53-2.47 16.24 16.24 0 0 1 1.52-2.54c.29-.17 1-.57 2.05-1.1 1.51.38 5.34 1.39 6.35 1.75zm-3.94-2.54a3.66 3.66 0 0 1-1.87 0 3.05 3.05 0 0 0 .15-1.25 18.7 18.7 0 0 0 .24-2.39 8 8 0 0 0 2.47-1.34 36.68 36.68 0 0 0 5.54-4 23.68 23.68 0 0 0 3.49-3.62c.28-.34.54-.68.78-1a28.14 28.14 0 0 1-1.05 4.09 14.14 14.14 0 0 1-1.53 3.63 12.17 12.17 0 0 1-1.77 2.26 11.65 11.65 0 0 1-3.26 2.35 17.82 17.82 0 0 1-3.2 1.27z"/><path fill="#692f23" d="M38.2 199.79c1.07.19 1.44.08 1.57-.15a.61.61 0 0 0-.29-.78c-.15-.11-.91-.72-4.62 0a7.37 7.37 0 0 0-3.27 2.08c-.38.53-.15.57-.15.57a16.16 16.16 0 0 1 3.31-1.64 11.49 11.49 0 0 1 3.45-.08zm19.2.4a11.49 11.49 0 0 1 3.44.11 16.16 16.16 0 0 1 3.31 1.64s.23 0-.15-.57a7.37 7.37 0 0 0-3.27-2.08c-3.7-.74-4.47-.13-4.62 0a.61.61 0 0 0-.29.78c.14.2.51.3 1.58.12z"/><circle cx="304.74" cy="346.48" r=".68" fill="#fff" transform="rotate(-82 88.24 429.62)"/><circle cx="42.03" cy="231.9" r=".45" fill="#692f23"/><circle cx="45.65" cy="231.73" r=".45" fill="#692f23"/><circle cx="48.71" cy="233.03" r=".45" fill="#692f23"/><circle cx="49.09" cy="236.44" r=".52" fill="#692f23"/><circle cx="45.42" cy="239.25" r=".52" fill="#692f23"/><circle cx="49.56" cy="242.28" r=".52" fill="#692f23"/><circle cx="53.39" cy="238.56" r=".52" fill="#692f23"/><circle cx="53.34" cy="245.01" r=".52" fill="#692f23"/><circle cx="52.05" cy="231.81" r=".45" fill="#692f23"/><circle cx="55.27" cy="232.18" r=".45" fill="#692f23"/><circle cx="58.43" cy="230.48" r=".45" fill="#692f23"/><path fill="#692f23" d="M44.98 213.96a7 7 0 0 0 3 .49 6 6 0 0 0 3-.51c.1 0 .68-.15 0 .4a3.92 3.92 0 0 1-1.74.78 6.27 6.27 0 0 1-3.66-.35c-.68-.28-1.2-1.04-.6-.81zm-9.73 5.94a.32.32 0 0 1 0-.46 3.28 3.28 0 0 1 1.47-.87 5.19 5.19 0 0 1 2.09.7 25.94 25.94 0 0 0 9.21 1.84c5.44.24 8-1.25 8.19-1.31s4.22-2 4.71-1.93a.78.78 0 0 1 .79.92c-.17.48-.38.44-.71.22a1.2 1.2 0 0 0-.87-.24c-.22 0-2.63 1.68-5 2.68a17 17 0 0 1-7.15 1 22.75 22.75 0 0 1-7-1.47 21.4 21.4 0 0 0-4.12-1.57c-.6-.05-.48 1.21-1.61.49zm9.56 4.51s-.3-.21-.12-.21 1.4.2 4 .29a19.39 19.39 0 0 0 4.35-.41c.1.06-.81 1.29-4.26 1.3-2.97 0-3.97-.97-3.97-.97zm-1.94-17.12a6.68 6.68 0 0 0-2.65-2.79 9.88 9.88 0 0 0-3.51-.36 6.18 6.18 0 0 0-3.69.82 4.12 4.12 0 0 0-1.46 2 4 4 0 0 0 2.21 2 11.42 11.42 0 0 0 3.09.51h1.06a16.74 16.74 0 0 0 3.29-1c.39-.11 1.22-.21 1.35-.28a.58.58 0 0 0 .31-.9zm-8.8 1.14a3.07 3.07 0 0 1-1.46-.9 1 1 0 0 1-.3-.61 3 3 0 0 1 1.17-1.4 2 2 0 0 1 1-.3 2.7 2.7 0 0 0-.31 1.64 2.31 2.31 0 0 0 1.32 1.87 3.62 3.62 0 0 1-1.42-.3zm5-.78a2.2 2.2 0 0 1-2 1 2.07 2.07 0 0 1-2.26-2.67 2.76 2.76 0 0 1 .14-.3.79.79 0 0 1 .39-.32.9.9 0 0 1 .43-.07.31.31 0 0 1 .21.24 1.49 1.49 0 0 0-.27 1.24 1.31 1.31 0 0 0 1.06 1 1.34 1.34 0 0 0 1.35-.48 1.67 1.67 0 0 0 .21-.8s-.83-.36-.69-.72a.7.7 0 0 1 .43-.49c.16 0 .24-.06.32-.06l.19.05h.13c.66.22.85 1.48.35 2.39zm3.08.11a4.43 4.43 0 0 1-1 .14c-.47.09-1.51.43-1.69.47a2.26 2.26 0 0 0 .6-1.53 5.18 5.18 0 0 0-.22-1.26v-.21a4.09 4.09 0 0 1 .57.23 6.74 6.74 0 0 1 1.52 1.29c.16.26.5.74.21.88z"/><circle cx="38.35" cy="205.83" r=".74" fill="#fff"/><path fill="#692f23" d="M54.81 208.03a3.46 3.46 0 0 0 1 .23c1.06.15 2.23.73 3.54 1a10 10 0 0 0 1.69 0 10.18 10.18 0 0 0 2.83-.51 3.6 3.6 0 0 0 2.11-1.85 4 4 0 0 0-1.46-2 7.32 7.32 0 0 0-3.71-.87 12.47 12.47 0 0 0-3.59.5 5.92 5.92 0 0 0-2.53 2.65.68.68 0 0 0 .12.85zm7.67.42a1.92 1.92 0 0 0 1-1.66 2.7 2.7 0 0 0-.31-1.64 2 2 0 0 1 1 .3 2.88 2.88 0 0 1 1.17 1.4 1.78 1.78 0 0 1-.29.47 2.41 2.41 0 0 1-1.31.87 2.61 2.61 0 0 1-1.25.25zm-3.67-3.28h.13l.19-.05a.69.69 0 0 1 .32.06.28.28 0 0 1 .06.49 1.22 1.22 0 0 0-.31.73 1.67 1.67 0 0 0 .21.8 1.34 1.34 0 0 0 1.35.48 1.31 1.31 0 0 0 1.06-1 1.49 1.49 0 0 0-.27-1.24.31.31 0 0 1 .21-.24.9.9 0 0 1 .43.07.79.79 0 0 1 .39.32 2.76 2.76 0 0 1 .14.3 2.07 2.07 0 0 1-2.26 2.67 2.2 2.2 0 0 1-2-1c-.46-.9-.27-2.15.35-2.39zm-3.19 1.64a12.13 12.13 0 0 1 1.42-1.28 2.18 2.18 0 0 1 .76-.29c.07.05 0 .13-.05.27a3.72 3.72 0 0 0-.22 1.26 2.26 2.26 0 0 0 .6 1.53 12.73 12.73 0 0 0-1.44-.36 2.84 2.84 0 0 1-1.18-.31.61.61 0 0 1 .14-.82z"/><circle cx="61.72" cy="205.65" r=".74" fill="#fff"/><circle cx="238.97" cy="131.02" r="10.05" fill="#fd8204"/><text fill="#fff" transform="translate(235.03 135.56)" font-size="12.6" font-family="Elektra Light Pro" font-weight="700">1</text><circle cx="157.27" cy="213.68" r="10.05" fill="#fd8204"/><text fill="#fff" transform="translate(153.33 218.23)" font-size="12.6" font-family="Elektra Light Pro" font-weight="700">2</text><circle cx="67.08" cy="131.02" r="10.05" fill="#fd8204"/><text fill="#fff" transform="translate(63.13 135.56)" font-size="12.6" font-family="Elektra Light Pro" font-weight="700">3</text><text fill="#692f23" transform="translate(179.61 159.43)" font-size="13" font-family="Helvetica Neue LT W1G">Рекомендация</text><text fill="#692f23" transform="translate(40.31 159.43)" font-size="13" font-family="Helvetica Neue LT W1G">500 рублей</text><path fill="none" stroke="#fd8204" stroke-width="2" stroke-miterlimit="10" d="M113.47 252.77h93.78"/><path fill="#fd8204" d="M119.09 260.18l-3.15-7.41 3.15-7.4-17.56 7.4 17.56 7.41"/><path fill="none" stroke="#fd8204" stroke-width="2" stroke-miterlimit="10" d="M196.6 267.38h-93.78"/><path fill="#fd8204" d="M190.98 259.98l3.15 7.4-3.15 7.41 17.56-7.41-17.56-7.4"/><path fill="#d2a274" d="M250.6 259.44s12.8 2 19.38 1.22 5.83-1.41 5.83-1.41l2.92 2.63.08 31.33s-13.92-7.34-39.33-5.08c0 0 1.6-12.14 4-16.37s7.12-12.32 7.12-12.32z"/><path fill="#e2ddd3" d="M294.54 263.95s-15.15-1.41-23.15-.85-8.19 1.51-8.19 1.51a54.84 54.84 0 0 0 3.48 5.74 3 3 0 0 1 .93 1.86l8.66 17.24 2.54 3.76s18.83-7.24 15.73-29.26z"/><path fill="#c7c0b1" d="M262.1 264.8c-.22-.19-1.29 2.23-1.29 2.23l.47 2.35 2.54 3.39 9.45 18.26 5.53 2.16s-12.85-25-16.7-28.39z"/><path fill="#fd8204" d="M266.97 272.89a14.81 14.81 0 0 1 2.84-2.16c.94-.38 3.48-1 4.33-.38s1.88 2.63 2.63 3 4.42 1 5.08 1.22a28 28 0 0 1 3.67 2.82l3.86 1.6s2.73 1.79 2.73 2.82.75 2.73-.28 3.1-3.39-.38-4.14.19-1.41 2-3.76 2.63a64.09 64.09 0 0 1-6.87 1.22 10.05 10.05 0 0 1-3.2-.19 25.56 25.56 0 0 0-6.49-2c-2.16-.19-7.43-.66-7.72-1.41s.56-2.35.56-2.35z"/><path fill="#f9e5cc" d="M261.33 272.32a5.81 5.81 0 0 0-2.73 2.63c-.66 1.69-1 3.58 0 4.33s2.73 2.63 4 3.1 4.7 1.88 5.65 1.79a4.77 4.77 0 0 0 2.35-.56c.66-.66 2.45-.38 3.29-1a4.83 4.83 0 0 0 1.13-1.13c1.79-1.05 0-1.69 0-1.69l.56-.94-7.34-2.07s3.39-.38 4-.85.51-1.18.23-1.28-10.39-2.51-11.14-2.33z"/><path fill="#e2ddd3" d="M252.39 217.57s-1.32 2.07.85 4.7a90 90 0 0 0 8.09 7.62l3.1 3.1s.94.28 1.51-1.13 3.39-5.83 3.39-6.21a30.84 30.84 0 0 1 1.79-4.42c.56-1.13 1.22-2.63.56-3.48l-.66-.85a3 3 0 0 1 2.07 0c1.32.38 1.88 1.13 1.6 3.29s-4.14 10-4.14 10-3.56 6.88-4 7.24c-.75.56-2 1.41-3.39-1.51s-8.94-8.37-8.94-8.37-4.89-4-5.27-5.74a3.36 3.36 0 0 1 3.44-4.24z"/><path fill="#fff" d="M302.25 204.3c-.94-3.58-11.48-13.08-12.7-14.21s-4.42-1.51-4.42-1.51-.66 3.48-1.79 4.61a3.52 3.52 0 0 1-2.82.85 4.22 4.22 0 0 0 .94 3.48 45.84 45.84 0 0 0 6.49 7.43c2.35 2 2.73 2.92 2.73 2.92a38.32 38.32 0 0 0-3.86 2c-.75.56-5.08 5.17-6.12 5.74s-2.45 1.51-2.45 1.51l-.94.85-2.35.09a9 9 0 0 1-.47 4c-.75 2.26-6.21 12.23-6.21 12.23s-1.88 4-2.54 4-4.89-4.52-4.89-4.52-7.81-7.43-8.28-7.72-4.61-4.7-4.42-5.65c0 0-4 2.54-5.65 3.76s-4.7 7.53-4.8 7.81-3.86 10-4.52 11.85a78.2 78.2 0 0 0-2.45 12.7 8.72 8.72 0 0 0 2.54 7.43c1.79 2.07 9.6 7.06 9.6 7.06l4.61 2.45s3.29 2.73 4.23 2.63a3.66 3.66 0 0 0 1.41-.38 19.56 19.56 0 0 0 3.48 2.16c1.41.56 1.69-2 1.69-2s.94-3.39 2-3.48-1.32-1.6-1.32-1.6l-2.26-1.51a2.25 2.25 0 0 0-.85-2.54 82.59 82.59 0 0 1-6.3-5.74.94.94 0 0 1-.15-.91l-.6.35-.28-.56-4.8-3.48s.19-1.69.19-2 1.79-5.17 1.79-5.17l1.41 4.14 2.45 5.08 1 .94c.94.09 8.37 1.88 14.11 1.41s8.66-.94 10.07-1.41l1-.19a15.1 15.1 0 0 0 1-3.29 21.78 21.78 0 0 1 1.79-5.27c.56-1 3-4.42 3.1-6.68s.38-5.65.28-5.93a36.5 36.5 0 0 1 2.92-6.59c.75-1 9.13-10.82 9.13-10.82s6-6.77 7.15-9.5 2.08-3.24 1.13-6.82z"/><path fill="#e2ddd3" d="M258.37 270.49a2.57 2.57 0 0 0-3.39.25c-1.51 1.63-2.26 3.64-1.38 4.77a7.57 7.57 0 0 0 3 2.37 1 1 0 0 0 1.37-.24s1-4 2.3-5.22a3.23 3.23 0 0 0-1.9-1.93zm22.7-83.25a5.36 5.36 0 0 1-.42 2.51 5 5 0 0 1-1.86 1.6c-.28.06-.84.3-.7.57a19.61 19.61 0 0 0 1.5 1.54 3.08 3.08 0 0 0 1.1.72 2.37 2.37 0 0 0 1.31-.25 3.51 3.51 0 0 0 1.61-.84 4.83 4.83 0 0 0 .82-1.14c.15-.4.4-1.5.4-1.5a5.62 5.62 0 0 0-.32-1.58 20.13 20.13 0 0 0-2.07-1.42c-.23-.16-1.18-.71-1.37-.21z"/><path fill="#f9e5cc" d="M280.5 186.91c-.17-.22-2.37-1.54-2.77-2.28a26.41 26.41 0 0 0-1.9-2.49c-.06-.09-3.63-2.54-4.27-2.85a2.85 2.85 0 0 0-1.65-.34 2.06 2.06 0 0 0-.51.51s-1.69-.78-2.11-.47a.84.84 0 0 0-.23.89s-1.31-1-1.77-.4a1.12 1.12 0 0 0-.06 1.37c.15.15 0 .47-.34.84a.75.75 0 0 0 0 1.16c.42.3 5.36 3.36 5.36 3.74a1 1 0 0 1-.27.82c-.17.08-1.06.28-1.35.44a1.43 1.43 0 0 0-.93.74 1.09 1.09 0 0 0 .8 1 5.22 5.22 0 0 0 1.61-.32 9.63 9.63 0 0 1 1.58-.32 25.17 25.17 0 0 1 3.44.11 6.39 6.39 0 0 1 2.17 1l1.31 1.23a.58.58 0 0 0 .78 0c.22-.35 2.36-2.76 1.11-4.38zm-19.14-.88c-.06 0-2 3.1-3.23 3.68s-3.46 1.31-3.51 1.33a18.46 18.46 0 0 1-2.05 1.44c-.49.19-2 .8-2.73 1a12.17 12.17 0 0 0-1.46.51c-.09.08-2.07 3.44-2.07 3.44v2.13l.3 1.1a2.54 2.54 0 0 0-1.29.11 4.66 4.66 0 0 0 1.86 4.24 2.84 2.84 0 0 0 1.31.32 17.07 17.07 0 0 1 1.65 2.2c.36.49 4.39 4.67 4.43 4.81s.38 1.71.38 1.77.3 2.66.25 2.68a19.76 19.76 0 0 1-2.54 1.54 1.28 1.28 0 0 0-.68 1.69 6.3 6.3 0 0 0 1.6 2.91c1 .85 5.07 4.81 5.07 4.81l4.63 4.1s1.44 1.63 1.65 1.52a19.27 19.27 0 0 0 1.67-2.6c.17-.36 2.41-4.44 2.47-4.58s1.86-3.76 2.05-4.31 1.48-3.8 1-4.6-1.84-.38-2-.46-1.46-.72-1.56-.78.65-3.8.65-3.89 1.35-1.61 2-2.6a42.39 42.39 0 0 0 2.62-4.82c.21-.61.47-1.31.47-1.31a1.1 1.1 0 0 0 1.12-.4 6 6 0 0 0 1.31-3.08 2.68 2.68 0 0 0-.8-1.71 2.38 2.38 0 0 1-.59-.08c-.06-.06.19-3-.23-3.57a32.72 32.72 0 0 0-4-2.79c-.08-.08-3-.93-4.37-1.63a45.11 45.11 0 0 1-4.44-3 5 5 0 0 1-.94-1.12z"/><path fill="#fd8309" d="M273.91 205.32a1.36 1.36 0 0 0 .91.61.78.78 0 0 0 .91-.53 2.49 2.49 0 0 0 0-1.29 1.47 1.47 0 0 0-.66-.66 2.76 2.76 0 0 0-1 .47s-.55 1.12-.27 1.41.11-.01.11-.01zm-27.1-.36a1.39 1.39 0 0 0-.25 1.42 1.28 1.28 0 0 0 2.51.09 1.44 1.44 0 0 0-.61-.91c-.21-.22-1.1-.96-1.65-.6z"/><path fill="#efb000" d="M246.43 204.2c-.09-.08-1.58-2.26-1.2-3.06a1.39 1.39 0 0 1 1.27-.76c.08 0-.25-2.32.08-3.13s2.15-3.48 2.72-3.7 1.12-.27 1.6-.44a25 25 0 0 0 3.32-1.9 2.83 2.83 0 0 1 1.27-.55 5.94 5.94 0 0 0 1.27-.49c.32-.17 2.39-.89 3.25-2.05a8 8 0 0 0 1.12-1.84c0-.08.34-.21.34-.27a17.65 17.65 0 0 0 3.11 3 28.59 28.59 0 0 0 4.52 2.22c1.48.44 5.13 2.05 5.56 2.77a14 14 0 0 1 .65 3.72 1.39 1.39 0 0 0 .72 1c.42.09.7.34.63 1.18a8.57 8.57 0 0 1-1 2.92.74.74 0 0 0-.28.95 1.67 1.67 0 0 1 .43 1.26c-.11.44 0 .61-.4.74a1.1 1.1 0 0 1-1-.11c-.17-.19-.46-.59-.46-.59s-1.41 2.77-1.77 3.32-1.61 2-1.79 2.22-1 1.37-1 1.37a4.37 4.37 0 0 0-.47 1.14c0 .38-.32 1.56-.38 1.79a1.68 1.68 0 0 0 .53 1.41 4.62 4.62 0 0 0 1.18.7 3.57 3.57 0 0 1 1.6-.3c1.06 0 1.67.08 2 .4a9.4 9.4 0 0 0 1.35 1 1.73 1.73 0 0 0 1 .15 1.66 1.66 0 0 0 1.88-1 29.54 29.54 0 0 0 1.41-5.93c.15-1.5.63-6.59.36-7.94s-.4-6.74-.65-7.41-.95-4-1-4.1a3.81 3.81 0 0 0-.46-1.48 18.47 18.47 0 0 0-3.65-1.44c-.57 0-4.18.11-4.6.19s-1.9.08-1.77-.3a1.3 1.3 0 0 1 .91-1c.65-.21 2.17-.91 1.52-1.56a30.08 30.08 0 0 0-3.38-2c-.06-.09-2.39-1.39-2.18-2.15a1 1 0 0 1 1-.8c.08 0-1-1.14-.38-1.75a1.26 1.26 0 0 1 1.54.09.57.57 0 0 1 .57-.63 7.59 7.59 0 0 1 2.05.34.62.62 0 0 0 0-.61 18.14 18.14 0 0 0-5.11-2.7 5.69 5.69 0 0 0-3.11.34 8.41 8.41 0 0 0-3.3-.87 17.32 17.32 0 0 0-6.38 1.84 17.14 17.14 0 0 0-4 2.94 24.59 24.59 0 0 0-3.55 4.33 51.49 51.49 0 0 0-2.56 6.89c-.34 1.9-.93 6.36-.65 7.41a11.25 11.25 0 0 1 .17 3.27c0 1-.06 4.86.06 6.21a32.77 32.77 0 0 0 1.75 7.07c.72 1.56 1.54 3.8 2.15 4.33s1.29 1.75 1.61 1.67a2.45 2.45 0 0 0 1.16-.61c.25-.3 1.22-1 1.5-1.35s1-1.65 2.24-1.92 2-.32 2.32-.38a1.67 1.67 0 0 0 1-.46 1.79 1.79 0 0 0 .49-1.23c-.06-.28-1.29-3.87-1.31-3.93s-3.55-3.55-3.59-3.63-1.23-1.46-1.23-1.46a1 1 0 0 1-1.12.66c-.8-.17-1.71-.59-1.63-1.16a3.7 3.7 0 0 1 .47-1.33 2.6 2.6 0 0 0-.32-.52z"/><path fill="#f6c966" d="M241.6 200.76a67.59 67.59 0 0 0 1 8.47c.68 3.06 3.41 8.88 4.57 10.07s-.69 2-.69 2a6.21 6.21 0 0 1-1.25-.88 80.46 80.46 0 0 1-3.73-8.59c-.06-.75-.85-7.15-.63-8.56a10.19 10.19 0 0 1 .73-2.51zm-.79-3.41a20.64 20.64 0 0 1 2.63-7.4 24 24 0 0 1 6.15-6.52 19.64 19.64 0 0 0-2.23 3.83c-.44 1.38-.19 1.72.09 1.63s2.35-3.07 3.07-3.86a13.75 13.75 0 0 1 4.83-4.08c2.73-1.25 3.61-1.22 3.64-.88s.19.47-.56 1a27.71 27.71 0 0 0-5 3.86c-2.7 2.6-5.11 7.18-5.93 8.34a31.81 31.81 0 0 0-3.07 4.83 14.44 14.44 0 0 0-.69 6.55s.82-3.51.85-3.7a13.38 13.38 0 0 1 1-2.13 16 16 0 0 0 .94-1.6l2.54-3.76a4.48 4.48 0 0 1 .63-1.51c.41-.5 1.72-2.2 1.82-2.29s1.91-3.2 2.54-3.83a25.08 25.08 0 0 1 2-1.79c.13-.06 1-.31 1-.31s-.72 1.54-.88 2a11.36 11.36 0 0 1-1.35 2.54 22.44 22.44 0 0 0-1.57 2.76 2.92 2.92 0 0 1-.75 1.1c-.16.09 2.51-1.72 2.82-2.1s.75-1.1 1-1.32 1.25-2 1.25-2 .94-2.2 1.32-2.92.75-1.16 1.07-1.79a13.72 13.72 0 0 0 .19-4.33.79.79 0 0 0-.94-.47 28.19 28.19 0 0 0-7 1.6c-3.54 1.35-5.49 2.29-6.18 3.1a16.06 16.06 0 0 0-2.67 3.58 51.58 51.58 0 0 0-2.2 6.68 16.85 16.85 0 0 0-.63 3.73c.21.86.27 1.46.27 1.46zm20.32-20.74a2.87 2.87 0 0 0-.09 1.63c.19 1 1.07 2.76.82 3.92a9.49 9.49 0 0 0-.19 4.17c.38 1 2 1.94 2.82 2.6a34 34 0 0 0 6 2.63c1.38.44 4 1.91 4.73 3s2 3.73 1.88 2.9a5.17 5.17 0 0 0-.22-2.82 7.78 7.78 0 0 0-4.64-3.79c-2.29-.82-3.61-2.67-5.46-3s-2.63-.6-3.14-1.72 0-3.83-.25-4.92-1.44-3.26-1.32-4 .28-1 .78-1.07-.84-.62-1.72.47zm17.32 18.04s.25 4.23.13 5.68-.22 7.78-1 10.22-1 3.42-1 3.42a27.56 27.56 0 0 1-1.25 3.32c-.41.66-.63.79-.2.88a14 14 0 0 0 1.52.25 1.09 1.09 0 0 0 .88-.34 6.67 6.67 0 0 0 .66-1.29 22.42 22.42 0 0 0 1.27-5.38c.14-2.18.39-6.51.42-7.54a49.24 49.24 0 0 0-.5-7.28c-.37-1.25-.5-2.73-.93-1.94z"/><path fill="#e7c3a0" d="M241.14 192.75a19.93 19.93 0 0 0-10-2.22c-5.56.33-9.91 3-12.92 4.68s-4.52 4.52-6.23 7.07-3.64 8.32-3.68 11.08a34.91 34.91 0 0 0 1.71 9.91 23 23 0 0 0 4.73 7.69 40.54 40.54 0 0 0 9.2 6.15 64.36 64.36 0 0 0 8.28 1.51 19 19 0 0 0 2.63-.17c0-.13 1.88-3.47 1.76-3.47s3.22-7.15 3.68-7.86 2.8-3.68 3.85-4.18 2.8-1.21 2.8-1.21a12.54 12.54 0 0 1-2.06-1.8 40.65 40.65 0 0 1-3.29-8.65c-.33-2.09-1-4.93-.84-5.73s.5-5.73.54-5.85a11.74 11.74 0 0 1-.67-2 35.77 35.77 0 0 1 .51-4.95z"/><path fill="#f4e8db" d="M240.59 195.73a19.91 19.91 0 0 0-17.48.46 24.94 24.94 0 0 0-8.07 6.82 23.74 23.74 0 0 0-3.39 10.25 21.29 21.29 0 0 0 1.51 8.74 19 19 0 0 0 5.44 7.82 23.4 23.4 0 0 0 8.36 4.93c1.42.33 7.4.54 7.4.54l2.22-.29s2.47-5.52 3.3-7.11a15.12 15.12 0 0 1 4.1-4.81c1.25-.71 2.76-1.42 2.76-1.42a6.17 6.17 0 0 1-2.13-1.88 84.51 84.51 0 0 1-3.55-10.58 49 49 0 0 1 0-8.66 2.4 2.4 0 0 0-.13-1.3 9.39 9.39 0 0 1-.34-3.51z"/><path fill="#fd8204" d="M230.9 213.66l-6.69-10.45-.92 1.8-.92.33-.17-2 .46-3.55h1.13l3.55 1.46-.13 1s-1 .17-1.21.17a3.79 3.79 0 0 0-1-.17c0 .13 7.28 11 7.28 11s1.34.17 1.51 1a2.47 2.47 0 0 1-.54 2 4.2 4.2 0 0 1-1.63 0l-6.82 4.6s1.3.33 1.42.42a1.63 1.63 0 0 1 .79.71 2.26 2.26 0 0 1-.54.88l-1.21-.17-3.51-.54a1 1 0 0 1-.08-1.38c.5-.92 1-2.68 1.25-3a1 1 0 0 1 1-.38 5.82 5.82 0 0 1 .08 1.67l1.25-.25 5.6-3.89v-1.25z"/><path fill="#d2a274" d="M228.1 199.81c0-.13-.13-1.3-.13-1.3l1.55-1 1 .13.13 6.61-.25.5-1.25-.13-.21-5.06s-.42.21-.54.25a.63.63 0 0 1-.3 0zm4.51-.46l.75.21a2.38 2.38 0 0 1 .71-.5.82.82 0 0 1 .84.25 2.83 2.83 0 0 1-.25.67l-2.38 3.35-.08 1 .67.38h3.64v-1.38l-2.22-.08a10.45 10.45 0 0 1 .75-1 11.09 11.09 0 0 0 1.59-2.72 2.08 2.08 0 0 0-1.42-1.88 3.13 3.13 0 0 0-2.34.33 2.07 2.07 0 0 0-.59.84z"/><path fill="#e7c3a0" d="M220.61 207.34s.42-1.76-.46-2.13a1.69 1.69 0 0 0-2 .46 3.93 3.93 0 0 0 0 1.55 1.25 1.25 0 0 0 .92.84c.45-.03 1.54-.43 1.54-.72zm0 16.48s.42-1.76-.46-2.13a1.69 1.69 0 0 0-2 .46 3.93 3.93 0 0 0 0 1.55 1.25 1.25 0 0 0 .92.84c.45-.05 1.54-.43 1.54-.72zm4.64 4.39s.42-1.76-.46-2.13a1.69 1.69 0 0 0-2 .46 3.93 3.93 0 0 0 0 1.55 1.25 1.25 0 0 0 .92.84c.46-.05 1.54-.43 1.54-.72z"/><path fill="#d2a274" d="M219.74 215.48c0-.46.25-3.63-.21-4.17a3 3 0 0 0-3.22-.46 2.51 2.51 0 0 0-1.3 2.34c0 .54.29 1.92 1.3 1.88a3.08 3.08 0 0 1 1.92.25 1.64 1.64 0 0 1-.12.75 1.4 1.4 0 0 1-1.46-.08 1.29 1.29 0 0 0-1-.17 3.39 3.39 0 0 0-.54.46 2.59 2.59 0 0 0 1.25 1.25 4 4 0 0 0 2 .08 2.35 2.35 0 0 0 1-.5 3.88 3.88 0 0 0 .54-1.42.47.47 0 0 0-.16-.21zm-1.8-1.87a1.94 1.94 0 0 1-.67.25.81.81 0 0 1-.59-.67 4.24 4.24 0 0 1 .21-1.21 2.23 2.23 0 0 1 1.34.13 3 3 0 0 1-.29 1.5zm12.2 13.71c0 .46-.25 3.63.21 4.17a3 3 0 0 0 3.22.46 2.51 2.51 0 0 0 1.3-2.34c0-.54-.29-1.92-1.3-1.88s-1.76.17-1.84 0a3.27 3.27 0 0 1 0-1 1.4 1.4 0 0 1 1.46.08 1.29 1.29 0 0 0 1 .17 3.39 3.39 0 0 0 .54-.46 2.59 2.59 0 0 0-1.25-1.25 4 4 0 0 0-2-.08 2.35 2.35 0 0 0-1 .5 3.88 3.88 0 0 0-.54 1.42.47.47 0 0 0 .2.21zm1.8 1.87a1.94 1.94 0 0 1 .67-.25.81.81 0 0 1 .59.67 4.24 4.24 0 0 1-.21 1.21 1.94 1.94 0 0 1-1.23-.16 3 3 0 0 1 .19-1.47z"/><path fill="#e7c3a0" d="M239.15 227.74a1.42 1.42 0 0 1 .28-1.19 3.55 3.55 0 0 1 1.25-.56l-.47.91-.75 1.29z"/><path fill="#692f23" d="M252.54 195.03a13.83 13.83 0 0 1 3.43-1.32 6.19 6.19 0 0 1 2.28.15c.44.15.61-.52-.17-.75a6 6 0 0 0-2.8 0 7.19 7.19 0 0 0-2.74 1.65c-.65.7 0 .27 0 .27zm15.72-2.16a6.44 6.44 0 0 0-2.28-.08c-.75.21-.46.75.15.7a10.29 10.29 0 0 1 3.7.7 8.23 8.23 0 0 1 1.11.44s.59 0-.17-.55a10.78 10.78 0 0 0-2.51-1.21zm-16.68 26.5a6.3 6.3 0 0 0-1.84 2.34l-.37-.28a4.56 4.56 0 0 1 2.39-2.41zm.77 2.06a5.74 5.74 0 0 0-1.22 1.13 1.19 1.19 0 0 0-.35 1.07h.39a3.15 3.15 0 0 1 1.34-1.81c.97-.48-.16-.39-.16-.39zm1.54 1.92a8 8 0 0 0-1.16 2.45c-.06.82.34.47.34.47a13.7 13.7 0 0 1 1.13-2.63c.36-.34-.31-.29-.31-.29zm1.63 1.91a7.43 7.43 0 0 1-.34 1.41 8 8 0 0 1-.53 1l.44.31a10.25 10.25 0 0 0 .87-2.4c0-.6-.44-.32-.44-.32zm2.07 1.54l-.91 2.73.46.25.8-2.98h-.35m1.79 1.69l-.94 2.64h.25l1.04-2.39-.35-.25m1.79 1.69a9.43 9.43 0 0 1-1.1 2.51l.38.18a9.16 9.16 0 0 0 1.13-2.34c-.02-.5-.41-.35-.41-.35zm1.64 1.72s-1 2.22-.83 2.51a2.11 2.11 0 0 0 .4.44l.83-3h-.4zm1.81 1.64l-.47 3.23.23.25.4-3.32-.16-.16m.72-.22l2.04 2.48.28-.56-2.16-2.42-.16.5m1.41-2.32l2.1 2.42.13-.41-2.17-2.51-.06.5m3.45-.22c-.16-.09-2.39-1.75-2.39-1.75l.22-.41 2.35 1.76zm-1.22-4.14l2.45 1.57-.23.31-2.44-1.5.22-.38m.93-1.66l2.45 1.29.09-.31a17.84 17.84 0 0 0-2.51-1.35c-.37-.04-.03.37-.03.37zm1.07-2.29l2.54 1.25v-.5a16.65 16.65 0 0 0-2.45-1.07c-.56-.09-.09.32-.09.32zm.83-1.66a2.69 2.69 0 0 1 1-.16 4.56 4.56 0 0 1 1.6.82c.34.31-.16 0-.16 0l.38-.47a13.12 13.12 0 0 0-2-.72 2.91 2.91 0 0 0-.91.13zm.71-2.29a2 2 0 0 1 1 0 7.33 7.33 0 0 1 1.51.66l-.19-.66a7.43 7.43 0 0 0-2.32-.63c-.44.19 0 .63 0 .63zm-28.71 4.04a1.48 1.48 0 0 1 .78-1.22 2 2 0 0 1 1.47-.06zm-3.06 3.45a2.61 2.61 0 0 0-1.16.56.9.9 0 0 0 .09 1.13l-.44.53a1.61 1.61 0 0 1 0-1.94 1.52 1.52 0 0 1 2-.63zm-.16-29.95a19.25 19.25 0 0 0-7.46-2c-4.42-.28-7.43 1.1-11.29 3s-6 5.49-7.31 7.75a19.52 19.52 0 0 0-2.48 8.91 22.51 22.51 0 0 0 2.48 10.19 20.78 20.78 0 0 0 7.34 7.84 19.29 19.29 0 0 0 8.44 2.89 18.62 18.62 0 0 0 6.21-.34l-.38 1.1a31.14 31.14 0 0 1-7.53-.13c-3.39-.6-9.25-3.67-11.57-6.4a23.49 23.49 0 0 1-5.33-10.16 20.65 20.65 0 0 1 1-12.45 21 21 0 0 1 8.22-9.5c3-1.76 6.74-3.39 10.54-3.45s7.68.85 9.19 1.79z"/><path fill="#692f23" d="M240.94 193.03a26.39 26.39 0 0 0-7.34-1.91c-3.42-.22-5.49-.06-11.17 2.26a20.55 20.55 0 0 0-8.69 6.74 44.75 44.75 0 0 0-4.36 9.06c-1.19 3.83-.38 9.16.44 11.82s2.85 7.4 6.15 10.48a26.17 26.17 0 0 0 8.56 5.36 27.88 27.88 0 0 0 8.06 1.41 18 18 0 0 0 2.48-.19l-.31 1a25.87 25.87 0 0 1-6.49-.38 26.83 26.83 0 0 1-11.46-5.36 23.44 23.44 0 0 1-8-12.17 23 23 0 0 1-.41-11 23.79 23.79 0 0 1 5-11 23.51 23.51 0 0 1 9.22-6.87 22.77 22.77 0 0 1 10.66-2.07 17.58 17.58 0 0 1 7.84 2z"/><circle cx="232.5" cy="214.79" r="1.54" fill="none" stroke="#692f23" stroke-miterlimit="10"/><path fill="#692f23" d="M231.43 211.4l-5.24-8.25s-.6-.66.31-.56 1.31-.23 1.31-.56.13-.82-1-1.25a28.9 28.9 0 0 0-4-1.41c-.41 0-.53.28-.63 1s-.41 4.27-.41 4.27a1.1 1.1 0 0 0 .63 1.07 1.17 1.17 0 0 0 1.29-.63 2.56 2.56 0 0 1 .38-1c.19-.06.38 0 .6.47s6.24 9.57 6.24 9.57l.34-.44-7.72-11.7-.41 2.7s-.34 1-.69 0l.28-4.08a.54.54 0 0 1 .16-.38.7.7 0 0 1 .53 0l3.48 1.22a.54.54 0 0 1 .22.53.65.65 0 0 1-.56.22l-2.38-.72 7.81 11.79.66-.09zm-.69 3.48l-5.9 3.79s-.69.31-.56-.53a.9.9 0 0 0-.56-1.22.91.91 0 0 0-1 .63 31.09 31.09 0 0 0-1.57 3.86c-.09.47-.19 1 .66 1.1s4.27.5 4.58.53a.91.91 0 0 0 .85-.78 1.22 1.22 0 0 0-1-1.25c-.69-.25-1-.38-.16-.88s5.9-3.64 5.9-3.64l-.63-.31-7.78 5s2.35.41 2.76.44a.32.32 0 0 1 .34.44.69.69 0 0 1-.85.41c-.6-.06-3.67-.47-3.67-.47s-.6 0-.31-.78 1.22-3.32 1.22-3.32.69-.78.75 0a8.28 8.28 0 0 1-.66 2.54l7.81-5z"/><path fill="#692f23" d="M230.96 197.88a.58.58 0 0 0-.41-.44h-.91a1.51 1.51 0 0 0-.72.27l-1 .63a1.13 1.13 0 0 0-.26.33v1.21a.49.49 0 0 0 .58.44l.56-.31s-.08 3.94 0 4.44a.51.51 0 0 0 .44.52h1.3a.42.42 0 0 0 .39-.38s.06-6.38.03-6.71zm-1.57 6.54v-4.74a.37.37 0 0 0-.47-.36 5.08 5.08 0 0 0-.66.39v-.94l.49-.31.28-.16.5-.33h.88v6.45h-1zm7.42-1.1a.49.49 0 0 0-.41-.31h-1.74a10.71 10.71 0 0 0 2-2.82 2.08 2.08 0 0 0-.8-2.54 3.34 3.34 0 0 0-2.87 0 6.47 6.47 0 0 0-.91.85.5.5 0 0 0 0 .64 9.66 9.66 0 0 0 .72.66l.19.14a.69.69 0 0 0 .71-.38.94.94 0 0 1 .6-.31.4.4 0 0 1 .34.61c-.16.31-2.48 3.15-2.59 3.32a1 1 0 0 0-.2.61c0 .27.06.86.06.86a.56.56 0 0 0 .5.31c.44.08 4 0 4 0a.49.49 0 0 0 .38-.47 5.44 5.44 0 0 0 .02-1.17zm-4.38 1.13v-.93s2.62-3.2 2.74-3.48a1 1 0 0 0-.36-1.22 1.14 1.14 0 0 0-1.27.16.07.07 0 0 0 0 .05l-.35.28a5.28 5.28 0 0 1-.61-.52 2.11 2.11 0 0 1 1.41-.91 2.06 2.06 0 0 1 2.12.8 1.64 1.64 0 0 1-.08 1.71c-.16.24-1.9 2.45-1.9 2.45s-.45.55.14.74l2 .06v.78zm-12.4 7.58a2.1 2.1 0 0 0-1.28-1.52 2.22 2.22 0 0 0-.82-.22h-.61a2.58 2.58 0 0 0-1.77.74 2.76 2.76 0 0 0-.71 1.83 2.68 2.68 0 0 0 .67 1.94 2.37 2.37 0 0 0 1.8.64h.6a.51.51 0 0 1-.3.61.75.75 0 0 1-1-.44.54.54 0 0 0-.61-.14 8.37 8.37 0 0 0-1 .45.49.49 0 0 0-.14.6 2.38 2.38 0 0 0 1.52 1.4 3.78 3.78 0 0 0 2.07-.08 2.06 2.06 0 0 0 1.32-1.22 39.18 39.18 0 0 0 .26-4.59zm-1.55 5.21a2.78 2.78 0 0 1-2.4-.11 2.26 2.26 0 0 1-.61-.75l.8-.39a1.54 1.54 0 0 0 1.16.66 1 1 0 0 0 1-.8v-.78s0-.07-.51-.06a3.06 3.06 0 0 1-1.51-.21 1.68 1.68 0 0 1-1-1.52 2.25 2.25 0 0 1 .41-1.72 2.73 2.73 0 0 1 1.05-.63 3.12 3.12 0 0 1 .7-.08 2.25 2.25 0 0 1 1.58.67 2 2 0 0 1 .33 1.07v3.23a1.63 1.63 0 0 1-1 1.44z"/><g fill="#692f23"><path d="M232.13 231.11a1.33 1.33 0 0 0 .61 0 1 1 0 0 0 .73-.56 4.36 4.36 0 0 0 0-1.23.73.73 0 0 0-.65-.63 1.11 1.11 0 0 0-1.21.45 4 4 0 0 0 0 1.37.73.73 0 0 0 .52.6zm-.06-1.51a.45.45 0 0 1 .49-.37.44.44 0 0 1 .36.31v.79a.37.37 0 0 1-.41.31.37.37 0 0 1-.41-.25z"/><path d="M229.92 230.79a1.91 1.91 0 0 0 1.27 1.57 2.44 2.44 0 0 0 .83.17h.94a2.26 2.26 0 0 0 1.44-.72 2.53 2.53 0 0 0 .71-1.83 2.68 2.68 0 0 0-.67-1.94 2.3 2.3 0 0 0-2.07-.72.46.46 0 0 0-.33.09.54.54 0 0 1 .3-.61.81.81 0 0 1 1.06.43.48.48 0 0 0 .56.08c.39-.14.9-.39.9-.39a.49.49 0 0 0 .14-.6 2.38 2.38 0 0 0-1.52-1.4 3.67 3.67 0 0 0-2 0 2.06 2.06 0 0 0-1.45 1.35c-.14.48-.11 4.52-.11 4.52zm1.55-5.21a2.78 2.78 0 0 1 2.4.11 2.26 2.26 0 0 1 .61.75l-.8.39a1.54 1.54 0 0 0-1.16-.66.93.93 0 0 0-1 .67v.88a.33.33 0 0 0 .45.28 1.87 1.87 0 0 1 1.52 0 1.7 1.7 0 0 1 1 1.52 2.36 2.36 0 0 1-.41 1.72 2.31 2.31 0 0 1-1.08.66 2.43 2.43 0 0 1-.65.05 1.86 1.86 0 0 1-1.59-.67 1.5 1.5 0 0 1-.33-1.07v-3.23a1.63 1.63 0 0 1 1.04-1.39z"/></g><g fill="#692f23"><path d="M252.81 200.09a1.36 1.36 0 0 1 .2.39 1.87 1.87 0 0 1 .39-.06 2.38 2.38 0 0 1 .21.37c.07 0 .3-.15.48-.15a2.58 2.58 0 0 1 .39.27 1 1 0 0 1 .45-.24 1.14 1.14 0 0 1 .54.19.66.66 0 0 1 .38-.32.46.46 0 0 1 .36.2.74.74 0 0 1 .4-.38 1.07 1.07 0 0 1 .65.16 1.37 1.37 0 0 1 .48-.54.72.72 0 0 1 .63 0 .66.66 0 0 1 .61-.28c.36-.05.33-.2.21-.31a1.28 1.28 0 0 0-1-.25 13.23 13.23 0 0 1-3.3.54 2.23 2.23 0 0 1-1.65-.63 2.27 2.27 0 0 1 1.23-2.07 4.92 4.92 0 0 1 3-.19c.14 0 .42.09.06-.13a3.22 3.22 0 0 0-1.32-.31 3.69 3.69 0 0 0-2.79.89 2.37 2.37 0 0 0-.68 2c.11.09.39.18.22.24a.82.82 0 0 0-.44.47c0 .08.1.08.29.14zm13.21-.8a.46.46 0 0 1 .38.43.47.47 0 0 1 .45-.15 1 1 0 0 1 .38.41.85.85 0 0 1 .39-.09 4.29 4.29 0 0 1 .52.45 1.84 1.84 0 0 1 .46-.29c.18 0 .58.22.67.22a1.35 1.35 0 0 1 .4-.29c.17 0 .44.25.51.23a3 3 0 0 1 .23-.41 2.33 2.33 0 0 1 .46-.05.85.85 0 0 1 .07-.53c.15 0 .36 0 .4-.07a.74.74 0 0 0 .26-.36 4.36 4.36 0 0 0-.43-.48c-.27-.39-.08-.71-.35-1a4.47 4.47 0 0 0-3-1.47 4.28 4.28 0 0 0-1.56.23c-.65.27-.58.51-.58.51a1.89 1.89 0 0 0 .4-.2 4.47 4.47 0 0 1 3 .13c1.57.66 1.64 1.8 1.52 2s-.51.52-1.79.52a11.08 11.08 0 0 1-2.59-.44 1.15 1.15 0 0 0-.93.6c-.36.51.36.03.73.1zm-5.27 5.83a3.13 3.13 0 0 0 1.63.61 2.82 2.82 0 0 0 1.68-.67c.32-.29.17-.4 0-.29a5.09 5.09 0 0 1-1.7.29 5 5 0 0 1-1.23-.2c-.92-.22-.46.17-.38.26zm2.15 3.27c-.21 0-.74-.18-1.17-.18a16 16 0 0 0-2.79 1.5s-.13.13.06.08a12.3 12.3 0 0 0 1.32-.38 6.68 6.68 0 0 1 1.68-.38c.33 0 .86.07 1 .07a11.42 11.42 0 0 1 1.32-.07c.32 0 1.48.54 1.83.56s.53-.06.3-.25a11.14 11.14 0 0 0-2.23-1.14 10.13 10.13 0 0 0-1.32.19zm1.15 2.14l-1.74-.06a8.23 8.23 0 0 1-.83 0 .34.34 0 0 0-.21.63 2.48 2.48 0 0 0 1.26.07 9.35 9.35 0 0 0 1.33 0 .51.51 0 0 0 .49-.5c.03-.18-.06-.14-.3-.14zm-.24 11.67a1 1 0 0 0 .92-.54c.13-.25 0-.22 0-.22a4.3 4.3 0 0 1-.91.22 4.06 4.06 0 0 1-1-.11c-.14 0-.28 0-.16.14a1 1 0 0 0 1.15.51zm11.59 65.41c1.19-.56 1.66 0 2.45-.22s1.38-1.22 2-2.07a19 19 0 0 1 2.95-3c.72-.5.6-.63.44-.72s-.5-.22-1.57.6a19.88 19.88 0 0 0-3 3.1 3.41 3.41 0 0 1-2 1.41 7.41 7.41 0 0 0-1.69.66c-.45.66.42.24.42.24zm10.29-4.23a16.88 16.88 0 0 1 2 0c.5 0 1.29 0 1.38-.3s-.25-.5-.75-.56-1.91-.13-1.91-.13a1.35 1.35 0 0 0-1.07.31.382.382 0 0 0 .35.68z"/><path d="M300.32 199.84c-1.94-1.82-8.5-9.25-11.7-10.76s-4.11-.56-4.58-.82a22.45 22.45 0 0 1-2.1-1.76 1.64 1.64 0 0 0-1.22 0 1.79 1.79 0 0 1-1.69-.75 5.42 5.42 0 0 1-1.17-1.53 6.59 6.59 0 0 0-1.28-1.67 16.44 16.44 0 0 0-6.23-3.89 1.18 1.18 0 0 0-.52.06 11.91 11.91 0 0 0-3.54-2.11 7.72 7.72 0 0 0-4.31-.82 1.61 1.61 0 0 0-1.21.54s-1-1-4.24-.79-7.15 2.71-8.34 3.86c-1 1-1.82 2-2.38 2.53l-.31.26c-.07 0-.09.07-.07.06a6.66 6.66 0 0 0-1 1.12 20.22 20.22 0 0 0-2.51 5.23 40.84 40.84 0 0 0-1.4 7.92 18.75 18.75 0 0 0 .17 3.45c.1.77-.46 5.54-.42 6.34a7.72 7.72 0 0 0 .42 2c.19.61 1.32 6.77 2.22 8.84a20.11 20.11 0 0 0 2.78 4.24 15.32 15.32 0 0 0-2.66 1.86c-2 1.59-3.74 4.93-4 5.37a7.36 7.36 0 0 0-.44 1.24c-.1.31-2.8 5.77-3.87 8.66s-2.61 8.3-2.95 9.79-1.09 4.43-1.38 6.54a20.27 20.27 0 0 0 0 5.6 17.5 17.5 0 0 0 4.06 5.48c1.81 1.52 7 4.29 8.84 5.7-1.51 2.63-4.39 12.22-4.41 17.12 0 2.48.63.28.63.28s.35-2.14.79-4.35a77.82 77.82 0 0 1 3.83-12.42 28.33 28.33 0 0 0 5.31 2.82c.61.15 1.21 1.07 2 1.23a3.51 3.51 0 0 1 3.3 1.11 22.68 22.68 0 0 1 2.32 1 1.51 1.51 0 0 1 .84.67 2.43 2.43 0 0 0 .77.79 9.72 9.72 0 0 0 2 2 4.84 4.84 0 0 0-.82 1.18 2.92 2.92 0 0 0-.44 2.32 3 3 0 0 0 1.57.66c.44.09 6.37 1.54 7.15 1.6l3.1.25a17 17 0 0 0 1.67 3l1.33.46-1.71-2.92s-.19-.44.78.16 1.94.88 2.48 1.32a24.44 24.44 0 0 1 2.4 3l.62.23.49-.21a22.23 22.23 0 0 0-2.29-3.46c-.6-.44.88-.22 1.66-.31s1.85-.6 2.57-.63a19.92 19.92 0 0 0 4-.91c1.41-.47 2.1-1.91 3.07-2.16s3.29 0 4-.56.8-.94.58-2.1a6.19 6.19 0 0 0-2.95-3.92c-1.72-.94-2.73-1-3.51-1.44s-3.42-2.66-4.48-3.27-2.89-.3-4.14-1-2.63-3.07-3.83-3.54-5.29 1.09-6.18 1.71a.05.05 0 0 0-.06 0s-3.83-5.83-3.86-5.93-.44-.78.63-.88a77.46 77.46 0 0 1 13.93-1.19 165.57 165.57 0 0 1 16.87 1c.31.06 1.63.16 0-.63s-11.54-1.35-15.05-1.16a14.28 14.28 0 0 0-2.1-2.07c-.78-.5-1.69-1.38-1.63-2s.82-1.16 1.1-3.45a9.25 9.25 0 0 1 1.44-4c.16-.28 2.35-3.39 2.85-5.71a36.19 36.19 0 0 0 .38-6.27c.06-.91.63-3.54 3-7.06s8.47-10.29 9-10.91 4.33-5.39 5.52-7.12 3.19-5.08 3.32-6.81-.87-5.49-2.81-7.31zm-18.41-12.1c.28-.31.63 0 1 .25a5 5 0 0 1 1.38 1.63 3.53 3.53 0 0 1 .12.47 13.81 13.81 0 0 0-2.71-1.78 1.48 1.48 0 0 1 .21-.57zm-.82 2.29a4.3 4.3 0 0 0 .48-1.27 1.89 1.89 0 0 1 .9.36c.3.28 1.55 1.07 2 1.5a2.52 2.52 0 0 1-.33 1.23l-.18.31s-1.32-1-1.65-1.38a3.64 3.64 0 0 0-1.28-.6zm2.82 2.13a4.51 4.51 0 0 1-.29.39zm-3.1-1.77a2.88 2.88 0 0 1 1.25.67c.5.53 1.55 1.49 1.56 1.49a4.45 4.45 0 0 1-1.15 1 4.89 4.89 0 0 1-1.47-.85 11.89 11.89 0 0 1-1.24-1.37 7.41 7.41 0 0 0 1.05-.97zm-.66 11.46c-.15-2.49-.67-6.59-.79-7.07s-.56-1.65-.5-1.61a8.69 8.69 0 0 1 .92.82 2.27 2.27 0 0 1 .4 1.13 3.75 3.75 0 0 0 .58 2.19c.75 1.54 4.64 5.86 4.89 6.18a54.41 54.41 0 0 1 4.11 3.79c.13.38.09.44-.28.75s-2 1.1-2.6 1.54a32.49 32.49 0 0 0-3 2.89 5.51 5.51 0 0 1-1.29 1.07c-.41.31-3.91 3.22-3.91 3.22a57.47 57.47 0 0 0 1.28-6.44 73.38 73.38 0 0 0 .19-8.49zm.27-8c-.25-.15-1.71-1.34-1.67-1.67a.67.67 0 0 1 .54-.48l.25-.17a7.72 7.72 0 0 0 1.27 1.5 4.66 4.66 0 0 0 1 .73 3.35 3.35 0 0 1-.58.08 1.38 1.38 0 0 1-.81-.07zm-9.47-14.43c.86.08 3.26 2 3.53 2.09a7.84 7.84 0 0 1 1.07.92c-.31-.08-.31 0-.31 0a1.62 1.62 0 0 1 .63.23 10.9 10.9 0 0 1 1.92 2.74 4.16 4.16 0 0 0 1.14 1.16s1.41.63 1.54 1.38a3.11 3.11 0 0 1-.63 2.35 2.54 2.54 0 0 1-1 .74 21 21 0 0 1-1.82-1.32 4.09 4.09 0 0 0-2.07-.82h-2.51a10.06 10.06 0 0 0-2.84.31c-1.78.29-1.67-.23-1.42-.63s1.17-.36 1.63-.63a16.12 16.12 0 0 1 2.73-1.35 13.46 13.46 0 0 1 2.45 0c.23 0 .44-.7-.33-.72a14.18 14.18 0 0 0-2.68.38 3.06 3.06 0 0 1-1.48.21 56.7 56.7 0 0 1-5.44-3.58c-.27-.33-.31-.56 0-.82s2.22.46 3.07.94a11.42 11.42 0 0 0 1.88 1.07c0-.13.06-.4-.46-.75s-3.6-1.86-4-2.26-.48-1.11.29-1.19 5.29 2.93 5.29 2.93.4-.1.21-.36-3.62-2.11-3.91-2.53 0-.54.65-.49 4.39 2.7 4.49 2.58a.38.38 0 0 0 0-.33c-.3-.23-2.84-2-2.84-2 .08-.29.36-.41 1.22-.33zm-8.78-3c1.34-.29 3.37.61 4.64 1.28a9.46 9.46 0 0 1 2.38 1.74 3.55 3.55 0 0 0-1.8-.5c-.75.1-.63.61-.63.61-.23-.06-1.28-.61-1.84 0s.31 1.86.31 1.86c-1.84.42-.41 1.67-.41 1.67a36.07 36.07 0 0 0 4.78 3.39c.44.31.42.52.13.75s-1.88.63-2.15 1.42 0 1.25.71 1.28a5.13 5.13 0 0 0 1.55-.27 5.71 5.71 0 0 1 2.07-.27 15.47 15.47 0 0 1 3.72 2.2c.5.4 1.23 1.84 1.34 1.76a2.88 2.88 0 0 0-.63-1.9 6.82 6.82 0 0 0-2.45-1.9 3.79 3.79 0 0 1 1.78.19 23 23 0 0 1 2.11 1.57 1.89 1.89 0 0 0 0 .88 9.56 9.56 0 0 0 .42.92 59.32 59.32 0 0 1 1.21 10.87 49.1 49.1 0 0 1-.52 9.35c-.42 1.69-1 4-1.48 4.5s-.71.17-1.07.1-1.4.13-1.13-.13a9.36 9.36 0 0 0 1.23-2.07 13.81 13.81 0 0 0 .61-4.06v-4.85c-.33-.15-.84 3.85-.79 5.6a10.28 10.28 0 0 1-1.09 4.08 1 1 0 0 1-1 .75l-1-.44a2.24 2.24 0 0 0-1.07-.4 5.42 5.42 0 0 0-2.17.21 3 3 0 0 1-1.09-.65c0-.23.67-3.18.75-3.51a1.3 1.3 0 0 1 .48-.61 21.34 21.34 0 0 0 3.18-4.77 6.15 6.15 0 0 0 .67-1.25 1.09 1.09 0 0 0 1.65.41c.75-.38.31-1.88.31-1.88a1.29 1.29 0 0 1-.25-1 3.88 3.88 0 0 0 1.23-2.22c.4-1.65.13-2.22-.31-2.59s-.88 0-.9-.63.06-1.65 0-1.91a6.39 6.39 0 0 0 1.07 1.79c.38.23.5.12.5.12a9.36 9.36 0 0 0-1.53-3.32 13.68 13.68 0 0 0-5.54-3.39c-2.43-.92-5.68-2.32-6.61-3.22-1.69-1.46-1.63-2-1.71-2.72a27.33 27.33 0 0 1 .15-3 9.4 9.4 0 0 0-.61-3.51c-.23-.95-.56-2.15.8-2.44zm-10.36 44.36c.27 1 2.84 3.85 4.16 4.85s7.88 7.21 8.15 7.65a1 1 0 0 0 1.11.59c.25-.19 4.68-8.22 5.81-10.77a39 39 0 0 0 1.57-4.05.16.16 0 0 0 0-.07 2.67 2.67 0 0 0-.09-1.19c-.17-.58.26-.56.26-.56a5.15 5.15 0 0 1 1.29.73 1.26 1.26 0 0 1 .7 1.18.8.8 0 0 0 0 .12 14.54 14.54 0 0 1-.75 3.3 44.13 44.13 0 0 1-2.17 4.35c-.33.63-2.72 5.81-3.28 6.86s-2.59 4.12-3.12 3.89-3.78-3.85-4.1-4.14-3.32-3.14-5.67-5.14-6.08-6.35-6.27-7.35a2.39 2.39 0 0 1 .77-2.11 7 7 0 0 1 1-.77c.31-.19.52-.21.42.13a6 6 0 0 0 .21 2.5zm-3.58-15.22c.27 0 .25.19.38.48a.71.71 0 0 1-.75.92 1.07 1.07 0 0 1-1.11-1.11c0-.73.64-.53.63-.46a1.55 1.55 0 0 0 .84.17zm0-.52a3 3 0 0 1-1.91-1.48c-.59-.75-1-1.84-.66-2.36s.66-.23.66-.23l.21.58s-.44-.06-.27.75a1.28 1.28 0 0 1 1.46.69 1.11 1.11 0 0 0-.1-.77 9.58 9.58 0 0 1-.54-1.53 6.32 6.32 0 0 1-.21-3c.36-1 1.55-3.09 2.38-3.55s2.1-.74 2.78-1.11c.94-.5 1.51-1.17 2.09-1.42a22.94 22.94 0 0 0 4.66-2 15.45 15.45 0 0 0 2.85-2.63 14.14 14.14 0 0 0 1.87 1.67 18.66 18.66 0 0 0 2.17 1.42c.69.31 3.07 1.21 4.2 1.74s3.55 1.48 4.22 2.34.9 3.53.73 4.35-.42 2.59-.44 3-.1.82.23.52a11.68 11.68 0 0 0 .69-1.63.87.87 0 0 1 .65 0c.17 0 .31-.58-.52-.56v-.82a.74.74 0 0 1 .67 0c.44.17.48 1.32.12 2.15a3.91 3.91 0 0 1-1.15 2 1.35 1.35 0 0 1-.88.21s-1.23 3.22-1.36 3.47a21.57 21.57 0 0 1-3.89 5.19 12.1 12.1 0 0 1-5.9 3 8.5 8.5 0 0 1-4-1 15.21 15.21 0 0 1-4.91-2.63 18.74 18.74 0 0 1-4.45-4.91 2 2 0 0 0-1.5-1.46zm-2.19-4.83a.89.89 0 0 0-.55 0 6.29 6.29 0 0 1 .46-.85 2 2 0 0 1 .06.73zm29 5.38a.61.61 0 0 1-.79-.25 1.45 1.45 0 0 1 .15-1.23.52.52 0 0 1 .9.17.16.16 0 0 0 0 .06c.17.26.33 1.09-.29 1.24zm-20.11 11.9c.09-.15.2-.25.52-.07a12.42 12.42 0 0 1 1.55 2v-.71a12.83 12.83 0 0 1-1.57-4.54c-.15-.54-.08-1 .25-.92s1.76.92 4.1 1.76a8 8 0 0 0 5.31.17c1.13-.38 3.07-2 3.37-2s.13 1-.1 1.65-.67 3.74-.67 3.74c.19-.25.86-1.71.86-1.71a23.76 23.76 0 0 1 3.09.92c.33.25.08 1.51.08 1.51-.33 1.13-1.42 3.55-1.71 4.35a34.75 34.75 0 0 1-2.32 4.77c-.79 1.21-2.72 4.52-2.72 4.52s-.56-.5-1.42-1.19-4.06-3.45-7.63-7-3.81-4.77-3.78-5.25.19-.56.73-.82a7 7 0 0 0 2-1.07zm-6.71-37.62a23.65 23.65 0 0 1 5.29-2.89c2.43-.79 5.29-1 6.17-.73s.7.41.25.62h-.31a24.59 24.59 0 0 0-4.87.82 59.43 59.43 0 0 0-6.21 2.47l-.21.11s-.76.41-.15-.4zm-3.7 38.74c-.4-.94-1.4-3.26-1.86-4.77a43.2 43.2 0 0 1-1.44-6.69 30.29 30.29 0 0 1 .59-7c.61-3 4.08-11.27 4.39-11.94s-.16 0-.16 0a47.4 47.4 0 0 0-3.84 8.89c-.23 1.21-.71 2-1 1.94s-.27-.5-.31-1.19a22.53 22.53 0 0 1 .33-4.16c.25-1.13 1.36-4.56 1.82-5.9a10.8 10.8 0 0 1 3.14-5.31 31.27 31.27 0 0 1 6.52-3.49c1.19-.36 6.5-1.74 7.23-1.61a1.19 1.19 0 0 1 .91.49 32.1 32.1 0 0 1 .59 5.8 10.82 10.82 0 0 1-.65 2.11 6.69 6.69 0 0 1-1.82 2.82 6.13 6.13 0 0 1-2.63 1.59s-.94.13.1-.77a4.53 4.53 0 0 0 1.34-2.63c0-.29-.31.23-.82 1a24.7 24.7 0 0 1-3.05 3.47 12.57 12.57 0 0 1-3.24 1.8c-.79.21-1.53.61-1-.19s1.38-1.71 1.9-2.51a52.6 52.6 0 0 1 2.95-4.43 10.55 10.55 0 0 1 2.63-2s-.79-.27-2.55 1.21-2.76 3.72-4.93 6.54a33.74 33.74 0 0 0-3.58 6 27 27 0 0 0-1.46 2.66 16.83 16.83 0 0 0-.84 5.6c.21 1.21.4.48.46 0a26.13 26.13 0 0 1 .7-4.49v.28a3.47 3.47 0 0 0 1.46 2.8 2.51 2.51 0 0 0-.33 1.63 1.68 1.68 0 0 0 1.82 1.57c.9 0 1.11-.67 1.38-.38s-.1.61.61 2.51 1.63 3.93 2.4 4.56.42 0 .42 0a9.35 9.35 0 0 1-1.8-3.6 8.19 8.19 0 0 1-.29-1.86c.36.59 2.74 2.86 3.32 3.58s.94 4.08.94 4.08l-.44.27a3.61 3.61 0 0 1-.75.44 10 10 0 0 1-1.69.25 3.66 3.66 0 0 0-2.13.86 13.51 13.51 0 0 0-1.46 1.71 8.46 8.46 0 0 0-.27-2.1 9.77 9.77 0 0 0-1.11-2.73 23.34 23.34 0 0 1-1.32-3.87c-.21-1-.38-.5-.38-.5a10.3 10.3 0 0 0 1 4.27 34 34 0 0 1 1.53 4.37 1.22 1.22 0 0 1-1.15 1.61c-.89-.06-1.82-1.65-2.22-2.59zm13.28 58.19c-.1.9-.27.88-.5.94s-.79 0-2-.9a2.56 2.56 0 0 1-1.35-2.38 10.19 10.19 0 0 0 3.94 2c-.08.13-.08.24-.13.34zm.12-.57a13.14 13.14 0 0 1-4-2.14 2.57 2.57 0 0 1 .4-1.25l4.09 2.1a8.81 8.81 0 0 0-.54 1.29zm1.68-3.17a6.84 6.84 0 0 0-.73 1c-.1.16-.21.37-.32.61a320.9 320.9 0 0 1-4-2.18 5.66 5.66 0 0 0 .61-.8l.41-.25a17.5 17.5 0 0 1 3.98 1.59zm-3.43-2a4.72 4.72 0 0 1 .76-.36 2 2 0 0 1 1.1.19 17 17 0 0 1 2.54 1.25 4.44 4.44 0 0 0-.73.63c-.79-.33-2.97-1.39-3.72-1.69zm3.49 8.44a3.69 3.69 0 0 1-1.21-1.34 8.31 8.31 0 0 1 .61-2.68c1-2.36 2-2.51 2.82-2.61a22.62 22.62 0 0 1 4.22.92l.34.07s4.2.6 4.89.66 1 .19 1.07.56 0 .69-1.72.91a34.63 34.63 0 0 0-4 .63c-.43.16.35.38.86.34a3.58 3.58 0 0 1 1.57.19 21.32 21.32 0 0 0 3 1c.94.16 2.79.38 3 .78s.25.78-.53.91a17.12 17.12 0 0 1-4.45-.34c-1.47-.31-2.83-.82-3.14-.85s-.35.22 0 .41a26 26 0 0 0 4.4 1.25 11.78 11.78 0 0 0 3.85.13s.63.06.19.44-2.48.85-5.71.44c0 0-2-.44-2.35-.44s-.28.22 0 .47a6.56 6.56 0 0 0 2.51.78 23.67 23.67 0 0 0 4.48-.22s.16.31-2 .63a12.84 12.84 0 0 1-4.36 0c-.82-.16-1.07.09-.72.31a11.86 11.86 0 0 0 3 .47s.28.28-.22.38a11.08 11.08 0 0 1-4.74-.56 15.26 15.26 0 0 1-5.7-3.62zm8.08-6.5a1.87 1.87 0 0 1 .6-.78 12.59 12.59 0 0 1 3.16-1.52 3 3 0 0 1 2.32.25c.4.4.51 1.53 1.75 2.43s4.91 1.19 5.76 1.58 3.33 1.86 3.16 2.32-2.71.79-3.45 1-.45.56.23.51 2.33-.56 3.23-.34 4.45.51 6 2.37 2.15 2.82 1.64 3.56-2.82.4-3.9.62-2.43 1.75-3.62 2.2-4.12.23-5.25.62-2.77 1-4.07.73-3.78-1.64-6.33-1.75a43.86 43.86 0 0 1-8.42-1.58 1 1 0 0 1-.34-1.41 3.81 3.81 0 0 1 1.09-1.45l.13.07a22.47 22.47 0 0 0 6.93 1.94c2.35.06 3-.72 3.26-1s1.57-.09 2.45-.47a2.08 2.08 0 0 0 1.32-1.32 2.48 2.48 0 0 0 .94-.69.65.65 0 0 0-.41-.78.77.77 0 0 0 .46-1c-.33-.75-4.91-2-5.42-2.13s-1.41-.16-1.41-.16a13 13 0 0 0 3.1-.82c.53-.41 1.19-.94.56-1.57a4.48 4.48 0 0 0-2.73-.94 19.84 19.84 0 0 1-3.08-.15 1.15 1.15 0 0 0 .3-.31zm-.78-1.13a.81.81 0 0 1-.25 1c-.29 0-2.45-.25-2.45-.25s-2.54-3.61-2.76-4.17.16-2.57.56-2.76.82-.13 1.35.91 3.35 4.6 3.5 5.29zm11.23-9.16s-13 .06-16.21 1.57a1.08 1.08 0 0 0-.78.91 15.86 15.86 0 0 0-.5 3c.09.31 2.38 3.92 2.38 3.92a7.18 7.18 0 0 0-1.19-.08 13.2 13.2 0 0 0-3.48-2.15 1.23 1.23 0 0 1-1.07-1.19c-.19-1.16-.47-1.66-2.38-3.42s-4.33-3.42-4.64-4.17-.06-1.1 1-.94a81.47 81.47 0 0 0 10.79 1.16 73 73 0 0 0 11.57-.78 6.41 6.41 0 0 0 2-.85 22 22 0 0 0 2.46 3.04zm24.12-54.57c-.31 1.6-1.6 4-3.76 6.77s-5.55 7.12-6.62 8.22-5.77 6.05-6.77 7.72-1.63 3-1.63 3-.47.75-.38-.6a36.75 36.75 0 0 0 0-4.55 31.22 31.22 0 0 0-.63 4.48c-.09.94.16 1.63 0 2.26a6.39 6.39 0 0 1-.6 1.72c-.22.28-.75-.13-1-2.41a7.08 7.08 0 0 1-.11-2.72s-.66 0-.63 2.23a23.45 23.45 0 0 0 1 6.37 6.47 6.47 0 0 1 .09 3.92 22 22 0 0 1-2 4.23 10.37 10.37 0 0 0-1.71 3.39c-.19 1.07-.5 4-1.76 5.61s-2.38 1.94-5.14 2.38a73.92 73.92 0 0 1-11 .25 55.91 55.91 0 0 1-8.94-1.47c-1.22-.5-2.41-3.58-2.6-4.11s-1.85-4.7-1.79-6.68v-.21c0-.13.29-.8.43-1.17a45.25 45.25 0 0 0 .94-5c0-.63.06-3.48-.41-3.64s-.25 2.57-.41 2.7-1.32-4.08-1.57-4.11-.5 1.51-.19 2.1a13.53 13.53 0 0 1 1 4.14 47.42 47.42 0 0 1-1.15 7 30.91 30.91 0 0 1-1.52 4.55 2.26 2.26 0 0 1-.6.78l-.24.09a2.39 2.39 0 0 1-.77 0 13.32 13.32 0 0 0-2.85-.13 7.76 7.76 0 0 0-2.85 1.43 1.37 1.37 0 0 0-.63 1.07 2 2 0 0 0 1-.5 15.78 15.78 0 0 1 3.48-1.27 4.42 4.42 0 0 1 2.34.06c.2.19.5.33 0 .47a6.27 6.27 0 0 0-2.41.42 7 7 0 0 0-2.63 1.76c-.08.22-.08.58.83.17a16.24 16.24 0 0 1 3.9-1.32 5.36 5.36 0 0 1 3.62.91c.22.2 3.48 2.7 3.48 2.7l-.11-.88a23.17 23.17 0 0 0-3.51-3.17 4.11 4.11 0 0 0-1.19-.44 1.53 1.53 0 0 0-.27-.75s.2-.76.46-1.69c.41-1.19.92-2.68 1.06-3.22l.27-.1a.81.81 0 0 1 .19.37 56.24 56.24 0 0 0 2.45 6.62 3.51 3.51 0 0 1 .75 1.88.7.7 0 0 1-.22.5l.31 1.19 2.76 2.76c.63.63 3.89 3.1 4.3 4.36a1.12 1.12 0 0 1-.19 1.38s-.25.44-.66 0-.34-.94-.5-.72.19 1-.28 1.72c-1 1-1 1.43-1.67 2.1s-.82.44-1.69.47-1.57-.37-1.63-.18a1.54 1.54 0 0 0 1.28.69c.75.15 1.86 0 2 .94s-.65.88-1.67.75-2.53-1.55-3.16-2-3.74-2.36-6.13-3.72a52.26 52.26 0 0 1-7.34-5.23 13.58 13.58 0 0 1-3.47-4.54c-.54-1.46 0-5.33.67-8.64a106.09 106.09 0 0 1 3.26-11.69c1-2.78 4.06-9.62 4.29-10.14s.86-2 2-1.86 2.28 1.9 2.63 2.61.59.52.59.52a5.52 5.52 0 0 0-1.53-3.26 3.4 3.4 0 0 0-2.24-.71 12.61 12.61 0 0 1 4.56-4.39c1-.52 3-1.71 3-1.71.06 1.55 2 3.68 2.61 4.14s7.34 6.73 8 7.38 5.35 6.52 6.44 6.34 2.55-2.93 3.49-4.58 3.81-7.13 5.08-9.91a12.25 12.25 0 0 0 1.21-5h.08a.69.69 0 0 1 .29-.79 12.22 12.22 0 0 1 3 .5c.59.13.84.1.56-.21s-1-.23-.94-.78a1 1 0 0 1 .73-.7h.08a5.61 5.61 0 0 0 .92-.54c.38-.29 5.58-5.23 6.3-5.82a7.1 7.1 0 0 1 3.14-1.72c1.72-.47 4 .75 4.27.94s1.79.91 2.13.66.41-.6-.34-.82a16.2 16.2 0 0 1-3.07-1.29c-.31-.28.13-.28.13-.28s2.51.16 2.92.16a.63.63 0 0 0 .66-.6c0-.31-.06-.34-1.51-.19a6.51 6.51 0 0 1-3.26-.38 37.08 37.08 0 0 1-3.83-3c-.63-.63-3.07-3.14-3.92-4.17a22.11 22.11 0 0 1-2.57-3.89 2.83 2.83 0 0 1 .18-1.53 1.55 1.55 0 0 0 .83-.32 1.93 1.93 0 0 0 .31 1.47 8.64 8.64 0 0 0 1.6 1.41 1.42 1.42 0 0 0-.5-1.25 1.79 1.79 0 0 1-.78-1.76c.19-.5.82-.34 1.54-1.35s.63-1.82.94-2.07a2.42 2.42 0 0 1 2.38-.13s1.1.31-.27-.5-2-.22-2-.22a.6.6 0 0 1 .28-1 3.59 3.59 0 0 1 2.29.41 83.4 83.4 0 0 1 8.19 7.06c2.54 2.67 4.2 4.3 5.21 6.12a8.44 8.44 0 0 1 .97 5.4zm-56.59 42.59h-.14a.18.18 0 0 1 .14 0z"/><path d="M275.29 204.33h-.09s.23.4.09 0zm-24.48-19.11c.36-.21 1.65-2.11 2.53-2.86a15.43 15.43 0 0 1 4.89-2.15c1.42-.31 1.36-.29 1-.42a7.42 7.42 0 0 0-4.73 1 8.85 8.85 0 0 0-4.14 4c-.06.47.13.64.45.43zm22.87 62.03c-.66 0-3.36 1-4.61 1s-5.65-.72-7.87 0a4.64 4.64 0 0 0-2.82 1.94c-.25.69.28.25.28.25a16.44 16.44 0 0 1 3.58-1.57 13.39 13.39 0 0 1 3.39.06 40.49 40.49 0 0 0 4.7-.06 9.06 9.06 0 0 0 2.7-.75 8 8 0 0 0 1.54-.69c.17-.22-.23-.22-.89-.18zm.03-36.92a5 5 0 0 1 0 2.67c-.44 1.03-.9 2.03-.9 2.03s.22.61.69-.14a4.59 4.59 0 0 0 .85-2.66 6.28 6.28 0 0 0-.28-1.94s-.26-.77-.36.04z"/></g><path fill="#692f23" d="M219.72 204.45a1.7 1.7 0 0 0-1.34.33 1.72 1.72 0 0 0-.77 1.73 1.78 1.78 0 0 0 1.79 1.65 1.9 1.9 0 0 0 1.91-1.71 1.79 1.79 0 0 0-1.59-2zm1 1.94a1.25 1.25 0 0 1-1.26 1.13 1.18 1.18 0 0 1-1.18-1.09 1.14 1.14 0 0 1 .51-1.14 1.12 1.12 0 0 1 .89-.21 1.18 1.18 0 0 1 1 1.31zm-1.03 14.73a1.7 1.7 0 0 0-1.34.33 1.72 1.72 0 0 0-.77 1.73 1.78 1.78 0 0 0 1.79 1.65 1.9 1.9 0 0 0 1.91-1.71 1.79 1.79 0 0 0-1.59-2zm1 1.94a1.25 1.25 0 0 1-1.26 1.13 1.18 1.18 0 0 1-1.18-1.09 1.14 1.14 0 0 1 .51-1.14 1.12 1.12 0 0 1 .89-.21 1.18 1.18 0 0 1 1 1.28zm3.61 2.46a1.7 1.7 0 0 0-1.34.33 1.72 1.72 0 0 0-.77 1.73 1.78 1.78 0 0 0 1.79 1.65 1.9 1.9 0 0 0 1.91-1.71 1.79 1.79 0 0 0-1.59-2zm1 1.94a1.25 1.25 0 0 1-1.26 1.13 1.18 1.18 0 0 1-1.18-1.09 1.14 1.14 0 0 1 .51-1.14 1.12 1.12 0 0 1 .89-.21 1.18 1.18 0 0 1 1 1.31zm-8.18-13.43a1.33 1.33 0 0 0 .61 0 1 1 0 0 0 .73-.56 4.36 4.36 0 0 0 0-1.23.73.73 0 0 0-.65-.63 1.11 1.11 0 0 0-1.21.45 4 4 0 0 0 0 1.37.73.73 0 0 0 .52.6zm-.06-1.51a.45.45 0 0 1 .49-.37.44.44 0 0 1 .36.31v.79a.37.37 0 0 1-.41.31.37.37 0 0 1-.41-.25z"/></svg>
