<svg xmlns="http://www.w3.org/2000/svg" width="29.03" height="62.7" viewBox="0 0 29.03 62.7">
  <title>Домовенок2</title>
  <path d="M857.45,78.17c0-5.11,5.2-9.25,12.21-9.25s12.21,4.14,12.21,9.25c0,5.48-5.2,9.24-12.21,9.24S857.45,84,857.45,78.17Z" transform="translate(-855.16 -64.21)" style="fill: #e7c3a0;stroke: #692f17;stroke-miterlimit: 10;stroke-width: 1.29999995231628px"/>
  <path d="M859.62,69.8V72.3c0,1.22,4.38,2.21,9.77,2.21s9.77-1,9.77-2.21V69.8H859.62Z" transform="translate(-855.16 -64.21)" style="fill: #e3ddd3;stroke: #692f17;stroke-linecap: round;stroke-linejoin: round;stroke-width: 0.699999988079071px"/>
  <path d="M874.31,122.73a4.39,4.39,0,0,1,2.58-.55c1.71,0.07,3.47,1.66,1.78,3.56s-4.6,0-6.19-.28a2.07,2.07,0,0,1-2-2l0-.79Z" transform="translate(-855.16 -64.21)" style="fill: #e7c3a0;stroke: #692f17;stroke-miterlimit: 10;stroke-width: 0.699999988079071px"/>
  <path d="M866.32,122.73a4.47,4.47,0,0,0-2.61-.55c-1.73.07-3.51,1.66-1.8,3.56s4.65,0,6.26-.28a2.08,2.08,0,0,0,2.06-2l0-.79Z" transform="translate(-855.16 -64.21)" style="fill: #e7c3a0;stroke: #692f17;stroke-miterlimit: 10;stroke-width: 0.699999988079071px"/>
  <path d="M875.1,117.66l-0.7,4.87a0.53,0.53,0,0,1,0,.07c0,0.53-.9,1-2,1s-2-.43-2-1h0v-4.94h4.76Z" transform="translate(-855.16 -64.21)" style="fill: #e3ddd3;stroke: #692f17;stroke-linecap: round;stroke-linejoin: round;stroke-width: 0.699999988079071px"/>
  <path d="M865.53,117.66l0.71,4.87a0.45,0.45,0,0,0,0,.07c0,0.53.91,1,2,1s2-.43,2-1h0v-4.94h-4.81Z" transform="translate(-855.16 -64.21)" style="fill: #e3ddd3;stroke: #692f17;stroke-linecap: round;stroke-linejoin: round;stroke-width: 0.699999988079071px"/>
  <path d="M870.34,108.14h-6.66l0.68,9.22c0,1.7,1.34,2.46,3,2.46s3-.76,3-2.46c0,1.7,1.38,2.46,3.08,2.46s3.09-.76,3.09-2.46l0.7-9.22h-6.87Z" transform="translate(-855.16 -64.21)" style="fill: #f08119;stroke: #692f17;stroke-miterlimit: 10;stroke-width: 1.29999995231628px"/>
  <path d="M883.34,103s0,0,0-.07,0,0,0-.05,0.16-6.32-2.05-9.79a10.87,10.87,0,0,0-3.55-3.88A11.66,11.66,0,0,0,870.28,87h-0.43a11.38,11.38,0,0,0-7.34,2.26,10.81,10.81,0,0,0-3.5,3.88c-2.18,3.48-2,9.79-2,9.79s0,0,0,.05,0,0,0,.07a1.54,1.54,0,0,0,.75,1.29l0,0.81c0,0.31.83,0.6,1.89,0.65s1.64-.16,1.66-0.46l0-.72a1.77,1.77,0,0,0,.64-0.58l-0.27,4.11c0,0.55,3.63,1,8.2,1h0.43c4.64,0,8.32-.48,8.32-1L878.33,104a1.78,1.78,0,0,0,.65.58l0,0.72c0,0.31.6,0.52,1.68,0.46s1.93-.34,1.92-0.65l0-.81A1.53,1.53,0,0,0,883.34,103Z" transform="translate(-855.16 -64.21)" style="fill: #f7f5f2;stroke: #692f17;stroke-linecap: round;stroke-linejoin: round;stroke-width: 1.29999995231628px"/>
  <path d="M866.07,85.81V87c0,0.65,1.5,1.18,3.34,1.18s3.34-.53,3.34-1.18V85.81h-6.69Z" transform="translate(-855.16 -64.21)" style="fill: #f8f4eb;stroke: #692f17;stroke-miterlimit: 10"/>
  <g>
    <path d="M869.41,86.33c-4.81,0-8.72-3.47-8.72-7.74a6.9,6.9,0,0,1,.71-3,28.3,28.3,0,0,0,16,0,6.92,6.92,0,0,1,.7,3C878.13,82.85,874.22,86.33,869.41,86.33Z" transform="translate(-855.16 -64.21)" style="fill: #fee9d4"/>
    <path d="M861.58,76a28.74,28.74,0,0,0,15.65,0,6.52,6.52,0,0,1,.55,2.6c0,4.08-3.76,7.39-8.37,7.39S861,82.66,861,78.58a6.52,6.52,0,0,1,.55-2.6m16-.85a27.83,27.83,0,0,1-16.39,0,7.33,7.33,0,0,0-.88,3.45c0,4.47,4.06,8.09,9.07,8.09s9.07-3.62,9.07-8.09a7.33,7.33,0,0,0-.88-3.45h0Z" transform="translate(-855.16 -64.21)" style="fill: #692f17"/>
  </g>
  <path d="M872.18,82.79a9,9,0,0,1-3,.47,9.15,9.15,0,0,1-2.82-.42" transform="translate(-855.16 -64.21)" style="fill: none;stroke: #692f17;stroke-linecap: round;stroke-miterlimit: 10;stroke-width: 0.699999988079071px"/>
  <path d="M870.6,84.16a4.48,4.48,0,0,1-1.35.19,4.57,4.57,0,0,1-1.28-.17" transform="translate(-855.16 -64.21)" style="fill: #fff;stroke: #692f17;stroke-linecap: round;stroke-miterlimit: 10;stroke-width: 0.699999988079071px"/>
  <path d="M870.17,81.46a6.58,6.58,0,0,1-.91.06,6.79,6.79,0,0,1-.86-0.05" transform="translate(-855.16 -64.21)" style="fill: #fff;stroke: #692f17;stroke-linecap: round;stroke-miterlimit: 10;stroke-width: 0.5px"/>
  <g>
    <path d="M861.61,73.8a4.7,4.7,0,0,0-.56,2" transform="translate(-855.16 -64.21)" style="fill: #fff;stroke: #692f17;stroke-linecap: round;stroke-miterlimit: 10"/>
    <path d="M877.18,73.83a4.39,4.39,0,0,1,.59,1.92" transform="translate(-855.16 -64.21)" style="fill: #fff;stroke: #692f17;stroke-linecap: round;stroke-miterlimit: 10"/>
  </g>
  <polygon points="14.25 0.35 0.35 3.84 0.35 5.28 14.25 8.85 28.15 5.23 28.15 3.84 14.25 0.35" style="fill: #e3ddd3;stroke: #692f17;stroke-linecap: round;stroke-linejoin: round;stroke-width: 0.699999988079071px"/>
  <polyline points="28.15 3.84 14.25 7.33 0.35 3.84" style="fill: #e3ddd3;stroke: #692f17;stroke-linecap: round;stroke-linejoin: round;stroke-width: 0.699999988079071px"/>
  <line x1="28.03" y1="4.71" x2="28.03" y2="9.28" style="fill: #fff;stroke: #692f17;stroke-linecap: round;stroke-miterlimit: 10;stroke-width: 0.5px"/>
  <path d="M882.55,74.9s0.64-1.51.64-1.51,0.64,1.47.64,1.51A2.5,2.5,0,0,1,882.55,74.9Z" transform="translate(-855.16 -64.21)" style="fill: #fff;stroke: #692f17;stroke-linecap: round;stroke-miterlimit: 10;stroke-width: 0.699999988079071px"/>
  <line x1="7.1" y1="39.52" x2="7.8" y2="29.99" style="fill: #fff;stroke: #692f17;stroke-linecap: round;stroke-miterlimit: 10;stroke-width: 0.699999988079071px"/>
  <line x1="23.17" y1="39.82" x2="21.43" y2="29.27" style="fill: #fff;stroke: #692f17;stroke-linecap: round;stroke-miterlimit: 10;stroke-width: 0.699999988079071px"/>
  <path d="M861.79,105.8s2.27,1.32,8.55,1,8.42-1,8.42-1" transform="translate(-855.16 -64.21)" style="fill: none;stroke: #692f17;stroke-linecap: round;stroke-miterlimit: 10"/>
  <path d="M871,88v4.9a0.59,0.59,0,0,1-.59.59h-2a0.59,0.59,0,0,1-.59-0.59V88" transform="translate(-855.16 -64.21)" style="fill: none;stroke: #692f17;stroke-miterlimit: 10"/>
  <path d="M858,105.57s0,3.19,1,4,2.4,1.06,2.11.29a15.44,15.44,0,0,1-.53-2.06,1.56,1.56,0,0,1,.69.58c0.31,0.45.48-.08,0.15-0.73s-0.84-2.12-.84-2.12Z" transform="translate(-855.16 -64.21)" style="fill: #f8f4eb;stroke: #692f17;stroke-miterlimit: 10;stroke-width: 0.699999988079071px"/>
  <path d="M881.91,105.57s0,3.19-.93,4-2.31,1.06-2,.29a16,16,0,0,0,.51-2.06,1.51,1.51,0,0,0-.66.58c-0.3.45-.46-0.08-0.14-0.73s0.81-2.12.81-2.12Z" transform="translate(-855.16 -64.21)" style="fill: #f8f4eb;stroke: #692f17;stroke-miterlimit: 10;stroke-width: 0.699999988079071px"/>
  <line x1="15.18" y1="53.15" x2="15.18" y2="44.96" style="fill: none;stroke: #692f17;stroke-linecap: round;stroke-miterlimit: 10;stroke-width: 0.699999988079071px"/>
  <g>
    <path d="M865.26,78a2.86,2.86,0,0,0-1.83.92,2.29,2.29,0,0,0,3.67,0A2.86,2.86,0,0,0,865.26,78Z" transform="translate(-855.16 -64.21)" style="fill: #fff;stroke: #692f17;stroke-miterlimit: 10;stroke-width: 0.5px"/>
    <ellipse cx="10.11" cy="14.71" rx="0.8" ry="0.73" style="fill: #692f17"/>
  </g>
  <g>
    <path d="M873,78a2.86,2.86,0,0,0-1.83.92,2.29,2.29,0,0,0,3.67,0A2.85,2.85,0,0,0,873,78Z" transform="translate(-855.16 -64.21)" style="fill: #fff;stroke: #692f17;stroke-miterlimit: 10;stroke-width: 0.5px"/>
    <ellipse cx="17.83" cy="14.71" rx="0.8" ry="0.73" style="fill: #692f17"/>
  </g>
  <circle cx="5.36" cy="31.18" r="1.3" style="fill: #ff8300"/>
  <circle cx="5.26" cy="37.91" r="1.3" style="fill: #ff8300"/>
  <circle cx="18.34" cy="31.98" r="1.3" style="fill: #ff8300"/>
  <circle cx="15.56" cy="37.49" r="1.3" style="fill: #ff8300"/>
  <circle cx="11.23" cy="34.24" r="1.3" style="fill: #ff8300"/>
  <circle cx="19.23" cy="40.08" r="1.3" style="fill: #ff8300"/>
  <circle cx="24.42" cy="37.91" r="1.3" style="fill: #ff8300"/>
  <circle cx="10.27" cy="40.08" r="1.3" style="fill: #ff8300"/>
  <circle cx="19.64" cy="26.8" r="1.3" style="fill: #ff8300"/>
  <circle cx="10.01" cy="26.8" r="1.3" style="fill: #ff8300"/>
  <circle cx="24.06" cy="31.18" r="1.3" style="fill: #ff8300"/>
</svg>
