<svg xmlns="http://www.w3.org/2000/svg" width="167.2" height="123.32" viewBox="0 0 167.2 123.32">
  <title>Подарок</title>
  <g>
    <path d="M161.57,373.26s-0.61-26.63.17-27,16.6-2.32,16.84-2.39S216.54,340,217,340s1.84-.67,5.41,3.48,20.83,22.11,21.14,23.26-2.27,25.73-3,26.54-21.56,4.44-23,4.65-34.16,5.6-35.52,5.79-3.87,0-4-.51S161.57,373.26,161.57,373.26Z" transform="translate(-156.41 -338.4)" style="fill: #cc3a33"/>
    <path d="M213.95,359.83a29,29,0,0,0,9.95-.9l5.57,0.68-1.84-1.5,3.2-.68-5.82-.9c-0.11-.76-3.93-2.79-3.93-2.79,6.17,0.3,9.88.88,10.25-.22q0.43-1.29-4.7-4.45h-7.55a5,5,0,0,0,.61-1.66c-0.13-.48-0.77-0.54-3.56-1.51a4.39,4.39,0,0,1-1.55-.86,7.71,7.71,0,0,1-.62-0.67,3.33,3.33,0,0,0-2.42-.85l2.86-2.84-3.6,1.37A2.45,2.45,0,0,0,209,340.7c-1,.05-1.14,1.39-2.59,2.62-1.65,1.4-2.48.59-3.66,1.77-1.73,1.73-1.17,4.74-2.17,4.88a0.55,0.55,0,0,1-.27,0,0.89,0.89,0,0,0,.6-0.75l-2-6.88-5.24.64s1.46,2.15.78,1.29l-0.06-.07c-1.08-1.24-6.45-5.14-7.73-5.4s-7.78,6.73-7.78,6.73a10.46,10.46,0,0,1-1.52,1.06,0.71,0.71,0,0,0-.33.3,0.86,0.86,0,0,0,0,.66,3.91,3.91,0,0,0,3,2.24,6.53,6.53,0,0,0,1.4,0c2.71-.11,5.39.22,5.39,0.39v0c-0.28.25-3.39,2.75-3.39,2.75l-7-.77,0.07,2.27s-6.88.51-7.86,0.77a3.28,3.28,0,0,0-.87.37,3.35,3.35,0,0,0-1,.92q-0.22,5.75-.29,11.76-0.08,6.92,0,13.51L170.6,389c-0.29-7.19-.31-14.7,0-22.49q0.1-2.52.25-5,6-1.46,12.06-3,5.89-1.53,11.63-3.1L191,367.54l3.49-1.72,2.56,2,1.58-9.21,6.76,13.48s-1.1,26.47-.91,27.21,1.61,0.1,5.2-.25a38.53,38.53,0,0,0,6.53-1.21s2.58-21.59,2.53-26.06c0-3.58-.32-3-1.17-3.53a2.89,2.89,0,0,1-.75-0.7c-0.36-.42-3.73-3.11-13.7-10.7a30.94,30.94,0,0,0,4.65,1.79A31.39,31.39,0,0,0,213.95,359.83Z" transform="translate(-156.41 -338.4)" style="fill: #fce8d2;stroke: #682f24;stroke-linecap: round;stroke-linejoin: round;stroke-width: 0.699999988079071px"/>
    <path d="M187,349c-0.14,0-5.32-1.17-6-1.82s-2.34-1.53-2.87-1.21-1.5.62-1.07,1.6,2.48,2.24,4.7,2.3,4.9-.08,4.9-0.08l1-.36Z" transform="translate(-156.41 -338.4)" style="fill: #e5e1dc"/>
    <path d="M206.21,351.9c3.09,0.74,8.81,1.53,9.91,2s2.47,1.24,2.7,2.1-1.23,2.78-4,2.51-9.28-1.7-9.84-1.81a6.72,6.72,0,0,1-3.13-2,12.23,12.23,0,0,1-1.51-3,1.41,1.41,0,0,1,.86.2S202.52,351,206.21,351.9Z" transform="translate(-156.41 -338.4)" style="fill: #e5e1dc"/>
    <g>
      <path d="M241.15,367.65c-0.68.12-.05,0.11,0.87,0.1A1.31,1.31,0,0,0,241.15,367.65Z" transform="translate(-156.41 -338.4)" style="fill: #5c211a"/>
      <path d="M244.83,368a3.52,3.52,0,0,0-.5-2.1c-0.8-1.44-7.55-7.29-10.73-10.84l-5.08-5.39-0.95-.92s-6.62-7-7.52-8a2.71,2.71,0,0,0-1.68-1l-8.56.89-0.1-.1a0.52,0.52,0,0,0-.74-0.09l-0.66.35-8.25.85h0l-2.11.23-5,.36a15.75,15.75,0,0,0-1.58-1.46,11.84,11.84,0,0,0-3.33-2.17,3.2,3.2,0,0,0-3,.43,41,41,0,0,1-4,3.41,4.6,4.6,0,0,1-2.15.79c-3,.56-6.08.76-9.17,1.12q-3.8.44-7.55,0.85a1.74,1.74,0,0,0-.4.08,0.74,0.74,0,0,0-.28.07,1,1,0,0,0-.39.32,7.21,7.21,0,0,0-.28,2.07c0,0.52-.06,1.07-0.06,1.61l0.27,22.3c0,0.15,0,.3.07,0.47a5.26,5.26,0,0,0,.77,1.89l4.75,8.48h0c0.65,1.3,1.36,2.64,2.16,4s1.42,2.52,2.15,3.66c1.11,2.32,2.37,4.69,3.66,7.13q1.45,2.75,2.92,5.31a2.82,2.82,0,0,0,1.6,1.35,7.77,7.77,0,0,0,2.27,0l21.75-3.46c1.37-.22,14-2,14-2s19.16-3.08,20.27-3.37a11.19,11.19,0,0,0,3.31-.84,2.19,2.19,0,0,0,.86-1.72C242.27,386.64,244.73,368.64,244.83,368Zm-3-3.09a3.13,3.13,0,0,1,.84,1.41c-0.08.44-23.34,2.68-23.34,2.68-1-.88-6.9-6.08-9.41-7.9-1.12-.81-1.89-1.36-3.66-2.61a22.52,22.52,0,0,0,7.27,1.75c3.62,0.17,5.2-.4,7.91-0.79a17.39,17.39,0,0,0,2.23-.5c1.8,0.21,4.81.79,5.66,0.76,2.18-.08,1.67-0.41,1.67-0.41s-2.93-.81-2.68-1.11,3.93-.4,3.92-0.62-2.35-.68-2.8-0.74-3.53-.47-4.41-0.62a7.47,7.47,0,0,0-1.69-1.4l-1.61-.89c2.67,0.29,6.48.41,7.44,0.45,0.75,0,1.48.09,2.4,0.13C235,358,238.49,361.53,241.87,365Zm-38.39,6.27c-7.7,1.18-13,1.63-21.35,2.21a3.23,3.23,0,0,1-2-.42,4.09,4.09,0,0,1-1.06-1c-1.5-2.06-2.37-3.18-3.72-5.37q-1.63-2.64-3.25-5.11l0,0v0a45.32,45.32,0,0,1,8-2.15c7.44-1.5,10.08-2.05,12.27-3,0.74-.32,1.24-0.55,1.57-0.72a3,3,0,0,0,0,.33s-0.79,1.88-1,2.5-1.67,5.28-1.76,6.12-0.9,3.52-.9,3.52a33.51,33.51,0,0,0,4.11-1.83c0.08-.26,2.66,2.3,3,2s0.5-5.49,1-6.65a11.64,11.64,0,0,0,.6-2,1.74,1.74,0,0,1,.42.46s1.86,3.88,2.21,4.54,2.09,4,2.82,5.52a2.06,2.06,0,0,1,.23.68A2.79,2.79,0,0,1,203.48,371.22Zm-4.91-21.48a2.17,2.17,0,0,1,.69-0.12c1.51,0.24,1.5.88,1.59,1a5.24,5.24,0,0,0-.82.7c-0.47.65-.37,1-0.69,1.09a1.73,1.73,0,0,1-1.39-.9l0-.07a1.73,1.73,0,0,0,.55-0.46A2.28,2.28,0,0,0,198.57,349.74Zm20.55-1.22a37.48,37.48,0,0,1-3.6,2.19c-1,.3-1.47-0.21-3.59-0.81-5.47-1.53-6.71-1.45-7.48-1.3a4.82,4.82,0,0,0-3.11,1.7,0.71,0.71,0,0,1-.11-0.44,6.4,6.4,0,0,1,.11-0.85,11.25,11.25,0,0,1,1.79-3.61,6.73,6.73,0,0,1,3.59-1.81,26.8,26.8,0,0,1,5.31.58,12.07,12.07,0,0,1,2.4.93l2.53,1.21C220.6,347.81,219.12,348.52,219.12,348.52ZM201,353a2,2,0,0,1-.25-1.33c0.84,0.71,4.07,0,5,.33,3.49,1.15,3.79,2.19,9.34,2.5,1.72,0.1,3.32,1.16,3.3,1.78,0,0.43-1.67,1.55-3.43,1.73a32,32,0,0,1-6.81-.78c-0.81-.2-3.3-0.55-4.72-1.72A8.42,8.42,0,0,1,201,353Zm2.56,3.51c5.17,2,10.41,2.49,12,2.23s3.94-1.25,4-2.13c0.11-1.32-1.88-2.94-3.61-3-6.32-.38-7.63-2-10.28-2.4-1.77-.27-4,0.58-4.47,0a4.26,4.26,0,0,1,1.24-1.06,6.41,6.41,0,0,1,2.27-.79,13.92,13.92,0,0,1,3.59.43c1.53,0.42,3.75,1.11,5.47,1.59a48.14,48.14,0,0,1,5.48,2.24c2.19,1.06,5.29,2.58,5.07,3.74-0.11.58-1.09,0.81-2.27,1.22a28.53,28.53,0,0,1-3.57.65c-0.67,0-1.7.35-3,.36a23.32,23.32,0,0,1-6.81-.93,26.24,26.24,0,0,1-4-1.35,9.51,9.51,0,0,1-1.63-1A3.2,3.2,0,0,0,203.61,356.53Zm-1.57-1a3.34,3.34,0,0,0-1.28-.68,1.8,1.8,0,0,0-1.25.18c0-.32,0-0.59,0-0.79a6.49,6.49,0,0,0-.06-1.27,1.58,1.58,0,0,0,.39-0.14,0.33,0.33,0,0,0,.11-0.11,0.66,0.66,0,0,0,.08.18A10.17,10.17,0,0,0,202,355.5Zm-3.62-1.74c0.36,0.58-1.22,9-1.53,10.28s0,2.84-.29,2.74-1.69-1.39-2-1.57-2.9,1.74-3,1.62,3.46-11.84,3.56-12,0,0,0,0a3.72,3.72,0,0,0,1.08-.68,4.75,4.75,0,0,0,1.24-1.68A7.64,7.64,0,0,1,198.42,353.76ZM198,350.68a54,54,0,0,1-7,1.2c-2.28.19-4.65,0.43-6.49,0.43l0.66-.47a40.06,40.06,0,0,1,5-3.33,5.49,5.49,0,0,1,4.32-.28,8.67,8.67,0,0,1,3.59,2.1,0.25,0.25,0,0,1,0,.22A0.24,0.24,0,0,1,198,350.68ZM185.8,353c3.79-.23,8.09-0.83,9.16-1a10.47,10.47,0,0,0,2.12-.64,1.47,1.47,0,0,1-.27,1.17,3.76,3.76,0,0,1-1.73,1.37,38.18,38.18,0,0,1-6.2,1.25c-1.92.2-10.94,0.81-11.36,0.79s-0.61-.89-0.71-1.41-0.18-2-.18-2A70.13,70.13,0,0,0,185.8,353Zm-9.08,3.28c0.1,0.12.88,0.47,3,.19,2.42-.31,7.69-0.52,9.45-0.66,0.93-.07,2.22-0.22,3.34-0.38a44.53,44.53,0,0,1-7.17,1.85c-4,.78-8.54,1.83-9.8,2.13-0.91.21-2.87,0.82-4,1.23l-1.31-1.93-0.49-.67a23,23,0,0,1-1.67-2.55c1.66-.67,6.43-0.91,7.94-1A7.13,7.13,0,0,0,176.73,356.26Zm22.46,2h0c0.06-.31.17-1.44,0.26-2.48a3,3,0,0,1,1.44-.06c0.45,0.16,11.59,8.76,15.91,12.49a2.76,2.76,0,0,1,.82,1,4,4,0,0,1-1.33.29l-10.47,1.25C204.32,367.95,199.19,358.28,199.19,358.28Zm26.26-1.42a37.37,37.37,0,0,1,4.71.58c0,0.12-2.68.15-2.82,0.6-0.07.23,1,.82,1,1a33.54,33.54,0,0,1-3.64-.42,1.15,1.15,0,0,0,.83-1A1.23,1.23,0,0,0,225.45,356.86Zm5.55-3.22L219.75,353c-1.13-.49-2.3-1-3.38-1.4l-0.66-.27c1.11-.58,3.16-1.8,3.16-1.8a27.56,27.56,0,0,1,4.79-.25c0.91,0,1.93.12,2.8,0.2ZM217.16,340.5a2.35,2.35,0,0,1,2.57,1.07l6.13,7a18.31,18.31,0,0,0-2.5-.07c-1.43.07-2.78,0.09-3.36,0.09a2.17,2.17,0,0,0,.63-0.68,7.14,7.14,0,0,0-1.92-1.39c-1.08-.65-3.72-1.82-3.72-1.82s-0.88-.44-1.28-0.7a4.12,4.12,0,0,0-1.67-.71c0.12-.12,2.23-2.08,2.66-2.5Zm-4.28.51c-0.95.33-2.09,0.72-2.16,0.71a1.57,1.57,0,0,1-.35-0.4Zm-3.66-.18h0c0.21,0,1,1.47,1.53,1.46s2.86-1.23,3-1.19a25.16,25.16,0,0,1-2.59,2.08c-1.33-.15-3-0.29-4-0.29h-0.11A16.81,16.81,0,0,1,209.22,340.83Zm-9.82,1.95a4.55,4.55,0,0,1,.92-0.19h0l7.23-.9-1.1,1.25a11.18,11.18,0,0,0-2.78,1.09,6.93,6.93,0,0,0-2.26,2.63,6.32,6.32,0,0,0-.38,1.58,0.89,0.89,0,0,0-.14-0.37c-0.62-1.42-.8-3-1.39-4.43A0.7,0.7,0,0,1,199.4,342.78Zm-1,.11,0,0.05a19,19,0,0,1,.65,1.9c0.12,0.55,1.1,3.34,1.1,3.34a11.24,11.24,0,0,0,.34,1.32v0a2.29,2.29,0,0,0-.3-0.16,2,2,0,0,0-2.06.1l0,0a6.83,6.83,0,0,0-1.18-3,15.28,15.28,0,0,0-3.12-3.34Zm-18.55,2.42a3.35,3.35,0,0,1,1-1.29,67.79,67.79,0,0,1,5.08-4.61c0.6-.28,1.31-0.26,2.94.71a46.17,46.17,0,0,1,5.9,4.78,12.6,12.6,0,0,1,2.13,2.68,9.11,9.11,0,0,1,.48,1.18c-0.36-.26-3.28-1.73-4.81-1.69a10.41,10.41,0,0,0-4,1.46c-0.16.08-.35,0.19-0.54,0.32-0.47-.09-4.46-1-5.2-1.26a19.51,19.51,0,0,1-2.64-1.31A0.68,0.68,0,0,1,179.88,345.31Zm-1.39.91a8,8,0,0,1,1.5.73v0a21.77,21.77,0,0,0,3.11,1.42,31,31,0,0,0,4.15,1s0,0.11-.26.2a10.67,10.67,0,0,1-2.73.23s-4.68,0-6.4-1.37a2.07,2.07,0,0,1-.63-1.07A1,1,0,0,1,178.49,346.22Zm-15.13.26a2,2,0,0,1,1.77-.6c4.43-.49,8-0.84,10.32-1a1.3,1.3,0,0,1,1.49.58,4.78,4.78,0,0,0-.3,1.5,2.36,2.36,0,0,0,1.88,2.51,15.07,15.07,0,0,0,4.22.82c1.31,0.12,2.46.09,3.12,0.19l-2.25,1.83c-0.27,0-1.16,0-1.4,0-2.84-.18-6.23-0.62-6.23-0.62-0.37.25-.35,0.65-0.3,1.87-0.6,0-4,.25-5.86.53a13.84,13.84,0,0,0-2.36.47l-2.68-4.38C163.61,348.26,162.93,347.17,163.36,346.48Zm2.59,32.2a0.29,0.29,0,0,1-.43,0l-3.38-6.35a4.35,4.35,0,0,1-.2-1.23,16.76,16.76,0,0,1,0-1.9c0.22-12.43-.4-20.81,0-21.52,1.8,2.95,2.59,4.41,4.51,7.62l0,3.76c0,0.36,0,.88-0.06,1.52,0,0.41-.35,13.1-0.33,17.62A0.58,0.58,0,0,1,165.95,378.69Zm4.45,8.91a0.81,0.81,0,0,1-.16-0.19c-0.32-.37-1.21-2.17-3-5.8L166.9,381v0c0-4.53.12-18.92,0.25-20.66,0,0,.18-2.73.22-3.7,0,0,1,1.44,1.42,2.07l0.32,0.56c0.14,0.18.55,1,1.18,1.81a49.4,49.4,0,0,0-.38,6.26c-0.07,3.84.49,16.66,0.49,16.66,0,0.93,0,1.51,0,2s0,0.61,0,1A0.9,0.9,0,0,1,170.4,387.59Zm8.11,14.08a1,1,0,0,1-.8-0.62c-2.19-3.42-4.74-8.77-6.22-11.79a3.55,3.55,0,0,1-.12-0.56,4.18,4.18,0,0,1,0-.89,153,153,0,0,0-.35-16.18,83.58,83.58,0,0,1,0-8.89c0.06-.41.18-0.28,0.23-0.18,2,3,3.34,5,4.22,6.31a18.3,18.3,0,0,1,3,5.77,15.5,15.5,0,0,1,.48,2.89c0.46,5.06,0,7.25.1,12.93,0,2.51.16,3.51,0.1,6.25,0,1.91-.09,2.94-0.16,3.95A1.18,1.18,0,0,1,178.51,401.67Zm24.56-2.41a1,1,0,0,1-.66.34c-4.47.82-18.27,2.64-19.27,2.75a3.27,3.27,0,0,1-2-.28c-0.56-.33-0.59-1.79-0.61-2.94,0-.8,0-1.25,0-2.81,0.24-5.91,0-14.85,0-15.65,0-1-.09-4.62.47-5.19,0.81-.83,1.58-0.77,2.72-0.83,7.12-.37,13.88-1.42,21-2.27a5.27,5.27,0,0,1,.18,2.22c0,1.27-1.11,17.41-1.54,23.58A1.69,1.69,0,0,1,203.07,399.26Zm12.28-1.49c-0.78.36-9.22,1.37-9.22,1.37a1.44,1.44,0,0,1-1.54-1.47c0-1.52,1.53-25,1.53-25s0-.14,0-0.33l0,0L217,371a1.92,1.92,0,0,1,1.31.25,0.88,0.88,0,0,1,.37.86c-0.05.57-2.38,24.44-2.38,24.44A1.9,1.9,0,0,1,215.34,397.78Zm24.33-4.4c-1,.61-15.31,2.64-20.13,3.52a2.2,2.2,0,0,1-1.57-.2,1,1,0,0,1-.21-0.79l2.18-24.2a2.86,2.86,0,0,1,.31-0.84,1.46,1.46,0,0,1,1.14-.39l21.15-2.31c0.43,0.09.27,0.93,0.27,0.93s-1.95,16.72-2,18.33S240.21,393,239.67,393.37Z" transform="translate(-156.41 -338.4)" style="fill: #5c211a"/>
      <polygon points="20.07 15.85 20.07 15.85 20.07 15.85 20.07 15.85" style="fill: #5c211a"/>
      <path d="M180.49,380.91c0,0.14,0,.12,0,0h0Z" transform="translate(-156.41 -338.4)" style="fill: #5c211a"/>
    </g>
  </g>
  <g>
    <path d="M316.27,396s7.27-27.42,6.56-28-16.61-6.54-16.85-6.67-38.34-13.5-38.82-13.55-1.74-1.15-6.47,2.25-27.08,17.7-27.69,18.81-4.06,27.21-3.49,28.24,21.22,10,22.66,10.55,34,14.32,35.34,14.85,4,0.94,4.27.47S316.27,396,316.27,396Z" transform="translate(-156.41 -338.4)" style="fill: #ea9c68"/>
    <path d="M272.08,369.37a33,33,0,0,0,5.26-.69c-12.23,5.38-16.39,7.32-16.86,7.67a3.08,3.08,0,0,1-.95.54c-1,.36-1.16-0.34-2.09,3.36-1.17,4.61-3.88,27.62-3.88,27.62a41,41,0,0,0,6.46,2.89c3.64,1.25,4.94,2.27,5.33,1.55s5.84-28.4,5.84-28.4l10.36-12.27-0.66,9.93,3.16-1.47,3.19,2.65-0.67-13.52q5.55,3.06,11.27,6.11,5.91,3.15,11.73,6.16-0.46,2.59-1,5.23c-1.61,8.15-3.5,15.92-5.59,23.29l6-6.49q1.77-6.79,3.42-14,1.43-6.24,2.63-12.25a3.57,3.57,0,0,0-.79-1.2,3.5,3.5,0,0,0-.81-0.6c-1-.52-7.95-2.76-7.95-2.76l0.63-2.34-7.41-.94s-2.6-3.36-2.83-3.69a0,0,0,0,1,0,0c0-.18,2.91.15,5.68,0.94a7,7,0,0,0,1.44.37,4.17,4.17,0,0,0,3.63-1.58,0.91,0.91,0,0,0,.18-0.68,0.76,0.76,0,0,0-.26-0.4,11.15,11.15,0,0,1-1.31-1.48s-5-8.86-6.38-8.91-7.92,2.65-9.35,3.67l-0.08.06c-0.92.72,1.13-1.14,1.13-1.14l-5.27-2-3.79,6.63a0.94,0.94,0,0,0,.43.92,0.59,0.59,0,0,1-.29,0c-1-.4.34-3.37-1-5.6-0.92-1.51-2-.89-3.35-2.74-1.2-1.64-1.06-3.07-2-3.36a2.6,2.6,0,0,0-2.22,1l-3.39-2.32,2.25,3.65a3.55,3.55,0,0,0-2.72.27,8.21,8.21,0,0,1-.81.54,4.67,4.67,0,0,1-1.82.51c-3.13.31-3.81,0.21-4.07,0.67a5.36,5.36,0,0,0,.22,1.87l-7.82-1.88q-6.11,2-6,3.44c0.11,1.23,4.1,1.55,10.56,2.78,0,0-4.46,1.15-4.77,1.9l-6.25-.52,3.14,1.51-2.27,1.1,5.94,0.68A30.83,30.83,0,0,0,265.38,369,33.44,33.44,0,0,0,272.08,369.37Z" transform="translate(-156.41 -338.4)" style="fill: #fff"/>
    <path d="M296,364.57c0.16,0,5.8.11,6.69-.38s2.8-1,3.27-.54,1.4,1,.7,1.92-3.13,1.7-5.44,1.21-5.05-1.3-5.05-1.3l-1-.62Z" transform="translate(-156.41 -338.4)" style="fill: #fff"/>
    <path d="M275.37,362.74c-3.39,0-9.5-.61-10.76-0.37s-2.87.67-3.32,1.5,0.58,3.18,3.54,3.6,10,0.56,10.64.58a7.16,7.16,0,0,0,3.74-1.31,13,13,0,0,0,2.32-2.75,1.5,1.5,0,0,0-.94,0S279.41,362.74,275.37,362.74Z" transform="translate(-156.41 -338.4)" style="fill: #fff"/>
    <g>
      <path d="M235.25,370.34c0.67,0.3,0,.13-0.92-0.11A1.4,1.4,0,0,1,235.25,370.34Z" transform="translate(-156.41 -338.4)" style="fill: #5c211a"/>
      <path d="M228.57,396a2.33,2.33,0,0,0,.47,2,11.91,11.91,0,0,0,3.22,1.69c1.07,0.58,20.15,8.55,20.15,8.55s12.63,5,14,5.6l21.66,9a8.28,8.28,0,0,0,2.37.52,3,3,0,0,0,2-1q2.15-2.29,4.35-4.77c1.95-2.2,3.84-4.34,5.57-6.47,1-1,2.06-2.1,3.14-3.25s2.24-2.45,3.24-3.63h0l7-7.6a5.61,5.61,0,0,0,1.27-1.76c0.07-.16.13-0.31,0.18-0.47l5.84-23c0.14-.56.23-1.14,0.34-1.68a7.68,7.68,0,0,0,.22-2.22,1,1,0,0,0-.32-0.43A0.79,0.79,0,0,0,323,367a1.85,1.85,0,0,0-.39-0.18q-3.78-1.35-7.61-2.76c-3.11-1.14-6.24-2.12-9.22-3.45a4.9,4.9,0,0,1-2-1.35,43.66,43.66,0,0,1-3.26-4.51,3.41,3.41,0,0,0-3-1.19,12.61,12.61,0,0,0-4,1.41,16.78,16.78,0,0,0-2,1.12l-5.09-1.61-2.12-.76h0L276,350.73l-0.6-.52a0.55,0.55,0,0,0-.79-0.09l-0.13.08-8.64-3.05a2.89,2.89,0,0,0-2,.63c-1.19.8-9.79,6.41-9.79,6.41l-1.21.71-6.61,4.32c-4.18,2.88-12.63,7.26-13.81,8.55a3.75,3.75,0,0,0-1,2.05C231.31,370.48,229.37,389.72,228.57,396Zm19.83-36.9c1,0.18,1.74.3,2.52,0.46,1,0.2,5,1,7.81,1.39l-1.89.52a8,8,0,0,0-2.1,1c-1-.06-4.3-0.41-4.72-0.46s-3-.19-3.08.07,3.73,1.25,3.91,1.62-3.06.48-3.06,0.48-0.61.21,1.62,0.84c0.87,0.25,4.14.4,6.05,0.63a18.52,18.52,0,0,0,2.19,1.07c2.71,1.08,4.19,2.07,8,2.79a24,24,0,0,0,8,0c-2.14.86-3.08,1.23-4.44,1.79-3,1.26-10.49,5.16-11.71,5.83,0,0-23.53-8.12-23.5-8.59a3.33,3.33,0,0,1,1.22-1.25C239.54,364.67,244,361.84,248.4,359.14Zm23.93,23.68a2.2,2.2,0,0,1,.41-0.65c1.12-1.36,3.82-4.47,4.3-5s3.42-4.15,3.42-4.15a1.86,1.86,0,0,1,.55-0.38,12.4,12.4,0,0,0,.13,2.17c0.24,1.33-.91,6.74-0.62,7.14s3.61-1.6,3.63-1.32a35.69,35.69,0,0,0,3.8,2.92s-0.17-3-.06-3.87-0.2-6.07-.3-6.78-0.44-2.85-.44-2.85a3.17,3.17,0,0,0,0-.35c0.3,0.26.76,0.63,1.45,1.14,2,1.51,4.63,2.74,12,6.15a48.27,48.27,0,0,1,7.72,4.22h0v0q-2.3,2.16-4.64,4.48c-1.95,1.93-3.13,2.87-5.19,4.63a4.36,4.36,0,0,1-1.35.76,3.44,3.44,0,0,1-2.2-.07c-8.46-2.67-13.88-4.46-21.56-7.61A3,3,0,0,1,272.33,382.82Zm11.27-19.06a1.84,1.84,0,0,0,.46.62l-0.05.06a1.85,1.85,0,0,1-1.67.59c-0.3-.17-0.12-0.52-0.44-1.3a5.58,5.58,0,0,0-.68-0.93c0.12-.13.28-0.8,1.9-0.67a2.31,2.31,0,0,1,.68.3A2.43,2.43,0,0,0,283.61,363.76Zm-18-9.47,2.92-.62a12.86,12.86,0,0,1,2.72-.36,28.55,28.55,0,0,1,5.64.72,7.17,7.17,0,0,1,3.26,2.77,12,12,0,0,1,1,4.18,6.82,6.82,0,0,1-.09.91,0.76,0.76,0,0,1-.22.43,5.14,5.14,0,0,0-2.8-2.54c-0.76-.34-2-0.74-8.07-0.52-2.34.08-3,.49-3.92-0.06a39.92,39.92,0,0,1-3.18-3.17S261.49,354.91,265.63,354.28Zm11.69,12.89c-1.77.86-4.44,0.6-5.32,0.6a34,34,0,0,1-7.25-.89c-1.78-.63-3.21-2.2-3.13-2.65,0.13-.65,2-1.35,3.86-1,5.83,1.06,6.39.07,10.29-.26,1-.09,4.21,1.43,5.26.91a2.11,2.11,0,0,1-.59,1.32A9,9,0,0,1,277.32,367.17Zm0,0.9a10.13,10.13,0,0,1-1.93.59,28,28,0,0,1-4.45.41,24.84,24.84,0,0,1-7.29-.74c-1.3-.33-2.29-0.91-3-1.11a30.39,30.39,0,0,1-3.54-1.56c-1.11-.72-2.07-1.2-2-1.83,0.06-1.26,3.65-2.06,6.18-2.61a51.28,51.28,0,0,1,6.24-.95c1.9-.06,4.37-0.22,6.06-0.28a14.83,14.83,0,0,1,3.83.45,6.82,6.82,0,0,1,2.16,1.38,4.54,4.54,0,0,1,1,1.41c-0.59.48-2.72-1-4.62-1.13-2.84-.24-4.6,1.11-11.24-0.08-1.81-.32-4.28.86-4.5,2.25-0.15.93,2,2.53,3.62,3.21s7.18,1.46,13,.69A3.41,3.41,0,0,0,277.36,368.08Zm4.14-2.79a0.71,0.71,0,0,0,.13-0.17,0.35,0.35,0,0,0,.09.15,1.68,1.68,0,0,0,.37.24,6.91,6.91,0,0,0-.38,1.3c0,0.2-.1.49-0.16,0.82a1.92,1.92,0,0,0-1.25-.5,3.55,3.55,0,0,0-1.5.38A10.83,10.83,0,0,0,281.5,365.29Zm2.81,0.21a5.06,5.06,0,0,0,.86,2.05,4,4,0,0,0,.95,1s0,0,0,0c0.07,0.18.83,13.2,0.7,13.3s-2.3-2.52-2.7-2.42-2.17,1.09-2.49,1.12,0.4-1.56.38-2.91,0.46-10.51,1-11A8.14,8.14,0,0,1,284.31,365.5Zm-0.19-2.14a0.27,0.27,0,0,1,.07-0.22,9.24,9.24,0,0,1,4.24-1.28,5.85,5.85,0,0,1,4.4,1.37,42.67,42.67,0,0,1,4.32,4.68l0.57,0.65c-1.9-.47-4.29-1.31-6.61-2.07a57.52,57.52,0,0,1-6.92-3A0.25,0.25,0,0,1,284.12,363.37Zm21.71,7.38s-0.46,1.5-.69,2-0.64,1.37-1.08,1.29-9.63-3-11.57-3.65a40.67,40.67,0,0,1-6.1-2.84,4,4,0,0,1-1.45-1.85,1.57,1.57,0,0,1,0-1.28,11.15,11.15,0,0,0,2,1.19c1.07,0.45,5.37,2.15,9.24,3.33A74.7,74.7,0,0,0,305.83,370.74ZM306,373c1.55,0.43,6.43,1.86,8,3a24.49,24.49,0,0,1-2.36,2.22l-0.67.57-1.84,1.67c-1.12-.72-3-1.84-3.89-2.28-1.23-.62-5.66-2.83-9.62-4.64a47.43,47.43,0,0,1-7-3.71c1.12,0.45,2.42.91,3.36,1.22,1.79,0.59,7.19,2.11,9.62,3,2.17,0.83,3.06.67,3.2,0.56A7.59,7.59,0,0,0,306,373Zm-34.92,9.44-10.53-3.91a4.22,4.22,0,0,1-1.3-.64,2.94,2.94,0,0,1,1.11-.85c5.41-2.78,19.09-8.91,19.59-9a3.15,3.15,0,0,1,1.48.43c-0.17,1.1-.34,2.3-0.35,2.63v0S273.32,379.83,271.06,382.41Zm-17.14-18.52a1.23,1.23,0,0,0,.63,1.19,35.72,35.72,0,0,1-3.88-.48c0.06-.17,1.3-0.52,1.28-0.78,0-.5-2.8-1.21-2.77-1.33s4.42,0.49,5,.58A1.31,1.31,0,0,0,253.93,363.89Zm1.08-8.71c0.92,0.13,2,.3,3,0.49a29.36,29.36,0,0,1,4.9,1.46s1.81,1.77,2.82,2.65l-0.76.11c-1.23.19-2.56,0.38-3.85,0.6l-11.81-2.14Zm14.35-6.06c0.35,0.55,2,3.1,2.13,3.25a4.39,4.39,0,0,0-1.91.32c-0.48.17-1.5,0.41-1.5,0.41s-3,.56-4.31,1a7.6,7.6,0,0,0-2.34,1,2.31,2.31,0,0,0,.48.86c-0.6-.15-2-0.5-3.46-0.93a19.5,19.5,0,0,0-2.61-.55l8.1-5.73a2.51,2.51,0,0,1,2.93-.47Zm4.35,1.63a1.67,1.67,0,0,1-.46.32c-0.08,0-1.16-.69-2.06-1.27Zm3,2.46-0.11,0c-1-.25-2.82-0.53-4.24-0.7a26.8,26.8,0,0,1-2.16-2.8c0.18,0,2.26,1.84,2.83,2s1.72-1.15,2-1.13h0A17.91,17.91,0,0,1,276.73,353.21Zm7.75,2.43c-1,1.33-1.55,2.93-2.55,4.24a1,1,0,0,0-.24.35,6.73,6.73,0,0,0,0-1.74,7.38,7.38,0,0,0-1.69-3.28,11.91,11.91,0,0,0-2.61-1.82s-0.41-.78-0.82-1.57l7.26,2.74h0a4.84,4.84,0,0,1,.91.43A0.74,0.74,0,0,1,284.47,355.65Zm5.89,1.1a16.27,16.27,0,0,0-4.06,2.68,7.28,7.28,0,0,0-2,2.76l0,0a2.15,2.15,0,0,0-2.11-.62,2.44,2.44,0,0,0-.35.09v0a12,12,0,0,0,.68-1.28s1.71-2.64,2-3.18a20.27,20.27,0,0,1,1.15-1.81l0,0Zm13.34,6.64a20.78,20.78,0,0,1-3.06.7c-0.83.1-5.19,0-5.7,0-0.17-.17-0.34-0.33-0.49-0.46a11.09,11.09,0,0,0-3.76-2.5c-1.57-.42-5,0.38-5.4.55a9.71,9.71,0,0,1,.79-1.1,13.42,13.42,0,0,1,2.87-2.24,49.17,49.17,0,0,1,7.3-3.48c1.93-.6,2.67-0.44,3.22,0a72.21,72.21,0,0,1,4.11,6,3.57,3.57,0,0,1,.67,1.57A0.73,0.73,0,0,1,303.7,363.39Zm2.79,1.85a2.21,2.21,0,0,1-.92,1c-2.11.95-7-.17-7-0.17a11.37,11.37,0,0,1-2.77-.92c-0.28-.17-0.23-0.28-0.22-0.27a33,33,0,0,0,4.54,0,23.19,23.19,0,0,0,3.58-.7v0l0,0a8.55,8.55,0,0,1,1.74-.38A1,1,0,0,1,306.49,365.24Zm12.22,6-3.86,3.87a14.75,14.75,0,0,0-2.33-1.07c-1.83-.75-5.32-1.84-5.93-2,0.35-1.24.48-1.66,0.15-2,0,0-3.62-.39-6.61-0.92-0.25,0-1.17-.28-1.45-0.33l-1.88-2.46c0.71,0.06,1.89.37,3.28,0.58a16,16,0,0,0,4.57.21c1.94-.22,2.43-1.3,2.57-2.13a5.09,5.09,0,0,0,.07-1.63,1.38,1.38,0,0,1,1.69-.23c2.37,0.76,6,2,10.43,3.62a2.17,2.17,0,0,1,1.68,1.07C321.36,368.64,320.39,369.59,318.72,371.26ZM310.38,400c1.15-4.68,4-17.9,4.06-18.33,0.14-.67.24-1.21,0.31-1.59l0.9-3.9c2.79-2.85,4-4.17,6.57-6.77,0.27,0.84-2.47,9.37-5.34,22.29a17.86,17.86,0,0,1-.45,2,4.63,4.63,0,0,1-.51,1.23l-5.09,5.74a0.31,0.31,0,0,1-.45-0.12A0.62,0.62,0,0,1,310.38,400Zm-6.76,8c0.12-.42.18-0.59,0.3-1s0.23-1.08.51-2c0,0,3.78-13.13,4.66-17.13a52.62,52.62,0,0,0,1.17-6.58c0.87-.72,1.49-1.43,1.67-1.58l0.47-.5c0.59-.55,2-1.79,2-1.79-0.2,1-.69,3.89-0.69,3.89-0.3,1.83-3.76,16.77-4.89,21.46v0l-0.48.56c-2.79,3.3-4.15,4.94-4.58,5.25a0.86,0.86,0,0,1-.21.15A1,1,0,0,1,303.62,408Zm-12.21,12c0.17-1.06.38-2.14,0.82-4.13,0.62-2.86,1-3.86,1.67-6.45,1.52-5.85,1.59-8.24,3.33-13.36a16.51,16.51,0,0,1,1.22-2.87A19.49,19.49,0,0,1,303,388c1.23-1.12,3.15-2.89,5.94-5.48,0.08-.09.24-0.19,0.19,0.24a89,89,0,0,1-2.19,9.22,163,163,0,0,0-4.4,16.67,4.46,4.46,0,0,1-.25.92,3.78,3.78,0,0,1-.27.55c-2.28,2.75-6.25,7.66-9.38,10.66a1.08,1.08,0,0,1-1,.44A1.26,1.26,0,0,1,291.41,420Zm-24.59-8.64c1.1-6.5,4-23.48,4.29-24.8a5.61,5.61,0,0,1,.74-2.25c7.15,2.66,13.89,5.43,21.17,7.59,1.16,0.35,2,.48,2.6,1.54,0.44,0.73-.6,4.45-0.81,5.5-0.23.82-2.72,10-3.94,16.2-0.32,1.64-.44,2.09-0.65,2.92-0.31,1.19-.69,2.69-1.36,2.89a3.48,3.48,0,0,1-2.17-.22c-1-.36-14.85-5.7-19.27-7.66a1.11,1.11,0,0,1-.59-0.52A1.8,1.8,0,0,1,266.81,411.38Zm-13-5s3.54-25.3,3.63-25.9a0.94,0.94,0,0,1,.6-0.8,2,2,0,0,1,1.42.07l10.88,4.15,0,0c0,0.21,0,.35,0,0.35S266,409,265.64,410.55a1.54,1.54,0,0,1-2,1.14s-8.48-3.16-9.2-3.72A2,2,0,0,1,253.79,406.42Zm-23.08-15.5c0.3-1.69,2.45-19.49,2.45-19.49s0-.91.52-0.9L255,378.19a1.55,1.55,0,0,1,1.09.69,3,3,0,0,1,.11.94l-3.78,25.6a1,1,0,0,1-.41.77,2.35,2.35,0,0,1-1.67-.18c-4.78-2.11-19.13-7.8-20-8.66C229.9,396.86,230.41,392.61,230.71,390.92Z" transform="translate(-156.41 -338.4)" style="fill: #5c211a"/>
      <polygon points="149.15 34.19 149.15 34.19 149.15 34.19 149.15 34.19" style="fill: #5c211a"/>
      <path d="M294.77,399.2h0Z" transform="translate(-156.41 -338.4)" style="fill: #5c211a"/>
    </g>
  </g>
  <g>
    <path d="M165.68,427.12s-9.17-34.61-8.28-35.36,21-8.26,21.26-8.42,48.39-17,49-17.11,2.2-1.45,8.16,2.84,34.19,22.34,34.95,23.74,5.13,34.34,4.41,35.64-26.79,12.59-28.6,13.31S203.68,459.85,202,460.52s-5.07,1.19-5.39.59S165.68,427.12,165.68,427.12Z" transform="translate(-156.41 -338.4)" style="fill: #fce8d2"/>
    <path d="M229.92,393.08a38.92,38.92,0,0,0,12.72-4.31l7.49-.86-2.87-1.38,4-1.9-7.89.65c-0.39-1-6-2.4-6-2.4,8.15-1.55,13.19-2,13.33-3.51q0.16-1.82-7.55-4.34l-9.88,2.37a6.77,6.77,0,0,0,.28-2.36c-0.32-.58-1.18-0.46-5.13-0.85a5.9,5.9,0,0,1-2.29-.64,10.36,10.36,0,0,1-1-.68,4.48,4.48,0,0,0-3.43-.34l2.84-4.61-4.27,2.92c-0.85-.78-1.89-1.48-2.8-1.21-1.23.37-1,2.17-2.56,4.25-1.71,2.34-3.06,1.56-4.22,3.46-1.72,2.81,0,6.56-1.3,7.06a0.74,0.74,0,0,1-.37,0,1.19,1.19,0,0,0,.55-1.17l-4.79-8.36-6.65,2.48s2.58,2.35,1.42,1.44l-0.1-.07c-1.8-1.29-10-4.69-11.8-4.63s-8,11.25-8,11.25a14.07,14.07,0,0,1-1.65,1.87,1,1,0,0,0-.33.5,1.15,1.15,0,0,0,.23.86,5.26,5.26,0,0,0,4.58,2,8.78,8.78,0,0,0,1.82-.47c3.5-1,7.11-1.41,7.17-1.19a0,0,0,0,1,0,0c-0.29.42-3.57,4.66-3.57,4.66l-9.35,1.18,0.8,3s-8.83,2.83-10,3.48a4.41,4.41,0,0,0-1,.75,4.51,4.51,0,0,0-1,1.51q1.53,7.58,3.32,15.46,2.08,9.08,4.32,17.65l7.63,8.19c-2.64-9.31-5-19.11-7.06-29.4q-0.66-3.32-1.24-6.6,7.34-3.79,14.8-7.77,7.22-3.85,14.23-7.71l-0.85,17.06,4-3.35,4,1.86-0.83-12.53,13.08,15.49s6.89,34.94,7.38,35.85,2.13-.38,6.72-2a51.81,51.81,0,0,0,8.15-3.64s-3.42-29-4.89-34.86c-1.18-4.67-1.35-3.79-2.64-4.24a3.88,3.88,0,0,1-1.2-.68c-0.6-.44-5.85-2.89-21.28-9.68a41.6,41.6,0,0,0,6.64.88A42.21,42.21,0,0,0,229.92,393.08Z" transform="translate(-156.41 -338.4)" style="fill: #ef8018"/>
    <path d="M191.32,387.45c-0.2,0-7.32.14-8.44-.48s-3.54-1.26-4.13-.68-1.77,1.28-.89,2.43,4,2.14,6.87,1.53,6.38-1.64,6.38-1.64l1.2-.78Z" transform="translate(-156.41 -338.4)" style="fill: #d36513"/>
    <path d="M217.31,385.14c4.27,0,12-.77,13.59-0.47s3.62,0.84,4.19,1.89-0.73,4-4.46,4.55-12.66.7-13.43,0.73a9,9,0,0,1-4.73-1.65,16.44,16.44,0,0,1-2.92-3.48c0-.25,1.19,0,1.19,0S212.21,385.14,217.31,385.14Z" transform="translate(-156.41 -338.4)" style="fill: #d36513"/>
    <g>
      <path d="M267.94,394.74c-0.85.38,0,.16,1.17-0.14A1.76,1.76,0,0,0,267.94,394.74Z" transform="translate(-156.41 -338.4)" style="fill: #5c211a"/>
      <path d="M272.86,394.08a4.73,4.73,0,0,0-1.31-2.59c-1.5-1.63-12.16-7.15-17.44-10.79l-8.34-5.45-1.53-.9s-10.86-7.09-12.35-8.1a3.64,3.64,0,0,0-2.51-.8l-10.91,3.85-0.16-.09a0.7,0.7,0,0,0-1,.11l-0.76.66L206,373.7h0l-2.68,1-6.42,2a21.18,21.18,0,0,0-2.52-1.41s-3.3-1.78-5-1.79a4.3,4.3,0,0,0-3.79,1.51c-0.54.57-2,3.45-4.11,5.7a6.19,6.19,0,0,1-2.56,1.71c-3.75,1.68-7.71,2.91-11.63,4.35q-4.83,1.77-9.6,3.48a2.34,2.34,0,0,0-.49.23,1,1,0,0,0-.34.18,1.3,1.3,0,0,0-.4.54,9.7,9.7,0,0,0,.28,2.8c0.14,0.68.26,1.42,0.43,2.13l7.37,29.06c0.07,0.19.14,0.39,0.23,0.59a7.08,7.08,0,0,0,1.6,2.23l8.88,9.59h0c1.26,1.49,2.61,3,4.09,4.58s2.64,2.85,4,4.11c2.18,2.69,4.57,5.38,7,8.16q2.77,3.13,5.49,6a3.79,3.79,0,0,0,2.52,1.26,10.45,10.45,0,0,0,3-.66l27.34-11.36c1.73-.72,17.67-7.07,17.67-7.07s24.08-10.05,25.43-10.79c0.63-.34,2.76-0.92,4.06-2.13a2.94,2.94,0,0,0,.59-2.52C275.37,419.2,272.92,394.91,272.86,394.08ZM268,391s1.5,1,1.54,1.57-29.66,10.85-29.66,10.85c-1.54-.85-10.93-5.77-14.78-7.36-1.72-.71-2.9-1.18-5.6-2.26a30.28,30.28,0,0,0,10.06,0c4.79-.91,6.67-2.16,10.08-3.53a23.38,23.38,0,0,0,2.76-1.35c2.42-.29,6.54-0.48,7.64-0.79,2.82-.79,2-1.06,2-1.06s-4.08-.14-3.86-0.61,5-1.76,4.93-2-3.28-.15-3.89-0.08-4.76.5-6,.58a10,10,0,0,0-2.66-1.3c-0.56-.14-1.74-0.49-2.38-0.65,3.58-.47,8.6-1.5,9.86-1.76,1-.2,2-0.35,3.18-0.59C256.84,384,262.54,387.57,268,391Zm-48.21,20.28c-9.7,4-16.53,6.24-27.21,9.61a4.35,4.35,0,0,1-2.78.09,5.5,5.5,0,0,1-1.7-1c-2.6-2.22-4.1-3.41-6.55-5.85q-3-2.94-5.86-5.65l0,0,0,0a60.93,60.93,0,0,1,9.74-5.32c9.25-4.3,12.53-5.86,15.09-7.77,0.87-.65,1.45-1.11,1.83-1.44a4,4,0,0,0,0,.44s-0.44,2.7-.56,3.59-0.52,7.42-.38,8.56-0.07,4.89-.07,4.89,4.77-3.32,4.79-3.68,4.21,2.17,4.58,1.67-1.08-7.33-.78-9a15.65,15.65,0,0,0,.16-2.74,2.34,2.34,0,0,1,.7.47s3.66,4.49,4.32,5.24,4,4.61,5.42,6.33a2.77,2.77,0,0,1,.51.82A3.75,3.75,0,0,1,219.82,411.25Zm-13.18-26.53a2.91,2.91,0,0,1,.86-0.38c2.05-.16,2.24.68,2.4,0.85a7,7,0,0,0-.85,1.18c-0.41,1-.17,1.43-0.55,1.65a2.33,2.33,0,0,1-2.11-.74l-0.06-.08a2.33,2.33,0,0,0,.58-0.78A3.06,3.06,0,0,0,206.65,384.72Zm26.48-8.06a50.39,50.39,0,0,1-4,4c-1.16.7-2,.18-4.94,0.08-7.64-.27-9.23.22-10.19,0.66a6.48,6.48,0,0,0-3.53,3.2,1,1,0,0,1-.28-0.54,8.61,8.61,0,0,1-.12-1.15,15.13,15.13,0,0,1,1.2-5.28,9,9,0,0,1,4.12-3.49c1.44-.61,6.51-0.89,7.12-0.91a16.23,16.23,0,0,1,3.43.46l3.68,0.78C234.83,375.26,233.12,376.67,233.12,376.67ZM210.9,388.23c-0.43-.51-0.93-1.54-0.75-1.67,1.32,0.67,5.32-1.25,6.64-1.14,4.92,0.41,5.64,1.67,13,.33,2.28-.42,4.7.47,4.87,1.29,0.11,0.56-1.7,2.55-3.94,3.34-2.09.74-7.7,1.13-9.15,1.12-1.12,0-4.49.32-6.72-.76S211.63,389.09,210.9,388.23Zm4.46,3.79c7.38,1,14.4,0,16.44-.87s4.76-2.88,4.58-4.05c-0.27-1.75-3.38-3.25-5.67-2.84-8.38,1.5-10.6-.2-14.19.1-2.4.2-5.1,2-5.84,1.42A5.73,5.73,0,0,1,212,384a8.61,8.61,0,0,1,2.72-1.74,18.71,18.71,0,0,1,4.83-.56c2.14,0.07,5.25.27,7.65,0.35a64.72,64.72,0,0,1,7.87,1.2c3.2,0.69,7.73,1.7,7.8,3.3,0,0.8-1.17,1.4-2.58,2.31a38.36,38.36,0,0,1-4.47,2c-0.86.25-2.11,1-3.75,1.4a31.35,31.35,0,0,1-9.2.93,35.28,35.28,0,0,1-5.62-.52,12.78,12.78,0,0,1-2.44-.74A4.3,4.3,0,0,0,215.36,392Zm-2.38-.85a4.49,4.49,0,0,0-1.89-.48,2.42,2.42,0,0,0-1.58.64c-0.07-.42-0.14-0.78-0.2-1a8.72,8.72,0,0,0-.47-1.65,2.12,2.12,0,0,0,.46-0.3,0.44,0.44,0,0,0,.11-0.18,0.89,0.89,0,0,0,.16.22A13.67,13.67,0,0,0,213,391.16ZM207.7,390c0.65,0.64,1.26,12.21,1.23,13.91s0.89,3.71.48,3.68-2.65-1.29-3.14-1.41-3.25,3.19-3.4,3.06,0.79-16.57.88-16.79c0,0,0,0,0,0a5,5,0,0,0,1.19-1.22,6.39,6.39,0,0,0,1.09-2.59A10.28,10.28,0,0,1,207.7,390Zm-1.53-3.89a72.6,72.6,0,0,1-8.73,3.76c-2.92,1-5.95,2-8.34,2.61l0.72-.83a53.86,53.86,0,0,1,5.46-5.91,7.38,7.38,0,0,1,5.56-1.73,11.66,11.66,0,0,1,5.35,1.61,0.34,0.34,0,0,1,.08.28A0.32,0.32,0,0,1,206.17,386.14ZM191,393c4.88-1.49,10.31-3.64,11.66-4.21a14.07,14.07,0,0,0,2.58-1.5,2,2,0,0,1,0,1.62,5.06,5.06,0,0,1-1.83,2.34,51.33,51.33,0,0,1-7.7,3.59c-2.45.87-14,4.5-14.6,4.61s-1.08-1-1.37-1.62-0.87-2.55-.87-2.55A94.28,94.28,0,0,0,191,393Zm-10.83,7.14c0.17,0.13,1.29.33,4-.71,3.07-1.17,9.89-3.1,12.15-3.84,1.19-.39,2.83-1,4.24-1.54a59.87,59.87,0,0,1-8.79,4.68c-5,2.29-10.58,5.08-12.14,5.86-1.12.56-3.49,2-4.9,2.88l-2.32-2.11-0.85-.73a30.91,30.91,0,0,1-3-2.8c2-1.4,8.12-3.21,10.08-3.75A9.58,9.58,0,0,0,180.15,400.12Zm30-4.43v0c0-.42-0.23-1.94-0.45-3.32a4,4,0,0,1,1.87-.54c0.63,0.07,17.9,7.81,24.72,11.32a3.72,3.72,0,0,1,1.4,1.08,5.33,5.33,0,0,1-1.64.8L222.75,410C219.89,406.72,210.14,395.69,210.14,395.69ZM244,385.57c0.77-.1,6.28-1,6.34-0.73s-3.45,1-3.5,1.68c0,0.32,1.54.77,1.62,1a45.09,45.09,0,0,1-4.89.6,1.55,1.55,0,0,0,.79-1.51A1.66,1.66,0,0,0,244,385.57Zm6.24-6-14.9,2.7c-1.63-.28-3.31-0.52-4.86-0.76l-1-.14c1.27-1.11,3.56-3.35,3.56-3.35a37.06,37.06,0,0,1,6.18-1.84c1.2-.24,2.56-0.46,3.73-0.62ZM228,366.8a3.17,3.17,0,0,1,3.7.59l10.22,7.23a24.61,24.61,0,0,0-3.29.69c-1.85.55-3.6,1-4.37,1.17a2.91,2.91,0,0,0,.61-1.08,9.6,9.6,0,0,0-3-1.21c-1.62-.51-5.43-1.21-5.43-1.21s-1.29-.3-1.9-0.51a5.54,5.54,0,0,0-2.41-.41c0.13-.19,2.26-3.41,2.69-4.11Zm-5.43,2c-1.14.73-2.5,1.6-2.6,1.6a2.11,2.11,0,0,1-.58-0.41Zm-4.84.91h0c0.29,0,1.74,1.61,2.46,1.43s3.35-2.51,3.58-2.5a33.82,33.82,0,0,1-2.72,3.53c-1.79.22-4,.57-5.35,0.89l-0.14,0A22.6,22.6,0,0,1,217.76,369.73Zm-12.22,5.64a6.11,6.11,0,0,1,1.14-.54h-0.06l9.17-3.45c-0.53,1-1,2-1,2a15,15,0,0,0-3.29,2.29,9.32,9.32,0,0,0-2.13,4.15,8.5,8.5,0,0,0,0,2.19,1.2,1.2,0,0,0-.3-0.44c-1.26-1.66-2-3.67-3.21-5.35A0.94,0.94,0,0,1,205.54,375.36Zm-1.24.45,0,0.06a25.58,25.58,0,0,1,1.45,2.28c0.33,0.69,2.48,4,2.48,4a15.11,15.11,0,0,0,.86,1.62v0a3.08,3.08,0,0,0-.45-0.11c-1-.17-2.34.12-2.66,0.78l-0.06,0a9.19,9.19,0,0,0-2.48-3.49,20.54,20.54,0,0,0-5.12-3.38Zm-23.49,9a4.51,4.51,0,0,1,.84-2,91.14,91.14,0,0,1,5.19-7.63c0.7-.55,1.63-0.75,4.07,0a62.07,62.07,0,0,1,9.22,4.39,16.93,16.93,0,0,1,3.62,2.83,12.25,12.25,0,0,1,1,1.39c-0.56-.22-4.83-1.23-6.81-0.69s-4.12,2.63-4.74,3.16c-0.19.16-.4,0.37-0.61,0.58-0.64,0-6.14.11-7.19,0a26.23,26.23,0,0,1-3.86-.88A0.92,0.92,0,0,1,180.82,384.82Zm-1.53,1.63a10.8,10.8,0,0,1,2.2.48l0,0v0a29.27,29.27,0,0,0,4.52.88,41.63,41.63,0,0,0,5.73,0s0.07,0.13-.28.35a14.35,14.35,0,0,1-3.49,1.16s-6.13,1.41-8.79.22A2.79,2.79,0,0,1,178,388.3,1.3,1.3,0,0,1,179.29,386.45Zm-19.69,5.1c0.25-.78,1.28-1.16,2.12-1.35,5.64-2,10.17-3.61,13.16-4.57,1.48-.49,1.8.06,2.13,0.29a6.42,6.42,0,0,0,.08,2.05c0.18,1,.79,2.41,3.25,2.68a20.25,20.25,0,0,0,5.77-.26c1.75-.26,3.24-0.66,4.14-0.73l-2.37,3.1c-0.36.07-1.52,0.37-1.84,0.42-3.76.66-8.34,1.16-8.34,1.16-0.41.44-.25,1,0.19,2.53-0.78.22-5.18,1.59-7.49,2.54a18.61,18.61,0,0,0-2.94,1.35l-4.88-4.88C160.48,393.79,159.26,392.59,159.59,391.55Zm13.52,41.28a0.39,0.39,0,0,1-.57.15l-6.42-7.24a5.85,5.85,0,0,1-.65-1.55,22.54,22.54,0,0,1-.57-2.49c-3.62-16.32-7.08-27.07-6.74-28.14,3.29,3.29,4.77,5,8.29,8.55L167.6,407c0.09,0.47.22,1.16,0.39,2,0.12,0.54,3.67,17.23,5.12,23.14A0.78,0.78,0,0,1,173.11,432.83Zm8.62,10.24a1.08,1.08,0,0,1-.26-0.19c-0.54-.38-2.26-2.46-5.78-6.62l-0.6-.71v0c-1.42-5.92-5.8-24.78-6.17-27.08,0,0-.62-3.63-0.88-4.91,0,0,1.76,1.57,2.51,2.26l0.6,0.63c0.24,0.2,1,1.09,2.11,2a66.41,66.41,0,0,0,1.48,8.3c1.11,5,5.89,21.62,5.89,21.62,0.35,1.2.49,2,.64,2.57s0.23,0.79.38,1.32A1.21,1.21,0,0,1,181.74,443.07Zm15,15.85c-0.36.22-1-.28-1.24-0.56-3.94-3.78-9-10-11.83-13.45a4.77,4.77,0,0,1-.34-0.69,5.62,5.62,0,0,1-.32-1.16,205.73,205.73,0,0,0-5.55-21,112.37,112.37,0,0,1-2.76-11.64c-0.05-.55.15-0.42,0.24-0.3,3.52,3.27,5.95,5.5,7.5,6.92,2.51,2.3,4.24,3.87,5.74,6.6a20.84,20.84,0,0,1,1.53,3.62c2.19,6.47,2.28,9.48,4.2,16.87,0.85,3.26,1.31,4.53,2.1,8.14,0.55,2.5.81,3.88,1,5.21A1.59,1.59,0,0,1,196.77,458.92ZM228.11,448a1.4,1.4,0,0,1-.75.65c-5.58,2.47-23,9.2-24.33,9.66a4.39,4.39,0,0,1-2.74.27c-0.84-.26-1.33-2.15-1.72-3.65-0.27-1-.42-1.62-0.82-3.69-1.54-7.8-4.69-19.41-5-20.45-0.27-1.32-1.57-6-1-6.94,0.8-1.34,1.82-1.51,3.29-1.95,9.18-2.73,17.7-6.22,26.72-9.58,0.41,0.27.73,1.87,0.93,2.84,0.35,1.67,4,23.11,5.41,31.31A2.27,2.27,0,0,1,228.11,448Zm15.58-5.81c-0.91.71-11.62,4.69-11.62,4.69a1.94,1.94,0,0,1-2.48-1.43c-0.48-2-5.87-33.16-5.87-33.16s0-.19-0.06-0.45l0,0,13.73-5.23a2.58,2.58,0,0,1,1.79-.09,1.19,1.19,0,0,1,.75,1c0.11,0.76,4.58,32.69,4.58,32.69A2.55,2.55,0,0,1,243.69,442.23Zm30.42-13.41c-1.06,1.1-19.17,8.27-25.21,10.94a3,3,0,0,1-2.11.23,1.29,1.29,0,0,1-.52-1l-4.77-32.31a3.84,3.84,0,0,1,.14-1.19,2,2,0,0,1,1.37-.87L269.93,395c0.6,0,.65,1.13.65,1.13s2.72,22.47,3.09,24.61S274.7,428.21,274.1,428.82Z" transform="translate(-156.41 -338.4)" style="fill: #5c211a"/>
      <polygon points="22.78 59.17 22.78 59.17 22.78 59.17 22.78 59.17" style="fill: #5c211a"/>
      <path d="M192.83,431.16h0Z" transform="translate(-156.41 -338.4)" style="fill: #5c211a"/>
    </g>
  </g>
</svg>
