<svg xmlns="http://www.w3.org/2000/svg" width="64.49" height="58.5" viewBox="0 0 64.49 58.5">
  <title>Материал.)</title>
  <path d="M619.68,113.15a10,10,0,0,1,7.79-3.41,10,10,0,0,1,10.14-11.58,10,10,0,0,1,10.14-11.58A10,10,0,0,1,657.19,75a30.24,30.24,0,0,0-40,45.35A10,10,0,0,1,619.68,113.15Z" transform="translate(-607.02 -67.41)" style="fill: #f08119;stroke: #682f24;stroke-miterlimit: 10;stroke-width: 1.5px"/>
  <path d="M627,109.1c-12.56-11-17.28-24.25-11.7-30.62S634.61,75,647.16,86" transform="translate(-607.02 -67.41)" style="fill: none;stroke: #692f17;stroke-linecap: round;stroke-miterlimit: 10;stroke-width: 0.699999988079071px"/>
  <line x1="30.59" y1="30.75" x2="8.12" y2="11.08" style="fill: none;stroke: #692f17;stroke-linecap: round;stroke-miterlimit: 10;stroke-width: 0.699999988079071px"/>
  <path d="M665.59,108.44a1.86,1.86,0,0,0,.17,2.63,3.72,3.72,0,1,1-4.9,5.6L638.29,96.91a1.84,1.84,0,0,0-.77-0.4,10,10,0,0,0,.08,2.39,10.07,10.07,0,0,0-2.23.2,1.87,1.87,0,0,0,.46.61l22.57,19.76a7.45,7.45,0,0,0,9.82-11.21A1.86,1.86,0,0,0,665.59,108.44Z" transform="translate(-607.02 -67.41)" style="fill: #e3ddd3;stroke: #692f17;stroke-linecap: round;stroke-linejoin: round;stroke-width: 1.5px"/>
  <path d="M635.8,110.9c-3.24,0-5.87.75-5.87,1.68v8.37c0,0.93,2.63,1.68,5.87,1.68s5.87-.75,5.87-1.68v-8.37C641.67,111.65,639,110.9,635.8,110.9Z" transform="translate(-607.02 -67.41)" style="fill: #f7c17f;stroke: #692f17;stroke-miterlimit: 10;stroke-width: 1.5px"/>
  <path d="M641.67,114.77c0,0.93-2.63,1.68-5.87,1.68s-5.87-.75-5.87-1.68" transform="translate(-607.02 -67.41)" style="fill: none;stroke: #692f17;stroke-miterlimit: 10;stroke-width: 0.699999988079071px"/>
  <path d="M641.67,112.6c0,0.93-2.63,1.68-5.87,1.68s-5.87-.75-5.87-1.68" transform="translate(-607.02 -67.41)" style="fill: none;stroke: #692f17;stroke-miterlimit: 10;stroke-width: 0.699999988079071px"/>
  <path d="M641.67,116.74c0,0.93-2.63,1.68-5.87,1.68s-5.87-.75-5.87-1.68" transform="translate(-607.02 -67.41)" style="fill: none;stroke: #692f17;stroke-miterlimit: 10;stroke-width: 0.699999988079071px"/>
  <path d="M641.67,118.71c0,0.93-2.63,1.68-5.87,1.68s-5.87-.75-5.87-1.68" transform="translate(-607.02 -67.41)" style="fill: none;stroke: #692f17;stroke-miterlimit: 10;stroke-width: 0.699999988079071px"/>
  <path d="M647.54,115.62c-3.24,0-5.87.75-5.87,1.68v6.18c0,0.93,2.63,1.68,5.87,1.68s5.87-.75,5.87-1.68V117.3C653.41,116.37,650.78,115.62,647.54,115.62Z" transform="translate(-607.02 -67.41)" style="fill: #f7c17f;stroke: #692f17;stroke-miterlimit: 10;stroke-width: 1.5px"/>
  <path d="M653.41,119.27c0,0.93-2.63,1.68-5.87,1.68s-5.87-.75-5.87-1.68" transform="translate(-607.02 -67.41)" style="fill: none;stroke: #692f17;stroke-miterlimit: 10;stroke-width: 0.699999988079071px"/>
  <path d="M653.41,117.3c0,0.93-2.63,1.68-5.87,1.68s-5.87-.75-5.87-1.68" transform="translate(-607.02 -67.41)" style="fill: none;stroke: #692f17;stroke-miterlimit: 10;stroke-width: 0.699999988079071px"/>
  <path d="M653.41,121.24c0,0.93-2.63,1.68-5.87,1.68s-5.87-.75-5.87-1.68" transform="translate(-607.02 -67.41)" style="fill: none;stroke: #692f17;stroke-miterlimit: 10;stroke-width: 0.699999988079071px"/>
</svg>
