<svg xmlns="http://www.w3.org/2000/svg" width="37.35mm" height="40.35mm" viewBox="0 0 105.88 114.39">
  <title>Телефон</title>
  <g>
    <path d="M822.42,139.73s3.2,10.21-5.43,10.28c-8,.07-7.23-13.45-1.52-10.82,5.07,2.34-4.94,10.87-11.52,7.5s-0.55-15.44,3.51-12.61-6.87,11.86-11.77,3.7,4.75-15.66,7.27-12.07-11.41,9.78-13.82.43,8.78-14.08,10-10.11c2,6.51-14.92,6.09-14.92-2.07,0-10.33,14.15-9.35,13.93-5.22s-11.63,1.08-10.09-5.66c1.32-5.76,11-6.79,11-6.79" transform="translate(-783.21 -36.62)" style="fill: none;stroke: #682f24;stroke-linecap: round;stroke-linejoin: round;stroke-width: 2px"/>
    <path d="M838,38.39c-9.41-2.44-25,.62-38.4,13.85h0l-0.12.13-0.13.13h0c-13,13.19-16,28.66-13.46,38a20.68,20.68,0,0,0,5,9c1.66,1.66,6.22-.19,10.17-4.14s5.81-8.5,4.14-10.17c0,0-6.18-5.71-4.94-10.85A44.65,44.65,0,0,1,809,61.94a45.87,45.87,0,0,1,12.57-9c5.19-1.29,10.89,4.9,10.89,4.9,1.66,1.66,6.26-.24,10.28-4.25S848.68,45,847,43.35A20.47,20.47,0,0,0,838,38.39Z" transform="translate(-783.21 -36.62)" style="fill: #f7f5f2;stroke: #682f24;stroke-miterlimit: 10;stroke-width: 2px"/>
    <rect x="34.94" y="33.16" width="69.94" height="69.94" rx="4.28" ry="4.28" style="fill: #f7f5f2;stroke: #682f24;stroke-linecap: round;stroke-linejoin: round;stroke-width: 2px"/>
    <path d="M787.56,95.22c1.67,2.66,6.49,0,10.73-3.94s5.82-7.52,4.14-9.28" transform="translate(-783.21 -36.62)" style="fill: none;stroke: #682f24;stroke-linecap: round;stroke-miterlimit: 10"/>
    <path d="M842.72,40.07c2.67,1.66-.05,6.54-4.05,10.84s-7.62,5.92-9.38,4.24" transform="translate(-783.21 -36.62)" style="fill: none;stroke: #682f24;stroke-linecap: round;stroke-miterlimit: 10"/>
    <path d="M43.85,38.6H57.59a3.59,3.59,0,0,1,3.59,3.59V94.65a3.59,3.59,0,0,1-3.59,3.59H43.85a3.59,3.59,0,0,1-3.59-3.59V42.2A3.6,3.6,0,0,1,43.85,38.6Z" style="fill: #e2ddd3;stroke: #682f24;stroke-linecap: round;stroke-linejoin: round"/>
    <circle cx="72.46" cy="52" r="3.37" style="fill: #e2ddd3;stroke: #682f24;stroke-linecap: round;stroke-linejoin: round"/>
    <circle cx="83.33" cy="52" r="3.37" style="fill: #e2ddd3;stroke: #682f24;stroke-linecap: round;stroke-linejoin: round"/>
    <circle cx="94.21" cy="52" r="3.37" style="fill: #e2ddd3;stroke: #682f24;stroke-linecap: round;stroke-linejoin: round"/>
    <circle cx="72.46" cy="62.57" r="3.37" style="fill: #e2ddd3;stroke: #682f24;stroke-linecap: round;stroke-linejoin: round"/>
    <circle cx="83.33" cy="62.57" r="3.37" style="fill: #e2ddd3;stroke: #682f24;stroke-linecap: round;stroke-linejoin: round"/>
    <circle cx="94.21" cy="62.57" r="3.37" style="fill: #e2ddd3;stroke: #682f24;stroke-linecap: round;stroke-linejoin: round"/>
    <circle cx="72.46" cy="73.11" r="3.37" style="fill: #e2ddd3;stroke: #682f24;stroke-linecap: round;stroke-linejoin: round"/>
    <circle cx="72.46" cy="87.54" r="3.37" style="fill: #f08119;stroke: #682f24;stroke-linecap: round;stroke-linejoin: round"/>
    <circle cx="83.33" cy="73.11" r="3.37" style="fill: #e2ddd3;stroke: #682f24;stroke-linecap: round;stroke-linejoin: round"/>
    <circle cx="94.21" cy="73.11" r="3.37" style="fill: #e2ddd3;stroke: #682f24;stroke-linecap: round;stroke-linejoin: round"/>
    <circle cx="83.33" cy="87.54" r="3.37" style="fill: #f08119;stroke: #682f24;stroke-linecap: round;stroke-linejoin: round"/>
    <circle cx="94.21" cy="87.54" r="3.37" style="fill: #f08119;stroke: #682f24;stroke-linecap: round;stroke-linejoin: round"/>
  </g>
</svg>
