<svg xmlns="http://www.w3.org/2000/svg" width="180.06" height="16" viewBox="0 0 180.06 16">
    <rect x="82.03" y="-82.03" width="16" height="180.06" transform="translate(82.03 98.03) rotate(-90)" fill="none"/>
    <polyline points="157.62 11.53 161.34 8 165.06 4.47 168.78 8 172.5 11.53" fill="none" stroke="#682f24" stroke-linecap="round" stroke-miterlimit="10"/>
    <polyline points="127.62 11.53 131.34 8 135.06 4.47 138.78 8 142.5 11.53" fill="none" stroke="#682f24" stroke-linecap="round" stroke-miterlimit="10" opacity="0.5"/>
    <polyline points="97.62 11.53 101.34 8 105.06 4.47 108.78 8 112.5 11.53" fill="none" stroke="#fff" stroke-linecap="round" stroke-miterlimit="10"/>
    <polyline points="22.05 4.68 18.55 8.01 15.05 11.32 11.55 8.01 8.05 4.68" fill="none" stroke="#682f24" stroke-linecap="round" stroke-miterlimit="10"/>
    <polyline points="52.49 4.47 48.77 8.01 45.05 11.53 41.33 8.01 37.61 4.47" fill="none" stroke="#682f24" stroke-linecap="round" stroke-miterlimit="10" opacity="0.5"/>
    <polyline points="82.49 4.47 78.77 8.01 75.05 11.53 71.33 8.01 67.61 4.47" fill="none" stroke="#fff" stroke-linecap="round" stroke-miterlimit="10"/>
</svg>