<svg xmlns="http://www.w3.org/2000/svg" width="70" height="70" viewBox="0 0 70 70"><title>душевая-кабина</title><g id="Слой_2" data-name="Слой 2"><g id="Слой_1-2" data-name="Слой 1"><rect width="70" height="70" fill="none"/><rect x="16.06" y="4.81" width="37.71" height="60.4" rx="4" ry="4" fill="#ffffff" stroke="#263239" stroke-miterlimit="10" stroke-width="1.5"/><path d="M43.82,64.83h5.95a4,4,0,0,0,4-4V9.13a4,4,0,0,0-4-4H43.85S44.06,64.6,43.82,64.83Z" fill="#ffffff" stroke="#263239" stroke-miterlimit="10" stroke-width="0.75"/><path d="M53.94,59.46V61a4,4,0,0,1-4,4H20.42a4,4,0,0,1-4-4v-1.5h37.5" fill="#ffffff" stroke="#263239" stroke-miterlimit="10" stroke-width="0.75"/><line x1="30.34" y1="12.13" x2="30.34" y2="4.79" fill="none" stroke="#263239" stroke-miterlimit="10" stroke-width="1.5"/><path d="M23.59,18.74a6.75,6.75,0,1,1,13.5,0" fill="#ffffff" stroke="#263239" stroke-miterlimit="10" stroke-width="1.5"/><line x1="21.59" y1="18.85" x2="39.09" y2="18.85" fill="none" stroke="#263239" stroke-linecap="round" stroke-miterlimit="10" stroke-width="1.5"/><circle cx="48.62" cy="37.9" r="1.6" fill="none" stroke="#263239" stroke-miterlimit="10" stroke-width="0.75"/></g></g></svg>
