<svg xmlns="http://www.w3.org/2000/svg" width="60" height="60" viewBox="0 0 60 60"><title>диван_1</title><g id="Слой_2" data-name="Слой 2"><g id="Слой_1-2" data-name="Слой 1"><rect width="60" height="60" fill="none"/><path d="M48.12,13.08H11.26C8.92,13.08,7,14.54,7,16.33V36.64c0,1.8,1.9,3.25,4.24,3.25H48.12c2.34,0,4.24-1.46,4.24-3.25V16.33C52.35,14.54,50.46,13.08,48.12,13.08Z" fill="#ffffff" stroke="#263239" stroke-linejoin="round"/><ellipse cx="29.69" cy="31.75" rx="23.35" ry="4.4" fill="#ffffff" stroke="#263239" stroke-linejoin="round" stroke-width="0.8"/><path d="M51.17,41.89a3.25,3.25,0,0,1-3,3.45h-37a3.25,3.25,0,0,1-3-3.45V37.53a3.25,3.25,0,0,1,3-3.45h37a3.25,3.25,0,0,1,3,3.45Z" fill="#ffffff" stroke="#263239" stroke-linejoin="round"/><path d="M10.3,28.63a4.65,4.65,0,1,0-6.62,4.21V45.12a1.8,1.8,0,0,0,1.8,1.8h3a1.8,1.8,0,0,0,1.8-1.8V28.73s0,0,0-.05S10.3,28.65,10.3,28.63Z" fill="#ffffff" stroke="#263239" stroke-linejoin="round"/><path d="M49.5,28.62a4.75,4.75,0,0,1,9.5,0,4.64,4.64,0,0,1-2.74,4.21V45.09a1.82,1.82,0,0,1-1.84,1.79H51.33a1.82,1.82,0,0,1-1.84-1.79V28.73s0,0,0-.05S49.5,28.64,49.5,28.62Z" fill="#ffffff" stroke="#263239" stroke-linejoin="round"/><circle cx="5.65" cy="28.56" r="1.21" fill="#ffffff" stroke="#263239" stroke-linejoin="round" stroke-width="0.8"/><circle cx="54.25" cy="28.56" r="1.21" fill="#ffffff" stroke="#263239" stroke-linejoin="round" stroke-width="0.8"/><path d="M48.26,24.56a40.68,40.68,0,0,1,.27-4.75c-2.17-1.09-5.1.67-8.31.67S34.15,18.7,32,19.77a40.62,40.62,0,0,1,.28,4.79A40.63,40.63,0,0,1,32,29.34c2.17,1.07,5.06-.14,8.23-.14s6.14,1.2,8.31.1A40.68,40.68,0,0,1,48.26,24.56Z" fill="#ffffff" stroke="#ff5a19" stroke-linejoin="round" stroke-width="0.8"/><path d="M30.11,24.56a40.68,40.68,0,0,1,.27-4.75c-2.17-1.09-5.1.67-8.31.67S16,18.7,13.83,19.77a40.62,40.62,0,0,1,.28,4.79,40.63,40.63,0,0,1-.28,4.79c2.17,1.07,5.06-.14,8.23-.14s6.14,1.2,8.31.1A40.68,40.68,0,0,1,30.11,24.56Z" fill="#ffffff" stroke="#ff5a19" stroke-linejoin="round" stroke-width="0.8"/></g></g></svg>
