<svg xmlns="http://www.w3.org/2000/svg" width="60" height="60" viewBox="0 0 60 60"><title>тюль_1</title><g id="Слой_2" data-name="Слой 2"><g id="Слой_1-2" data-name="Слой 1"><rect width="60" height="60" fill="none"/><path d="M30.26,51.16h0" fill="#ffffff" stroke="#263239" stroke-miterlimit="10" stroke-width="1.39"/><path d="M30.26,51.16h0" fill="#ffffff" stroke="#263239" stroke-miterlimit="10" stroke-width="1.39"/><polygon points="23.87 10.96 11.6 10.96 17.73 10.97 23.87 10.96" fill="#ffffff" stroke="#263239" stroke-linejoin="round" stroke-width="0.8"/><path d="M48.4,11a3.07,3.07,0,0,1-6.13,0,3.07,3.07,0,1,1-6.13,0A3.07,3.07,0,0,1,30,11a3.07,3.07,0,0,1-6.13,0,3.07,3.07,0,0,1-6.13,0,3.07,3.07,0,0,1-6.13,0h-.49V51.74c2.33,0,2.16-1.66,4.6-1.66s2.35,1.66,4.77,1.66,2.36-1.64,4.72-1.64,2.46,1.63,4.78,1.64,2.16-1.66,4.6-1.66,2.35,1.66,4.77,1.66,2.36-1.64,4.72-1.64,2.46,1.64,4.79,1.64V11Z" fill="#ffffff" stroke="#263239" stroke-linecap="round" stroke-miterlimit="10" stroke-width="0.8"/><rect x="8.62" y="8.26" width="42.77" height="2.67" fill="#ffffff" stroke="#ff5a19" stroke-linejoin="round"/></g></g></svg>
