<svg xmlns="http://www.w3.org/2000/svg" width="60" height="60" viewBox="0 0 60 60"><title>глажка-белья_1</title><g id="Слой_2" data-name="Слой 2"><g id="Слой_1-2" data-name="Слой 1"><rect width="60" height="60" fill="none"/><rect x="3.99" y="33.45" width="26.08" height="6.21" rx="1.05" ry="1.05" fill="#ffffff" stroke="#ff5a19" stroke-linecap="round" stroke-linejoin="round"/><path d="M29.82,32.49a1,1,0,0,1-1,1H5.7a1,1,0,0,1-1-1h0a1,1,0,0,1,1-1H28.86a1,1,0,0,1,1,1Z" fill="#ffffff" stroke="#ff5a19" stroke-linecap="round" stroke-linejoin="round"/><rect x="4.73" y="25.85" width="25.83" height="5.67" rx="1.05" ry="1.05" fill="#ffffff" stroke="#ff5a19" stroke-linecap="round" stroke-linejoin="round"/><rect x="3.99" y="21.8" width="27.14" height="4.05" rx="1.05" ry="1.05" fill="#ffffff" stroke="#ff5a19" stroke-linecap="round" stroke-linejoin="round"/><path d="M30.08,21a1,1,0,0,1-1,.84H5.78a1,1,0,0,1-1-.84V17.22a1,1,0,0,1,1-.84H29a1,1,0,0,1,1,.84Z" fill="#ffffff" stroke="#ff5a19" stroke-linecap="round" stroke-linejoin="round"/><line x1="5.03" y1="18.54" x2="29.82" y2="18.54" fill="none" stroke="#ff5a19" stroke-linecap="round" stroke-linejoin="round" stroke-width="0.8"/><line x1="11.06" y1="20.02" x2="29.82" y2="20.02" fill="none" stroke="#ff5a19" stroke-linecap="round" stroke-linejoin="round" stroke-width="0.8"/><line x1="3.99" y1="23.83" x2="24.89" y2="23.83" fill="none" stroke="#ff5a19" stroke-linecap="round" stroke-linejoin="round" stroke-width="0.8"/><line x1="30.08" y1="29.73" x2="8.04" y2="29.73" fill="none" stroke="#ff5a19" stroke-linecap="round" stroke-linejoin="round" stroke-width="0.8"/><line x1="29.82" y1="36.55" x2="4.21" y2="36.55" fill="none" stroke="#ff5a19" stroke-linecap="round" stroke-linejoin="round" stroke-width="0.8"/><path d="M46.74,36.42,45,27S31.81,27,27.25,28.11a20,20,0,0,0-8.63,4.33C15.31,35.31,12,42,12,42H44.26a5.55,5.55,0,0,1,2.49-5.56Zm-15.22-.33c-3.69.36-7.28.55-7.53-1.08s2.5-3.43,6.16-4,7.62.45,7.88,2.09S37.41,35.51,31.52,36.09Z" fill="#ffffff" stroke="#263239" stroke-linecap="round" stroke-linejoin="round"/><path d="M43.52,27.22h1.31l1.7,9.11a5.76,5.76,0,0,0-1.21,1.11Z" fill="#ffffff"/><path d="M44.66,27.42h0l1.64,8.82a6,6,0,0,0-.87.76l-1.68-9.57h.9m0-.4H43.28l1.91,10.9a5.67,5.67,0,0,1,1.55-1.51L45,27Z" fill="#263239"/><path d="M39.33,32.89c-.37-2.32-3.82-3.36-7.08-3.36a14.84,14.84,0,0,0-2.31.18c-3.94.62-7.7,2.72-7.25,5.51.39,2.44,3.66,2.44,4.89,2.44s2.79-.13,4.07-.25c4.4-.43,6.28-1,7.17-2.16A3,3,0,0,0,39.33,32.89Zm-7.8,3.2c-3.69.36-7.28.55-7.53-1.08s2.5-3.43,6.16-4,7.62.45,7.88,2.09S37.41,35.51,31.52,36.09Z" fill="#ffffff" stroke="#263239" stroke-linecap="round" stroke-linejoin="round" stroke-width="0.4"/><path d="M44.84,42.71c0,.5-.3.91-.66.91H11.75c-.37,0-.66-.41-.66-.91h0c0-.5.3-.91.66-.91H44.18c.37,0,.66.41.66.91Z" fill="#ffffff" stroke="#263239" stroke-linecap="round" stroke-linejoin="round" stroke-width="0.8"/><path d="M41.59,25.34a1.7,1.7,0,0,0-1.7,1.7v0c1.33,0,2.51,0,3.4-.05A1.7,1.7,0,0,0,41.59,25.34Z" fill="#ffffff" stroke="#263239" stroke-linecap="round" stroke-linejoin="round" stroke-width="0.8"/><path d="M46.27,30.95c-.33.06-.41-.25-.47-.57l-.31-1.73c-.06-.33-.11-.63.21-.69l2-.12a.6.6,0,0,1,.7.48l.24,1.33a.6.6,0,0,1-.48.7Z" fill="#ffffff" stroke="#263239" stroke-linecap="round" stroke-linejoin="round" stroke-width="0.8"/><path d="M48.64,28.82s3.85-.62,4.65,2.21c1.18,4.2-5.42,5.62-4.65,9.55C49.57,45.31,56,43,56,43" fill="none" stroke="#263239" stroke-linecap="round" stroke-linejoin="round" stroke-width="0.8"/><path d="M31.52,36.09a32.06,32.06,0,0,0,4.06-.6l0-.48a.88.88,0,0,0-.95-.8l-6.82.58a.88.88,0,0,0-.8.95l0,.58A36.26,36.26,0,0,0,31.52,36.09Z" fill="#ffffff" stroke="#263239" stroke-linecap="round" stroke-linejoin="round" stroke-width="0.4"/></g></g></svg>
