<svg xmlns="http://www.w3.org/2000/svg" width="57.9" height="80.03" viewBox="0 0 57.9 80.03"><title>жалюзи_2</title><g id="Слой_2" data-name="Слой 2"><g id="Слой_1-2" data-name="Слой 1"><rect x="3.07" y="0.89" width="51.75" height="78.52" fill="#ffffff" stroke="#263239" stroke-miterlimit="10" stroke-width="1.25"/><line x1="7.07" y1="0.9" x2="7.07" y2="79.47" fill="none" stroke="#263239" stroke-miterlimit="10" stroke-width="0.75"/><line x1="50.95" y1="0.9" x2="50.95" y2="79.47" fill="none" stroke="#263239" stroke-miterlimit="10" stroke-width="0.75"/><rect x="0.63" y="0.63" width="56.65" height="2.82" fill="#ffffff" stroke="#ff5a19" stroke-linejoin="round" stroke-width="1.25"/><line x1="56.6" y1="3.65" x2="56.6" y2="36.82" fill="none" stroke="#ff5a19" stroke-linejoin="round" stroke-width="0.88"/><circle cx="56.63" cy="37.45" r="0.83" fill="none" stroke="#ff5a19" stroke-linejoin="round" stroke-width="0.88"/><line x1="55" y1="7.06" x2="3.41" y2="7.06" fill="#ffffff" stroke="#263239" stroke-miterlimit="10" stroke-width="0.75"/><line x1="55" y1="11.08" x2="3.41" y2="11.08" fill="#ffffff" stroke="#263239" stroke-miterlimit="10" stroke-width="0.75"/><line x1="55" y1="15.1" x2="3.41" y2="15.1" fill="#ffffff" stroke="#263239" stroke-miterlimit="10" stroke-width="0.75"/><line x1="55" y1="19.12" x2="3.41" y2="19.12" fill="#ffffff" stroke="#263239" stroke-miterlimit="10" stroke-width="0.75"/><line x1="55" y1="23.14" x2="3.41" y2="23.14" fill="#ffffff" stroke="#263239" stroke-miterlimit="10" stroke-width="0.75"/><line x1="55" y1="27.16" x2="3.41" y2="27.16" fill="#ffffff" stroke="#263239" stroke-miterlimit="10" stroke-width="0.75"/><line x1="55" y1="31.19" x2="3.41" y2="31.19" fill="#ffffff" stroke="#263239" stroke-miterlimit="10" stroke-width="0.75"/><line x1="55" y1="35.21" x2="3.41" y2="35.21" fill="#ffffff" stroke="#263239" stroke-miterlimit="10" stroke-width="0.75"/><line x1="55" y1="39.23" x2="3.41" y2="39.23" fill="#ffffff" stroke="#263239" stroke-miterlimit="10" stroke-width="0.75"/><line x1="55" y1="43.25" x2="3.41" y2="43.25" fill="#ffffff" stroke="#263239" stroke-miterlimit="10" stroke-width="0.75"/><line x1="55" y1="47.27" x2="3.41" y2="47.27" fill="#ffffff" stroke="#263239" stroke-miterlimit="10" stroke-width="0.75"/><line x1="55" y1="51.29" x2="3.41" y2="51.29" fill="#ffffff" stroke="#263239" stroke-miterlimit="10" stroke-width="0.75"/><line x1="55" y1="55.31" x2="3.41" y2="55.31" fill="#ffffff" stroke="#263239" stroke-miterlimit="10" stroke-width="0.75"/><line x1="55" y1="59.33" x2="3.41" y2="59.33" fill="#ffffff" stroke="#263239" stroke-miterlimit="10" stroke-width="0.75"/><line x1="55" y1="63.35" x2="3.41" y2="63.35" fill="#ffffff" stroke="#263239" stroke-miterlimit="10" stroke-width="0.75"/><line x1="55" y1="67.37" x2="3.41" y2="67.37" fill="#ffffff" stroke="#263239" stroke-miterlimit="10" stroke-width="0.75"/><line x1="55" y1="71.39" x2="3.41" y2="71.39" fill="#ffffff" stroke="#263239" stroke-miterlimit="10" stroke-width="0.75"/><line x1="55" y1="75.41" x2="3.41" y2="75.41" fill="#ffffff" stroke="#263239" stroke-miterlimit="10" stroke-width="0.75"/></g></g></svg>
