<svg xmlns="http://www.w3.org/2000/svg" width="60" height="60" viewBox="0 0 60 60"><title>обеспыливание</title><g id="Слой_2" data-name="Слой 2"><g id="Слой_1-2" data-name="Слой 1"><rect width="60" height="60" fill="none"/><rect x="11" y="11.75" width="38" height="15.75" rx="2" ry="2" fill="#ffffff" stroke="#263239" stroke-linejoin="round" stroke-width="0.8"/><rect x="15.54" y="15.25" width="28.79" height="8.75" rx="2" ry="2" fill="#ffffff" stroke="#263239" stroke-linejoin="round" stroke-width="0.8"/><rect x="23.25" y="15.25" width="12.71" height="8.75" fill="#ffffff" stroke="#ff5a19" stroke-linejoin="round" stroke-width="0.8"/><path d="M29.25,18.33h1.08a1,1,0,0,1,1,1v31a0,0,0,0,1,0,0H28.25a0,0,0,0,1,0,0v-31A1,1,0,0,1,29.25,18.33Z" fill="#ffffff" stroke="#263239" stroke-linejoin="round" stroke-width="0.8"/><line x1="31.25" y1="28.83" x2="28.17" y2="28.83" fill="#dbc19f" stroke="#263239" stroke-linejoin="round" stroke-width="0.8"/><line x1="13" y1="11.75" x2="13" y2="9.62" fill="none" stroke="#263239" stroke-linecap="round" stroke-linejoin="round" stroke-width="0.8"/><line x1="11.71" y1="11.83" x2="10.21" y2="10.33" fill="none" stroke="#263239" stroke-linecap="round" stroke-linejoin="round" stroke-width="0.8"/><line x1="50.17" y1="28.67" x2="48.67" y2="27.17" fill="none" stroke="#263239" stroke-linecap="round" stroke-linejoin="round" stroke-width="0.8"/><line x1="11.56" y1="27.42" x2="10.06" y2="28.92" fill="none" stroke="#263239" stroke-linecap="round" stroke-linejoin="round" stroke-width="0.8"/><line x1="50.02" y1="10.37" x2="48.52" y2="11.88" fill="none" stroke="#263239" stroke-linecap="round" stroke-linejoin="round" stroke-width="0.8"/><line x1="14.92" y1="11.75" x2="14.92" y2="9.62" fill="none" stroke="#263239" stroke-linecap="round" stroke-linejoin="round" stroke-width="0.8"/><line x1="16.84" y1="11.75" x2="16.84" y2="9.62" fill="none" stroke="#263239" stroke-linecap="round" stroke-linejoin="round" stroke-width="0.8"/><line x1="18.77" y1="11.75" x2="18.77" y2="9.62" fill="none" stroke="#263239" stroke-linecap="round" stroke-linejoin="round" stroke-width="0.8"/><line x1="20.69" y1="11.75" x2="20.69" y2="9.62" fill="none" stroke="#263239" stroke-linecap="round" stroke-linejoin="round" stroke-width="0.8"/><line x1="22.61" y1="11.75" x2="22.61" y2="9.62" fill="none" stroke="#263239" stroke-linecap="round" stroke-linejoin="round" stroke-width="0.8"/><line x1="24.53" y1="11.75" x2="24.53" y2="9.62" fill="none" stroke="#263239" stroke-linecap="round" stroke-linejoin="round" stroke-width="0.8"/><line x1="26.45" y1="11.75" x2="26.45" y2="9.62" fill="none" stroke="#263239" stroke-linecap="round" stroke-linejoin="round" stroke-width="0.8"/><line x1="28.38" y1="11.75" x2="28.38" y2="9.62" fill="none" stroke="#263239" stroke-linecap="round" stroke-linejoin="round" stroke-width="0.8"/><line x1="30.3" y1="11.75" x2="30.3" y2="9.62" fill="none" stroke="#263239" stroke-linecap="round" stroke-linejoin="round" stroke-width="0.8"/><line x1="32.22" y1="11.75" x2="32.22" y2="9.62" fill="none" stroke="#263239" stroke-linecap="round" stroke-linejoin="round" stroke-width="0.8"/><line x1="34.14" y1="11.75" x2="34.14" y2="9.62" fill="none" stroke="#263239" stroke-linecap="round" stroke-linejoin="round" stroke-width="0.8"/><line x1="36.06" y1="11.75" x2="36.06" y2="9.62" fill="none" stroke="#263239" stroke-linecap="round" stroke-linejoin="round" stroke-width="0.8"/><line x1="37.98" y1="11.75" x2="37.98" y2="9.62" fill="none" stroke="#263239" stroke-linecap="round" stroke-linejoin="round" stroke-width="0.8"/><line x1="39.91" y1="11.75" x2="39.91" y2="9.62" fill="none" stroke="#263239" stroke-linecap="round" stroke-linejoin="round" stroke-width="0.8"/><line x1="41.83" y1="11.75" x2="41.83" y2="9.62" fill="none" stroke="#263239" stroke-linecap="round" stroke-linejoin="round" stroke-width="0.8"/><line x1="43.75" y1="11.75" x2="43.75" y2="9.62" fill="none" stroke="#263239" stroke-linecap="round" stroke-linejoin="round" stroke-width="0.8"/><line x1="45.67" y1="11.75" x2="45.67" y2="9.62" fill="none" stroke="#263239" stroke-linecap="round" stroke-linejoin="round" stroke-width="0.8"/><line x1="47.59" y1="11.75" x2="47.59" y2="9.62" fill="none" stroke="#263239" stroke-linecap="round" stroke-linejoin="round" stroke-width="0.8"/><line x1="13" y1="29.62" x2="13" y2="27.5" fill="none" stroke="#263239" stroke-linecap="round" stroke-linejoin="round" stroke-width="0.8"/><line x1="14.92" y1="29.62" x2="14.92" y2="27.5" fill="none" stroke="#263239" stroke-linecap="round" stroke-linejoin="round" stroke-width="0.8"/><line x1="16.84" y1="29.62" x2="16.84" y2="27.5" fill="none" stroke="#263239" stroke-linecap="round" stroke-linejoin="round" stroke-width="0.8"/><line x1="18.77" y1="29.62" x2="18.77" y2="27.5" fill="none" stroke="#263239" stroke-linecap="round" stroke-linejoin="round" stroke-width="0.8"/><line x1="20.69" y1="29.62" x2="20.69" y2="27.5" fill="none" stroke="#263239" stroke-linecap="round" stroke-linejoin="round" stroke-width="0.8"/><line x1="22.61" y1="29.62" x2="22.61" y2="27.5" fill="none" stroke="#263239" stroke-linecap="round" stroke-linejoin="round" stroke-width="0.8"/><line x1="24.53" y1="29.62" x2="24.53" y2="27.5" fill="none" stroke="#263239" stroke-linecap="round" stroke-linejoin="round" stroke-width="0.8"/><line x1="26.45" y1="29.62" x2="26.45" y2="27.5" fill="none" stroke="#263239" stroke-linecap="round" stroke-linejoin="round" stroke-width="0.8"/><line x1="32.22" y1="29.62" x2="32.22" y2="27.5" fill="none" stroke="#263239" stroke-linecap="round" stroke-linejoin="round" stroke-width="0.8"/><line x1="34.14" y1="29.62" x2="34.14" y2="27.5" fill="none" stroke="#263239" stroke-linecap="round" stroke-linejoin="round" stroke-width="0.8"/><line x1="36.06" y1="29.62" x2="36.06" y2="27.5" fill="none" stroke="#263239" stroke-linecap="round" stroke-linejoin="round" stroke-width="0.8"/><line x1="37.98" y1="29.62" x2="37.98" y2="27.5" fill="none" stroke="#263239" stroke-linecap="round" stroke-linejoin="round" stroke-width="0.8"/><line x1="39.91" y1="29.62" x2="39.91" y2="27.5" fill="none" stroke="#263239" stroke-linecap="round" stroke-linejoin="round" stroke-width="0.8"/><line x1="41.83" y1="29.62" x2="41.83" y2="27.5" fill="none" stroke="#263239" stroke-linecap="round" stroke-linejoin="round" stroke-width="0.8"/><line x1="43.75" y1="29.62" x2="43.75" y2="27.5" fill="none" stroke="#263239" stroke-linecap="round" stroke-linejoin="round" stroke-width="0.8"/><line x1="45.67" y1="29.62" x2="45.67" y2="27.5" fill="none" stroke="#263239" stroke-linecap="round" stroke-linejoin="round" stroke-width="0.8"/><line x1="47.59" y1="29.62" x2="47.59" y2="27.5" fill="none" stroke="#263239" stroke-linecap="round" stroke-linejoin="round" stroke-width="0.8"/><line x1="51.09" y1="26.19" x2="48.97" y2="26.19" fill="none" stroke="#263239" stroke-linecap="round" stroke-linejoin="round" stroke-width="0.8"/><line x1="51.09" y1="24.27" x2="48.97" y2="24.27" fill="none" stroke="#263239" stroke-linecap="round" stroke-linejoin="round" stroke-width="0.8"/><line x1="51.09" y1="22.34" x2="48.97" y2="22.34" fill="none" stroke="#263239" stroke-linecap="round" stroke-linejoin="round" stroke-width="0.8"/><line x1="51.09" y1="20.42" x2="48.97" y2="20.42" fill="none" stroke="#263239" stroke-linecap="round" stroke-linejoin="round" stroke-width="0.8"/><line x1="51.09" y1="18.5" x2="48.97" y2="18.5" fill="none" stroke="#263239" stroke-linecap="round" stroke-linejoin="round" stroke-width="0.8"/><line x1="51.09" y1="16.58" x2="48.97" y2="16.58" fill="none" stroke="#263239" stroke-linecap="round" stroke-linejoin="round" stroke-width="0.8"/><line x1="51.09" y1="14.66" x2="48.97" y2="14.66" fill="none" stroke="#263239" stroke-linecap="round" stroke-linejoin="round" stroke-width="0.8"/><line x1="51.09" y1="12.73" x2="48.97" y2="12.73" fill="none" stroke="#263239" stroke-linecap="round" stroke-linejoin="round" stroke-width="0.8"/><line x1="11.03" y1="26.19" x2="8.91" y2="26.19" fill="none" stroke="#263239" stroke-linecap="round" stroke-linejoin="round" stroke-width="0.8"/><line x1="11.03" y1="24.27" x2="8.91" y2="24.27" fill="none" stroke="#263239" stroke-linecap="round" stroke-linejoin="round" stroke-width="0.8"/><line x1="11.03" y1="22.34" x2="8.91" y2="22.34" fill="none" stroke="#263239" stroke-linecap="round" stroke-linejoin="round" stroke-width="0.8"/><line x1="11.03" y1="20.42" x2="8.91" y2="20.42" fill="none" stroke="#263239" stroke-linecap="round" stroke-linejoin="round" stroke-width="0.8"/><line x1="11.03" y1="18.5" x2="8.91" y2="18.5" fill="none" stroke="#263239" stroke-linecap="round" stroke-linejoin="round" stroke-width="0.8"/><line x1="11.03" y1="16.58" x2="8.91" y2="16.58" fill="none" stroke="#263239" stroke-linecap="round" stroke-linejoin="round" stroke-width="0.8"/><line x1="11.03" y1="14.66" x2="8.91" y2="14.66" fill="none" stroke="#263239" stroke-linecap="round" stroke-linejoin="round" stroke-width="0.8"/><line x1="11.03" y1="12.73" x2="8.91" y2="12.73" fill="none" stroke="#263239" stroke-linecap="round" stroke-linejoin="round" stroke-width="0.8"/></g></g></svg>
