<svg xmlns="http://www.w3.org/2000/svg" width="114.13" height="80.32" viewBox="0 0 114.13 80.32"><title>сайдинг_1</title><g id="Слой_2" data-name="Слой 2"><g id="Слой_1-2" data-name="Слой 1"><rect width="114.13" height="80" fill="#fff"/><line x1="0.04" y1="54.99" x2="114.13" y2="54.99" fill="none" stroke="#263239" stroke-miterlimit="10" stroke-width="0.65"/><line x1="0.04" y1="59.16" x2="114.13" y2="59.16" fill="none" stroke="#263239" stroke-miterlimit="10" stroke-width="0.65"/><line x1="0.04" y1="63.33" x2="114.13" y2="63.33" fill="none" stroke="#263239" stroke-miterlimit="10" stroke-width="0.65"/><line x1="0.04" y1="67.49" x2="114.13" y2="67.49" fill="none" stroke="#263239" stroke-miterlimit="10" stroke-width="0.65"/><line x1="0.04" y1="71.66" x2="114.13" y2="71.66" fill="none" stroke="#263239" stroke-miterlimit="10" stroke-width="0.65"/><line x1="0.04" y1="75.82" x2="114.13" y2="75.82" fill="none" stroke="#263239" stroke-miterlimit="10" stroke-width="0.65"/><line x1="0.04" y1="79.99" x2="114.13" y2="79.99" fill="none" stroke="#263239" stroke-miterlimit="10" stroke-width="0.65"/><line x1="0.04" y1="25.84" x2="114.13" y2="25.84" fill="none" stroke="#263239" stroke-miterlimit="10" stroke-width="0.65"/><line x1="0.04" y1="30.01" x2="114.13" y2="30.01" fill="none" stroke="#263239" stroke-miterlimit="10" stroke-width="0.65"/><line x1="0.04" y1="34.17" x2="114.13" y2="34.17" fill="none" stroke="#263239" stroke-miterlimit="10" stroke-width="0.65"/><line x1="0.04" y1="38.34" x2="114.13" y2="38.34" fill="none" stroke="#263239" stroke-miterlimit="10" stroke-width="0.65"/><line x1="0.04" y1="42.51" x2="114.13" y2="42.51" fill="none" stroke="#263239" stroke-miterlimit="10" stroke-width="0.65"/><line x1="0.04" y1="46.67" x2="114.13" y2="46.67" fill="none" stroke="#263239" stroke-miterlimit="10" stroke-width="0.65"/><line x1="0.04" y1="50.84" x2="114.13" y2="50.84" fill="none" stroke="#263239" stroke-miterlimit="10" stroke-width="0.65"/><line x1="0.04" y1="13.34" x2="114.13" y2="13.34" fill="none" stroke="#263239" stroke-miterlimit="10" stroke-width="0.65"/><line x1="0.04" y1="17.51" x2="114.13" y2="17.51" fill="none" stroke="#263239" stroke-miterlimit="10" stroke-width="0.65"/><line x1="0.04" y1="21.67" x2="114.13" y2="21.67" fill="none" stroke="#263239" stroke-miterlimit="10" stroke-width="0.65"/><line x1="0.05" y1="0.85" x2="114.13" y2="0.85" fill="none" stroke="#263239" stroke-miterlimit="10" stroke-width="0.65"/><line x1="0.05" y1="5.02" x2="114.13" y2="5.02" fill="none" stroke="#263239" stroke-miterlimit="10" stroke-width="0.65"/><line x1="0.05" y1="9.18" x2="114.13" y2="9.18" fill="none" stroke="#263239" stroke-miterlimit="10" stroke-width="0.65"/><rect x="5.53" width="103.65" height="55.21" fill="#263239"/><rect x="6.81" y="1.27" width="101.09" height="52.76" fill="#ffffff"/><rect x="11" y="5.79" width="20.78" height="43.21" fill="#263239"/><rect x="34.98" y="5.79" width="20.77" height="43.21" fill="#263239"/><rect x="36" y="6.81" width="18.72" height="41.15" fill="#fff"/><rect x="58.88" y="5.79" width="20.78" height="43.21" fill="#263239"/><rect x="82.99" y="5.79" width="20.76" height="43.21" fill="#263239"/><rect x="59.91" y="6.81" width="18.72" height="41.15" fill="#fff"/><rect x="83.87" y="6.81" width="18.72" height="41.15" fill="#fff"/><rect x="12.03" y="6.82" width="18.72" height="41.15" fill="#fff"/></g></g></svg>
