<svg xmlns="http://www.w3.org/2000/svg" width="48.17" height="48" viewBox="0 0 48.17 48"><g id="Слой_2" data-name="Слой 2"><g id="Слой_1-2" data-name="Слой 1"><rect x="0.17" width="48" height="48" fill="none"/><ellipse cx="23.67" cy="39.8" rx="23.17" ry="7.1" fill="#ffffff"/><path d="M23.67,47.4C12,47.4,0,44.56,0,39.8s12-7.6,23.67-7.6S47.34,35,47.34,39.8,35.3,47.4,23.67,47.4Zm0-14.2C10.11,33.2,1,36.62,1,39.8s9.11,6.6,22.67,6.6S46.34,43,46.34,39.8,37.23,33.2,23.67,33.2Z" fill="#263239"/><ellipse cx="23.67" cy="39.48" rx="18.64" ry="4.84" fill="#ffffff"/><path d="M23.67,44.57c-10.59,0-18.89-2.24-18.89-5.09s8.3-5.09,18.89-5.09,18.89,2.24,18.89,5.09S34.26,44.57,23.67,44.57Zm0-9.68c-11,0-18.39,2.37-18.39,4.59s7.39,4.59,18.39,4.59,18.39-2.37,18.39-4.59S34.67,34.89,23.67,34.89Z" fill="#263239"/><path d="M23.79,33.84V16.2s-9.85-1.9-14.88,5.88c-4.74,7.32,1.67,18.65,1.67,18.65H21.09" fill="#ffffff" fill-rule="evenodd"/><path d="M21.09,41.23H10.58a.5.5,0,0,1-.43-.25C9.88,40.5,3.64,29.3,8.49,21.81c5.16-8,15.3-6.12,15.4-6.1a.5.5,0,0,1,.41.49V33.84h-1V16.63c-1.87-.24-9.74-.8-14,5.72S10,38.54,10.88,40.23H21.09Z" fill="#ff5a19"/><ellipse cx="21.52" cy="36.85" rx="3.94" ry="3.89" fill="#ffffff"/><path d="M21.52,41.23A4.39,4.39,0,1,1,26,36.85,4.42,4.42,0,0,1,21.52,41.23Zm0-7.77A3.39,3.39,0,1,0,25,36.85,3.42,3.42,0,0,0,21.52,33.46Z" fill="263239"/><ellipse cx="21.52" cy="36.85" rx="2.26" ry="2.23" fill="#ffffff"/><path d="M21.52,39.33A2.48,2.48,0,1,1,24,36.85,2.5,2.5,0,0,1,21.52,39.33Zm0-4.46a2,2,0,1,0,2,2A2,2,0,0,0,21.52,34.86Z" fill="#263239"/><path d="M8,34.68v-.5A10.32,10.32,0,0,0,18.34,23.94,10.14,10.14,0,0,0,15.59,17l.37-.34a10.64,10.64,0,0,1,2.88,7.29A10.82,10.82,0,0,1,8,34.68Z" fill="#ff5a19"/><path d="M37.25,36.24H35L30.34,7.19C29.78,4.59,28.43,3,26.08,3a4.24,4.24,0,0,0-4.26,4.21v6.9H19.59V7.19A6.46,6.46,0,0,1,26.08.77c3.58,0,5.79,2.62,6.5,6.42Z" fill="#ffffff"/><path d="M37.25,36.74H35a.5.5,0,0,1-.49-.42L29.85,7.27C29.3,4.76,28,3.47,26.08,3.47a3.74,3.74,0,0,0-3.76,3.71v6.9a.5.5,0,0,1-.5.5H19.59a.5.5,0,0,1-.5-.5V7.19a7,7,0,0,1,7-6.92c3.64,0,6.19,2.49,7,6.83l4.68,29.07a.5.5,0,0,1-.49.58Zm-1.81-1h1.22L32.08,7.27c-.7-3.81-2.89-6-6-6a6,6,0,0,0-6,5.92v6.4h1.23V7.19a4.74,4.74,0,0,1,4.76-4.71c1.71,0,3.93.8,4.75,4.61Z" fill="#263239"/><path d="M18.59,16h0a1.93,1.93,0,0,1,1.94-1.91h.66A1.93,1.93,0,0,1,23.13,16h0" fill="#ffffff"/><path d="M23.63,16h-1a1.43,1.43,0,0,0-1.44-1.41h-.66A1.43,1.43,0,0,0,19.09,16h-1a2.43,2.43,0,0,1,2.44-2.41h.66A2.43,2.43,0,0,1,23.63,16Z" fill="#ff5a19"/><polygon points="33.67 30.13 34.68 36.31 37.48 36.35 36.44 30.13 33.67 30.13" fill="#ffffff"/><path d="M37.47,36.85h0l-2.8,0a.5.5,0,0,1-.49-.42l-1-6.19a.5.5,0,0,1,.49-.58h2.77a.5.5,0,0,1,.49.42l1,6.22a.5.5,0,0,1-.49.58Zm-2.37-1,1.78,0L36,30.63H34.26Z" fill="#263239"/><polygon points="39.99 40.41 32.05 40.41 33.03 35.19 39 35.19 39.99 40.41" fill="#ffffff"/><path d="M40,40.91H32a.5.5,0,0,1-.49-.59l1-5.22a.5.5,0,0,1,.49-.41h6a.5.5,0,0,1,.49.41l1,5.22a.5.5,0,0,1-.49.59Zm-7.34-1h6.74l-.8-4.22H33.45Z" fill="#263239"/></g></g></svg>
