<svg xmlns="http://www.w3.org/2000/svg" width="60" height="60" viewBox="0 0 60 60"><title>нанесения-защитных-покрытий</title><g id="Слой_2" data-name="Слой 2"><g id="Слой_1-2" data-name="Слой 1"><rect width="60" height="60" fill="none"/><path d="M28.85,31.39c0-1.15.88-2.19,2.3-3V13H26.37s.48,2.93-3.73,6.42c-3.25,2.69-7.21,4.85-7.38,9a2.28,2.28,0,0,0,0,.44V47.19c0,1.09,3.57,2,8,2a24.51,24.51,0,0,0,5.67-.59Z" fill="#ffffff" stroke="#263239" stroke-linejoin="round" stroke-width="0.87"/><path d="M36.82,19.42a9,9,0,0,1,2.79.34v7.57a9.23,9.23,0,0,1-2.79.34A9.22,9.22,0,0,1,34,27.33V19.76a9,9,0,0,1,2.79-.34m0-.87c-2,0-3.66.38-3.66.86v8.27c0,.47,1.64.86,3.66.86s3.66-.38,3.66-.86V19.41c0-.47-1.64-.86-3.66-.86Z" fill="#ffffff"/><path d="M28.71,13a21,21,0,0,1-2.91-.14V8a21,21,0,0,1,2.91-.14A21,21,0,0,1,31.62,8v4.86A21,21,0,0,1,28.71,13Z" fill="#ffffff"/><path d="M28.71,8.27c1.13,0,2,0,2.48.09v4.09c-.5,0-1.35.09-2.48.09s-2,0-2.48-.09V8.36c.5,0,1.35-.09,2.48-.09m0-.87c-1.67,0-3.34.1-3.34.3v5.42c0,.2,1.67.3,3.34.3s3.34-.1,3.34-.3V7.7c0-.2-1.67-.3-3.34-.3Z" fill="#ff5a19"/><path d="M40.09,27.55a8.93,8.93,0,0,1-3.27.47,8.93,8.93,0,0,1-3.27-.47c-2.77.66-4.7,2.13-4.7,3.84V50.63c0,1.09,3.57,2,8,2s8-.88,8-2V31.39C44.79,29.68,42.86,28.21,40.09,27.55Z" fill="#ffffff" stroke="#263239" stroke-linejoin="round" stroke-width="0.87"/><path d="M36.82,28.14a7.24,7.24,0,0,1-3.22-.51V19.53A7.26,7.26,0,0,1,36.82,19a7.26,7.26,0,0,1,3.22.51v8.11A7.24,7.24,0,0,1,36.82,28.14Z" fill="#ffffff"/><path d="M36.82,19.46a9.22,9.22,0,0,1,2.79.34v7.57a9.24,9.24,0,0,1-2.79.34A9.23,9.23,0,0,1,34,27.37V19.8a9.22,9.22,0,0,1,2.79-.34m0-.87c-2,0-3.66.38-3.66.86v8.27c0,.47,1.64.86,3.66.86s3.66-.38,3.66-.86V19.45c0-.47-1.64-.86-3.66-.86Z" fill="#ff5a19"/></g></g></svg>
