<svg xmlns="http://www.w3.org/2000/svg" width="60" height="60" viewBox="0 0 60 60"><title>межплиточные-швы</title><g id="Слой_2" data-name="Слой 2"><g id="Слой_1-2" data-name="Слой 1"><rect width="60" height="60" fill="none"/><rect x="23" y="23.03" width="14" height="14" fill="#ffffff" stroke="#263239" stroke-linejoin="round" stroke-width="0.8"/><rect x="23" y="9.03" width="14" height="14" fill="#ffffff" stroke="#263239" stroke-linejoin="round" stroke-width="0.8"/><rect x="23" y="37.03" width="14" height="14" fill="#ffffff" stroke="#263239" stroke-linejoin="round" stroke-width="0.8"/><rect x="9" y="23.03" width="14" height="14" fill="#ffffff" stroke="#263239" stroke-linejoin="round" stroke-width="0.8"/><rect x="9" y="9.03" width="14" height="14" fill="#ffffff" stroke="#263239" stroke-linejoin="round" stroke-width="0.8"/><rect x="9" y="37.03" width="14" height="14" fill="#ffffff" stroke="#263239" stroke-linejoin="round" stroke-width="0.8"/><rect x="37" y="37.03" width="14" height="14" fill="#ffffff" stroke="#263239" stroke-linejoin="round" stroke-width="0.8"/><rect x="37" y="23.03" width="14" height="14" fill="#ffffff" stroke="#263239" stroke-linejoin="round" stroke-width="0.8"/><rect x="37" y="9.03" width="14" height="14" fill="#ffffff" stroke="#263239" stroke-linejoin="round" stroke-width="0.8"/><path d="M26.83,34.25V38a.36.36,0,0,1-.36.36h0a.36.36,0,0,1-.36-.36V34.25" fill="#ffffff" stroke="#263239" stroke-linejoin="round" stroke-width="0.4"/><polygon points="31.54 32.32 26.42 32.32 26.42 29.17 27.11 28.53 30.85 28.53 31.54 29.17 31.54 32.32" fill="#ffffff" stroke="#263239" stroke-linejoin="round"/><path d="M27.55,34.25V38a.36.36,0,0,1-.36.36h0a.36.36,0,0,1-.36-.36V34.25" fill="#ffffff" stroke="#263239" stroke-linejoin="round" stroke-width="0.4"/><path d="M28.27,34.25V38a.36.36,0,0,1-.36.36h0a.36.36,0,0,1-.36-.36V34.25" fill="#ffffff" stroke="#263239" stroke-linejoin="round" stroke-width="0.4"/><path d="M29,34.25V38a.36.36,0,0,1-.36.36h0a.36.36,0,0,1-.36-.36V34.25" fill="#ffffff" stroke="#263239" stroke-linejoin="round" stroke-width="0.4"/><path d="M29.71,34.25V38a.36.36,0,0,1-.36.36h0A.36.36,0,0,1,29,38V34.25" fill="#ffffff" stroke="#263239" stroke-linejoin="round" stroke-width="0.4"/><path d="M30.43,34.25V38a.36.36,0,0,1-.36.36h0a.36.36,0,0,1-.36-.36V34.25" fill="#ffffff" stroke="#263239" stroke-linejoin="round" stroke-width="0.4"/><path d="M31.15,34.25V38a.36.36,0,0,1-.36.36h0a.36.36,0,0,1-.36-.36V34.25" fill="#ffffff" stroke="#263239" stroke-linejoin="round" stroke-width="0.4"/><path d="M31.87,34.25V38a.36.36,0,0,1-.36.36h0a.36.36,0,0,1-.36-.36V34.25" fill="#ffffff" stroke="#263239" stroke-linejoin="round" stroke-width="0.4"/><polygon points="32.33 34.32 25.64 34.32 25.64 32.93 26.54 32.29 31.42 32.29 32.33 32.93 32.33 34.32" fill="#ffffff" stroke="#263239" stroke-linejoin="round"/><path d="M33.36,17.2l6.24-5.83a1.12,1.12,0,0,1,.49-.27L48.34,9l1.47,5.12-7.57,2.09L37,20.76" fill="#ffffff" stroke="#ff5a19" stroke-linejoin="round"/><path d="M30.89,26.74v1.82H27.15V24.74a3.68,3.68,0,0,1,1.13-2.66l5.38-5.15,3.6,3.57-5.68,4.84A1.76,1.76,0,0,0,30.89,26.74Z" fill="#ffffff" stroke="#263239" stroke-linejoin="round"/><path d="M38,15.71a2.06,2.06,0,0,1-2.86-.1l3.67-3.42,1.38,1.48Z" fill="#ffffff" stroke="#ff5a19" stroke-linecap="round" stroke-linejoin="round" stroke-width="0.64"/></g></g></svg>
