<svg xmlns="http://www.w3.org/2000/svg" width="60" height="60" viewBox="0 0 60 60"><title>стул_1</title><g id="Слой_2" data-name="Слой 2"><g id="Слой_1-2" data-name="Слой 1"><rect width="60" height="60" fill="none"/><path d="M37.78,31.55H22.24a3.2,3.2,0,0,1-3.11-3.26L17.41,8.49a3.2,3.2,0,0,1,3.11-3.26h19a3.2,3.2,0,0,1,3.11,3.26l-1.72,19.8A3.2,3.2,0,0,1,37.78,31.55Z" fill="#ffffff" stroke="#263239" stroke-linejoin="round"/><rect x="21.67" y="30.9" width="1.68" height="21.3" rx="0.76" ry="0.76" fill="#ffffff" stroke="#263239" stroke-linejoin="round" stroke-width="0.8"/><rect x="37.04" y="30.97" width="1.68" height="21.3" rx="0.76" ry="0.76" fill="#ffffff" stroke="#263239" stroke-linejoin="round" stroke-width="0.8"/><rect x="29.23" y="30.52" width="1.68" height="21.3" rx="0.76" ry="0.76" transform="translate(-11.1 71.24) rotate(-90)" fill="#ffffff" stroke="#263239" stroke-linejoin="round" stroke-width="0.8"/><rect x="18.43" y="33.47" width="1.68" height="21.3" rx="0.76" ry="0.76" fill="#ffffff" stroke="#263239" stroke-linejoin="round" stroke-width="0.8"/><ellipse cx="30" cy="32.41" rx="12.74" ry="2.29" fill="#ffffff" stroke="red" stroke-linejoin="round" stroke-width="0.8"/><rect x="40.14" y="34.56" width="1.83" height="20.21" rx="0.78" ry="0.78" fill="#ffffff" stroke="#263239" stroke-linejoin="round" stroke-width="0.8"/><rect x="17.26" y="33.07" width="25.51" height="2.38" fill="#ffffff" stroke="red" stroke-linejoin="round"/></g></g></svg>
