<svg xmlns="http://www.w3.org/2000/svg" width="151.1" height="81.25" viewBox="0 0 151.1 81.25"><title>нестандартное остекление</title><g id="Слой_2" data-name="Слой 2"><g id="Слой_1-2" data-name="Слой 1"><path d="M48.83,80.63H102V5.14a80.07,80.07,0,0,0-53.17.06Z" fill="#ffffff" stroke="#263239" stroke-miterlimit="10" stroke-width="1.25"/><path d="M53.4,76.88H98.1V10a64.1,64.1,0,0,0-44.69,0Z" fill="#fff" stroke="#263239" stroke-miterlimit="10"/><path d="M44.54,7.24C18.49,20.43.63,49.43.63,80.63H44.54Z" fill="#ffffff" stroke="#263239" stroke-miterlimit="10" stroke-width="1.25"/><path d="M40.26,15.38C20.48,26.43,6.9,50.73,6.9,76.88H40.26Z" fill="#fff" stroke="#263239" stroke-miterlimit="10"/><path d="M106.56,7.24c26,13.19,43.92,42.19,43.92,73.39H106.56Z" fill="#ffffff" stroke="#263239" stroke-miterlimit="10" stroke-width="1.25"/><path d="M111,15.19c19.79,11.05,33.36,35.36,33.36,61.5H111Z" fill="#fff" stroke="#263239" stroke-miterlimit="10"/></g></g></svg>
