<?xml version="1.0" encoding="utf-8"?>
<!-- Generator: Adobe Illustrator 21.0.2, SVG Export Plug-In . SVG Version: 6.00 Build 0)  -->
<svg version="1.1" id="Слой_1" xmlns="http://www.w3.org/2000/svg" xmlns:xlink="http://www.w3.org/1999/xlink" x="0px" y="0px"
	 viewBox="0 0 60 60" style="enable-background:new 0 0 60 60;" xml:space="preserve">
<style type="text/css">
	.st0{fill:none;}
	.st1{fill:#263239;}
	.st2{fill:#ffffff;}
	.st3{fill:#ffffff;}
	.st4{fill:#ffffff;}
	.st5{fill:#ffffff;}
	.st6{fill:#ff5a19;}
</style>
<title>очитска-труднодоступных-мест</title>
<g id="Слой_2">
	<g id="Слой_1-2">
		<g>
			<rect y="0" class="st0" width="60" height="60"/>
		</g>
		<g>
			<path class="st1" d="M10.6,39.4c-2.4,0-4.4-1.6-4.4-3.6s2-3.6,4.4-3.6H14c0.3,0,0.5,0.2,0.5,0.5s-0.2,0.5-0.5,0.5h-3.4
				c-1.9,0-3.4,1.1-3.4,2.6c0,1.4,1.5,2.6,3.4,2.6c0.3,0,0.5,0.2,0.5,0.5S10.9,39.4,10.6,39.4z"/>
		</g>
		<g>
			<path class="st2" d="M12.7,35.4L12.7,35.4c-1.5,0-2.7,1.2-2.7,2.6c0,0,0,0,0,0.1v0.9c0,1.5,1.2,2.7,2.7,2.7c0,0,0,0,0,0l0,0"/>
			<path class="st1" d="M12.7,42.3c-1.8,0-3.2-1.5-3.2-3.2v-0.9c0-1.8,1.4-3.2,3.2-3.2c0,0,0,0,0,0l0,1c0,0,0,0,0,0
				c-1.2,0-2.2,1-2.2,2.2v1c0,1.2,1,2.2,2.2,2.2L12.7,42.3z"/>
		</g>
		<g>
			<path class="st3" d="M37.8,42.8H12c0,0-2.6-13.7,8.2-20.7c10.2-6.6,26-0.2,26-0.2v17.1"/>
			<path class="st1" d="M37.8,43.2H12c-0.2,0-0.4-0.1-0.4-0.3c0-0.1-2.6-14.1,8.4-21.1c10.3-6.6,25.7-0.5,26.4-0.2
				c0.2,0.1,0.2,0.2,0.2,0.4v17.1h-0.8V22.2c-2-0.8-16.2-5.7-25.4,0.2c-9.6,6.2-8.4,17.9-8.1,20h25.5V43.2z"/>
		</g>
		<g>
			<ellipse class="st2" cx="40.8" cy="38.4" rx="5.4" ry="5.5"/>
			<path class="st1" d="M40.8,44.4c-3.3,0-5.9-2.7-5.9-6c0-3.3,2.7-6,5.9-6s5.9,2.7,5.9,6C46.7,41.7,44.1,44.4,40.8,44.4z
				 M40.8,33.4c-2.7,0-4.9,2.2-4.9,5s2.2,5,4.9,5s4.9-2.2,4.9-5S43.5,33.4,40.8,33.4z"/>
		</g>
		<g>
			<path class="st1" d="M47.9,44.9H27.6c-1.5,0-2.7-1.2-2.7-2.7v-1.7c0-0.3,0.2-0.5,0.5-0.5s0.5,0.2,0.5,0.5v1.7
				c0,0.9,0.8,1.7,1.7,1.7h20.3c1.4,0,2.8-0.6,3.8-1.6s1.6-2.3,1.6-3.8c0-2.9-2.4-5.3-5.3-5.3h-1c-0.3,0-0.5-0.2-0.5-0.5
				s0.2-0.5,0.5-0.5h1c3.5,0,6.3,2.8,6.3,6.3c0,1.7-0.7,3.3-1.9,4.5C51.2,44.3,49.6,44.9,47.9,44.9z"/>
		</g>
		<g>
			<ellipse class="st4" cx="40.8" cy="38.4" rx="3.1" ry="3.2"/>
			<path class="st1" d="M40.8,42c-1.9,0-3.5-1.6-3.5-3.6s1.6-3.6,3.5-3.6s3.5,1.6,3.5,3.6S42.7,42,40.8,42z M40.8,35.6
				c-1.5,0-2.7,1.2-2.7,2.8s1.2,2.8,2.7,2.8s2.7-1.2,2.7-2.8S42.3,35.6,40.8,35.6z"/>
		</g>
		<g>
			<path class="st1" d="M22.8,36c-3.8,0-7.4-1.4-10.2-4l0.5-0.6c2.6,2.5,6,3.8,9.6,3.8c0,0,0,0,0,0c7.5,0,14.1-7.3,14.1-15.7h0.8
				C37.7,28.3,30.7,36,22.8,36C22.8,36,22.8,36,22.8,36z"/>
		</g>
		<g>
			<path class="st5" d="M10.8,17l-3.2-0.8c-0.2,0-0.3-0.2-0.2-0.4c0,0,0,0,0,0l0,0c0-0.2,0.2-0.3,0.4-0.2c0,0,0,0,0,0l3.2,0.8"/>
			<path class="st1" d="M10.8,17.2l-3.2-0.8c-0.1,0-0.2-0.1-0.3-0.2c-0.1-0.1-0.1-0.2-0.1-0.4c0-0.1,0.1-0.2,0.2-0.3
				c0.1-0.1,0.2-0.1,0.4-0.1l3.2,0.8L11,16.6l-3.2-0.8c0,0-0.1,0-0.1,0s-0.1,0-0.1,0.1c0,0.1,0,0.2,0.1,0.2l3.2,0.8L10.8,17.2z"/>
		</g>
		<g>
			<polygon class="st5" points="11.5,21.5 12.6,17.1 15.3,17.7 15.7,18.5 14.9,21.7 14.2,22.1 			"/>
			<path class="st1" d="M14.2,22.5C14.2,22.5,14.2,22.5,14.2,22.5l-2.8-0.7c-0.2-0.1-0.3-0.3-0.3-0.5l1.1-4.4c0-0.1,0.1-0.2,0.2-0.2
				c0.1-0.1,0.2-0.1,0.3,0l2.7,0.7c0.1,0,0.2,0.1,0.3,0.2l0.4,0.7c0,0.1,0.1,0.2,0,0.3l-0.8,3.2c0,0.1-0.1,0.2-0.2,0.2l-0.7,0.5
				C14.4,22.5,14.3,22.5,14.2,22.5z M12,21.2l2.2,0.5l0.4-0.3l0.7-2.9L15,18.1l-2.2-0.5L12,21.2z"/>
		</g>
		<g>
			<path class="st5" d="M10.7,17.6l-3.2-0.8c-0.2,0-0.3-0.2-0.2-0.4c0,0,0,0,0,0l0,0c0-0.2,0.2-0.3,0.4-0.2c0,0,0,0,0,0l3.2,0.8"/>
			<path class="st1" d="M10.6,17.8L7.4,17c-0.1,0-0.2-0.1-0.3-0.2c-0.1-0.1-0.1-0.2-0.1-0.4C7.1,16.1,7.4,16,7.7,16l3.2,0.8
				l-0.1,0.3l-3.2-0.8c0,0-0.1,0-0.1,0s-0.1,0-0.1,0.1s0,0.1,0,0.1c0,0,0,0.1,0.1,0.1l3.2,0.8L10.6,17.8z"/>
		</g>
		<g>
			<path class="st5" d="M10.5,18.2l-3.2-0.8c-0.2,0-0.3-0.2-0.2-0.4c0,0,0,0,0,0l0,0c0-0.2,0.2-0.3,0.4-0.2c0,0,0,0,0,0l3.2,0.8"/>
			<path class="st1" d="M10.5,18.4l-3.2-0.8c-0.1,0-0.2-0.1-0.3-0.2S6.9,17.1,6.9,17c0.1-0.3,0.3-0.4,0.6-0.4l3.2,0.8l-0.1,0.3
				L7.4,17c-0.1,0-0.2,0-0.2,0.1c0,0.1,0,0.2,0.1,0.2l3.2,0.8L10.5,18.4z"/>
		</g>
		<g>
			<path class="st5" d="M10.4,18.9l-3.2-0.8c-0.2,0-0.3-0.2-0.2-0.4c0,0,0,0,0,0l0,0c0-0.2,0.2-0.3,0.4-0.2c0,0,0,0,0,0l3.2,0.8"/>
			<path class="st1" d="M10.3,19l-3.2-0.8c-0.1,0-0.2-0.1-0.3-0.2c-0.1-0.1-0.1-0.2-0.1-0.4c0.1-0.3,0.3-0.4,0.6-0.4l3.2,0.8
				l-0.1,0.3l-3.2-0.8c-0.1,0-0.2,0-0.2,0.1c0,0,0,0.1,0,0.1s0,0.1,0.1,0.1l3.2,0.8L10.3,19z"/>
		</g>
		<g>
			<path class="st5" d="M10.2,19.5L7,18.7c-0.2,0-0.3-0.2-0.2-0.4c0,0,0,0,0,0l0,0c0-0.2,0.2-0.3,0.4-0.2c0,0,0,0,0,0l3.2,0.8"/>
			<path class="st1" d="M10.2,19.7L7,18.9c-0.3-0.1-0.4-0.3-0.4-0.6c0-0.1,0.1-0.2,0.2-0.3c0.1-0.1,0.3-0.1,0.4-0.1l3.2,0.8L10.3,19
				l-3.2-0.8c0,0-0.1,0-0.1,0c0,0-0.1,0-0.1,0.1c0,0.1,0,0.2,0.1,0.2l3.2,0.8L10.2,19.7z"/>
		</g>
		<g>
			<path class="st5" d="M10.1,20.1l-3.2-0.8c-0.2,0-0.3-0.2-0.2-0.4c0,0,0,0,0,0l0,0c0-0.2,0.2-0.3,0.4-0.2l3.2,0.8"/>
			<path class="st1" d="M10,20.3l-3.2-0.8c-0.1,0-0.2-0.1-0.3-0.2S6.4,19,6.4,18.9c0.1-0.3,0.3-0.4,0.6-0.4l3.2,0.8l-0.1,0.3L7,18.9
				c-0.1,0-0.1,0-0.2,0.1c0,0,0,0.1,0,0.1c0,0,0,0.1,0.1,0.1l3.2,0.8L10,20.3z"/>
		</g>
		<g>
			<path class="st5" d="M9.9,20.7l-3.2-0.8c-0.2,0-0.3-0.2-0.2-0.4c0,0,0,0,0,0l0,0c0-0.2,0.2-0.3,0.4-0.2c0,0,0,0,0,0l3.2,0.8"/>
			<path class="st1" d="M9.9,20.9l-3.2-0.8c-0.3-0.1-0.4-0.3-0.4-0.6c0.1-0.3,0.3-0.4,0.6-0.4l3.2,0.8L10,20.3l-3.2-0.8
				c-0.1,0-0.2,0-0.2,0.1c0,0,0,0.1,0,0.1c0,0,0,0.1,0.1,0.1l3.2,0.8L9.9,20.9z"/>
		</g>
		<g>
			<path class="st5" d="M9.8,21.4l-3.2-0.8c-0.2,0-0.3-0.2-0.2-0.4c0,0,0,0,0,0l0,0c0-0.2,0.2-0.3,0.4-0.2c0,0,0,0,0,0l3.2,0.8"/>
			<path class="st1" d="M9.7,21.5l-3.2-0.8c-0.3-0.1-0.4-0.3-0.4-0.6c0.1-0.3,0.3-0.4,0.6-0.4l3.2,0.8l-0.1,0.3l-3.2-0.8
				c-0.1,0-0.2,0-0.2,0.1c0,0.1,0,0.2,0.1,0.2l3.2,0.8L9.7,21.5z"/>
		</g>
		<g>
			<polygon class="st3" points="9.6,21.7 11,16 12.2,16.2 12.6,17.2 11.6,21.4 10.8,22 			"/>
			<path class="st1" d="M10.8,22.4C10.8,22.4,10.7,22.4,10.8,22.4l-1.3-0.3c-0.2-0.1-0.3-0.3-0.3-0.5l1.4-5.8
				c0.1-0.2,0.3-0.3,0.5-0.3l1.2,0.3c0.1,0,0.2,0.1,0.3,0.2L13,17c0,0.1,0,0.2,0,0.2l-1.1,4.2c0,0.1-0.1,0.1-0.1,0.2l-0.7,0.6
				C11,22.4,10.9,22.4,10.8,22.4z M10.1,21.4l0.6,0.2l0.5-0.4l1-4l-0.2-0.6l-0.6-0.1L10.1,21.4z"/>
		</g>
		<g>
			<path class="st2" d="M24.2,26.3l3.7,6.6c0.1,0.1,0.1,0.3,0.1,0.5v7.7c0,0-0.3,1.1-2.3,1.2s-2.3-1.2-2.3-1.2l-0.2-7l-2.8-5.5"/>
			<path class="st6" d="M25.5,42.7c-2.2,0-2.5-1.4-2.5-1.5l-0.2-7L20,28.8l0.7-0.4l2.8,5.5c0,0.1,0,0.1,0,0.2l0.2,7
				c0,0,0.2,0.8,1.8,0.8c0.1,0,0.1,0,0.2,0c1.7-0.1,1.9-0.9,1.9-0.9l0-7.6c0-0.1,0-0.2-0.1-0.3l-3.7-6.6l0.7-0.4l3.7,6.6
				c0.1,0.2,0.2,0.4,0.2,0.7v7.7c0,0.1-0.4,1.5-2.7,1.6C25.6,42.7,25.5,42.7,25.5,42.7z"/>
		</g>
		<g>
			<path class="st5" d="M16.5,22.1l-1.6-0.4l0.8-3.2l3.3,0.8c0.8,0.2,1.6,0.8,2,1.6l3.3,5.7l-3.9,2.3l-3-5.9
				C17.3,22.6,16.9,22.2,16.5,22.1z"/>
			<path class="st1" d="M20.5,29.3c0,0-0.1,0-0.1,0c-0.1,0-0.2-0.1-0.2-0.2l-3-5.9c-0.1-0.3-0.4-0.6-0.7-0.7l-1.6-0.4
				c-0.2-0.1-0.3-0.3-0.3-0.5l0.8-3.2c0.1-0.2,0.3-0.3,0.5-0.3l3.3,0.8c1,0.3,1.8,0.9,2.3,1.7l3.3,5.7c0.1,0.2,0,0.4-0.1,0.5
				l-3.8,2.3C20.6,29.3,20.5,29.3,20.5,29.3z M15.4,21.4l1.2,0.3c0,0,0,0,0,0c0.6,0.2,1,0.6,1.2,1.1l2.8,5.5l3.1-1.9L20.7,21
				c-0.4-0.7-1-1.2-1.8-1.4L16,19L15.4,21.4z"/>
		</g>
		<g>
			<path class="st5" d="M24.5,30.6c-0.5-0.9-0.1-1.9,0.7-2.4l2.2,3.9l-1.6,0.9L24.5,30.6z"/>
			<path class="st6" d="M25.8,33.3c-0.1,0-0.3-0.1-0.4-0.2l-1.3-2.3c0,0,0,0,0,0c-0.6-1.1-0.2-2.4,0.9-3c0.1-0.1,0.2-0.1,0.3,0
				c0.1,0,0.2,0.1,0.2,0.2l2.2,3.9c0.1,0.1,0.1,0.2,0,0.3c0,0.1-0.1,0.2-0.2,0.2L26,33.2C25.9,33.3,25.8,33.3,25.8,33.3z M24.8,30.4
				l1.1,2l0.9-0.5L25,28.7C24.6,29.1,24.5,29.8,24.8,30.4z"/>
		</g>
	</g>
</g>
</svg>
