<svg xmlns="http://www.w3.org/2000/svg" width="55.56" height="81.25" viewBox="0 0 55.56 81.25"><title>решетка_1</title><g id="Слой_2" data-name="Слой 2"><g id="Слой_1-2" data-name="Слой 1"><rect x="0.63" y="0.63" width="54.31" height="80" fill="none" stroke="#263239" stroke-miterlimit="10" stroke-width="1.25"/><line x1="6.64" y1="0.58" x2="6.64" y2="80.7" fill="none" stroke="#263239" stroke-miterlimit="10" stroke-width="0.75"/><line x1="12.68" y1="0.58" x2="12.68" y2="80.7" fill="none" stroke="#263239" stroke-miterlimit="10" stroke-width="0.75"/><line x1="18.71" y1="0.58" x2="18.71" y2="80.7" fill="none" stroke="#263239" stroke-miterlimit="10" stroke-width="0.75"/><line x1="24.74" y1="0.58" x2="24.74" y2="80.7" fill="none" stroke="#263239" stroke-miterlimit="10" stroke-width="0.75"/><line x1="30.77" y1="0.58" x2="30.77" y2="80.7" fill="none" stroke="#263239" stroke-miterlimit="10" stroke-width="0.75"/><line x1="36.81" y1="0.58" x2="36.81" y2="80.7" fill="none" stroke="#263239" stroke-miterlimit="10" stroke-width="0.75"/><line x1="42.84" y1="0.58" x2="42.84" y2="80.7" fill="none" stroke="#263239" stroke-miterlimit="10" stroke-width="0.75"/><line x1="48.87" y1="0.58" x2="48.87" y2="80.7" fill="none" stroke="#263239" stroke-miterlimit="10" stroke-width="0.75"/><line x1="0.61" y1="4.45" x2="54.94" y2="4.45" fill="none" stroke="#263239" stroke-miterlimit="10" stroke-width="0.75"/><path d="M6.36.89a2.62,2.62,0,1,1-5.25,0" fill="none" stroke="#263239" stroke-miterlimit="10" stroke-width="0.75"/><path d="M12.28.89A2.62,2.62,0,1,1,7,.89" fill="none" stroke="#263239" stroke-miterlimit="10" stroke-width="0.75"/><path d="M18.19.89a2.63,2.63,0,1,1-5.25,0" fill="none" stroke="#263239" stroke-miterlimit="10" stroke-width="0.75"/><path d="M24.32.89a2.62,2.62,0,1,1-5.25,0" fill="none" stroke="#263239" stroke-miterlimit="10" stroke-width="0.75"/><path d="M30.32.89a2.62,2.62,0,1,1-5.25,0" fill="none" stroke="#263239" stroke-miterlimit="10" stroke-width="0.75"/><path d="M36.32.89a2.62,2.62,0,1,1-5.25,0" fill="none" stroke="#263239" stroke-miterlimit="10" stroke-width="0.75"/><path d="M42.49.89a2.62,2.62,0,1,1-5.25,0" fill="none" stroke="#263239" stroke-miterlimit="10" stroke-width="0.75"/><path d="M48.61.89a2.62,2.62,0,1,1-5.25,0" fill="none" stroke="#263239" stroke-miterlimit="10" stroke-width="0.75"/><path d="M54.49.89a2.62,2.62,0,1,1-5.25,0" fill="none" stroke="#263239" stroke-miterlimit="10" stroke-width="0.75"/><line x1="54.96" y1="76.77" x2="0.63" y2="76.77" fill="none" stroke="#263239" stroke-miterlimit="10" stroke-width="0.75"/><path d="M49.21,80.33a2.63,2.63,0,0,1,5.25,0" fill="none" stroke="#263239" stroke-miterlimit="10" stroke-width="0.75"/><path d="M43.29,80.33a2.63,2.63,0,0,1,5.25,0" fill="none" stroke="#263239" stroke-miterlimit="10" stroke-width="0.75"/><path d="M37.38,80.33a2.63,2.63,0,0,1,5.25,0" fill="none" stroke="#263239" stroke-miterlimit="10" stroke-width="0.75"/><path d="M31.25,80.33a2.63,2.63,0,1,1,5.25,0" fill="none" stroke="#263239" stroke-miterlimit="10" stroke-width="0.75"/><path d="M25.25,80.33a2.63,2.63,0,0,1,5.25,0" fill="none" stroke="#263239" stroke-miterlimit="10" stroke-width="0.75"/><path d="M19.25,80.33a2.63,2.63,0,0,1,5.25,0" fill="none" stroke="#263239" stroke-miterlimit="10" stroke-width="0.75"/><path d="M13.08,80.33a2.63,2.63,0,0,1,5.25,0" fill="none" stroke="#263239" stroke-miterlimit="10" stroke-width="0.75"/><path d="M7,80.33a2.63,2.63,0,0,1,5.25,0" fill="none" stroke="#263239" stroke-miterlimit="10" stroke-width="0.75"/><path d="M1.08,80.33a2.63,2.63,0,1,1,5.25,0" fill="none" stroke="#263239" stroke-miterlimit="10" stroke-width="0.75"/><polygon points="27.55 11.64 0.65 40.18 27.57 68.72 54.75 40.18 27.55 11.64" fill="none" stroke="#263239" stroke-miterlimit="10" stroke-width="0.75"/><polygon points="27.61 22.46 10.9 40.18 27.62 57.91 44.5 40.18 27.61 22.46" fill="none" stroke="#263239" stroke-miterlimit="10" stroke-width="0.75"/></g></g></svg>
