<svg xmlns="http://www.w3.org/2000/svg" width="60" height="60" viewBox="0 0 60 60"><title>закупка-материала</title><g id="Слой_2" data-name="Слой 2"><g id="Слой_1-2" data-name="Слой 1"><rect width="60" height="60" fill="none"/><polygon points="32.33 34.31 7 14.52 8.49 12.31 33.82 32.11 32.33 34.31" fill="#ffffff" stroke="#ff5a19" stroke-linejoin="round" stroke-width="0.8"/><polygon points="34.25 33.92 10.05 12.56 11.66 10.46 35.86 31.82 34.25 33.92" fill="#ffffff" stroke="#ff5a19" stroke-linejoin="round" stroke-width="0.8"/><path d="M40.75,37.2l-25.9-2.76a3.51,3.51,0,0,1-3.14-3.49V20.5H44.63V33.71A3.51,3.51,0,0,1,40.75,37.2Z" fill="#ffffff" stroke="#263239" stroke-linejoin="round"/><circle cx="19.1" cy="46.52" r="3.02" fill="#ffffff" stroke="#263239" stroke-linejoin="round"/><circle cx="40.61" cy="46.52" r="3.02" fill="#ffffff" stroke="#263239" stroke-linejoin="round"/><line x1="12.16" y1="22.19" x2="44.8" y2="22.19" fill="none" stroke="#263239" stroke-miterlimit="10" stroke-width="0.8"/><path d="M52.53,12.67H48.21a3.44,3.44,0,0,0-1.7.47l0,0a3.46,3.46,0,0,0-1.72,3c0,.13,0,.44,0,.44V37.12l0,2.63a1.7,1.7,0,0,1-1.68,1.7H14.5a.47.47,0,0,0-.47.47v.87a.47.47,0,0,0,.47.47H43.07a3.44,3.44,0,0,0,1.7-.47l0,0a3.46,3.46,0,0,0,1.72-3c0-.13,0-.44,0-.44V37h0V21.68h0l0-5.52a1.7,1.7,0,0,1,1.68-1.7h4.32A.47.47,0,0,0,53,14v-.87A.47.47,0,0,0,52.53,12.67Z" fill="#ffffff" stroke="#263239" stroke-miterlimit="10" stroke-width="0.8"/></g></g></svg>
