<svg xmlns="http://www.w3.org/2000/svg" width="54.31" height="80" viewBox="0 0 54.31 80"><title>москитная сетка</title><g id="Слой_2" data-name="Слой 2"><g id="Слой_1-2" data-name="Слой 1"><rect width="54.31" height="80" fill="#263239"/><rect x="1.29" y="1.28" width="51.73" height="77.43" fill="#ffffff"/><rect x="6.99" y="7.04" width="40.34" height="65.43" fill="#263239"/><rect x="7.98" y="8.07" width="38.36" height="63.5" fill="#fff"/><path d="M46.34,8.07" fill="none" stroke="#ffffff" stroke-miterlimit="10" stroke-width="0.25"/><path d="M8,8.07" fill="none" stroke="#ffffff" stroke-miterlimit="10" stroke-width="0.25"/><line x1="11.81" y1="8.07" x2="11.81" y2="71.66" fill="none" stroke="#263239" stroke-miterlimit="10" stroke-width="0.5"/><line x1="15.65" y1="8.07" x2="15.65" y2="71.66" fill="none" stroke="#263239" stroke-miterlimit="10" stroke-width="0.5"/><line x1="19.48" y1="8.07" x2="19.49" y2="71.66" fill="none" stroke="#263239" stroke-miterlimit="10" stroke-width="0.5"/><line x1="23.32" y1="8.07" x2="23.32" y2="71.66" fill="none" stroke="#263239" stroke-miterlimit="10" stroke-width="0.5"/><line x1="27.16" y1="8.07" x2="27.16" y2="71.66" fill="none" stroke="#263239" stroke-miterlimit="10" stroke-width="0.5"/><line x1="30.99" y1="8.07" x2="31" y2="71.66" fill="none" stroke="#263239" stroke-miterlimit="10" stroke-width="0.5"/><line x1="34.83" y1="8.07" x2="34.83" y2="71.66" fill="none" stroke="#263239" stroke-miterlimit="10" stroke-width="0.5"/><line x1="38.67" y1="8.07" x2="38.67" y2="71.66" fill="none" stroke="#263239" stroke-miterlimit="10" stroke-width="0.5"/><line x1="42.5" y1="8.07" x2="42.51" y2="71.66" fill="none" stroke="#263239" stroke-miterlimit="10" stroke-width="0.5"/><line x1="46.32" y1="11.82" x2="7.94" y2="11.82" fill="none" stroke="#263239" stroke-miterlimit="10" stroke-width="0.5"/><line x1="46.32" y1="15.55" x2="7.94" y2="15.56" fill="none" stroke="#263239" stroke-miterlimit="10" stroke-width="0.5"/><line x1="46.32" y1="19.29" x2="7.94" y2="19.29" fill="none" stroke="#263239" stroke-miterlimit="10" stroke-width="0.5"/><line x1="46.32" y1="23.03" x2="7.94" y2="23.03" fill="none" stroke="#263239" stroke-miterlimit="10" stroke-width="0.5"/><line x1="46.32" y1="26.76" x2="7.94" y2="26.77" fill="none" stroke="#263239" stroke-miterlimit="10" stroke-width="0.5"/><line x1="46.32" y1="30.5" x2="7.94" y2="30.5" fill="none" stroke="#263239" stroke-miterlimit="10" stroke-width="0.5"/><line x1="46.32" y1="34.24" x2="7.94" y2="34.24" fill="none" stroke="#263239" stroke-miterlimit="10" stroke-width="0.5"/><line x1="46.32" y1="37.97" x2="7.94" y2="37.97" fill="none" stroke="#263239" stroke-miterlimit="10" stroke-width="0.5"/><line x1="46.32" y1="41.71" x2="7.94" y2="41.71" fill="none" stroke="#263239" stroke-miterlimit="10" stroke-width="0.5"/><line x1="46.32" y1="45.44" x2="7.94" y2="45.45" fill="none" stroke="#263239" stroke-miterlimit="10" stroke-width="0.5"/><line x1="46.32" y1="49.18" x2="7.94" y2="49.18" fill="none" stroke="#263239" stroke-miterlimit="10" stroke-width="0.5"/><line x1="46.32" y1="52.92" x2="7.94" y2="52.92" fill="none" stroke="#263239" stroke-miterlimit="10" stroke-width="0.5"/><line x1="46.32" y1="56.65" x2="7.94" y2="56.66" fill="none" stroke="#263239" stroke-miterlimit="10" stroke-width="0.5"/><line x1="46.32" y1="60.39" x2="7.94" y2="60.39" fill="none" stroke="#263239" stroke-miterlimit="10" stroke-width="0.5"/><line x1="46.32" y1="64.13" x2="7.94" y2="64.13" fill="none" stroke="#263239" stroke-miterlimit="10" stroke-width="0.5"/><line x1="46.32" y1="67.86" x2="7.94" y2="67.87" fill="none" stroke="#263239" stroke-miterlimit="10" stroke-width="0.5"/></g></g></svg>
