<svg xmlns="http://www.w3.org/2000/svg" width="60" height="60" viewBox="0 0 60 60"><title>матрас_1</title><g id="Слой_2" data-name="Слой 2"><g id="Слой_1-2" data-name="Слой 1"><rect width="60" height="60" fill="none"/><path d="M1.45,34.13h44.4a0,0,0,0,1,0,0V39a0,0,0,0,1,0,0H2.22a.77.77,0,0,1-.77-.77V34.13a0,0,0,0,1,0,0Z" fill="#ffffff" stroke="#263239" stroke-linecap="round" stroke-miterlimit="10" stroke-width="0.8"/><path d="M57.81,26.67,46.49,39c-.44.14-.7-.15-.7-.57V35a1.88,1.88,0,0,1,.56-1.41L57.13,22.06c1.11-.69,1.28-.74,1.28-.33L58.49,25A2.37,2.37,0,0,1,57.81,26.67Z" fill="#ffffff" stroke="#263239" stroke-linecap="round" stroke-miterlimit="10" stroke-width="0.8"/><path d="M44.82,34.21s-35.26-.09-42.69,0a.57.57,0,0,1-.42-.95L13.57,22.38a4.07,4.07,0,0,1,3-1.36l41.21,0c.58,0,.85.66-.19,1.55L47,33A4.16,4.16,0,0,1,44.82,34.21Z" fill="#ffffff" stroke="#263239" stroke-linecap="round" stroke-miterlimit="10"/><path d="M10,31.12a1.26,1.26,0,0,1,1,.12c.2.16.09.36-.24.45a1.26,1.26,0,0,1-1-.12C9.53,31.41,9.64,31.21,10,31.12Z" fill="#ff5a19"/><polygon points="9.83 31.55 9.97 31.66 9.55 31.7 9.12 31.74 9.4 31.59 9.69 31.43 9.83 31.55" fill="#ff5a19"/><polygon points="10.72 31.31 10.58 31.19 11.01 31.16 11.44 31.12 11.15 31.27 10.87 31.42 10.72 31.31" fill="#ff5a19"/><polygon points="10.6 31.62 10.85 31.56 10.94 31.76 11.03 31.96 10.7 31.82 10.36 31.69 10.6 31.62" fill="#ff5a19"/><polygon points="10.07 31.2 9.83 31.26 9.73 31.06 9.64 30.86 9.98 31 10.31 31.14 10.07 31.2" fill="#ff5a19"/><path d="M14.55,26.37a1.26,1.26,0,0,1,1,.12c.2.16.09.36-.24.45a1.26,1.26,0,0,1-1-.12C14.1,26.66,14.21,26.46,14.55,26.37Z" fill="#ff5a19"/><polygon points="14.4 26.79 14.55 26.9 14.12 26.94 13.69 26.98 13.97 26.83 14.26 26.68 14.4 26.79" fill="#ff5a19"/><polygon points="15.3 26.55 15.15 26.44 15.58 26.4 16.01 26.36 15.73 26.51 15.44 26.66 15.3 26.55" fill="#ff5a19"/><polygon points="15.18 26.87 15.42 26.8 15.51 27 15.6 27.2 15.27 27.07 14.94 26.93 15.18 26.87" fill="#ff5a19"/><polygon points="14.64 26.44 14.4 26.51 14.31 26.31 14.22 26.11 14.55 26.24 14.88 26.38 14.64 26.44" fill="#ff5a19"/><path d="M17.93,31.24a1.26,1.26,0,0,1,1,.12c.2.16.09.36-.24.45a1.26,1.26,0,0,1-1-.12C17.48,31.53,17.59,31.33,17.93,31.24Z" fill="#ff5a19"/><polygon points="17.78 31.66 17.93 31.77 17.5 31.81 17.07 31.85 17.36 31.7 17.64 31.55 17.78 31.66" fill="#ff5a19"/><polygon points="18.68 31.42 18.54 31.31 18.96 31.27 19.39 31.23 19.11 31.38 18.82 31.54 18.68 31.42" fill="#ff5a19"/><polygon points="18.56 31.74 18.8 31.67 18.89 31.87 18.98 32.07 18.65 31.94 18.32 31.8 18.56 31.74" fill="#ff5a19"/><polygon points="18.02 31.31 17.78 31.38 17.69 31.18 17.6 30.98 17.93 31.11 18.27 31.25 18.02 31.31" fill="#ff5a19"/><path d="M22.42,26.67a1.26,1.26,0,0,1,1,.12c.2.16.09.36-.24.45a1.26,1.26,0,0,1-1-.12C22,27,22.09,26.76,22.42,26.67Z" fill="#ff5a19"/><polygon points="22.28 27.09 22.42 27.21 22 27.25 21.57 27.28 21.85 27.13 22.14 26.98 22.28 27.09" fill="#ff5a19"/><polygon points="23.18 26.85 23.03 26.74 23.46 26.7 23.89 26.66 23.6 26.82 23.32 26.97 23.18 26.85" fill="#ff5a19"/><polygon points="23.05 27.17 23.3 27.11 23.39 27.3 23.48 27.51 23.15 27.37 22.81 27.23 23.05 27.17" fill="#ff5a19"/><polygon points="22.52 26.75 22.28 26.81 22.18 26.61 22.09 26.41 22.43 26.55 22.76 26.68 22.52 26.75" fill="#ff5a19"/><path d="M18.05,22.38a1.26,1.26,0,0,1,1,.12c.2.16.09.36-.24.45a1.26,1.26,0,0,1-1-.12C17.61,22.67,17.72,22.47,18.05,22.38Z" fill="#ff5a19"/><polygon points="17.91 22.8 18.05 22.91 17.63 22.95 17.2 22.99 17.48 22.84 17.77 22.68 17.91 22.8" fill="#ff5a19"/><polygon points="18.81 22.56 18.66 22.45 19.09 22.41 19.52 22.37 19.23 22.52 18.95 22.67 18.81 22.56" fill="#ff5a19"/><polygon points="18.68 22.88 18.93 22.81 19.02 23.01 19.11 23.21 18.78 23.07 18.44 22.94 18.68 22.88" fill="#ff5a19"/><polygon points="18.15 22.45 17.91 22.52 17.82 22.32 17.72 22.12 18.06 22.25 18.39 22.39 18.15 22.45" fill="#ff5a19"/><path d="M25.88,31.35a1.26,1.26,0,0,1,1,.12c.2.16.09.36-.24.45a1.26,1.26,0,0,1-1-.12C25.44,31.64,25.55,31.44,25.88,31.35Z" fill="#ff5a19"/><polygon points="25.74 31.77 25.88 31.89 25.45 31.93 25.03 31.96 25.31 31.81 25.59 31.66 25.74 31.77" fill="#ff5a19"/><polygon points="26.63 31.54 26.49 31.42 26.92 31.38 27.35 31.34 27.06 31.5 26.78 31.65 26.63 31.54" fill="#ff5a19"/><polygon points="26.51 31.85 26.75 31.79 26.85 31.99 26.94 32.19 26.61 32.05 26.27 31.91 26.51 31.85" fill="#ff5a19"/><polygon points="25.98 31.43 25.73 31.49 25.64 31.29 25.55 31.09 25.89 31.23 26.22 31.36 25.98 31.43" fill="#ff5a19"/><path d="M30.67,26.51a1.26,1.26,0,0,1,1,.12c.2.16.09.36-.24.45a1.26,1.26,0,0,1-1-.12C30.23,26.81,30.34,26.6,30.67,26.51Z" fill="#ff5a19"/><polygon points="30.53 26.94 30.67 27.05 30.24 27.09 29.82 27.13 30.1 26.98 30.38 26.82 30.53 26.94" fill="#ff5a19"/><polygon points="31.42 26.7 31.28 26.58 31.71 26.55 32.14 26.51 31.85 26.66 31.57 26.81 31.42 26.7" fill="#ff5a19"/><polygon points="31.3 27.01 31.54 26.95 31.64 27.15 31.73 27.35 31.39 27.21 31.06 27.08 31.3 27.01" fill="#ff5a19"/><polygon points="30.77 26.59 30.52 26.66 30.43 26.45 30.34 26.25 30.68 26.39 31.01 26.53 30.77 26.59" fill="#ff5a19"/><path d="M26,22.49a1.26,1.26,0,0,1,1,.12c.2.16.09.36-.24.45a1.26,1.26,0,0,1-1-.12C25.56,22.78,25.67,22.58,26,22.49Z" fill="#ff5a19"/><polygon points="25.86 22.91 26.01 23.03 25.58 23.07 25.15 23.1 25.44 22.95 25.72 22.8 25.86 22.91" fill="#ff5a19"/><polygon points="26.76 22.67 26.62 22.56 27.04 22.52 27.47 22.48 27.19 22.64 26.91 22.79 26.76 22.67" fill="#ff5a19"/><polygon points="26.64 22.99 26.88 22.92 26.97 23.13 27.07 23.32 26.73 23.19 26.4 23.05 26.64 22.99" fill="#ff5a19"/><polygon points="26.1 22.57 25.86 22.63 25.77 22.43 25.68 22.23 26.01 22.36 26.35 22.5 26.1 22.57" fill="#ff5a19"/><path d="M33.84,31.47a1.26,1.26,0,0,1,1,.12c.2.16.09.36-.24.45a1.26,1.26,0,0,1-1-.12C33.39,31.76,33.5,31.56,33.84,31.47Z" fill="#ff5a19"/><polygon points="33.69 31.89 33.84 32 33.41 32.04 32.98 32.08 33.26 31.93 33.55 31.77 33.69 31.89" fill="#ff5a19"/><polygon points="34.59 31.65 34.44 31.53 34.87 31.5 35.3 31.46 35.02 31.61 34.73 31.76 34.59 31.65" fill="#ff5a19"/><polygon points="34.47 31.96 34.71 31.9 34.8 32.1 34.89 32.3 34.56 32.16 34.23 32.03 34.47 31.96" fill="#ff5a19"/><polygon points="33.93 31.54 33.69 31.61 33.6 31.41 33.51 31.2 33.84 31.34 34.17 31.48 33.93 31.54" fill="#ff5a19"/><path d="M38.22,26.73a1.26,1.26,0,0,1,1,.12c.2.16.09.36-.24.45a1.26,1.26,0,0,1-1-.12C37.77,27,37.88,26.82,38.22,26.73Z" fill="#ff5a19"/><polygon points="38.07 27.15 38.22 27.27 37.79 27.3 37.36 27.34 37.64 27.19 37.93 27.04 38.07 27.15" fill="#ff5a19"/><polygon points="38.97 26.91 38.82 26.8 39.25 26.76 39.68 26.72 39.4 26.88 39.11 27.03 38.97 26.91" fill="#ff5a19"/><polygon points="38.85 27.23 39.09 27.16 39.18 27.36 39.27 27.57 38.94 27.43 38.6 27.29 38.85 27.23" fill="#ff5a19"/><polygon points="38.31 26.81 38.07 26.87 37.98 26.67 37.88 26.47 38.22 26.61 38.55 26.74 38.31 26.81" fill="#ff5a19"/><path d="M34,22.6a1.26,1.26,0,0,1,1,.12c.2.16.09.36-.24.45a1.26,1.26,0,0,1-1-.12C33.52,22.89,33.63,22.69,34,22.6Z" fill="#ff5a19"/><polygon points="33.82 23.03 33.96 23.14 33.53 23.18 33.11 23.22 33.39 23.07 33.67 22.91 33.82 23.03" fill="#ff5a19"/><polygon points="34.72 22.79 34.57 22.67 35 22.64 35.43 22.6 35.14 22.75 34.86 22.9 34.72 22.79" fill="#ff5a19"/><polygon points="34.59 23.1 34.84 23.04 34.93 23.24 35.02 23.44 34.69 23.3 34.35 23.17 34.59 23.1" fill="#ff5a19"/><polygon points="34.06 22.68 33.82 22.74 33.72 22.54 33.63 22.34 33.97 22.48 34.3 22.61 34.06 22.68" fill="#ff5a19"/><path d="M41.79,31.58a1.26,1.26,0,0,1,1,.12c.2.16.09.36-.24.45a1.26,1.26,0,0,1-1-.12C41.34,31.87,41.45,31.67,41.79,31.58Z" fill="#ff5a19"/><polygon points="41.65 32 41.79 32.12 41.36 32.15 40.93 32.19 41.22 32.04 41.5 31.89 41.65 32" fill="#ff5a19"/><polygon points="42.54 31.76 42.4 31.65 42.83 31.61 43.25 31.57 42.97 31.72 42.69 31.88 42.54 31.76" fill="#ff5a19"/><polygon points="42.42 32.08 42.66 32.01 42.76 32.21 42.85 32.41 42.51 32.28 42.18 32.14 42.42 32.08" fill="#ff5a19"/><polygon points="41.89 31.66 41.64 31.72 41.55 31.52 41.46 31.32 41.79 31.45 42.13 31.59 41.89 31.66" fill="#ff5a19"/><path d="M45.86,27.26a1.26,1.26,0,0,1,1,.12c.2.16.09.36-.24.45a1.26,1.26,0,0,1-1-.12C45.42,27.55,45.53,27.35,45.86,27.26Z" fill="#ff5a19"/><polygon points="45.72 27.68 45.86 27.8 45.43 27.84 45.01 27.87 45.29 27.72 45.57 27.57 45.72 27.68" fill="#ff5a19"/><polygon points="46.61 27.44 46.47 27.33 46.9 27.29 47.33 27.25 47.04 27.41 46.76 27.56 46.61 27.44" fill="#ff5a19"/><polygon points="46.49 27.76 46.73 27.69 46.83 27.89 46.92 28.1 46.59 27.96 46.25 27.82 46.49 27.76" fill="#ff5a19"/><polygon points="45.96 27.34 45.72 27.4 45.62 27.2 45.53 27 45.87 27.14 46.2 27.27 45.96 27.34" fill="#ff5a19"/><path d="M41.92,22.72a1.26,1.26,0,0,1,1,.12c.2.16.09.36-.24.45a1.26,1.26,0,0,1-1-.12C41.47,23,41.58,22.81,41.92,22.72Z" fill="#ff5a19"/><polygon points="41.77 23.14 41.92 23.25 41.49 23.29 41.06 23.33 41.34 23.18 41.63 23.03 41.77 23.14" fill="#ff5a19"/><polygon points="42.67 22.9 42.52 22.79 42.95 22.75 43.38 22.71 43.1 22.86 42.81 23.02 42.67 22.9" fill="#ff5a19"/><polygon points="42.55 23.22 42.79 23.15 42.88 23.35 42.97 23.55 42.64 23.42 42.31 23.28 42.55 23.22" fill="#ff5a19"/><polygon points="42.01 22.79 41.77 22.86 41.68 22.66 41.59 22.46 41.92 22.59 42.25 22.73 42.01 22.79" fill="#ff5a19"/><path d="M49.87,22.83a1.26,1.26,0,0,1,1,.12c.2.16.09.36-.24.45a1.26,1.26,0,0,1-1-.12C49.43,23.12,49.54,22.92,49.87,22.83Z" fill="#ff5a19"/><polygon points="49.73 23.25 49.87 23.37 49.44 23.41 49.02 23.45 49.3 23.29 49.58 23.14 49.73 23.25" fill="#ff5a19"/><polygon points="50.62 23.02 50.48 22.9 50.91 22.86 51.34 22.82 51.05 22.98 50.77 23.13 50.62 23.02" fill="#ff5a19"/><polygon points="50.5 23.33 50.74 23.27 50.84 23.47 50.93 23.67 50.59 23.53 50.26 23.39 50.5 23.33" fill="#ff5a19"/><polygon points="49.97 22.91 49.73 22.97 49.63 22.77 49.54 22.57 49.88 22.71 50.21 22.84 49.97 22.91" fill="#ff5a19"/></g></g></svg>
