<svg xmlns="http://www.w3.org/2000/svg" width="48" height="48" viewBox="0 0 48 48"><title>Ресурс 13</title><g id="Слой_2" data-name="Слой 2"><g id="Слой_1-2" data-name="Слой 1"><rect width="48" height="48" fill="none"/><path d="M28.17,38.92V18.82s-11.23-2.16-17,6.7c-5.41,8.35,1.91,21.26,1.91,21.26h12" fill="#ffffff" fill-rule="evenodd"/><path d="M25.1,47.28h-12a.5.5,0,0,1-.43-.25c-.31-.54-7.4-13.27-1.89-21.78,5.86-9,17.37-6.94,17.48-6.92a.5.5,0,0,1,.41.49V38.92h-1V19.25c-2-.26-11.17-1-16,6.54-4.78,7.37.82,18.66,1.79,20.49H25.1Z" fill="#263239"/><ellipse cx="25.58" cy="42.35" rx="4.49" ry="4.43" fill="#ffffff"/><path d="M25.58,47.28a4.93,4.93,0,1,1,5-4.93A5,5,0,0,1,25.58,47.28Zm0-8.86a3.93,3.93,0,1,0,4,3.93A4,4,0,0,0,25.58,38.42Z" fill="#263239"/><ellipse cx="25.58" cy="42.35" rx="2.58" ry="2.54" fill="#ffffff"/><path d="M25.58,45.14a2.8,2.8,0,1,1,2.83-2.79A2.81,2.81,0,0,1,25.58,45.14Zm0-5.09a2.3,2.3,0,1,0,2.33,2.3A2.31,2.31,0,0,0,25.58,40.05Z" fill="#263239"/><path d="M10.13,39.84v-.5A11.8,11.8,0,0,0,22,27.63a11.59,11.59,0,0,0-3.14-7.94l.37-.34a12.09,12.09,0,0,1,3.28,8.29A12.3,12.3,0,0,1,10.13,39.84Z" fill="#263239"/><path d="M43.52,41.66H41L35.64,8.54c-.64-3-2.18-4.8-4.86-4.8a4.84,4.84,0,0,0-4.86,4.8v7.87H23.38V8.54a7.37,7.37,0,0,1,7.4-7.32c4.08,0,6.61,3,7.41,7.32Z" fill="#ffffff"/><path d="M43.52,42.16H41a.5.5,0,0,1-.49-.42L35.15,8.62c-.63-2.9-2.1-4.38-4.37-4.38a4.34,4.34,0,0,0-4.36,4.3v7.87a.5.5,0,0,1-.5.5H23.38a.5.5,0,0,1-.5-.5V8.54A7.87,7.87,0,0,1,30.78.72c4.11,0,7,2.82,7.9,7.73L44,41.58a.5.5,0,0,1-.49.58Zm-2.12-1h1.53L37.69,8.62c-.81-4.38-3.33-6.9-6.91-6.9a6.87,6.87,0,0,0-6.9,6.82v7.37h1.54V8.54a5.34,5.34,0,0,1,5.36-5.3c1.93,0,4.42.9,5.35,5.2Z" fill="#263239"/><path d="M22.24,18.59h0a2.2,2.2,0,0,1,2.21-2.18h.75a2.2,2.2,0,0,1,2.21,2.18h0" fill="#ffffff"/><path d="M27.91,18.59h-1a1.7,1.7,0,0,0-1.71-1.68h-.75a1.7,1.7,0,0,0-1.71,1.68h-1a2.7,2.7,0,0,1,2.71-2.68h.75A2.7,2.7,0,0,1,27.91,18.59Z" fill="#263239"/><polygon points="39.43 34.69 40.58 41.74 43.77 41.78 42.59 34.69 39.43 34.69" fill="#ffffff"/><path d="M43.77,42.28h0l-3.19,0a.5.5,0,0,1-.49-.42l-1.15-7.05a.5.5,0,0,1,.49-.58h3.16a.5.5,0,0,1,.49.42l1.18,7.09a.5.5,0,0,1-.49.58Zm-2.77-1,2.17,0-1-6.08H40Z" fill="#263239"/><polygon points="46.64 46.41 37.58 46.41 38.71 40.46 45.51 40.46 46.64 46.41" fill="#ffffff"/><path d="M46.64,46.91H37.58a.5.5,0,0,1-.49-.59l1.13-6a.5.5,0,0,1,.49-.41h6.8a.5.5,0,0,1,.49.41l1.13,6a.5.5,0,0,1-.49.59Zm-8.45-1H46l-.94-5h-6Z" fill="#263239"/><path d="M2.41,36c.23-3.09,2.38-5.51,5-5.51s4.76,2.42,5,5.51a.81.81,0,0,1,0,.19V46.44a.82.82,0,0,1-.82.82H3.21a.82.82,0,0,1-.82-.82V36.23A.85.85,0,0,1,2.41,36Z" fill="#ffffff"/><path d="M11.61,47.66H3.21A1.22,1.22,0,0,1,2,46.44V36.23A1.16,1.16,0,0,1,2,36c.26-3.34,2.58-5.85,5.39-5.85S12.55,32.66,12.8,36a.71.71,0,0,1,0,.22V46.44A1.22,1.22,0,0,1,11.61,47.66ZM7.41,30.93c-2.4,0-4.38,2.21-4.6,5.14v.06a.45.45,0,0,0,0,.1V46.44a.42.42,0,0,0,.42.42h8.4a.42.42,0,0,0,.42-.42l0-10.37C11.79,33.14,9.81,30.93,7.41,30.93Z" fill="#263239"/><path d="M5.81,28.82H9a.3.3,0,0,1,.3.3v1.49H5.52V29.12A.3.3,0,0,1,5.81,28.82Z" fill="#ffffff"/><path d="M9.7,31H5.12V29.12a.7.7,0,0,1,.7-.7H9a.7.7,0,0,1,.7.7Zm-3.79-.8h3v-1h-3Z" fill="#263239"/><path d="M8.32,37.27a4.82,4.82,0,1,1,9.63,0v8a2,2,0,0,1-2,2H10.32a2,2,0,0,1-2-2v-8Z" fill="#ffffff"/><path d="M16,47.66H10.32a2.4,2.4,0,0,1-2.4-2.4v-8a5.22,5.22,0,1,1,10.43,0v8A2.4,2.4,0,0,1,16,47.66ZM8.72,37.27v8a1.6,1.6,0,0,0,1.6,1.6H16a1.6,1.6,0,0,0,1.6-1.6V37.33a4.42,4.42,0,1,0-8.83-.06Z" fill="#ff5a19"/><path d="M14.18,30.62a.34.34,0,0,1,.31.33v1.71H11.8V30.95a.34.34,0,0,1,.34-.34h2Z" fill="#ffffff"/><path d="M14.48,33.06H11.8a.4.4,0,0,1-.4-.4V30.95a.74.74,0,0,1,.74-.74h2.08a.74.74,0,0,1,.67.73v1.71A.4.4,0,0,1,14.48,33.06Zm-2.28-.8h1.88V31H12.15l0,.3Z" fill="#ff5a19"/></g></g></svg>
