<svg xmlns="http://www.w3.org/2000/svg" width="60" height="60" viewBox="0 0 60 60"><title>римские-шторы_1</title><g id="Слой_2" data-name="Слой 2"><g id="Слой_1-2" data-name="Слой 1"><rect width="60" height="60" fill="none"/><path d="M10.58,35H49.23V49.77a3.14,3.14,0,0,1-3.15,3.15H13.73a3.14,3.14,0,0,1-3.15-3.15Z" fill="#ffffff" stroke="#263239" stroke-linejoin="round" stroke-width="0.8"/><path d="M10.58,22.37H49.23V37.18a3.14,3.14,0,0,1-3.15,3.15H13.73a3.14,3.14,0,0,1-3.15-3.15Z" fill="#ffffff" stroke="#263239" stroke-linejoin="round" stroke-width="0.8"/><path d="M10.58,10.2H49.23V25a3.14,3.14,0,0,1-3.15,3.15H13.73A3.14,3.14,0,0,1,10.58,25Z" fill="#ffffff" stroke="#263239" stroke-linejoin="round" stroke-width="0.8"/><line x1="10.58" y1="16.07" x2="49.23" y2="16.07" fill="#ffffff" stroke="#263239" stroke-miterlimit="10" stroke-width="0.8"/><rect x="8.49" y="7.53" width="42.77" height="2.82" fill="#ffffff" stroke="#ff5a19" stroke-linejoin="round"/></g></g></svg>
