<svg xmlns="http://www.w3.org/2000/svg" width="60" height="60" viewBox="0 0 60 60"><title>мебель_1</title><g id="Слой_2" data-name="Слой 2"><g id="Слой_1-2" data-name="Слой 1"><rect width="60" height="60" fill="none"/><path d="M49,16.46H10.71c-2.43,0-4.4,1.17-4.4,2.6V35.34c0,1.44,2,2.6,4.4,2.6H49c2.43,0,4.4-1.17,4.4-2.6V19.07C53.37,17.63,51.4,16.46,49,16.46Z" fill="#ffffff" stroke="#263239" stroke-linejoin="round"/><ellipse cx="30.83" cy="32.14" rx="25.05" ry="2.8" fill="#ffffff" stroke="#263239" stroke-linejoin="round" stroke-width="0.8"/><path d="M53.49,39.54a3.06,3.06,0,0,1-3.29,2.77H9.48a3.06,3.06,0,0,1-3.29-2.77V36a3.06,3.06,0,0,1,3.29-2.77H50.2A3.06,3.06,0,0,1,53.49,36Z" fill="#ffffff" stroke="#263239" stroke-linejoin="round"/><path d="M9,28.92a3.73,3.73,0,1,0-5.3,3.37v9.84a1.44,1.44,0,0,0,1.44,1.44H7.51A1.44,1.44,0,0,0,9,42.13V29s0,0,0,0S9,28.93,9,28.92Z" fill="#ffffff" stroke="#263239" stroke-linejoin="round"/><path d="M50.89,28.91a3.81,3.81,0,0,1,7.61,0,3.71,3.71,0,0,1-2.2,3.37V42.1a1.45,1.45,0,0,1-1.47,1.44H52.36a1.45,1.45,0,0,1-1.47-1.44V29s0,0,0,0S50.89,28.93,50.89,28.91Z" fill="#ffffff" stroke="#263239" stroke-linejoin="round"/><circle cx="5.23" cy="28.86" r="0.97" fill="#ffffff" stroke="#ff5a19" stroke-linejoin="round" stroke-width="0.8"/><circle cx="54.69" cy="28.86" r="0.97" fill="#ffffff" stroke="#ff5a19" stroke-linejoin="round" stroke-width="0.8"/><line x1="22.1" y1="16.43" x2="22.1" y2="29.53" fill="#ffffff" stroke="#263239" stroke-linejoin="round" stroke-width="0.8"/><line x1="37.78" y1="16.57" x2="37.78" y2="29.38" fill="#ffffff" stroke="#263239" stroke-linejoin="round" stroke-width="0.8"/></g></g></svg>
