<svg xmlns="http://www.w3.org/2000/svg" width="60" height="60" viewBox="0 0 60 60"><title>шторы_1</title><g id="Слой_2" data-name="Слой 2"><g id="Слой_1-2" data-name="Слой 1"><rect width="60" height="60" fill="none"/><polygon points="11.34 39.31 11.04 50.39 19.81 50.22 16.92 42.36 11.34 39.31" fill="#ffffff"/><path d="M28.46,11.92a2.87,2.87,0,1,1-5.74,0" fill="none" stroke="#263239" stroke-linejoin="round" stroke-width="0.88"/><path d="M22.72,11.92a2.87,2.87,0,1,1-5.73,0" fill="none" stroke="#263239" stroke-linejoin="round" stroke-width="0.88"/><path d="M17,11.92a2.87,2.87,0,1,1-5.73,0" fill="none" stroke="#263239" stroke-linejoin="round" stroke-width="0.88"/><path d="M12.37,39.83" fill="#ffffff" stroke="#263239" stroke-linejoin="round" stroke-width="1.58"/><path d="M19.87,50.8c0-5.93-3.33-10.75-7.5-11" fill="#ffffff" stroke="#263239" stroke-linejoin="round" stroke-width="0.8"/><path d="M12,39.81l.41,0" fill="#f5f4f0" stroke="#263239" stroke-linejoin="round" stroke-width="1.58"/><path d="M11.55,40c2.52,1.18,4,5.31,4,10.49" fill="none" stroke="#263239" stroke-linejoin="round" stroke-width="0.8"/><path d="M20.29,50.8h0" fill="#f5f4f0" stroke="#263239" stroke-linejoin="round" stroke-width="0.8"/><path d="M10.81,50.8c1.17,0,1.22-.88,2.4-.88s1.15.88,2.37.88,1.17-.89,2.39-.89,1.14.88,2.31.89" fill="#f5f4f0" stroke="#263239" stroke-linejoin="round" stroke-width="0.8"/><path d="M20.29,50.8h0" fill="#f5f4f0" stroke="#263239" stroke-linejoin="round" stroke-width="0.8"/><path d="M11.26,50.8V39.64l-.13,0Z" fill="#ffffff" stroke="#263239" stroke-linejoin="round" stroke-width="0.8"/><path d="M28.56,11.93h-.28a2.74,2.74,0,0,1-5.45,0h-.3a2.74,2.74,0,0,1-5.45,0h-.2a2.74,2.74,0,0,1-5.45,0h-.17V39.64C21.36,36.51,28.56,25.36,28.56,11.93Z" fill="#ffffff" stroke="#263239" stroke-linejoin="round" stroke-width="0.8"/><path d="M11.12,39.69c6.77-3.08,11.51-14.27,11.51-27.76" fill="none" stroke="#263239" stroke-linejoin="round" stroke-width="0.8"/><path d="M11.2,39.81C14.53,36.73,17,25.42,17,11.93" fill="none" stroke="#263239" stroke-linejoin="round" stroke-width="0.8"/><polygon points="48.53 39.31 48.83 50.39 40.06 50.22 42.95 42.36 48.53 39.31" fill="#ffffff"/><path d="M31.41,11.92a2.87,2.87,0,1,0,5.74,0" fill="none" stroke="#263239" stroke-linejoin="round" stroke-width="0.88"/><path d="M37.15,11.92a2.87,2.87,0,1,0,5.73,0" fill="none" stroke="#263239" stroke-linejoin="round" stroke-width="0.88"/><path d="M42.88,11.92a2.87,2.87,0,1,0,5.73,0" fill="none" stroke="#263239" stroke-linejoin="round" stroke-width="0.88"/><path d="M47.5,39.83" fill="#f5f4f0" stroke="#263239" stroke-linejoin="round" stroke-width="1.58"/><path d="M40,50.8c0-5.93,3.33-10.75,7.5-11" fill="#ffffff" stroke="#263239" stroke-linejoin="round" stroke-width="0.8"/><path d="M47.91,39.81l-.41,0" fill="#f5f4f0" stroke="#263239" stroke-linejoin="round" stroke-width="1.58"/><path d="M48.32,40c-2.52,1.18-4,5.31-4,10.49" fill="none" stroke="#263239" stroke-linejoin="round" stroke-width="0.8"/><path d="M39.59,50.8h0" fill="#f5f4f0" stroke="#263239" stroke-linejoin="round" stroke-width="0.8"/><path d="M49.06,50.8c-1.17,0-1.22-.88-2.4-.88s-1.15.88-2.37.88-1.17-.89-2.39-.89-1.14.88-2.31.89" fill="#f5f4f0" stroke="#263239" stroke-linejoin="round" stroke-width="0.8"/><path d="M39.59,50.8h0" fill="#f5f4f0" stroke="#263239" stroke-linejoin="round" stroke-width="0.8"/><path d="M48.62,50.8V39.64l.13,0Z" fill="#ffffff" stroke="#263239" stroke-linejoin="round" stroke-width="0.8"/><path d="M31.31,11.93h.28a2.74,2.74,0,0,0,5.45,0h.3a2.74,2.74,0,0,0,5.45,0H43a2.74,2.74,0,0,0,5.45,0h.17V39.64C38.51,36.51,31.31,25.36,31.31,11.93Z" fill="#ffffff" stroke="#263239" stroke-linejoin="round" stroke-width="0.8"/><path d="M48.75,39.69C42,36.61,37.24,25.42,37.24,11.93" fill="none" stroke="#263239" stroke-linejoin="round" stroke-width="0.8"/><path d="M48.67,39.81c-3.33-3.08-5.79-14.39-5.79-27.88" fill="none" stroke="#263239" stroke-linejoin="round" stroke-width="0.8"/><rect x="8.62" y="9.2" width="42.77" height="2.67" fill="#ffffff" stroke="#ff5a19" stroke-linejoin="round"/></g></g></svg>
