<svg xmlns="http://www.w3.org/2000/svg" width="60" height="60" viewBox="0 0 60 60"><title>остекления</title><g id="Слой_2" data-name="Слой 2"><g id="Слой_1-2" data-name="Слой 1"><rect width="60" height="60" fill="none"/><path d="M36.23,55.35a13.62,13.62,0,0,1-4.44-3.12,9.07,9.07,0,0,1-2.45-3.78l.64-.61,7.18,6.47Z" fill="#ffffff" stroke="#263239" stroke-miterlimit="10" stroke-width="0.8"/><path d="M36.47,55.21s2.43-3.4,3.79-3.67a14.27,14.27,0,0,0,6.45-3.46l1.69-1.69,1.23-1.23,1.61-1.61a1.45,1.45,0,0,0,0-2.05L51,41.27a1.45,1.45,0,0,0-2,0l1-1a1.67,1.67,0,0,0,0-2.37l-.26-.26a1.68,1.68,0,0,0-2.37,0l.21-.21a1.68,1.68,0,0,0,0-2.37l-.26-.26a1.68,1.68,0,0,0-2.37,0l-.73.73A1.78,1.78,0,0,0,44.32,33l-.26-.26a1.78,1.78,0,0,0-2.51.14L39.46,35l-1.57,1.57-.14.14V36.5s0-.08,0-.13l-.38.38-2.3-2.3a2.12,2.12,0,0,0-1.56,2l-.32,8.25-3.65,3.52" fill="#ffffff" stroke="#263239" stroke-linecap="round" stroke-linejoin="round" fill-rule="evenodd"/><line x1="39.05" y1="35.39" x2="35.69" y2="38.76" fill="none" stroke="#263239" stroke-linecap="round" stroke-linejoin="round"/><path d="M29.74,33.16a4.44,4.44,0,0,0,4.94.92l2.67,2.68,2.28-2.28L37,31.8A4.44,4.44,0,0,0,36,26.86" fill="#ffffff" stroke="#263239" stroke-linecap="round" stroke-linejoin="round" fill-rule="evenodd"/><path d="M20.54,36.07l1.83,1.83a1.86,1.86,0,0,0,2.63,0L40.78,22.12a1.86,1.86,0,0,0,0-2.63l-1.83-1.83" fill="#ffffff" stroke="#263239" stroke-linejoin="round" fill-rule="evenodd"/><polygon points="15.94 20.09 18.19 21.56 20.45 20.1 18.98 22.35 20.45 24.61 18.19 23.14 15.94 24.61 17.4 22.35 15.94 20.09" fill="#ff5a19"/><polygon points="15.94 9.34 18.19 10.8 20.45 9.34 18.98 11.59 20.45 13.85 18.19 12.39 15.94 13.85 17.4 11.59 15.94 9.34" fill="#ff5a19"/><polygon points="24.16 12.47 26.41 13.93 28.67 12.47 27.21 14.72 28.67 16.98 26.41 15.52 24.16 16.98 25.62 14.72 24.16 12.47" fill="#ff5a19"/><rect x="15.24" y="23.78" width="26.44" height="3.58" transform="translate(-9.75 27.62) rotate(-45)" fill="#ffffff"/><path d="M36.54,15.52l2,2L20.38,35.62l-2-2L36.54,15.52m0-1.13L17.28,33.65l3.1,3.1L39.64,17.49l-3.1-3.1Z" fill="#263239"/></g></g></svg>
