<svg xmlns="http://www.w3.org/2000/svg" width="60" height="60" viewBox="0 0 60 60"><title>духовой-шкаф_1</title><g id="Слой_2" data-name="Слой 2"><g id="Слой_1-2" data-name="Слой 1"><rect width="60" height="60" fill="none"/><path d="M16.14,50v1.38A2.15,2.15,0,0,1,14,53.5h0a2.16,2.16,0,0,1-2.16-2.15V50" fill="#ffffff" stroke="#263239" stroke-linecap="round" stroke-miterlimit="10" stroke-width="0.8"/><path d="M47.86,50v1.38a2.16,2.16,0,0,1-2.15,2.15h0a2.16,2.16,0,0,1-2.16-2.15V50" fill="#ffffff" stroke="#263239" stroke-linecap="round" stroke-miterlimit="10" stroke-width="0.8"/><rect x="9.74" y="9.44" width="40.53" height="40.53" rx="4" ry="4" fill="#ffffff" stroke="#263239" stroke-linecap="round" stroke-miterlimit="10"/><rect x="13.75" y="25.54" width="32.49" height="18.01" rx="2.16" ry="2.16" fill="#ffffff" stroke="#263239" stroke-linecap="round" stroke-miterlimit="10"/><path d="M12.75,9A2.3,2.3,0,0,1,15,6.69H45A2.3,2.3,0,0,1,47.31,9" fill="#ffffff" stroke="#263239" stroke-linecap="round" stroke-miterlimit="10" stroke-width="0.8"/><line x1="9.74" y1="21.84" x2="50.26" y2="21.84" fill="none" stroke="#263239" stroke-linecap="round" stroke-miterlimit="10" stroke-width="0.88"/><circle cx="18.26" cy="16.26" r="2.12" fill="#ffffff" stroke="#ff5a19" stroke-linecap="round" stroke-miterlimit="10" stroke-width="0.8"/><circle cx="41.43" cy="16.26" r="2.12" fill="#ffffff" stroke="#ff5a19" stroke-linecap="round" stroke-miterlimit="10" stroke-width="0.8"/><circle cx="33.71" cy="16.26" r="2.12" fill="#ffffff" stroke="#ff5a19" stroke-linecap="round" stroke-miterlimit="10" stroke-width="0.8"/><circle cx="25.99" cy="16.26" r="2.12" fill="#ffffff" stroke="#ff5a19" stroke-linecap="round" stroke-miterlimit="10" stroke-width="0.8"/><line x1="13.75" y1="41.39" x2="45.71" y2="41.39" fill="none" stroke="#263239" stroke-linecap="round" stroke-miterlimit="10" stroke-width="0.8"/><line x1="18.26" y1="25.54" x2="18.26" y2="41.07" fill="none" stroke="#263239" stroke-linecap="round" stroke-miterlimit="10" stroke-width="0.8"/><line x1="41.43" y1="25.92" x2="41.43" y2="41.07" fill="none" stroke="#263239" stroke-linecap="round" stroke-miterlimit="10" stroke-width="0.8"/></g></g></svg>
