<svg xmlns="http://www.w3.org/2000/svg" width="21" height="20.02" viewBox="0 0 21 20.02">
  <path d="M24.78,62.32l-5.69,3a0.51,0.51,0,0,1-.74-0.54l1.09-6.34A0.51,0.51,0,0,0,19.28,58l-4.61-4.49A0.51,0.51,0,0,1,15,52.61l6.37-.93a0.51,0.51,0,0,0,.39-0.28l2.85-5.77a0.51,0.51,0,0,1,.92,0l2.85,5.77a0.51,0.51,0,0,0,.39.28l6.37,0.93a0.51,0.51,0,0,1,.28.88L30.75,58a0.51,0.51,0,0,0-.15.45l1.09,6.34a0.51,0.51,0,0,1-.74.54l-5.69-3A0.51,0.51,0,0,0,24.78,62.32Z" transform="translate(-14.52 -45.35)" style="fill: #fd8204"/>
</svg>
