<svg xmlns="http://www.w3.org/2000/svg" width="22" height="21.02" viewBox="0 0 22 21.02">
  <path d="M50.78,87.07l-5.69,3a0.51,0.51,0,0,1-.74-0.54l1.09-6.34a0.51,0.51,0,0,0-.15-0.45l-4.61-4.49A0.51,0.51,0,0,1,41,77.36l6.37-.93a0.51,0.51,0,0,0,.39-0.28l2.85-5.77a0.51,0.51,0,0,1,.92,0l2.85,5.77a0.51,0.51,0,0,0,.39.28l6.37,0.93a0.51,0.51,0,0,1,.28.88l-4.61,4.49a0.51,0.51,0,0,0-.15.45l1.09,6.34a0.51,0.51,0,0,1-.74.54l-5.69-3A0.51,0.51,0,0,0,50.78,87.07Z" transform="translate(-40.02 -69.6)" fill="none" stroke="#d5cec2" stroke-miterlimit="10"/>
</svg>
